<svg width="430" height="932" viewBox="0 0 430 932" fill="none" xmlns="http://www.w3.org/2000/svg">
<g clip-path="url(#clip0_1_3)">
<rect width="430" height="932" fill="#FFFAEE"/>
<circle cx="215" cy="-739.872" r="928.204" fill="#FFC244"/>
<path d="M134.579 297.914C136.389 296.088 138.585 295.175 141.167 295.175C142.631 295.175 143.997 295.496 145.263 296.138C146.546 296.763 147.624 297.626 148.496 298.728L145.436 300.974C144.301 299.625 142.878 298.951 141.167 298.951C139.654 298.951 138.346 299.493 137.244 300.579C136.158 301.665 135.615 302.973 135.615 304.502C135.615 306.049 136.158 307.365 137.244 308.451C138.33 309.536 139.637 310.079 141.167 310.079C142.911 310.079 144.326 309.405 145.411 308.056L148.693 310.03C147.821 311.231 146.727 312.176 145.411 312.867C144.112 313.542 142.697 313.879 141.167 313.879C138.585 313.879 136.38 312.966 134.554 311.14C132.745 309.298 131.84 307.085 131.84 304.502C131.84 301.936 132.753 299.74 134.579 297.914ZM151.157 295.496H154.859V302.751H161.792V295.496H165.494V313.509H161.792V306.427H154.859V313.509H151.157V295.496ZM173.507 295.496H177.48L183.673 313.509H179.626L178.442 309.832H172.594L171.385 313.509H167.313L173.507 295.496ZM177.406 306.402L175.506 300.53L173.606 306.402H177.406ZM192.429 295.496C194.337 295.496 195.875 296.064 197.043 297.199C198.211 298.317 198.795 299.707 198.795 301.369C198.795 302.553 198.475 303.614 197.833 304.552C197.208 305.489 196.352 306.156 195.267 306.551L199.141 313.509H194.921L191.59 307.291H189.197V313.509H185.495V295.496H192.429ZM192.33 303.664C193.153 303.664 193.803 303.45 194.28 303.022C194.757 302.578 194.995 302.027 194.995 301.369C194.995 300.727 194.749 300.193 194.255 299.765C193.778 299.321 193.136 299.099 192.33 299.099H189.197V303.664H192.33ZM204.908 313.509H201.207V295.496H204.908V313.509ZM207.625 304.502C207.625 301.936 208.53 299.74 210.339 297.914C212.165 296.088 214.369 295.175 216.952 295.175C219.535 295.175 221.731 296.088 223.54 297.914C225.366 299.74 226.279 301.936 226.279 304.502C226.279 307.085 225.374 309.289 223.565 311.115C221.739 312.958 219.535 313.879 216.952 313.879C214.369 313.879 212.165 312.966 210.339 311.14C208.53 309.298 207.625 307.085 207.625 304.502ZM213.029 308.451C214.114 309.536 215.422 310.079 216.952 310.079C218.482 310.079 219.781 309.536 220.851 308.451C221.936 307.365 222.479 306.049 222.479 304.502C222.479 302.973 221.936 301.665 220.851 300.579C219.765 299.493 218.465 298.951 216.952 298.951C215.439 298.951 214.131 299.493 213.029 300.579C211.943 301.665 211.4 302.973 211.4 304.502C211.4 306.049 211.943 307.365 213.029 308.451ZM228.99 295.496H232.692V302.751H239.625V295.496H243.327V313.509H239.625V306.427H232.692V313.509H228.99V295.496ZM250.427 313.509H246.726V295.496H250.427V313.509ZM253.07 310.943L255.365 308.599C256.664 309.865 258.104 310.499 259.683 310.499C260.522 310.499 261.188 310.318 261.681 309.956C262.191 309.594 262.446 309.1 262.446 308.475C262.446 308.015 262.282 307.62 261.953 307.291C261.624 306.962 261.188 306.69 260.645 306.477C260.119 306.246 259.535 306.032 258.893 305.835C258.268 305.621 257.635 305.374 256.993 305.095C256.352 304.799 255.759 304.461 255.217 304.083C254.69 303.705 254.262 303.195 253.933 302.553C253.604 301.895 253.44 301.138 253.44 300.283C253.44 298.77 253.983 297.544 255.068 296.606C256.171 295.652 257.643 295.175 259.485 295.175C260.587 295.175 261.681 295.414 262.767 295.891C263.853 296.368 264.782 297.1 265.555 298.087L262.989 300.135C262.611 299.641 262.109 299.255 261.484 298.975C260.859 298.679 260.234 298.523 259.609 298.506C258.836 298.506 258.21 298.671 257.733 299C257.256 299.329 257.018 299.74 257.018 300.234C257.018 300.694 257.24 301.097 257.684 301.443C258.128 301.772 258.679 302.035 259.337 302.232C260.012 302.43 260.736 302.685 261.509 302.997C262.298 303.293 263.022 303.631 263.68 304.009C264.355 304.371 264.914 304.922 265.358 305.662C265.802 306.386 266.024 307.25 266.024 308.253C266.024 309.931 265.449 311.288 264.297 312.325C263.145 313.344 261.632 313.854 259.757 313.854C259.724 313.854 259.691 313.854 259.658 313.854C256.993 313.854 254.797 312.884 253.07 310.943ZM273.316 295.496H277.289L283.482 313.509H279.436L278.251 309.832H272.403L271.194 313.509H267.123L273.316 295.496ZM277.215 306.402L275.315 300.53L273.415 306.402H277.215ZM285.305 295.496H291.967C293.661 295.496 295.051 295.932 296.137 296.804C297.239 297.659 297.79 298.803 297.79 300.234C297.79 301.714 297.173 302.907 295.94 303.812C296.812 304.19 297.502 304.757 298.012 305.514C298.522 306.254 298.777 307.135 298.777 308.154C298.777 309.717 298.21 311 297.075 312.004C295.94 313.007 294.476 313.509 292.683 313.509H285.305V295.496ZM289.006 309.956H292.559C293.316 309.956 293.908 309.767 294.336 309.388C294.764 309.01 294.977 308.508 294.977 307.883C294.977 307.258 294.755 306.756 294.311 306.378C293.867 305.999 293.316 305.81 292.658 305.81H289.006V309.956ZM289.006 302.627L292.14 302.602C292.748 302.57 293.234 302.389 293.596 302.06C293.974 301.714 294.163 301.286 294.163 300.777C294.163 300.217 293.957 299.757 293.546 299.395C293.151 299.033 292.6 298.852 291.893 298.852H289.006V302.627Z" fill="black"/>
<path d="M61.9175 412.524C63.557 412.524 64.8785 413.011 65.8819 413.987C66.8854 414.948 67.3872 416.142 67.3872 417.569C67.3872 418.587 67.1116 419.499 66.5604 420.304C66.0233 421.11 65.2883 421.682 64.3555 422.022L67.684 428H64.0587L61.1967 422.658H59.1403V428H55.9603V412.524H61.9175ZM61.8327 419.541C62.5394 419.541 63.0977 419.357 63.5075 418.99C63.9174 418.608 64.1223 418.135 64.1223 417.569C64.1223 417.018 63.9103 416.559 63.4863 416.191C63.0765 415.81 62.5252 415.619 61.8327 415.619H59.1403V419.541H61.8327ZM70.4128 417.93C71.5718 416.757 72.9781 416.17 74.6317 416.17C76.2994 416.17 77.7057 416.757 78.8505 417.93C80.0095 419.103 80.5889 420.516 80.5889 422.17C80.5889 422.481 80.5607 422.877 80.5041 423.357H71.8756C72.0311 423.965 72.3845 424.467 72.9357 424.862C73.501 425.244 74.1582 425.435 74.9073 425.435C76.0521 425.435 76.9496 425.074 77.5997 424.354L79.9953 425.859C79.4441 426.565 78.7021 427.131 77.7693 427.555C76.8365 427.979 75.8825 428.191 74.9073 428.191C73.1123 428.191 71.6212 427.611 70.434 426.452C69.261 425.279 68.6744 423.852 68.6744 422.17C68.6744 420.516 69.2539 419.103 70.4128 417.93ZM71.8756 420.983H77.4937C77.4089 420.417 77.105 419.937 76.5821 419.541C76.0592 419.145 75.4161 418.948 74.6529 418.948C73.9038 418.948 73.2749 419.145 72.7661 419.541C72.2714 419.937 71.9746 420.417 71.8756 420.983ZM79.6137 432.579L80.3769 429.866C80.6596 429.95 80.9352 429.993 81.2037 429.993C82.5323 429.993 83.1966 429.081 83.1966 427.258V416.34H86.1646V427.258C86.1646 429.265 85.7476 430.714 84.9138 431.604C84.0799 432.494 82.9916 432.94 81.6489 432.94C80.8999 432.94 80.2215 432.82 79.6137 432.579ZM83.4934 412.481C83.8184 412.142 84.2212 411.973 84.7018 411.973C85.154 411.973 85.5427 412.142 85.8678 412.481C86.207 412.821 86.3766 413.223 86.3766 413.69C86.3766 414.156 86.207 414.559 85.8678 414.898C85.5427 415.237 85.154 415.407 84.7018 415.407C84.2212 415.407 83.8114 415.237 83.4722 414.898C83.1471 414.559 82.9846 414.156 82.9846 413.69C82.9846 413.223 83.1542 412.821 83.4934 412.481ZM89.8538 417.93C91.0127 416.757 92.419 416.17 94.0726 416.17C95.7262 416.17 97.1396 416.764 98.3126 417.951C99.4998 419.124 100.093 420.53 100.093 422.17C100.093 423.824 99.5069 425.237 98.3338 426.41C97.1466 427.597 95.7262 428.191 94.0726 428.191C92.419 428.191 91.0056 427.604 89.8326 426.431C88.6736 425.244 88.0941 423.824 88.0941 422.17C88.0941 420.516 88.6807 419.103 89.8538 417.93ZM91.1046 422.17C91.1046 423.004 91.3943 423.71 91.9738 424.29C92.5532 424.869 93.2529 425.159 94.0726 425.159C94.9065 425.159 95.6131 424.869 96.1926 424.29C96.7721 423.71 97.0618 423.004 97.0618 422.17C97.0618 421.35 96.7721 420.651 96.1926 420.071C95.6131 419.492 94.9065 419.202 94.0726 419.202C93.2529 419.202 92.5532 419.492 91.9738 420.071C91.3943 420.651 91.1046 421.35 91.1046 422.17ZM101.999 416.34H104.989V428H101.999V416.34ZM102.296 412.481C102.635 412.142 103.038 411.973 103.505 411.973C103.957 411.973 104.353 412.142 104.692 412.481C105.031 412.821 105.201 413.223 105.201 413.69C105.201 414.156 105.031 414.559 104.692 414.898C104.353 415.237 103.957 415.407 103.505 415.407C103.038 415.407 102.635 415.237 102.296 414.898C101.957 414.559 101.787 414.156 101.787 413.69C101.787 413.223 101.957 412.821 102.296 412.481ZM106.913 422.149C106.913 420.495 107.451 419.082 108.525 417.909C109.599 416.736 110.899 416.149 112.426 416.149C113.217 416.149 113.945 416.347 114.609 416.743C115.273 417.138 115.782 417.647 116.136 418.269L116.326 416.34H119.04V426.177C119.04 428.367 118.446 430.042 117.259 431.201C116.086 432.36 114.503 432.94 112.51 432.94C111.521 432.94 110.567 432.728 109.648 432.304C108.744 431.894 108.016 431.328 107.465 430.608L109.712 428.848C110.461 429.682 111.45 430.099 112.68 430.099C113.627 430.099 114.425 429.809 115.076 429.23C115.726 428.664 116.051 427.83 116.051 426.728V426.156C115.697 426.735 115.196 427.216 114.546 427.597C113.895 427.979 113.189 428.17 112.426 428.17C110.899 428.17 109.599 427.583 108.525 426.41C107.451 425.223 106.913 423.802 106.913 422.149ZM110.814 424.311C111.408 424.919 112.129 425.223 112.977 425.223C113.839 425.223 114.567 424.926 115.16 424.332C115.754 423.725 116.051 422.997 116.051 422.149C116.051 421.301 115.754 420.58 115.16 419.986C114.567 419.379 113.839 419.075 112.977 419.075C112.129 419.075 111.408 419.379 110.814 419.986C110.221 420.58 109.924 421.301 109.924 422.149C109.924 422.997 110.221 423.718 110.814 424.311ZM121.523 428V416.34H124.236L124.427 418.036C124.766 417.471 125.212 417.018 125.763 416.679C126.328 416.326 126.964 416.149 127.671 416.149C129.084 416.149 130.201 416.637 131.02 417.612C131.854 418.587 132.271 420.064 132.271 422.043V428H129.303V422.043C129.303 421.068 129.07 420.333 128.604 419.838C128.151 419.329 127.586 419.075 126.908 419.075C126.215 419.075 125.643 419.329 125.19 419.838C124.738 420.333 124.512 421.068 124.512 422.043V428H121.523ZM135.753 417.93C136.911 416.757 138.318 416.17 139.971 416.17C141.639 416.17 143.045 416.757 144.19 417.93C145.349 419.103 145.929 420.516 145.929 422.17C145.929 422.481 145.9 422.877 145.844 423.357H137.215C137.371 423.965 137.724 424.467 138.275 424.862C138.841 425.244 139.498 425.435 140.247 425.435C141.392 425.435 142.289 425.074 142.939 424.354L145.335 425.859C144.784 426.565 144.042 427.131 143.109 427.555C142.176 427.979 141.222 428.191 140.247 428.191C138.452 428.191 136.961 427.611 135.774 426.452C134.601 425.279 134.014 423.852 134.014 422.17C134.014 420.516 134.594 419.103 135.753 417.93ZM137.215 420.983H142.833C142.749 420.417 142.445 419.937 141.922 419.541C141.399 419.145 140.756 418.948 139.993 418.948C139.244 418.948 138.615 419.145 138.106 419.541C137.611 419.937 137.314 420.417 137.215 420.983ZM147.519 418.99V416.34H157.313V418.587L151.886 425.223H157.61V428H147.519V425.88L153.222 418.99H147.519ZM167.329 421.449H159.443V419.075H167.329V421.449ZM169.451 428V416.34H172.165L172.355 418.036C172.695 417.471 173.14 417.018 173.691 416.679C174.256 416.326 174.892 416.149 175.599 416.149C177.012 416.149 178.129 416.637 178.949 417.612C179.783 418.587 180.199 420.064 180.199 422.043V428H177.231V422.043C177.231 421.068 176.998 420.333 176.532 419.838C176.08 419.329 175.514 419.075 174.836 419.075C174.143 419.075 173.571 419.329 173.119 419.838C172.666 420.333 172.44 421.068 172.44 422.043V428H169.451ZM183.702 417.93C184.861 416.757 186.267 416.17 187.921 416.17C189.574 416.17 190.988 416.764 192.161 417.951C193.348 419.124 193.942 420.53 193.942 422.17C193.942 423.824 193.355 425.237 192.182 426.41C190.995 427.597 189.574 428.191 187.921 428.191C186.267 428.191 184.854 427.604 183.681 426.431C182.522 425.244 181.942 423.824 181.942 422.17C181.942 420.516 182.529 419.103 183.702 417.93ZM184.953 422.17C184.953 423.004 185.242 423.71 185.822 424.29C186.401 424.869 187.101 425.159 187.921 425.159C188.755 425.159 189.461 424.869 190.041 424.29C190.62 423.71 190.91 423.004 190.91 422.17C190.91 421.35 190.62 420.651 190.041 420.071C189.461 419.492 188.755 419.202 187.921 419.202C187.101 419.202 186.401 419.492 185.822 420.071C185.242 420.651 184.953 421.35 184.953 422.17ZM195.657 416.34H198.646V422.276C198.646 423.251 198.872 423.993 199.325 424.502C199.777 424.997 200.349 425.244 201.042 425.244C201.72 425.244 202.285 424.997 202.738 424.502C203.204 423.993 203.437 423.251 203.437 422.276V416.34H206.405V428H203.692L203.522 426.283C203.183 426.848 202.731 427.307 202.165 427.661C201.6 428.014 200.964 428.191 200.257 428.191C198.844 428.191 197.72 427.703 196.886 426.728C196.067 425.739 195.657 424.255 195.657 422.276V416.34ZM210.459 424.332C210.812 424.686 211.3 424.968 211.922 425.18C212.544 425.392 213.152 425.498 213.745 425.498C214.918 425.498 215.505 425.195 215.505 424.587C215.505 424.318 215.272 424.099 214.805 423.93C214.353 423.746 213.795 423.583 213.13 423.442C212.48 423.286 211.823 423.089 211.159 422.848C210.509 422.608 209.95 422.212 209.484 421.661C209.032 421.11 208.805 420.417 208.805 419.584C208.805 418.538 209.222 417.697 210.056 417.061C210.89 416.425 211.986 416.107 213.342 416.107C215.491 416.107 217.109 416.75 218.197 418.036L216.416 419.838C216.091 419.485 215.639 419.216 215.06 419.032C214.494 418.849 213.95 418.757 213.427 418.757C212.918 418.757 212.516 418.834 212.219 418.99C211.936 419.131 211.795 419.329 211.795 419.584C211.795 419.824 212.021 420.029 212.473 420.198C212.94 420.354 213.505 420.509 214.169 420.665C214.833 420.806 215.491 420.997 216.141 421.237C216.805 421.477 217.363 421.873 217.816 422.424C218.282 422.976 218.515 423.661 218.515 424.481C218.515 425.725 218.063 426.671 217.158 427.322C216.268 427.958 215.13 428.276 213.745 428.276C212.784 428.276 211.816 428.113 210.841 427.788C209.88 427.449 209.081 426.947 208.445 426.283L210.459 424.332ZM226.199 432.664V416.34H228.912L229.103 418.269C229.442 417.661 229.944 417.16 230.608 416.764C231.287 416.368 232.022 416.17 232.813 416.17C234.325 416.17 235.619 416.764 236.693 417.951C237.781 419.124 238.325 420.53 238.325 422.17C238.325 423.824 237.781 425.244 236.693 426.431C235.619 427.604 234.325 428.191 232.813 428.191C232.05 428.191 231.336 428.007 230.672 427.64C230.022 427.258 229.527 426.77 229.188 426.177V432.664H226.199ZM230.078 424.354C230.672 424.947 231.4 425.244 232.262 425.244C233.11 425.244 233.831 424.947 234.424 424.354C235.018 423.76 235.315 423.032 235.315 422.17C235.315 421.322 235.018 420.601 234.424 420.008C233.831 419.4 233.11 419.096 232.262 419.096C231.4 419.096 230.672 419.4 230.078 420.008C229.485 420.601 229.188 421.322 229.188 422.17C229.188 423.032 229.485 423.76 230.078 424.354ZM241.274 417.909C242.349 416.736 243.649 416.149 245.175 416.149C245.967 416.149 246.695 416.347 247.359 416.743C248.023 417.138 248.532 417.647 248.885 418.269L249.076 416.34H251.79V428H249.076L248.885 426.05C248.532 426.671 248.023 427.18 247.359 427.576C246.695 427.972 245.967 428.17 245.175 428.17C243.649 428.17 242.349 427.583 241.274 426.41C240.2 425.223 239.663 423.802 239.663 422.149C239.663 420.495 240.2 419.082 241.274 417.909ZM243.564 424.311C244.158 424.919 244.878 425.223 245.726 425.223C246.589 425.223 247.316 424.926 247.91 424.332C248.504 423.725 248.8 422.997 248.8 422.149C248.8 421.301 248.504 420.58 247.91 419.986C247.316 419.379 246.589 419.075 245.726 419.075C244.878 419.075 244.158 419.379 243.564 419.986C242.97 420.58 242.674 421.301 242.674 422.149C242.674 422.997 242.97 423.718 243.564 424.311ZM254.272 416.34H256.986L257.198 418.015C257.891 416.842 259.043 416.255 260.654 416.255C261.064 416.255 261.417 416.283 261.714 416.34L261.099 419.202C260.929 419.174 260.809 419.16 260.739 419.16C259.749 419.16 258.922 419.463 258.258 420.071C257.594 420.665 257.262 421.675 257.262 423.103V428H254.272V416.34ZM269.839 416.34L270.263 412.524H272.722V416.34H275.393V418.99H272.722V423.103C272.722 424.601 273.365 425.35 274.651 425.35C274.948 425.35 275.216 425.301 275.457 425.202L276.199 427.852C275.662 428.092 274.997 428.212 274.206 428.212C272.891 428.212 271.817 427.809 270.983 427.004C270.149 426.198 269.733 424.905 269.733 423.124V418.99H268.206V416.34H269.839ZM284.103 414.517H282.28L283.446 410.955H286.096L284.103 414.517ZM283.7 428.191C281.905 428.191 280.414 427.611 279.227 426.452C278.054 425.279 277.467 423.852 277.467 422.17C277.467 420.516 278.047 419.103 279.206 417.93C280.365 416.757 281.771 416.17 283.425 416.17C285.092 416.17 286.499 416.757 287.644 417.93C288.803 419.103 289.382 420.516 289.382 422.17C289.382 422.481 289.354 422.877 289.297 423.357H280.669C280.824 423.965 281.178 424.467 281.729 424.862C282.294 425.244 282.951 425.435 283.7 425.435C284.845 425.435 285.743 425.074 286.393 424.354L288.788 425.859C288.237 426.565 287.495 427.131 286.562 427.555C285.63 427.979 284.676 428.191 283.7 428.191ZM280.669 420.983H286.287C286.202 420.417 285.898 419.937 285.375 419.541C284.852 419.145 284.209 418.948 283.446 418.948C282.697 418.948 282.068 419.145 281.559 419.541C281.064 419.937 280.768 420.417 280.669 420.983ZM294.279 428H291.29V411.464H294.279V428ZM302.819 414.517H300.996L302.162 410.955H304.812L302.819 414.517ZM302.416 428.191C300.621 428.191 299.13 427.611 297.943 426.452C296.77 425.279 296.183 423.852 296.183 422.17C296.183 420.516 296.763 419.103 297.922 417.93C299.081 416.757 300.487 416.17 302.141 416.17C303.808 416.17 305.215 416.757 306.359 417.93C307.518 419.103 308.098 420.516 308.098 422.17C308.098 422.481 308.07 422.877 308.013 423.357H299.385C299.54 423.965 299.893 424.467 300.445 424.862C301.01 425.244 301.667 425.435 302.416 425.435C303.561 425.435 304.458 425.074 305.109 424.354L307.504 425.859C306.953 426.565 306.211 427.131 305.278 427.555C304.345 427.979 303.391 428.191 302.416 428.191ZM299.385 420.983H305.003C304.918 420.417 304.614 419.937 304.091 419.541C303.568 419.145 302.925 418.948 302.162 418.948C301.413 418.948 300.784 419.145 300.275 419.541C299.78 419.937 299.483 420.417 299.385 420.983ZM310.006 432.664V416.34H312.719L312.91 418.269C313.249 417.661 313.751 417.16 314.415 416.764C315.094 416.368 315.829 416.17 316.62 416.17C318.133 416.17 319.426 416.764 320.5 417.951C321.588 419.124 322.132 420.53 322.132 422.17C322.132 423.824 321.588 425.244 320.5 426.431C319.426 427.604 318.133 428.191 316.62 428.191C315.857 428.191 315.143 428.007 314.479 427.64C313.829 427.258 313.334 426.77 312.995 426.177V432.664H310.006ZM313.885 424.354C314.479 424.947 315.207 425.244 316.069 425.244C316.917 425.244 317.638 424.947 318.232 424.354C318.825 423.76 319.122 423.032 319.122 422.17C319.122 421.322 318.825 420.601 318.232 420.008C317.638 419.4 316.917 419.096 316.069 419.096C315.207 419.096 314.479 419.4 313.885 420.008C313.292 420.601 312.995 421.322 312.995 422.17C312.995 423.032 313.292 423.76 313.885 424.354ZM324.043 411.464H327.032V417.951C327.767 416.75 328.82 416.149 330.191 416.149C331.604 416.149 332.721 416.637 333.54 417.612C334.374 418.587 334.791 420.064 334.791 422.043V428H331.823V422.043C331.823 421.068 331.59 420.333 331.124 419.838C330.671 419.329 330.106 419.075 329.428 419.075C328.735 419.075 328.163 419.329 327.71 419.838C327.258 420.333 327.032 421.068 327.032 422.043V428H324.043V411.464ZM338.294 417.93C339.453 416.757 340.859 416.17 342.513 416.17C344.166 416.17 345.58 416.764 346.753 417.951C347.94 419.124 348.533 420.53 348.533 422.17C348.533 423.824 347.947 425.237 346.774 426.41C345.587 427.597 344.166 428.191 342.513 428.191C340.859 428.191 339.446 427.604 338.273 426.431C337.114 425.244 336.534 423.824 336.534 422.17C336.534 420.516 337.121 419.103 338.294 417.93ZM339.545 422.17C339.545 423.004 339.834 423.71 340.414 424.29C340.993 424.869 341.693 425.159 342.513 425.159C343.346 425.159 344.053 424.869 344.633 424.29C345.212 423.71 345.502 423.004 345.502 422.17C345.502 421.35 345.212 420.651 344.633 420.071C344.053 419.492 343.346 419.202 342.513 419.202C341.693 419.202 340.993 419.492 340.414 420.071C339.834 420.651 339.545 421.35 339.545 422.17ZM350.439 428V416.34H353.153L353.344 418.036C353.683 417.471 354.128 417.018 354.679 416.679C355.245 416.326 355.881 416.149 356.588 416.149C358.001 416.149 359.117 416.637 359.937 417.612C360.771 418.587 361.188 420.064 361.188 422.043V428H358.22V422.043C358.22 421.068 357.987 420.333 357.52 419.838C357.068 419.329 356.503 419.075 355.824 419.075C355.132 419.075 354.559 419.329 354.107 419.838C353.655 420.333 353.429 421.068 353.429 422.043V428H350.439ZM364.669 417.93C365.828 416.757 367.234 416.17 368.888 416.17C370.556 416.17 371.962 416.757 373.107 417.93C374.266 419.103 374.845 420.516 374.845 422.17C374.845 422.481 374.817 422.877 374.761 423.357H366.132C366.288 423.965 366.641 424.467 367.192 424.862C367.757 425.244 368.415 425.435 369.164 425.435C370.308 425.435 371.206 425.074 371.856 424.354L374.252 425.859C373.701 426.565 372.959 427.131 372.026 427.555C371.093 427.979 370.139 428.191 369.164 428.191C367.369 428.191 365.878 427.611 364.69 426.452C363.517 425.279 362.931 423.852 362.931 422.17C362.931 420.516 363.51 419.103 364.669 417.93ZM366.132 420.983H371.75C371.665 420.417 371.361 419.937 370.838 419.541C370.316 419.145 369.672 418.948 368.909 418.948C368.16 418.948 367.531 419.145 367.022 419.541C366.528 419.937 366.231 420.417 366.132 420.983Z" fill="black"/>
<path d="M64.5781 471H63.1221L57.2661 462.12V471H55.8101V459.832H57.2661L63.1221 468.696V459.832H64.5781V471ZM70.8841 471.144C70.0628 471.144 69.3161 470.957 68.6441 470.584C67.9828 470.211 67.4601 469.683 67.0761 469C66.7028 468.307 66.5161 467.507 66.5161 466.6C66.5161 465.704 66.7081 464.915 67.0921 464.232C67.4868 463.539 68.0201 463.011 68.6921 462.648C69.3641 462.275 70.1161 462.088 70.9481 462.088C71.7801 462.088 72.5321 462.275 73.2041 462.648C73.8761 463.011 74.4041 463.533 74.7881 464.216C75.1828 464.899 75.3801 465.693 75.3801 466.6C75.3801 467.507 75.1775 468.307 74.7721 469C74.3775 469.683 73.8388 470.211 73.1561 470.584C72.4735 470.957 71.7161 471.144 70.8841 471.144ZM70.8841 469.864C71.4068 469.864 71.8975 469.741 72.3561 469.496C72.8148 469.251 73.1828 468.883 73.4601 468.392C73.7481 467.901 73.8921 467.304 73.8921 466.6C73.8921 465.896 73.7535 465.299 73.4761 464.808C73.1988 464.317 72.8361 463.955 72.3881 463.72C71.9401 463.475 71.4548 463.352 70.9321 463.352C70.3988 463.352 69.9081 463.475 69.4601 463.72C69.0228 463.955 68.6708 464.317 68.4041 464.808C68.1375 465.299 68.0041 465.896 68.0041 466.6C68.0041 467.315 68.1321 467.917 68.3881 468.408C68.6548 468.899 69.0068 469.267 69.4441 469.512C69.8815 469.747 70.3615 469.864 70.8841 469.864ZM85.0705 462.232V471H83.6145V469.704C83.3372 470.152 82.9478 470.504 82.4465 470.76C81.9558 471.005 81.4118 471.128 80.8145 471.128C80.1318 471.128 79.5185 470.989 78.9745 470.712C78.4305 470.424 77.9985 469.997 77.6785 469.432C77.3692 468.867 77.2145 468.179 77.2145 467.368V462.232H78.6545V467.176C78.6545 468.04 78.8732 468.707 79.3105 469.176C79.7478 469.635 80.3452 469.864 81.1025 469.864C81.8812 469.864 82.4945 469.624 82.9425 469.144C83.3905 468.664 83.6145 467.965 83.6145 467.048V462.232H85.0705ZM90.6329 471.144C89.9609 471.144 89.3582 471.032 88.8249 470.808C88.2916 470.573 87.8702 470.253 87.5609 469.848C87.2516 469.432 87.0809 468.957 87.0489 468.424H88.5529C88.5956 468.861 88.7982 469.219 89.1609 469.496C89.5342 469.773 90.0196 469.912 90.6169 469.912C91.1716 469.912 91.6089 469.789 91.9289 469.544C92.2489 469.299 92.4089 468.989 92.4089 468.616C92.4089 468.232 92.2382 467.949 91.8969 467.768C91.5556 467.576 91.0276 467.389 90.3129 467.208C89.6622 467.037 89.1289 466.867 88.7129 466.696C88.3076 466.515 87.9556 466.253 87.6569 465.912C87.3689 465.56 87.2249 465.101 87.2249 464.536C87.2249 464.088 87.3582 463.677 87.6249 463.304C87.8916 462.931 88.2702 462.637 88.7609 462.424C89.2516 462.2 89.8116 462.088 90.4409 462.088C91.4116 462.088 92.1956 462.333 92.7929 462.824C93.3902 463.315 93.7102 463.987 93.7529 464.84H92.2969C92.2649 464.381 92.0782 464.013 91.7369 463.736C91.4062 463.459 90.9582 463.32 90.3929 463.32C89.8702 463.32 89.4542 463.432 89.1449 463.656C88.8356 463.88 88.6809 464.173 88.6809 464.536C88.6809 464.824 88.7716 465.064 88.9529 465.256C89.1449 465.437 89.3796 465.587 89.6569 465.704C89.9449 465.811 90.3396 465.933 90.8409 466.072C91.4702 466.243 91.9822 466.413 92.3769 466.584C92.7716 466.744 93.1076 466.989 93.3849 467.32C93.6729 467.651 93.8222 468.083 93.8329 468.616C93.8329 469.096 93.6996 469.528 93.4329 469.912C93.1662 470.296 92.7876 470.6 92.2969 470.824C91.8169 471.037 91.2622 471.144 90.6329 471.144ZM103.418 469.656L106.138 462.232H107.69L104.25 471H102.554L99.1139 462.232H100.682L103.418 469.656ZM112.947 471.144C112.125 471.144 111.379 470.957 110.707 470.584C110.045 470.211 109.523 469.683 109.139 469C108.765 468.307 108.579 467.507 108.579 466.6C108.579 465.704 108.771 464.915 109.155 464.232C109.549 463.539 110.083 463.011 110.755 462.648C111.427 462.275 112.179 462.088 113.011 462.088C113.843 462.088 114.595 462.275 115.267 462.648C115.939 463.011 116.467 463.533 116.851 464.216C117.245 464.899 117.443 465.693 117.443 466.6C117.443 467.507 117.24 468.307 116.835 469C116.44 469.683 115.901 470.211 115.219 470.584C114.536 470.957 113.779 471.144 112.947 471.144ZM112.947 469.864C113.469 469.864 113.96 469.741 114.419 469.496C114.877 469.251 115.245 468.883 115.523 468.392C115.811 467.901 115.955 467.304 115.955 466.6C115.955 465.896 115.816 465.299 115.539 464.808C115.261 464.317 114.899 463.955 114.451 463.72C114.003 463.475 113.517 463.352 112.995 463.352C112.461 463.352 111.971 463.475 111.523 463.72C111.085 463.955 110.733 464.317 110.467 464.808C110.2 465.299 110.067 465.896 110.067 466.6C110.067 467.315 110.195 467.917 110.451 468.408C110.717 468.899 111.069 469.267 111.507 469.512C111.944 469.747 112.424 469.864 112.947 469.864ZM127.133 462.232V471H125.677V469.704C125.4 470.152 125.01 470.504 124.509 470.76C124.018 471.005 123.474 471.128 122.877 471.128C122.194 471.128 121.581 470.989 121.037 470.712C120.493 470.424 120.061 469.997 119.741 469.432C119.432 468.867 119.277 468.179 119.277 467.368V462.232H120.717V467.176C120.717 468.04 120.936 468.707 121.373 469.176C121.81 469.635 122.408 469.864 123.165 469.864C123.944 469.864 124.557 469.624 125.005 469.144C125.453 468.664 125.677 467.965 125.677 467.048V462.232H127.133ZM132.695 471.144C132.023 471.144 131.421 471.032 130.887 470.808C130.354 470.573 129.933 470.253 129.623 469.848C129.314 469.432 129.143 468.957 129.111 468.424H130.615C130.658 468.861 130.861 469.219 131.223 469.496C131.597 469.773 132.082 469.912 132.679 469.912C133.234 469.912 133.671 469.789 133.991 469.544C134.311 469.299 134.471 468.989 134.471 468.616C134.471 468.232 134.301 467.949 133.959 467.768C133.618 467.576 133.09 467.389 132.375 467.208C131.725 467.037 131.191 466.867 130.775 466.696C130.37 466.515 130.018 466.253 129.719 465.912C129.431 465.56 129.287 465.101 129.287 464.536C129.287 464.088 129.421 463.677 129.687 463.304C129.954 462.931 130.333 462.637 130.823 462.424C131.314 462.2 131.874 462.088 132.503 462.088C133.474 462.088 134.258 462.333 134.855 462.824C135.453 463.315 135.773 463.987 135.815 464.84H134.359C134.327 464.381 134.141 464.013 133.799 463.736C133.469 463.459 133.021 463.32 132.455 463.32C131.933 463.32 131.517 463.432 131.207 463.656C130.898 463.88 130.743 464.173 130.743 464.536C130.743 464.824 130.834 465.064 131.015 465.256C131.207 465.437 131.442 465.587 131.719 465.704C132.007 465.811 132.402 465.933 132.903 466.072C133.533 466.243 134.045 466.413 134.439 466.584C134.834 466.744 135.17 466.989 135.447 467.32C135.735 467.651 135.885 468.083 135.895 468.616C135.895 469.096 135.762 469.528 135.495 469.912C135.229 470.296 134.85 470.6 134.359 470.824C133.879 471.037 133.325 471.144 132.695 471.144ZM150.216 466.28C150.216 466.557 150.2 466.851 150.168 467.16H143.16C143.214 468.024 143.507 468.701 144.04 469.192C144.584 469.672 145.24 469.912 146.008 469.912C146.638 469.912 147.16 469.768 147.576 469.48C148.003 469.181 148.302 468.787 148.472 468.296H150.04C149.806 469.139 149.336 469.827 148.632 470.36C147.928 470.883 147.054 471.144 146.008 471.144C145.176 471.144 144.43 470.957 143.768 470.584C143.118 470.211 142.606 469.683 142.232 469C141.859 468.307 141.672 467.507 141.672 466.6C141.672 465.693 141.854 464.899 142.216 464.216C142.579 463.533 143.086 463.011 143.736 462.648C144.398 462.275 145.155 462.088 146.008 462.088C146.84 462.088 147.576 462.269 148.216 462.632C148.856 462.995 149.347 463.496 149.688 464.136C150.04 464.765 150.216 465.48 150.216 466.28ZM148.712 465.976C148.712 465.421 148.59 464.947 148.344 464.552C148.099 464.147 147.763 463.843 147.336 463.64C146.92 463.427 146.456 463.32 145.944 463.32C145.208 463.32 144.579 463.555 144.056 464.024C143.544 464.493 143.251 465.144 143.176 465.976H148.712ZM156.41 462.072C157.477 462.072 158.341 462.397 159.002 463.048C159.664 463.688 159.994 464.616 159.994 465.832V471H158.554V466.04C158.554 465.165 158.336 464.499 157.898 464.04C157.461 463.571 156.864 463.336 156.106 463.336C155.338 463.336 154.725 463.576 154.266 464.056C153.818 464.536 153.594 465.235 153.594 466.152V471H152.138V462.232H153.594V463.48C153.882 463.032 154.272 462.685 154.762 462.44C155.264 462.195 155.813 462.072 156.41 462.072ZM165.637 469.656L168.357 462.232H169.909L166.469 471H164.773L161.333 462.232H162.901L165.637 469.656ZM179.341 466.28C179.341 466.557 179.325 466.851 179.293 467.16H172.285C172.339 468.024 172.632 468.701 173.165 469.192C173.709 469.672 174.365 469.912 175.133 469.912C175.763 469.912 176.285 469.768 176.701 469.48C177.128 469.181 177.427 468.787 177.597 468.296H179.165C178.931 469.139 178.461 469.827 177.757 470.36C177.053 470.883 176.179 471.144 175.133 471.144C174.301 471.144 173.555 470.957 172.893 470.584C172.243 470.211 171.731 469.683 171.357 469C170.984 468.307 170.797 467.507 170.797 466.6C170.797 465.693 170.979 464.899 171.341 464.216C171.704 463.533 172.211 463.011 172.861 462.648C173.523 462.275 174.28 462.088 175.133 462.088C175.965 462.088 176.701 462.269 177.341 462.632C177.981 462.995 178.472 463.496 178.813 464.136C179.165 464.765 179.341 465.48 179.341 466.28ZM177.837 465.976C177.837 465.421 177.715 464.947 177.469 464.552C177.224 464.147 176.888 463.843 176.461 463.64C176.045 463.427 175.581 463.32 175.069 463.32C174.333 463.32 173.704 463.555 173.181 464.024C172.669 464.493 172.376 465.144 172.301 465.976H177.837ZM182.719 463.656C182.975 463.155 183.338 462.765 183.807 462.488C184.287 462.211 184.869 462.072 185.551 462.072V463.576H185.167C183.535 463.576 182.719 464.461 182.719 466.232V471H181.263V462.232H182.719V463.656ZM188.688 463.656C188.944 463.155 189.307 462.765 189.776 462.488C190.256 462.211 190.837 462.072 191.52 462.072V463.576H191.136C189.504 463.576 188.688 464.461 188.688 466.232V471H187.232V462.232H188.688V463.656ZM197.025 471.144C196.203 471.144 195.457 470.957 194.785 470.584C194.123 470.211 193.601 469.683 193.217 469C192.843 468.307 192.657 467.507 192.657 466.6C192.657 465.704 192.849 464.915 193.233 464.232C193.627 463.539 194.161 463.011 194.833 462.648C195.505 462.275 196.257 462.088 197.089 462.088C197.921 462.088 198.673 462.275 199.345 462.648C200.017 463.011 200.545 463.533 200.929 464.216C201.323 464.899 201.521 465.693 201.521 466.6C201.521 467.507 201.318 468.307 200.913 469C200.518 469.683 199.979 470.211 199.297 470.584C198.614 470.957 197.857 471.144 197.025 471.144ZM197.025 469.864C197.547 469.864 198.038 469.741 198.497 469.496C198.955 469.251 199.323 468.883 199.601 468.392C199.889 467.901 200.033 467.304 200.033 466.6C200.033 465.896 199.894 465.299 199.617 464.808C199.339 464.317 198.977 463.955 198.529 463.72C198.081 463.475 197.595 463.352 197.073 463.352C196.539 463.352 196.049 463.475 195.601 463.72C195.163 463.955 194.811 464.317 194.545 464.808C194.278 465.299 194.145 465.896 194.145 466.6C194.145 467.315 194.273 467.917 194.529 468.408C194.795 468.899 195.147 469.267 195.585 469.512C196.022 469.747 196.502 469.864 197.025 469.864ZM207.707 462.072C208.774 462.072 209.638 462.397 210.299 463.048C210.96 463.688 211.291 464.616 211.291 465.832V471H209.851V466.04C209.851 465.165 209.632 464.499 209.195 464.04C208.758 463.571 208.16 463.336 207.403 463.336C206.635 463.336 206.022 463.576 205.563 464.056C205.115 464.536 204.891 465.235 204.891 466.152V471H203.435V462.232H204.891V463.48C205.179 463.032 205.568 462.685 206.059 462.44C206.56 462.195 207.11 462.072 207.707 462.072ZM216.774 471.144C216.102 471.144 215.499 471.032 214.966 470.808C214.432 470.573 214.011 470.253 213.702 469.848C213.392 469.432 213.222 468.957 213.19 468.424H214.694C214.736 468.861 214.939 469.219 215.302 469.496C215.675 469.773 216.16 469.912 216.758 469.912C217.312 469.912 217.75 469.789 218.07 469.544C218.39 469.299 218.55 468.989 218.55 468.616C218.55 468.232 218.379 467.949 218.038 467.768C217.696 467.576 217.168 467.389 216.454 467.208C215.803 467.037 215.27 466.867 214.854 466.696C214.448 466.515 214.096 466.253 213.798 465.912C213.51 465.56 213.366 465.101 213.366 464.536C213.366 464.088 213.499 463.677 213.766 463.304C214.032 462.931 214.411 462.637 214.902 462.424C215.392 462.2 215.952 462.088 216.582 462.088C217.552 462.088 218.336 462.333 218.934 462.824C219.531 463.315 219.851 463.987 219.894 464.84H218.438C218.406 464.381 218.219 464.013 217.878 463.736C217.547 463.459 217.099 463.32 216.534 463.32C216.011 463.32 215.595 463.432 215.286 463.656C214.976 463.88 214.822 464.173 214.822 464.536C214.822 464.824 214.912 465.064 215.094 465.256C215.286 465.437 215.52 465.587 215.798 465.704C216.086 465.811 216.48 465.933 216.982 466.072C217.611 466.243 218.123 466.413 218.518 466.584C218.912 466.744 219.248 466.989 219.526 467.32C219.814 467.651 219.963 468.083 219.974 468.616C219.974 469.096 219.84 469.528 219.574 469.912C219.307 470.296 218.928 470.6 218.438 470.824C217.958 471.037 217.403 471.144 216.774 471.144ZM234.071 462.232V471H232.615V469.704C232.337 470.152 231.948 470.504 231.447 470.76C230.956 471.005 230.412 471.128 229.815 471.128C229.132 471.128 228.519 470.989 227.975 470.712C227.431 470.424 226.999 469.997 226.679 469.432C226.369 468.867 226.215 468.179 226.215 467.368V462.232H227.655V467.176C227.655 468.04 227.873 468.707 228.311 469.176C228.748 469.635 229.345 469.864 230.103 469.864C230.881 469.864 231.495 469.624 231.943 469.144C232.391 468.664 232.615 467.965 232.615 467.048V462.232H234.071ZM240.801 462.072C241.868 462.072 242.732 462.397 243.393 463.048C244.054 463.688 244.385 464.616 244.385 465.832V471H242.945V466.04C242.945 465.165 242.726 464.499 242.289 464.04C241.852 463.571 241.254 463.336 240.497 463.336C239.729 463.336 239.116 463.576 238.657 464.056C238.209 464.536 237.985 465.235 237.985 466.152V471H236.529V462.232H237.985V463.48C238.273 463.032 238.662 462.685 239.153 462.44C239.654 462.195 240.204 462.072 240.801 462.072ZM250.485 466.6C250.485 465.693 250.666 464.904 251.029 464.232C251.392 463.549 251.893 463.021 252.533 462.648C253.184 462.275 253.925 462.088 254.757 462.088C255.834 462.088 256.72 462.349 257.413 462.872C258.117 463.395 258.581 464.12 258.805 465.048H257.237C257.088 464.515 256.794 464.093 256.357 463.784C255.93 463.475 255.397 463.32 254.757 463.32C253.925 463.32 253.253 463.608 252.741 464.184C252.229 464.749 251.973 465.555 251.973 466.6C251.973 467.656 252.229 468.472 252.741 469.048C253.253 469.624 253.925 469.912 254.757 469.912C255.397 469.912 255.93 469.763 256.357 469.464C256.784 469.165 257.077 468.739 257.237 468.184H258.805C258.57 469.08 258.101 469.8 257.397 470.344C256.693 470.877 255.813 471.144 254.757 471.144C253.925 471.144 253.184 470.957 252.533 470.584C251.893 470.211 251.392 469.683 251.029 469C250.666 468.317 250.485 467.517 250.485 466.6ZM264.572 471.144C263.75 471.144 263.004 470.957 262.332 470.584C261.67 470.211 261.148 469.683 260.764 469C260.39 468.307 260.204 467.507 260.204 466.6C260.204 465.704 260.396 464.915 260.78 464.232C261.174 463.539 261.708 463.011 262.38 462.648C263.052 462.275 263.804 462.088 264.636 462.088C265.468 462.088 266.22 462.275 266.892 462.648C267.564 463.011 268.092 463.533 268.476 464.216C268.87 464.899 269.068 465.693 269.068 466.6C269.068 467.507 268.865 468.307 268.46 469C268.065 469.683 267.526 470.211 266.844 470.584C266.161 470.957 265.404 471.144 264.572 471.144ZM264.572 469.864C265.094 469.864 265.585 469.741 266.044 469.496C266.502 469.251 266.87 468.883 267.148 468.392C267.436 467.901 267.58 467.304 267.58 466.6C267.58 465.896 267.441 465.299 267.164 464.808C266.886 464.317 266.524 463.955 266.076 463.72C265.628 463.475 265.142 463.352 264.62 463.352C264.086 463.352 263.596 463.475 263.148 463.72C262.71 463.955 262.358 464.317 262.092 464.808C261.825 465.299 261.692 465.896 261.692 466.6C261.692 467.315 261.82 467.917 262.076 468.408C262.342 468.899 262.694 469.267 263.132 469.512C263.569 469.747 264.049 469.864 264.572 469.864ZM270.438 466.584C270.438 465.688 270.619 464.904 270.982 464.232C271.345 463.549 271.841 463.021 272.47 462.648C273.11 462.275 273.825 462.088 274.614 462.088C275.297 462.088 275.931 462.248 276.518 462.568C277.105 462.877 277.553 463.288 277.862 463.8V459.16H279.334V471H277.862V469.352C277.574 469.875 277.147 470.307 276.582 470.648C276.017 470.979 275.355 471.144 274.598 471.144C273.819 471.144 273.11 470.952 272.47 470.568C271.841 470.184 271.345 469.645 270.982 468.952C270.619 468.259 270.438 467.469 270.438 466.584ZM277.862 466.6C277.862 465.939 277.729 465.363 277.462 464.872C277.195 464.381 276.833 464.008 276.374 463.752C275.926 463.485 275.43 463.352 274.886 463.352C274.342 463.352 273.846 463.48 273.398 463.736C272.95 463.992 272.593 464.365 272.326 464.856C272.059 465.347 271.926 465.923 271.926 466.584C271.926 467.256 272.059 467.843 272.326 468.344C272.593 468.835 272.95 469.213 273.398 469.48C273.846 469.736 274.342 469.864 274.886 469.864C275.43 469.864 275.926 469.736 276.374 469.48C276.833 469.213 277.195 468.835 277.462 468.344C277.729 467.843 277.862 467.261 277.862 466.6ZM289.795 466.28C289.795 466.557 289.779 466.851 289.747 467.16H282.739C282.792 468.024 283.085 468.701 283.619 469.192C284.163 469.672 284.819 469.912 285.587 469.912C286.216 469.912 286.739 469.768 287.155 469.48C287.581 469.181 287.88 468.787 288.051 468.296H289.619C289.384 469.139 288.915 469.827 288.211 470.36C287.507 470.883 286.632 471.144 285.587 471.144C284.755 471.144 284.008 470.957 283.347 470.584C282.696 470.211 282.184 469.683 281.811 469C281.437 468.307 281.251 467.507 281.251 466.6C281.251 465.693 281.432 464.899 281.795 464.216C282.157 463.533 282.664 463.011 283.315 462.648C283.976 462.275 284.733 462.088 285.587 462.088C286.419 462.088 287.155 462.269 287.795 462.632C288.435 462.995 288.925 463.496 289.267 464.136C289.619 464.765 289.795 465.48 289.795 466.28ZM288.291 465.976C288.291 465.421 288.168 464.947 287.923 464.552C287.677 464.147 287.341 463.843 286.915 463.64C286.499 463.427 286.035 463.32 285.523 463.32C284.787 463.32 284.157 463.555 283.635 464.024C283.123 464.493 282.829 465.144 282.755 465.976H288.291ZM297.758 463.432V468.6C297.758 469.027 297.849 469.331 298.03 469.512C298.211 469.683 298.526 469.768 298.974 469.768H300.046V471H298.734C297.923 471 297.315 470.813 296.91 470.44C296.505 470.067 296.302 469.453 296.302 468.6V463.432H295.166V462.232H296.302V460.024H297.758V462.232H300.046V463.432H297.758ZM309.81 466.28C309.81 466.557 309.794 466.851 309.762 467.16H302.754C302.807 468.024 303.101 468.701 303.634 469.192C304.178 469.672 304.834 469.912 305.602 469.912C306.231 469.912 306.754 469.768 307.17 469.48C307.597 469.181 307.895 468.787 308.066 468.296H309.634C309.399 469.139 308.93 469.827 308.226 470.36C307.522 470.883 306.647 471.144 305.602 471.144C304.77 471.144 304.023 470.957 303.362 470.584C302.711 470.211 302.199 469.683 301.826 469C301.453 468.307 301.266 467.507 301.266 466.6C301.266 465.693 301.447 464.899 301.81 464.216C302.173 463.533 302.679 463.011 303.33 462.648C303.991 462.275 304.749 462.088 305.602 462.088C306.434 462.088 307.17 462.269 307.81 462.632C308.45 462.995 308.941 463.496 309.282 464.136C309.634 464.765 309.81 465.48 309.81 466.28ZM308.306 465.976C308.306 465.421 308.183 464.947 307.938 464.552C307.693 464.147 307.357 463.843 306.93 463.64C306.514 463.427 306.05 463.32 305.538 463.32C304.802 463.32 304.173 463.555 303.65 464.024C303.138 464.493 302.845 465.144 302.77 465.976H308.306ZM316.308 471L314.228 467.736L312.228 471H310.708L313.54 466.648L310.708 462.232H312.356L314.436 465.48L316.42 462.232H317.94L315.124 466.568L317.956 471H316.308ZM321.164 463.432V468.6C321.164 469.027 321.255 469.331 321.436 469.512C321.618 469.683 321.932 469.768 322.38 469.768H323.452V471H322.14C321.33 471 320.722 470.813 320.316 470.44C319.911 470.067 319.708 469.453 319.708 468.6V463.432H318.572V462.232H319.708V460.024H321.164V462.232H323.452V463.432H321.164ZM333.216 466.28C333.216 466.557 333.2 466.851 333.168 467.16H326.16C326.214 468.024 326.507 468.701 327.04 469.192C327.584 469.672 328.24 469.912 329.008 469.912C329.638 469.912 330.16 469.768 330.576 469.48C331.003 469.181 331.302 468.787 331.472 468.296H333.04C332.806 469.139 332.336 469.827 331.632 470.36C330.928 470.883 330.054 471.144 329.008 471.144C328.176 471.144 327.43 470.957 326.768 470.584C326.118 470.211 325.606 469.683 325.232 469C324.859 468.307 324.672 467.507 324.672 466.6C324.672 465.693 324.854 464.899 325.216 464.216C325.579 463.533 326.086 463.011 326.736 462.648C327.398 462.275 328.155 462.088 329.008 462.088C329.84 462.088 330.576 462.269 331.216 462.632C331.856 462.995 332.347 463.496 332.688 464.136C333.04 464.765 333.216 465.48 333.216 466.28ZM331.712 465.976C331.712 465.421 331.59 464.947 331.344 464.552C331.099 464.147 330.763 463.843 330.336 463.64C329.92 463.427 329.456 463.32 328.944 463.32C328.208 463.32 327.579 463.555 327.056 464.024C326.544 464.493 326.251 465.144 326.176 465.976H331.712ZM340.86 463.848C341.148 463.347 341.575 462.931 342.14 462.6C342.716 462.259 343.383 462.088 344.14 462.088C344.919 462.088 345.623 462.275 346.252 462.648C346.892 463.021 347.393 463.549 347.756 464.232C348.119 464.904 348.3 465.688 348.3 466.584C348.3 467.469 348.119 468.259 347.756 468.952C347.393 469.645 346.892 470.184 346.252 470.568C345.623 470.952 344.919 471.144 344.14 471.144C343.393 471.144 342.732 470.979 342.156 470.648C341.591 470.307 341.159 469.885 340.86 469.384V475.16H339.404V462.232H340.86V463.848ZM346.812 466.584C346.812 465.923 346.679 465.347 346.412 464.856C346.145 464.365 345.783 463.992 345.324 463.736C344.876 463.48 344.38 463.352 343.836 463.352C343.303 463.352 342.807 463.485 342.348 463.752C341.9 464.008 341.537 464.387 341.26 464.888C340.993 465.379 340.86 465.949 340.86 466.6C340.86 467.261 340.993 467.843 341.26 468.344C341.537 468.835 341.9 469.213 342.348 469.48C342.807 469.736 343.303 469.864 343.836 469.864C344.38 469.864 344.876 469.736 345.324 469.48C345.783 469.213 346.145 468.835 346.412 468.344C346.679 467.843 346.812 467.256 346.812 466.584ZM354.04 471.144C353.219 471.144 352.472 470.957 351.8 470.584C351.139 470.211 350.616 469.683 350.232 469C349.859 468.307 349.672 467.507 349.672 466.6C349.672 465.704 349.864 464.915 350.248 464.232C350.643 463.539 351.176 463.011 351.848 462.648C352.52 462.275 353.272 462.088 354.104 462.088C354.936 462.088 355.688 462.275 356.36 462.648C357.032 463.011 357.56 463.533 357.944 464.216C358.339 464.899 358.536 465.693 358.536 466.6C358.536 467.507 358.334 468.307 357.928 469C357.534 469.683 356.995 470.211 356.312 470.584C355.63 470.957 354.872 471.144 354.04 471.144ZM354.04 469.864C354.563 469.864 355.054 469.741 355.512 469.496C355.971 469.251 356.339 468.883 356.616 468.392C356.904 467.901 357.048 467.304 357.048 466.6C357.048 465.896 356.91 465.299 356.632 464.808C356.355 464.317 355.992 463.955 355.544 463.72C355.096 463.475 354.611 463.352 354.088 463.352C353.555 463.352 353.064 463.475 352.616 463.72C352.179 463.955 351.827 464.317 351.56 464.808C351.294 465.299 351.16 465.896 351.16 466.6C351.16 467.315 351.288 467.917 351.544 468.408C351.811 468.899 352.163 469.267 352.6 469.512C353.038 469.747 353.518 469.864 354.04 469.864ZM368.227 462.232V471H366.771V469.704C366.493 470.152 366.104 470.504 365.603 470.76C365.112 471.005 364.568 471.128 363.971 471.128C363.288 471.128 362.675 470.989 362.131 470.712C361.587 470.424 361.155 469.997 360.835 469.432C360.525 468.867 360.371 468.179 360.371 467.368V462.232H361.811V467.176C361.811 468.04 362.029 468.707 362.467 469.176C362.904 469.635 363.501 469.864 364.259 469.864C365.037 469.864 365.651 469.624 366.099 469.144C366.547 468.664 366.771 467.965 366.771 467.048V462.232H368.227ZM372.141 463.656C372.397 463.155 372.76 462.765 373.229 462.488C373.709 462.211 374.29 462.072 374.973 462.072V463.576H374.589C372.957 463.576 372.141 464.461 372.141 466.232V471H370.685V462.232H372.141V463.656ZM125.621 494.656L128.341 487.232H129.893L126.453 496H124.757L121.317 487.232H122.885L125.621 494.656ZM139.326 491.28C139.326 491.557 139.31 491.851 139.278 492.16H132.27C132.323 493.024 132.616 493.701 133.15 494.192C133.694 494.672 134.35 494.912 135.118 494.912C135.747 494.912 136.27 494.768 136.686 494.48C137.112 494.181 137.411 493.787 137.582 493.296H139.15C138.915 494.139 138.446 494.827 137.742 495.36C137.038 495.883 136.163 496.144 135.118 496.144C134.286 496.144 133.539 495.957 132.878 495.584C132.227 495.211 131.715 494.683 131.342 494C130.968 493.307 130.782 492.507 130.782 491.6C130.782 490.693 130.963 489.899 131.326 489.216C131.688 488.533 132.195 488.011 132.846 487.648C133.507 487.275 134.264 487.088 135.118 487.088C135.95 487.088 136.686 487.269 137.326 487.632C137.966 487.995 138.456 488.496 138.798 489.136C139.15 489.765 139.326 490.48 139.326 491.28ZM137.822 490.976C137.822 490.421 137.699 489.947 137.454 489.552C137.208 489.147 136.872 488.843 136.446 488.64C136.03 488.427 135.566 488.32 135.054 488.32C134.318 488.32 133.688 488.555 133.166 489.024C132.654 489.493 132.36 490.144 132.286 490.976H137.822ZM136.622 484.752L133.214 486.576V485.488L136.622 483.488V484.752ZM142.704 488.656C142.96 488.155 143.322 487.765 143.792 487.488C144.272 487.211 144.853 487.072 145.536 487.072V488.576H145.152C143.52 488.576 142.704 489.461 142.704 491.232V496H141.248V487.232H142.704V488.656ZM147.968 485.808C147.691 485.808 147.456 485.712 147.264 485.52C147.072 485.328 146.976 485.093 146.976 484.816C146.976 484.539 147.072 484.304 147.264 484.112C147.456 483.92 147.691 483.824 147.968 483.824C148.235 483.824 148.459 483.92 148.64 484.112C148.832 484.304 148.928 484.539 148.928 484.816C148.928 485.093 148.832 485.328 148.64 485.52C148.459 485.712 148.235 485.808 147.968 485.808ZM148.672 487.232V496H147.216V487.232H148.672ZM154.722 488.432H152.882V496H151.426V488.432H150.29V487.232H151.426V486.608C151.426 485.627 151.677 484.912 152.178 484.464C152.69 484.005 153.506 483.776 154.626 483.776V484.992C153.986 484.992 153.533 485.12 153.266 485.376C153.01 485.621 152.882 486.032 152.882 486.608V487.232H154.722V488.432ZM157.172 485.808C156.894 485.808 156.66 485.712 156.468 485.52C156.276 485.328 156.18 485.093 156.18 484.816C156.18 484.539 156.276 484.304 156.468 484.112C156.66 483.92 156.894 483.824 157.172 483.824C157.438 483.824 157.662 483.92 157.844 484.112C158.036 484.304 158.132 484.539 158.132 484.816C158.132 485.093 158.036 485.328 157.844 485.52C157.662 485.712 157.438 485.808 157.172 485.808ZM157.876 487.232V496H156.42V487.232H157.876ZM168.357 491.28C168.357 491.557 168.341 491.851 168.309 492.16H161.301C161.354 493.024 161.648 493.701 162.181 494.192C162.725 494.672 163.381 494.912 164.149 494.912C164.778 494.912 165.301 494.768 165.717 494.48C166.144 494.181 166.442 493.787 166.613 493.296H168.181C167.946 494.139 167.477 494.827 166.773 495.36C166.069 495.883 165.194 496.144 164.149 496.144C163.317 496.144 162.57 495.957 161.909 495.584C161.258 495.211 160.746 494.683 160.373 494C160 493.307 159.813 492.507 159.813 491.6C159.813 490.693 159.994 489.899 160.357 489.216C160.72 488.533 161.226 488.011 161.877 487.648C162.538 487.275 163.296 487.088 164.149 487.088C164.981 487.088 165.717 487.269 166.357 487.632C166.997 487.995 167.488 488.496 167.829 489.136C168.181 489.765 168.357 490.48 168.357 491.28ZM166.853 490.976C166.853 490.421 166.73 489.947 166.485 489.552C166.24 489.147 165.904 488.843 165.477 488.64C165.061 488.427 164.597 488.32 164.085 488.32C163.349 488.32 162.72 488.555 162.197 489.024C161.685 489.493 161.392 490.144 161.317 490.976H166.853ZM171.735 488.656C171.991 488.155 172.354 487.765 172.823 487.488C173.303 487.211 173.884 487.072 174.567 487.072V488.576H174.183C172.551 488.576 171.735 489.461 171.735 491.232V496H170.279V487.232H171.735V488.656ZM183.777 494.656L186.497 487.232H188.049L184.609 496H182.913L179.473 487.232H181.041L183.777 494.656ZM193.306 496.144C192.485 496.144 191.738 495.957 191.066 495.584C190.405 495.211 189.882 494.683 189.498 494C189.125 493.307 188.938 492.507 188.938 491.6C188.938 490.704 189.13 489.915 189.514 489.232C189.909 488.539 190.442 488.011 191.114 487.648C191.786 487.275 192.538 487.088 193.37 487.088C194.202 487.088 194.954 487.275 195.626 487.648C196.298 488.011 196.826 488.533 197.21 489.216C197.605 489.899 197.802 490.693 197.802 491.6C197.802 492.507 197.599 493.307 197.194 494C196.799 494.683 196.261 495.211 195.578 495.584C194.895 495.957 194.138 496.144 193.306 496.144ZM193.306 494.864C193.829 494.864 194.319 494.741 194.778 494.496C195.237 494.251 195.605 493.883 195.882 493.392C196.17 492.901 196.314 492.304 196.314 491.6C196.314 490.896 196.175 490.299 195.898 489.808C195.621 489.317 195.258 488.955 194.81 488.72C194.362 488.475 193.877 488.352 193.354 488.352C192.821 488.352 192.33 488.475 191.882 488.72C191.445 488.955 191.093 489.317 190.826 489.808C190.559 490.299 190.426 490.896 190.426 491.6C190.426 492.315 190.554 492.917 190.81 493.408C191.077 493.899 191.429 494.267 191.866 494.512C192.303 494.747 192.783 494.864 193.306 494.864ZM201.492 488.432V493.6C201.492 494.027 201.583 494.331 201.764 494.512C201.946 494.683 202.26 494.768 202.708 494.768H203.78V496H202.468C201.658 496 201.05 495.813 200.644 495.44C200.239 495.067 200.036 494.453 200.036 493.6V488.432H198.9V487.232H200.036V485.024H201.492V487.232H203.78V488.432H201.492ZM207.001 488.656C207.257 488.155 207.619 487.765 208.089 487.488C208.569 487.211 209.15 487.072 209.833 487.072V488.576H209.449C207.817 488.576 207.001 489.461 207.001 491.232V496H205.545V487.232H207.001V488.656ZM219.513 491.28C219.513 491.557 219.497 491.851 219.465 492.16H212.457C212.511 493.024 212.804 493.701 213.337 494.192C213.881 494.672 214.537 494.912 215.305 494.912C215.935 494.912 216.457 494.768 216.873 494.48C217.3 494.181 217.599 493.787 217.769 493.296H219.337C219.103 494.139 218.633 494.827 217.929 495.36C217.225 495.883 216.351 496.144 215.305 496.144C214.473 496.144 213.727 495.957 213.065 495.584C212.415 495.211 211.903 494.683 211.529 494C211.156 493.307 210.969 492.507 210.969 491.6C210.969 490.693 211.151 489.899 211.513 489.216C211.876 488.533 212.383 488.011 213.033 487.648C213.695 487.275 214.452 487.088 215.305 487.088C216.137 487.088 216.873 487.269 217.513 487.632C218.153 487.995 218.644 488.496 218.985 489.136C219.337 489.765 219.513 490.48 219.513 491.28ZM218.009 490.976C218.009 490.421 217.887 489.947 217.641 489.552C217.396 489.147 217.06 488.843 216.633 488.64C216.217 488.427 215.753 488.32 215.241 488.32C214.505 488.32 213.876 488.555 213.353 489.024C212.841 489.493 212.548 490.144 212.473 490.976H218.009ZM227.477 488.432V493.6C227.477 494.027 227.567 494.331 227.749 494.512C227.93 494.683 228.245 494.768 228.693 494.768H229.765V496H228.453C227.642 496 227.034 495.813 226.629 495.44C226.223 495.067 226.021 494.453 226.021 493.6V488.432H224.885V487.232H226.021V485.024H227.477V487.232H229.765V488.432H227.477ZM239.529 491.28C239.529 491.557 239.513 491.851 239.481 492.16H232.473C232.526 493.024 232.82 493.701 233.353 494.192C233.897 494.672 234.553 494.912 235.321 494.912C235.95 494.912 236.473 494.768 236.889 494.48C237.316 494.181 237.614 493.787 237.785 493.296H239.353C239.118 494.139 238.649 494.827 237.945 495.36C237.241 495.883 236.366 496.144 235.321 496.144C234.489 496.144 233.742 495.957 233.081 495.584C232.43 495.211 231.918 494.683 231.545 494C231.172 493.307 230.985 492.507 230.985 491.6C230.985 490.693 231.166 489.899 231.529 489.216C231.892 488.533 232.398 488.011 233.049 487.648C233.71 487.275 234.468 487.088 235.321 487.088C236.153 487.088 236.889 487.269 237.529 487.632C238.169 487.995 238.66 488.496 239.001 489.136C239.353 489.765 239.529 490.48 239.529 491.28ZM238.025 490.976C238.025 490.421 237.902 489.947 237.657 489.552C237.412 489.147 237.076 488.843 236.649 488.64C236.233 488.427 235.769 488.32 235.257 488.32C234.521 488.32 233.892 488.555 233.369 489.024C232.857 489.493 232.564 490.144 232.489 490.976H238.025ZM236.825 484.752L233.417 486.576V485.488L236.825 483.488V484.752ZM242.907 484.16V496H241.451V484.16H242.907ZM253.388 491.28C253.388 491.557 253.372 491.851 253.34 492.16H246.332C246.386 493.024 246.679 493.701 247.212 494.192C247.756 494.672 248.412 494.912 249.18 494.912C249.81 494.912 250.332 494.768 250.748 494.48C251.175 494.181 251.474 493.787 251.644 493.296H253.212C252.978 494.139 252.508 494.827 251.804 495.36C251.1 495.883 250.226 496.144 249.18 496.144C248.348 496.144 247.602 495.957 246.94 495.584C246.29 495.211 245.778 494.683 245.404 494C245.031 493.307 244.844 492.507 244.844 491.6C244.844 490.693 245.026 489.899 245.388 489.216C245.751 488.533 246.258 488.011 246.908 487.648C247.57 487.275 248.327 487.088 249.18 487.088C250.012 487.088 250.748 487.269 251.388 487.632C252.028 487.995 252.519 488.496 252.86 489.136C253.212 489.765 253.388 490.48 253.388 491.28ZM251.884 490.976C251.884 490.421 251.762 489.947 251.516 489.552C251.271 489.147 250.935 488.843 250.508 488.64C250.092 488.427 249.628 488.32 249.116 488.32C248.38 488.32 247.751 488.555 247.228 489.024C246.716 489.493 246.423 490.144 246.348 490.976H251.884ZM250.684 484.752L247.276 486.576V485.488L250.684 483.488V484.752ZM256.766 488.848C257.054 488.347 257.481 487.931 258.046 487.6C258.622 487.259 259.289 487.088 260.046 487.088C260.825 487.088 261.529 487.275 262.158 487.648C262.798 488.021 263.299 488.549 263.662 489.232C264.025 489.904 264.206 490.688 264.206 491.584C264.206 492.469 264.025 493.259 263.662 493.952C263.299 494.645 262.798 495.184 262.158 495.568C261.529 495.952 260.825 496.144 260.046 496.144C259.299 496.144 258.638 495.979 258.062 495.648C257.497 495.307 257.065 494.885 256.766 494.384V500.16H255.31V487.232H256.766V488.848ZM262.718 491.584C262.718 490.923 262.585 490.347 262.318 489.856C262.051 489.365 261.689 488.992 261.23 488.736C260.782 488.48 260.286 488.352 259.742 488.352C259.209 488.352 258.713 488.485 258.254 488.752C257.806 489.008 257.443 489.387 257.166 489.888C256.899 490.379 256.766 490.949 256.766 491.6C256.766 492.261 256.899 492.843 257.166 493.344C257.443 493.835 257.806 494.213 258.254 494.48C258.713 494.736 259.209 494.864 259.742 494.864C260.286 494.864 260.782 494.736 261.23 494.48C261.689 494.213 262.051 493.835 262.318 493.344C262.585 492.843 262.718 492.256 262.718 491.584ZM270.475 487.072C271.136 487.072 271.733 487.216 272.267 487.504C272.8 487.781 273.216 488.203 273.515 488.768C273.824 489.333 273.979 490.021 273.979 490.832V496H272.539V491.04C272.539 490.165 272.32 489.499 271.883 489.04C271.445 488.571 270.848 488.336 270.091 488.336C269.323 488.336 268.709 488.576 268.251 489.056C267.803 489.536 267.579 490.235 267.579 491.152V496H266.123V484.16H267.579V488.48C267.867 488.032 268.261 487.685 268.763 487.44C269.275 487.195 269.845 487.072 270.475 487.072ZM280.181 496.144C279.36 496.144 278.613 495.957 277.941 495.584C277.28 495.211 276.757 494.683 276.373 494C276 493.307 275.813 492.507 275.813 491.6C275.813 490.704 276.005 489.915 276.389 489.232C276.784 488.539 277.317 488.011 277.989 487.648C278.661 487.275 279.413 487.088 280.245 487.088C281.077 487.088 281.829 487.275 282.501 487.648C283.173 488.011 283.701 488.533 284.085 489.216C284.48 489.899 284.677 490.693 284.677 491.6C284.677 492.507 284.474 493.307 284.069 494C283.674 494.683 283.136 495.211 282.453 495.584C281.77 495.957 281.013 496.144 280.181 496.144ZM280.181 494.864C280.704 494.864 281.194 494.741 281.653 494.496C282.112 494.251 282.48 493.883 282.757 493.392C283.045 492.901 283.189 492.304 283.189 491.6C283.189 490.896 283.05 490.299 282.773 489.808C282.496 489.317 282.133 488.955 281.685 488.72C281.237 488.475 280.752 488.352 280.229 488.352C279.696 488.352 279.205 488.475 278.757 488.72C278.32 488.955 277.968 489.317 277.701 489.808C277.434 490.299 277.301 490.896 277.301 491.6C277.301 492.315 277.429 492.917 277.685 493.408C277.952 493.899 278.304 494.267 278.741 494.512C279.178 494.747 279.658 494.864 280.181 494.864ZM290.863 487.072C291.93 487.072 292.794 487.397 293.455 488.048C294.117 488.688 294.447 489.616 294.447 490.832V496H293.007V491.04C293.007 490.165 292.789 489.499 292.351 489.04C291.914 488.571 291.317 488.336 290.559 488.336C289.791 488.336 289.178 488.576 288.719 489.056C288.271 489.536 288.047 490.235 288.047 491.152V496H286.591V487.232H288.047V488.48C288.335 488.032 288.725 487.685 289.215 487.44C289.717 487.195 290.266 487.072 290.863 487.072ZM304.826 491.28C304.826 491.557 304.81 491.851 304.778 492.16H297.77C297.823 493.024 298.116 493.701 298.65 494.192C299.194 494.672 299.85 494.912 300.618 494.912C301.247 494.912 301.77 494.768 302.186 494.48C302.612 494.181 302.911 493.787 303.082 493.296H304.65C304.415 494.139 303.946 494.827 303.242 495.36C302.538 495.883 301.663 496.144 300.618 496.144C299.786 496.144 299.039 495.957 298.378 495.584C297.727 495.211 297.215 494.683 296.842 494C296.468 493.307 296.282 492.507 296.282 491.6C296.282 490.693 296.463 489.899 296.826 489.216C297.188 488.533 297.695 488.011 298.346 487.648C299.007 487.275 299.764 487.088 300.618 487.088C301.45 487.088 302.186 487.269 302.826 487.632C303.466 487.995 303.956 488.496 304.298 489.136C304.65 489.765 304.826 490.48 304.826 491.28ZM303.322 490.976C303.322 490.421 303.199 489.947 302.954 489.552C302.708 489.147 302.372 488.843 301.946 488.64C301.53 488.427 301.066 488.32 300.554 488.32C299.818 488.32 299.188 488.555 298.666 489.024C298.154 489.493 297.86 490.144 297.786 490.976H303.322ZM307.212 496.096C306.934 496.096 306.7 496 306.508 495.808C306.316 495.616 306.22 495.381 306.22 495.104C306.22 494.827 306.316 494.592 306.508 494.4C306.7 494.208 306.934 494.112 307.212 494.112C307.478 494.112 307.702 494.208 307.884 494.4C308.076 494.592 308.172 494.827 308.172 495.104C308.172 495.381 308.076 495.616 307.884 495.808C307.702 496 307.478 496.096 307.212 496.096Z" fill="#636363"/>
<rect x="40" y="533" width="350" height="56" rx="28" fill="white"/>
<rect x="40" y="533" width="350" height="56" rx="28" stroke="#505050"/>
<path d="M72.2981 550.971C72.6781 550.971 73.0425 551.122 73.3112 551.391C73.5799 551.659 73.7308 552.024 73.7308 552.404V569.596C73.7308 569.976 73.5799 570.341 73.3112 570.609C73.0425 570.878 72.6781 571.029 72.2981 571.029H63.7018C63.3219 571.029 62.9575 570.878 62.6888 570.609C62.4201 570.341 62.2691 569.976 62.2691 569.596V552.404C62.2691 552.024 62.4201 551.659 62.6888 551.391C62.9575 551.122 63.3219 550.971 63.7018 550.971H72.2981ZM63.7018 549.538C62.9419 549.538 62.2131 549.84 61.6757 550.378C61.1383 550.915 60.8364 551.644 60.8364 552.404V569.596C60.8364 570.356 61.1383 571.085 61.6757 571.622C62.2131 572.16 62.9419 572.462 63.7018 572.462H72.2981C73.0581 572.462 73.7869 572.16 74.3243 571.622C74.8617 571.085 75.1635 570.356 75.1635 569.596V552.404C75.1635 551.644 74.8617 550.915 74.3243 550.378C73.7869 549.84 73.0581 549.538 72.2981 549.538H63.7018Z" fill="black"/>
<path d="M68 569.596C68.38 569.596 68.7444 569.445 69.0131 569.177C69.2818 568.908 69.4327 568.544 69.4327 568.164C69.4327 567.784 69.2818 567.419 69.0131 567.15C68.7444 566.882 68.38 566.731 68 566.731C67.62 566.731 67.2556 566.882 66.9869 567.15C66.7182 567.419 66.5673 567.784 66.5673 568.164C66.5673 568.544 66.7182 568.908 66.9869 569.177C67.2556 569.445 67.62 569.596 68 569.596Z" fill="black"/>
<path d="M98.75 566H97.476L92.352 558.23V566H91.078V556.228H92.352L97.476 563.984V556.228H98.75V566ZM107.726 558.328V566H106.452V564.866C106.209 565.258 105.868 565.566 105.43 565.79C105 566.005 104.524 566.112 104.002 566.112C103.404 566.112 102.868 565.991 102.392 565.748C101.916 565.496 101.538 565.123 101.258 564.628C100.987 564.133 100.852 563.531 100.852 562.822V558.328H102.112V562.654C102.112 563.41 102.303 563.993 102.686 564.404C103.068 564.805 103.591 565.006 104.254 565.006C104.935 565.006 105.472 564.796 105.864 564.376C106.256 563.956 106.452 563.345 106.452 562.542V558.328H107.726ZM119.103 558.188C119.7 558.188 120.232 558.314 120.699 558.566C121.165 558.809 121.534 559.177 121.805 559.672C122.075 560.167 122.211 560.769 122.211 561.478V566H120.951V561.66C120.951 560.895 120.759 560.311 120.377 559.91C120.003 559.499 119.495 559.294 118.851 559.294C118.188 559.294 117.661 559.509 117.269 559.938C116.877 560.358 116.681 560.969 116.681 561.772V566H115.421V561.66C115.421 560.895 115.229 560.311 114.847 559.91C114.473 559.499 113.965 559.294 113.321 559.294C112.658 559.294 112.131 559.509 111.739 559.938C111.347 560.358 111.151 560.969 111.151 561.772V566H109.877V558.328H111.151V559.434C111.403 559.033 111.739 558.725 112.159 558.51C112.588 558.295 113.059 558.188 113.573 558.188C114.217 558.188 114.786 558.333 115.281 558.622C115.775 558.911 116.144 559.336 116.387 559.896C116.601 559.355 116.956 558.935 117.451 558.636C117.945 558.337 118.496 558.188 119.103 558.188ZM131.301 561.87C131.301 562.113 131.287 562.369 131.259 562.64H125.127C125.173 563.396 125.43 563.989 125.897 564.418C126.373 564.838 126.947 565.048 127.619 565.048C128.169 565.048 128.627 564.922 128.991 564.67C129.364 564.409 129.625 564.063 129.775 563.634H131.147C130.941 564.371 130.531 564.973 129.915 565.44C129.299 565.897 128.533 566.126 127.619 566.126C126.891 566.126 126.237 565.963 125.659 565.636C125.089 565.309 124.641 564.847 124.315 564.25C123.988 563.643 123.825 562.943 123.825 562.15C123.825 561.357 123.983 560.661 124.301 560.064C124.618 559.467 125.061 559.009 125.631 558.692C126.209 558.365 126.872 558.202 127.619 558.202C128.347 558.202 128.991 558.361 129.551 558.678C130.111 558.995 130.54 559.434 130.839 559.994C131.147 560.545 131.301 561.17 131.301 561.87ZM129.985 561.604C129.985 561.119 129.877 560.703 129.663 560.358C129.448 560.003 129.154 559.737 128.781 559.56C128.417 559.373 128.011 559.28 127.563 559.28C126.919 559.28 126.368 559.485 125.911 559.896C125.463 560.307 125.206 560.876 125.141 561.604H129.985ZM128.935 556.158L125.953 557.754V556.802L128.935 555.052V556.158ZM134.256 559.574C134.48 559.135 134.798 558.795 135.208 558.552C135.628 558.309 136.137 558.188 136.734 558.188V559.504H136.398C134.97 559.504 134.256 560.279 134.256 561.828V566H132.982V558.328H134.256V559.574ZM141.551 566.126C140.832 566.126 140.179 565.963 139.591 565.636C139.012 565.309 138.555 564.847 138.219 564.25C137.892 563.643 137.729 562.943 137.729 562.15C137.729 561.366 137.897 560.675 138.233 560.078C138.578 559.471 139.045 559.009 139.633 558.692C140.221 558.365 140.879 558.202 141.607 558.202C142.335 558.202 142.993 558.365 143.581 558.692C144.169 559.009 144.631 559.467 144.967 560.064C145.312 560.661 145.485 561.357 145.485 562.15C145.485 562.943 145.308 563.643 144.953 564.25C144.608 564.847 144.136 565.309 143.539 565.636C142.942 565.963 142.279 566.126 141.551 566.126ZM141.551 565.006C142.008 565.006 142.438 564.899 142.839 564.684C143.24 564.469 143.562 564.147 143.805 563.718C144.057 563.289 144.183 562.766 144.183 562.15C144.183 561.534 144.062 561.011 143.819 560.582C143.576 560.153 143.259 559.835 142.867 559.63C142.475 559.415 142.05 559.308 141.593 559.308C141.126 559.308 140.697 559.415 140.305 559.63C139.922 559.835 139.614 560.153 139.381 560.582C139.148 561.011 139.031 561.534 139.031 562.15C139.031 562.775 139.143 563.303 139.367 563.732C139.6 564.161 139.908 564.483 140.291 564.698C140.674 564.903 141.094 565.006 141.551 565.006ZM150.416 562.136C150.416 561.352 150.575 560.666 150.892 560.078C151.21 559.481 151.644 559.019 152.194 558.692C152.754 558.365 153.38 558.202 154.07 558.202C154.668 558.202 155.223 558.342 155.736 558.622C156.25 558.893 156.642 559.252 156.912 559.7V555.64H158.2V566H156.912V564.558C156.66 565.015 156.287 565.393 155.792 565.692C155.298 565.981 154.719 566.126 154.056 566.126C153.375 566.126 152.754 565.958 152.194 565.622C151.644 565.286 151.21 564.815 150.892 564.208C150.575 563.601 150.416 562.911 150.416 562.136ZM156.912 562.15C156.912 561.571 156.796 561.067 156.562 560.638C156.329 560.209 156.012 559.882 155.61 559.658C155.218 559.425 154.784 559.308 154.308 559.308C153.832 559.308 153.398 559.42 153.006 559.644C152.614 559.868 152.302 560.195 152.068 560.624C151.835 561.053 151.718 561.557 151.718 562.136C151.718 562.724 151.835 563.237 152.068 563.676C152.302 564.105 152.614 564.437 153.006 564.67C153.398 564.894 153.832 565.006 154.308 565.006C154.784 565.006 155.218 564.894 155.61 564.67C156.012 564.437 156.329 564.105 156.562 563.676C156.796 563.237 156.912 562.729 156.912 562.15ZM167.353 561.87C167.353 562.113 167.339 562.369 167.311 562.64H161.179C161.226 563.396 161.483 563.989 161.949 564.418C162.425 564.838 162.999 565.048 163.671 565.048C164.222 565.048 164.679 564.922 165.043 564.67C165.417 564.409 165.678 564.063 165.827 563.634H167.199C166.994 564.371 166.583 564.973 165.967 565.44C165.351 565.897 164.586 566.126 163.671 566.126C162.943 566.126 162.29 565.963 161.711 565.636C161.142 565.309 160.694 564.847 160.367 564.25C160.041 563.643 159.877 562.943 159.877 562.15C159.877 561.357 160.036 560.661 160.353 560.064C160.671 559.467 161.114 559.009 161.683 558.692C162.262 558.365 162.925 558.202 163.671 558.202C164.399 558.202 165.043 558.361 165.603 558.678C166.163 558.995 166.593 559.434 166.891 559.994C167.199 560.545 167.353 561.17 167.353 561.87ZM166.037 561.604C166.037 561.119 165.93 560.703 165.715 560.358C165.501 560.003 165.207 559.737 164.833 559.56C164.469 559.373 164.063 559.28 163.615 559.28C162.971 559.28 162.421 559.485 161.963 559.896C161.515 560.307 161.259 560.876 161.193 561.604H166.037ZM174.321 559.378V563.9C174.321 564.273 174.401 564.539 174.559 564.698C174.718 564.847 174.993 564.922 175.385 564.922H176.323V566H175.175C174.466 566 173.934 565.837 173.579 565.51C173.225 565.183 173.047 564.647 173.047 563.9V559.378H172.053V558.328H173.047V556.396H174.321V558.328H176.323V559.378H174.321ZM184.867 561.87C184.867 562.113 184.853 562.369 184.825 562.64H178.693C178.74 563.396 178.996 563.989 179.463 564.418C179.939 564.838 180.513 565.048 181.185 565.048C181.736 565.048 182.193 564.922 182.557 564.67C182.93 564.409 183.192 564.063 183.341 563.634H184.713C184.508 564.371 184.097 564.973 183.481 565.44C182.865 565.897 182.1 566.126 181.185 566.126C180.457 566.126 179.804 565.963 179.225 565.636C178.656 565.309 178.208 564.847 177.881 564.25C177.554 563.643 177.391 562.943 177.391 562.15C177.391 561.357 177.55 560.661 177.867 560.064C178.184 559.467 178.628 559.009 179.197 558.692C179.776 558.365 180.438 558.202 181.185 558.202C181.913 558.202 182.557 558.361 183.117 558.678C183.677 558.995 184.106 559.434 184.405 559.994C184.713 560.545 184.867 561.17 184.867 561.87ZM183.551 561.604C183.551 561.119 183.444 560.703 183.229 560.358C183.014 560.003 182.72 559.737 182.347 559.56C181.983 559.373 181.577 559.28 181.129 559.28C180.485 559.28 179.934 559.485 179.477 559.896C179.029 560.307 178.772 560.876 178.707 561.604H183.551ZM182.501 556.158L179.519 557.754V556.802L182.501 555.052V556.158ZM187.823 555.64V566H186.549V555.64H187.823ZM196.994 561.87C196.994 562.113 196.98 562.369 196.952 562.64H190.82C190.867 563.396 191.123 563.989 191.59 564.418C192.066 564.838 192.64 565.048 193.312 565.048C193.863 565.048 194.32 564.922 194.684 564.67C195.057 564.409 195.319 564.063 195.468 563.634H196.84C196.635 564.371 196.224 564.973 195.608 565.44C194.992 565.897 194.227 566.126 193.312 566.126C192.584 566.126 191.931 565.963 191.352 565.636C190.783 565.309 190.335 564.847 190.008 564.25C189.681 563.643 189.518 562.943 189.518 562.15C189.518 561.357 189.677 560.661 189.994 560.064C190.311 559.467 190.755 559.009 191.324 558.692C191.903 558.365 192.565 558.202 193.312 558.202C194.04 558.202 194.684 558.361 195.244 558.678C195.804 558.995 196.233 559.434 196.532 559.994C196.84 560.545 196.994 561.17 196.994 561.87ZM195.678 561.604C195.678 561.119 195.571 560.703 195.356 560.358C195.141 560.003 194.847 559.737 194.474 559.56C194.11 559.373 193.704 559.28 193.256 559.28C192.612 559.28 192.061 559.485 191.604 559.896C191.156 560.307 190.899 560.876 190.834 561.604H195.678ZM194.628 556.158L191.646 557.754V556.802L194.628 555.052V556.158ZM199.95 559.742C200.202 559.303 200.575 558.939 201.07 558.65C201.574 558.351 202.157 558.202 202.82 558.202C203.501 558.202 204.117 558.365 204.668 558.692C205.228 559.019 205.666 559.481 205.984 560.078C206.301 560.666 206.46 561.352 206.46 562.136C206.46 562.911 206.301 563.601 205.984 564.208C205.666 564.815 205.228 565.286 204.668 565.622C204.117 565.958 203.501 566.126 202.82 566.126C202.166 566.126 201.588 565.981 201.084 565.692C200.589 565.393 200.211 565.025 199.95 564.586V569.64H198.676V558.328H199.95V559.742ZM205.158 562.136C205.158 561.557 205.041 561.053 204.808 560.624C204.574 560.195 204.257 559.868 203.856 559.644C203.464 559.42 203.03 559.308 202.554 559.308C202.087 559.308 201.653 559.425 201.252 559.658C200.86 559.882 200.542 560.213 200.3 560.652C200.066 561.081 199.95 561.581 199.95 562.15C199.95 562.729 200.066 563.237 200.3 563.676C200.542 564.105 200.86 564.437 201.252 564.67C201.653 564.894 202.087 565.006 202.554 565.006C203.03 565.006 203.464 564.894 203.856 564.67C204.257 564.437 204.574 564.105 204.808 563.676C205.041 563.237 205.158 562.724 205.158 562.136ZM211.945 558.188C212.523 558.188 213.046 558.314 213.513 558.566C213.979 558.809 214.343 559.177 214.605 559.672C214.875 560.167 215.011 560.769 215.011 561.478V566H213.751V561.66C213.751 560.895 213.559 560.311 213.177 559.91C212.794 559.499 212.271 559.294 211.609 559.294C210.937 559.294 210.4 559.504 209.999 559.924C209.607 560.344 209.411 560.955 209.411 561.758V566H208.137V555.64H209.411V559.42C209.663 559.028 210.008 558.725 210.447 558.51C210.895 558.295 211.394 558.188 211.945 558.188ZM220.438 566.126C219.719 566.126 219.066 565.963 218.478 565.636C217.899 565.309 217.442 564.847 217.106 564.25C216.779 563.643 216.616 562.943 216.616 562.15C216.616 561.366 216.784 560.675 217.12 560.078C217.465 559.471 217.932 559.009 218.52 558.692C219.108 558.365 219.766 558.202 220.494 558.202C221.222 558.202 221.88 558.365 222.468 558.692C223.056 559.009 223.518 559.467 223.854 560.064C224.199 560.661 224.372 561.357 224.372 562.15C224.372 562.943 224.194 563.643 223.84 564.25C223.494 564.847 223.023 565.309 222.426 565.636C221.828 565.963 221.166 566.126 220.438 566.126ZM220.438 565.006C220.895 565.006 221.324 564.899 221.726 564.684C222.127 564.469 222.449 564.147 222.692 563.718C222.944 563.289 223.07 562.766 223.07 562.15C223.07 561.534 222.948 561.011 222.706 560.582C222.463 560.153 222.146 559.835 221.754 559.63C221.362 559.415 220.937 559.308 220.48 559.308C220.013 559.308 219.584 559.415 219.192 559.63C218.809 559.835 218.501 560.153 218.268 560.582C218.034 561.011 217.918 561.534 217.918 562.15C217.918 562.775 218.03 563.303 218.254 563.732C218.487 564.161 218.795 564.483 219.178 564.698C219.56 564.903 219.98 565.006 220.438 565.006ZM229.785 558.188C230.718 558.188 231.474 558.473 232.053 559.042C232.631 559.602 232.921 560.414 232.921 561.478V566H231.661V561.66C231.661 560.895 231.469 560.311 231.087 559.91C230.704 559.499 230.181 559.294 229.519 559.294C228.847 559.294 228.31 559.504 227.909 559.924C227.517 560.344 227.321 560.955 227.321 561.758V566H226.047V558.328H227.321V559.42C227.573 559.028 227.913 558.725 228.343 558.51C228.781 558.295 229.262 558.188 229.785 558.188ZM242.002 561.87C242.002 562.113 241.988 562.369 241.96 562.64H235.828C235.874 563.396 236.131 563.989 236.598 564.418C237.074 564.838 237.648 565.048 238.32 565.048C238.87 565.048 239.328 564.922 239.692 564.67C240.065 564.409 240.326 564.063 240.476 563.634H241.848C241.642 564.371 241.232 564.973 240.616 565.44C240 565.897 239.234 566.126 238.32 566.126C237.592 566.126 236.938 565.963 236.36 565.636C235.79 565.309 235.342 564.847 235.016 564.25C234.689 563.643 234.526 562.943 234.526 562.15C234.526 561.357 234.684 560.661 235.002 560.064C235.319 559.467 235.762 559.009 236.332 558.692C236.91 558.365 237.573 558.202 238.32 558.202C239.048 558.202 239.692 558.361 240.252 558.678C240.812 558.995 241.241 559.434 241.54 559.994C241.848 560.545 242.002 561.17 242.002 561.87ZM240.686 561.604C240.686 561.119 240.578 560.703 240.364 560.358C240.149 560.003 239.855 559.737 239.482 559.56C239.118 559.373 238.712 559.28 238.264 559.28C237.62 559.28 237.069 559.485 236.612 559.896C236.164 560.307 235.907 560.876 235.842 561.604H240.686Z" fill="#A7A7A7"/>
<g filter="url(#filter0_d_1_3)">
<rect x="40" y="619" width="349.247" height="54.2115" rx="27.1058" fill="black" shape-rendering="crispEdges"/>
<path d="M177.412 646.468C177.412 645.456 177.631 644.556 178.069 643.768C178.507 642.97 179.115 642.352 179.894 641.914C180.682 641.467 181.572 641.243 182.564 641.243C183.781 641.243 184.822 641.564 185.688 642.206C186.554 642.849 187.133 643.724 187.425 644.833H184.681C184.476 644.405 184.185 644.079 183.805 643.856C183.435 643.632 183.012 643.52 182.535 643.52C181.767 643.52 181.144 643.787 180.667 644.323C180.19 644.858 179.952 645.573 179.952 646.468C179.952 647.363 180.19 648.079 180.667 648.614C181.144 649.149 181.767 649.416 182.535 649.416C183.012 649.416 183.435 649.305 183.805 649.081C184.185 648.857 184.476 648.531 184.681 648.103H187.425C187.133 649.212 186.554 650.088 185.688 650.73C184.822 651.362 183.781 651.679 182.564 651.679C181.572 651.679 180.682 651.46 179.894 651.022C179.115 650.574 178.507 649.956 178.069 649.168C177.631 648.38 177.412 647.48 177.412 646.468ZM192.66 651.723C191.863 651.723 191.142 651.552 190.5 651.212C189.868 650.871 189.367 650.385 188.997 649.752C188.637 649.12 188.457 648.38 188.457 647.534C188.457 646.697 188.642 645.962 189.012 645.33C189.381 644.688 189.887 644.196 190.529 643.856C191.172 643.515 191.892 643.345 192.69 643.345C193.487 643.345 194.208 643.515 194.85 643.856C195.492 644.196 195.998 644.688 196.368 645.33C196.737 645.962 196.922 646.697 196.922 647.534C196.922 648.37 196.733 649.11 196.353 649.752C195.983 650.385 195.472 650.871 194.821 651.212C194.178 651.552 193.458 651.723 192.66 651.723ZM192.66 649.562C193.137 649.562 193.541 649.387 193.872 649.037C194.212 648.687 194.383 648.186 194.383 647.534C194.383 646.882 194.217 646.381 193.886 646.03C193.565 645.68 193.166 645.505 192.69 645.505C192.203 645.505 191.799 645.68 191.478 646.03C191.157 646.371 190.997 646.872 190.997 647.534C190.997 648.186 191.152 648.687 191.464 649.037C191.785 649.387 192.184 649.562 192.66 649.562ZM203.209 643.374C204.162 643.374 204.921 643.685 205.486 644.308C206.06 644.921 206.347 645.768 206.347 646.848V651.606H203.866V647.183C203.866 646.638 203.724 646.215 203.442 645.914C203.16 645.612 202.781 645.461 202.304 645.461C201.827 645.461 201.448 645.612 201.165 645.914C200.883 646.215 200.742 646.638 200.742 647.183V651.606H198.246V643.462H200.742V644.542C200.995 644.182 201.336 643.899 201.764 643.695C202.192 643.481 202.674 643.374 203.209 643.374ZM212.62 649.489V651.606H211.35C210.446 651.606 209.74 651.387 209.234 650.949C208.728 650.501 208.475 649.776 208.475 648.774V645.534H207.483V643.462H208.475V641.477H210.971V643.462H212.606V645.534H210.971V648.803C210.971 649.047 211.029 649.222 211.146 649.329C211.263 649.436 211.458 649.489 211.73 649.489H212.62ZM215.266 642.615C214.828 642.615 214.468 642.488 214.186 642.235C213.913 641.973 213.777 641.652 213.777 641.272C213.777 640.883 213.913 640.562 214.186 640.309C214.468 640.046 214.828 639.915 215.266 639.915C215.694 639.915 216.044 640.046 216.317 640.309C216.599 640.562 216.74 640.883 216.74 641.272C216.74 641.652 216.599 641.973 216.317 642.235C216.044 642.488 215.694 642.615 215.266 642.615ZM216.506 643.462V651.606H214.011V643.462H216.506ZM223.277 643.374C224.231 643.374 224.99 643.685 225.554 644.308C226.128 644.921 226.415 645.768 226.415 646.848V651.606H223.934V647.183C223.934 646.638 223.793 646.215 223.511 645.914C223.229 645.612 222.849 645.461 222.373 645.461C221.896 645.461 221.516 645.612 221.234 645.914C220.952 646.215 220.811 646.638 220.811 647.183V651.606H218.315V643.462H220.811V644.542C221.064 644.182 221.404 643.899 221.833 643.695C222.261 643.481 222.742 643.374 223.277 643.374ZM236.192 643.462V651.606H233.696V650.496C233.443 650.857 233.098 651.148 232.66 651.372C232.232 651.586 231.755 651.693 231.229 651.693C230.607 651.693 230.057 651.557 229.58 651.285C229.103 651.002 228.734 650.599 228.471 650.073C228.208 649.548 228.077 648.93 228.077 648.22V643.462H230.558V647.884C230.558 648.429 230.699 648.852 230.981 649.154C231.263 649.455 231.643 649.606 232.12 649.606C232.606 649.606 232.991 649.455 233.273 649.154C233.555 648.852 233.696 648.429 233.696 647.884V643.462H236.192ZM245.662 647.402C245.662 647.636 245.647 647.879 245.618 648.132H239.97C240.008 648.638 240.169 649.027 240.451 649.3C240.743 649.562 241.098 649.694 241.517 649.694C242.139 649.694 242.572 649.431 242.816 648.906H245.472C245.336 649.441 245.088 649.922 244.728 650.351C244.377 650.779 243.935 651.114 243.399 651.358C242.864 651.601 242.266 651.723 241.604 651.723C240.806 651.723 240.096 651.552 239.473 651.212C238.851 650.871 238.364 650.385 238.014 649.752C237.663 649.12 237.488 648.38 237.488 647.534C237.488 646.687 237.659 645.948 237.999 645.315C238.349 644.683 238.836 644.196 239.459 643.856C240.081 643.515 240.797 643.345 241.604 643.345C242.392 643.345 243.093 643.51 243.706 643.841C244.319 644.172 244.796 644.644 245.136 645.257C245.487 645.87 245.662 646.585 245.662 647.402ZM243.108 646.745C243.108 646.317 242.962 645.977 242.67 645.724C242.378 645.471 242.013 645.344 241.575 645.344C241.157 645.344 240.802 645.466 240.51 645.709C240.227 645.952 240.052 646.298 239.984 646.745H243.108ZM249.474 644.819C249.766 644.371 250.131 644.021 250.569 643.768C251.007 643.505 251.493 643.374 252.028 643.374V646.016H251.342C250.72 646.016 250.253 646.152 249.941 646.424C249.63 646.687 249.474 647.154 249.474 647.826V651.606H246.978V643.462H249.474V644.819Z" fill="white"/>
</g>
<rect x="41" y="828" width="165" height="41" rx="20.5" fill="#FFC244"/>
<rect x="41" y="828" width="165" height="41" rx="20.5" stroke="#C58400" stroke-width="2"/>
<path d="M86.16 841.86H94.818V844.452H88.842V847.188H94.458V849.78H88.842V855H86.16V841.86ZM96.4917 845.1H98.7957L98.9757 846.522C99.5637 845.526 100.542 845.028 101.91 845.028C102.258 845.028 102.558 845.052 102.81 845.1L102.288 847.53C102.144 847.506 102.042 847.494 101.982 847.494C101.142 847.494 100.44 847.752 99.8757 848.268C99.3117 848.772 99.0297 849.63 99.0297 850.842V855H96.4917V845.1ZM105.126 846.432C106.038 845.436 107.142 844.938 108.438 844.938C109.11 844.938 109.728 845.106 110.292 845.442C110.856 845.778 111.288 846.21 111.588 846.738L111.75 845.1H114.054V855H111.75L111.588 853.344C111.288 853.872 110.856 854.304 110.292 854.64C109.728 854.976 109.11 855.144 108.438 855.144C107.142 855.144 106.038 854.646 105.126 853.65C104.214 852.642 103.758 851.436 103.758 850.032C103.758 848.628 104.214 847.428 105.126 846.432ZM107.07 851.868C107.574 852.384 108.186 852.642 108.906 852.642C109.638 852.642 110.256 852.39 110.76 851.886C111.264 851.37 111.516 850.752 111.516 850.032C111.516 849.312 111.264 848.7 110.76 848.196C110.256 847.68 109.638 847.422 108.906 847.422C108.186 847.422 107.574 847.68 107.07 848.196C106.566 848.7 106.314 849.312 106.314 850.032C106.314 850.752 106.566 851.364 107.07 851.868ZM116.162 855V845.1H118.466L118.628 846.54C118.916 846.06 119.294 845.676 119.762 845.388C120.242 845.088 120.782 844.938 121.382 844.938C122.582 844.938 123.53 845.352 124.226 846.18C124.934 847.008 125.288 848.262 125.288 849.942V855H122.768V849.942C122.768 849.114 122.57 848.49 122.174 848.07C121.79 847.638 121.31 847.422 120.734 847.422C120.146 847.422 119.66 847.638 119.276 848.07C118.892 848.49 118.7 849.114 118.7 849.942V855H116.162ZM128.261 846.45C129.245 845.454 130.439 844.956 131.843 844.956C132.683 844.956 133.469 845.154 134.201 845.55C134.933 845.934 135.539 846.456 136.019 847.116L133.931 848.502C133.415 847.854 132.719 847.53 131.843 847.53C131.147 847.53 130.553 847.776 130.061 848.268C129.569 848.76 129.323 849.354 129.323 850.05C129.323 850.758 129.569 851.358 130.061 851.85C130.553 852.342 131.147 852.588 131.843 852.588C132.767 852.588 133.475 852.228 133.967 851.508L136.073 852.912C135.605 853.596 134.999 854.142 134.255 854.55C133.511 854.958 132.707 855.162 131.843 855.162C130.439 855.162 129.239 854.664 128.243 853.668C127.259 852.66 126.767 851.454 126.767 850.05C126.767 848.646 127.265 847.446 128.261 846.45ZM138.507 846.432C139.419 845.436 140.523 844.938 141.819 844.938C142.491 844.938 143.109 845.106 143.673 845.442C144.237 845.778 144.669 846.21 144.969 846.738L145.131 845.1H147.435V855H145.131L144.969 853.344C144.669 853.872 144.237 854.304 143.673 854.64C143.109 854.976 142.491 855.144 141.819 855.144C140.523 855.144 139.419 854.646 138.507 853.65C137.595 852.642 137.139 851.436 137.139 850.032C137.139 848.628 137.595 847.428 138.507 846.432ZM140.451 851.868C140.955 852.384 141.567 852.642 142.287 852.642C143.019 852.642 143.637 852.39 144.141 851.886C144.645 851.37 144.897 850.752 144.897 850.032C144.897 849.312 144.645 848.7 144.141 848.196C143.637 847.68 143.019 847.422 142.287 847.422C141.567 847.422 140.955 847.68 140.451 848.196C139.947 848.7 139.695 849.312 139.695 850.032C139.695 850.752 139.947 851.364 140.451 851.868ZM149.542 845.1H152.08V855H149.542V845.1ZM149.794 841.824C150.082 841.536 150.424 841.392 150.82 841.392C151.204 841.392 151.54 841.536 151.828 841.824C152.116 842.112 152.26 842.454 152.26 842.85C152.26 843.246 152.116 843.588 151.828 843.876C151.54 844.164 151.204 844.308 150.82 844.308C150.424 844.308 150.082 844.164 149.794 843.876C149.506 843.588 149.362 843.246 149.362 842.85C149.362 842.454 149.506 842.112 149.794 841.824ZM155.515 851.886C155.815 852.186 156.229 852.426 156.757 852.606C157.285 852.786 157.801 852.876 158.305 852.876C159.301 852.876 159.799 852.618 159.799 852.102C159.799 851.874 159.601 851.688 159.205 851.544C158.821 851.388 158.347 851.25 157.783 851.13C157.231 850.998 156.673 850.83 156.109 850.626C155.557 850.422 155.083 850.086 154.687 849.618C154.303 849.15 154.111 848.562 154.111 847.854C154.111 846.966 154.465 846.252 155.173 845.712C155.881 845.172 156.811 844.902 157.963 844.902C159.787 844.902 161.161 845.448 162.085 846.54L160.573 848.07C160.297 847.77 159.913 847.542 159.421 847.386C158.941 847.23 158.479 847.152 158.035 847.152C157.603 847.152 157.261 847.218 157.009 847.35C156.769 847.47 156.649 847.638 156.649 847.854C156.649 848.058 156.841 848.232 157.225 848.376C157.621 848.508 158.101 848.64 158.665 848.772C159.229 848.892 159.787 849.054 160.339 849.258C160.903 849.462 161.377 849.798 161.761 850.266C162.157 850.734 162.355 851.316 162.355 852.012C162.355 853.068 161.971 853.872 161.203 854.424C160.447 854.964 159.481 855.234 158.305 855.234C157.489 855.234 156.667 855.096 155.839 854.82C155.023 854.532 154.345 854.106 153.805 853.542L155.515 851.886Z" fill="black"/>
<rect x="223" y="827" width="167" height="43" rx="21.5" fill="white"/>
<rect x="223" y="827" width="167" height="43" rx="21.5" stroke="black"/>
<path d="M282.979 847.314C283.855 846.438 284.911 846 286.147 846H290.503V851.184C290.503 851.604 290.593 851.934 290.773 852.174C290.965 852.414 291.241 852.534 291.601 852.534H292.177V855H291.601C290.449 855 289.627 854.538 289.135 853.614C288.403 854.538 287.407 855 286.147 855C284.899 855 283.837 854.568 282.961 853.704C282.085 852.828 281.647 851.766 281.647 850.518C281.647 849.27 282.091 848.202 282.979 847.314ZM284.707 851.94C285.103 852.336 285.583 852.534 286.147 852.534C286.675 852.534 287.119 852.348 287.479 851.976C287.839 851.592 288.019 851.1 288.019 850.5V848.466H286.147C285.583 848.466 285.103 848.664 284.707 849.06C284.311 849.456 284.113 849.936 284.113 850.5C284.113 851.064 284.311 851.544 284.707 851.94ZM283.447 843.858C283.447 843.486 283.579 843.168 283.843 842.904C284.107 842.64 284.425 842.508 284.797 842.508C285.169 842.508 285.487 842.64 285.751 842.904C286.015 843.168 286.147 843.486 286.147 843.858C286.147 844.23 286.015 844.548 285.751 844.812C285.487 845.076 285.169 845.208 284.797 845.208C284.425 845.208 284.107 845.076 283.843 844.812C283.579 844.548 283.447 844.23 283.447 843.858ZM286.795 843.858C286.795 843.486 286.921 843.168 287.173 842.904C287.437 842.64 287.755 842.508 288.127 842.508C288.499 842.508 288.817 842.64 289.081 842.904C289.345 843.168 289.477 843.486 289.477 843.858C289.477 844.23 289.345 844.548 289.081 844.812C288.817 845.076 288.499 845.208 288.127 845.208C287.755 845.208 287.437 845.076 287.173 844.812C286.921 844.548 286.795 844.23 286.795 843.858ZM291.82 852.534H293.242C293.59 852.534 293.86 852.414 294.052 852.174C294.244 851.934 294.34 851.604 294.34 851.184V846.018L296.806 846V851.184C296.806 851.604 296.902 851.934 297.094 852.174C297.286 852.414 297.562 852.534 297.922 852.534H299.362V855H297.922C296.902 855 296.122 854.634 295.582 853.902C295.018 854.634 294.238 855 293.242 855H291.82V852.534ZM292.576 857.538C292.576 857.166 292.708 856.848 292.972 856.584C293.236 856.332 293.554 856.206 293.926 856.206C294.298 856.206 294.61 856.332 294.862 856.584C295.126 856.848 295.258 857.166 295.258 857.538C295.258 857.91 295.132 858.228 294.88 858.492C294.616 858.756 294.298 858.888 293.926 858.888C293.554 858.888 293.236 858.756 292.972 858.492C292.708 858.228 292.576 857.91 292.576 857.538ZM296.32 856.602C296.572 856.338 296.884 856.206 297.256 856.206C297.628 856.206 297.946 856.332 298.21 856.584C298.474 856.848 298.606 857.166 298.606 857.538C298.606 857.91 298.474 858.228 298.21 858.492C297.946 858.756 297.628 858.888 297.256 858.888C296.884 858.888 296.566 858.756 296.302 858.492C296.05 858.228 295.924 857.91 295.924 857.538C295.924 857.166 296.056 856.854 296.32 856.602ZM299.009 855V852.534H299.513C299.873 852.534 300.143 852.414 300.323 852.174C300.515 851.934 300.611 851.604 300.611 851.184V846H303.095V851.184C303.095 852.3 302.765 853.218 302.105 853.938C301.445 854.646 300.581 855 299.513 855H299.009ZM300.863 856.476C301.127 856.2 301.451 856.062 301.835 856.062C302.219 856.062 302.549 856.2 302.825 856.476C303.101 856.752 303.239 857.082 303.239 857.466C303.239 857.85 303.101 858.18 302.825 858.456C302.549 858.732 302.219 858.87 301.835 858.87C301.451 858.87 301.121 858.732 300.845 858.456C300.581 858.18 300.449 857.85 300.449 857.466C300.449 857.082 300.587 856.752 300.863 856.476ZM303.516 856.656C303.708 856.728 303.936 856.764 304.2 856.764C305.316 856.764 305.874 856.116 305.874 854.82V846L308.34 845.982V852.534H309.96V855H308.34V855.378C308.34 856.506 308.004 857.424 307.332 858.132C306.66 858.84 305.634 859.194 304.254 859.194C303.738 859.194 303.264 859.122 302.832 858.978L303.516 856.656ZM312.939 852.534L310.779 849.312V846H317.817C318.837 846 319.665 846.216 320.301 846.648C320.949 847.068 321.273 847.716 321.273 848.592C321.273 849.228 321.075 849.852 320.679 850.464C320.295 851.076 319.749 851.766 319.041 852.534H322.443L322.461 855H309.609V852.534H312.939ZM315.873 852.534H316.269C316.713 852.054 317.007 851.73 317.151 851.562C317.307 851.394 317.517 851.148 317.781 850.824C318.057 850.5 318.237 850.236 318.321 850.032C318.417 849.828 318.465 849.636 318.465 849.456C318.465 849.072 318.333 848.814 318.069 848.682C317.817 848.538 317.415 848.466 316.863 848.466H313.749V849.276L315.873 852.534ZM322.107 852.534H322.611C322.971 852.534 323.241 852.414 323.421 852.174C323.613 851.934 323.709 851.604 323.709 851.184V840.96H326.193V851.184C326.193 852.3 325.863 853.218 325.203 853.938C324.543 854.646 323.679 855 322.611 855H322.107V852.534ZM331.251 855H328.785V840.96H331.251V855Z" fill="black"/>
<path d="M432.092 155.385C375.74 176.252 210.332 208.097 -0.486838 168.536" stroke="url(#paint0_linear_1_3)"/>
<g filter="url(#filter1_d_1_3)">
<rect x="152.854" y="126.071" width="125.262" height="125.262" rx="20" fill="white"/>
</g>
<g clip-path="url(#clip1_1_3)">
<path d="M239.628 214.545C239.456 213.559 239.069 212.514 238.487 211.607C238.182 211.126 237.818 210.68 237.4 210.297C236.183 209.193 234.533 208.712 232.903 208.775C232.074 208.807 231.249 208.98 230.471 209.264C230.072 209.41 229.716 209.619 229.348 209.824C228.981 210.029 228.66 210.262 228.351 210.53C227.19 211.548 226.529 212.979 226.302 214.501C226.193 215.243 226.189 216.004 226.334 216.741C228.175 225.973 241.001 222.412 239.628 214.549V214.545ZM235.616 218.043C232.359 221.659 226.76 216.363 230.314 212.77C230.963 212.112 231.663 211.749 232.351 211.619C232.758 211.544 233.157 211.548 233.544 211.619C236.082 212.084 237.931 215.468 235.616 218.043Z" fill="#FFC244"/>
<path d="M205.445 214.545C205.273 213.559 204.886 212.514 204.303 211.607C203.998 211.126 203.634 210.68 203.216 210.297C202 209.193 200.35 208.712 198.719 208.775C197.89 208.807 197.065 208.98 196.287 209.264C195.888 209.41 195.532 209.619 195.165 209.824C194.797 210.029 194.477 210.262 194.168 210.53C193.006 211.548 192.346 212.979 192.119 214.501C192.009 215.243 192.005 216.004 192.15 216.741C193.992 225.973 206.817 222.412 205.445 214.549V214.545ZM201.433 218.043C198.176 221.659 192.576 216.363 196.131 212.77C196.78 212.112 197.48 211.749 198.168 211.619C198.575 211.544 198.973 211.548 199.361 211.619C201.898 212.084 203.748 215.468 201.433 218.043Z" fill="#FFC244"/>
<path d="M188.291 195.11C188.306 195.079 188.349 195.012 188.412 194.917C188.373 194.98 188.33 195.047 188.291 195.11Z" fill="black"/>
<path d="M188.439 194.878C188.51 194.767 188.607 194.621 188.732 194.46C188.631 194.598 188.533 194.736 188.439 194.878Z" fill="black"/>
<path d="M192.424 199.681C192.084 200.888 192.005 202.903 194.383 203.877C196.471 204.729 242.068 200.77 242.068 200.77V207.541C242.068 207.541 241.447 207.541 240.344 207.549C239.671 207.549 238.823 207.549 237.826 207.553C237.403 207.553 236.958 207.553 236.488 207.557C234.479 207.561 232.035 207.565 229.356 207.572C220.601 207.584 209.304 207.6 202.156 207.584C198.383 207.58 195.763 207.565 195.29 207.537C194.297 207.478 192.916 207.202 191.693 206.31C191.646 206.279 191.599 206.243 191.556 206.208C190.953 205.746 190.398 205.127 189.956 204.311C189.952 204.303 189.949 204.299 189.949 204.291C189.421 203.309 189.053 202.043 188.967 200.403C188.963 200.391 188.963 200.379 188.963 200.367C188.924 199.634 188.979 198.967 189.096 198.368C189.339 197.141 189.859 196.171 190.48 195.41C190.793 195.032 191.141 194.692 191.524 194.401C192.756 193.442 194.305 192.941 195.888 192.957L223.557 193.194L239.507 193.332L243.296 180.574L243.668 179.332L246.796 168.802L187.415 170.711L185.835 164.366H251.367L242.068 197.97C242.068 197.97 199.255 196.483 196.35 196.483C195.841 196.483 195.403 196.554 195.02 196.676C194.653 196.794 194.336 196.964 194.07 197.161C194.054 197.169 194.039 197.181 194.023 197.193C193.014 197.958 192.725 198.612 192.424 199.681Z" fill="#FFC244"/>
<path d="M191 192.362C190.754 192.516 190.523 192.677 190.312 192.847C190.242 192.902 190.175 192.953 190.109 193.012C190.031 193.076 189.956 193.139 189.886 193.206C189.816 193.265 189.749 193.328 189.687 193.387C189.675 193.395 189.663 193.407 189.655 193.419C189.577 193.494 189.499 193.569 189.428 193.647C189.354 193.718 189.288 193.789 189.229 193.86C189.03 194.077 188.865 194.282 188.732 194.46C188.607 194.621 188.51 194.767 188.439 194.878C188.427 194.89 188.42 194.905 188.412 194.917C188.349 195.012 188.306 195.079 188.291 195.11C188.283 195.122 188.279 195.13 188.279 195.13L179.348 159.697L169.494 160.899L167.226 155.426L181.909 155.733L191 192.362Z" fill="#FFC244"/>
<path d="M191.97 172.608H197.511L198.23 190.059H194.942L191.97 172.608Z" fill="#FFC244"/>
<path d="M203.807 172.608L203.541 190.059H200.889L199.998 172.608H203.807Z" fill="#FFC244"/>
<path d="M206.024 190.059V172.608H208.491L208.053 190.059H206.024Z" fill="#FFC244"/>
<path d="M215.893 172.608V190.059H210.97L211.412 172.608H215.893Z" fill="#FFC244"/>
<path d="M220.277 172.608V190.059H218.642L219.084 172.608H220.277Z" fill="#FFC244"/>
<path d="M225.943 172.608V190.059H222.521L222.959 172.608H225.943Z" fill="#FFC244"/>
<path d="M229.923 172.608L229.485 190.059H228.187L228.625 172.608H229.923Z" fill="#FFC244"/>
<path d="M240.528 172.608L236.743 190.059H232.684V172.608H240.528Z" fill="#FFC244"/>
</g>
</g>
<defs>
<filter id="filter0_d_1_3" x="37.9149" y="617.957" width="353.417" height="58.3816" filterUnits="userSpaceOnUse" color-interpolation-filters="sRGB">
<feFlood flood-opacity="0" result="BackgroundImageFix"/>
<feColorMatrix in="SourceAlpha" type="matrix" values="0 0 0 0 0 0 0 0 0 0 0 0 0 0 0 0 0 0 127 0" result="hardAlpha"/>
<feOffset dy="1.04253"/>
<feGaussianBlur stdDeviation="1.04253"/>
<feComposite in2="hardAlpha" operator="out"/>
<feColorMatrix type="matrix" values="0 0 0 0 0 0 0 0 0 0 0 0 0 0 0 0 0 0 0.2 0"/>
<feBlend mode="normal" in2="BackgroundImageFix" result="effect1_dropShadow_1_3"/>
<feBlend mode="normal" in="SourceGraphic" in2="effect1_dropShadow_1_3" result="shape"/>
</filter>
<filter id="filter1_d_1_3" x="138.854" y="112.071" width="153.262" height="153.262" filterUnits="userSpaceOnUse" color-interpolation-filters="sRGB">
<feFlood flood-opacity="0" result="BackgroundImageFix"/>
<feColorMatrix in="SourceAlpha" type="matrix" values="0 0 0 0 0 0 0 0 0 0 0 0 0 0 0 0 0 0 127 0" result="hardAlpha"/>
<feOffset/>
<feGaussianBlur stdDeviation="7"/>
<feComposite in2="hardAlpha" operator="out"/>
<feColorMatrix type="matrix" values="0 0 0 0 0 0 0 0 0 0 0 0 0 0 0 0 0 0 0.1 0"/>
<feBlend mode="normal" in2="BackgroundImageFix" result="effect1_dropShadow_1_3"/>
<feBlend mode="normal" in="SourceGraphic" in2="effect1_dropShadow_1_3" result="shape"/>
</filter>
<linearGradient id="paint0_linear_1_3" x1="-0.137834" y1="168.653" x2="430.797" y2="156.017" gradientUnits="userSpaceOnUse">
<stop stop-color="#FFC244"/>
<stop offset="1" stop-color="#FFFAEE"/>
</linearGradient>
<clipPath id="clip0_1_3">
<rect width="430" height="932" fill="white"/>
</clipPath>
<clipPath id="clip1_1_3">
<rect width="84.141" height="66.8054" fill="white" transform="translate(167.226 155.426)"/>
</clipPath>
</defs>
</svg>
