<svg width="479" height="498" viewBox="0 0 479 498" fill="none" xmlns="http://www.w3.org/2000/svg">
<g filter="url(#filter0_d_132_670)">
<path d="M24.0887 68.6811C24.0887 52.1126 37.5202 38.6812 54.0887 38.6812H424.089C440.657 38.6812 454.089 52.1126 454.089 68.6812V487.43H24.0887V68.6811Z" fill="white"/>
</g>
<path fill-rule="evenodd" clip-rule="evenodd" d="M263.493 104C263.493 117.347 252.674 128.167 239.326 128.167C225.979 128.167 215.16 117.347 215.16 104C215.16 90.6527 225.979 79.8333 239.326 79.8333C252.674 79.8333 263.493 90.6527 263.493 104ZM239.326 123.333C244.454 123.333 249.371 121.296 252.997 117.671C256.623 114.045 258.66 109.127 258.66 104C258.66 98.8724 256.623 93.9549 252.997 90.3292C249.371 86.7035 244.454 84.6666 239.326 84.6666C234.199 84.6666 229.281 86.7035 225.656 90.3292C222.03 93.9549 219.993 98.8724 219.993 104C219.993 109.127 222.03 114.045 225.656 117.671C229.281 121.296 234.199 123.333 239.326 123.333Z" fill="#B51717"/>
<path fill-rule="evenodd" clip-rule="evenodd" d="M239.326 108.833C238.686 108.833 238.071 108.579 237.618 108.125C237.164 107.672 236.91 107.057 236.91 106.417V94.3332C236.91 93.6922 237.164 93.0775 237.618 92.6243C238.071 92.1711 238.686 91.9165 239.326 91.9165C239.967 91.9165 240.582 92.1711 241.035 92.6243C241.489 93.0775 241.743 93.6922 241.743 94.3332V106.417C241.743 107.057 241.489 107.672 241.035 108.125C240.582 108.579 239.967 108.833 239.326 108.833Z" fill="#B51717"/>
<path d="M236.91 113.667C236.91 113.026 237.164 112.411 237.618 111.958C238.071 111.505 238.686 111.25 239.326 111.25C239.967 111.25 240.582 111.505 241.035 111.958C241.489 112.411 241.743 113.026 241.743 113.667C241.743 114.308 241.489 114.922 241.035 115.376C240.582 115.829 239.967 116.083 239.326 116.083C238.686 116.083 238.071 115.829 237.618 115.376C237.164 114.922 236.91 114.308 236.91 113.667Z" fill="#B51717"/>
<path d="M159.653 167.768H154.937L154.181 170H150.959L155.531 157.364H159.095L163.667 170H160.409L159.653 167.768ZM158.861 165.392L157.295 160.766L155.747 165.392H158.861ZM171.179 159.848C172.355 159.848 173.291 160.232 173.987 161C174.695 161.756 175.049 162.8 175.049 164.132V170H171.989V164.546C171.989 163.874 171.815 163.352 171.467 162.98C171.119 162.608 170.651 162.422 170.063 162.422C169.475 162.422 169.007 162.608 168.659 162.98C168.311 163.352 168.137 163.874 168.137 164.546V170H165.059V159.956H168.137V161.288C168.449 160.844 168.869 160.496 169.397 160.244C169.925 159.98 170.519 159.848 171.179 159.848ZM183.308 159.848C184.484 159.848 185.42 160.232 186.116 161C186.824 161.756 187.178 162.8 187.178 164.132V170H184.118V164.546C184.118 163.874 183.944 163.352 183.596 162.98C183.248 162.608 182.78 162.422 182.192 162.422C181.604 162.422 181.136 162.608 180.788 162.98C180.44 163.352 180.266 163.874 180.266 164.546V170H177.188V159.956H180.266V161.288C180.578 160.844 180.998 160.496 181.526 160.244C182.054 159.98 182.648 159.848 183.308 159.848ZM199.235 159.956V170H196.157V168.632C195.845 169.076 195.419 169.436 194.879 169.712C194.351 169.976 193.763 170.108 193.115 170.108C192.347 170.108 191.669 169.94 191.081 169.604C190.493 169.256 190.037 168.758 189.713 168.11C189.389 167.462 189.227 166.7 189.227 165.824V159.956H192.287V165.41C192.287 166.082 192.461 166.604 192.809 166.976C193.157 167.348 193.625 167.534 194.213 167.534C194.813 167.534 195.287 167.348 195.635 166.976C195.983 166.604 196.157 166.082 196.157 165.41V159.956H199.235ZM204.523 156.68V170H201.445V156.68H204.523ZM216.222 164.816C216.222 165.104 216.204 165.404 216.168 165.716H209.202C209.25 166.34 209.448 166.82 209.796 167.156C210.156 167.48 210.594 167.642 211.11 167.642C211.878 167.642 212.412 167.318 212.712 166.67H215.988C215.82 167.33 215.514 167.924 215.07 168.452C214.638 168.98 214.092 169.394 213.432 169.694C212.772 169.994 212.034 170.144 211.218 170.144C210.234 170.144 209.358 169.934 208.59 169.514C207.822 169.094 207.222 168.494 206.79 167.714C206.358 166.934 206.142 166.022 206.142 164.978C206.142 163.934 206.352 163.022 206.772 162.242C207.204 161.462 207.804 160.862 208.572 160.442C209.34 160.022 210.222 159.812 211.218 159.812C212.19 159.812 213.054 160.016 213.81 160.424C214.566 160.832 215.154 161.414 215.574 162.17C216.006 162.926 216.222 163.808 216.222 164.816ZM213.072 164.006C213.072 163.478 212.892 163.058 212.532 162.746C212.172 162.434 211.722 162.278 211.182 162.278C210.666 162.278 210.228 162.428 209.868 162.728C209.52 163.028 209.304 163.454 209.22 164.006H213.072ZM220.924 161.63C221.284 161.078 221.734 160.646 222.274 160.334C222.814 160.01 223.414 159.848 224.074 159.848V163.106H223.228C222.46 163.106 221.884 163.274 221.5 163.61C221.116 163.934 220.924 164.51 220.924 165.338V170H217.846V159.956H220.924V161.63ZM232.437 156.68V170H229.359V156.68H232.437ZM244.136 164.816C244.136 165.104 244.118 165.404 244.082 165.716H237.116C237.164 166.34 237.362 166.82 237.71 167.156C238.07 167.48 238.508 167.642 239.024 167.642C239.792 167.642 240.326 167.318 240.626 166.67H243.902C243.734 167.33 243.428 167.924 242.984 168.452C242.552 168.98 242.006 169.394 241.346 169.694C240.686 169.994 239.948 170.144 239.132 170.144C238.148 170.144 237.272 169.934 236.504 169.514C235.736 169.094 235.136 168.494 234.704 167.714C234.272 166.934 234.056 166.022 234.056 164.978C234.056 163.934 234.266 163.022 234.686 162.242C235.118 161.462 235.718 160.862 236.486 160.442C237.254 160.022 238.136 159.812 239.132 159.812C240.104 159.812 240.968 160.016 241.724 160.424C242.48 160.832 243.068 161.414 243.488 162.17C243.92 162.926 244.136 163.808 244.136 164.816ZM240.986 164.006C240.986 163.478 240.806 163.058 240.446 162.746C240.086 162.434 239.636 162.278 239.096 162.278C238.58 162.278 238.142 162.428 237.782 162.728C237.434 163.028 237.218 163.454 237.134 164.006H240.986ZM249.052 163.664C249.052 162.416 249.322 161.306 249.862 160.334C250.402 159.35 251.152 158.588 252.112 158.048C253.084 157.496 254.182 157.22 255.406 157.22C256.906 157.22 258.19 157.616 259.258 158.408C260.326 159.2 261.04 160.28 261.4 161.648H258.016C257.764 161.12 257.404 160.718 256.936 160.442C256.48 160.166 255.958 160.028 255.37 160.028C254.422 160.028 253.654 160.358 253.066 161.018C252.478 161.678 252.184 162.56 252.184 163.664C252.184 164.768 252.478 165.65 253.066 166.31C253.654 166.97 254.422 167.3 255.37 167.3C255.958 167.3 256.48 167.162 256.936 166.886C257.404 166.61 257.764 166.208 258.016 165.68H261.4C261.04 167.048 260.326 168.128 259.258 168.92C258.19 169.7 256.906 170.09 255.406 170.09C254.182 170.09 253.084 169.82 252.112 169.28C251.152 168.728 250.402 167.966 249.862 166.994C249.322 166.022 249.052 164.912 249.052 163.664ZM269.459 159.848C270.611 159.848 271.535 160.232 272.231 161C272.927 161.756 273.275 162.8 273.275 164.132V170H270.215V164.546C270.215 163.874 270.041 163.352 269.693 162.98C269.345 162.608 268.877 162.422 268.289 162.422C267.701 162.422 267.233 162.608 266.885 162.98C266.537 163.352 266.363 163.874 266.363 164.546V170H263.285V156.68H266.363V161.306C266.675 160.862 267.101 160.508 267.641 160.244C268.181 159.98 268.787 159.848 269.459 159.848ZM274.802 164.96C274.802 163.928 274.994 163.022 275.378 162.242C275.774 161.462 276.308 160.862 276.98 160.442C277.652 160.022 278.402 159.812 279.23 159.812C279.938 159.812 280.556 159.956 281.084 160.244C281.624 160.532 282.038 160.91 282.326 161.378V159.956H285.404V170H282.326V168.578C282.026 169.046 281.606 169.424 281.066 169.712C280.538 170 279.92 170.144 279.212 170.144C278.396 170.144 277.652 169.934 276.98 169.514C276.308 169.082 275.774 168.476 275.378 167.696C274.994 166.904 274.802 165.992 274.802 164.96ZM282.326 164.978C282.326 164.21 282.11 163.604 281.678 163.16C281.258 162.716 280.742 162.494 280.13 162.494C279.518 162.494 278.996 162.716 278.564 163.16C278.144 163.592 277.934 164.192 277.934 164.96C277.934 165.728 278.144 166.34 278.564 166.796C278.996 167.24 279.518 167.462 280.13 167.462C280.742 167.462 281.258 167.24 281.678 166.796C282.11 166.352 282.326 165.746 282.326 164.978ZM290.709 161.63C291.069 161.078 291.519 160.646 292.059 160.334C292.599 160.01 293.199 159.848 293.859 159.848V163.106H293.013C292.245 163.106 291.669 163.274 291.285 163.61C290.901 163.934 290.709 164.51 290.709 165.338V170H287.631V159.956H290.709V161.63ZM296.878 158.912C296.338 158.912 295.894 158.756 295.546 158.444C295.21 158.12 295.042 157.724 295.042 157.256C295.042 156.776 295.21 156.38 295.546 156.068C295.894 155.744 296.338 155.582 296.878 155.582C297.406 155.582 297.838 155.744 298.174 156.068C298.522 156.38 298.696 156.776 298.696 157.256C298.696 157.724 298.522 158.12 298.174 158.444C297.838 158.756 297.406 158.912 296.878 158.912ZM298.408 159.956V170H295.33V159.956H298.408ZM305.211 170.144C304.227 170.144 303.339 169.934 302.547 169.514C301.767 169.094 301.149 168.494 300.693 167.714C300.249 166.934 300.027 166.022 300.027 164.978C300.027 163.946 300.255 163.04 300.711 162.26C301.167 161.468 301.791 160.862 302.583 160.442C303.375 160.022 304.263 159.812 305.247 159.812C306.231 159.812 307.119 160.022 307.911 160.442C308.703 160.862 309.327 161.468 309.783 162.26C310.239 163.04 310.467 163.946 310.467 164.978C310.467 166.01 310.233 166.922 309.765 167.714C309.309 168.494 308.679 169.094 307.875 169.514C307.083 169.934 306.195 170.144 305.211 170.144ZM305.211 167.48C305.799 167.48 306.297 167.264 306.705 166.832C307.125 166.4 307.335 165.782 307.335 164.978C307.335 164.174 307.131 163.556 306.723 163.124C306.327 162.692 305.835 162.476 305.247 162.476C304.647 162.476 304.149 162.692 303.753 163.124C303.357 163.544 303.159 164.162 303.159 164.978C303.159 165.782 303.351 166.4 303.735 166.832C304.131 167.264 304.623 167.48 305.211 167.48ZM317.698 167.39V170H316.132C315.016 170 314.146 169.73 313.522 169.19C312.898 168.638 312.586 167.744 312.586 166.508V162.512H311.362V159.956H312.586V157.508H315.664V159.956H317.68V162.512H315.664V166.544C315.664 166.844 315.736 167.06 315.88 167.192C316.024 167.324 316.264 167.39 316.6 167.39H317.698ZM323.102 156.662C324.386 156.662 325.412 156.998 326.18 157.67C326.96 158.342 327.35 159.29 327.35 160.514C327.35 161.642 326.978 162.524 326.234 163.16C325.502 163.784 324.53 164.102 323.318 164.114L323.228 165.464H320.528L320.438 162.116H321.518C322.442 162.116 323.144 162.002 323.624 161.774C324.116 161.546 324.362 161.132 324.362 160.532C324.362 160.112 324.248 159.782 324.02 159.542C323.792 159.302 323.474 159.182 323.066 159.182C322.634 159.182 322.298 159.308 322.058 159.56C321.818 159.8 321.698 160.13 321.698 160.55H318.8C318.776 159.818 318.926 159.158 319.25 158.57C319.586 157.982 320.078 157.52 320.726 157.184C321.386 156.836 322.178 156.662 323.102 156.662ZM321.914 170.144C321.374 170.144 320.93 169.988 320.582 169.676C320.246 169.352 320.078 168.956 320.078 168.488C320.078 168.008 320.246 167.606 320.582 167.282C320.93 166.958 321.374 166.796 321.914 166.796C322.442 166.796 322.874 166.958 323.21 167.282C323.558 167.606 323.732 168.008 323.732 168.488C323.732 168.956 323.558 169.352 323.21 169.676C322.874 169.988 322.442 170.144 321.914 170.144Z" fill="#B51717"/>
<path d="M100.658 202.655V206.15H104.468V207.275H100.658V210.875H104.918V212H99.2925V201.53H104.918V202.655H100.658ZM101.963 199.595L99.8775 200.87V199.79L101.963 198.545L104.033 199.79V200.87L101.963 199.595ZM108.648 204.905V209.75C108.648 210.15 108.733 210.435 108.903 210.605C109.073 210.765 109.368 210.845 109.788 210.845H110.793V212H109.563C108.803 212 108.233 211.825 107.853 211.475C107.473 211.125 107.283 210.55 107.283 209.75V204.905H106.218V203.78H107.283V201.71H108.648V203.78H110.793V204.905H108.648ZM119.947 207.575C119.947 207.835 119.932 208.11 119.902 208.4H113.332C113.382 209.21 113.657 209.845 114.157 210.305C114.667 210.755 115.282 210.98 116.002 210.98C116.592 210.98 117.082 210.845 117.472 210.575C117.872 210.295 118.152 209.925 118.312 209.465H119.782C119.562 210.255 119.122 210.9 118.462 211.4C117.802 211.89 116.982 212.135 116.002 212.135C115.222 212.135 114.522 211.96 113.902 211.61C113.292 211.26 112.812 210.765 112.462 210.125C112.112 209.475 111.937 208.725 111.937 207.875C111.937 207.025 112.107 206.28 112.447 205.64C112.787 205 113.262 204.51 113.872 204.17C114.492 203.82 115.202 203.645 116.002 203.645C116.782 203.645 117.472 203.815 118.072 204.155C118.672 204.495 119.132 204.965 119.452 205.565C119.782 206.155 119.947 206.825 119.947 207.575ZM118.537 207.29C118.537 206.77 118.422 206.325 118.192 205.955C117.962 205.575 117.647 205.29 117.247 205.1C116.857 204.9 116.422 204.8 115.942 204.8C115.252 204.8 114.662 205.02 114.172 205.46C113.692 205.9 113.417 206.51 113.347 207.29H118.537ZM124.659 212.135C124.029 212.135 123.464 212.03 122.964 211.82C122.464 211.6 122.069 211.3 121.779 210.92C121.489 210.53 121.329 210.085 121.299 209.585H122.709C122.749 209.995 122.939 210.33 123.279 210.59C123.629 210.85 124.084 210.98 124.644 210.98C125.164 210.98 125.574 210.865 125.874 210.635C126.174 210.405 126.324 210.115 126.324 209.765C126.324 209.405 126.164 209.14 125.844 208.97C125.524 208.79 125.029 208.615 124.359 208.445C123.749 208.285 123.249 208.125 122.859 207.965C122.479 207.795 122.149 207.55 121.869 207.23C121.599 206.9 121.464 206.47 121.464 205.94C121.464 205.52 121.589 205.135 121.839 204.785C122.089 204.435 122.444 204.16 122.904 203.96C123.364 203.75 123.889 203.645 124.479 203.645C125.389 203.645 126.124 203.875 126.684 204.335C127.244 204.795 127.544 205.425 127.584 206.225H126.219C126.189 205.795 126.014 205.45 125.694 205.19C125.384 204.93 124.964 204.8 124.434 204.8C123.944 204.8 123.554 204.905 123.264 205.115C122.974 205.325 122.829 205.6 122.829 205.94C122.829 206.21 122.914 206.435 123.084 206.615C123.264 206.785 123.484 206.925 123.744 207.035C124.014 207.135 124.384 207.25 124.854 207.38C125.444 207.54 125.924 207.7 126.294 207.86C126.664 208.01 126.979 208.24 127.239 208.55C127.509 208.86 127.649 209.265 127.659 209.765C127.659 210.215 127.534 210.62 127.284 210.98C127.034 211.34 126.679 211.625 126.219 211.835C125.769 212.035 125.249 212.135 124.659 212.135ZM135.285 205.925V207.08H129.3V205.925H135.285ZM140.907 210.74L143.457 203.78H144.912L141.687 212H140.097L136.872 203.78H138.342L140.907 210.74ZM149.84 212.135C149.07 212.135 148.37 211.96 147.74 211.61C147.12 211.26 146.63 210.765 146.27 210.125C145.92 209.475 145.745 208.725 145.745 207.875C145.745 207.035 145.925 206.295 146.285 205.655C146.655 205.005 147.155 204.51 147.785 204.17C148.415 203.82 149.12 203.645 149.9 203.645C150.68 203.645 151.385 203.82 152.015 204.17C152.645 204.51 153.14 205 153.5 205.64C153.87 206.28 154.055 207.025 154.055 207.875C154.055 208.725 153.865 209.475 153.485 210.125C153.115 210.765 152.61 211.26 151.97 211.61C151.33 211.96 150.62 212.135 149.84 212.135ZM149.84 210.935C150.33 210.935 150.79 210.82 151.22 210.59C151.65 210.36 151.995 210.015 152.255 209.555C152.525 209.095 152.66 208.535 152.66 207.875C152.66 207.215 152.53 206.655 152.27 206.195C152.01 205.735 151.67 205.395 151.25 205.175C150.83 204.945 150.375 204.83 149.885 204.83C149.385 204.83 148.925 204.945 148.505 205.175C148.095 205.395 147.765 205.735 147.515 206.195C147.265 206.655 147.14 207.215 147.14 207.875C147.14 208.545 147.26 209.11 147.5 209.57C147.75 210.03 148.08 210.375 148.49 210.605C148.9 210.825 149.35 210.935 149.84 210.935ZM163.14 203.78V212H161.775V210.785C161.515 211.205 161.15 211.535 160.68 211.775C160.22 212.005 159.71 212.12 159.15 212.12C158.51 212.12 157.935 211.99 157.425 211.73C156.915 211.46 156.51 211.06 156.21 210.53C155.92 210 155.775 209.355 155.775 208.595V203.78H157.125V208.415C157.125 209.225 157.33 209.85 157.74 210.29C158.15 210.72 158.71 210.935 159.42 210.935C160.15 210.935 160.725 210.71 161.145 210.26C161.565 209.81 161.775 209.155 161.775 208.295V203.78H163.14ZM168.355 212.135C167.725 212.135 167.16 212.03 166.66 211.82C166.16 211.6 165.765 211.3 165.475 210.92C165.185 210.53 165.025 210.085 164.995 209.585H166.405C166.445 209.995 166.635 210.33 166.975 210.59C167.325 210.85 167.78 210.98 168.34 210.98C168.86 210.98 169.27 210.865 169.57 210.635C169.87 210.405 170.02 210.115 170.02 209.765C170.02 209.405 169.86 209.14 169.54 208.97C169.22 208.79 168.725 208.615 168.055 208.445C167.445 208.285 166.945 208.125 166.555 207.965C166.175 207.795 165.845 207.55 165.565 207.23C165.295 206.9 165.16 206.47 165.16 205.94C165.16 205.52 165.285 205.135 165.535 204.785C165.785 204.435 166.14 204.16 166.6 203.96C167.06 203.75 167.585 203.645 168.175 203.645C169.085 203.645 169.82 203.875 170.38 204.335C170.94 204.795 171.24 205.425 171.28 206.225H169.915C169.885 205.795 169.71 205.45 169.39 205.19C169.08 204.93 168.66 204.8 168.13 204.8C167.64 204.8 167.25 204.905 166.96 205.115C166.67 205.325 166.525 205.6 166.525 205.94C166.525 206.21 166.61 206.435 166.78 206.615C166.96 206.785 167.18 206.925 167.44 207.035C167.71 207.135 168.08 207.25 168.55 207.38C169.14 207.54 169.62 207.7 169.99 207.86C170.36 208.01 170.675 208.24 170.935 208.55C171.205 208.86 171.345 209.265 171.355 209.765C171.355 210.215 171.23 210.62 170.98 210.98C170.73 211.34 170.375 211.625 169.915 211.835C169.465 212.035 168.945 212.135 168.355 212.135ZM180.191 212.135C179.561 212.135 178.996 212.03 178.496 211.82C177.996 211.6 177.601 211.3 177.311 210.92C177.021 210.53 176.861 210.085 176.831 209.585H178.241C178.281 209.995 178.471 210.33 178.811 210.59C179.161 210.85 179.616 210.98 180.176 210.98C180.696 210.98 181.106 210.865 181.406 210.635C181.706 210.405 181.856 210.115 181.856 209.765C181.856 209.405 181.696 209.14 181.376 208.97C181.056 208.79 180.561 208.615 179.891 208.445C179.281 208.285 178.781 208.125 178.391 207.965C178.011 207.795 177.681 207.55 177.401 207.23C177.131 206.9 176.996 206.47 176.996 205.94C176.996 205.52 177.121 205.135 177.371 204.785C177.621 204.435 177.976 204.16 178.436 203.96C178.896 203.75 179.421 203.645 180.011 203.645C180.921 203.645 181.656 203.875 182.216 204.335C182.776 204.795 183.076 205.425 183.116 206.225H181.751C181.721 205.795 181.546 205.45 181.226 205.19C180.916 204.93 180.496 204.8 179.966 204.8C179.476 204.8 179.086 204.905 178.796 205.115C178.506 205.325 178.361 205.6 178.361 205.94C178.361 206.21 178.446 206.435 178.616 206.615C178.796 206.785 179.016 206.925 179.276 207.035C179.546 207.135 179.916 207.25 180.386 207.38C180.976 207.54 181.456 207.7 181.826 207.86C182.196 208.01 182.511 208.24 182.771 208.55C183.041 208.86 183.181 209.265 183.191 209.765C183.191 210.215 183.066 210.62 182.816 210.98C182.566 211.34 182.211 211.625 181.751 211.835C181.301 212.035 180.781 212.135 180.191 212.135ZM192.408 203.78V212H191.043V210.785C190.783 211.205 190.418 211.535 189.948 211.775C189.488 212.005 188.978 212.12 188.418 212.12C187.778 212.12 187.203 211.99 186.693 211.73C186.183 211.46 185.778 211.06 185.478 210.53C185.188 210 185.043 209.355 185.043 208.595V203.78H186.393V208.415C186.393 209.225 186.598 209.85 187.008 210.29C187.418 210.72 187.978 210.935 188.688 210.935C189.418 210.935 189.993 210.71 190.413 210.26C190.833 209.81 191.043 209.155 191.043 208.295V203.78H192.408ZM188.778 201.77L186.693 203.045V201.965L188.778 200.72L190.848 201.965V203.045L188.778 201.77ZM196.077 205.115C196.317 204.645 196.657 204.28 197.097 204.02C197.547 203.76 198.092 203.63 198.732 203.63V205.04H198.372C196.842 205.04 196.077 205.87 196.077 207.53V212H194.712V203.78H196.077V205.115ZM203.797 207.86C203.797 207.02 203.967 206.285 204.307 205.655C204.647 205.015 205.112 204.52 205.702 204.17C206.302 203.82 206.972 203.645 207.712 203.645C208.352 203.645 208.947 203.795 209.497 204.095C210.047 204.385 210.467 204.77 210.757 205.25V200.9H212.137V212H210.757V210.455C210.487 210.945 210.087 211.35 209.557 211.67C209.027 211.98 208.407 212.135 207.697 212.135C206.967 212.135 206.302 211.955 205.702 211.595C205.112 211.235 204.647 210.73 204.307 210.08C203.967 209.43 203.797 208.69 203.797 207.86ZM210.757 207.875C210.757 207.255 210.632 206.715 210.382 206.255C210.132 205.795 209.792 205.445 209.362 205.205C208.942 204.955 208.477 204.83 207.967 204.83C207.457 204.83 206.992 204.95 206.572 205.19C206.152 205.43 205.817 205.78 205.567 206.24C205.317 206.7 205.192 207.24 205.192 207.86C205.192 208.49 205.317 209.04 205.567 209.51C205.817 209.97 206.152 210.325 206.572 210.575C206.992 210.815 207.457 210.935 207.967 210.935C208.477 210.935 208.942 210.815 209.362 210.575C209.792 210.325 210.132 209.97 210.382 209.51C210.632 209.04 210.757 208.495 210.757 207.875ZM221.944 207.575C221.944 207.835 221.929 208.11 221.899 208.4H215.329C215.379 209.21 215.654 209.845 216.154 210.305C216.664 210.755 217.279 210.98 217.999 210.98C218.589 210.98 219.079 210.845 219.469 210.575C219.869 210.295 220.149 209.925 220.309 209.465H221.779C221.559 210.255 221.119 210.9 220.459 211.4C219.799 211.89 218.979 212.135 217.999 212.135C217.219 212.135 216.519 211.96 215.899 211.61C215.289 211.26 214.809 210.765 214.459 210.125C214.109 209.475 213.934 208.725 213.934 207.875C213.934 207.025 214.104 206.28 214.444 205.64C214.784 205 215.259 204.51 215.869 204.17C216.489 203.82 217.199 203.645 217.999 203.645C218.779 203.645 219.469 203.815 220.069 204.155C220.669 204.495 221.129 204.965 221.449 205.565C221.779 206.155 221.944 206.825 221.944 207.575ZM220.534 207.29C220.534 206.77 220.419 206.325 220.189 205.955C219.959 205.575 219.644 205.29 219.244 205.1C218.854 204.9 218.419 204.8 217.939 204.8C217.249 204.8 216.659 205.02 216.169 205.46C215.689 205.9 215.414 206.51 215.344 207.29H220.534ZM230.805 210.74L233.355 203.78H234.81L231.585 212H229.995L226.77 203.78H228.24L230.805 210.74ZM239.738 212.135C238.968 212.135 238.268 211.96 237.638 211.61C237.018 211.26 236.528 210.765 236.168 210.125C235.818 209.475 235.643 208.725 235.643 207.875C235.643 207.035 235.823 206.295 236.183 205.655C236.553 205.005 237.053 204.51 237.683 204.17C238.313 203.82 239.018 203.645 239.798 203.645C240.578 203.645 241.283 203.82 241.913 204.17C242.543 204.51 243.038 205 243.398 205.64C243.768 206.28 243.953 207.025 243.953 207.875C243.953 208.725 243.763 209.475 243.383 210.125C243.013 210.765 242.508 211.26 241.868 211.61C241.228 211.96 240.518 212.135 239.738 212.135ZM239.738 210.935C240.228 210.935 240.688 210.82 241.118 210.59C241.548 210.36 241.893 210.015 242.153 209.555C242.423 209.095 242.558 208.535 242.558 207.875C242.558 207.215 242.428 206.655 242.168 206.195C241.908 205.735 241.568 205.395 241.148 205.175C240.728 204.945 240.273 204.83 239.783 204.83C239.283 204.83 238.823 204.945 238.403 205.175C237.993 205.395 237.663 205.735 237.413 206.195C237.163 206.655 237.038 207.215 237.038 207.875C237.038 208.545 237.158 209.11 237.398 209.57C237.648 210.03 237.978 210.375 238.388 210.605C238.798 210.825 239.248 210.935 239.738 210.935ZM253.038 203.78V212H251.673V210.785C251.413 211.205 251.048 211.535 250.578 211.775C250.118 212.005 249.608 212.12 249.048 212.12C248.408 212.12 247.833 211.99 247.323 211.73C246.813 211.46 246.408 211.06 246.108 210.53C245.818 210 245.673 209.355 245.673 208.595V203.78H247.023V208.415C247.023 209.225 247.228 209.85 247.638 210.29C248.048 210.72 248.608 210.935 249.318 210.935C250.048 210.935 250.623 210.71 251.043 210.26C251.463 209.81 251.673 209.155 251.673 208.295V203.78H253.038ZM256.707 200.9V212H255.342V200.9H256.707ZM262.619 212.135C261.849 212.135 261.149 211.96 260.519 211.61C259.899 211.26 259.409 210.765 259.049 210.125C258.699 209.475 258.524 208.725 258.524 207.875C258.524 207.035 258.704 206.295 259.064 205.655C259.434 205.005 259.934 204.51 260.564 204.17C261.194 203.82 261.899 203.645 262.679 203.645C263.459 203.645 264.164 203.82 264.794 204.17C265.424 204.51 265.919 205 266.279 205.64C266.649 206.28 266.834 207.025 266.834 207.875C266.834 208.725 266.644 209.475 266.264 210.125C265.894 210.765 265.389 211.26 264.749 211.61C264.109 211.96 263.399 212.135 262.619 212.135ZM262.619 210.935C263.109 210.935 263.569 210.82 263.999 210.59C264.429 210.36 264.774 210.015 265.034 209.555C265.304 209.095 265.439 208.535 265.439 207.875C265.439 207.215 265.309 206.655 265.049 206.195C264.789 205.735 264.449 205.395 264.029 205.175C263.609 204.945 263.154 204.83 262.664 204.83C262.164 204.83 261.704 204.945 261.284 205.175C260.874 205.395 260.544 205.735 260.294 206.195C260.044 206.655 259.919 207.215 259.919 207.875C259.919 208.545 260.039 209.11 260.279 209.57C260.529 210.03 260.859 210.375 261.269 210.605C261.679 210.825 262.129 210.935 262.619 210.935ZM269.333 202.445C269.073 202.445 268.853 202.355 268.673 202.175C268.493 201.995 268.403 201.775 268.403 201.515C268.403 201.255 268.493 201.035 268.673 200.855C268.853 200.675 269.073 200.585 269.333 200.585C269.583 200.585 269.793 200.675 269.963 200.855C270.143 201.035 270.233 201.255 270.233 201.515C270.233 201.775 270.143 201.995 269.963 202.175C269.793 202.355 269.583 202.445 269.333 202.445ZM269.993 203.78V212H268.628V203.78H269.993ZM273.685 205.115C273.925 204.645 274.265 204.28 274.705 204.02C275.155 203.76 275.7 203.63 276.34 203.63V205.04H275.98C274.45 205.04 273.685 205.87 273.685 207.53V212H272.32V203.78H273.685V205.115ZM284.825 212.135C284.195 212.135 283.63 212.03 283.13 211.82C282.63 211.6 282.235 211.3 281.945 210.92C281.655 210.53 281.495 210.085 281.465 209.585H282.875C282.915 209.995 283.105 210.33 283.445 210.59C283.795 210.85 284.25 210.98 284.81 210.98C285.33 210.98 285.74 210.865 286.04 210.635C286.34 210.405 286.49 210.115 286.49 209.765C286.49 209.405 286.33 209.14 286.01 208.97C285.69 208.79 285.195 208.615 284.525 208.445C283.915 208.285 283.415 208.125 283.025 207.965C282.645 207.795 282.315 207.55 282.035 207.23C281.765 206.9 281.63 206.47 281.63 205.94C281.63 205.52 281.755 205.135 282.005 204.785C282.255 204.435 282.61 204.16 283.07 203.96C283.53 203.75 284.055 203.645 284.645 203.645C285.555 203.645 286.29 203.875 286.85 204.335C287.41 204.795 287.71 205.425 287.75 206.225H286.385C286.355 205.795 286.18 205.45 285.86 205.19C285.55 204.93 285.13 204.8 284.6 204.8C284.11 204.8 283.72 204.905 283.43 205.115C283.14 205.325 282.995 205.6 282.995 205.94C282.995 206.21 283.08 206.435 283.25 206.615C283.43 206.785 283.65 206.925 283.91 207.035C284.18 207.135 284.55 207.25 285.02 207.38C285.61 207.54 286.09 207.7 286.46 207.86C286.83 208.01 287.145 208.24 287.405 208.55C287.675 208.86 287.815 209.265 287.825 209.765C287.825 210.215 287.7 210.62 287.45 210.98C287.2 211.34 286.845 211.625 286.385 211.835C285.935 212.035 285.415 212.135 284.825 212.135ZM297.041 203.78V212H295.676V210.785C295.416 211.205 295.051 211.535 294.581 211.775C294.121 212.005 293.611 212.12 293.051 212.12C292.411 212.12 291.836 211.99 291.326 211.73C290.816 211.46 290.411 211.06 290.111 210.53C289.821 210 289.676 209.355 289.676 208.595V203.78H291.026V208.415C291.026 209.225 291.231 209.85 291.641 210.29C292.051 210.72 292.611 210.935 293.321 210.935C294.051 210.935 294.626 210.71 295.046 210.26C295.466 209.81 295.676 209.155 295.676 208.295V203.78H297.041ZM300.711 205.295C300.981 204.825 301.381 204.435 301.911 204.125C302.451 203.805 303.076 203.645 303.786 203.645C304.516 203.645 305.176 203.82 305.766 204.17C306.366 204.52 306.836 205.015 307.176 205.655C307.516 206.285 307.686 207.02 307.686 207.86C307.686 208.69 307.516 209.43 307.176 210.08C306.836 210.73 306.366 211.235 305.766 211.595C305.176 211.955 304.516 212.135 303.786 212.135C303.086 212.135 302.466 211.98 301.926 211.67C301.396 211.35 300.991 210.955 300.711 210.485V215.9H299.346V203.78H300.711V205.295ZM306.291 207.86C306.291 207.24 306.166 206.7 305.916 206.24C305.666 205.78 305.326 205.43 304.896 205.19C304.476 204.95 304.011 204.83 303.501 204.83C303.001 204.83 302.536 204.955 302.106 205.205C301.686 205.445 301.346 205.8 301.086 206.27C300.836 206.73 300.711 207.265 300.711 207.875C300.711 208.495 300.836 209.04 301.086 209.51C301.346 209.97 301.686 210.325 302.106 210.575C302.536 210.815 303.001 210.935 303.501 210.935C304.011 210.935 304.476 210.815 304.896 210.575C305.326 210.325 305.666 209.97 305.916 209.51C306.166 209.04 306.291 208.49 306.291 207.86ZM310.848 205.295C311.118 204.825 311.518 204.435 312.048 204.125C312.588 203.805 313.213 203.645 313.923 203.645C314.653 203.645 315.313 203.82 315.903 204.17C316.503 204.52 316.973 205.015 317.313 205.655C317.653 206.285 317.823 207.02 317.823 207.86C317.823 208.69 317.653 209.43 317.313 210.08C316.973 210.73 316.503 211.235 315.903 211.595C315.313 211.955 314.653 212.135 313.923 212.135C313.223 212.135 312.603 211.98 312.063 211.67C311.533 211.35 311.128 210.955 310.848 210.485V215.9H309.483V203.78H310.848V205.295ZM316.428 207.86C316.428 207.24 316.303 206.7 316.053 206.24C315.803 205.78 315.463 205.43 315.033 205.19C314.613 204.95 314.148 204.83 313.638 204.83C313.138 204.83 312.673 204.955 312.243 205.205C311.823 205.445 311.483 205.8 311.223 206.27C310.973 206.73 310.848 207.265 310.848 207.875C310.848 208.495 310.973 209.04 311.223 209.51C311.483 209.97 311.823 210.325 312.243 210.575C312.673 210.815 313.138 210.935 313.638 210.935C314.148 210.935 314.613 210.815 315.033 210.575C315.463 210.325 315.803 209.97 316.053 209.51C316.303 209.04 316.428 208.49 316.428 207.86ZM320.985 205.115C321.225 204.645 321.565 204.28 322.005 204.02C322.455 203.76 323 203.63 323.64 203.63V205.04H323.28C321.75 205.04 320.985 205.87 320.985 207.53V212H319.62V203.78H320.985V205.115ZM325.92 202.445C325.66 202.445 325.44 202.355 325.26 202.175C325.08 201.995 324.99 201.775 324.99 201.515C324.99 201.255 325.08 201.035 325.26 200.855C325.44 200.675 325.66 200.585 325.92 200.585C326.17 200.585 326.38 200.675 326.55 200.855C326.73 201.035 326.82 201.255 326.82 201.515C326.82 201.775 326.73 201.995 326.55 202.175C326.38 202.355 326.17 202.445 325.92 202.445ZM326.58 203.78V212H325.215V203.78H326.58ZM338.792 203.63C339.432 203.63 340.002 203.765 340.502 204.035C341.002 204.295 341.397 204.69 341.687 205.22C341.977 205.75 342.122 206.395 342.122 207.155V212H340.772V207.35C340.772 206.53 340.567 205.905 340.157 205.475C339.757 205.035 339.212 204.815 338.522 204.815C337.812 204.815 337.247 205.045 336.827 205.505C336.407 205.955 336.197 206.61 336.197 207.47V212H334.847V207.35C334.847 206.53 334.642 205.905 334.232 205.475C333.832 205.035 333.287 204.815 332.597 204.815C331.887 204.815 331.322 205.045 330.902 205.505C330.482 205.955 330.272 206.61 330.272 207.47V212H328.907V203.78H330.272V204.965C330.542 204.535 330.902 204.205 331.352 203.975C331.812 203.745 332.317 203.63 332.867 203.63C333.557 203.63 334.167 203.785 334.697 204.095C335.227 204.405 335.622 204.86 335.882 205.46C336.112 204.88 336.492 204.43 337.022 204.11C337.552 203.79 338.142 203.63 338.792 203.63ZM351.861 207.575C351.861 207.835 351.846 208.11 351.816 208.4H345.246C345.296 209.21 345.571 209.845 346.071 210.305C346.581 210.755 347.196 210.98 347.916 210.98C348.506 210.98 348.996 210.845 349.386 210.575C349.786 210.295 350.066 209.925 350.226 209.465H351.696C351.476 210.255 351.036 210.9 350.376 211.4C349.716 211.89 348.896 212.135 347.916 212.135C347.136 212.135 346.436 211.96 345.816 211.61C345.206 211.26 344.726 210.765 344.376 210.125C344.026 209.475 343.851 208.725 343.851 207.875C343.851 207.025 344.021 206.28 344.361 205.64C344.701 205 345.176 204.51 345.786 204.17C346.406 203.82 347.116 203.645 347.916 203.645C348.696 203.645 349.386 203.815 349.986 204.155C350.586 204.495 351.046 204.965 351.366 205.565C351.696 206.155 351.861 206.825 351.861 207.575ZM350.451 207.29C350.451 206.77 350.336 206.325 350.106 205.955C349.876 205.575 349.561 205.29 349.161 205.1C348.771 204.9 348.336 204.8 347.856 204.8C347.166 204.8 346.576 205.02 346.086 205.46C345.606 205.9 345.331 206.51 345.261 207.29H350.451ZM355.028 205.115C355.268 204.645 355.608 204.28 356.048 204.02C356.498 203.76 357.043 203.63 357.683 203.63V205.04H357.323C355.793 205.04 355.028 205.87 355.028 207.53V212H353.663V203.78H355.028V205.115ZM362.747 207.875C362.747 207.025 362.917 206.285 363.257 205.655C363.597 205.015 364.067 204.52 364.667 204.17C365.277 203.82 365.972 203.645 366.752 203.645C367.762 203.645 368.592 203.89 369.242 204.38C369.902 204.87 370.337 205.55 370.547 206.42H369.077C368.937 205.92 368.662 205.525 368.252 205.235C367.852 204.945 367.352 204.8 366.752 204.8C365.972 204.8 365.342 205.07 364.862 205.61C364.382 206.14 364.142 206.895 364.142 207.875C364.142 208.865 364.382 209.63 364.862 210.17C365.342 210.71 365.972 210.98 366.752 210.98C367.352 210.98 367.852 210.84 368.252 210.56C368.652 210.28 368.927 209.88 369.077 209.36H370.547C370.327 210.2 369.887 210.875 369.227 211.385C368.567 211.885 367.742 212.135 366.752 212.135C365.972 212.135 365.277 211.96 364.667 211.61C364.067 211.26 363.597 210.765 363.257 210.125C362.917 209.485 362.747 208.735 362.747 207.875ZM379.869 207.575C379.869 207.835 379.854 208.11 379.824 208.4H373.254C373.304 209.21 373.579 209.845 374.079 210.305C374.589 210.755 375.204 210.98 375.924 210.98C376.514 210.98 377.004 210.845 377.394 210.575C377.794 210.295 378.074 209.925 378.234 209.465H379.704C379.484 210.255 379.044 210.9 378.384 211.4C377.724 211.89 376.904 212.135 375.924 212.135C375.144 212.135 374.444 211.96 373.824 211.61C373.214 211.26 372.734 210.765 372.384 210.125C372.034 209.475 371.859 208.725 371.859 207.875C371.859 207.025 372.029 206.28 372.369 205.64C372.709 205 373.184 204.51 373.794 204.17C374.414 203.82 375.124 203.645 375.924 203.645C376.704 203.645 377.394 203.815 377.994 204.155C378.594 204.495 379.054 204.965 379.374 205.565C379.704 206.155 379.869 206.825 379.869 207.575ZM378.459 207.29C378.459 206.77 378.344 206.325 378.114 205.955C377.884 205.575 377.569 205.29 377.169 205.1C376.779 204.9 376.344 204.8 375.864 204.8C375.174 204.8 374.584 205.02 374.094 205.46C373.614 205.9 373.339 206.51 373.269 207.29H378.459ZM83.0354 232.875C83.0354 232.025 83.2054 231.285 83.5454 230.655C83.8854 230.015 84.3554 229.52 84.9554 229.17C85.5654 228.82 86.2604 228.645 87.0404 228.645C88.0504 228.645 88.8804 228.89 89.5304 229.38C90.1904 229.87 90.6254 230.55 90.8354 231.42H89.3654C89.2254 230.92 88.9504 230.525 88.5404 230.235C88.1404 229.945 87.6404 229.8 87.0404 229.8C86.2604 229.8 85.6304 230.07 85.1504 230.61C84.6704 231.14 84.4304 231.895 84.4304 232.875C84.4304 233.865 84.6704 234.63 85.1504 235.17C85.6304 235.71 86.2604 235.98 87.0404 235.98C87.6404 235.98 88.1404 235.84 88.5404 235.56C88.9404 235.28 89.2154 234.88 89.3654 234.36H90.8354C90.6154 235.2 90.1754 235.875 89.5154 236.385C88.8554 236.885 88.0304 237.135 87.0404 237.135C86.2604 237.135 85.5654 236.96 84.9554 236.61C84.3554 236.26 83.8854 235.765 83.5454 235.125C83.2054 234.485 83.0354 233.735 83.0354 232.875ZM96.7368 228.63C97.3568 228.63 97.9168 228.765 98.4168 229.035C98.9168 229.295 99.3068 229.69 99.5868 230.22C99.8768 230.75 100.022 231.395 100.022 232.155V237H98.6718V232.35C98.6718 231.53 98.4668 230.905 98.0568 230.475C97.6468 230.035 97.0868 229.815 96.3768 229.815C95.6568 229.815 95.0818 230.04 94.6518 230.49C94.2318 230.94 94.0218 231.595 94.0218 232.455V237H92.6568V225.9H94.0218V229.95C94.2918 229.53 94.6618 229.205 95.1318 228.975C95.6118 228.745 96.1468 228.63 96.7368 228.63ZM101.741 232.86C101.741 232.02 101.911 231.285 102.251 230.655C102.591 230.015 103.056 229.52 103.646 229.17C104.246 228.82 104.911 228.645 105.641 228.645C106.361 228.645 106.986 228.8 107.516 229.11C108.046 229.42 108.441 229.81 108.701 230.28V228.78H110.081V237H108.701V235.47C108.431 235.95 108.026 236.35 107.486 236.67C106.956 236.98 106.336 237.135 105.626 237.135C104.896 237.135 104.236 236.955 103.646 236.595C103.056 236.235 102.591 235.73 102.251 235.08C101.911 234.43 101.741 233.69 101.741 232.86ZM108.701 232.875C108.701 232.255 108.576 231.715 108.326 231.255C108.076 230.795 107.736 230.445 107.306 230.205C106.886 229.955 106.421 229.83 105.911 229.83C105.401 229.83 104.936 229.95 104.516 230.19C104.096 230.43 103.761 230.78 103.511 231.24C103.261 231.7 103.136 232.24 103.136 232.86C103.136 233.49 103.261 234.04 103.511 234.51C103.761 234.97 104.096 235.325 104.516 235.575C104.936 235.815 105.401 235.935 105.911 235.935C106.421 235.935 106.886 235.815 107.306 235.575C107.736 235.325 108.076 234.97 108.326 234.51C108.576 234.04 108.701 233.495 108.701 232.875ZM113.753 230.115C113.993 229.645 114.333 229.28 114.773 229.02C115.223 228.76 115.768 228.63 116.408 228.63V230.04H116.048C114.518 230.04 113.753 230.87 113.753 232.53V237H112.388V228.78H113.753V230.115ZM118.689 227.445C118.429 227.445 118.209 227.355 118.029 227.175C117.849 226.995 117.759 226.775 117.759 226.515C117.759 226.255 117.849 226.035 118.029 225.855C118.209 225.675 118.429 225.585 118.689 225.585C118.939 225.585 119.149 225.675 119.319 225.855C119.499 226.035 119.589 226.255 119.589 226.515C119.589 226.775 119.499 226.995 119.319 227.175C119.149 227.355 118.939 227.445 118.689 227.445ZM119.349 228.78V237H117.984V228.78H119.349ZM125.26 237.135C124.49 237.135 123.79 236.96 123.16 236.61C122.54 236.26 122.05 235.765 121.69 235.125C121.34 234.475 121.165 233.725 121.165 232.875C121.165 232.035 121.345 231.295 121.705 230.655C122.075 230.005 122.575 229.51 123.205 229.17C123.835 228.82 124.54 228.645 125.32 228.645C126.1 228.645 126.805 228.82 127.435 229.17C128.065 229.51 128.56 230 128.92 230.64C129.29 231.28 129.475 232.025 129.475 232.875C129.475 233.725 129.285 234.475 128.905 235.125C128.535 235.765 128.03 236.26 127.39 236.61C126.75 236.96 126.04 237.135 125.26 237.135ZM125.26 235.935C125.75 235.935 126.21 235.82 126.64 235.59C127.07 235.36 127.415 235.015 127.675 234.555C127.945 234.095 128.08 233.535 128.08 232.875C128.08 232.215 127.95 231.655 127.69 231.195C127.43 230.735 127.09 230.395 126.67 230.175C126.25 229.945 125.795 229.83 125.305 229.83C124.805 229.83 124.345 229.945 123.925 230.175C123.515 230.395 123.185 230.735 122.935 231.195C122.685 231.655 122.56 232.215 122.56 232.875C122.56 233.545 122.68 234.11 122.92 234.57C123.17 235.03 123.5 235.375 123.91 235.605C124.32 235.825 124.77 235.935 125.26 235.935ZM132.935 229.905V234.75C132.935 235.15 133.02 235.435 133.19 235.605C133.36 235.765 133.655 235.845 134.075 235.845H135.08V237H133.85C133.09 237 132.52 236.825 132.14 236.475C131.76 236.125 131.57 235.55 131.57 234.75V229.905H130.505V228.78H131.57V226.71H132.935V228.78H135.08V229.905H132.935ZM143.403 226.41C144.393 226.41 145.193 226.69 145.803 227.25C146.413 227.81 146.718 228.56 146.718 229.5C146.718 230.55 146.393 231.33 145.743 231.84C145.093 232.34 144.213 232.59 143.103 232.59L143.058 234.015H141.873L141.813 231.645H142.248C143.238 231.645 144.013 231.495 144.573 231.195C145.133 230.895 145.413 230.33 145.413 229.5C145.413 228.9 145.233 228.425 144.873 228.075C144.513 227.725 144.028 227.55 143.418 227.55C142.798 227.55 142.308 227.72 141.948 228.06C141.598 228.39 141.423 228.845 141.423 229.425H140.133C140.133 228.825 140.268 228.3 140.538 227.85C140.808 227.39 141.188 227.035 141.678 226.785C142.178 226.535 142.753 226.41 143.403 226.41ZM142.458 237.09C142.198 237.09 141.978 237 141.798 236.82C141.618 236.64 141.528 236.42 141.528 236.16C141.528 235.9 141.618 235.68 141.798 235.5C141.978 235.32 142.198 235.23 142.458 235.23C142.708 235.23 142.918 235.32 143.088 235.5C143.268 235.68 143.358 235.9 143.358 236.16C143.358 236.42 143.268 236.64 143.088 236.82C142.918 237 142.708 237.09 142.458 237.09ZM159.033 226.545V227.655H156.183V237H154.818V227.655H151.953V226.545H159.033ZM164.298 237.135C163.528 237.135 162.828 236.96 162.198 236.61C161.578 236.26 161.088 235.765 160.728 235.125C160.378 234.475 160.203 233.725 160.203 232.875C160.203 232.035 160.383 231.295 160.743 230.655C161.113 230.005 161.613 229.51 162.243 229.17C162.873 228.82 163.578 228.645 164.358 228.645C165.138 228.645 165.843 228.82 166.473 229.17C167.103 229.51 167.598 230 167.958 230.64C168.328 231.28 168.513 232.025 168.513 232.875C168.513 233.725 168.323 234.475 167.943 235.125C167.573 235.765 167.068 236.26 166.428 236.61C165.788 236.96 165.078 237.135 164.298 237.135ZM164.298 235.935C164.788 235.935 165.248 235.82 165.678 235.59C166.108 235.36 166.453 235.015 166.713 234.555C166.983 234.095 167.118 233.535 167.118 232.875C167.118 232.215 166.988 231.655 166.728 231.195C166.468 230.735 166.128 230.395 165.708 230.175C165.288 229.945 164.833 229.83 164.343 229.83C163.843 229.83 163.383 229.945 162.963 230.175C162.553 230.395 162.223 230.735 161.973 231.195C161.723 231.655 161.598 232.215 161.598 232.875C161.598 233.545 161.718 234.11 161.958 234.57C162.208 235.03 162.538 235.375 162.948 235.605C163.358 235.825 163.808 235.935 164.298 235.935ZM177.598 228.78V237H176.233V235.785C175.973 236.205 175.608 236.535 175.138 236.775C174.678 237.005 174.168 237.12 173.608 237.12C172.968 237.12 172.393 236.99 171.883 236.73C171.373 236.46 170.968 236.06 170.668 235.53C170.378 235 170.233 234.355 170.233 233.595V228.78H171.583V233.415C171.583 234.225 171.788 234.85 172.198 235.29C172.608 235.72 173.168 235.935 173.878 235.935C174.608 235.935 175.183 235.71 175.603 235.26C176.023 234.81 176.233 234.155 176.233 233.295V228.78H177.598ZM182.813 237.135C182.183 237.135 181.618 237.03 181.118 236.82C180.618 236.6 180.223 236.3 179.933 235.92C179.643 235.53 179.483 235.085 179.453 234.585H180.863C180.903 234.995 181.093 235.33 181.433 235.59C181.783 235.85 182.238 235.98 182.798 235.98C183.318 235.98 183.728 235.865 184.028 235.635C184.328 235.405 184.478 235.115 184.478 234.765C184.478 234.405 184.318 234.14 183.998 233.97C183.678 233.79 183.183 233.615 182.513 233.445C181.903 233.285 181.403 233.125 181.013 232.965C180.633 232.795 180.303 232.55 180.023 232.23C179.753 231.9 179.618 231.47 179.618 230.94C179.618 230.52 179.743 230.135 179.993 229.785C180.243 229.435 180.598 229.16 181.058 228.96C181.518 228.75 182.043 228.645 182.633 228.645C183.543 228.645 184.278 228.875 184.838 229.335C185.398 229.795 185.698 230.425 185.738 231.225H184.373C184.343 230.795 184.168 230.45 183.848 230.19C183.538 229.93 183.118 229.8 182.588 229.8C182.098 229.8 181.708 229.905 181.418 230.115C181.128 230.325 180.983 230.6 180.983 230.94C180.983 231.21 181.068 231.435 181.238 231.615C181.418 231.785 181.638 231.925 181.898 232.035C182.168 232.135 182.538 232.25 183.008 232.38C183.598 232.54 184.078 232.7 184.448 232.86C184.818 233.01 185.133 233.24 185.393 233.55C185.663 233.86 185.803 234.265 185.813 234.765C185.813 235.215 185.688 235.62 185.438 235.98C185.188 236.34 184.833 236.625 184.373 236.835C183.923 237.035 183.403 237.135 182.813 237.135ZM193.104 225.9V237H191.739V225.9H193.104ZM202.93 232.575C202.93 232.835 202.915 233.11 202.885 233.4H196.315C196.365 234.21 196.64 234.845 197.14 235.305C197.65 235.755 198.265 235.98 198.985 235.98C199.575 235.98 200.065 235.845 200.455 235.575C200.855 235.295 201.135 234.925 201.295 234.465H202.765C202.545 235.255 202.105 235.9 201.445 236.4C200.785 236.89 199.965 237.135 198.985 237.135C198.205 237.135 197.505 236.96 196.885 236.61C196.275 236.26 195.795 235.765 195.445 235.125C195.095 234.475 194.92 233.725 194.92 232.875C194.92 232.025 195.09 231.28 195.43 230.64C195.77 230 196.245 229.51 196.855 229.17C197.475 228.82 198.185 228.645 198.985 228.645C199.765 228.645 200.455 228.815 201.055 229.155C201.655 229.495 202.115 229.965 202.435 230.565C202.765 231.155 202.93 231.825 202.93 232.575ZM201.52 232.29C201.52 231.77 201.405 231.325 201.175 230.955C200.945 230.575 200.63 230.29 200.23 230.1C199.84 229.9 199.405 229.8 198.925 229.8C198.235 229.8 197.645 230.02 197.155 230.46C196.675 230.9 196.4 231.51 196.33 232.29H201.52ZM207.642 237.135C207.012 237.135 206.447 237.03 205.947 236.82C205.447 236.6 205.052 236.3 204.762 235.92C204.472 235.53 204.312 235.085 204.282 234.585H205.692C205.732 234.995 205.922 235.33 206.262 235.59C206.612 235.85 207.067 235.98 207.627 235.98C208.147 235.98 208.557 235.865 208.857 235.635C209.157 235.405 209.307 235.115 209.307 234.765C209.307 234.405 209.147 234.14 208.827 233.97C208.507 233.79 208.012 233.615 207.342 233.445C206.732 233.285 206.232 233.125 205.842 232.965C205.462 232.795 205.132 232.55 204.852 232.23C204.582 231.9 204.447 231.47 204.447 230.94C204.447 230.52 204.572 230.135 204.822 229.785C205.072 229.435 205.427 229.16 205.887 228.96C206.347 228.75 206.872 228.645 207.462 228.645C208.372 228.645 209.107 228.875 209.667 229.335C210.227 229.795 210.527 230.425 210.567 231.225H209.202C209.172 230.795 208.997 230.45 208.677 230.19C208.367 229.93 207.947 229.8 207.417 229.8C206.927 229.8 206.537 229.905 206.247 230.115C205.957 230.325 205.812 230.6 205.812 230.94C205.812 231.21 205.897 231.435 206.067 231.615C206.247 231.785 206.467 231.925 206.727 232.035C206.997 232.135 207.367 232.25 207.837 232.38C208.427 232.54 208.907 232.7 209.277 232.86C209.647 233.01 209.962 233.24 210.222 233.55C210.492 233.86 210.632 234.265 210.642 234.765C210.642 235.215 210.517 235.62 210.267 235.98C210.017 236.34 209.662 236.625 209.202 236.835C208.752 237.035 208.232 237.135 207.642 237.135ZM217.933 230.295C218.203 229.825 218.603 229.435 219.133 229.125C219.673 228.805 220.298 228.645 221.008 228.645C221.738 228.645 222.398 228.82 222.988 229.17C223.588 229.52 224.058 230.015 224.398 230.655C224.738 231.285 224.908 232.02 224.908 232.86C224.908 233.69 224.738 234.43 224.398 235.08C224.058 235.73 223.588 236.235 222.988 236.595C222.398 236.955 221.738 237.135 221.008 237.135C220.308 237.135 219.688 236.98 219.148 236.67C218.618 236.35 218.213 235.955 217.933 235.485V240.9H216.568V228.78H217.933V230.295ZM223.513 232.86C223.513 232.24 223.388 231.7 223.138 231.24C222.888 230.78 222.548 230.43 222.118 230.19C221.698 229.95 221.233 229.83 220.723 229.83C220.223 229.83 219.758 229.955 219.328 230.205C218.908 230.445 218.568 230.8 218.308 231.27C218.058 231.73 217.933 232.265 217.933 232.875C217.933 233.495 218.058 234.04 218.308 234.51C218.568 234.97 218.908 235.325 219.328 235.575C219.758 235.815 220.223 235.935 220.723 235.935C221.233 235.935 221.698 235.815 222.118 235.575C222.548 235.325 222.888 234.97 223.138 234.51C223.388 234.04 223.513 233.49 223.513 232.86ZM228.07 230.115C228.31 229.645 228.65 229.28 229.09 229.02C229.54 228.76 230.085 228.63 230.725 228.63V230.04H230.365C228.835 230.04 228.07 230.87 228.07 232.53V237H226.705V228.78H228.07V230.115ZM235.885 237.135C235.115 237.135 234.415 236.96 233.785 236.61C233.165 236.26 232.675 235.765 232.315 235.125C231.965 234.475 231.79 233.725 231.79 232.875C231.79 232.035 231.97 231.295 232.33 230.655C232.7 230.005 233.2 229.51 233.83 229.17C234.46 228.82 235.165 228.645 235.945 228.645C236.725 228.645 237.43 228.82 238.06 229.17C238.69 229.51 239.185 230 239.545 230.64C239.915 231.28 240.1 232.025 240.1 232.875C240.1 233.725 239.91 234.475 239.53 235.125C239.16 235.765 238.655 236.26 238.015 236.61C237.375 236.96 236.665 237.135 235.885 237.135ZM235.885 235.935C236.375 235.935 236.835 235.82 237.265 235.59C237.695 235.36 238.04 235.015 238.3 234.555C238.57 234.095 238.705 233.535 238.705 232.875C238.705 232.215 238.575 231.655 238.315 231.195C238.055 230.735 237.715 230.395 237.295 230.175C236.875 229.945 236.42 229.83 235.93 229.83C235.43 229.83 234.97 229.945 234.55 230.175C234.14 230.395 233.81 230.735 233.56 231.195C233.31 231.655 233.185 232.215 233.185 232.875C233.185 233.545 233.305 234.11 233.545 234.57C233.795 235.03 234.125 235.375 234.535 235.605C234.945 235.825 235.395 235.935 235.885 235.935ZM241.385 232.86C241.385 232.02 241.555 231.285 241.895 230.655C242.235 230.015 242.7 229.52 243.29 229.17C243.89 228.82 244.56 228.645 245.3 228.645C245.94 228.645 246.535 228.795 247.085 229.095C247.635 229.385 248.055 229.77 248.345 230.25V225.9H249.725V237H248.345V235.455C248.075 235.945 247.675 236.35 247.145 236.67C246.615 236.98 245.995 237.135 245.285 237.135C244.555 237.135 243.89 236.955 243.29 236.595C242.7 236.235 242.235 235.73 241.895 235.08C241.555 234.43 241.385 233.69 241.385 232.86ZM248.345 232.875C248.345 232.255 248.22 231.715 247.97 231.255C247.72 230.795 247.38 230.445 246.95 230.205C246.53 229.955 246.065 229.83 245.555 229.83C245.045 229.83 244.58 229.95 244.16 230.19C243.74 230.43 243.405 230.78 243.155 231.24C242.905 231.7 242.78 232.24 242.78 232.86C242.78 233.49 242.905 234.04 243.155 234.51C243.405 234.97 243.74 235.325 244.16 235.575C244.58 235.815 245.045 235.935 245.555 235.935C246.065 235.935 246.53 235.815 246.95 235.575C247.38 235.325 247.72 234.97 247.97 234.51C248.22 234.04 248.345 233.495 248.345 232.875ZM259.322 228.78V237H257.957V235.785C257.697 236.205 257.332 236.535 256.862 236.775C256.402 237.005 255.892 237.12 255.332 237.12C254.692 237.12 254.117 236.99 253.607 236.73C253.097 236.46 252.692 236.06 252.392 235.53C252.102 235 251.957 234.355 251.957 233.595V228.78H253.307V233.415C253.307 234.225 253.512 234.85 253.922 235.29C254.332 235.72 254.892 235.935 255.602 235.935C256.332 235.935 256.907 235.71 257.327 235.26C257.747 234.81 257.957 234.155 257.957 233.295V228.78H259.322ZM262.331 227.445C262.071 227.445 261.851 227.355 261.671 227.175C261.491 226.995 261.401 226.775 261.401 226.515C261.401 226.255 261.491 226.035 261.671 225.855C261.851 225.675 262.071 225.585 262.331 225.585C262.581 225.585 262.791 225.675 262.961 225.855C263.141 226.035 263.231 226.255 263.231 226.515C263.231 226.775 263.141 226.995 262.961 227.175C262.791 227.355 262.581 227.445 262.331 227.445ZM262.991 228.78V237H261.626V228.78H262.991ZM266.983 229.905V234.75C266.983 235.15 267.068 235.435 267.238 235.605C267.408 235.765 267.703 235.845 268.123 235.845H269.128V237H267.898C267.138 237 266.568 236.825 266.188 236.475C265.808 236.125 265.618 235.55 265.618 234.75V229.905H264.553V228.78H265.618V226.71H266.983V228.78H269.128V229.905H266.983ZM273.692 237.135C273.062 237.135 272.497 237.03 271.997 236.82C271.497 236.6 271.102 236.3 270.812 235.92C270.522 235.53 270.362 235.085 270.332 234.585H271.742C271.782 234.995 271.972 235.33 272.312 235.59C272.662 235.85 273.117 235.98 273.677 235.98C274.197 235.98 274.607 235.865 274.907 235.635C275.207 235.405 275.357 235.115 275.357 234.765C275.357 234.405 275.197 234.14 274.877 233.97C274.557 233.79 274.062 233.615 273.392 233.445C272.782 233.285 272.282 233.125 271.892 232.965C271.512 232.795 271.182 232.55 270.902 232.23C270.632 231.9 270.497 231.47 270.497 230.94C270.497 230.52 270.622 230.135 270.872 229.785C271.122 229.435 271.477 229.16 271.937 228.96C272.397 228.75 272.922 228.645 273.512 228.645C274.422 228.645 275.157 228.875 275.717 229.335C276.277 229.795 276.577 230.425 276.617 231.225H275.252C275.222 230.795 275.047 230.45 274.727 230.19C274.417 229.93 273.997 229.8 273.467 229.8C272.977 229.8 272.587 229.905 272.297 230.115C272.007 230.325 271.862 230.6 271.862 230.94C271.862 231.21 271.947 231.435 272.117 231.615C272.297 231.785 272.517 231.925 272.777 232.035C273.047 232.135 273.417 232.25 273.887 232.38C274.477 232.54 274.957 232.7 275.327 232.86C275.697 233.01 276.012 233.24 276.272 233.55C276.542 233.86 276.682 234.265 276.692 234.765C276.692 235.215 276.567 235.62 276.317 235.98C276.067 236.34 275.712 236.625 275.252 236.835C274.802 237.035 274.282 237.135 273.692 237.135ZM285.528 237.135C284.898 237.135 284.333 237.03 283.833 236.82C283.333 236.6 282.938 236.3 282.648 235.92C282.358 235.53 282.198 235.085 282.168 234.585H283.578C283.618 234.995 283.808 235.33 284.148 235.59C284.498 235.85 284.953 235.98 285.513 235.98C286.033 235.98 286.443 235.865 286.743 235.635C287.043 235.405 287.193 235.115 287.193 234.765C287.193 234.405 287.033 234.14 286.713 233.97C286.393 233.79 285.898 233.615 285.228 233.445C284.618 233.285 284.118 233.125 283.728 232.965C283.348 232.795 283.018 232.55 282.738 232.23C282.468 231.9 282.333 231.47 282.333 230.94C282.333 230.52 282.458 230.135 282.708 229.785C282.958 229.435 283.313 229.16 283.773 228.96C284.233 228.75 284.758 228.645 285.348 228.645C286.258 228.645 286.993 228.875 287.553 229.335C288.113 229.795 288.413 230.425 288.453 231.225H287.088C287.058 230.795 286.883 230.45 286.563 230.19C286.253 229.93 285.833 229.8 285.303 229.8C284.813 229.8 284.423 229.905 284.133 230.115C283.843 230.325 283.698 230.6 283.698 230.94C283.698 231.21 283.783 231.435 283.953 231.615C284.133 231.785 284.353 231.925 284.613 232.035C284.883 232.135 285.253 232.25 285.723 232.38C286.313 232.54 286.793 232.7 287.163 232.86C287.533 233.01 287.848 233.24 288.108 233.55C288.378 233.86 288.518 234.265 288.528 234.765C288.528 235.215 288.403 235.62 288.153 235.98C287.903 236.34 287.548 236.625 287.088 236.835C286.638 237.035 286.118 237.135 285.528 237.135ZM289.945 232.875C289.945 232.025 290.115 231.285 290.455 230.655C290.795 230.015 291.265 229.52 291.865 229.17C292.475 228.82 293.17 228.645 293.95 228.645C294.96 228.645 295.79 228.89 296.44 229.38C297.1 229.87 297.535 230.55 297.745 231.42H296.275C296.135 230.92 295.86 230.525 295.45 230.235C295.05 229.945 294.55 229.8 293.95 229.8C293.17 229.8 292.54 230.07 292.06 230.61C291.58 231.14 291.34 231.895 291.34 232.875C291.34 233.865 291.58 234.63 292.06 235.17C292.54 235.71 293.17 235.98 293.95 235.98C294.55 235.98 295.05 235.84 295.45 235.56C295.85 235.28 296.125 234.88 296.275 234.36H297.745C297.525 235.2 297.085 235.875 296.425 236.385C295.765 236.885 294.94 237.135 293.95 237.135C293.17 237.135 292.475 236.96 291.865 236.61C291.265 236.26 290.795 235.765 290.455 235.125C290.115 234.485 289.945 233.735 289.945 232.875ZM299.056 232.86C299.056 232.02 299.226 231.285 299.566 230.655C299.906 230.015 300.371 229.52 300.961 229.17C301.561 228.82 302.226 228.645 302.956 228.645C303.676 228.645 304.301 228.8 304.831 229.11C305.361 229.42 305.756 229.81 306.016 230.28V228.78H307.396V237H306.016V235.47C305.746 235.95 305.341 236.35 304.801 236.67C304.271 236.98 303.651 237.135 302.941 237.135C302.211 237.135 301.551 236.955 300.961 236.595C300.371 236.235 299.906 235.73 299.566 235.08C299.226 234.43 299.056 233.69 299.056 232.86ZM306.016 232.875C306.016 232.255 305.891 231.715 305.641 231.255C305.391 230.795 305.051 230.445 304.621 230.205C304.201 229.955 303.736 229.83 303.226 229.83C302.716 229.83 302.251 229.95 301.831 230.19C301.411 230.43 301.076 230.78 300.826 231.24C300.576 231.7 300.451 232.24 300.451 232.86C300.451 233.49 300.576 234.04 300.826 234.51C301.076 234.97 301.411 235.325 301.831 235.575C302.251 235.815 302.716 235.935 303.226 235.935C303.736 235.935 304.201 235.815 304.621 235.575C305.051 235.325 305.391 234.97 305.641 234.51C305.891 234.04 306.016 233.495 306.016 232.875ZM313.708 228.63C314.708 228.63 315.518 228.935 316.138 229.545C316.758 230.145 317.068 231.015 317.068 232.155V237H315.718V232.35C315.718 231.53 315.513 230.905 315.103 230.475C314.693 230.035 314.133 229.815 313.423 229.815C312.703 229.815 312.128 230.04 311.698 230.49C311.278 230.94 311.068 231.595 311.068 232.455V237H309.703V228.78H311.068V229.95C311.338 229.53 311.703 229.205 312.163 228.975C312.633 228.745 313.148 228.63 313.708 228.63ZM323.302 228.63C324.302 228.63 325.112 228.935 325.732 229.545C326.352 230.145 326.662 231.015 326.662 232.155V237H325.312V232.35C325.312 231.53 325.107 230.905 324.697 230.475C324.287 230.035 323.727 229.815 323.017 229.815C322.297 229.815 321.722 230.04 321.292 230.49C320.872 230.94 320.662 231.595 320.662 232.455V237H319.297V228.78H320.662V229.95C320.932 229.53 321.297 229.205 321.757 228.975C322.227 228.745 322.742 228.63 323.302 228.63ZM336.392 232.575C336.392 232.835 336.377 233.11 336.347 233.4H329.777C329.827 234.21 330.102 234.845 330.602 235.305C331.112 235.755 331.727 235.98 332.447 235.98C333.037 235.98 333.527 235.845 333.917 235.575C334.317 235.295 334.597 234.925 334.757 234.465H336.227C336.007 235.255 335.567 235.9 334.907 236.4C334.247 236.89 333.427 237.135 332.447 237.135C331.667 237.135 330.967 236.96 330.347 236.61C329.737 236.26 329.257 235.765 328.907 235.125C328.557 234.475 328.382 233.725 328.382 232.875C328.382 232.025 328.552 231.28 328.892 230.64C329.232 230 329.707 229.51 330.317 229.17C330.937 228.82 331.647 228.645 332.447 228.645C333.227 228.645 333.917 228.815 334.517 229.155C335.117 229.495 335.577 229.965 335.897 230.565C336.227 231.155 336.392 231.825 336.392 232.575ZM334.982 232.29C334.982 231.77 334.867 231.325 334.637 230.955C334.407 230.575 334.092 230.29 333.692 230.1C333.302 229.9 332.867 229.8 332.387 229.8C331.697 229.8 331.107 230.02 330.617 230.46C330.137 230.9 329.862 231.51 329.792 232.29H334.982ZM333.857 226.455L330.662 228.165V227.145L333.857 225.27V226.455ZM341.104 237.135C340.474 237.135 339.909 237.03 339.409 236.82C338.909 236.6 338.514 236.3 338.224 235.92C337.934 235.53 337.774 235.085 337.744 234.585H339.154C339.194 234.995 339.384 235.33 339.724 235.59C340.074 235.85 340.529 235.98 341.089 235.98C341.609 235.98 342.019 235.865 342.319 235.635C342.619 235.405 342.769 235.115 342.769 234.765C342.769 234.405 342.609 234.14 342.289 233.97C341.969 233.79 341.474 233.615 340.804 233.445C340.194 233.285 339.694 233.125 339.304 232.965C338.924 232.795 338.594 232.55 338.314 232.23C338.044 231.9 337.909 231.47 337.909 230.94C337.909 230.52 338.034 230.135 338.284 229.785C338.534 229.435 338.889 229.16 339.349 228.96C339.809 228.75 340.334 228.645 340.924 228.645C341.834 228.645 342.569 228.875 343.129 229.335C343.689 229.795 343.989 230.425 344.029 231.225H342.664C342.634 230.795 342.459 230.45 342.139 230.19C341.829 229.93 341.409 229.8 340.879 229.8C340.389 229.8 339.999 229.905 339.709 230.115C339.419 230.325 339.274 230.6 339.274 230.94C339.274 231.21 339.359 231.435 339.529 231.615C339.709 231.785 339.929 231.925 340.189 232.035C340.459 232.135 340.829 232.25 341.299 232.38C341.889 232.54 342.369 232.7 342.739 232.86C343.109 233.01 343.424 233.24 343.684 233.55C343.954 233.86 344.094 234.265 344.104 234.765C344.104 235.215 343.979 235.62 343.729 235.98C343.479 236.34 343.124 236.625 342.664 236.835C342.214 237.035 341.694 237.135 341.104 237.135ZM352.94 237.135C352.31 237.135 351.745 237.03 351.245 236.82C350.745 236.6 350.35 236.3 350.06 235.92C349.77 235.53 349.61 235.085 349.58 234.585H350.99C351.03 234.995 351.22 235.33 351.56 235.59C351.91 235.85 352.365 235.98 352.925 235.98C353.445 235.98 353.855 235.865 354.155 235.635C354.455 235.405 354.605 235.115 354.605 234.765C354.605 234.405 354.445 234.14 354.125 233.97C353.805 233.79 353.31 233.615 352.64 233.445C352.03 233.285 351.53 233.125 351.14 232.965C350.76 232.795 350.43 232.55 350.15 232.23C349.88 231.9 349.745 231.47 349.745 230.94C349.745 230.52 349.87 230.135 350.12 229.785C350.37 229.435 350.725 229.16 351.185 228.96C351.645 228.75 352.17 228.645 352.76 228.645C353.67 228.645 354.405 228.875 354.965 229.335C355.525 229.795 355.825 230.425 355.865 231.225H354.5C354.47 230.795 354.295 230.45 353.975 230.19C353.665 229.93 353.245 229.8 352.715 229.8C352.225 229.8 351.835 229.905 351.545 230.115C351.255 230.325 351.11 230.6 351.11 230.94C351.11 231.21 351.195 231.435 351.365 231.615C351.545 231.785 351.765 231.925 352.025 232.035C352.295 232.135 352.665 232.25 353.135 232.38C353.725 232.54 354.205 232.7 354.575 232.86C354.945 233.01 355.26 233.24 355.52 233.55C355.79 233.86 355.93 234.265 355.94 234.765C355.94 235.215 355.815 235.62 355.565 235.98C355.315 236.34 354.96 236.625 354.5 236.835C354.05 237.035 353.53 237.135 352.94 237.135ZM365.367 232.575C365.367 232.835 365.352 233.11 365.322 233.4H358.752C358.802 234.21 359.077 234.845 359.577 235.305C360.087 235.755 360.702 235.98 361.422 235.98C362.012 235.98 362.502 235.845 362.892 235.575C363.292 235.295 363.572 234.925 363.732 234.465H365.202C364.982 235.255 364.542 235.9 363.882 236.4C363.222 236.89 362.402 237.135 361.422 237.135C360.642 237.135 359.942 236.96 359.322 236.61C358.712 236.26 358.232 235.765 357.882 235.125C357.532 234.475 357.357 233.725 357.357 232.875C357.357 232.025 357.527 231.28 357.867 230.64C358.207 230 358.682 229.51 359.292 229.17C359.912 228.82 360.622 228.645 361.422 228.645C362.202 228.645 362.892 228.815 363.492 229.155C364.092 229.495 364.552 229.965 364.872 230.565C365.202 231.155 365.367 231.825 365.367 232.575ZM363.957 232.29C363.957 231.77 363.842 231.325 363.612 230.955C363.382 230.575 363.067 230.29 362.667 230.1C362.277 229.9 361.842 229.8 361.362 229.8C360.672 229.8 360.082 230.02 359.592 230.46C359.112 230.9 358.837 231.51 358.767 232.29H363.957ZM368.533 230.115C368.773 229.645 369.113 229.28 369.553 229.02C370.003 228.76 370.548 228.63 371.188 228.63V230.04H370.828C369.298 230.04 368.533 230.87 368.533 232.53V237H367.168V228.78H368.533V230.115ZM376.349 237.135C375.579 237.135 374.879 236.96 374.249 236.61C373.629 236.26 373.139 235.765 372.779 235.125C372.429 234.475 372.254 233.725 372.254 232.875C372.254 232.035 372.434 231.295 372.794 230.655C373.164 230.005 373.664 229.51 374.294 229.17C374.924 228.82 375.629 228.645 376.409 228.645C377.189 228.645 377.894 228.82 378.524 229.17C379.154 229.51 379.649 230 380.009 230.64C380.379 231.28 380.564 232.025 380.564 232.875C380.564 233.725 380.374 234.475 379.994 235.125C379.624 235.765 379.119 236.26 378.479 236.61C377.839 236.96 377.129 237.135 376.349 237.135ZM376.349 235.935C376.839 235.935 377.299 235.82 377.729 235.59C378.159 235.36 378.504 235.015 378.764 234.555C379.034 234.095 379.169 233.535 379.169 232.875C379.169 232.215 379.039 231.655 378.779 231.195C378.519 230.735 378.179 230.395 377.759 230.175C377.339 229.945 376.884 229.83 376.394 229.83C375.894 229.83 375.434 229.945 375.014 230.175C374.604 230.395 374.274 230.735 374.024 231.195C373.774 231.655 373.649 232.215 373.649 232.875C373.649 233.545 373.769 234.11 374.009 234.57C374.259 235.03 374.589 235.375 374.999 235.605C375.409 235.825 375.859 235.935 376.349 235.935ZM386.364 228.63C387.364 228.63 388.174 228.935 388.794 229.545C389.414 230.145 389.724 231.015 389.724 232.155V237H388.374V232.35C388.374 231.53 388.169 230.905 387.759 230.475C387.349 230.035 386.789 229.815 386.079 229.815C385.359 229.815 384.784 230.04 384.354 230.49C383.934 230.94 383.724 231.595 383.724 232.455V237H382.359V228.78H383.724V229.95C383.994 229.53 384.359 229.205 384.819 228.975C385.289 228.745 385.804 228.63 386.364 228.63ZM393.619 229.905V234.75C393.619 235.15 393.704 235.435 393.874 235.605C394.044 235.765 394.339 235.845 394.759 235.845H395.764V237H394.534C393.774 237 393.204 236.825 392.824 236.475C392.444 236.125 392.254 235.55 392.254 234.75V229.905H391.189V228.78H392.254V226.71H393.619V228.78H395.764V229.905H393.619ZM157.955 255.295C158.225 254.825 158.625 254.435 159.155 254.125C159.695 253.805 160.32 253.645 161.03 253.645C161.76 253.645 162.42 253.82 163.01 254.17C163.61 254.52 164.08 255.015 164.42 255.655C164.76 256.285 164.93 257.02 164.93 257.86C164.93 258.69 164.76 259.43 164.42 260.08C164.08 260.73 163.61 261.235 163.01 261.595C162.42 261.955 161.76 262.135 161.03 262.135C160.33 262.135 159.71 261.98 159.17 261.67C158.64 261.35 158.235 260.955 157.955 260.485V265.9H156.59V253.78H157.955V255.295ZM163.535 257.86C163.535 257.24 163.41 256.7 163.16 256.24C162.91 255.78 162.57 255.43 162.14 255.19C161.72 254.95 161.255 254.83 160.745 254.83C160.245 254.83 159.78 254.955 159.35 255.205C158.93 255.445 158.59 255.8 158.33 256.27C158.08 256.73 157.955 257.265 157.955 257.875C157.955 258.495 158.08 259.04 158.33 259.51C158.59 259.97 158.93 260.325 159.35 260.575C159.78 260.815 160.245 260.935 160.745 260.935C161.255 260.935 161.72 260.815 162.14 260.575C162.57 260.325 162.91 259.97 163.16 259.51C163.41 259.04 163.535 258.49 163.535 257.86ZM174.227 257.575C174.227 257.835 174.212 258.11 174.182 258.4H167.612C167.662 259.21 167.937 259.845 168.437 260.305C168.947 260.755 169.562 260.98 170.282 260.98C170.872 260.98 171.362 260.845 171.752 260.575C172.152 260.295 172.432 259.925 172.592 259.465H174.062C173.842 260.255 173.402 260.9 172.742 261.4C172.082 261.89 171.262 262.135 170.282 262.135C169.502 262.135 168.802 261.96 168.182 261.61C167.572 261.26 167.092 260.765 166.742 260.125C166.392 259.475 166.217 258.725 166.217 257.875C166.217 257.025 166.387 256.28 166.727 255.64C167.067 255 167.542 254.51 168.152 254.17C168.772 253.82 169.482 253.645 170.282 253.645C171.062 253.645 171.752 253.815 172.352 254.155C172.952 254.495 173.412 254.965 173.732 255.565C174.062 256.155 174.227 256.825 174.227 257.575ZM172.817 257.29C172.817 256.77 172.702 256.325 172.472 255.955C172.242 255.575 171.927 255.29 171.527 255.1C171.137 254.9 170.702 254.8 170.222 254.8C169.532 254.8 168.942 255.02 168.452 255.46C167.972 255.9 167.697 256.51 167.627 257.29H172.817ZM177.393 255.115C177.633 254.645 177.973 254.28 178.413 254.02C178.863 253.76 179.408 253.63 180.048 253.63V255.04H179.688C178.158 255.04 177.393 255.87 177.393 257.53V262H176.028V253.78H177.393V255.115ZM181.114 257.86C181.114 257.02 181.284 256.285 181.624 255.655C181.964 255.015 182.429 254.52 183.019 254.17C183.619 253.82 184.289 253.645 185.029 253.645C185.669 253.645 186.264 253.795 186.814 254.095C187.364 254.385 187.784 254.77 188.074 255.25V250.9H189.454V262H188.074V260.455C187.804 260.945 187.404 261.35 186.874 261.67C186.344 261.98 185.724 262.135 185.014 262.135C184.284 262.135 183.619 261.955 183.019 261.595C182.429 261.235 181.964 260.73 181.624 260.08C181.284 259.43 181.114 258.69 181.114 257.86ZM188.074 257.875C188.074 257.255 187.949 256.715 187.699 256.255C187.449 255.795 187.109 255.445 186.679 255.205C186.259 254.955 185.794 254.83 185.284 254.83C184.774 254.83 184.309 254.95 183.889 255.19C183.469 255.43 183.134 255.78 182.884 256.24C182.634 256.7 182.509 257.24 182.509 257.86C182.509 258.49 182.634 259.04 182.884 259.51C183.134 259.97 183.469 260.325 183.889 260.575C184.309 260.815 184.774 260.935 185.284 260.935C185.794 260.935 186.259 260.815 186.679 260.575C187.109 260.325 187.449 259.97 187.699 259.51C187.949 259.04 188.074 258.495 188.074 257.875ZM199.051 253.78V262H197.686V260.785C197.426 261.205 197.061 261.535 196.591 261.775C196.131 262.005 195.621 262.12 195.061 262.12C194.421 262.12 193.846 261.99 193.336 261.73C192.826 261.46 192.421 261.06 192.121 260.53C191.831 260 191.686 259.355 191.686 258.595V253.78H193.036V258.415C193.036 259.225 193.241 259.85 193.651 260.29C194.061 260.72 194.621 260.935 195.331 260.935C196.061 260.935 196.636 260.71 197.056 260.26C197.476 259.81 197.686 259.155 197.686 258.295V253.78H199.051ZM204.266 262.135C203.636 262.135 203.071 262.03 202.571 261.82C202.071 261.6 201.676 261.3 201.386 260.92C201.096 260.53 200.936 260.085 200.906 259.585H202.316C202.356 259.995 202.546 260.33 202.886 260.59C203.236 260.85 203.691 260.98 204.251 260.98C204.771 260.98 205.181 260.865 205.481 260.635C205.781 260.405 205.931 260.115 205.931 259.765C205.931 259.405 205.771 259.14 205.451 258.97C205.131 258.79 204.636 258.615 203.966 258.445C203.356 258.285 202.856 258.125 202.466 257.965C202.086 257.795 201.756 257.55 201.476 257.23C201.206 256.9 201.071 256.47 201.071 255.94C201.071 255.52 201.196 255.135 201.446 254.785C201.696 254.435 202.051 254.16 202.511 253.96C202.971 253.75 203.496 253.645 204.086 253.645C204.996 253.645 205.731 253.875 206.291 254.335C206.851 254.795 207.151 255.425 207.191 256.225H205.826C205.796 255.795 205.621 255.45 205.301 255.19C204.991 254.93 204.571 254.8 204.041 254.8C203.551 254.8 203.161 254.905 202.871 255.115C202.581 255.325 202.436 255.6 202.436 255.94C202.436 256.21 202.521 256.435 202.691 256.615C202.871 256.785 203.091 256.925 203.351 257.035C203.621 257.135 203.991 257.25 204.461 257.38C205.051 257.54 205.531 257.7 205.901 257.86C206.271 258.01 206.586 258.24 206.846 258.55C207.116 258.86 207.256 259.265 207.266 259.765C207.266 260.215 207.141 260.62 206.891 260.98C206.641 261.34 206.286 261.625 205.826 261.835C205.376 262.035 204.856 262.135 204.266 262.135ZM212.681 257.86C212.681 257.02 212.851 256.285 213.191 255.655C213.531 255.015 213.996 254.52 214.586 254.17C215.186 253.82 215.856 253.645 216.596 253.645C217.236 253.645 217.831 253.795 218.381 254.095C218.931 254.385 219.351 254.77 219.641 255.25V250.9H221.021V262H219.641V260.455C219.371 260.945 218.971 261.35 218.441 261.67C217.911 261.98 217.291 262.135 216.581 262.135C215.851 262.135 215.186 261.955 214.586 261.595C213.996 261.235 213.531 260.73 213.191 260.08C212.851 259.43 212.681 258.69 212.681 257.86ZM219.641 257.875C219.641 257.255 219.516 256.715 219.266 256.255C219.016 255.795 218.676 255.445 218.246 255.205C217.826 254.955 217.361 254.83 216.851 254.83C216.341 254.83 215.876 254.95 215.456 255.19C215.036 255.43 214.701 255.78 214.451 256.24C214.201 256.7 214.076 257.24 214.076 257.86C214.076 258.49 214.201 259.04 214.451 259.51C214.701 259.97 215.036 260.325 215.456 260.575C215.876 260.815 216.341 260.935 216.851 260.935C217.361 260.935 217.826 260.815 218.246 260.575C218.676 260.325 219.016 259.97 219.266 259.51C219.516 259.04 219.641 258.495 219.641 257.875ZM230.828 257.575C230.828 257.835 230.813 258.11 230.783 258.4H224.213C224.263 259.21 224.538 259.845 225.038 260.305C225.548 260.755 226.163 260.98 226.883 260.98C227.473 260.98 227.963 260.845 228.353 260.575C228.753 260.295 229.033 259.925 229.193 259.465H230.663C230.443 260.255 230.003 260.9 229.343 261.4C228.683 261.89 227.863 262.135 226.883 262.135C226.103 262.135 225.403 261.96 224.783 261.61C224.173 261.26 223.693 260.765 223.343 260.125C222.993 259.475 222.818 258.725 222.818 257.875C222.818 257.025 222.988 256.28 223.328 255.64C223.668 255 224.143 254.51 224.753 254.17C225.373 253.82 226.083 253.645 226.883 253.645C227.663 253.645 228.353 253.815 228.953 254.155C229.553 254.495 230.013 254.965 230.333 255.565C230.663 256.155 230.828 256.825 230.828 257.575ZM229.418 257.29C229.418 256.77 229.303 256.325 229.073 255.955C228.843 255.575 228.528 255.29 228.128 255.1C227.738 254.9 227.303 254.8 226.823 254.8C226.133 254.8 225.543 255.02 225.053 255.46C224.573 255.9 224.298 256.51 224.228 257.29H229.418ZM228.293 251.455L225.098 253.165V252.145L228.293 250.27V251.455ZM235.975 254.905H234.25V262H232.885V254.905H231.82V253.78H232.885V253.195C232.885 252.275 233.12 251.605 233.59 251.185C234.07 250.755 234.835 250.54 235.885 250.54V251.68C235.285 251.68 234.86 251.8 234.61 252.04C234.37 252.27 234.25 252.655 234.25 253.195V253.78H235.975V254.905ZM238.271 252.445C238.011 252.445 237.791 252.355 237.611 252.175C237.431 251.995 237.341 251.775 237.341 251.515C237.341 251.255 237.431 251.035 237.611 250.855C237.791 250.675 238.011 250.585 238.271 250.585C238.521 250.585 238.731 250.675 238.901 250.855C239.081 251.035 239.171 251.255 239.171 251.515C239.171 251.775 239.081 251.995 238.901 252.175C238.731 252.355 238.521 252.445 238.271 252.445ZM238.931 253.78V262H237.566V253.78H238.931ZM245.263 253.63C246.263 253.63 247.073 253.935 247.693 254.545C248.313 255.145 248.623 256.015 248.623 257.155V262H247.273V257.35C247.273 256.53 247.068 255.905 246.658 255.475C246.248 255.035 245.688 254.815 244.978 254.815C244.258 254.815 243.683 255.04 243.253 255.49C242.833 255.94 242.623 256.595 242.623 257.455V262H241.258V253.78H242.623V254.95C242.893 254.53 243.258 254.205 243.718 253.975C244.188 253.745 244.703 253.63 245.263 253.63ZM251.558 252.445C251.298 252.445 251.078 252.355 250.898 252.175C250.718 251.995 250.628 251.775 250.628 251.515C250.628 251.255 250.718 251.035 250.898 250.855C251.078 250.675 251.298 250.585 251.558 250.585C251.808 250.585 252.018 250.675 252.188 250.855C252.368 251.035 252.458 251.255 252.458 251.515C252.458 251.775 252.368 251.995 252.188 252.175C252.018 252.355 251.808 252.445 251.558 252.445ZM252.218 253.78V262H250.853V253.78H252.218ZM256.209 254.905V259.75C256.209 260.15 256.294 260.435 256.464 260.605C256.634 260.765 256.929 260.845 257.349 260.845H258.354V262H257.124C256.364 262 255.794 261.825 255.414 261.475C255.034 261.125 254.844 260.55 254.844 259.75V254.905H253.779V253.78H254.844V251.71H256.209V253.78H258.354V254.905H256.209ZM260.713 252.445C260.453 252.445 260.233 252.355 260.053 252.175C259.873 251.995 259.783 251.775 259.783 251.515C259.783 251.255 259.873 251.035 260.053 250.855C260.233 250.675 260.453 250.585 260.713 250.585C260.963 250.585 261.173 250.675 261.343 250.855C261.523 251.035 261.613 251.255 261.613 251.515C261.613 251.775 261.523 251.995 261.343 252.175C261.173 252.355 260.963 252.445 260.713 252.445ZM261.373 253.78V262H260.008V253.78H261.373ZM266.759 260.74L269.309 253.78H270.764L267.539 262H265.949L262.724 253.78H264.194L266.759 260.74ZM279.607 257.575C279.607 257.835 279.592 258.11 279.562 258.4H272.992C273.042 259.21 273.317 259.845 273.817 260.305C274.327 260.755 274.942 260.98 275.662 260.98C276.252 260.98 276.742 260.845 277.132 260.575C277.532 260.295 277.812 259.925 277.972 259.465H279.442C279.222 260.255 278.782 260.9 278.122 261.4C277.462 261.89 276.642 262.135 275.662 262.135C274.882 262.135 274.182 261.96 273.562 261.61C272.952 261.26 272.472 260.765 272.122 260.125C271.772 259.475 271.597 258.725 271.597 257.875C271.597 257.025 271.767 256.28 272.107 255.64C272.447 255 272.922 254.51 273.532 254.17C274.152 253.82 274.862 253.645 275.662 253.645C276.442 253.645 277.132 253.815 277.732 254.155C278.332 254.495 278.792 254.965 279.112 255.565C279.442 256.155 279.607 256.825 279.607 257.575ZM278.197 257.29C278.197 256.77 278.082 256.325 277.852 255.955C277.622 255.575 277.307 255.29 276.907 255.1C276.517 254.9 276.082 254.8 275.602 254.8C274.912 254.8 274.322 255.02 273.832 255.46C273.352 255.9 273.077 256.51 273.007 257.29H278.197ZM291.294 253.63C291.934 253.63 292.504 253.765 293.004 254.035C293.504 254.295 293.899 254.69 294.189 255.22C294.479 255.75 294.624 256.395 294.624 257.155V262H293.274V257.35C293.274 256.53 293.069 255.905 292.659 255.475C292.259 255.035 291.714 254.815 291.024 254.815C290.314 254.815 289.749 255.045 289.329 255.505C288.909 255.955 288.699 256.61 288.699 257.47V262H287.349V257.35C287.349 256.53 287.144 255.905 286.734 255.475C286.334 255.035 285.789 254.815 285.099 254.815C284.389 254.815 283.824 255.045 283.404 255.505C282.984 255.955 282.774 256.61 282.774 257.47V262H281.409V253.78H282.774V254.965C283.044 254.535 283.404 254.205 283.854 253.975C284.314 253.745 284.819 253.63 285.369 253.63C286.059 253.63 286.669 253.785 287.199 254.095C287.729 254.405 288.124 254.86 288.384 255.46C288.614 254.88 288.994 254.43 289.524 254.11C290.054 253.79 290.644 253.63 291.294 253.63ZM304.363 257.575C304.363 257.835 304.348 258.11 304.318 258.4H297.748C297.798 259.21 298.073 259.845 298.573 260.305C299.083 260.755 299.698 260.98 300.418 260.98C301.008 260.98 301.498 260.845 301.888 260.575C302.288 260.295 302.568 259.925 302.728 259.465H304.198C303.978 260.255 303.538 260.9 302.878 261.4C302.218 261.89 301.398 262.135 300.418 262.135C299.638 262.135 298.938 261.96 298.318 261.61C297.708 261.26 297.228 260.765 296.878 260.125C296.528 259.475 296.353 258.725 296.353 257.875C296.353 257.025 296.523 256.28 296.863 255.64C297.203 255 297.678 254.51 298.288 254.17C298.908 253.82 299.618 253.645 300.418 253.645C301.198 253.645 301.888 253.815 302.488 254.155C303.088 254.495 303.548 254.965 303.868 255.565C304.198 256.155 304.363 256.825 304.363 257.575ZM302.953 257.29C302.953 256.77 302.838 256.325 302.608 255.955C302.378 255.575 302.063 255.29 301.663 255.1C301.273 254.9 300.838 254.8 300.358 254.8C299.668 254.8 299.078 255.02 298.588 255.46C298.108 255.9 297.833 256.51 297.763 257.29H302.953ZM310.17 253.63C311.17 253.63 311.98 253.935 312.6 254.545C313.22 255.145 313.53 256.015 313.53 257.155V262H312.18V257.35C312.18 256.53 311.975 255.905 311.565 255.475C311.155 255.035 310.595 254.815 309.885 254.815C309.165 254.815 308.59 255.04 308.16 255.49C307.74 255.94 307.53 256.595 307.53 257.455V262H306.165V253.78H307.53V254.95C307.8 254.53 308.165 254.205 308.625 253.975C309.095 253.745 309.61 253.63 310.17 253.63ZM317.425 254.905V259.75C317.425 260.15 317.51 260.435 317.68 260.605C317.85 260.765 318.145 260.845 318.565 260.845H319.57V262H318.34C317.58 262 317.01 261.825 316.63 261.475C316.25 261.125 316.06 260.55 316.06 259.75V254.905H314.995V253.78H316.06V251.71H317.425V253.78H319.57V254.905H317.425ZM321.659 262.09C321.399 262.09 321.179 262 320.999 261.82C320.819 261.64 320.729 261.42 320.729 261.16C320.729 260.9 320.819 260.68 320.999 260.5C321.179 260.32 321.399 260.23 321.659 260.23C321.909 260.23 322.119 260.32 322.289 260.5C322.469 260.68 322.559 260.9 322.559 261.16C322.559 261.42 322.469 261.64 322.289 261.82C322.119 262 321.909 262.09 321.659 262.09Z" fill="#383838"/>
<g filter="url(#filter1_d_132_670)">
<rect x="58" y="306" width="362.653" height="54.2115" rx="27.1058" fill="#B51717" shape-rendering="crispEdges"/>
<path d="M204.008 338.708C203.259 338.708 202.587 338.586 201.994 338.343C201.4 338.1 200.923 337.74 200.563 337.263C200.213 336.786 200.028 336.212 200.009 335.541H202.665C202.704 335.92 202.835 336.212 203.059 336.416C203.283 336.611 203.575 336.708 203.935 336.708C204.305 336.708 204.597 336.626 204.811 336.46C205.025 336.285 205.132 336.047 205.132 335.745C205.132 335.492 205.044 335.283 204.869 335.117C204.704 334.952 204.494 334.816 204.241 334.709C203.998 334.602 203.648 334.48 203.191 334.344C202.529 334.14 201.989 333.935 201.571 333.731C201.152 333.527 200.792 333.225 200.49 332.826C200.189 332.427 200.038 331.906 200.038 331.264C200.038 330.311 200.383 329.566 201.074 329.031C201.765 328.486 202.665 328.214 203.774 328.214C204.903 328.214 205.813 328.486 206.504 329.031C207.195 329.566 207.564 330.316 207.613 331.279H204.913C204.893 330.948 204.772 330.69 204.548 330.505C204.324 330.311 204.037 330.213 203.687 330.213C203.385 330.213 203.142 330.296 202.957 330.461C202.772 330.617 202.68 330.846 202.68 331.147C202.68 331.478 202.835 331.736 203.147 331.921C203.458 332.106 203.945 332.305 204.606 332.519C205.268 332.743 205.803 332.957 206.212 333.162C206.63 333.366 206.99 333.663 207.292 334.052C207.594 334.441 207.744 334.942 207.744 335.555C207.744 336.139 207.594 336.669 207.292 337.146C207 337.623 206.572 338.002 206.008 338.285C205.443 338.567 204.777 338.708 204.008 338.708ZM217.322 330.461V338.606H214.827V337.496C214.574 337.856 214.228 338.148 213.79 338.372C213.362 338.586 212.885 338.693 212.36 338.693C211.737 338.693 211.187 338.557 210.711 338.285C210.234 338.002 209.864 337.599 209.601 337.073C209.339 336.548 209.207 335.93 209.207 335.22V330.461H211.689V334.884C211.689 335.429 211.83 335.852 212.112 336.154C212.394 336.455 212.773 336.606 213.25 336.606C213.737 336.606 214.121 336.455 214.403 336.154C214.685 335.852 214.827 335.429 214.827 334.884V330.461H217.322ZM221.611 331.615C221.854 331.235 222.19 330.929 222.618 330.695C223.046 330.461 223.547 330.345 224.121 330.345C224.793 330.345 225.401 330.515 225.946 330.856C226.491 331.196 226.919 331.683 227.23 332.315C227.551 332.948 227.712 333.682 227.712 334.519C227.712 335.356 227.551 336.095 227.23 336.738C226.919 337.37 226.491 337.861 225.946 338.212C225.401 338.552 224.793 338.722 224.121 338.722C223.557 338.722 223.056 338.606 222.618 338.372C222.19 338.139 221.854 337.837 221.611 337.467V342.488H219.115V330.461H221.611V331.615ZM225.172 334.519C225.172 333.896 224.997 333.41 224.647 333.059C224.306 332.699 223.883 332.519 223.377 332.519C222.881 332.519 222.457 332.699 222.107 333.059C221.767 333.419 221.596 333.911 221.596 334.534C221.596 335.156 221.767 335.648 222.107 336.008C222.457 336.368 222.881 336.548 223.377 336.548C223.873 336.548 224.296 336.368 224.647 336.008C224.997 335.638 225.172 335.142 225.172 334.519ZM231.517 331.615C231.76 331.235 232.096 330.929 232.524 330.695C232.952 330.461 233.453 330.345 234.027 330.345C234.699 330.345 235.307 330.515 235.852 330.856C236.397 331.196 236.825 331.683 237.136 332.315C237.457 332.948 237.618 333.682 237.618 334.519C237.618 335.356 237.457 336.095 237.136 336.738C236.825 337.37 236.397 337.861 235.852 338.212C235.307 338.552 234.699 338.722 234.027 338.722C233.463 338.722 232.962 338.606 232.524 338.372C232.096 338.139 231.76 337.837 231.517 337.467V342.488H229.021V330.461H231.517V331.615ZM235.078 334.519C235.078 333.896 234.903 333.41 234.553 333.059C234.212 332.699 233.789 332.519 233.283 332.519C232.787 332.519 232.364 332.699 232.013 333.059C231.673 333.419 231.502 333.911 231.502 334.534C231.502 335.156 231.673 335.648 232.013 336.008C232.364 336.368 232.787 336.548 233.283 336.548C233.779 336.548 234.203 336.368 234.553 336.008C234.903 335.638 235.078 335.142 235.078 334.519ZM241.423 331.819C241.715 331.371 242.08 331.021 242.518 330.768C242.956 330.505 243.442 330.374 243.977 330.374V333.016H243.291C242.669 333.016 242.201 333.152 241.89 333.424C241.579 333.687 241.423 334.154 241.423 334.826V338.606H238.927V330.461H241.423V331.819ZM246.425 329.615C245.988 329.615 245.628 329.488 245.345 329.235C245.073 328.973 244.937 328.652 244.937 328.272C244.937 327.883 245.073 327.562 245.345 327.309C245.628 327.046 245.988 326.915 246.425 326.915C246.854 326.915 247.204 327.046 247.476 327.309C247.758 327.562 247.9 327.883 247.9 328.272C247.9 328.652 247.758 328.973 247.476 329.235C247.204 329.488 246.854 329.615 246.425 329.615ZM247.666 330.461V338.606H245.17V330.461H247.666ZM259.867 330.374C260.879 330.374 261.681 330.68 262.275 331.293C262.878 331.906 263.18 332.758 263.18 333.848V338.606H260.699V334.183C260.699 333.658 260.557 333.254 260.275 332.972C260.003 332.68 259.623 332.534 259.137 332.534C258.65 332.534 258.266 332.68 257.984 332.972C257.711 333.254 257.575 333.658 257.575 334.183V338.606H255.094V334.183C255.094 333.658 254.953 333.254 254.671 332.972C254.398 332.68 254.019 332.534 253.532 332.534C253.046 332.534 252.661 332.68 252.379 332.972C252.107 333.254 251.97 333.658 251.97 334.183V338.606H249.475V330.461H251.97V331.483C252.223 331.143 252.554 330.875 252.963 330.68C253.372 330.476 253.834 330.374 254.35 330.374C254.963 330.374 255.507 330.505 255.984 330.768C256.471 331.031 256.85 331.405 257.123 331.892C257.405 331.444 257.789 331.079 258.276 330.797C258.762 330.515 259.293 330.374 259.867 330.374ZM272.602 334.402C272.602 334.636 272.588 334.879 272.559 335.132H266.91C266.949 335.638 267.11 336.027 267.392 336.3C267.684 336.562 268.039 336.694 268.457 336.694C269.08 336.694 269.513 336.431 269.756 335.906H272.413C272.277 336.441 272.028 336.922 271.668 337.351C271.318 337.779 270.875 338.114 270.34 338.358C269.805 338.601 269.207 338.722 268.545 338.722C267.747 338.722 267.037 338.552 266.414 338.212C265.791 337.871 265.305 337.385 264.954 336.752C264.604 336.12 264.429 335.38 264.429 334.534C264.429 333.687 264.599 332.948 264.94 332.315C265.29 331.683 265.777 331.196 266.399 330.856C267.022 330.515 267.737 330.345 268.545 330.345C269.333 330.345 270.034 330.51 270.647 330.841C271.26 331.172 271.736 331.644 272.077 332.257C272.427 332.87 272.602 333.585 272.602 334.402ZM270.048 333.745C270.048 333.317 269.902 332.977 269.61 332.724C269.319 332.471 268.954 332.344 268.516 332.344C268.097 332.344 267.742 332.466 267.45 332.709C267.168 332.952 266.993 333.298 266.925 333.745H270.048ZM276.415 331.819C276.707 331.371 277.072 331.021 277.51 330.768C277.947 330.505 278.434 330.374 278.969 330.374V333.016H278.283C277.66 333.016 277.193 333.152 276.882 333.424C276.571 333.687 276.415 334.154 276.415 334.826V338.606H273.919V330.461H276.415V331.819Z" fill="white"/>
</g>
<g filter="url(#filter2_d_132_670)">
<rect x="58" y="397.211" width="362.653" height="54.2115" rx="27.1058" fill="black" shape-rendering="crispEdges"/>
<path d="M208.013 429.817L205.882 425.949H205.284V429.817H202.788V419.571H206.977C207.784 419.571 208.47 419.712 209.035 419.994C209.609 420.277 210.037 420.666 210.319 421.162C210.601 421.649 210.742 422.193 210.742 422.797C210.742 423.478 210.548 424.086 210.159 424.621C209.779 425.156 209.215 425.536 208.466 425.76L210.83 429.817H208.013ZM205.284 424.183H206.831C207.288 424.183 207.629 424.071 207.853 423.848C208.086 423.624 208.203 423.308 208.203 422.899C208.203 422.51 208.086 422.203 207.853 421.979C207.629 421.756 207.288 421.644 206.831 421.644H205.284V424.183ZM219.986 425.614C219.986 425.847 219.972 426.09 219.943 426.343H214.294C214.333 426.849 214.494 427.239 214.776 427.511C215.068 427.774 215.423 427.905 215.841 427.905C216.464 427.905 216.897 427.642 217.14 427.117H219.797C219.66 427.652 219.412 428.134 219.052 428.562C218.702 428.99 218.259 429.326 217.724 429.569C217.189 429.812 216.59 429.934 215.929 429.934C215.131 429.934 214.421 429.764 213.798 429.423C213.175 429.083 212.689 428.596 212.338 427.964C211.988 427.331 211.813 426.592 211.813 425.745C211.813 424.898 211.983 424.159 212.324 423.527C212.674 422.894 213.161 422.408 213.783 422.067C214.406 421.726 215.121 421.556 215.929 421.556C216.717 421.556 217.418 421.722 218.031 422.052C218.644 422.383 219.12 422.855 219.461 423.468C219.811 424.081 219.986 424.796 219.986 425.614ZM217.432 424.957C217.432 424.529 217.286 424.188 216.994 423.935C216.702 423.682 216.337 423.556 215.9 423.556C215.481 423.556 215.126 423.677 214.834 423.921C214.552 424.164 214.377 424.509 214.309 424.957H217.432ZM225.842 427.701V429.817H224.572C223.667 429.817 222.962 429.598 222.456 429.16C221.95 428.713 221.697 427.988 221.697 426.986V423.745H220.705V421.673H221.697V419.688H224.193V421.673H225.828V423.745H224.193V427.015C224.193 427.258 224.251 427.433 224.368 427.54C224.485 427.647 224.679 427.701 224.952 427.701H225.842ZM230.94 429.934C230.142 429.934 229.422 429.764 228.779 429.423C228.147 429.083 227.646 428.596 227.276 427.964C226.916 427.331 226.736 426.592 226.736 425.745C226.736 424.908 226.921 424.174 227.291 423.541C227.661 422.899 228.166 422.408 228.809 422.067C229.451 421.726 230.171 421.556 230.969 421.556C231.767 421.556 232.487 421.726 233.129 422.067C233.771 422.408 234.277 422.899 234.647 423.541C235.017 424.174 235.201 424.908 235.201 425.745C235.201 426.582 235.012 427.321 234.632 427.964C234.262 428.596 233.752 429.083 233.1 429.423C232.458 429.764 231.737 429.934 230.94 429.934ZM230.94 427.774C231.416 427.774 231.82 427.599 232.151 427.248C232.492 426.898 232.662 426.397 232.662 425.745C232.662 425.093 232.496 424.592 232.166 424.242C231.845 423.891 231.446 423.716 230.969 423.716C230.482 423.716 230.078 423.891 229.757 424.242C229.436 424.582 229.276 425.083 229.276 425.745C229.276 426.397 229.431 426.898 229.743 427.248C230.064 427.599 230.463 427.774 230.94 427.774ZM244.568 421.673V429.817H242.072V428.708C241.819 429.068 241.473 429.36 241.036 429.584C240.607 429.798 240.131 429.905 239.605 429.905C238.982 429.905 238.433 429.768 237.956 429.496C237.479 429.214 237.109 428.81 236.847 428.285C236.584 427.759 236.453 427.141 236.453 426.431V421.673H238.934V426.095C238.934 426.64 239.075 427.063 239.357 427.365C239.639 427.667 240.019 427.818 240.496 427.818C240.982 427.818 241.366 427.667 241.649 427.365C241.931 427.063 242.072 426.64 242.072 426.095V421.673H244.568ZM248.856 423.03C249.148 422.583 249.513 422.232 249.951 421.979C250.389 421.717 250.875 421.585 251.41 421.585V424.227H250.724C250.102 424.227 249.635 424.363 249.323 424.636C249.012 424.898 248.856 425.366 248.856 426.037V429.817H246.36V421.673H248.856V423.03ZM257.566 421.585C258.519 421.585 259.278 421.897 259.843 422.519C260.417 423.132 260.704 423.979 260.704 425.059V429.817H258.223V425.395C258.223 424.85 258.081 424.427 257.799 424.125C257.517 423.823 257.138 423.672 256.661 423.672C256.184 423.672 255.805 423.823 255.522 424.125C255.24 424.427 255.099 424.85 255.099 425.395V429.817H252.603V421.673H255.099V422.753C255.352 422.393 255.693 422.111 256.121 421.906C256.549 421.692 257.031 421.585 257.566 421.585ZM270.115 425.614C270.115 425.847 270.101 426.09 270.071 426.343H264.423C264.462 426.849 264.623 427.239 264.905 427.511C265.197 427.774 265.552 427.905 265.97 427.905C266.593 427.905 267.026 427.642 267.269 427.117H269.926C269.789 427.652 269.541 428.134 269.181 428.562C268.831 428.99 268.388 429.326 267.853 429.569C267.318 429.812 266.719 429.934 266.058 429.934C265.26 429.934 264.55 429.764 263.927 429.423C263.304 429.083 262.818 428.596 262.467 427.964C262.117 427.331 261.942 426.592 261.942 425.745C261.942 424.898 262.112 424.159 262.453 423.527C262.803 422.894 263.289 422.408 263.912 422.067C264.535 421.726 265.25 421.556 266.058 421.556C266.846 421.556 267.546 421.722 268.159 422.052C268.772 422.383 269.249 422.855 269.59 423.468C269.94 424.081 270.115 424.796 270.115 425.614ZM267.561 424.957C267.561 424.529 267.415 424.188 267.123 423.935C266.831 423.682 266.466 423.556 266.029 423.556C265.61 423.556 265.255 423.677 264.963 423.921C264.681 424.164 264.506 424.509 264.438 424.957H267.561ZM273.928 423.03C274.22 422.583 274.585 422.232 275.022 421.979C275.46 421.717 275.947 421.585 276.482 421.585V424.227H275.796C275.173 424.227 274.706 424.363 274.395 424.636C274.083 424.898 273.928 425.366 273.928 426.037V429.817H271.432V421.673H273.928V423.03Z" fill="white"/>
</g>
<defs>
<filter id="filter0_d_132_670" x="0.0887451" y="0.681152" width="478" height="496.749" filterUnits="userSpaceOnUse" color-interpolation-filters="sRGB">
<feFlood flood-opacity="0" result="BackgroundImageFix"/>
<feColorMatrix in="SourceAlpha" type="matrix" values="0 0 0 0 0 0 0 0 0 0 0 0 0 0 0 0 0 0 127 0" result="hardAlpha"/>
<feOffset dy="-14"/>
<feGaussianBlur stdDeviation="12"/>
<feComposite in2="hardAlpha" operator="out"/>
<feColorMatrix type="matrix" values="0 0 0 0 0 0 0 0 0 0 0 0 0 0 0 0 0 0 0.25 0"/>
<feBlend mode="normal" in2="BackgroundImageFix" result="effect1_dropShadow_132_670"/>
<feBlend mode="normal" in="SourceGraphic" in2="effect1_dropShadow_132_670" result="shape"/>
</filter>
<filter id="filter1_d_132_670" x="55.9149" y="304.957" width="366.823" height="58.3815" filterUnits="userSpaceOnUse" color-interpolation-filters="sRGB">
<feFlood flood-opacity="0" result="BackgroundImageFix"/>
<feColorMatrix in="SourceAlpha" type="matrix" values="0 0 0 0 0 0 0 0 0 0 0 0 0 0 0 0 0 0 127 0" result="hardAlpha"/>
<feOffset dy="1.04253"/>
<feGaussianBlur stdDeviation="1.04253"/>
<feComposite in2="hardAlpha" operator="out"/>
<feColorMatrix type="matrix" values="0 0 0 0 0 0 0 0 0 0 0 0 0 0 0 0 0 0 0.2 0"/>
<feBlend mode="normal" in2="BackgroundImageFix" result="effect1_dropShadow_132_670"/>
<feBlend mode="normal" in="SourceGraphic" in2="effect1_dropShadow_132_670" result="shape"/>
</filter>
<filter id="filter2_d_132_670" x="55.9149" y="396.169" width="366.823" height="58.3815" filterUnits="userSpaceOnUse" color-interpolation-filters="sRGB">
<feFlood flood-opacity="0" result="BackgroundImageFix"/>
<feColorMatrix in="SourceAlpha" type="matrix" values="0 0 0 0 0 0 0 0 0 0 0 0 0 0 0 0 0 0 127 0" result="hardAlpha"/>
<feOffset dy="1.04253"/>
<feGaussianBlur stdDeviation="1.04253"/>
<feComposite in2="hardAlpha" operator="out"/>
<feColorMatrix type="matrix" values="0 0 0 0 0 0 0 0 0 0 0 0 0 0 0 0 0 0 0.2 0"/>
<feBlend mode="normal" in2="BackgroundImageFix" result="effect1_dropShadow_132_670"/>
<feBlend mode="normal" in="SourceGraphic" in2="effect1_dropShadow_132_670" result="shape"/>
</filter>
</defs>
</svg>
