<svg width="436" height="119" viewBox="0 0 436 119" fill="none" xmlns="http://www.w3.org/2000/svg">
<g filter="url(#filter0_d_132_791)">
<rect x="24.1616" y="24.8386" width="387.677" height="69.8883" rx="13.5236" fill="white"/>
</g>
<path d="M73.2458 59.2546C73.2458 58.1666 73.4965 57.1906 73.9978 56.3266C74.5098 55.4626 75.1978 54.7906 76.0618 54.3106C76.9365 53.82 77.8911 53.5746 78.9258 53.5746C80.1098 53.5746 81.1605 53.868 82.0778 54.4546C83.0058 55.0306 83.6778 55.852 84.0938 56.9186H81.9018C81.6138 56.332 81.2138 55.8946 80.7018 55.6066C80.1898 55.3186 79.5978 55.1746 78.9258 55.1746C78.1898 55.1746 77.5338 55.34 76.9578 55.6706C76.3818 56.0013 75.9285 56.476 75.5978 57.0946C75.2778 57.7133 75.1178 58.4333 75.1178 59.2546C75.1178 60.076 75.2778 60.796 75.5978 61.4146C75.9285 62.0333 76.3818 62.5133 76.9578 62.8546C77.5338 63.1853 78.1898 63.3506 78.9258 63.3506C79.5978 63.3506 80.1898 63.2066 80.7018 62.9186C81.2138 62.6306 81.6138 62.1933 81.9018 61.6066H84.0938C83.6778 62.6733 83.0058 63.4946 82.0778 64.0706C81.1605 64.6466 80.1098 64.9346 78.9258 64.9346C77.8805 64.9346 76.9258 64.6946 76.0618 64.2146C75.1978 63.724 74.5098 63.0466 73.9978 62.1826C73.4965 61.3186 73.2458 60.3426 73.2458 59.2546ZM90.7888 55.8786C91.4608 55.8786 92.0581 56.0226 92.5808 56.3106C93.1141 56.5986 93.5301 57.0253 93.8288 57.5906C94.1381 58.156 94.2928 58.8386 94.2928 59.6386V64.8386H92.4848V59.9106C92.4848 59.1213 92.2875 58.5186 91.8928 58.1026C91.4981 57.676 90.9595 57.4626 90.2768 57.4626C89.5941 57.4626 89.0501 57.676 88.6448 58.1026C88.2501 58.5186 88.0528 59.1213 88.0528 59.9106V64.8386H86.2288V52.9986H88.0528V57.0466C88.3621 56.6733 88.7515 56.3853 89.2208 56.1826C89.7008 55.98 90.2235 55.8786 90.7888 55.8786ZM96.0114 60.3906C96.0114 59.5053 96.1928 58.7213 96.5554 58.0386C96.9288 57.356 97.4301 56.828 98.0594 56.4546C98.6994 56.0706 99.4034 55.8786 100.171 55.8786C100.865 55.8786 101.467 56.0173 101.979 56.2946C102.502 56.5613 102.918 56.8973 103.227 57.3026V56.0226H105.067V64.8386H103.227V63.5266C102.918 63.9426 102.497 64.2893 101.963 64.5666C101.43 64.844 100.822 64.9826 100.139 64.9826C99.3821 64.9826 98.6888 64.7906 98.0594 64.4066C97.4301 64.012 96.9288 63.468 96.5554 62.7746C96.1928 62.0706 96.0114 61.276 96.0114 60.3906ZM103.227 60.4226C103.227 59.8146 103.099 59.2866 102.843 58.8386C102.598 58.3906 102.273 58.0493 101.867 57.8146C101.462 57.58 101.025 57.4626 100.555 57.4626C100.086 57.4626 99.6488 57.58 99.2434 57.8146C98.8381 58.0386 98.5074 58.3746 98.2514 58.8226C98.0061 59.26 97.8834 59.7826 97.8834 60.3906C97.8834 60.9986 98.0061 61.532 98.2514 61.9906C98.5074 62.4493 98.8381 62.8013 99.2434 63.0466C99.6594 63.2813 100.097 63.3986 100.555 63.3986C101.025 63.3986 101.462 63.2813 101.867 63.0466C102.273 62.812 102.598 62.4706 102.843 62.0226C103.099 61.564 103.227 61.0306 103.227 60.4226ZM109.287 57.3026C109.554 56.8546 109.906 56.508 110.343 56.2626C110.791 56.0066 111.319 55.8786 111.927 55.8786V57.7666H111.463C110.749 57.7666 110.205 57.948 109.831 58.3106C109.469 58.6733 109.287 59.3026 109.287 60.1986V64.8386H107.463V56.0226H109.287V57.3026ZM114.532 54.8546C114.201 54.8546 113.924 54.7426 113.7 54.5186C113.476 54.2946 113.364 54.0173 113.364 53.6866C113.364 53.356 113.476 53.0786 113.7 52.8546C113.924 52.6306 114.201 52.5186 114.532 52.5186C114.852 52.5186 115.124 52.6306 115.348 52.8546C115.572 53.0786 115.684 53.356 115.684 53.6866C115.684 54.0173 115.572 54.2946 115.348 54.5186C115.124 54.7426 114.852 54.8546 114.532 54.8546ZM115.428 56.0226V64.8386H113.604V56.0226H115.428ZM121.647 64.9826C120.815 64.9826 120.063 64.796 119.391 64.4226C118.719 64.0386 118.191 63.5053 117.807 62.8226C117.423 62.1293 117.231 61.3293 117.231 60.4226C117.231 59.5266 117.428 58.732 117.823 58.0386C118.217 57.3453 118.756 56.812 119.439 56.4386C120.121 56.0653 120.884 55.8786 121.727 55.8786C122.569 55.8786 123.332 56.0653 124.015 56.4386C124.697 56.812 125.236 57.3453 125.631 58.0386C126.025 58.732 126.223 59.5266 126.223 60.4226C126.223 61.3186 126.02 62.1133 125.615 62.8066C125.209 63.5 124.655 64.0386 123.951 64.4226C123.257 64.796 122.489 64.9826 121.647 64.9826ZM121.647 63.3986C122.116 63.3986 122.553 63.2866 122.959 63.0626C123.375 62.8386 123.711 62.5026 123.967 62.0546C124.223 61.6066 124.351 61.0626 124.351 60.4226C124.351 59.7826 124.228 59.244 123.983 58.8066C123.737 58.3586 123.412 58.0226 123.007 57.7986C122.601 57.5746 122.164 57.4626 121.695 57.4626C121.225 57.4626 120.788 57.5746 120.383 57.7986C119.988 58.0226 119.673 58.3586 119.439 58.8066C119.204 59.244 119.087 59.7826 119.087 60.4226C119.087 61.372 119.327 62.108 119.807 62.6306C120.297 63.1426 120.911 63.3986 121.647 63.3986ZM130.154 57.5106V62.3906C130.154 62.7213 130.228 62.9613 130.378 63.1106C130.538 63.2493 130.804 63.3186 131.178 63.3186H132.298V64.8386H130.858C130.036 64.8386 129.407 64.6466 128.97 64.2626C128.532 63.8786 128.314 63.2546 128.314 62.3906V57.5106H127.274V56.0226H128.314V53.8306H130.154V56.0226H132.298V57.5106H130.154ZM137.527 60.3906C137.527 59.5053 137.708 58.7213 138.071 58.0386C138.444 57.356 138.946 56.828 139.575 56.4546C140.215 56.0706 140.919 55.8786 141.687 55.8786C142.38 55.8786 142.983 56.0173 143.495 56.2946C144.018 56.5613 144.434 56.8973 144.743 57.3026V56.0226H146.583V64.8386H144.743V63.5266C144.434 63.9426 144.012 64.2893 143.479 64.5666C142.946 64.844 142.338 64.9826 141.655 64.9826C140.898 64.9826 140.204 64.7906 139.575 64.4066C138.946 64.012 138.444 63.468 138.071 62.7746C137.708 62.0706 137.527 61.276 137.527 60.3906ZM144.743 60.4226C144.743 59.8146 144.615 59.2866 144.359 58.8386C144.114 58.3906 143.788 58.0493 143.383 57.8146C142.978 57.58 142.54 57.4626 142.071 57.4626C141.602 57.4626 141.164 57.58 140.759 57.8146C140.354 58.0386 140.023 58.3746 139.767 58.8226C139.522 59.26 139.399 59.7826 139.399 60.3906C139.399 60.9986 139.522 61.532 139.767 61.9906C140.023 62.4493 140.354 62.8013 140.759 63.0466C141.175 63.2813 141.612 63.3986 142.071 63.3986C142.54 63.3986 142.978 63.2813 143.383 63.0466C143.788 62.812 144.114 62.4706 144.359 62.0226C144.615 61.564 144.743 61.0306 144.743 60.4226ZM161.215 60.2146C161.215 60.5453 161.194 60.844 161.151 61.1106H154.415C154.468 61.8146 154.73 62.38 155.199 62.8066C155.668 63.2333 156.244 63.4466 156.927 63.4466C157.908 63.4466 158.602 63.036 159.007 62.2146H160.975C160.708 63.0253 160.223 63.692 159.519 64.2146C158.826 64.7266 157.962 64.9826 156.927 64.9826C156.084 64.9826 155.327 64.796 154.655 64.4226C153.994 64.0386 153.471 63.5053 153.087 62.8226C152.714 62.1293 152.527 61.3293 152.527 60.4226C152.527 59.516 152.708 58.7213 153.071 58.0386C153.444 57.3453 153.962 56.812 154.623 56.4386C155.295 56.0653 156.063 55.8786 156.927 55.8786C157.759 55.8786 158.5 56.06 159.151 56.4226C159.802 56.7853 160.308 57.2973 160.671 57.9586C161.034 58.6093 161.215 59.3613 161.215 60.2146ZM159.311 59.6386C159.3 58.9666 159.06 58.428 158.591 58.0226C158.122 57.6173 157.54 57.4146 156.847 57.4146C156.218 57.4146 155.679 57.6173 155.231 58.0226C154.783 58.4173 154.516 58.956 154.431 59.6386H159.311ZM158.527 53.6546L154.991 55.3986V54.0546L158.527 52.1026V53.6546ZM165.138 57.5106V62.3906C165.138 62.7213 165.213 62.9613 165.362 63.1106C165.522 63.2493 165.789 63.3186 166.162 63.3186H167.282V64.8386H165.842C165.021 64.8386 164.391 64.6466 163.954 64.2626C163.517 63.8786 163.298 63.2546 163.298 62.3906V57.5106H162.258V56.0226H163.298V53.8306H165.138V56.0226H167.282V57.5106H165.138ZM177.043 60.2146C177.043 60.5453 177.022 60.844 176.979 61.1106H170.243C170.297 61.8146 170.558 62.38 171.027 62.8066C171.497 63.2333 172.073 63.4466 172.755 63.4466C173.737 63.4466 174.43 63.036 174.835 62.2146H176.803C176.537 63.0253 176.051 63.692 175.347 64.2146C174.654 64.7266 173.79 64.9826 172.755 64.9826C171.913 64.9826 171.155 64.796 170.483 64.4226C169.822 64.0386 169.299 63.5053 168.915 62.8226C168.542 62.1293 168.355 61.3293 168.355 60.4226C168.355 59.516 168.537 58.7213 168.899 58.0386C169.273 57.3453 169.79 56.812 170.451 56.4386C171.123 56.0653 171.891 55.8786 172.755 55.8786C173.587 55.8786 174.329 56.06 174.979 56.4226C175.63 56.7853 176.137 57.2973 176.499 57.9586C176.862 58.6093 177.043 59.3613 177.043 60.2146ZM175.139 59.6386C175.129 58.9666 174.889 58.428 174.419 58.0226C173.95 57.6173 173.369 57.4146 172.675 57.4146C172.046 57.4146 171.507 57.6173 171.059 58.0226C170.611 58.4173 170.345 58.956 170.259 59.6386H175.139ZM174.355 53.6546L170.819 55.3986V54.0546L174.355 52.1026V53.6546ZM186.194 64.9826C185.501 64.9826 184.877 64.86 184.322 64.6146C183.778 64.3586 183.346 64.0173 183.026 63.5906C182.706 63.1533 182.536 62.668 182.514 62.1346H184.402C184.434 62.508 184.61 62.8226 184.93 63.0786C185.261 63.324 185.672 63.4466 186.162 63.4466C186.674 63.4466 187.069 63.3506 187.346 63.1586C187.634 62.956 187.778 62.7 187.778 62.3906C187.778 62.06 187.618 61.8146 187.298 61.6546C186.989 61.4946 186.493 61.3186 185.81 61.1266C185.149 60.9453 184.61 60.7693 184.194 60.5986C183.778 60.428 183.416 60.1666 183.106 59.8146C182.808 59.4626 182.658 58.9986 182.658 58.4226C182.658 57.9533 182.797 57.5266 183.074 57.1426C183.352 56.748 183.746 56.4386 184.258 56.2146C184.781 55.9906 185.378 55.8786 186.05 55.8786C187.053 55.8786 187.858 56.1346 188.466 56.6466C189.085 57.148 189.416 57.836 189.458 58.7106H187.634C187.602 58.316 187.442 58.0013 187.154 57.7666C186.866 57.532 186.477 57.4146 185.986 57.4146C185.506 57.4146 185.138 57.5053 184.882 57.6866C184.626 57.868 184.498 58.108 184.498 58.4066C184.498 58.6413 184.584 58.8386 184.754 58.9986C184.925 59.1586 185.133 59.2866 185.378 59.3826C185.624 59.468 185.986 59.58 186.466 59.7186C187.106 59.8893 187.629 60.0653 188.034 60.2466C188.45 60.4173 188.808 60.6733 189.106 61.0146C189.405 61.356 189.56 61.8093 189.57 62.3746C189.57 62.876 189.432 63.324 189.154 63.7186C188.877 64.1133 188.482 64.4226 187.97 64.6466C187.469 64.8706 186.877 64.9826 186.194 64.9826ZM199.525 56.0226V64.8386H197.701V63.7986C197.413 64.1613 197.035 64.4493 196.565 64.6626C196.107 64.8653 195.616 64.9666 195.093 64.9666C194.4 64.9666 193.776 64.8226 193.221 64.5346C192.677 64.2466 192.245 63.82 191.925 63.2546C191.616 62.6893 191.461 62.0066 191.461 61.2066V56.0226H193.269V60.9346C193.269 61.724 193.467 62.332 193.861 62.7586C194.256 63.1746 194.795 63.3826 195.477 63.3826C196.16 63.3826 196.699 63.1746 197.093 62.7586C197.499 62.332 197.701 61.724 197.701 60.9346V56.0226H199.525ZM203.756 57.3186C204.065 56.9133 204.487 56.572 205.02 56.2946C205.553 56.0173 206.156 55.8786 206.828 55.8786C207.596 55.8786 208.295 56.0706 208.924 56.4546C209.564 56.828 210.065 57.356 210.428 58.0386C210.791 58.7213 210.972 59.5053 210.972 60.3906C210.972 61.276 210.791 62.0706 210.428 62.7746C210.065 63.468 209.564 64.012 208.924 64.4066C208.295 64.7906 207.596 64.9826 206.828 64.9826C206.156 64.9826 205.559 64.8493 205.036 64.5826C204.513 64.3053 204.087 63.964 203.756 63.5586V69.0306H201.932V56.0226H203.756V57.3186ZM209.116 60.3906C209.116 59.7826 208.988 59.26 208.732 58.8226C208.487 58.3746 208.156 58.0386 207.74 57.8146C207.335 57.58 206.897 57.4626 206.428 57.4626C205.969 57.4626 205.532 57.58 205.116 57.8146C204.711 58.0493 204.38 58.3906 204.124 58.8386C203.879 59.2866 203.756 59.8146 203.756 60.4226C203.756 61.0306 203.879 61.564 204.124 62.0226C204.38 62.4706 204.711 62.812 205.116 63.0466C205.532 63.2813 205.969 63.3986 206.428 63.3986C206.897 63.3986 207.335 63.2813 207.74 63.0466C208.156 62.8013 208.487 62.4493 208.732 61.9906C208.988 61.532 209.116 60.9986 209.116 60.3906ZM214.6 57.3186C214.909 56.9133 215.33 56.572 215.864 56.2946C216.397 56.0173 217 55.8786 217.672 55.8786C218.44 55.8786 219.138 56.0706 219.768 56.4546C220.408 56.828 220.909 57.356 221.272 58.0386C221.634 58.7213 221.816 59.5053 221.816 60.3906C221.816 61.276 221.634 62.0706 221.272 62.7746C220.909 63.468 220.408 64.012 219.768 64.4066C219.138 64.7906 218.44 64.9826 217.672 64.9826C217 64.9826 216.402 64.8493 215.88 64.5826C215.357 64.3053 214.93 63.964 214.6 63.5586V69.0306H212.776V56.0226H214.6V57.3186ZM219.96 60.3906C219.96 59.7826 219.832 59.26 219.576 58.8226C219.33 58.3746 219 58.0386 218.584 57.8146C218.178 57.58 217.741 57.4626 217.272 57.4626C216.813 57.4626 216.376 57.58 215.96 57.8146C215.554 58.0493 215.224 58.3906 214.968 58.8386C214.722 59.2866 214.6 59.8146 214.6 60.4226C214.6 61.0306 214.722 61.564 214.968 62.0226C215.224 62.4706 215.554 62.812 215.96 63.0466C216.376 63.2813 216.813 63.3986 217.272 63.3986C217.741 63.3986 218.178 63.2813 218.584 63.0466C219 62.8013 219.33 62.4493 219.576 61.9906C219.832 61.532 219.96 60.9986 219.96 60.3906ZM225.443 57.3026C225.71 56.8546 226.062 56.508 226.499 56.2626C226.947 56.0066 227.475 55.8786 228.083 55.8786V57.7666H227.619C226.905 57.7666 226.361 57.948 225.987 58.3106C225.625 58.6733 225.443 59.3026 225.443 60.1986V64.8386H223.619V56.0226H225.443V57.3026ZM230.688 54.8546C230.357 54.8546 230.08 54.7426 229.856 54.5186C229.632 54.2946 229.52 54.0173 229.52 53.6866C229.52 53.356 229.632 53.0786 229.856 52.8546C230.08 52.6306 230.357 52.5186 230.688 52.5186C231.008 52.5186 231.28 52.6306 231.504 52.8546C231.728 53.0786 231.84 53.356 231.84 53.6866C231.84 54.0173 231.728 54.2946 231.504 54.5186C231.28 54.7426 231.008 54.8546 230.688 54.8546ZM231.584 56.0226V64.8386H229.76V56.0226H231.584ZM244.651 55.8786C245.344 55.8786 245.963 56.0226 246.507 56.3106C247.061 56.5986 247.493 57.0253 247.803 57.5906C248.123 58.156 248.283 58.8386 248.283 59.6386V64.8386H246.475V59.9106C246.475 59.1213 246.277 58.5186 245.883 58.1026C245.488 57.676 244.949 57.4626 244.267 57.4626C243.584 57.4626 243.04 57.676 242.635 58.1026C242.24 58.5186 242.043 59.1213 242.043 59.9106V64.8386H240.235V59.9106C240.235 59.1213 240.037 58.5186 239.643 58.1026C239.248 57.676 238.709 57.4626 238.027 57.4626C237.344 57.4626 236.8 57.676 236.395 58.1026C236 58.5186 235.803 59.1213 235.803 59.9106V64.8386H233.979V56.0226H235.803V57.0306C236.101 56.668 236.48 56.3853 236.939 56.1826C237.397 55.98 237.888 55.8786 238.411 55.8786C239.115 55.8786 239.744 56.028 240.299 56.3266C240.853 56.6253 241.28 57.0573 241.579 57.6226C241.845 57.0893 242.261 56.668 242.827 56.3586C243.392 56.0386 244 55.8786 244.651 55.8786ZM258.684 60.2146C258.684 60.5453 258.662 60.844 258.62 61.1106H251.884C251.937 61.8146 252.198 62.38 252.668 62.8066C253.137 63.2333 253.713 63.4466 254.396 63.4466C255.377 63.4466 256.07 63.036 256.476 62.2146H258.444C258.177 63.0253 257.692 63.692 256.988 64.2146C256.294 64.7266 255.43 64.9826 254.396 64.9826C253.553 64.9826 252.796 64.796 252.124 64.4226C251.462 64.0386 250.94 63.5053 250.556 62.8226C250.182 62.1293 249.996 61.3293 249.996 60.4226C249.996 59.516 250.177 58.7213 250.54 58.0386C250.913 57.3453 251.43 56.812 252.092 56.4386C252.764 56.0653 253.532 55.8786 254.396 55.8786C255.228 55.8786 255.969 56.06 256.62 56.4226C257.27 56.7853 257.777 57.2973 258.14 57.9586C258.502 58.6093 258.684 59.3613 258.684 60.2146ZM256.78 59.6386C256.769 58.9666 256.529 58.428 256.06 58.0226C255.59 57.6173 255.009 57.4146 254.316 57.4146C253.686 57.4146 253.148 57.6173 252.7 58.0226C252.252 58.4173 251.985 58.956 251.9 59.6386H256.78ZM255.996 53.6546L252.46 55.3986V54.0546L255.996 52.1026V53.6546ZM264.027 60.3906C264.027 59.5053 264.208 58.7213 264.571 58.0386C264.944 57.356 265.446 56.828 266.075 56.4546C266.715 56.0706 267.419 55.8786 268.187 55.8786C268.88 55.8786 269.483 56.0173 269.995 56.2946C270.518 56.5613 270.934 56.8973 271.243 57.3026V56.0226H273.083V64.8386H271.243V63.5266C270.934 63.9426 270.512 64.2893 269.979 64.5666C269.446 64.844 268.838 64.9826 268.155 64.9826C267.398 64.9826 266.704 64.7906 266.075 64.4066C265.446 64.012 264.944 63.468 264.571 62.7746C264.208 62.0706 264.027 61.276 264.027 60.3906ZM271.243 60.4226C271.243 59.8146 271.115 59.2866 270.859 58.8386C270.614 58.3906 270.288 58.0493 269.883 57.8146C269.478 57.58 269.04 57.4626 268.571 57.4626C268.102 57.4626 267.664 57.58 267.259 57.8146C266.854 58.0386 266.523 58.3746 266.267 58.8226C266.022 59.26 265.899 59.7826 265.899 60.3906C265.899 60.9986 266.022 61.532 266.267 61.9906C266.523 62.4493 266.854 62.8013 267.259 63.0466C267.675 63.2813 268.112 63.3986 268.571 63.3986C269.04 63.3986 269.478 63.2813 269.883 63.0466C270.288 62.812 270.614 62.4706 270.859 62.0226C271.115 61.564 271.243 61.0306 271.243 60.4226ZM278.887 63.2066L281.383 56.0226H283.319L279.959 64.8386H277.783L274.439 56.0226H276.391L278.887 63.2066ZM292.778 60.2146C292.778 60.5453 292.756 60.844 292.714 61.1106H285.978C286.031 61.8146 286.292 62.38 286.762 62.8066C287.231 63.2333 287.807 63.4466 288.49 63.4466C289.471 63.4466 290.164 63.036 290.57 62.2146H292.538C292.271 63.0253 291.786 63.692 291.082 64.2146C290.388 64.7266 289.524 64.9826 288.49 64.9826C287.647 64.9826 286.89 64.796 286.218 64.4226C285.556 64.0386 285.034 63.5053 284.65 62.8226C284.276 62.1293 284.09 61.3293 284.09 60.4226C284.09 59.516 284.271 58.7213 284.634 58.0386C285.007 57.3453 285.524 56.812 286.186 56.4386C286.858 56.0653 287.626 55.8786 288.49 55.8786C289.322 55.8786 290.063 56.06 290.714 56.4226C291.364 56.7853 291.871 57.2973 292.234 57.9586C292.596 58.6093 292.778 59.3613 292.778 60.2146ZM290.874 59.6386C290.863 58.9666 290.623 58.428 290.154 58.0226C289.684 57.6173 289.103 57.4146 288.41 57.4146C287.78 57.4146 287.242 57.6173 286.794 58.0226C286.346 58.4173 286.079 58.956 285.994 59.6386H290.874ZM293.965 60.4226C293.965 59.516 294.146 58.7213 294.509 58.0386C294.882 57.3453 295.394 56.812 296.045 56.4386C296.695 56.0653 297.442 55.8786 298.285 55.8786C299.351 55.8786 300.231 56.1346 300.925 56.6466C301.629 57.148 302.103 57.868 302.349 58.8066H300.381C300.221 58.3693 299.965 58.028 299.613 57.7826C299.261 57.5373 298.818 57.4146 298.285 57.4146C297.538 57.4146 296.941 57.6813 296.493 58.2146C296.055 58.7373 295.837 59.4733 295.837 60.4226C295.837 61.372 296.055 62.1133 296.493 62.6466C296.941 63.18 297.538 63.4466 298.285 63.4466C299.341 63.4466 300.039 62.9826 300.381 62.0546H302.349C302.093 62.9506 301.613 63.6653 300.909 64.1986C300.205 64.7213 299.33 64.9826 298.285 64.9826C297.442 64.9826 296.695 64.796 296.045 64.4226C295.394 64.0386 294.882 63.5053 294.509 62.8226C294.146 62.1293 293.965 61.3293 293.965 60.4226ZM311.523 64.9826C310.829 64.9826 310.205 64.86 309.651 64.6146C309.107 64.3586 308.675 64.0173 308.355 63.5906C308.035 63.1533 307.864 62.668 307.843 62.1346H309.731C309.763 62.508 309.939 62.8226 310.259 63.0786C310.589 63.324 311 63.4466 311.491 63.4466C312.003 63.4466 312.397 63.3506 312.675 63.1586C312.963 62.956 313.107 62.7 313.107 62.3906C313.107 62.06 312.947 61.8146 312.627 61.6546C312.317 61.4946 311.821 61.3186 311.139 61.1266C310.477 60.9453 309.939 60.7693 309.523 60.5986C309.107 60.428 308.744 60.1666 308.435 59.8146C308.136 59.4626 307.987 58.9986 307.987 58.4226C307.987 57.9533 308.125 57.5266 308.403 57.1426C308.68 56.748 309.075 56.4386 309.587 56.2146C310.109 55.9906 310.707 55.8786 311.379 55.8786C312.381 55.8786 313.187 56.1346 313.795 56.6466C314.413 57.148 314.744 57.836 314.787 58.7106H312.963C312.931 58.316 312.771 58.0013 312.483 57.7666C312.195 57.532 311.805 57.4146 311.315 57.4146C310.835 57.4146 310.467 57.5053 310.211 57.6866C309.955 57.868 309.827 58.108 309.827 58.4066C309.827 58.6413 309.912 58.8386 310.083 58.9986C310.253 59.1586 310.461 59.2866 310.707 59.3826C310.952 59.468 311.315 59.58 311.795 59.7186C312.435 59.8893 312.957 60.0653 313.363 60.2466C313.779 60.4173 314.136 60.6733 314.435 61.0146C314.733 61.356 314.888 61.8093 314.899 62.3746C314.899 62.876 314.76 63.324 314.483 63.7186C314.205 64.1133 313.811 64.4226 313.299 64.6466C312.797 64.8706 312.205 64.9826 311.523 64.9826ZM324.853 56.0226V64.8386H323.029V63.7986C322.741 64.1613 322.363 64.4493 321.893 64.6626C321.435 64.8653 320.944 64.9666 320.421 64.9666C319.728 64.9666 319.104 64.8226 318.549 64.5346C318.005 64.2466 317.573 63.82 317.253 63.2546C316.944 62.6893 316.789 62.0066 316.789 61.2066V56.0226H318.597V60.9346C318.597 61.724 318.795 62.332 319.189 62.7586C319.584 63.1746 320.123 63.3826 320.805 63.3826C321.488 63.3826 322.027 63.1746 322.421 62.7586C322.827 62.332 323.029 61.724 323.029 60.9346V56.0226H324.853ZM326.652 60.4226C326.652 59.516 326.833 58.7213 327.196 58.0386C327.569 57.3453 328.081 56.812 328.732 56.4386C329.383 56.0653 330.129 55.8786 330.972 55.8786C332.039 55.8786 332.919 56.1346 333.612 56.6466C334.316 57.148 334.791 57.868 335.036 58.8066H333.068C332.908 58.3693 332.652 58.028 332.3 57.7826C331.948 57.5373 331.505 57.4146 330.972 57.4146C330.225 57.4146 329.628 57.6813 329.18 58.2146C328.743 58.7373 328.524 59.4733 328.524 60.4226C328.524 61.372 328.743 62.1133 329.18 62.6466C329.628 63.18 330.225 63.4466 330.972 63.4466C332.028 63.4466 332.727 62.9826 333.068 62.0546H335.036C334.78 62.9506 334.3 63.6653 333.596 64.1986C332.892 64.7213 332.017 64.9826 330.972 64.9826C330.129 64.9826 329.383 64.796 328.732 64.4226C328.081 64.0386 327.569 63.5053 327.196 62.8226C326.833 62.1293 326.652 61.3293 326.652 60.4226ZM336.246 60.4226C336.246 59.516 336.427 58.7213 336.79 58.0386C337.163 57.3453 337.675 56.812 338.326 56.4386C338.976 56.0653 339.723 55.8786 340.566 55.8786C341.632 55.8786 342.512 56.1346 343.206 56.6466C343.91 57.148 344.384 57.868 344.63 58.8066H342.662C342.502 58.3693 342.246 58.028 341.894 57.7826C341.542 57.5373 341.099 57.4146 340.566 57.4146C339.819 57.4146 339.222 57.6813 338.774 58.2146C338.336 58.7373 338.118 59.4733 338.118 60.4226C338.118 61.372 338.336 62.1133 338.774 62.6466C339.222 63.18 339.819 63.4466 340.566 63.4466C341.622 63.4466 342.32 62.9826 342.662 62.0546H344.63C344.374 62.9506 343.894 63.6653 343.19 64.1986C342.486 64.7213 341.611 64.9826 340.566 64.9826C339.723 64.9826 338.976 64.796 338.326 64.4226C337.675 64.0386 337.163 63.5053 336.79 62.8226C336.427 62.1293 336.246 61.3293 336.246 60.4226ZM354.528 60.2146C354.528 60.5453 354.506 60.844 354.464 61.1106H347.728C347.781 61.8146 348.042 62.38 348.512 62.8066C348.981 63.2333 349.557 63.4466 350.24 63.4466C351.221 63.4466 351.914 63.036 352.32 62.2146H354.288C354.021 63.0253 353.536 63.692 352.832 64.2146C352.138 64.7266 351.274 64.9826 350.24 64.9826C349.397 64.9826 348.64 64.796 347.968 64.4226C347.306 64.0386 346.784 63.5053 346.4 62.8226C346.026 62.1293 345.84 61.3293 345.84 60.4226C345.84 59.516 346.021 58.7213 346.384 58.0386C346.757 57.3453 347.274 56.812 347.936 56.4386C348.608 56.0653 349.376 55.8786 350.24 55.8786C351.072 55.8786 351.813 56.06 352.464 56.4226C353.114 56.7853 353.621 57.2973 353.984 57.9586C354.346 58.6093 354.528 59.3613 354.528 60.2146ZM352.624 59.6386C352.613 58.9666 352.373 58.428 351.904 58.0226C351.434 57.6173 350.853 57.4146 350.16 57.4146C349.53 57.4146 348.992 57.6173 348.544 58.0226C348.096 58.4173 347.829 58.956 347.744 59.6386H352.624ZM351.84 54.0546V55.3986L348.304 53.6546V52.1026L351.84 54.0546ZM359.523 64.9826C358.829 64.9826 358.205 64.86 357.651 64.6146C357.107 64.3586 356.675 64.0173 356.355 63.5906C356.035 63.1533 355.864 62.668 355.843 62.1346H357.731C357.763 62.508 357.939 62.8226 358.259 63.0786C358.589 63.324 359 63.4466 359.491 63.4466C360.003 63.4466 360.397 63.3506 360.675 63.1586C360.963 62.956 361.107 62.7 361.107 62.3906C361.107 62.06 360.947 61.8146 360.627 61.6546C360.317 61.4946 359.821 61.3186 359.139 61.1266C358.477 60.9453 357.939 60.7693 357.523 60.5986C357.107 60.428 356.744 60.1666 356.435 59.8146C356.136 59.4626 355.987 58.9986 355.987 58.4226C355.987 57.9533 356.125 57.5266 356.403 57.1426C356.68 56.748 357.075 56.4386 357.587 56.2146C358.109 55.9906 358.707 55.8786 359.379 55.8786C360.381 55.8786 361.187 56.1346 361.795 56.6466C362.413 57.148 362.744 57.836 362.787 58.7106H360.963C360.931 58.316 360.771 58.0013 360.483 57.7666C360.195 57.532 359.805 57.4146 359.315 57.4146C358.835 57.4146 358.467 57.5053 358.211 57.6866C357.955 57.868 357.827 58.108 357.827 58.4066C357.827 58.6413 357.912 58.8386 358.083 58.9986C358.253 59.1586 358.461 59.2866 358.707 59.3826C358.952 59.468 359.315 59.58 359.795 59.7186C360.435 59.8893 360.957 60.0653 361.363 60.2466C361.779 60.4173 362.136 60.6733 362.435 61.0146C362.733 61.356 362.888 61.8093 362.899 62.3746C362.899 62.876 362.76 63.324 362.483 63.7186C362.205 64.1133 361.811 64.4226 361.299 64.6466C360.797 64.8706 360.205 64.9826 359.523 64.9826Z" fill="black"/>
<defs>
<filter id="filter0_d_132_791" x="0.161621" y="0.838623" width="435.677" height="117.888" filterUnits="userSpaceOnUse" color-interpolation-filters="sRGB">
<feFlood flood-opacity="0" result="BackgroundImageFix"/>
<feColorMatrix in="SourceAlpha" type="matrix" values="0 0 0 0 0 0 0 0 0 0 0 0 0 0 0 0 0 0 127 0" result="hardAlpha"/>
<feOffset/>
<feGaussianBlur stdDeviation="12"/>
<feComposite in2="hardAlpha" operator="out"/>
<feColorMatrix type="matrix" values="0 0 0 0 0 0 0 0 0 0 0 0 0 0 0 0 0 0 0.24 0"/>
<feBlend mode="normal" in2="BackgroundImageFix" result="effect1_dropShadow_132_791"/>
<feBlend mode="normal" in="SourceGraphic" in2="effect1_dropShadow_132_791" result="shape"/>
</filter>
</defs>
</svg>
