<svg width="102" height="264" viewBox="0 0 102 264" fill="none" xmlns="http://www.w3.org/2000/svg">
<rect x="0.5" y="0.5" width="100.144" height="262.432" rx="4.5" stroke="#9747FF" stroke-dasharray="10 5"/>
<rect x="20.6646" y="20.6646" width="59.8147" height="59.8147" rx="9.96912" fill="white"/>
<rect x="20.6646" y="20.6646" width="59.8147" height="59.8147" rx="9.96912" stroke="#505050" stroke-width="1.32922"/>
<path d="M42.7949 55.5312V53.245L51.7272 40.4313H55.3959V52.8994H57.8682V55.5312H55.3959V59.572H52.4184V55.5312H42.7949ZM52.5513 43.5151L46.2774 52.8994H52.5513V43.5151Z" fill="black"/>
<rect x="21" y="102.144" width="59.1439" height="59.1439" rx="9.63373" fill="white"/>
<rect x="21" y="102.144" width="59.1439" height="59.1439" rx="9.63373" stroke="#FFC244" stroke-width="2"/>
<path d="M42.7949 136.675V134.389L51.7272 121.575H55.3959V134.043H57.8682V136.675H55.3959V140.716H52.4184V136.675H42.7949ZM52.5513 124.659L46.2774 134.043H52.5513V124.659Z" fill="black"/>
<rect x="21" y="183.288" width="59.1439" height="59.1439" rx="9.63373" fill="white"/>
<rect x="21" y="183.288" width="59.1439" height="59.1439" rx="9.63373" stroke="#FF0000" stroke-width="2"/>
<path d="M42.7949 217.819V215.533L51.7272 202.719H55.3959V215.187H57.8682V217.819H55.3959V221.86H52.4184V217.819H42.7949ZM52.5513 205.803L46.2774 215.187H52.5513V205.803Z" fill="black"/>
</svg>
