<svg width="389" height="276" viewBox="0 0 389 276" fill="none" xmlns="http://www.w3.org/2000/svg">
<rect x="0.5" y="0.5" width="388" height="275" rx="4.5" stroke="#9747FF" stroke-dasharray="10 5"/>
<rect x="20" y="200" width="166" height="56" rx="28" fill="#0077FF"/>
<path fill-rule="evenodd" clip-rule="evenodd" d="M77.4084 235.357C77.2404 235.337 77.0786 235.316 76.923 235.294C73.5001 234.813 73.156 233.736 72.7096 232.91C72.3468 232.772 72.1688 232.66 71.983 232.089C71.9027 231.845 71.7637 230.762 71.8225 230.34C72.1039 230.106 72.3174 229.513 72.4101 229.238C72.6599 228.501 72.7203 228.322 72.9582 227.34C72.9921 227.2 73.0819 227.143 73.1548 227.119C73.3763 227.048 73.4272 226.89 73.4995 226.774C73.6707 226.507 73.5238 226.387 73.791 225.735C74.1323 224.994 74.1854 224.231 73.9267 224.012C73.7509 223.874 73.6441 223.977 73.5577 224.005C73.5001 224.025 73.5447 223.898 73.5967 223.716C73.8018 222.97 73.8029 222.337 73.8583 221.572C73.9029 220.953 73.856 220.388 73.7684 220.037C73.6859 219.965 73.4729 219.152 73.2288 218.677C72.8118 217.861 71.562 217.735 71.1337 217.571C70.1144 217.194 68.8397 216.682 67.3288 217.26C66.6564 217.516 65.7609 217.541 64.7862 218.512C64.5557 218.74 64.1443 218.544 63.6849 219.432C63.2188 220.302 63.1939 220.875 63.3002 221.497L63.268 221.498C63.268 221.498 63.2798 222.987 63.4861 223.733C63.5369 223.915 63.5804 224.042 63.5239 224.023C63.438 223.995 63.3199 223.905 63.1442 224.044C62.8843 224.263 63.0222 224.994 63.3634 225.735C63.6324 226.387 63.4533 226.581 63.7392 226.924C63.8409 227.046 63.9358 227.11 64.0454 227.151C64.1189 227.177 64.2223 227.185 64.2703 227.321C64.585 228.331 64.6432 228.641 64.9704 229.242C65.1116 229.502 65.2704 230.151 65.5631 230.403C65.6111 230.759 65.5614 231.783 65.4981 232.089C65.3964 232.569 65.206 232.708 64.6946 232.91C64.4167 233.71 63.6793 234.434 60.5954 235.271C60.4899 235.3 60.3823 235.329 60.2727 235.357C60.214 235.374 59.1696 236.171 57.1396 237.748C56.967 237.883 56.8446 238.06 56.7889 238.257C56.7331 238.455 56.7467 238.662 56.8277 238.853C56.9087 239.043 57.0534 239.207 57.2424 239.322C57.4314 239.438 57.6557 239.5 57.8855 239.5H79.8691C80.1009 239.5 80.3271 239.437 80.5171 239.32C80.707 239.202 80.8516 239.036 80.9311 238.843C81.0106 238.65 81.0212 238.441 80.9615 238.242C80.9018 238.044 80.7747 237.867 80.5974 237.735L77.4084 235.357Z" fill="white"/>
<path d="M102.38 223.172V233H99.986V228.954H96.262V233H93.868V223.172H96.262V227.022H99.986V223.172H102.38ZM107.664 233.112C106.899 233.112 106.208 232.949 105.592 232.622C104.986 232.295 104.505 231.829 104.15 231.222C103.805 230.615 103.632 229.906 103.632 229.094C103.632 228.291 103.81 227.587 104.164 226.98C104.519 226.364 105.004 225.893 105.62 225.566C106.236 225.239 106.927 225.076 107.692 225.076C108.458 225.076 109.148 225.239 109.764 225.566C110.38 225.893 110.866 226.364 111.22 226.98C111.575 227.587 111.752 228.291 111.752 229.094C111.752 229.897 111.57 230.606 111.206 231.222C110.852 231.829 110.362 232.295 109.736 232.622C109.12 232.949 108.43 233.112 107.664 233.112ZM107.664 231.04C108.122 231.04 108.509 230.872 108.826 230.536C109.153 230.2 109.316 229.719 109.316 229.094C109.316 228.469 109.158 227.988 108.84 227.652C108.532 227.316 108.15 227.148 107.692 227.148C107.226 227.148 106.838 227.316 106.53 227.652C106.222 227.979 106.068 228.459 106.068 229.094C106.068 229.719 106.218 230.2 106.516 230.536C106.824 230.872 107.207 231.04 107.664 231.04ZM122.99 225.104C123.961 225.104 124.731 225.398 125.3 225.986C125.879 226.574 126.168 227.391 126.168 228.436V233H123.788V228.758C123.788 228.254 123.653 227.867 123.382 227.596C123.121 227.316 122.757 227.176 122.29 227.176C121.824 227.176 121.455 227.316 121.184 227.596C120.923 227.867 120.792 228.254 120.792 228.758V233H118.412V228.758C118.412 228.254 118.277 227.867 118.006 227.596C117.745 227.316 117.381 227.176 116.914 227.176C116.448 227.176 116.079 227.316 115.808 227.596C115.547 227.867 115.416 228.254 115.416 228.758V233H113.022V225.188H115.416V226.168C115.659 225.841 115.976 225.585 116.368 225.398C116.76 225.202 117.204 225.104 117.698 225.104C118.286 225.104 118.809 225.23 119.266 225.482C119.733 225.734 120.097 226.093 120.358 226.56C120.629 226.131 120.998 225.781 121.464 225.51C121.931 225.239 122.44 225.104 122.99 225.104ZM137.811 225.104C138.781 225.104 139.551 225.398 140.121 225.986C140.699 226.574 140.989 227.391 140.989 228.436V233H138.609V228.758C138.609 228.254 138.473 227.867 138.203 227.596C137.941 227.316 137.577 227.176 137.111 227.176C136.644 227.176 136.275 227.316 136.005 227.596C135.743 227.867 135.613 228.254 135.613 228.758V233H133.233V228.758C133.233 228.254 133.097 227.867 132.827 227.596C132.565 227.316 132.201 227.176 131.735 227.176C131.268 227.176 130.899 227.316 130.629 227.596C130.367 227.867 130.237 228.254 130.237 228.758V233H127.843V225.188H130.237V226.168C130.479 225.841 130.797 225.585 131.189 225.398C131.581 225.202 132.024 225.104 132.519 225.104C133.107 225.104 133.629 225.23 134.087 225.482C134.553 225.734 134.917 226.093 135.179 226.56C135.449 226.131 135.818 225.781 136.285 225.51C136.751 225.239 137.26 225.104 137.811 225.104ZM150.027 228.968C150.027 229.192 150.013 229.425 149.985 229.668H144.567C144.604 230.153 144.758 230.527 145.029 230.788C145.309 231.04 145.65 231.166 146.051 231.166C146.648 231.166 147.064 230.914 147.297 230.41H149.845C149.714 230.923 149.476 231.385 149.131 231.796C148.795 232.207 148.37 232.529 147.857 232.762C147.344 232.995 146.77 233.112 146.135 233.112C145.37 233.112 144.688 232.949 144.091 232.622C143.494 232.295 143.027 231.829 142.691 231.222C142.355 230.615 142.187 229.906 142.187 229.094C142.187 228.282 142.35 227.573 142.677 226.966C143.013 226.359 143.48 225.893 144.077 225.566C144.674 225.239 145.36 225.076 146.135 225.076C146.891 225.076 147.563 225.235 148.151 225.552C148.739 225.869 149.196 226.322 149.523 226.91C149.859 227.498 150.027 228.184 150.027 228.968ZM147.577 228.338C147.577 227.927 147.437 227.601 147.157 227.358C146.877 227.115 146.527 226.994 146.107 226.994C145.706 226.994 145.365 227.111 145.085 227.344C144.814 227.577 144.646 227.909 144.581 228.338H147.577Z" fill="white"/>
<rect x="203" y="200" width="166" height="56" rx="28" fill="white"/>
<rect x="203" y="200" width="166" height="56" rx="28" stroke="black"/>
<path d="M251.112 219.185C249.521 219.185 247.081 220.103 247.929 225.791C247.943 225.877 247.959 225.97 247.977 226.07C248.132 226.925 248.371 228.25 246.85 229.342C247.884 230.191 249.358 231.039 251.148 231.407C251.078 231.813 250.989 232.216 250.882 232.614C250.737 233.148 250.432 233.526 249.887 233.688C249.407 233.83 248.904 233.945 248.389 234.063C248.256 234.093 248.123 234.124 247.989 234.155C247.346 234.304 246.691 234.47 246.111 234.704C245.529 234.939 244.988 235.255 244.597 235.727C244.199 236.209 243.986 236.816 244 237.575C244.005 237.811 244.207 238 244.455 238H262.544C262.792 238 262.994 237.811 262.999 237.575C263.014 236.816 262.801 236.209 262.403 235.727C262.012 235.255 261.471 234.938 260.889 234.704C260.308 234.469 259.653 234.304 259.01 234.154L258.611 234.063C258.096 233.945 257.593 233.83 257.113 233.688C256.568 233.526 256.263 233.148 256.117 232.614C255.99 232.14 255.889 231.659 255.814 231.174C257.183 230.762 258.638 230.021 260.15 228.839L260.143 228.832C259.433 228.153 258.103 226.88 258.009 223.858C258.009 219.697 255.356 216.04 251.112 219.185Z" fill="#C5C5C5" stroke="#C5C5C5" stroke-width="2" stroke-linejoin="round"/>
<path d="M282.766 223.172V225.09H278.762V227.162H281.758V229.024H278.762V233H276.368V223.172H282.766ZM291.388 228.968C291.388 229.192 291.374 229.425 291.346 229.668H285.928C285.966 230.153 286.12 230.527 286.39 230.788C286.67 231.04 287.011 231.166 287.412 231.166C288.01 231.166 288.425 230.914 288.658 230.41H291.206C291.076 230.923 290.838 231.385 290.492 231.796C290.156 232.207 289.732 232.529 289.218 232.762C288.705 232.995 288.131 233.112 287.496 233.112C286.731 233.112 286.05 232.949 285.452 232.622C284.855 232.295 284.388 231.829 284.052 231.222C283.716 230.615 283.548 229.906 283.548 229.094C283.548 228.282 283.712 227.573 284.038 226.966C284.374 226.359 284.841 225.893 285.438 225.566C286.036 225.239 286.722 225.076 287.496 225.076C288.252 225.076 288.924 225.235 289.512 225.552C290.1 225.869 290.558 226.322 290.884 226.91C291.22 227.498 291.388 228.184 291.388 228.968ZM288.938 228.338C288.938 227.927 288.798 227.601 288.518 227.358C288.238 227.115 287.888 226.994 287.468 226.994C287.067 226.994 286.726 227.111 286.446 227.344C286.176 227.577 286.008 227.909 285.942 228.338H288.938ZM302.619 225.104C303.59 225.104 304.36 225.398 304.929 225.986C305.508 226.574 305.797 227.391 305.797 228.436V233H303.417V228.758C303.417 228.254 303.282 227.867 303.011 227.596C302.75 227.316 302.386 227.176 301.919 227.176C301.453 227.176 301.084 227.316 300.813 227.596C300.552 227.867 300.421 228.254 300.421 228.758V233H298.041V228.758C298.041 228.254 297.906 227.867 297.635 227.596C297.374 227.316 297.01 227.176 296.543 227.176C296.077 227.176 295.708 227.316 295.437 227.596C295.176 227.867 295.045 228.254 295.045 228.758V233H292.651V225.188H295.045V226.168C295.288 225.841 295.605 225.585 295.997 225.398C296.389 225.202 296.833 225.104 297.327 225.104C297.915 225.104 298.438 225.23 298.895 225.482C299.362 225.734 299.726 226.093 299.987 226.56C300.258 226.131 300.627 225.781 301.093 225.51C301.56 225.239 302.069 225.104 302.619 225.104ZM317.44 225.104C318.41 225.104 319.18 225.398 319.75 225.986C320.328 226.574 320.618 227.391 320.618 228.436V233H318.238V228.758C318.238 228.254 318.102 227.867 317.832 227.596C317.57 227.316 317.206 227.176 316.74 227.176C316.273 227.176 315.904 227.316 315.634 227.596C315.372 227.867 315.242 228.254 315.242 228.758V233H312.862V228.758C312.862 228.254 312.726 227.867 312.456 227.596C312.194 227.316 311.83 227.176 311.364 227.176C310.897 227.176 310.528 227.316 310.258 227.596C309.996 227.867 309.866 228.254 309.866 228.758V233H307.472V225.188H309.866V226.168C310.108 225.841 310.426 225.585 310.818 225.398C311.21 225.202 311.653 225.104 312.148 225.104C312.736 225.104 313.258 225.23 313.716 225.482C314.182 225.734 314.546 226.093 314.808 226.56C315.078 226.131 315.447 225.781 315.914 225.51C316.38 225.239 316.889 225.104 317.44 225.104ZM329.656 228.968C329.656 229.192 329.642 229.425 329.614 229.668H324.196C324.233 230.153 324.387 230.527 324.658 230.788C324.938 231.04 325.278 231.166 325.68 231.166C326.277 231.166 326.692 230.914 326.926 230.41H329.474C329.343 230.923 329.105 231.385 328.76 231.796C328.424 232.207 327.999 232.529 327.486 232.762C326.972 232.995 326.398 233.112 325.764 233.112C324.998 233.112 324.317 232.949 323.72 232.622C323.122 232.295 322.656 231.829 322.32 231.222C321.984 230.615 321.816 229.906 321.816 229.094C321.816 228.282 321.979 227.573 322.306 226.966C322.642 226.359 323.108 225.893 323.706 225.566C324.303 225.239 324.989 225.076 325.764 225.076C326.52 225.076 327.192 225.235 327.78 225.552C328.368 225.869 328.825 226.322 329.152 226.91C329.488 227.498 329.656 228.184 329.656 228.968ZM327.206 228.338C327.206 227.927 327.066 227.601 326.786 227.358C326.506 227.115 326.156 226.994 325.736 226.994C325.334 226.994 324.994 227.111 324.714 227.344C324.443 227.577 324.275 227.909 324.21 228.338H327.206Z" fill="#C5C5C5"/>
<rect x="20" y="116" width="166" height="56" rx="28" fill="white"/>
<rect x="20" y="116" width="166" height="56" rx="28" stroke="black"/>
<path fill-rule="evenodd" clip-rule="evenodd" d="M77.4084 151.357C77.2404 151.337 77.0786 151.316 76.923 151.294C73.5001 150.813 73.156 149.736 72.7096 148.91C72.3468 148.772 72.1688 148.66 71.983 148.089C71.9027 147.845 71.7637 146.762 71.8225 146.34C72.1039 146.106 72.3174 145.513 72.4101 145.238C72.6599 144.501 72.7203 144.322 72.9582 143.34C72.9921 143.2 73.0819 143.143 73.1548 143.119C73.3763 143.048 73.4272 142.89 73.4995 142.774C73.6707 142.507 73.5238 142.387 73.791 141.735C74.1323 140.994 74.1854 140.231 73.9267 140.012C73.7509 139.874 73.6441 139.977 73.5577 140.005C73.5001 140.025 73.5447 139.898 73.5967 139.716C73.8018 138.97 73.8029 138.337 73.8583 137.572C73.9029 136.953 73.856 136.388 73.7684 136.037C73.6859 135.965 73.4729 135.152 73.2288 134.677C72.8118 133.861 71.562 133.735 71.1337 133.571C70.1144 133.194 68.8397 132.682 67.3288 133.26C66.6564 133.516 65.7609 133.541 64.7862 134.512C64.5557 134.74 64.1443 134.544 63.6849 135.432C63.2188 136.302 63.1939 136.875 63.3002 137.497L63.268 137.498C63.268 137.498 63.2798 138.987 63.4861 139.733C63.5369 139.915 63.5804 140.042 63.5239 140.023C63.438 139.995 63.3199 139.905 63.1442 140.044C62.8843 140.263 63.0222 140.994 63.3634 141.735C63.6324 142.387 63.4533 142.581 63.7392 142.924C63.8409 143.046 63.9358 143.11 64.0454 143.151C64.1189 143.177 64.2223 143.185 64.2703 143.321C64.585 144.331 64.6432 144.641 64.9704 145.242C65.1116 145.502 65.2704 146.151 65.5631 146.403C65.6111 146.759 65.5614 147.783 65.4981 148.089C65.3964 148.569 65.206 148.708 64.6946 148.91C64.4167 149.71 63.6793 150.434 60.5954 151.271C60.4899 151.3 60.3823 151.329 60.2727 151.357C60.214 151.374 59.1696 152.171 57.1396 153.748C56.967 153.883 56.8446 154.06 56.7889 154.257C56.7331 154.455 56.7467 154.662 56.8277 154.853C56.9087 155.043 57.0534 155.207 57.2424 155.322C57.4314 155.438 57.6557 155.5 57.8855 155.5H79.8691C80.1009 155.5 80.3271 155.437 80.5171 155.32C80.707 155.202 80.8516 155.036 80.9311 154.843C81.0106 154.65 81.0212 154.441 80.9615 154.242C80.9018 154.044 80.7747 153.867 80.5974 153.735L77.4084 151.357Z" fill="#C5C5C5"/>
<path d="M102.38 139.172V149H99.986V144.954H96.262V149H93.868V139.172H96.262V143.022H99.986V139.172H102.38ZM107.664 149.112C106.899 149.112 106.208 148.949 105.592 148.622C104.986 148.295 104.505 147.829 104.15 147.222C103.805 146.615 103.632 145.906 103.632 145.094C103.632 144.291 103.81 143.587 104.164 142.98C104.519 142.364 105.004 141.893 105.62 141.566C106.236 141.239 106.927 141.076 107.692 141.076C108.458 141.076 109.148 141.239 109.764 141.566C110.38 141.893 110.866 142.364 111.22 142.98C111.575 143.587 111.752 144.291 111.752 145.094C111.752 145.897 111.57 146.606 111.206 147.222C110.852 147.829 110.362 148.295 109.736 148.622C109.12 148.949 108.43 149.112 107.664 149.112ZM107.664 147.04C108.122 147.04 108.509 146.872 108.826 146.536C109.153 146.2 109.316 145.719 109.316 145.094C109.316 144.469 109.158 143.988 108.84 143.652C108.532 143.316 108.15 143.148 107.692 143.148C107.226 143.148 106.838 143.316 106.53 143.652C106.222 143.979 106.068 144.459 106.068 145.094C106.068 145.719 106.218 146.2 106.516 146.536C106.824 146.872 107.207 147.04 107.664 147.04ZM122.99 141.104C123.961 141.104 124.731 141.398 125.3 141.986C125.879 142.574 126.168 143.391 126.168 144.436V149H123.788V144.758C123.788 144.254 123.653 143.867 123.382 143.596C123.121 143.316 122.757 143.176 122.29 143.176C121.824 143.176 121.455 143.316 121.184 143.596C120.923 143.867 120.792 144.254 120.792 144.758V149H118.412V144.758C118.412 144.254 118.277 143.867 118.006 143.596C117.745 143.316 117.381 143.176 116.914 143.176C116.448 143.176 116.079 143.316 115.808 143.596C115.547 143.867 115.416 144.254 115.416 144.758V149H113.022V141.188H115.416V142.168C115.659 141.841 115.976 141.585 116.368 141.398C116.76 141.202 117.204 141.104 117.698 141.104C118.286 141.104 118.809 141.23 119.266 141.482C119.733 141.734 120.097 142.093 120.358 142.56C120.629 142.131 120.998 141.781 121.464 141.51C121.931 141.239 122.44 141.104 122.99 141.104ZM137.811 141.104C138.781 141.104 139.551 141.398 140.121 141.986C140.699 142.574 140.989 143.391 140.989 144.436V149H138.609V144.758C138.609 144.254 138.473 143.867 138.203 143.596C137.941 143.316 137.577 143.176 137.111 143.176C136.644 143.176 136.275 143.316 136.005 143.596C135.743 143.867 135.613 144.254 135.613 144.758V149H133.233V144.758C133.233 144.254 133.097 143.867 132.827 143.596C132.565 143.316 132.201 143.176 131.735 143.176C131.268 143.176 130.899 143.316 130.629 143.596C130.367 143.867 130.237 144.254 130.237 144.758V149H127.843V141.188H130.237V142.168C130.479 141.841 130.797 141.585 131.189 141.398C131.581 141.202 132.024 141.104 132.519 141.104C133.107 141.104 133.629 141.23 134.087 141.482C134.553 141.734 134.917 142.093 135.179 142.56C135.449 142.131 135.818 141.781 136.285 141.51C136.751 141.239 137.26 141.104 137.811 141.104ZM150.027 144.968C150.027 145.192 150.013 145.425 149.985 145.668H144.567C144.604 146.153 144.758 146.527 145.029 146.788C145.309 147.04 145.65 147.166 146.051 147.166C146.648 147.166 147.064 146.914 147.297 146.41H149.845C149.714 146.923 149.476 147.385 149.131 147.796C148.795 148.207 148.37 148.529 147.857 148.762C147.344 148.995 146.77 149.112 146.135 149.112C145.37 149.112 144.688 148.949 144.091 148.622C143.494 148.295 143.027 147.829 142.691 147.222C142.355 146.615 142.187 145.906 142.187 145.094C142.187 144.282 142.35 143.573 142.677 142.966C143.013 142.359 143.48 141.893 144.077 141.566C144.674 141.239 145.36 141.076 146.135 141.076C146.891 141.076 147.563 141.235 148.151 141.552C148.739 141.869 149.196 142.322 149.523 142.91C149.859 143.498 150.027 144.184 150.027 144.968ZM147.577 144.338C147.577 143.927 147.437 143.601 147.157 143.358C146.877 143.115 146.527 142.994 146.107 142.994C145.706 142.994 145.365 143.111 145.085 143.344C144.814 143.577 144.646 143.909 144.581 144.338H147.577Z" fill="#C5C5C5"/>
<rect x="203" y="116" width="166" height="56" rx="28" fill="#F647FF"/>
<path d="M251.112 135.185C249.521 135.185 247.081 136.103 247.929 141.791C247.943 141.877 247.959 141.97 247.977 142.07C248.132 142.925 248.371 144.25 246.85 145.342C247.884 146.191 249.358 147.039 251.148 147.407C251.078 147.813 250.989 148.216 250.882 148.614C250.737 149.148 250.432 149.526 249.887 149.688C249.407 149.83 248.904 149.945 248.389 150.063C248.256 150.093 248.123 150.124 247.989 150.155C247.346 150.304 246.691 150.47 246.111 150.704C245.529 150.939 244.988 151.255 244.597 151.727C244.199 152.209 243.986 152.816 244 153.575C244.005 153.811 244.207 154 244.455 154H262.544C262.792 154 262.994 153.811 262.999 153.575C263.014 152.816 262.801 152.209 262.403 151.727C262.012 151.255 261.471 150.938 260.889 150.704C260.308 150.469 259.653 150.304 259.01 150.154L258.611 150.063C258.096 149.945 257.593 149.83 257.113 149.688C256.568 149.526 256.263 149.148 256.117 148.614C255.99 148.14 255.889 147.659 255.814 147.174C257.183 146.762 258.638 146.021 260.15 144.839L260.143 144.832C259.433 144.153 258.103 142.88 258.009 139.858C258.009 135.697 255.356 132.04 251.112 135.185Z" fill="white" stroke="white" stroke-width="2" stroke-linejoin="round"/>
<path d="M282.766 139.172V141.09H278.762V143.162H281.758V145.024H278.762V149H276.368V139.172H282.766ZM291.388 144.968C291.388 145.192 291.374 145.425 291.346 145.668H285.928C285.966 146.153 286.12 146.527 286.39 146.788C286.67 147.04 287.011 147.166 287.412 147.166C288.01 147.166 288.425 146.914 288.658 146.41H291.206C291.076 146.923 290.838 147.385 290.492 147.796C290.156 148.207 289.732 148.529 289.218 148.762C288.705 148.995 288.131 149.112 287.496 149.112C286.731 149.112 286.05 148.949 285.452 148.622C284.855 148.295 284.388 147.829 284.052 147.222C283.716 146.615 283.548 145.906 283.548 145.094C283.548 144.282 283.712 143.573 284.038 142.966C284.374 142.359 284.841 141.893 285.438 141.566C286.036 141.239 286.722 141.076 287.496 141.076C288.252 141.076 288.924 141.235 289.512 141.552C290.1 141.869 290.558 142.322 290.884 142.91C291.22 143.498 291.388 144.184 291.388 144.968ZM288.938 144.338C288.938 143.927 288.798 143.601 288.518 143.358C288.238 143.115 287.888 142.994 287.468 142.994C287.067 142.994 286.726 143.111 286.446 143.344C286.176 143.577 286.008 143.909 285.942 144.338H288.938ZM302.619 141.104C303.59 141.104 304.36 141.398 304.929 141.986C305.508 142.574 305.797 143.391 305.797 144.436V149H303.417V144.758C303.417 144.254 303.282 143.867 303.011 143.596C302.75 143.316 302.386 143.176 301.919 143.176C301.453 143.176 301.084 143.316 300.813 143.596C300.552 143.867 300.421 144.254 300.421 144.758V149H298.041V144.758C298.041 144.254 297.906 143.867 297.635 143.596C297.374 143.316 297.01 143.176 296.543 143.176C296.077 143.176 295.708 143.316 295.437 143.596C295.176 143.867 295.045 144.254 295.045 144.758V149H292.651V141.188H295.045V142.168C295.288 141.841 295.605 141.585 295.997 141.398C296.389 141.202 296.833 141.104 297.327 141.104C297.915 141.104 298.438 141.23 298.895 141.482C299.362 141.734 299.726 142.093 299.987 142.56C300.258 142.131 300.627 141.781 301.093 141.51C301.56 141.239 302.069 141.104 302.619 141.104ZM317.44 141.104C318.41 141.104 319.18 141.398 319.75 141.986C320.328 142.574 320.618 143.391 320.618 144.436V149H318.238V144.758C318.238 144.254 318.102 143.867 317.832 143.596C317.57 143.316 317.206 143.176 316.74 143.176C316.273 143.176 315.904 143.316 315.634 143.596C315.372 143.867 315.242 144.254 315.242 144.758V149H312.862V144.758C312.862 144.254 312.726 143.867 312.456 143.596C312.194 143.316 311.83 143.176 311.364 143.176C310.897 143.176 310.528 143.316 310.258 143.596C309.996 143.867 309.866 144.254 309.866 144.758V149H307.472V141.188H309.866V142.168C310.108 141.841 310.426 141.585 310.818 141.398C311.21 141.202 311.653 141.104 312.148 141.104C312.736 141.104 313.258 141.23 313.716 141.482C314.182 141.734 314.546 142.093 314.808 142.56C315.078 142.131 315.447 141.781 315.914 141.51C316.38 141.239 316.889 141.104 317.44 141.104ZM329.656 144.968C329.656 145.192 329.642 145.425 329.614 145.668H324.196C324.233 146.153 324.387 146.527 324.658 146.788C324.938 147.04 325.278 147.166 325.68 147.166C326.277 147.166 326.692 146.914 326.926 146.41H329.474C329.343 146.923 329.105 147.385 328.76 147.796C328.424 148.207 327.999 148.529 327.486 148.762C326.972 148.995 326.398 149.112 325.764 149.112C324.998 149.112 324.317 148.949 323.72 148.622C323.122 148.295 322.656 147.829 322.32 147.222C321.984 146.615 321.816 145.906 321.816 145.094C321.816 144.282 321.979 143.573 322.306 142.966C322.642 142.359 323.108 141.893 323.706 141.566C324.303 141.239 324.989 141.076 325.764 141.076C326.52 141.076 327.192 141.235 327.78 141.552C328.368 141.869 328.825 142.322 329.152 142.91C329.488 143.498 329.656 144.184 329.656 144.968ZM327.206 144.338C327.206 143.927 327.066 143.601 326.786 143.358C326.506 143.115 326.156 142.994 325.736 142.994C325.334 142.994 324.994 143.111 324.714 143.344C324.443 143.577 324.275 143.909 324.21 144.338H327.206Z" fill="white"/>
<rect x="20" y="20" width="166" height="56" rx="28" fill="white"/>
<rect x="20" y="20" width="166" height="56" rx="28" stroke="black"/>
<path fill-rule="evenodd" clip-rule="evenodd" d="M77.4084 55.357C77.2404 55.337 77.0786 55.3161 76.923 55.2945C73.5001 54.813 73.156 53.736 72.7096 52.9105C72.3468 52.772 72.1688 52.6605 71.983 52.089C71.9027 51.845 71.7637 50.762 71.8225 50.34C72.1039 50.1065 72.3174 49.5135 72.4101 49.238C72.6599 48.501 72.7203 48.322 72.9582 47.34C72.9921 47.2 73.0819 47.143 73.1548 47.119C73.3763 47.048 73.4272 46.8905 73.4995 46.774C73.6707 46.507 73.5238 46.387 73.791 45.7355C74.1323 44.9945 74.1854 44.2315 73.9267 44.0125C73.7509 43.874 73.6441 43.9775 73.5577 44.0055C73.5001 44.0255 73.5447 43.898 73.5967 43.7165C73.8018 42.97 73.8029 42.3375 73.8583 41.5725C73.9029 40.953 73.856 40.388 73.7684 40.0375C73.6859 39.965 73.4729 39.1525 73.2288 38.6775C72.8118 37.8615 71.562 37.735 71.1337 37.5715C70.1144 37.194 68.8397 36.6825 67.3288 37.26C66.6564 37.5165 65.7609 37.5415 64.7862 38.512C64.5557 38.74 64.1443 38.544 63.6849 39.432C63.2188 40.302 63.1939 40.875 63.3002 41.497L63.268 41.4985C63.268 41.4985 63.2798 42.987 63.4861 43.7335C63.5369 43.9155 63.5804 44.042 63.5239 44.023C63.438 43.995 63.3199 43.905 63.1442 44.044C62.8843 44.263 63.0222 44.9945 63.3634 45.7355C63.6324 46.387 63.4533 46.581 63.7392 46.924C63.8409 47.046 63.9358 47.1105 64.0454 47.1515C64.1189 47.1775 64.2223 47.1855 64.2703 47.3215C64.585 48.3315 64.6432 48.6415 64.9704 49.2425C65.1116 49.502 65.2704 50.1515 65.5631 50.4035C65.6111 50.759 65.5614 51.7835 65.4981 52.089C65.3964 52.5695 65.206 52.7085 64.6946 52.9105C64.4167 53.7105 63.6793 54.4345 60.5954 55.2715C60.4899 55.3001 60.3823 55.3286 60.2727 55.357C60.214 55.3743 59.1696 56.1715 57.1396 57.7485C56.967 57.8826 56.8446 58.0602 56.7889 58.2574C56.7331 58.4547 56.7467 58.6623 56.8277 58.8526C56.9087 59.0429 57.0534 59.2068 57.2424 59.3224C57.4314 59.4381 57.6557 59.5 57.8855 59.5H79.8691C80.1009 59.5001 80.3271 59.4371 80.5171 59.3196C80.707 59.202 80.8516 59.0357 80.9311 58.843C81.0106 58.6503 81.0212 58.4406 80.9615 58.2424C80.9018 58.0442 80.7747 57.8671 80.5974 57.735L77.4084 55.357Z" fill="#C5C5C5"/>
<path d="M102.38 43.172V53H99.986V48.954H96.262V53H93.868V43.172H96.262V47.022H99.986V43.172H102.38ZM107.664 53.112C106.899 53.112 106.208 52.9487 105.592 52.622C104.986 52.2953 104.505 51.8287 104.15 51.222C103.805 50.6153 103.632 49.906 103.632 49.094C103.632 48.2913 103.81 47.5867 104.164 46.98C104.519 46.364 105.004 45.8927 105.62 45.566C106.236 45.2393 106.927 45.076 107.692 45.076C108.458 45.076 109.148 45.2393 109.764 45.566C110.38 45.8927 110.866 46.364 111.22 46.98C111.575 47.5867 111.752 48.2913 111.752 49.094C111.752 49.8967 111.57 50.606 111.206 51.222C110.852 51.8287 110.362 52.2953 109.736 52.622C109.12 52.9487 108.43 53.112 107.664 53.112ZM107.664 51.04C108.122 51.04 108.509 50.872 108.826 50.536C109.153 50.2 109.316 49.7193 109.316 49.094C109.316 48.4687 109.158 47.988 108.84 47.652C108.532 47.316 108.15 47.148 107.692 47.148C107.226 47.148 106.838 47.316 106.53 47.652C106.222 47.9787 106.068 48.4593 106.068 49.094C106.068 49.7193 106.218 50.2 106.516 50.536C106.824 50.872 107.207 51.04 107.664 51.04ZM122.99 45.104C123.961 45.104 124.731 45.398 125.3 45.986C125.879 46.574 126.168 47.3907 126.168 48.436V53H123.788V48.758C123.788 48.254 123.653 47.8667 123.382 47.596C123.121 47.316 122.757 47.176 122.29 47.176C121.824 47.176 121.455 47.316 121.184 47.596C120.923 47.8667 120.792 48.254 120.792 48.758V53H118.412V48.758C118.412 48.254 118.277 47.8667 118.006 47.596C117.745 47.316 117.381 47.176 116.914 47.176C116.448 47.176 116.079 47.316 115.808 47.596C115.547 47.8667 115.416 48.254 115.416 48.758V53H113.022V45.188H115.416V46.168C115.659 45.8413 115.976 45.5847 116.368 45.398C116.76 45.202 117.204 45.104 117.698 45.104C118.286 45.104 118.809 45.23 119.266 45.482C119.733 45.734 120.097 46.0933 120.358 46.56C120.629 46.1307 120.998 45.7807 121.464 45.51C121.931 45.2393 122.44 45.104 122.99 45.104ZM137.811 45.104C138.781 45.104 139.551 45.398 140.121 45.986C140.699 46.574 140.989 47.3907 140.989 48.436V53H138.609V48.758C138.609 48.254 138.473 47.8667 138.203 47.596C137.941 47.316 137.577 47.176 137.111 47.176C136.644 47.176 136.275 47.316 136.005 47.596C135.743 47.8667 135.613 48.254 135.613 48.758V53H133.233V48.758C133.233 48.254 133.097 47.8667 132.827 47.596C132.565 47.316 132.201 47.176 131.735 47.176C131.268 47.176 130.899 47.316 130.629 47.596C130.367 47.8667 130.237 48.254 130.237 48.758V53H127.843V45.188H130.237V46.168C130.479 45.8413 130.797 45.5847 131.189 45.398C131.581 45.202 132.024 45.104 132.519 45.104C133.107 45.104 133.629 45.23 134.087 45.482C134.553 45.734 134.917 46.0933 135.179 46.56C135.449 46.1307 135.818 45.7807 136.285 45.51C136.751 45.2393 137.26 45.104 137.811 45.104ZM150.027 48.968C150.027 49.192 150.013 49.4253 149.985 49.668H144.567C144.604 50.1533 144.758 50.5267 145.029 50.788C145.309 51.04 145.65 51.166 146.051 51.166C146.648 51.166 147.064 50.914 147.297 50.41H149.845C149.714 50.9233 149.476 51.3853 149.131 51.796C148.795 52.2067 148.37 52.5287 147.857 52.762C147.344 52.9953 146.77 53.112 146.135 53.112C145.37 53.112 144.688 52.9487 144.091 52.622C143.494 52.2953 143.027 51.8287 142.691 51.222C142.355 50.6153 142.187 49.906 142.187 49.094C142.187 48.282 142.35 47.5727 142.677 46.966C143.013 46.3593 143.48 45.8927 144.077 45.566C144.674 45.2393 145.36 45.076 146.135 45.076C146.891 45.076 147.563 45.2347 148.151 45.552C148.739 45.8693 149.196 46.322 149.523 46.91C149.859 47.498 150.027 48.184 150.027 48.968ZM147.577 48.338C147.577 47.9273 147.437 47.6007 147.157 47.358C146.877 47.1153 146.527 46.994 146.107 46.994C145.706 46.994 145.365 47.1107 145.085 47.344C144.814 47.5773 144.646 47.9087 144.581 48.338H147.577Z" fill="#C5C5C5"/>
<rect x="203" y="20" width="166" height="56" rx="28" fill="white"/>
<rect x="203" y="20" width="166" height="56" rx="28" stroke="black"/>
<path d="M251.112 39.1849C249.521 39.1849 247.081 40.1034 247.929 45.7914C247.943 45.8774 247.959 45.9703 247.977 46.0699C248.132 46.9254 248.371 48.2499 246.85 49.3419C247.884 50.1909 249.358 51.0394 251.148 51.4069C251.078 51.813 250.989 52.2157 250.882 52.6139C250.737 53.1479 250.432 53.5264 249.887 53.6879C249.407 53.8299 248.904 53.9449 248.389 54.0629C248.256 54.0929 248.123 54.1236 247.989 54.1549C247.346 54.3044 246.691 54.4699 246.111 54.7039C245.529 54.9389 244.988 55.2554 244.597 55.7274C244.199 56.2089 243.986 56.8159 244 57.5749C244.005 57.8109 244.207 57.9999 244.455 57.9999H262.544C262.792 57.9999 262.994 57.8109 262.999 57.5749C263.014 56.8159 262.801 56.2089 262.403 55.7274C262.012 55.2554 261.471 54.9384 260.889 54.7039C260.308 54.4694 259.653 54.3039 259.01 54.1544L258.611 54.0629C258.096 53.9449 257.593 53.8299 257.113 53.6879C256.568 53.5264 256.263 53.1479 256.117 52.6139C255.99 52.1398 255.889 51.6591 255.814 51.1739C257.183 50.7619 258.638 50.0214 260.15 48.8389L260.143 48.8319C259.433 48.1529 258.103 46.8799 258.009 43.8579C258.009 39.6969 255.356 36.0399 251.112 39.1849Z" fill="#C5C5C5" stroke="#C5C5C5" stroke-width="2" stroke-linejoin="round"/>
<path d="M282.766 43.172V45.09H278.762V47.162H281.758V49.024H278.762V53H276.368V43.172H282.766ZM291.388 48.968C291.388 49.192 291.374 49.4253 291.346 49.668H285.928C285.966 50.1533 286.12 50.5267 286.39 50.788C286.67 51.04 287.011 51.166 287.412 51.166C288.01 51.166 288.425 50.914 288.658 50.41H291.206C291.076 50.9233 290.838 51.3853 290.492 51.796C290.156 52.2067 289.732 52.5287 289.218 52.762C288.705 52.9953 288.131 53.112 287.496 53.112C286.731 53.112 286.05 52.9487 285.452 52.622C284.855 52.2953 284.388 51.8287 284.052 51.222C283.716 50.6153 283.548 49.906 283.548 49.094C283.548 48.282 283.712 47.5727 284.038 46.966C284.374 46.3593 284.841 45.8927 285.438 45.566C286.036 45.2393 286.722 45.076 287.496 45.076C288.252 45.076 288.924 45.2347 289.512 45.552C290.1 45.8693 290.558 46.322 290.884 46.91C291.22 47.498 291.388 48.184 291.388 48.968ZM288.938 48.338C288.938 47.9273 288.798 47.6007 288.518 47.358C288.238 47.1153 287.888 46.994 287.468 46.994C287.067 46.994 286.726 47.1107 286.446 47.344C286.176 47.5773 286.008 47.9087 285.942 48.338H288.938ZM302.619 45.104C303.59 45.104 304.36 45.398 304.929 45.986C305.508 46.574 305.797 47.3907 305.797 48.436V53H303.417V48.758C303.417 48.254 303.282 47.8667 303.011 47.596C302.75 47.316 302.386 47.176 301.919 47.176C301.453 47.176 301.084 47.316 300.813 47.596C300.552 47.8667 300.421 48.254 300.421 48.758V53H298.041V48.758C298.041 48.254 297.906 47.8667 297.635 47.596C297.374 47.316 297.01 47.176 296.543 47.176C296.077 47.176 295.708 47.316 295.437 47.596C295.176 47.8667 295.045 48.254 295.045 48.758V53H292.651V45.188H295.045V46.168C295.288 45.8413 295.605 45.5847 295.997 45.398C296.389 45.202 296.833 45.104 297.327 45.104C297.915 45.104 298.438 45.23 298.895 45.482C299.362 45.734 299.726 46.0933 299.987 46.56C300.258 46.1307 300.627 45.7807 301.093 45.51C301.56 45.2393 302.069 45.104 302.619 45.104ZM317.44 45.104C318.41 45.104 319.18 45.398 319.75 45.986C320.328 46.574 320.618 47.3907 320.618 48.436V53H318.238V48.758C318.238 48.254 318.102 47.8667 317.832 47.596C317.57 47.316 317.206 47.176 316.74 47.176C316.273 47.176 315.904 47.316 315.634 47.596C315.372 47.8667 315.242 48.254 315.242 48.758V53H312.862V48.758C312.862 48.254 312.726 47.8667 312.456 47.596C312.194 47.316 311.83 47.176 311.364 47.176C310.897 47.176 310.528 47.316 310.258 47.596C309.996 47.8667 309.866 48.254 309.866 48.758V53H307.472V45.188H309.866V46.168C310.108 45.8413 310.426 45.5847 310.818 45.398C311.21 45.202 311.653 45.104 312.148 45.104C312.736 45.104 313.258 45.23 313.716 45.482C314.182 45.734 314.546 46.0933 314.808 46.56C315.078 46.1307 315.447 45.7807 315.914 45.51C316.38 45.2393 316.889 45.104 317.44 45.104ZM329.656 48.968C329.656 49.192 329.642 49.4253 329.614 49.668H324.196C324.233 50.1533 324.387 50.5267 324.658 50.788C324.938 51.04 325.278 51.166 325.68 51.166C326.277 51.166 326.692 50.914 326.926 50.41H329.474C329.343 50.9233 329.105 51.3853 328.76 51.796C328.424 52.2067 327.999 52.5287 327.486 52.762C326.972 52.9953 326.398 53.112 325.764 53.112C324.998 53.112 324.317 52.9487 323.72 52.622C323.122 52.2953 322.656 51.8287 322.32 51.222C321.984 50.6153 321.816 49.906 321.816 49.094C321.816 48.282 321.979 47.5727 322.306 46.966C322.642 46.3593 323.108 45.8927 323.706 45.566C324.303 45.2393 324.989 45.076 325.764 45.076C326.52 45.076 327.192 45.2347 327.78 45.552C328.368 45.8693 328.825 46.322 329.152 46.91C329.488 47.498 329.656 48.184 329.656 48.968ZM327.206 48.338C327.206 47.9273 327.066 47.6007 326.786 47.358C326.506 47.1153 326.156 46.994 325.736 46.994C325.334 46.994 324.994 47.1107 324.714 47.344C324.443 47.5773 324.275 47.9087 324.21 48.338H327.206Z" fill="#C5C5C5"/>
</svg>
