<svg width="394" height="360" viewBox="0 0 394 360" fill="none" xmlns="http://www.w3.org/2000/svg">
<rect x="0.5" y="0.795166" width="393" height="358.705" rx="4.5" stroke="#9747FF" stroke-dasharray="10 5"/>
<mask id="path-2-inside-1_67_1384" fill="white">
<path d="M20 20.2952H374V100.295H20V20.2952Z"/>
</mask>
<path d="M374 98.2952H20V102.295H374V98.2952Z" fill="#EEEEEE" mask="url(#path-2-inside-1_67_1384)"/>
<path opacity="0.3" fill-rule="evenodd" clip-rule="evenodd" d="M81.6667 58.6285C82.5077 58.6282 83.3177 58.9458 83.9343 59.5177C84.551 60.0895 84.9287 60.8732 84.9917 61.7118L85.0001 61.9618V71.9618C85.0003 72.8028 84.6827 73.6128 84.1109 74.2294C83.5391 74.846 82.7553 75.2238 81.9167 75.2868L81.6667 75.2952H75.0001C74.1591 75.2954 73.3491 74.9778 72.7325 74.406C72.1159 73.8342 71.7382 73.0504 71.6751 72.2118L71.6667 71.9618V61.9618C71.6665 61.1209 71.9841 60.3109 72.5559 59.6943C73.1277 59.0776 73.9115 58.6999 74.7501 58.6368L75.0001 58.6285H81.6667ZM81.6667 45.2952C82.5508 45.2952 83.3986 45.6464 84.0238 46.2715C84.6489 46.8966 85.0001 47.7444 85.0001 48.6285V51.9618C85.0001 52.8459 84.6489 53.6937 84.0238 54.3189C83.3986 54.944 82.5508 55.2952 81.6667 55.2952H75.0001C74.116 55.2952 73.2682 54.944 72.6431 54.3189C72.0179 53.6937 71.6667 52.8459 71.6667 51.9618V48.6285C71.6667 47.7444 72.0179 46.8966 72.6431 46.2715C73.2682 45.6464 74.116 45.2952 75.0001 45.2952H81.6667Z" fill="#FFC244"/>
<path fill-rule="evenodd" clip-rule="evenodd" d="M65 45.2952C65.8841 45.2952 66.7319 45.6464 67.357 46.2715C67.9821 46.8966 68.3333 47.7444 68.3333 48.6285V58.6285C68.3333 59.5126 67.9821 60.3604 67.357 60.9855C66.7319 61.6106 65.8841 61.9618 65 61.9618H58.3333C57.4493 61.9618 56.6014 61.6106 55.9763 60.9855C55.3512 60.3604 55 59.5126 55 58.6285V48.6285C55 47.7444 55.3512 46.8966 55.9763 46.2715C56.6014 45.6464 57.4493 45.2952 58.3333 45.2952H65Z" fill="#FFC244"/>
<path opacity="0.3" fill-rule="evenodd" clip-rule="evenodd" d="M65 65.2952C65.8841 65.2952 66.7319 65.6464 67.357 66.2715C67.9821 66.8966 68.3333 67.7444 68.3333 68.6285V71.9618C68.3333 72.8459 67.9821 73.6937 67.357 74.3189C66.7319 74.944 65.8841 75.2952 65 75.2952H58.3333C57.4493 75.2952 56.6014 74.944 55.9763 74.3189C55.3512 73.6937 55 72.8459 55 71.9618V68.6285C55 67.7444 55.3512 66.8966 55.9763 66.2715C56.6014 65.6464 57.4493 65.2952 58.3333 65.2952H65Z" fill="#FFC244"/>
<path d="M110.288 54.6152H119.232V56.9192H115.952V66.2952H113.568V56.9192H110.288V54.6152ZM121.228 58.6792C122.039 57.7938 123.02 57.3512 124.172 57.3512C124.769 57.3512 125.319 57.5005 125.82 57.7992C126.321 58.0978 126.705 58.4818 126.972 58.9512L127.116 57.4952H129.164V66.2952H127.116L126.972 64.8232C126.705 65.2925 126.321 65.6765 125.82 65.9752C125.319 66.2738 124.769 66.4232 124.172 66.4232C123.02 66.4232 122.039 65.9805 121.228 65.0952C120.417 64.1992 120.012 63.1272 120.012 61.8792C120.012 60.6312 120.417 59.5645 121.228 58.6792ZM122.956 63.5112C123.404 63.9698 123.948 64.1992 124.588 64.1992C125.239 64.1992 125.788 63.9752 126.236 63.5272C126.684 63.0685 126.908 62.5192 126.908 61.8792C126.908 61.2392 126.684 60.6952 126.236 60.2472C125.788 59.7885 125.239 59.5592 124.588 59.5592C123.948 59.5592 123.404 59.7885 122.956 60.2472C122.508 60.6952 122.284 61.2392 122.284 61.8792C122.284 62.5192 122.508 63.0632 122.956 63.5112ZM131.038 53.8152H133.294V58.8712C133.55 58.4232 133.923 58.0605 134.414 57.7832C134.915 57.4952 135.454 57.3512 136.03 57.3512C137.171 57.3512 138.147 57.7938 138.958 58.6792C139.779 59.5645 140.19 60.6312 140.19 61.8792C140.19 63.1272 139.779 64.1992 138.958 65.0952C138.147 65.9805 137.171 66.4232 136.03 66.4232C135.432 66.4232 134.878 66.2738 134.366 65.9752C133.864 65.6765 133.486 65.2925 133.23 64.8232L133.086 66.2952H131.038V53.8152ZM133.966 63.5112C134.414 63.9698 134.963 64.1992 135.614 64.1992C136.254 64.1992 136.798 63.9752 137.246 63.5272C137.694 63.0685 137.918 62.5192 137.918 61.8792C137.918 61.2392 137.694 60.6952 137.246 60.2472C136.798 59.7885 136.254 59.5592 135.614 59.5592C134.963 59.5592 134.414 59.7885 133.966 60.2472C133.518 60.6952 133.294 61.2392 133.294 61.8792C133.294 62.5192 133.518 63.0632 133.966 63.5112ZM143.888 66.2952H141.632V53.8152H143.888V66.2952ZM146.637 58.6952C147.511 57.8098 148.573 57.3672 149.821 57.3672C151.079 57.3672 152.141 57.8098 153.005 58.6952C153.879 59.5805 154.317 60.6472 154.317 61.8952C154.317 62.1298 154.295 62.4285 154.253 62.7912H147.741C147.858 63.2498 148.125 63.6285 148.541 63.9272C148.967 64.2152 149.463 64.3592 150.029 64.3592C150.893 64.3592 151.57 64.0872 152.061 63.5432L153.869 64.6792C153.453 65.2125 152.893 65.6392 152.189 65.9592C151.485 66.2792 150.765 66.4392 150.029 66.4392C148.674 66.4392 147.549 66.0018 146.653 65.1272C145.767 64.2418 145.325 63.1645 145.325 61.8952C145.325 60.6472 145.762 59.5805 146.637 58.6952ZM147.741 60.9992H151.981C151.917 60.5725 151.687 60.2098 151.293 59.9112C150.898 59.6125 150.413 59.4632 149.837 59.4632C149.271 59.4632 148.797 59.6125 148.413 59.9112C148.039 60.2098 147.815 60.5725 147.741 60.9992ZM156.541 58.6792C157.351 57.7938 158.333 57.3512 159.485 57.3512C160.082 57.3512 160.631 57.5005 161.133 57.7992C161.634 58.0978 162.018 58.4818 162.285 58.9512L162.429 57.4952H164.477V66.2952H162.429L162.285 64.8232C162.018 65.2925 161.634 65.6765 161.133 65.9752C160.631 66.2738 160.082 66.4232 159.485 66.4232C158.333 66.4232 157.351 65.9805 156.541 65.0952C155.73 64.1992 155.325 63.1272 155.325 61.8792C155.325 60.6312 155.73 59.5645 156.541 58.6792ZM158.269 63.5112C158.717 63.9698 159.261 64.1992 159.901 64.1992C160.551 64.1992 161.101 63.9752 161.549 63.5272C161.997 63.0685 162.221 62.5192 162.221 61.8792C162.221 61.2392 161.997 60.6952 161.549 60.2472C161.101 59.7885 160.551 59.5592 159.901 59.5592C159.261 59.5592 158.717 59.7885 158.269 60.2472C157.821 60.6952 157.597 61.2392 157.597 61.8792C157.597 62.5192 157.821 63.0632 158.269 63.5112ZM166.206 57.4952H168.462V61.9752C168.462 62.7112 168.633 63.2712 168.974 63.6552C169.316 64.0285 169.748 64.2152 170.27 64.2152C170.782 64.2152 171.209 64.0285 171.55 63.6552C171.902 63.2712 172.078 62.7112 172.078 61.9752V57.4952H174.318V66.2952H172.27L172.142 64.9992C171.886 65.4258 171.545 65.7725 171.118 66.0392C170.692 66.3058 170.212 66.4392 169.678 66.4392C168.612 66.4392 167.764 66.0712 167.134 65.3352C166.516 64.5885 166.206 63.4685 166.206 61.9752V57.4952ZM181.275 58.6792C182.086 57.7938 183.067 57.3512 184.219 57.3512C184.795 57.3512 185.328 57.4952 185.819 57.7832C186.31 58.0605 186.688 58.4232 186.955 58.8712V53.8152H189.211V66.2952H187.163L187.019 64.8232C186.752 65.2925 186.368 65.6765 185.867 65.9752C185.366 66.2738 184.816 66.4232 184.219 66.4232C183.067 66.4232 182.086 65.9805 181.275 65.0952C180.464 64.1992 180.059 63.1272 180.059 61.8792C180.059 60.6312 180.464 59.5645 181.275 58.6792ZM183.003 63.5112C183.451 63.9698 183.995 64.1992 184.635 64.1992C185.286 64.1992 185.835 63.9752 186.283 63.5272C186.731 63.0685 186.955 62.5192 186.955 61.8792C186.955 61.2392 186.731 60.6952 186.283 60.2472C185.835 59.7885 185.286 59.5592 184.635 59.5592C183.995 59.5592 183.451 59.7885 183.003 60.2472C182.555 60.6952 182.331 61.2392 182.331 61.8792C182.331 62.5192 182.555 63.0632 183.003 63.5112ZM191.965 58.6952C192.839 57.8098 193.901 57.3672 195.149 57.3672C196.407 57.3672 197.469 57.8098 198.333 58.6952C199.207 59.5805 199.645 60.6472 199.645 61.8952C199.645 62.1298 199.623 62.4285 199.581 62.7912H193.069C193.186 63.2498 193.453 63.6285 193.869 63.9272C194.295 64.2152 194.791 64.3592 195.357 64.3592C196.221 64.3592 196.898 64.0872 197.389 63.5432L199.197 64.6792C198.781 65.2125 198.221 65.6392 197.517 65.9592C196.813 66.2792 196.093 66.4392 195.357 66.4392C194.002 66.4392 192.877 66.0018 191.981 65.1272C191.095 64.2418 190.653 63.1645 190.653 61.8952C190.653 60.6472 191.09 59.5805 191.965 58.6952ZM193.069 60.9992H197.309C197.245 60.5725 197.015 60.2098 196.621 59.9112C196.226 59.6125 195.741 59.4632 195.165 59.4632C194.599 59.4632 194.125 59.6125 193.741 59.9112C193.367 60.2098 193.143 60.5725 193.069 60.9992ZM205.366 53.8152H207.622V58.8712C207.878 58.4232 208.251 58.0605 208.742 57.7832C209.243 57.4952 209.782 57.3512 210.358 57.3512C211.499 57.3512 212.475 57.7938 213.286 58.6792C214.107 59.5645 214.518 60.6312 214.518 61.8792C214.518 63.1272 214.107 64.1992 213.286 65.0952C212.475 65.9805 211.499 66.4232 210.358 66.4232C209.761 66.4232 209.206 66.2738 208.694 65.9752C208.193 65.6765 207.814 65.2925 207.558 64.8232L207.414 66.2952H205.366V53.8152ZM208.294 63.5112C208.742 63.9698 209.291 64.1992 209.942 64.1992C210.582 64.1992 211.126 63.9752 211.574 63.5272C212.022 63.0685 212.246 62.5192 212.246 61.8792C212.246 61.2392 212.022 60.6952 211.574 60.2472C211.126 59.7885 210.582 59.5592 209.942 59.5592C209.291 59.5592 208.742 59.7885 208.294 60.2472C207.846 60.6952 207.622 61.2392 207.622 61.8792C207.622 62.5192 207.846 63.0632 208.294 63.5112ZM216.856 58.6952C217.73 57.8098 218.792 57.3672 220.04 57.3672C221.288 57.3672 222.354 57.8152 223.24 58.7112C224.136 59.5965 224.584 60.6578 224.584 61.8952C224.584 63.1432 224.141 64.2098 223.256 65.0952C222.36 65.9912 221.288 66.4392 220.04 66.4392C218.792 66.4392 217.725 65.9965 216.84 65.1112C215.965 64.2152 215.528 63.1432 215.528 61.8952C215.528 60.6472 215.97 59.5805 216.856 58.6952ZM217.8 61.8952C217.8 62.5245 218.018 63.0578 218.456 63.4952C218.893 63.9325 219.421 64.1512 220.04 64.1512C220.669 64.1512 221.202 63.9325 221.64 63.4952C222.077 63.0578 222.296 62.5245 222.296 61.8952C222.296 61.2765 222.077 60.7485 221.64 60.3112C221.202 59.8738 220.669 59.6552 220.04 59.6552C219.421 59.6552 218.893 59.8738 218.456 60.3112C218.018 60.7485 217.8 61.2765 217.8 61.8952ZM226.022 57.4952H228.07L228.23 58.7592C228.753 57.8738 229.622 57.4312 230.838 57.4312C231.147 57.4312 231.414 57.4525 231.638 57.4952L231.174 59.6552C231.046 59.6338 230.955 59.6232 230.902 59.6232C230.155 59.6232 229.531 59.8525 229.03 60.3112C228.529 60.7592 228.278 61.5218 228.278 62.5992V66.2952H226.022V57.4952ZM233.697 58.6792C234.507 57.7938 235.489 57.3512 236.641 57.3512C237.217 57.3512 237.75 57.4952 238.241 57.7832C238.731 58.0605 239.11 58.4232 239.377 58.8712V53.8152H241.633V66.2952H239.585L239.441 64.8232C239.174 65.2925 238.79 65.6765 238.289 65.9752C237.787 66.2738 237.238 66.4232 236.641 66.4232C235.489 66.4232 234.507 65.9805 233.697 65.0952C232.886 64.1992 232.481 63.1272 232.481 61.8792C232.481 60.6312 232.886 59.5645 233.697 58.6792ZM235.425 63.5112C235.873 63.9698 236.417 64.1992 237.057 64.1992C237.707 64.1992 238.257 63.9752 238.705 63.5272C239.153 63.0685 239.377 62.5192 239.377 61.8792C239.377 61.2392 239.153 60.6952 238.705 60.2472C238.257 59.7885 237.707 59.5592 237.057 59.5592C236.417 59.5592 235.873 59.7885 235.425 60.2472C234.977 60.6952 234.753 61.2392 234.753 61.8792C234.753 62.5192 234.977 63.0632 235.425 63.5112Z" fill="black"/>
<mask id="path-8-inside-2_67_1384" fill="white">
<path d="M20 136H374V216H20V136Z"/>
</mask>
<path d="M20 136H374V216H20V136Z" fill="black" fill-opacity="0.05"/>
<path d="M374 214H20V218H374V214Z" fill="#EEEEEE" mask="url(#path-8-inside-2_67_1384)"/>
<path opacity="0.3" fill-rule="evenodd" clip-rule="evenodd" d="M81.6667 174.333C82.5077 174.333 83.3177 174.651 83.9343 175.222C84.551 175.794 84.9287 176.578 84.9917 177.417L85.0001 177.667V187.667C85.0003 188.508 84.6827 189.318 84.1109 189.934C83.5391 190.551 82.7553 190.929 81.9167 190.992L81.6667 191H75.0001C74.1591 191 73.3491 190.683 72.7325 190.111C72.1159 189.539 71.7382 188.755 71.6751 187.917L71.6667 187.667V177.667C71.6665 176.826 71.9841 176.016 72.5559 175.399C73.1277 174.782 73.9115 174.405 74.7501 174.342L75.0001 174.333H81.6667ZM81.6667 161C82.5508 161 83.3986 161.351 84.0238 161.976C84.6489 162.601 85.0001 163.449 85.0001 164.333V167.667C85.0001 168.551 84.6489 169.399 84.0238 170.024C83.3986 170.649 82.5508 171 81.6667 171H75.0001C74.116 171 73.2682 170.649 72.6431 170.024C72.0179 169.399 71.6667 168.551 71.6667 167.667V164.333C71.6667 163.449 72.0179 162.601 72.6431 161.976C73.2682 161.351 74.116 161 75.0001 161H81.6667Z" fill="#FFC244"/>
<path fill-rule="evenodd" clip-rule="evenodd" d="M65 161C65.8841 161 66.7319 161.351 67.357 161.976C67.9821 162.601 68.3333 163.449 68.3333 164.333V174.333C68.3333 175.217 67.9821 176.065 67.357 176.69C66.7319 177.315 65.8841 177.667 65 177.667H58.3333C57.4493 177.667 56.6014 177.315 55.9763 176.69C55.3512 176.065 55 175.217 55 174.333V164.333C55 163.449 55.3512 162.601 55.9763 161.976C56.6014 161.351 57.4493 161 58.3333 161H65Z" fill="#FFC244"/>
<path opacity="0.3" fill-rule="evenodd" clip-rule="evenodd" d="M65 181C65.8841 181 66.7319 181.351 67.357 181.976C67.9821 182.601 68.3333 183.449 68.3333 184.333V187.667C68.3333 188.551 67.9821 189.399 67.357 190.024C66.7319 190.649 65.8841 191 65 191H58.3333C57.4493 191 56.6014 190.649 55.9763 190.024C55.3512 189.399 55 188.551 55 187.667V184.333C55 183.449 55.3512 182.601 55.9763 181.976C56.6014 181.351 57.4493 181 58.3333 181H65Z" fill="#FFC244"/>
<path d="M110.288 170.32H119.232V172.624H115.952V182H113.568V172.624H110.288V170.32ZM121.228 174.384C122.039 173.499 123.02 173.056 124.172 173.056C124.769 173.056 125.319 173.205 125.82 173.504C126.321 173.803 126.705 174.187 126.972 174.656L127.116 173.2H129.164V182H127.116L126.972 180.528C126.705 180.997 126.321 181.381 125.82 181.68C125.319 181.979 124.769 182.128 124.172 182.128C123.02 182.128 122.039 181.685 121.228 180.8C120.417 179.904 120.012 178.832 120.012 177.584C120.012 176.336 120.417 175.269 121.228 174.384ZM122.956 179.216C123.404 179.675 123.948 179.904 124.588 179.904C125.239 179.904 125.788 179.68 126.236 179.232C126.684 178.773 126.908 178.224 126.908 177.584C126.908 176.944 126.684 176.4 126.236 175.952C125.788 175.493 125.239 175.264 124.588 175.264C123.948 175.264 123.404 175.493 122.956 175.952C122.508 176.4 122.284 176.944 122.284 177.584C122.284 178.224 122.508 178.768 122.956 179.216ZM131.038 169.52H133.294V174.576C133.55 174.128 133.923 173.765 134.414 173.488C134.915 173.2 135.454 173.056 136.03 173.056C137.171 173.056 138.147 173.499 138.958 174.384C139.779 175.269 140.19 176.336 140.19 177.584C140.19 178.832 139.779 179.904 138.958 180.8C138.147 181.685 137.171 182.128 136.03 182.128C135.432 182.128 134.878 181.979 134.366 181.68C133.864 181.381 133.486 180.997 133.23 180.528L133.086 182H131.038V169.52ZM133.966 179.216C134.414 179.675 134.963 179.904 135.614 179.904C136.254 179.904 136.798 179.68 137.246 179.232C137.694 178.773 137.918 178.224 137.918 177.584C137.918 176.944 137.694 176.4 137.246 175.952C136.798 175.493 136.254 175.264 135.614 175.264C134.963 175.264 134.414 175.493 133.966 175.952C133.518 176.4 133.294 176.944 133.294 177.584C133.294 178.224 133.518 178.768 133.966 179.216ZM143.888 182H141.632V169.52H143.888V182ZM146.637 174.4C147.511 173.515 148.573 173.072 149.821 173.072C151.079 173.072 152.141 173.515 153.005 174.4C153.879 175.285 154.317 176.352 154.317 177.6C154.317 177.835 154.295 178.133 154.253 178.496H147.741C147.858 178.955 148.125 179.333 148.541 179.632C148.967 179.92 149.463 180.064 150.029 180.064C150.893 180.064 151.57 179.792 152.061 179.248L153.869 180.384C153.453 180.917 152.893 181.344 152.189 181.664C151.485 181.984 150.765 182.144 150.029 182.144C148.674 182.144 147.549 181.707 146.653 180.832C145.767 179.947 145.325 178.869 145.325 177.6C145.325 176.352 145.762 175.285 146.637 174.4ZM147.741 176.704H151.981C151.917 176.277 151.687 175.915 151.293 175.616C150.898 175.317 150.413 175.168 149.837 175.168C149.271 175.168 148.797 175.317 148.413 175.616C148.039 175.915 147.815 176.277 147.741 176.704ZM156.541 174.384C157.351 173.499 158.333 173.056 159.485 173.056C160.082 173.056 160.631 173.205 161.133 173.504C161.634 173.803 162.018 174.187 162.285 174.656L162.429 173.2H164.477V182H162.429L162.285 180.528C162.018 180.997 161.634 181.381 161.133 181.68C160.631 181.979 160.082 182.128 159.485 182.128C158.333 182.128 157.351 181.685 156.541 180.8C155.73 179.904 155.325 178.832 155.325 177.584C155.325 176.336 155.73 175.269 156.541 174.384ZM158.269 179.216C158.717 179.675 159.261 179.904 159.901 179.904C160.551 179.904 161.101 179.68 161.549 179.232C161.997 178.773 162.221 178.224 162.221 177.584C162.221 176.944 161.997 176.4 161.549 175.952C161.101 175.493 160.551 175.264 159.901 175.264C159.261 175.264 158.717 175.493 158.269 175.952C157.821 176.4 157.597 176.944 157.597 177.584C157.597 178.224 157.821 178.768 158.269 179.216ZM166.206 173.2H168.462V177.68C168.462 178.416 168.633 178.976 168.974 179.36C169.316 179.733 169.748 179.92 170.27 179.92C170.782 179.92 171.209 179.733 171.55 179.36C171.902 178.976 172.078 178.416 172.078 177.68V173.2H174.318V182H172.27L172.142 180.704C171.886 181.131 171.545 181.477 171.118 181.744C170.692 182.011 170.212 182.144 169.678 182.144C168.612 182.144 167.764 181.776 167.134 181.04C166.516 180.293 166.206 179.173 166.206 177.68V173.2ZM181.275 174.384C182.086 173.499 183.067 173.056 184.219 173.056C184.795 173.056 185.328 173.2 185.819 173.488C186.31 173.765 186.688 174.128 186.955 174.576V169.52H189.211V182H187.163L187.019 180.528C186.752 180.997 186.368 181.381 185.867 181.68C185.366 181.979 184.816 182.128 184.219 182.128C183.067 182.128 182.086 181.685 181.275 180.8C180.464 179.904 180.059 178.832 180.059 177.584C180.059 176.336 180.464 175.269 181.275 174.384ZM183.003 179.216C183.451 179.675 183.995 179.904 184.635 179.904C185.286 179.904 185.835 179.68 186.283 179.232C186.731 178.773 186.955 178.224 186.955 177.584C186.955 176.944 186.731 176.4 186.283 175.952C185.835 175.493 185.286 175.264 184.635 175.264C183.995 175.264 183.451 175.493 183.003 175.952C182.555 176.4 182.331 176.944 182.331 177.584C182.331 178.224 182.555 178.768 183.003 179.216ZM191.965 174.4C192.839 173.515 193.901 173.072 195.149 173.072C196.407 173.072 197.469 173.515 198.333 174.4C199.207 175.285 199.645 176.352 199.645 177.6C199.645 177.835 199.623 178.133 199.581 178.496H193.069C193.186 178.955 193.453 179.333 193.869 179.632C194.295 179.92 194.791 180.064 195.357 180.064C196.221 180.064 196.898 179.792 197.389 179.248L199.197 180.384C198.781 180.917 198.221 181.344 197.517 181.664C196.813 181.984 196.093 182.144 195.357 182.144C194.002 182.144 192.877 181.707 191.981 180.832C191.095 179.947 190.653 178.869 190.653 177.6C190.653 176.352 191.09 175.285 191.965 174.4ZM193.069 176.704H197.309C197.245 176.277 197.015 175.915 196.621 175.616C196.226 175.317 195.741 175.168 195.165 175.168C194.599 175.168 194.125 175.317 193.741 175.616C193.367 175.915 193.143 176.277 193.069 176.704ZM205.366 169.52H207.622V174.576C207.878 174.128 208.251 173.765 208.742 173.488C209.243 173.2 209.782 173.056 210.358 173.056C211.499 173.056 212.475 173.499 213.286 174.384C214.107 175.269 214.518 176.336 214.518 177.584C214.518 178.832 214.107 179.904 213.286 180.8C212.475 181.685 211.499 182.128 210.358 182.128C209.761 182.128 209.206 181.979 208.694 181.68C208.193 181.381 207.814 180.997 207.558 180.528L207.414 182H205.366V169.52ZM208.294 179.216C208.742 179.675 209.291 179.904 209.942 179.904C210.582 179.904 211.126 179.68 211.574 179.232C212.022 178.773 212.246 178.224 212.246 177.584C212.246 176.944 212.022 176.4 211.574 175.952C211.126 175.493 210.582 175.264 209.942 175.264C209.291 175.264 208.742 175.493 208.294 175.952C207.846 176.4 207.622 176.944 207.622 177.584C207.622 178.224 207.846 178.768 208.294 179.216ZM216.856 174.4C217.73 173.515 218.792 173.072 220.04 173.072C221.288 173.072 222.354 173.52 223.24 174.416C224.136 175.301 224.584 176.363 224.584 177.6C224.584 178.848 224.141 179.915 223.256 180.8C222.36 181.696 221.288 182.144 220.04 182.144C218.792 182.144 217.725 181.701 216.84 180.816C215.965 179.92 215.528 178.848 215.528 177.6C215.528 176.352 215.97 175.285 216.856 174.4ZM217.8 177.6C217.8 178.229 218.018 178.763 218.456 179.2C218.893 179.637 219.421 179.856 220.04 179.856C220.669 179.856 221.202 179.637 221.64 179.2C222.077 178.763 222.296 178.229 222.296 177.6C222.296 176.981 222.077 176.453 221.64 176.016C221.202 175.579 220.669 175.36 220.04 175.36C219.421 175.36 218.893 175.579 218.456 176.016C218.018 176.453 217.8 176.981 217.8 177.6ZM226.022 173.2H228.07L228.23 174.464C228.753 173.579 229.622 173.136 230.838 173.136C231.147 173.136 231.414 173.157 231.638 173.2L231.174 175.36C231.046 175.339 230.955 175.328 230.902 175.328C230.155 175.328 229.531 175.557 229.03 176.016C228.529 176.464 228.278 177.227 228.278 178.304V182H226.022V173.2ZM233.697 174.384C234.507 173.499 235.489 173.056 236.641 173.056C237.217 173.056 237.75 173.2 238.241 173.488C238.731 173.765 239.11 174.128 239.377 174.576V169.52H241.633V182H239.585L239.441 180.528C239.174 180.997 238.79 181.381 238.289 181.68C237.787 181.979 237.238 182.128 236.641 182.128C235.489 182.128 234.507 181.685 233.697 180.8C232.886 179.904 232.481 178.832 232.481 177.584C232.481 176.336 232.886 175.269 233.697 174.384ZM235.425 179.216C235.873 179.675 236.417 179.904 237.057 179.904C237.707 179.904 238.257 179.68 238.705 179.232C239.153 178.773 239.377 178.224 239.377 177.584C239.377 176.944 239.153 176.4 238.705 175.952C238.257 175.493 237.707 175.264 237.057 175.264C236.417 175.264 235.873 175.493 235.425 175.952C234.977 176.4 234.753 176.944 234.753 177.584C234.753 178.224 234.977 178.768 235.425 179.216Z" fill="black"/>
<mask id="path-14-inside-3_67_1384" fill="white">
<path d="M20 260H374V340H20V260Z"/>
</mask>
<path d="M20 260H374V340H20V260Z" fill="#FFC244"/>
<path d="M374 338H20V342H374V338Z" fill="#EEEEEE" mask="url(#path-14-inside-3_67_1384)"/>
<path opacity="0.3" fill-rule="evenodd" clip-rule="evenodd" d="M81.6667 298.333C82.5077 298.333 83.3177 298.651 83.9343 299.222C84.551 299.794 84.9287 300.578 84.9917 301.417L85.0001 301.667V311.667C85.0003 312.508 84.6827 313.318 84.1109 313.934C83.5391 314.551 82.7553 314.929 81.9167 314.992L81.6667 315H75.0001C74.1591 315 73.3491 314.683 72.7325 314.111C72.1159 313.539 71.7382 312.755 71.6751 311.917L71.6667 311.667V301.667C71.6665 300.826 71.9841 300.016 72.5559 299.399C73.1277 298.782 73.9115 298.405 74.7501 298.342L75.0001 298.333H81.6667ZM81.6667 285C82.5508 285 83.3986 285.351 84.0238 285.976C84.6489 286.601 85.0001 287.449 85.0001 288.333V291.667C85.0001 292.551 84.6489 293.399 84.0238 294.024C83.3986 294.649 82.5508 295 81.6667 295H75.0001C74.116 295 73.2682 294.649 72.6431 294.024C72.0179 293.399 71.6667 292.551 71.6667 291.667V288.333C71.6667 287.449 72.0179 286.601 72.6431 285.976C73.2682 285.351 74.116 285 75.0001 285H81.6667Z" fill="white"/>
<path fill-rule="evenodd" clip-rule="evenodd" d="M65 285C65.8841 285 66.7319 285.351 67.357 285.976C67.9821 286.601 68.3333 287.449 68.3333 288.333V298.333C68.3333 299.217 67.9821 300.065 67.357 300.69C66.7319 301.315 65.8841 301.667 65 301.667H58.3333C57.4493 301.667 56.6014 301.315 55.9763 300.69C55.3512 300.065 55 299.217 55 298.333V288.333C55 287.449 55.3512 286.601 55.9763 285.976C56.6014 285.351 57.4493 285 58.3333 285H65Z" fill="white"/>
<path opacity="0.3" fill-rule="evenodd" clip-rule="evenodd" d="M65 305C65.8841 305 66.7319 305.351 67.357 305.976C67.9821 306.601 68.3333 307.449 68.3333 308.333V311.667C68.3333 312.551 67.9821 313.399 67.357 314.024C66.7319 314.649 65.8841 315 65 315H58.3333C57.4493 315 56.6014 314.649 55.9763 314.024C55.3512 313.399 55 312.551 55 311.667V308.333C55 307.449 55.3512 306.601 55.9763 305.976C56.6014 305.351 57.4493 305 58.3333 305H65Z" fill="white"/>
<path d="M110.288 294.32H119.232V296.624H115.952V306H113.568V296.624H110.288V294.32ZM121.228 298.384C122.039 297.499 123.02 297.056 124.172 297.056C124.769 297.056 125.319 297.205 125.82 297.504C126.321 297.803 126.705 298.187 126.972 298.656L127.116 297.2H129.164V306H127.116L126.972 304.528C126.705 304.997 126.321 305.381 125.82 305.68C125.319 305.979 124.769 306.128 124.172 306.128C123.02 306.128 122.039 305.685 121.228 304.8C120.417 303.904 120.012 302.832 120.012 301.584C120.012 300.336 120.417 299.269 121.228 298.384ZM122.956 303.216C123.404 303.675 123.948 303.904 124.588 303.904C125.239 303.904 125.788 303.68 126.236 303.232C126.684 302.773 126.908 302.224 126.908 301.584C126.908 300.944 126.684 300.4 126.236 299.952C125.788 299.493 125.239 299.264 124.588 299.264C123.948 299.264 123.404 299.493 122.956 299.952C122.508 300.4 122.284 300.944 122.284 301.584C122.284 302.224 122.508 302.768 122.956 303.216ZM131.038 293.52H133.294V298.576C133.55 298.128 133.923 297.765 134.414 297.488C134.915 297.2 135.454 297.056 136.03 297.056C137.171 297.056 138.147 297.499 138.958 298.384C139.779 299.269 140.19 300.336 140.19 301.584C140.19 302.832 139.779 303.904 138.958 304.8C138.147 305.685 137.171 306.128 136.03 306.128C135.432 306.128 134.878 305.979 134.366 305.68C133.864 305.381 133.486 304.997 133.23 304.528L133.086 306H131.038V293.52ZM133.966 303.216C134.414 303.675 134.963 303.904 135.614 303.904C136.254 303.904 136.798 303.68 137.246 303.232C137.694 302.773 137.918 302.224 137.918 301.584C137.918 300.944 137.694 300.4 137.246 299.952C136.798 299.493 136.254 299.264 135.614 299.264C134.963 299.264 134.414 299.493 133.966 299.952C133.518 300.4 133.294 300.944 133.294 301.584C133.294 302.224 133.518 302.768 133.966 303.216ZM143.888 306H141.632V293.52H143.888V306ZM146.637 298.4C147.511 297.515 148.573 297.072 149.821 297.072C151.079 297.072 152.141 297.515 153.005 298.4C153.879 299.285 154.317 300.352 154.317 301.6C154.317 301.835 154.295 302.133 154.253 302.496H147.741C147.858 302.955 148.125 303.333 148.541 303.632C148.967 303.92 149.463 304.064 150.029 304.064C150.893 304.064 151.57 303.792 152.061 303.248L153.869 304.384C153.453 304.917 152.893 305.344 152.189 305.664C151.485 305.984 150.765 306.144 150.029 306.144C148.674 306.144 147.549 305.707 146.653 304.832C145.767 303.947 145.325 302.869 145.325 301.6C145.325 300.352 145.762 299.285 146.637 298.4ZM147.741 300.704H151.981C151.917 300.277 151.687 299.915 151.293 299.616C150.898 299.317 150.413 299.168 149.837 299.168C149.271 299.168 148.797 299.317 148.413 299.616C148.039 299.915 147.815 300.277 147.741 300.704ZM156.541 298.384C157.351 297.499 158.333 297.056 159.485 297.056C160.082 297.056 160.631 297.205 161.133 297.504C161.634 297.803 162.018 298.187 162.285 298.656L162.429 297.2H164.477V306H162.429L162.285 304.528C162.018 304.997 161.634 305.381 161.133 305.68C160.631 305.979 160.082 306.128 159.485 306.128C158.333 306.128 157.351 305.685 156.541 304.8C155.73 303.904 155.325 302.832 155.325 301.584C155.325 300.336 155.73 299.269 156.541 298.384ZM158.269 303.216C158.717 303.675 159.261 303.904 159.901 303.904C160.551 303.904 161.101 303.68 161.549 303.232C161.997 302.773 162.221 302.224 162.221 301.584C162.221 300.944 161.997 300.4 161.549 299.952C161.101 299.493 160.551 299.264 159.901 299.264C159.261 299.264 158.717 299.493 158.269 299.952C157.821 300.4 157.597 300.944 157.597 301.584C157.597 302.224 157.821 302.768 158.269 303.216ZM166.206 297.2H168.462V301.68C168.462 302.416 168.633 302.976 168.974 303.36C169.316 303.733 169.748 303.92 170.27 303.92C170.782 303.92 171.209 303.733 171.55 303.36C171.902 302.976 172.078 302.416 172.078 301.68V297.2H174.318V306H172.27L172.142 304.704C171.886 305.131 171.545 305.477 171.118 305.744C170.692 306.011 170.212 306.144 169.678 306.144C168.612 306.144 167.764 305.776 167.134 305.04C166.516 304.293 166.206 303.173 166.206 301.68V297.2ZM181.275 298.384C182.086 297.499 183.067 297.056 184.219 297.056C184.795 297.056 185.328 297.2 185.819 297.488C186.31 297.765 186.688 298.128 186.955 298.576V293.52H189.211V306H187.163L187.019 304.528C186.752 304.997 186.368 305.381 185.867 305.68C185.366 305.979 184.816 306.128 184.219 306.128C183.067 306.128 182.086 305.685 181.275 304.8C180.464 303.904 180.059 302.832 180.059 301.584C180.059 300.336 180.464 299.269 181.275 298.384ZM183.003 303.216C183.451 303.675 183.995 303.904 184.635 303.904C185.286 303.904 185.835 303.68 186.283 303.232C186.731 302.773 186.955 302.224 186.955 301.584C186.955 300.944 186.731 300.4 186.283 299.952C185.835 299.493 185.286 299.264 184.635 299.264C183.995 299.264 183.451 299.493 183.003 299.952C182.555 300.4 182.331 300.944 182.331 301.584C182.331 302.224 182.555 302.768 183.003 303.216ZM191.965 298.4C192.839 297.515 193.901 297.072 195.149 297.072C196.407 297.072 197.469 297.515 198.333 298.4C199.207 299.285 199.645 300.352 199.645 301.6C199.645 301.835 199.623 302.133 199.581 302.496H193.069C193.186 302.955 193.453 303.333 193.869 303.632C194.295 303.92 194.791 304.064 195.357 304.064C196.221 304.064 196.898 303.792 197.389 303.248L199.197 304.384C198.781 304.917 198.221 305.344 197.517 305.664C196.813 305.984 196.093 306.144 195.357 306.144C194.002 306.144 192.877 305.707 191.981 304.832C191.095 303.947 190.653 302.869 190.653 301.6C190.653 300.352 191.09 299.285 191.965 298.4ZM193.069 300.704H197.309C197.245 300.277 197.015 299.915 196.621 299.616C196.226 299.317 195.741 299.168 195.165 299.168C194.599 299.168 194.125 299.317 193.741 299.616C193.367 299.915 193.143 300.277 193.069 300.704ZM205.366 293.52H207.622V298.576C207.878 298.128 208.251 297.765 208.742 297.488C209.243 297.2 209.782 297.056 210.358 297.056C211.499 297.056 212.475 297.499 213.286 298.384C214.107 299.269 214.518 300.336 214.518 301.584C214.518 302.832 214.107 303.904 213.286 304.8C212.475 305.685 211.499 306.128 210.358 306.128C209.761 306.128 209.206 305.979 208.694 305.68C208.193 305.381 207.814 304.997 207.558 304.528L207.414 306H205.366V293.52ZM208.294 303.216C208.742 303.675 209.291 303.904 209.942 303.904C210.582 303.904 211.126 303.68 211.574 303.232C212.022 302.773 212.246 302.224 212.246 301.584C212.246 300.944 212.022 300.4 211.574 299.952C211.126 299.493 210.582 299.264 209.942 299.264C209.291 299.264 208.742 299.493 208.294 299.952C207.846 300.4 207.622 300.944 207.622 301.584C207.622 302.224 207.846 302.768 208.294 303.216ZM216.856 298.4C217.73 297.515 218.792 297.072 220.04 297.072C221.288 297.072 222.354 297.52 223.24 298.416C224.136 299.301 224.584 300.363 224.584 301.6C224.584 302.848 224.141 303.915 223.256 304.8C222.36 305.696 221.288 306.144 220.04 306.144C218.792 306.144 217.725 305.701 216.84 304.816C215.965 303.92 215.528 302.848 215.528 301.6C215.528 300.352 215.97 299.285 216.856 298.4ZM217.8 301.6C217.8 302.229 218.018 302.763 218.456 303.2C218.893 303.637 219.421 303.856 220.04 303.856C220.669 303.856 221.202 303.637 221.64 303.2C222.077 302.763 222.296 302.229 222.296 301.6C222.296 300.981 222.077 300.453 221.64 300.016C221.202 299.579 220.669 299.36 220.04 299.36C219.421 299.36 218.893 299.579 218.456 300.016C218.018 300.453 217.8 300.981 217.8 301.6ZM226.022 297.2H228.07L228.23 298.464C228.753 297.579 229.622 297.136 230.838 297.136C231.147 297.136 231.414 297.157 231.638 297.2L231.174 299.36C231.046 299.339 230.955 299.328 230.902 299.328C230.155 299.328 229.531 299.557 229.03 300.016C228.529 300.464 228.278 301.227 228.278 302.304V306H226.022V297.2ZM233.697 298.384C234.507 297.499 235.489 297.056 236.641 297.056C237.217 297.056 237.75 297.2 238.241 297.488C238.731 297.765 239.11 298.128 239.377 298.576V293.52H241.633V306H239.585L239.441 304.528C239.174 304.997 238.79 305.381 238.289 305.68C237.787 305.979 237.238 306.128 236.641 306.128C235.489 306.128 234.507 305.685 233.697 304.8C232.886 303.904 232.481 302.832 232.481 301.584C232.481 300.336 232.886 299.269 233.697 298.384ZM235.425 303.216C235.873 303.675 236.417 303.904 237.057 303.904C237.707 303.904 238.257 303.68 238.705 303.232C239.153 302.773 239.377 302.224 239.377 301.584C239.377 300.944 239.153 300.4 238.705 299.952C238.257 299.493 237.707 299.264 237.057 299.264C236.417 299.264 235.873 299.493 235.425 299.952C234.977 300.4 234.753 300.944 234.753 301.584C234.753 302.224 234.977 302.768 235.425 303.216Z" fill="white"/>
</svg>
