<svg width="390" height="183" viewBox="0 0 390 183" fill="none" xmlns="http://www.w3.org/2000/svg">
<rect x="0.5" y="0.5" width="388.247" height="181.423" rx="4.5" stroke="#9747FF" stroke-dasharray="10 5"/>
<g filter="url(#filter0_d_14_972)">
<rect x="20" y="20" width="349.247" height="54.2115" rx="27.1058" fill="black" shape-rendering="crispEdges"/>
<path d="M156.735 47.4681C156.735 46.4562 156.954 45.5561 157.392 44.768C157.83 43.9701 158.438 43.3522 159.217 42.9144C160.005 42.4668 160.895 42.243 161.887 42.243C163.104 42.243 164.145 42.5641 165.011 43.2063C165.877 43.8485 166.456 44.7242 166.748 45.8334H164.004C163.799 45.4053 163.508 45.0793 163.128 44.8556C162.758 44.6318 162.335 44.5199 161.858 44.5199C161.09 44.5199 160.467 44.7874 159.99 45.3226C159.513 45.8578 159.275 46.5729 159.275 47.4681C159.275 48.3633 159.513 49.0785 159.99 49.6137C160.467 50.1488 161.09 50.4164 161.858 50.4164C162.335 50.4164 162.758 50.3045 163.128 50.0807C163.508 49.8569 163.799 49.5309 164.004 49.1028H166.748C166.456 50.2121 165.877 51.0878 165.011 51.73C164.145 52.3625 163.104 52.6787 161.887 52.6787C160.895 52.6787 160.005 52.4598 159.217 52.0219C158.438 51.5743 157.83 50.9564 157.392 50.1683C156.954 49.3801 156.735 48.4801 156.735 47.4681ZM171.983 52.7225C171.186 52.7225 170.465 52.5522 169.823 52.2116C169.191 51.8711 168.69 51.3846 168.32 50.7521C167.96 50.1196 167.78 49.3801 167.78 48.5336C167.78 47.6968 167.965 46.9622 168.335 46.3297C168.704 45.6875 169.21 45.1961 169.852 44.8556C170.495 44.515 171.215 44.3447 172.013 44.3447C172.81 44.3447 173.531 44.515 174.173 44.8556C174.815 45.1961 175.321 45.6875 175.691 46.3297C176.06 46.9622 176.245 47.6968 176.245 48.5336C176.245 49.3704 176.056 50.1099 175.676 50.7521C175.306 51.3846 174.795 51.8711 174.144 52.2116C173.501 52.5522 172.781 52.7225 171.983 52.7225ZM171.983 50.5624C172.46 50.5624 172.864 50.3872 173.195 50.0369C173.535 49.6866 173.706 49.1855 173.706 48.5336C173.706 47.8817 173.54 47.3806 173.209 47.0303C172.888 46.68 172.489 46.5048 172.013 46.5048C171.526 46.5048 171.122 46.68 170.801 47.0303C170.48 47.3708 170.32 47.8719 170.32 48.5336C170.32 49.1855 170.475 49.6866 170.787 50.0369C171.108 50.3872 171.507 50.5624 171.983 50.5624ZM182.532 44.3739C183.485 44.3739 184.244 44.6853 184.809 45.308C185.383 45.921 185.67 46.7676 185.67 47.8476V52.6057H183.189V48.1833C183.189 47.6384 183.047 47.2151 182.765 46.9135C182.483 46.6119 182.104 46.461 181.627 46.461C181.15 46.461 180.771 46.6119 180.488 46.9135C180.206 47.2151 180.065 47.6384 180.065 48.1833V52.6057H177.569V44.4615H180.065V45.5415C180.318 45.1815 180.659 44.8993 181.087 44.695C181.515 44.4809 181.997 44.3739 182.532 44.3739ZM191.491 46.534H190.148V52.6057H187.652V46.534H186.747V44.4615H187.652V44.228C187.652 43.2257 187.939 42.4668 188.513 41.9511C189.087 41.4256 189.929 41.1629 191.038 41.1629C191.223 41.1629 191.359 41.1678 191.447 41.1775V43.2938C190.97 43.2647 190.635 43.3328 190.44 43.4982C190.245 43.6636 190.148 43.9604 190.148 44.3885V44.4615H191.491V46.534ZM193.919 43.6149C193.481 43.6149 193.121 43.4885 192.839 43.2355C192.566 42.9727 192.43 42.6516 192.43 42.2722C192.43 41.883 192.566 41.5619 192.839 41.3089C193.121 41.0462 193.481 40.9148 193.919 40.9148C194.347 40.9148 194.697 41.0462 194.97 41.3089C195.252 41.5619 195.393 41.883 195.393 42.2722C195.393 42.6516 195.252 42.9727 194.97 43.2355C194.697 43.4885 194.347 43.6149 193.919 43.6149ZM195.159 44.4615V52.6057H192.664V44.4615H195.159ZM199.464 45.8188C199.756 45.3713 200.121 45.021 200.559 44.768C200.996 44.5053 201.483 44.3739 202.018 44.3739V47.0157H201.332C200.709 47.0157 200.242 47.1519 199.931 47.4243C199.62 47.6871 199.464 48.1541 199.464 48.8255V52.6057H196.968V44.4615H199.464V45.8188ZM213.603 44.3739C214.615 44.3739 215.418 44.6804 216.011 45.2934C216.614 45.9064 216.916 46.7578 216.916 47.8476V52.6057H214.435V48.1833C214.435 47.6579 214.294 47.2541 214.012 46.9719C213.739 46.68 213.36 46.534 212.873 46.534C212.387 46.534 212.002 46.68 211.72 46.9719C211.448 47.2541 211.312 47.6579 211.312 48.1833V52.6057H208.83V48.1833C208.83 47.6579 208.689 47.2541 208.407 46.9719C208.135 46.68 207.755 46.534 207.269 46.534C206.782 46.534 206.398 46.68 206.116 46.9719C205.843 47.2541 205.707 47.6579 205.707 48.1833V52.6057H203.211V44.4615H205.707V45.4832C205.96 45.1426 206.291 44.875 206.699 44.6804C207.108 44.4761 207.57 44.3739 208.086 44.3739C208.699 44.3739 209.244 44.5053 209.721 44.768C210.207 45.0307 210.587 45.4053 210.859 45.8918C211.141 45.4442 211.526 45.0793 212.012 44.7972C212.499 44.515 213.029 44.3739 213.603 44.3739ZM226.339 48.4022C226.339 48.6358 226.324 48.879 226.295 49.132H220.647C220.686 49.638 220.846 50.0272 221.128 50.2996C221.42 50.5624 221.775 50.6937 222.194 50.6937C222.816 50.6937 223.249 50.431 223.493 49.9056H226.149C226.013 50.4407 225.765 50.9224 225.405 51.3505C225.054 51.7786 224.612 52.1143 224.077 52.3576C223.541 52.6008 222.943 52.7225 222.281 52.7225C221.483 52.7225 220.773 52.5522 220.15 52.2116C219.528 51.8711 219.041 51.3846 218.691 50.7521C218.341 50.1196 218.165 49.3801 218.165 48.5336C218.165 47.6871 218.336 46.9476 218.676 46.3151C219.027 45.6826 219.513 45.1961 220.136 44.8556C220.759 44.515 221.474 44.3447 222.281 44.3447C223.069 44.3447 223.77 44.5101 224.383 44.841C224.996 45.1718 225.473 45.6437 225.813 46.2567C226.164 46.8697 226.339 47.5849 226.339 48.4022ZM223.785 47.7454C223.785 47.3173 223.639 46.9768 223.347 46.7238C223.055 46.4708 222.69 46.3443 222.252 46.3443C221.834 46.3443 221.479 46.4659 221.187 46.7092C220.904 46.9524 220.729 47.2979 220.661 47.7454H223.785ZM230.151 45.8188C230.443 45.3713 230.808 45.021 231.246 44.768C231.684 44.5053 232.17 44.3739 232.706 44.3739V47.0157H232.02C231.397 47.0157 230.93 47.1519 230.618 47.4243C230.307 47.6871 230.151 48.1541 230.151 48.8255V52.6057H227.655V44.4615H230.151V45.8188Z" fill="white"/>
</g>
<rect x="20" y="108.211" width="349.247" height="54.2115" rx="27.1058" fill="black"/>
<rect x="20" y="108.211" width="349.247" height="54.2115" rx="27.1058" fill="white" fill-opacity="0.2"/>
<path d="M156.735 135.68C156.735 134.668 156.954 133.768 157.392 132.979C157.83 132.182 158.438 131.564 159.217 131.126C160.005 130.678 160.895 130.454 161.887 130.454C163.104 130.454 164.145 130.776 165.011 131.418C165.877 132.06 166.456 132.936 166.748 134.045H164.004C163.799 133.617 163.508 133.291 163.128 133.067C162.758 132.843 162.335 132.731 161.858 132.731C161.09 132.731 160.467 132.999 159.99 133.534C159.513 134.069 159.275 134.784 159.275 135.68C159.275 136.575 159.513 137.29 159.99 137.825C160.467 138.36 161.09 138.628 161.858 138.628C162.335 138.628 162.758 138.516 163.128 138.292C163.508 138.068 163.799 137.742 164.004 137.314H166.748C166.456 138.423 165.877 139.299 165.011 139.941C164.145 140.574 163.104 140.89 161.887 140.89C160.895 140.89 160.005 140.671 159.217 140.233C158.438 139.786 157.83 139.168 157.392 138.38C156.954 137.592 156.735 136.692 156.735 135.68ZM171.983 140.934C171.186 140.934 170.465 140.764 169.823 140.423C169.191 140.083 168.69 139.596 168.32 138.964C167.96 138.331 167.78 137.592 167.78 136.745C167.78 135.908 167.965 135.174 168.335 134.541C168.704 133.899 169.21 133.408 169.852 133.067C170.495 132.726 171.215 132.556 172.013 132.556C172.81 132.556 173.531 132.726 174.173 133.067C174.815 133.408 175.321 133.899 175.691 134.541C176.06 135.174 176.245 135.908 176.245 136.745C176.245 137.582 176.056 138.321 175.676 138.964C175.306 139.596 174.795 140.083 174.144 140.423C173.501 140.764 172.781 140.934 171.983 140.934ZM171.983 138.774C172.46 138.774 172.864 138.599 173.195 138.248C173.535 137.898 173.706 137.397 173.706 136.745C173.706 136.093 173.54 135.592 173.209 135.242C172.888 134.891 172.489 134.716 172.013 134.716C171.526 134.716 171.122 134.891 170.801 135.242C170.48 135.582 170.32 136.083 170.32 136.745C170.32 137.397 170.475 137.898 170.787 138.248C171.108 138.599 171.507 138.774 171.983 138.774ZM182.532 132.585C183.485 132.585 184.244 132.897 184.809 133.519C185.383 134.132 185.67 134.979 185.67 136.059V140.817H183.189V136.395C183.189 135.85 183.047 135.427 182.765 135.125C182.483 134.823 182.104 134.672 181.627 134.672C181.15 134.672 180.771 134.823 180.488 135.125C180.206 135.427 180.065 135.85 180.065 136.395V140.817H177.569V132.673H180.065V133.753C180.318 133.393 180.659 133.111 181.087 132.906C181.515 132.692 181.997 132.585 182.532 132.585ZM191.491 134.745H190.148V140.817H187.652V134.745H186.747V132.673H187.652V132.439C187.652 131.437 187.939 130.678 188.513 130.162C189.087 129.637 189.929 129.374 191.038 129.374C191.223 129.374 191.359 129.379 191.447 129.389V131.505C190.97 131.476 190.635 131.544 190.44 131.71C190.245 131.875 190.148 132.172 190.148 132.6V132.673H191.491V134.745ZM193.919 131.826C193.481 131.826 193.121 131.7 192.839 131.447C192.566 131.184 192.43 130.863 192.43 130.484C192.43 130.094 192.566 129.773 192.839 129.52C193.121 129.258 193.481 129.126 193.919 129.126C194.347 129.126 194.697 129.258 194.97 129.52C195.252 129.773 195.393 130.094 195.393 130.484C195.393 130.863 195.252 131.184 194.97 131.447C194.697 131.7 194.347 131.826 193.919 131.826ZM195.159 132.673V140.817H192.664V132.673H195.159ZM199.464 134.03C199.756 133.583 200.121 133.232 200.559 132.979C200.996 132.717 201.483 132.585 202.018 132.585V135.227H201.332C200.709 135.227 200.242 135.363 199.931 135.636C199.62 135.898 199.464 136.366 199.464 137.037V140.817H196.968V132.673H199.464V134.03ZM213.603 132.585C214.615 132.585 215.418 132.892 216.011 133.505C216.614 134.118 216.916 134.969 216.916 136.059V140.817H214.435V136.395C214.435 135.869 214.294 135.465 214.012 135.183C213.739 134.891 213.36 134.745 212.873 134.745C212.387 134.745 212.002 134.891 211.72 135.183C211.448 135.465 211.312 135.869 211.312 136.395V140.817H208.83V136.395C208.83 135.869 208.689 135.465 208.407 135.183C208.135 134.891 207.755 134.745 207.269 134.745C206.782 134.745 206.398 134.891 206.116 135.183C205.843 135.465 205.707 135.869 205.707 136.395V140.817H203.211V132.673H205.707V133.695C205.96 133.354 206.291 133.086 206.699 132.892C207.108 132.687 207.57 132.585 208.086 132.585C208.699 132.585 209.244 132.717 209.721 132.979C210.207 133.242 210.587 133.617 210.859 134.103C211.141 133.656 211.526 133.291 212.012 133.009C212.499 132.726 213.029 132.585 213.603 132.585ZM226.339 136.614C226.339 136.847 226.324 137.09 226.295 137.343H220.647C220.686 137.849 220.846 138.239 221.128 138.511C221.42 138.774 221.775 138.905 222.194 138.905C222.816 138.905 223.249 138.642 223.493 138.117H226.149C226.013 138.652 225.765 139.134 225.405 139.562C225.054 139.99 224.612 140.326 224.077 140.569C223.541 140.812 222.943 140.934 222.281 140.934C221.483 140.934 220.773 140.764 220.15 140.423C219.528 140.083 219.041 139.596 218.691 138.964C218.341 138.331 218.165 137.592 218.165 136.745C218.165 135.898 218.336 135.159 218.676 134.527C219.027 133.894 219.513 133.408 220.136 133.067C220.759 132.726 221.474 132.556 222.281 132.556C223.069 132.556 223.77 132.722 224.383 133.052C224.996 133.383 225.473 133.855 225.813 134.468C226.164 135.081 226.339 135.796 226.339 136.614ZM223.785 135.957C223.785 135.529 223.639 135.188 223.347 134.935C223.055 134.682 222.69 134.556 222.252 134.556C221.834 134.556 221.479 134.677 221.187 134.921C220.904 135.164 220.729 135.509 220.661 135.957H223.785ZM230.151 134.03C230.443 133.583 230.808 133.232 231.246 132.979C231.684 132.717 232.17 132.585 232.706 132.585V135.227H232.02C231.397 135.227 230.93 135.363 230.618 135.636C230.307 135.898 230.151 136.366 230.151 137.037V140.817H227.655V132.673H230.151V134.03Z" fill="white"/>
<defs>
<filter id="filter0_d_14_972" x="17.9149" y="18.9575" width="353.417" height="58.3815" filterUnits="userSpaceOnUse" color-interpolation-filters="sRGB">
<feFlood flood-opacity="0" result="BackgroundImageFix"/>
<feColorMatrix in="SourceAlpha" type="matrix" values="0 0 0 0 0 0 0 0 0 0 0 0 0 0 0 0 0 0 127 0" result="hardAlpha"/>
<feOffset dy="1.04253"/>
<feGaussianBlur stdDeviation="1.04253"/>
<feComposite in2="hardAlpha" operator="out"/>
<feColorMatrix type="matrix" values="0 0 0 0 0 0 0 0 0 0 0 0 0 0 0 0 0 0 0.2 0"/>
<feBlend mode="normal" in2="BackgroundImageFix" result="effect1_dropShadow_14_972"/>
<feBlend mode="normal" in="SourceGraphic" in2="effect1_dropShadow_14_972" result="shape"/>
</filter>
</defs>
</svg>
