<svg width="390" height="183" viewBox="0 0 390 183" fill="none" xmlns="http://www.w3.org/2000/svg">
<rect x="0.5" y="0.5" width="388.247" height="181.212" rx="4.5" stroke="#9747FF" stroke-dasharray="10 5"/>
<g filter="url(#filter0_d_37_1121)">
<rect x="20" y="20" width="349.247" height="54.2115" rx="27.1058" fill="white" shape-rendering="crispEdges"/>
<path d="M147.998 47.4681C147.998 46.4562 148.217 45.5561 148.655 44.768C149.093 43.9701 149.701 43.3522 150.479 42.9144C151.267 42.4668 152.158 42.243 153.15 42.243C154.366 42.243 155.408 42.5641 156.274 43.2063C157.14 43.8485 157.719 44.7242 158.01 45.8334H155.267C155.062 45.4053 154.77 45.0793 154.391 44.8556C154.021 44.6318 153.598 44.5199 153.121 44.5199C152.352 44.5199 151.73 44.7874 151.253 45.3226C150.776 45.8578 150.538 46.5729 150.538 47.4681C150.538 48.3633 150.776 49.0785 151.253 49.6137C151.73 50.1488 152.352 50.4164 153.121 50.4164C153.598 50.4164 154.021 50.3045 154.391 50.0807C154.77 49.8569 155.062 49.5309 155.267 49.1028H158.01C157.719 50.2121 157.14 51.0878 156.274 51.73C155.408 52.3625 154.366 52.6787 153.15 52.6787C152.158 52.6787 151.267 52.4598 150.479 52.0219C149.701 51.5743 149.093 50.9564 148.655 50.1683C148.217 49.3801 147.998 48.4801 147.998 47.4681ZM163.246 52.7225C162.448 52.7225 161.728 52.5522 161.086 52.2116C160.454 51.8711 159.952 51.3846 159.583 50.7521C159.223 50.1196 159.043 49.3801 159.043 48.5336C159.043 47.6968 159.228 46.9622 159.597 46.3297C159.967 45.6875 160.473 45.1961 161.115 44.8556C161.757 44.515 162.477 44.3447 163.275 44.3447C164.073 44.3447 164.793 44.515 165.435 44.8556C166.078 45.1961 166.584 45.6875 166.953 46.3297C167.323 46.9622 167.508 47.6968 167.508 48.5336C167.508 49.3704 167.318 50.1099 166.939 50.7521C166.569 51.3846 166.058 51.8711 165.406 52.2116C164.764 52.5522 164.044 52.7225 163.246 52.7225ZM163.246 50.5624C163.723 50.5624 164.127 50.3872 164.458 50.0369C164.798 49.6866 164.968 49.1855 164.968 48.5336C164.968 47.8817 164.803 47.3806 164.472 47.0303C164.151 46.68 163.752 46.5048 163.275 46.5048C162.789 46.5048 162.385 46.68 162.064 47.0303C161.743 47.3708 161.582 47.8719 161.582 48.5336C161.582 49.1855 161.738 49.6866 162.049 50.0369C162.37 50.3872 162.769 50.5624 163.246 50.5624ZM179.224 44.3739C180.236 44.3739 181.039 44.6804 181.632 45.2934C182.235 45.9064 182.537 46.7578 182.537 47.8476V52.6057H180.056V48.1833C180.056 47.6579 179.915 47.2541 179.633 46.9719C179.36 46.68 178.981 46.534 178.494 46.534C178.008 46.534 177.623 46.68 177.341 46.9719C177.069 47.2541 176.932 47.6579 176.932 48.1833V52.6057H174.451V48.1833C174.451 47.6579 174.31 47.2541 174.028 46.9719C173.756 46.68 173.376 46.534 172.89 46.534C172.403 46.534 172.019 46.68 171.737 46.9719C171.464 47.2541 171.328 47.6579 171.328 48.1833V52.6057H168.832V44.4615H171.328V45.4832C171.581 45.1426 171.912 44.875 172.32 44.6804C172.729 44.4761 173.191 44.3739 173.707 44.3739C174.32 44.3739 174.865 44.5053 175.342 44.768C175.828 45.0307 176.208 45.4053 176.48 45.8918C176.762 45.4442 177.147 45.0793 177.633 44.7972C178.12 44.515 178.65 44.3739 179.224 44.3739ZM194.675 44.3739C195.687 44.3739 196.489 44.6804 197.083 45.2934C197.686 45.9064 197.988 46.7578 197.988 47.8476V52.6057H195.507V48.1833C195.507 47.6579 195.365 47.2541 195.083 46.9719C194.811 46.68 194.431 46.534 193.945 46.534C193.458 46.534 193.074 46.68 192.792 46.9719C192.519 47.2541 192.383 47.6579 192.383 48.1833V52.6057H189.902V48.1833C189.902 47.6579 189.761 47.2541 189.479 46.9719C189.206 46.68 188.827 46.534 188.34 46.534C187.854 46.534 187.469 46.68 187.187 46.9719C186.915 47.2541 186.778 47.6579 186.778 48.1833V52.6057H184.283V44.4615H186.778V45.4832C187.031 45.1426 187.362 44.875 187.771 44.6804C188.18 44.4761 188.642 44.3739 189.158 44.3739C189.771 44.3739 190.315 44.5053 190.792 44.768C191.279 45.0307 191.658 45.4053 191.931 45.8918C192.213 45.4442 192.597 45.0793 193.084 44.7972C193.57 44.515 194.1 44.3739 194.675 44.3739ZM207.41 48.4022C207.41 48.6358 207.396 48.879 207.367 49.132H201.718C201.757 49.638 201.918 50.0272 202.2 50.2996C202.492 50.5624 202.847 50.6937 203.265 50.6937C203.888 50.6937 204.321 50.431 204.564 49.9056H207.221C207.084 50.4407 206.836 50.9224 206.476 51.3505C206.126 51.7786 205.683 52.1143 205.148 52.3576C204.613 52.6008 204.015 52.7225 203.353 52.7225C202.555 52.7225 201.845 52.5522 201.222 52.2116C200.599 51.8711 200.113 51.3846 199.762 50.7521C199.412 50.1196 199.237 49.3801 199.237 48.5336C199.237 47.6871 199.407 46.9476 199.748 46.3151C200.098 45.6826 200.585 45.1961 201.207 44.8556C201.83 44.515 202.545 44.3447 203.353 44.3447C204.141 44.3447 204.842 44.5101 205.455 44.841C206.068 45.1718 206.544 45.6437 206.885 46.2567C207.235 46.8697 207.41 47.5849 207.41 48.4022ZM204.856 47.7454C204.856 47.3173 204.71 46.9768 204.418 46.7238C204.126 46.4708 203.762 46.3443 203.324 46.3443C202.905 46.3443 202.55 46.4659 202.258 46.7092C201.976 46.9524 201.801 47.2979 201.733 47.7454H204.856ZM213.69 44.3739C214.643 44.3739 215.402 44.6853 215.966 45.308C216.54 45.921 216.828 46.7676 216.828 47.8476V52.6057H214.346V48.1833C214.346 47.6384 214.205 47.2151 213.923 46.9135C213.641 46.6119 213.261 46.461 212.785 46.461C212.308 46.461 211.928 46.6119 211.646 46.9135C211.364 47.2151 211.223 47.6384 211.223 48.1833V52.6057H208.727V44.4615H211.223V45.5415C211.476 45.1815 211.816 44.8993 212.245 44.695C212.673 44.4809 213.154 44.3739 213.69 44.3739ZM218.066 48.5336C218.066 47.6871 218.236 46.9476 218.576 46.3151C218.927 45.6826 219.408 45.1961 220.021 44.8556C220.644 44.515 221.354 44.3447 222.152 44.3447C223.174 44.3447 224.025 44.6123 224.707 45.1475C225.397 45.6826 225.85 46.4367 226.064 47.4097H223.408C223.184 46.787 222.751 46.4756 222.109 46.4756C221.651 46.4756 221.286 46.6557 221.014 47.0157C220.741 47.366 220.605 47.8719 220.605 48.5336C220.605 49.1953 220.741 49.7061 221.014 50.0661C221.286 50.4164 221.651 50.5915 222.109 50.5915C222.751 50.5915 223.184 50.2802 223.408 49.6574H226.064C225.85 50.611 225.397 51.3602 224.707 51.9051C224.016 52.45 223.164 52.7225 222.152 52.7225C221.354 52.7225 220.644 52.5522 220.021 52.2116C219.408 51.8711 218.927 51.3846 218.576 50.7521C218.236 50.1196 218.066 49.3801 218.066 48.5336ZM235.076 48.4022C235.076 48.6358 235.062 48.879 235.032 49.132H229.384C229.423 49.638 229.583 50.0272 229.866 50.2996C230.157 50.5624 230.513 50.6937 230.931 50.6937C231.554 50.6937 231.987 50.431 232.23 49.9056H234.886C234.75 50.4407 234.502 50.9224 234.142 51.3505C233.792 51.7786 233.349 52.1143 232.814 52.3576C232.279 52.6008 231.68 52.7225 231.019 52.7225C230.221 52.7225 229.51 52.5522 228.888 52.2116C228.265 51.8711 227.778 51.3846 227.428 50.7521C227.078 50.1196 226.903 49.3801 226.903 48.5336C226.903 47.6871 227.073 46.9476 227.414 46.3151C227.764 45.6826 228.25 45.1961 228.873 44.8556C229.496 44.515 230.211 44.3447 231.019 44.3447C231.807 44.3447 232.507 44.5101 233.12 44.841C233.733 45.1718 234.21 45.6437 234.551 46.2567C234.901 46.8697 235.076 47.5849 235.076 48.4022ZM232.522 47.7454C232.522 47.3173 232.376 46.9768 232.084 46.7238C231.792 46.4708 231.427 46.3443 230.989 46.3443C230.571 46.3443 230.216 46.4659 229.924 46.7092C229.642 46.9524 229.467 47.2979 229.399 47.7454H232.522ZM238.889 45.8188C239.181 45.3713 239.545 45.021 239.983 44.768C240.421 44.5053 240.908 44.3739 241.443 44.3739V47.0157H240.757C240.134 47.0157 239.667 47.1519 239.356 47.4243C239.044 47.6871 238.889 48.1541 238.889 48.8255V52.6057H236.393V44.4615H238.889V45.8188Z" fill="black"/>
<path d="M334.06 41.0126L340.154 47.1059M340.154 47.1059L334.06 53.1992M340.154 47.1059L321.874 47.1059" stroke="black" stroke-width="2.28498" stroke-miterlimit="10" stroke-linecap="round" stroke-linejoin="round"/>
<path d="M334.06 41.0126L340.154 47.1059M340.154 47.1059L334.06 53.1992M340.154 47.1059L321.874 47.1059" stroke="black" stroke-width="2.28498" stroke-miterlimit="10" stroke-linecap="round" stroke-linejoin="round"/>
</g>
<rect x="20" y="108" width="349.247" height="54.2115" rx="27.1058" fill="white"/>
<rect x="20" y="108" width="349.247" height="54.2115" rx="27.1058" fill="black" fill-opacity="0.1"/>
<path d="M147.998 135.468C147.998 134.456 148.217 133.556 148.655 132.768C149.093 131.97 149.701 131.352 150.479 130.914C151.267 130.467 152.158 130.243 153.15 130.243C154.366 130.243 155.408 130.564 156.274 131.206C157.14 131.848 157.719 132.724 158.01 133.833H155.267C155.062 133.405 154.77 133.079 154.391 132.856C154.021 132.632 153.598 132.52 153.121 132.52C152.352 132.52 151.73 132.787 151.253 133.323C150.776 133.858 150.538 134.573 150.538 135.468C150.538 136.363 150.776 137.078 151.253 137.614C151.73 138.149 152.352 138.416 153.121 138.416C153.598 138.416 154.021 138.305 154.391 138.081C154.77 137.857 155.062 137.531 155.267 137.103H158.01C157.719 138.212 157.14 139.088 156.274 139.73C155.408 140.362 154.366 140.679 153.15 140.679C152.158 140.679 151.267 140.46 150.479 140.022C149.701 139.574 149.093 138.956 148.655 138.168C148.217 137.38 147.998 136.48 147.998 135.468ZM163.246 140.722C162.448 140.722 161.728 140.552 161.086 140.212C160.454 139.871 159.952 139.385 159.583 138.752C159.223 138.12 159.043 137.38 159.043 136.534C159.043 135.697 159.228 134.962 159.597 134.33C159.967 133.687 160.473 133.196 161.115 132.856C161.757 132.515 162.477 132.345 163.275 132.345C164.073 132.345 164.793 132.515 165.435 132.856C166.078 133.196 166.584 133.687 166.953 134.33C167.323 134.962 167.508 135.697 167.508 136.534C167.508 137.37 167.318 138.11 166.939 138.752C166.569 139.385 166.058 139.871 165.406 140.212C164.764 140.552 164.044 140.722 163.246 140.722ZM163.246 138.562C163.723 138.562 164.127 138.387 164.458 138.037C164.798 137.687 164.968 137.186 164.968 136.534C164.968 135.882 164.803 135.381 164.472 135.03C164.151 134.68 163.752 134.505 163.275 134.505C162.789 134.505 162.385 134.68 162.064 135.03C161.743 135.371 161.582 135.872 161.582 136.534C161.582 137.186 161.738 137.687 162.049 138.037C162.37 138.387 162.769 138.562 163.246 138.562ZM179.224 132.374C180.236 132.374 181.039 132.68 181.632 133.293C182.235 133.906 182.537 134.758 182.537 135.848V140.606H180.056V136.183C180.056 135.658 179.915 135.254 179.633 134.972C179.36 134.68 178.981 134.534 178.494 134.534C178.008 134.534 177.623 134.68 177.341 134.972C177.069 135.254 176.932 135.658 176.932 136.183V140.606H174.451V136.183C174.451 135.658 174.31 135.254 174.028 134.972C173.756 134.68 173.376 134.534 172.89 134.534C172.403 134.534 172.019 134.68 171.737 134.972C171.464 135.254 171.328 135.658 171.328 136.183V140.606H168.832V132.461H171.328V133.483C171.581 133.143 171.912 132.875 172.32 132.68C172.729 132.476 173.191 132.374 173.707 132.374C174.32 132.374 174.865 132.505 175.342 132.768C175.828 133.031 176.208 133.405 176.48 133.892C176.762 133.444 177.147 133.079 177.633 132.797C178.12 132.515 178.65 132.374 179.224 132.374ZM194.675 132.374C195.687 132.374 196.489 132.68 197.083 133.293C197.686 133.906 197.988 134.758 197.988 135.848V140.606H195.507V136.183C195.507 135.658 195.365 135.254 195.083 134.972C194.811 134.68 194.431 134.534 193.945 134.534C193.458 134.534 193.074 134.68 192.792 134.972C192.519 135.254 192.383 135.658 192.383 136.183V140.606H189.902V136.183C189.902 135.658 189.761 135.254 189.479 134.972C189.206 134.68 188.827 134.534 188.34 134.534C187.854 134.534 187.469 134.68 187.187 134.972C186.915 135.254 186.778 135.658 186.778 136.183V140.606H184.283V132.461H186.778V133.483C187.031 133.143 187.362 132.875 187.771 132.68C188.18 132.476 188.642 132.374 189.158 132.374C189.771 132.374 190.315 132.505 190.792 132.768C191.279 133.031 191.658 133.405 191.931 133.892C192.213 133.444 192.597 133.079 193.084 132.797C193.57 132.515 194.1 132.374 194.675 132.374ZM207.41 136.402C207.41 136.636 207.396 136.879 207.367 137.132H201.718C201.757 137.638 201.918 138.027 202.2 138.3C202.492 138.562 202.847 138.694 203.265 138.694C203.888 138.694 204.321 138.431 204.564 137.906H207.221C207.084 138.441 206.836 138.922 206.476 139.351C206.126 139.779 205.683 140.114 205.148 140.358C204.613 140.601 204.015 140.722 203.353 140.722C202.555 140.722 201.845 140.552 201.222 140.212C200.599 139.871 200.113 139.385 199.762 138.752C199.412 138.12 199.237 137.38 199.237 136.534C199.237 135.687 199.407 134.948 199.748 134.315C200.098 133.683 200.585 133.196 201.207 132.856C201.83 132.515 202.545 132.345 203.353 132.345C204.141 132.345 204.842 132.51 205.455 132.841C206.068 133.172 206.544 133.644 206.885 134.257C207.235 134.87 207.41 135.585 207.41 136.402ZM204.856 135.745C204.856 135.317 204.71 134.977 204.418 134.724C204.126 134.471 203.762 134.344 203.324 134.344C202.905 134.344 202.55 134.466 202.258 134.709C201.976 134.952 201.801 135.298 201.733 135.745H204.856ZM213.69 132.374C214.643 132.374 215.402 132.685 215.966 133.308C216.54 133.921 216.828 134.768 216.828 135.848V140.606H214.346V136.183C214.346 135.638 214.205 135.215 213.923 134.914C213.641 134.612 213.261 134.461 212.785 134.461C212.308 134.461 211.928 134.612 211.646 134.914C211.364 135.215 211.223 135.638 211.223 136.183V140.606H208.727V132.461H211.223V133.542C211.476 133.182 211.816 132.899 212.245 132.695C212.673 132.481 213.154 132.374 213.69 132.374ZM218.066 136.534C218.066 135.687 218.236 134.948 218.576 134.315C218.927 133.683 219.408 133.196 220.021 132.856C220.644 132.515 221.354 132.345 222.152 132.345C223.174 132.345 224.025 132.612 224.707 133.147C225.397 133.683 225.85 134.437 226.064 135.41H223.408C223.184 134.787 222.751 134.476 222.109 134.476C221.651 134.476 221.286 134.656 221.014 135.016C220.741 135.366 220.605 135.872 220.605 136.534C220.605 137.195 220.741 137.706 221.014 138.066C221.286 138.416 221.651 138.592 222.109 138.592C222.751 138.592 223.184 138.28 223.408 137.657H226.064C225.85 138.611 225.397 139.36 224.707 139.905C224.016 140.45 223.164 140.722 222.152 140.722C221.354 140.722 220.644 140.552 220.021 140.212C219.408 139.871 218.927 139.385 218.576 138.752C218.236 138.12 218.066 137.38 218.066 136.534ZM235.076 136.402C235.076 136.636 235.062 136.879 235.032 137.132H229.384C229.423 137.638 229.583 138.027 229.866 138.3C230.157 138.562 230.513 138.694 230.931 138.694C231.554 138.694 231.987 138.431 232.23 137.906H234.886C234.75 138.441 234.502 138.922 234.142 139.351C233.792 139.779 233.349 140.114 232.814 140.358C232.279 140.601 231.68 140.722 231.019 140.722C230.221 140.722 229.51 140.552 228.888 140.212C228.265 139.871 227.778 139.385 227.428 138.752C227.078 138.12 226.903 137.38 226.903 136.534C226.903 135.687 227.073 134.948 227.414 134.315C227.764 133.683 228.25 133.196 228.873 132.856C229.496 132.515 230.211 132.345 231.019 132.345C231.807 132.345 232.507 132.51 233.12 132.841C233.733 133.172 234.21 133.644 234.551 134.257C234.901 134.87 235.076 135.585 235.076 136.402ZM232.522 135.745C232.522 135.317 232.376 134.977 232.084 134.724C231.792 134.471 231.427 134.344 230.989 134.344C230.571 134.344 230.216 134.466 229.924 134.709C229.642 134.952 229.467 135.298 229.399 135.745H232.522ZM238.889 133.819C239.181 133.371 239.545 133.021 239.983 132.768C240.421 132.505 240.908 132.374 241.443 132.374V135.016H240.757C240.134 135.016 239.667 135.152 239.356 135.424C239.044 135.687 238.889 136.154 238.889 136.826V140.606H236.393V132.461H238.889V133.819Z" fill="black"/>
<path d="M334.06 129.013L340.154 135.106M340.154 135.106L334.06 141.199M340.154 135.106L321.874 135.106" stroke="black" stroke-width="2.28498" stroke-miterlimit="10" stroke-linecap="round" stroke-linejoin="round"/>
<defs>
<filter id="filter0_d_37_1121" x="17.9149" y="18.9575" width="353.417" height="58.3815" filterUnits="userSpaceOnUse" color-interpolation-filters="sRGB">
<feFlood flood-opacity="0" result="BackgroundImageFix"/>
<feColorMatrix in="SourceAlpha" type="matrix" values="0 0 0 0 0 0 0 0 0 0 0 0 0 0 0 0 0 0 127 0" result="hardAlpha"/>
<feOffset dy="1.04253"/>
<feGaussianBlur stdDeviation="1.04253"/>
<feComposite in2="hardAlpha" operator="out"/>
<feColorMatrix type="matrix" values="0 0 0 0 0 0 0 0 0 0 0 0 0 0 0 0 0 0 0.2 0"/>
<feBlend mode="normal" in2="BackgroundImageFix" result="effect1_dropShadow_37_1121"/>
<feBlend mode="normal" in="SourceGraphic" in2="effect1_dropShadow_37_1121" result="shape"/>
</filter>
</defs>
</svg>
