<svg width="390" height="183" viewBox="0 0 390 183" fill="none" xmlns="http://www.w3.org/2000/svg">
<rect x="0.5" y="0.5" width="388.247" height="181.212" rx="4.5" stroke="#9747FF" stroke-dasharray="10 5"/>
<g filter="url(#filter0_d_37_831)">
<rect x="20" y="20" width="349.247" height="54.2115" rx="27.1058" fill="black" shape-rendering="crispEdges"/>
<path d="M156.735 47.4681C156.735 46.4562 156.954 45.5561 157.392 44.768C157.83 43.9701 158.438 43.3522 159.217 42.9144C160.005 42.4668 160.895 42.243 161.887 42.243C163.104 42.243 164.145 42.5641 165.011 43.2063C165.877 43.8485 166.456 44.7242 166.748 45.8334H164.004C163.799 45.4053 163.508 45.0793 163.128 44.8556C162.758 44.6318 162.335 44.5199 161.858 44.5199C161.09 44.5199 160.467 44.7874 159.99 45.3226C159.513 45.8578 159.275 46.5729 159.275 47.4681C159.275 48.3633 159.513 49.0785 159.99 49.6137C160.467 50.1488 161.09 50.4164 161.858 50.4164C162.335 50.4164 162.758 50.3045 163.128 50.0807C163.508 49.8569 163.799 49.5309 164.004 49.1028H166.748C166.456 50.2121 165.877 51.0878 165.011 51.73C164.145 52.3625 163.104 52.6787 161.887 52.6787C160.895 52.6787 160.005 52.4598 159.217 52.0219C158.438 51.5743 157.83 50.9564 157.392 50.1683C156.954 49.3801 156.735 48.4801 156.735 47.4681ZM171.983 52.7225C171.186 52.7225 170.465 52.5522 169.823 52.2116C169.191 51.8711 168.69 51.3846 168.32 50.7521C167.96 50.1196 167.78 49.3801 167.78 48.5336C167.78 47.6968 167.965 46.9622 168.335 46.3297C168.704 45.6875 169.21 45.1961 169.852 44.8556C170.495 44.515 171.215 44.3447 172.013 44.3447C172.81 44.3447 173.531 44.515 174.173 44.8556C174.815 45.1961 175.321 45.6875 175.691 46.3297C176.06 46.9622 176.245 47.6968 176.245 48.5336C176.245 49.3704 176.056 50.1099 175.676 50.7521C175.306 51.3846 174.795 51.8711 174.144 52.2116C173.501 52.5522 172.781 52.7225 171.983 52.7225ZM171.983 50.5624C172.46 50.5624 172.864 50.3872 173.195 50.0369C173.535 49.6866 173.706 49.1855 173.706 48.5336C173.706 47.8817 173.54 47.3806 173.209 47.0303C172.888 46.68 172.489 46.5048 172.013 46.5048C171.526 46.5048 171.122 46.68 170.801 47.0303C170.48 47.3708 170.32 47.8719 170.32 48.5336C170.32 49.1855 170.475 49.6866 170.787 50.0369C171.108 50.3872 171.507 50.5624 171.983 50.5624ZM182.532 44.3739C183.485 44.3739 184.244 44.6853 184.809 45.308C185.383 45.921 185.67 46.7676 185.67 47.8476V52.6057H183.189V48.1833C183.189 47.6384 183.047 47.2151 182.765 46.9135C182.483 46.6119 182.104 46.461 181.627 46.461C181.15 46.461 180.771 46.6119 180.488 46.9135C180.206 47.2151 180.065 47.6384 180.065 48.1833V52.6057H177.569V44.4615H180.065V45.5415C180.318 45.1815 180.659 44.8993 181.087 44.695C181.515 44.4809 181.997 44.3739 182.532 44.3739ZM191.491 46.534H190.148V52.6057H187.652V46.534H186.747V44.4615H187.652V44.228C187.652 43.2257 187.939 42.4668 188.513 41.9511C189.087 41.4256 189.929 41.1629 191.038 41.1629C191.223 41.1629 191.359 41.1678 191.447 41.1775V43.2938C190.97 43.2647 190.635 43.3328 190.44 43.4982C190.245 43.6636 190.148 43.9604 190.148 44.3885V44.4615H191.491V46.534ZM193.919 43.6149C193.481 43.6149 193.121 43.4885 192.839 43.2355C192.566 42.9727 192.43 42.6516 192.43 42.2722C192.43 41.883 192.566 41.5619 192.839 41.3089C193.121 41.0462 193.481 40.9148 193.919 40.9148C194.347 40.9148 194.697 41.0462 194.97 41.3089C195.252 41.5619 195.393 41.883 195.393 42.2722C195.393 42.6516 195.252 42.9727 194.97 43.2355C194.697 43.4885 194.347 43.6149 193.919 43.6149ZM195.159 44.4615V52.6057H192.664V44.4615H195.159ZM199.464 45.8188C199.756 45.3713 200.121 45.021 200.559 44.768C200.996 44.5053 201.483 44.3739 202.018 44.3739V47.0157H201.332C200.709 47.0157 200.242 47.1519 199.931 47.4243C199.62 47.6871 199.464 48.1541 199.464 48.8255V52.6057H196.968V44.4615H199.464V45.8188ZM213.603 44.3739C214.615 44.3739 215.418 44.6804 216.011 45.2934C216.614 45.9064 216.916 46.7578 216.916 47.8476V52.6057H214.435V48.1833C214.435 47.6579 214.294 47.2541 214.012 46.9719C213.739 46.68 213.36 46.534 212.873 46.534C212.387 46.534 212.002 46.68 211.72 46.9719C211.448 47.2541 211.312 47.6579 211.312 48.1833V52.6057H208.83V48.1833C208.83 47.6579 208.689 47.2541 208.407 46.9719C208.135 46.68 207.755 46.534 207.269 46.534C206.782 46.534 206.398 46.68 206.116 46.9719C205.843 47.2541 205.707 47.6579 205.707 48.1833V52.6057H203.211V44.4615H205.707V45.4832C205.96 45.1426 206.291 44.875 206.699 44.6804C207.108 44.4761 207.57 44.3739 208.086 44.3739C208.699 44.3739 209.244 44.5053 209.721 44.768C210.207 45.0307 210.587 45.4053 210.859 45.8918C211.141 45.4442 211.526 45.0793 212.012 44.7972C212.499 44.515 213.029 44.3739 213.603 44.3739ZM226.339 48.4022C226.339 48.6358 226.324 48.879 226.295 49.132H220.647C220.686 49.638 220.846 50.0272 221.128 50.2996C221.42 50.5624 221.775 50.6937 222.194 50.6937C222.816 50.6937 223.249 50.431 223.493 49.9056H226.149C226.013 50.4407 225.765 50.9224 225.405 51.3505C225.054 51.7786 224.612 52.1143 224.077 52.3576C223.541 52.6008 222.943 52.7225 222.281 52.7225C221.483 52.7225 220.773 52.5522 220.15 52.2116C219.528 51.8711 219.041 51.3846 218.691 50.7521C218.341 50.1196 218.165 49.3801 218.165 48.5336C218.165 47.6871 218.336 46.9476 218.676 46.3151C219.027 45.6826 219.513 45.1961 220.136 44.8556C220.759 44.515 221.474 44.3447 222.281 44.3447C223.069 44.3447 223.77 44.5101 224.383 44.841C224.996 45.1718 225.473 45.6437 225.813 46.2567C226.164 46.8697 226.339 47.5849 226.339 48.4022ZM223.785 47.7454C223.785 47.3173 223.639 46.9768 223.347 46.7238C223.055 46.4708 222.69 46.3443 222.252 46.3443C221.834 46.3443 221.479 46.4659 221.187 46.7092C220.904 46.9524 220.729 47.2979 220.661 47.7454H223.785ZM230.151 45.8188C230.443 45.3713 230.808 45.021 231.246 44.768C231.684 44.5053 232.17 44.3739 232.706 44.3739V47.0157H232.02C231.397 47.0157 230.93 47.1519 230.618 47.4243C230.307 47.6871 230.151 48.1541 230.151 48.8255V52.6057H227.656V44.4615H230.151V45.8188Z" fill="white"/>
<path d="M334.06 41.0126L340.154 47.1059M340.154 47.1059L334.06 53.1992M340.154 47.1059L321.874 47.1059" stroke="white" stroke-width="2.28498" stroke-miterlimit="10" stroke-linecap="round" stroke-linejoin="round"/>
<path d="M334.06 41.0126L340.154 47.1059M340.154 47.1059L334.06 53.1992M340.154 47.1059L321.874 47.1059" stroke="white" stroke-width="2.28498" stroke-miterlimit="10" stroke-linecap="round" stroke-linejoin="round"/>
</g>
<rect x="20" y="108" width="349.247" height="54.2115" rx="27.1058" fill="black"/>
<rect x="20" y="108" width="349.247" height="54.2115" rx="27.1058" fill="white" fill-opacity="0.2"/>
<path d="M156.735 135.468C156.735 134.456 156.954 133.556 157.392 132.768C157.83 131.97 158.438 131.352 159.217 130.914C160.005 130.467 160.895 130.243 161.887 130.243C163.104 130.243 164.145 130.564 165.011 131.206C165.877 131.848 166.456 132.724 166.748 133.833H164.004C163.799 133.405 163.508 133.079 163.128 132.856C162.758 132.632 162.335 132.52 161.858 132.52C161.09 132.52 160.467 132.787 159.99 133.323C159.513 133.858 159.275 134.573 159.275 135.468C159.275 136.363 159.513 137.078 159.99 137.614C160.467 138.149 161.09 138.416 161.858 138.416C162.335 138.416 162.758 138.305 163.128 138.081C163.508 137.857 163.799 137.531 164.004 137.103H166.748C166.456 138.212 165.877 139.088 165.011 139.73C164.145 140.362 163.104 140.679 161.887 140.679C160.895 140.679 160.005 140.46 159.217 140.022C158.438 139.574 157.83 138.956 157.392 138.168C156.954 137.38 156.735 136.48 156.735 135.468ZM171.983 140.722C171.186 140.722 170.465 140.552 169.823 140.212C169.191 139.871 168.69 139.385 168.32 138.752C167.96 138.12 167.78 137.38 167.78 136.534C167.78 135.697 167.965 134.962 168.335 134.33C168.704 133.687 169.21 133.196 169.852 132.856C170.495 132.515 171.215 132.345 172.013 132.345C172.81 132.345 173.531 132.515 174.173 132.856C174.815 133.196 175.321 133.687 175.691 134.33C176.06 134.962 176.245 135.697 176.245 136.534C176.245 137.37 176.056 138.11 175.676 138.752C175.306 139.385 174.795 139.871 174.144 140.212C173.501 140.552 172.781 140.722 171.983 140.722ZM171.983 138.562C172.46 138.562 172.864 138.387 173.195 138.037C173.535 137.687 173.706 137.186 173.706 136.534C173.706 135.882 173.54 135.381 173.209 135.03C172.888 134.68 172.489 134.505 172.013 134.505C171.526 134.505 171.122 134.68 170.801 135.03C170.48 135.371 170.32 135.872 170.32 136.534C170.32 137.186 170.475 137.687 170.787 138.037C171.108 138.387 171.507 138.562 171.983 138.562ZM182.532 132.374C183.485 132.374 184.244 132.685 184.809 133.308C185.383 133.921 185.67 134.768 185.67 135.848V140.606H183.189V136.183C183.189 135.638 183.047 135.215 182.765 134.914C182.483 134.612 182.104 134.461 181.627 134.461C181.15 134.461 180.771 134.612 180.488 134.914C180.206 135.215 180.065 135.638 180.065 136.183V140.606H177.569V132.461H180.065V133.542C180.318 133.182 180.659 132.899 181.087 132.695C181.515 132.481 181.997 132.374 182.532 132.374ZM191.491 134.534H190.148V140.606H187.652V134.534H186.747V132.461H187.652V132.228C187.652 131.226 187.939 130.467 188.513 129.951C189.087 129.426 189.929 129.163 191.038 129.163C191.223 129.163 191.359 129.168 191.447 129.178V131.294C190.97 131.265 190.635 131.333 190.44 131.498C190.245 131.664 190.148 131.96 190.148 132.389V132.461H191.491V134.534ZM193.919 131.615C193.481 131.615 193.121 131.488 192.839 131.235C192.566 130.973 192.43 130.652 192.43 130.272C192.43 129.883 192.566 129.562 192.839 129.309C193.121 129.046 193.481 128.915 193.919 128.915C194.347 128.915 194.697 129.046 194.97 129.309C195.252 129.562 195.393 129.883 195.393 130.272C195.393 130.652 195.252 130.973 194.97 131.235C194.697 131.488 194.347 131.615 193.919 131.615ZM195.159 132.461V140.606H192.664V132.461H195.159ZM199.464 133.819C199.756 133.371 200.121 133.021 200.559 132.768C200.996 132.505 201.483 132.374 202.018 132.374V135.016H201.332C200.709 135.016 200.242 135.152 199.931 135.424C199.62 135.687 199.464 136.154 199.464 136.826V140.606H196.968V132.461H199.464V133.819ZM213.603 132.374C214.615 132.374 215.418 132.68 216.011 133.293C216.614 133.906 216.916 134.758 216.916 135.848V140.606H214.435V136.183C214.435 135.658 214.294 135.254 214.012 134.972C213.739 134.68 213.36 134.534 212.873 134.534C212.387 134.534 212.002 134.68 211.72 134.972C211.448 135.254 211.312 135.658 211.312 136.183V140.606H208.83V136.183C208.83 135.658 208.689 135.254 208.407 134.972C208.135 134.68 207.755 134.534 207.269 134.534C206.782 134.534 206.398 134.68 206.116 134.972C205.843 135.254 205.707 135.658 205.707 136.183V140.606H203.211V132.461H205.707V133.483C205.96 133.143 206.291 132.875 206.699 132.68C207.108 132.476 207.57 132.374 208.086 132.374C208.699 132.374 209.244 132.505 209.721 132.768C210.207 133.031 210.587 133.405 210.859 133.892C211.141 133.444 211.526 133.079 212.012 132.797C212.499 132.515 213.029 132.374 213.603 132.374ZM226.339 136.402C226.339 136.636 226.324 136.879 226.295 137.132H220.647C220.686 137.638 220.846 138.027 221.128 138.3C221.42 138.562 221.775 138.694 222.194 138.694C222.816 138.694 223.249 138.431 223.493 137.906H226.149C226.013 138.441 225.765 138.922 225.405 139.351C225.054 139.779 224.612 140.114 224.077 140.358C223.541 140.601 222.943 140.722 222.281 140.722C221.483 140.722 220.773 140.552 220.15 140.212C219.528 139.871 219.041 139.385 218.691 138.752C218.341 138.12 218.165 137.38 218.165 136.534C218.165 135.687 218.336 134.948 218.676 134.315C219.027 133.683 219.513 133.196 220.136 132.856C220.759 132.515 221.474 132.345 222.281 132.345C223.069 132.345 223.77 132.51 224.383 132.841C224.996 133.172 225.473 133.644 225.813 134.257C226.164 134.87 226.339 135.585 226.339 136.402ZM223.785 135.745C223.785 135.317 223.639 134.977 223.347 134.724C223.055 134.471 222.69 134.344 222.252 134.344C221.834 134.344 221.479 134.466 221.187 134.709C220.904 134.952 220.729 135.298 220.661 135.745H223.785ZM230.151 133.819C230.443 133.371 230.808 133.021 231.246 132.768C231.684 132.505 232.17 132.374 232.706 132.374V135.016H232.02C231.397 135.016 230.93 135.152 230.618 135.424C230.307 135.687 230.151 136.154 230.151 136.826V140.606H227.656V132.461H230.151V133.819Z" fill="white"/>
<path d="M334.06 129.013L340.154 135.106M340.154 135.106L334.06 141.199M340.154 135.106L321.874 135.106" stroke="white" stroke-width="2.28498" stroke-miterlimit="10" stroke-linecap="round" stroke-linejoin="round"/>
<defs>
<filter id="filter0_d_37_831" x="17.9149" y="18.9575" width="353.417" height="58.3815" filterUnits="userSpaceOnUse" color-interpolation-filters="sRGB">
<feFlood flood-opacity="0" result="BackgroundImageFix"/>
<feColorMatrix in="SourceAlpha" type="matrix" values="0 0 0 0 0 0 0 0 0 0 0 0 0 0 0 0 0 0 127 0" result="hardAlpha"/>
<feOffset dy="1.04253"/>
<feGaussianBlur stdDeviation="1.04253"/>
<feComposite in2="hardAlpha" operator="out"/>
<feColorMatrix type="matrix" values="0 0 0 0 0 0 0 0 0 0 0 0 0 0 0 0 0 0 0.2 0"/>
<feBlend mode="normal" in2="BackgroundImageFix" result="effect1_dropShadow_37_831"/>
<feBlend mode="normal" in="SourceGraphic" in2="effect1_dropShadow_37_831" result="shape"/>
</filter>
</defs>
</svg>
