<svg width="200" height="159" viewBox="0 0 200 159" fill="none" xmlns="http://www.w3.org/2000/svg">
<g clip-path="url(#clip0_30_94)">
<path d="M171.846 140.387C171.439 138.055 170.524 135.584 169.146 133.439C168.425 132.301 167.564 131.247 166.575 130.342C163.699 127.73 159.796 126.592 155.94 126.742C153.979 126.816 152.028 127.227 150.187 127.898C149.244 128.243 148.402 128.738 147.533 129.223C146.664 129.708 145.906 130.258 145.175 130.892C142.428 133.299 140.865 136.684 140.329 140.285C140.07 142.038 140.061 143.838 140.403 145.582C144.759 167.417 175.092 158.995 171.846 140.396V140.387ZM162.358 148.66C154.654 157.213 141.411 144.687 149.817 136.19C151.353 134.632 153.008 133.774 154.636 133.467C155.597 133.289 156.541 133.299 157.456 133.467C163.458 134.567 167.833 142.57 162.358 148.66Z" fill="#FFC244"/>
<path d="M90.9997 140.387C90.5928 138.055 89.6772 135.584 88.2993 133.439C87.5779 132.301 86.7178 131.247 85.7283 130.342C82.8521 127.73 78.9495 126.592 75.093 126.742C73.1324 126.816 71.1811 127.227 69.3407 127.898C68.3974 128.243 67.5558 128.738 66.6865 129.223C65.8172 129.708 65.0589 130.258 64.3283 130.892C61.5816 133.299 60.0187 136.684 59.4823 140.285C59.2233 142.038 59.2141 143.838 59.5563 145.582C63.9121 167.417 94.2458 158.995 90.9997 140.396V140.387ZM81.5112 148.66C73.8075 157.213 60.5643 144.687 68.9708 136.19C70.506 134.632 72.1614 133.774 73.789 133.467C74.7508 133.289 75.6941 133.299 76.6097 133.467C82.6117 134.567 86.986 142.57 81.5112 148.66Z" fill="#FFC244"/>
<path d="M50.4284 94.4233C50.4654 94.3487 50.5671 94.1902 50.7151 93.9663C50.6226 94.1155 50.5209 94.2741 50.4284 94.4233Z" fill="black"/>
<path d="M50.7798 93.8732C50.9463 93.612 51.1775 93.2669 51.4735 92.8845C51.233 93.211 51.0018 93.5374 50.7798 93.8732Z" fill="black"/>
<path d="M60.2036 105.233C59.399 108.087 59.2141 112.854 64.8369 115.157C69.7754 117.172 177.617 107.808 177.617 107.808V123.822C177.617 123.822 176.147 123.822 173.539 123.841C171.948 123.841 169.941 123.841 167.583 123.85C166.584 123.85 165.53 123.85 164.42 123.859C159.667 123.869 153.887 123.878 147.552 123.897C126.845 123.925 100.128 123.962 83.2221 123.925C74.2977 123.915 68.1015 123.878 66.9824 123.813C64.6334 123.673 61.3689 123.02 58.4742 120.912C58.3632 120.837 58.2523 120.754 58.1505 120.67C56.7263 119.578 55.4131 118.114 54.3681 116.183C54.3588 116.165 54.3496 116.155 54.3496 116.137C53.1011 113.814 52.2318 110.82 52.0283 106.94C52.0191 106.912 52.0191 106.884 52.0191 106.856C51.9266 105.121 52.0561 103.545 52.3335 102.127C52.9069 99.2267 54.1369 96.9323 55.6073 95.1322C56.3472 94.2368 57.1702 93.4346 58.0765 92.7444C60.9897 90.478 64.6519 89.2934 68.3974 89.3307L133.837 89.8904L171.56 90.2168L180.521 60.0438L181.4 57.1058L188.798 32.2026L48.3568 36.7169L44.6206 21.7097H199.609L177.617 101.185C177.617 101.185 76.36 97.6691 69.4887 97.6691C68.2864 97.6691 67.2506 97.837 66.3443 98.1261C65.475 98.4059 64.7259 98.807 64.097 99.2734C64.0601 99.292 64.0231 99.32 63.9861 99.348C61.6001 101.157 60.9157 102.706 60.2036 105.233Z" fill="#FFC244"/>
<path d="M56.8373 87.9225C56.2547 88.2862 55.7091 88.6686 55.2097 89.0697C55.0432 89.2003 54.886 89.3215 54.7288 89.4614C54.5438 89.6106 54.3681 89.7599 54.2016 89.9184C54.0352 90.0583 53.8779 90.2076 53.73 90.3475C53.7022 90.3661 53.6745 90.3941 53.656 90.4221C53.471 90.5993 53.2861 90.7765 53.1196 90.9631C52.9439 91.1309 52.7867 91.2988 52.6479 91.4667C52.1763 91.9797 51.7879 92.4647 51.4734 92.8844C51.1775 93.2668 50.9463 93.6119 50.7798 93.8731C50.7521 93.9011 50.7336 93.9384 50.7151 93.9664C50.5671 94.1902 50.4654 94.3488 50.4284 94.4234C50.4099 94.4514 50.4007 94.47 50.4007 94.47L29.2781 10.6666L5.97292 13.5114L0.609039 0.56543L35.3355 1.29294L56.8373 87.9225Z" fill="#FFC244"/>
<path d="M59.1308 41.2034H72.2353L73.937 82.4755H66.1594L59.1308 41.2034Z" fill="#FFC244"/>
<path d="M87.1248 41.2034L86.4959 82.4755H80.2257L78.1171 41.2034H87.1248Z" fill="#FFC244"/>
<path d="M92.3684 82.4755V41.2034H98.2039L97.1682 82.4755H92.3684Z" fill="#FFC244"/>
<path d="M115.711 41.2034V82.4755H104.067L105.112 41.2034H115.711Z" fill="#FFC244"/>
<path d="M126.078 41.2034V82.4755H122.212L123.257 41.2034H126.078Z" fill="#FFC244"/>
<path d="M139.478 41.2034V82.4755H131.386L132.422 41.2034H139.478Z" fill="#FFC244"/>
<path d="M148.893 41.2034L147.857 82.4755H144.786L145.822 41.2034H148.893Z" fill="#FFC244"/>
<path d="M173.973 41.2034L165.021 82.4755H155.422V41.2034H173.973Z" fill="#FFC244"/>
</g>
<defs>
<clipPath id="clip0_30_94">
<rect width="199" height="158" fill="white" transform="translate(0.609039 0.56543)"/>
</clipPath>
</defs>
</svg>
