<svg width="24" height="24" viewBox="0 0 24 24" fill="none" xmlns="http://www.w3.org/2000/svg">
<path d="M6.62 10.79C6.84 13.05 8.77 14.86 11.16 14.86H12.86C15.25 14.86 17.18 13.05 17.4 10.79C17.48 9.53 17.04 8.35 16.23 7.47C15.42 6.59 14.31 6.08 13.12 6.08H10.9C9.71 6.08 8.6 6.59 7.79 7.47C6.98 8.35 6.54 9.53 6.62 10.79Z" fill="#A7A7A7"/>
<path d="M6 2C3.79 2 2 3.79 2 6V18C2 20.21 3.79 22 6 22H18C20.21 22 22 20.21 22 18V6C22 3.79 20.21 2 18 2H6ZM18 3.5C19.38 3.5 20.5 4.62 20.5 6V18C20.5 19.38 19.38 20.5 18 20.5H6C4.62 20.5 3.5 19.38 3.5 18V6C3.5 4.62 4.62 3.5 6 3.5H18Z" fill="#A7A7A7"/>
</svg>
