<svg width="297" height="297" viewBox="0 0 297 297" fill="none" xmlns="http://www.w3.org/2000/svg">
<rect x="0.617828" y="0.140625" width="296.255" height="296.255" rx="20" fill="white"/>
<g clip-path="url(#clip0_30_92)">
<path d="M205.846 209.387C205.439 207.055 204.524 204.584 203.146 202.439C202.425 201.301 201.564 200.247 200.575 199.342C197.699 196.73 193.796 195.592 189.94 195.742C187.979 195.816 186.028 196.227 184.187 196.898C183.244 197.243 182.402 197.738 181.533 198.223C180.664 198.708 179.906 199.258 179.175 199.892C176.428 202.299 174.865 205.684 174.329 209.285C174.07 211.038 174.061 212.838 174.403 214.582C178.759 236.417 209.092 227.995 205.846 209.396V209.387ZM196.358 217.66C188.654 226.213 175.411 213.687 183.817 205.19C185.353 203.632 187.008 202.774 188.636 202.467C189.597 202.289 190.541 202.299 191.456 202.467C197.458 203.567 201.833 211.57 196.358 217.66Z" fill="#FFC244"/>
<path d="M125 209.387C124.593 207.055 123.677 204.584 122.299 202.439C121.578 201.301 120.718 200.247 119.728 199.342C116.852 196.73 112.949 195.592 109.093 195.742C107.132 195.816 105.181 196.227 103.341 196.898C102.397 197.243 101.556 197.738 100.687 198.223C99.8172 198.708 99.0589 199.258 98.3283 199.892C95.5816 202.299 94.0187 205.684 93.4823 209.285C93.2233 211.038 93.2141 212.838 93.5563 214.582C97.9121 236.417 128.246 227.995 125 209.396V209.387ZM115.511 217.66C107.808 226.213 94.5643 213.687 102.971 205.19C104.506 203.632 106.161 202.774 107.789 202.467C108.751 202.289 109.694 202.299 110.61 202.467C116.612 203.567 120.986 211.57 115.511 217.66Z" fill="#FFC244"/>
<path d="M84.4284 163.423C84.4654 163.349 84.5671 163.19 84.7151 162.966C84.6226 163.116 84.5209 163.274 84.4284 163.423Z" fill="black"/>
<path d="M84.7798 162.873C84.9463 162.612 85.1775 162.267 85.4735 161.885C85.233 162.211 85.0018 162.537 84.7798 162.873Z" fill="black"/>
<path d="M94.2036 174.233C93.399 177.087 93.2141 181.854 98.8369 184.157C103.775 186.172 211.617 176.808 211.617 176.808V192.822C211.617 192.822 210.147 192.822 207.539 192.841C205.948 192.841 203.941 192.841 201.583 192.85C200.584 192.85 199.53 192.85 198.42 192.859C193.667 192.869 187.887 192.878 181.552 192.897C160.845 192.925 134.128 192.962 117.222 192.925C108.298 192.915 102.101 192.878 100.982 192.813C98.6334 192.673 95.3689 192.02 92.4742 189.912C92.3632 189.837 92.2523 189.754 92.1505 189.67C90.7263 188.578 89.4131 187.114 88.3681 185.183C88.3588 185.165 88.3496 185.155 88.3496 185.137C87.1011 182.814 86.2318 179.82 86.0283 175.94C86.0191 175.912 86.0191 175.884 86.0191 175.856C85.9266 174.121 86.0561 172.545 86.3335 171.127C86.9069 168.227 88.1369 165.932 89.6073 164.132C90.3472 163.237 91.1702 162.435 92.0765 161.744C94.9897 159.478 98.6519 158.293 102.397 158.331L167.837 158.89L205.56 159.217L214.521 129.044L215.4 126.106L222.798 101.203L82.3568 105.717L78.6206 90.7097H233.609L211.617 170.185C211.617 170.185 110.36 166.669 103.489 166.669C102.286 166.669 101.251 166.837 100.344 167.126C99.475 167.406 98.7259 167.807 98.097 168.273C98.0601 168.292 98.0231 168.32 97.9861 168.348C95.6001 170.157 94.9157 171.706 94.2036 174.233Z" fill="#FFC244"/>
<path d="M90.8373 156.922C90.2547 157.286 89.7091 157.669 89.2097 158.07C89.0432 158.2 88.886 158.322 88.7288 158.461C88.5438 158.611 88.3681 158.76 88.2016 158.918C88.0352 159.058 87.8779 159.208 87.73 159.347C87.7022 159.366 87.6745 159.394 87.656 159.422C87.471 159.599 87.2861 159.777 87.1196 159.963C86.9439 160.131 86.7867 160.299 86.6479 160.467C86.1763 160.98 85.7879 161.465 85.4734 161.884C85.1775 162.267 84.9463 162.612 84.7798 162.873C84.7521 162.901 84.7336 162.938 84.7151 162.966C84.5671 163.19 84.4654 163.349 84.4284 163.423C84.4099 163.451 84.4007 163.47 84.4007 163.47L63.2781 79.6666L39.9729 82.5114L34.609 69.5654L69.3355 70.2929L90.8373 156.922Z" fill="#FFC244"/>
<path d="M93.1308 110.203H106.235L107.937 151.476H100.159L93.1308 110.203Z" fill="#FFC244"/>
<path d="M121.125 110.203L120.496 151.476H114.226L112.117 110.203H121.125Z" fill="#FFC244"/>
<path d="M126.368 151.476V110.203H132.204L131.168 151.476H126.368Z" fill="#FFC244"/>
<path d="M149.711 110.203V151.476H138.067L139.112 110.203H149.711Z" fill="#FFC244"/>
<path d="M160.078 110.203V151.476H156.212L157.257 110.203H160.078Z" fill="#FFC244"/>
<path d="M173.478 110.203V151.476H165.386L166.422 110.203H173.478Z" fill="#FFC244"/>
<path d="M182.893 110.203L181.857 151.476H178.786L179.822 110.203H182.893Z" fill="#FFC244"/>
<path d="M207.973 110.203L199.021 151.476H189.422V110.203H207.973Z" fill="#FFC244"/>
</g>
<defs>
<clipPath id="clip0_30_92">
<rect width="199" height="158" fill="white" transform="translate(34.609 69.5654)"/>
</clipPath>
</defs>
</svg>
