<svg width="297" height="297" viewBox="0 0 297 297" fill="none" xmlns="http://www.w3.org/2000/svg">
<rect x="0.268982" y="0.140625" width="296.255" height="296.255" rx="20" fill="#FFC244"/>
<g clip-path="url(#clip0_29_74)">
<path d="M205.498 209.387C205.091 207.055 204.175 204.584 202.797 202.439C202.076 201.301 201.216 200.247 200.226 199.342C197.35 196.73 193.447 195.592 189.591 195.742C187.63 195.816 185.679 196.227 183.839 196.898C182.895 197.243 182.054 197.738 181.184 198.223C180.315 198.708 179.557 199.258 178.826 199.892C176.079 202.299 174.516 205.684 173.98 209.285C173.721 211.038 173.712 212.838 174.054 214.582C178.41 236.417 208.744 227.995 205.498 209.396V209.387ZM196.009 217.66C188.305 226.213 175.062 213.687 183.469 205.19C185.004 203.632 186.659 202.774 188.287 202.467C189.249 202.289 190.192 202.299 191.108 202.467C197.11 203.567 201.484 211.57 196.009 217.66Z" fill="#010202"/>
<path d="M124.651 209.387C124.244 207.055 123.328 204.584 121.95 202.439C121.229 201.301 120.369 200.247 119.379 199.342C116.503 196.73 112.601 195.592 108.744 195.742C106.784 195.816 104.832 196.227 102.992 196.898C102.049 197.243 101.207 197.738 100.338 198.223C99.4683 198.708 98.71 199.258 97.9794 199.892C95.2327 202.299 93.6698 205.684 93.1334 209.285C92.8745 211.038 92.8652 212.838 93.2074 214.582C97.5632 236.417 127.897 227.995 124.651 209.396V209.387ZM115.162 217.66C107.459 226.213 94.2154 213.687 102.622 205.19C104.157 203.632 105.813 202.774 107.44 202.467C108.402 202.289 109.345 202.299 110.261 202.467C116.263 203.567 120.637 211.57 115.162 217.66Z" fill="#010202"/>
<path d="M84.0795 163.423C84.1165 163.349 84.2183 163.19 84.3662 162.966C84.2737 163.116 84.172 163.274 84.0795 163.423Z" fill="black"/>
<path d="M84.431 162.873C84.5974 162.612 84.8286 162.267 85.1246 161.885C84.8841 162.211 84.6529 162.537 84.431 162.873Z" fill="black"/>
<path d="M93.8548 174.233C93.0502 177.087 92.8652 181.854 98.4881 184.157C103.427 186.172 211.268 176.808 211.268 176.808V192.822C211.268 192.822 209.798 192.822 207.19 192.841C205.599 192.841 203.592 192.841 201.234 192.85C200.235 192.85 199.181 192.85 198.071 192.859C193.318 192.869 187.538 192.878 181.203 192.897C160.496 192.925 133.779 192.962 116.873 192.925C107.949 192.915 101.753 192.878 100.634 192.813C98.2846 192.673 95.02 192.02 92.1254 189.912C92.0144 189.837 91.9034 189.754 91.8017 189.67C90.3775 188.578 89.0643 187.114 88.0193 185.183C88.01 185.165 88.0008 185.155 88.0008 185.137C86.7523 182.814 85.883 179.82 85.6795 175.94C85.6702 175.912 85.6702 175.884 85.6702 175.856C85.5778 174.121 85.7072 172.545 85.9847 171.127C86.5581 168.227 87.7881 165.932 89.2585 164.132C89.9983 163.237 90.8214 162.435 91.7277 161.744C94.6409 159.478 98.3031 158.293 102.049 158.331L167.488 158.89L205.211 159.217L214.172 129.044L215.051 126.106L222.449 101.203L82.008 105.717L78.2718 90.7097H233.26L211.268 170.185C211.268 170.185 110.011 166.669 103.14 166.669C101.938 166.669 100.902 166.837 99.9955 167.126C99.1262 167.406 98.3771 167.807 97.7482 168.273C97.7112 168.292 97.6742 168.32 97.6373 168.348C95.2512 170.157 94.5669 171.706 93.8548 174.233Z" fill="#010202"/>
<path d="M90.4885 156.922C89.9058 157.286 89.3602 157.669 88.8608 158.07C88.6943 158.2 88.5371 158.322 88.3799 158.461C88.195 158.611 88.0192 158.76 87.8528 158.918C87.6863 159.058 87.5291 159.208 87.3811 159.347C87.3534 159.366 87.3256 159.394 87.3071 159.422C87.1222 159.599 86.9372 159.777 86.7707 159.963C86.595 160.131 86.4378 160.299 86.2991 160.467C85.8274 160.98 85.439 161.465 85.1246 161.884C84.8287 162.267 84.5974 162.612 84.431 162.873C84.4032 162.901 84.3847 162.938 84.3662 162.966C84.2183 163.19 84.1165 163.349 84.0796 163.423C84.0611 163.451 84.0518 163.47 84.0518 163.47L62.9292 79.6666L39.6241 82.5114L34.2602 69.5654L68.9867 70.2929L90.4885 156.922Z" fill="#010202"/>
<path d="M92.782 110.203H105.886L107.588 151.476H99.8105L92.782 110.203Z" fill="#010202"/>
<path d="M120.776 110.203L120.147 151.476H113.877L111.768 110.203H120.776Z" fill="#010202"/>
<path d="M126.02 151.476V110.203H131.855L130.819 151.476H126.02Z" fill="#010202"/>
<path d="M149.362 110.203V151.476H137.718L138.763 110.203H149.362Z" fill="#010202"/>
<path d="M159.729 110.203V151.476H155.863L156.908 110.203H159.729Z" fill="#010202"/>
<path d="M173.129 110.203V151.476H165.037L166.073 110.203H173.129Z" fill="#010202"/>
<path d="M182.544 110.203L181.508 151.476H178.438L179.473 110.203H182.544Z" fill="#010202"/>
<path d="M207.625 110.203L198.672 151.476H189.073V110.203H207.625Z" fill="#010202"/>
</g>
<defs>
<clipPath id="clip0_29_74">
<rect width="199" height="158" fill="white" transform="translate(34.2602 69.5654)"/>
</clipPath>
</defs>
</svg>
