<svg width="76" height="128" viewBox="0 0 76 128" fill="none" xmlns="http://www.w3.org/2000/svg">
<rect x="1.46362" y="0.509766" width="73.9778" height="126.756" rx="4.5" stroke="#9747FF" stroke-dasharray="10 5"/>
<path d="M20.9636 60.0073H55.9414V20.0098H34.4636C27.0078 20.0098 20.9636 26.0539 20.9636 33.5098V60.0073Z" fill="#FFC244"/>
<path d="M37.8868 40.7551H32.4612V38.9466H37.8868V33.521H39.6953V38.9466H45.1209V40.7551H39.6953V46.1807H37.8868V40.7551Z" fill="black"/>
<path d="M20.9636 107.766H55.9414V67.7686H34.4636C27.0078 67.7686 20.9636 73.8127 20.9636 81.2686V107.766Z" fill="#FFC244"/>
<path d="M20.9636 107.766H55.9414V67.7686H34.4636C27.0078 67.7686 20.9636 73.8127 20.9636 81.2686V107.766Z" fill="white" fill-opacity="0.2"/>
<path d="M37.8868 88.5139H32.4612V86.7054H37.8868V81.2798H39.6953V86.7054H45.1209V88.5139H39.6953V93.9395H37.8868V88.5139Z" fill="black"/>
</svg>
