<svg width="440" height="240" viewBox="0 0 440 240" fill="none" xmlns="http://www.w3.org/2000/svg">
<rect x="0.5" y="0.5" width="439" height="239" rx="4.5" stroke="#9747FF" stroke-dasharray="10 5"/>
<g filter="url(#filter0_d_60_385)">
<rect x="20" y="20" width="400" height="90" rx="15" fill="white"/>
</g>
<path d="M76.1076 61.0838V58.2218H81.0936V71.3618H77.8896V61.0838H76.1076ZM89.4452 71.3618L87.5192 68.5718L85.8992 71.3618H82.5692L85.8812 66.2318L82.4792 61.3178H85.9352L87.8612 64.0898L89.4812 61.3178H92.8112L89.4452 66.3758L92.9012 71.3618H89.4452Z" fill="black"/>
<circle cx="378.483" cy="64.479" r="21.4829" fill="#B51717"/>
<path d="M373.496 73.7397C372.946 73.7397 372.475 73.5441 372.084 73.1527C371.693 72.7614 371.497 72.2904 371.496 71.7397V58.7397H370.496V56.7397H375.496V55.7397H381.496V56.7397H386.496V58.7397H385.496V71.7397C385.496 72.2897 385.3 72.7607 384.909 73.1527C384.518 73.5447 384.047 73.7404 383.496 73.7397H373.496ZM383.496 58.7397H373.496V71.7397H383.496V58.7397ZM375.496 69.7397H377.496V60.7397H375.496V69.7397ZM379.496 69.7397H381.496V60.7397H379.496V69.7397Z" fill="white"/>
<path d="M119.499 51.9768C119.879 52.0368 120.224 52.1918 120.534 52.4418C120.854 52.6918 121.104 53.0018 121.284 53.3718C121.474 53.7418 121.569 54.1368 121.569 54.5568C121.569 55.0868 121.434 55.5668 121.164 55.9968C120.894 56.4168 120.499 56.7518 119.979 57.0018C119.469 57.2418 118.864 57.3618 118.164 57.3618H114.264V46.9068H118.014C118.724 46.9068 119.329 47.0268 119.829 47.2668C120.329 47.4968 120.704 47.8118 120.954 48.2118C121.204 48.6118 121.329 49.0618 121.329 49.5618C121.329 50.1818 121.159 50.6968 120.819 51.1068C120.489 51.5068 120.049 51.7968 119.499 51.9768ZM115.629 51.4218H117.924C118.564 51.4218 119.059 51.2718 119.409 50.9718C119.759 50.6718 119.934 50.2568 119.934 49.7268C119.934 49.1968 119.759 48.7818 119.409 48.4818C119.059 48.1818 118.554 48.0318 117.894 48.0318H115.629V51.4218ZM118.044 56.2368C118.724 56.2368 119.254 56.0768 119.634 55.7568C120.014 55.4368 120.204 54.9918 120.204 54.4218C120.204 53.8418 120.004 53.3868 119.604 53.0568C119.204 52.7168 118.669 52.5468 117.999 52.5468H115.629V56.2368H118.044ZM127.049 57.4968C126.279 57.4968 125.579 57.3218 124.949 56.9718C124.329 56.6218 123.839 56.1268 123.479 55.4868C123.129 54.8368 122.954 54.0868 122.954 53.2368C122.954 52.3968 123.134 51.6568 123.494 51.0168C123.864 50.3668 124.364 49.8718 124.994 49.5318C125.624 49.1818 126.329 49.0068 127.109 49.0068C127.889 49.0068 128.594 49.1818 129.224 49.5318C129.854 49.8718 130.349 50.3618 130.709 51.0018C131.079 51.6418 131.264 52.3868 131.264 53.2368C131.264 54.0868 131.074 54.8368 130.694 55.4868C130.324 56.1268 129.819 56.6218 129.179 56.9718C128.539 57.3218 127.829 57.4968 127.049 57.4968ZM127.049 56.2968C127.539 56.2968 127.999 56.1818 128.429 55.9518C128.859 55.7218 129.204 55.3768 129.464 54.9168C129.734 54.4568 129.869 53.8968 129.869 53.2368C129.869 52.5768 129.739 52.0168 129.479 51.5568C129.219 51.0968 128.879 50.7568 128.459 50.5368C128.039 50.3068 127.584 50.1918 127.094 50.1918C126.594 50.1918 126.134 50.3068 125.714 50.5368C125.304 50.7568 124.974 51.0968 124.724 51.5568C124.474 52.0168 124.349 52.5768 124.349 53.2368C124.349 53.9068 124.469 54.4718 124.709 54.9318C124.959 55.3918 125.289 55.7368 125.699 55.9668C126.109 56.1868 126.559 56.2968 127.049 56.2968ZM140.348 49.1418V57.3618H138.983V56.1468C138.723 56.5668 138.358 56.8968 137.888 57.1368C137.428 57.3668 136.918 57.4818 136.358 57.4818C135.718 57.4818 135.143 57.3518 134.633 57.0918C134.123 56.8218 133.718 56.4218 133.418 55.8918C133.128 55.3618 132.983 54.7168 132.983 53.9568V49.1418H134.333V53.7768C134.333 54.5868 134.538 55.2118 134.948 55.6518C135.358 56.0818 135.918 56.2968 136.628 56.2968C137.358 56.2968 137.933 56.0718 138.353 55.6218C138.773 55.1718 138.983 54.5168 138.983 53.6568V49.1418H140.348ZM144.318 50.2668V55.1118C144.318 55.5118 144.403 55.7968 144.573 55.9668C144.743 56.1268 145.038 56.2068 145.458 56.2068H146.463V57.3618H145.233C144.473 57.3618 143.903 57.1868 143.523 56.8368C143.143 56.4868 142.953 55.9118 142.953 55.1118V50.2668H141.888V49.1418H142.953V47.0718H144.318V49.1418H146.463V50.2668H144.318ZM155.617 52.9368C155.617 53.1968 155.602 53.4718 155.572 53.7618H149.002C149.052 54.5718 149.327 55.2068 149.827 55.6668C150.337 56.1168 150.952 56.3418 151.672 56.3418C152.262 56.3418 152.752 56.2068 153.142 55.9368C153.542 55.6568 153.822 55.2868 153.982 54.8268H155.452C155.232 55.6168 154.792 56.2618 154.132 56.7618C153.472 57.2518 152.652 57.4968 151.672 57.4968C150.892 57.4968 150.192 57.3218 149.572 56.9718C148.962 56.6218 148.482 56.1268 148.132 55.4868C147.782 54.8368 147.607 54.0868 147.607 53.2368C147.607 52.3868 147.777 51.6418 148.117 51.0018C148.457 50.3618 148.932 49.8718 149.542 49.5318C150.162 49.1818 150.872 49.0068 151.672 49.0068C152.452 49.0068 153.142 49.1768 153.742 49.5168C154.342 49.8568 154.802 50.3268 155.122 50.9268C155.452 51.5168 155.617 52.1868 155.617 52.9368ZM154.207 52.6518C154.207 52.1318 154.092 51.6868 153.862 51.3168C153.632 50.9368 153.317 50.6518 152.917 50.4618C152.527 50.2618 152.092 50.1618 151.612 50.1618C150.922 50.1618 150.332 50.3818 149.842 50.8218C149.362 51.2618 149.087 51.8718 149.017 52.6518H154.207ZM158.124 47.8068C157.864 47.8068 157.644 47.7168 157.464 47.5368C157.284 47.3568 157.194 47.1368 157.194 46.8768C157.194 46.6168 157.284 46.3968 157.464 46.2168C157.644 46.0368 157.864 45.9468 158.124 45.9468C158.374 45.9468 158.584 46.0368 158.754 46.2168C158.934 46.3968 159.024 46.6168 159.024 46.8768C159.024 47.1368 158.934 47.3568 158.754 47.5368C158.584 47.7168 158.374 47.8068 158.124 47.8068ZM158.784 49.1418V57.3618H157.419V49.1418H158.784ZM162.475 46.2618V57.3618H161.11V46.2618H162.475ZM166.166 46.2618V57.3618H164.801V46.2618H166.166ZM175.993 52.9368C175.993 53.1968 175.978 53.4718 175.948 53.7618H169.378C169.428 54.5718 169.703 55.2068 170.203 55.6668C170.713 56.1168 171.328 56.3418 172.048 56.3418C172.638 56.3418 173.128 56.2068 173.518 55.9368C173.918 55.6568 174.198 55.2868 174.358 54.8268H175.828C175.608 55.6168 175.168 56.2618 174.508 56.7618C173.848 57.2518 173.028 57.4968 172.048 57.4968C171.268 57.4968 170.568 57.3218 169.948 56.9718C169.338 56.6218 168.858 56.1268 168.508 55.4868C168.158 54.8368 167.983 54.0868 167.983 53.2368C167.983 52.3868 168.153 51.6418 168.493 51.0018C168.833 50.3618 169.308 49.8718 169.918 49.5318C170.538 49.1818 171.248 49.0068 172.048 49.0068C172.828 49.0068 173.518 49.1768 174.118 49.5168C174.718 49.8568 175.178 50.3268 175.498 50.9268C175.828 51.5168 175.993 52.1868 175.993 52.9368ZM174.583 52.6518C174.583 52.1318 174.468 51.6868 174.238 51.3168C174.008 50.9368 173.693 50.6518 173.293 50.4618C172.903 50.2618 172.468 50.1618 171.988 50.1618C171.298 50.1618 170.708 50.3818 170.218 50.8218C169.738 51.2618 169.463 51.8718 169.393 52.6518H174.583ZM181.284 53.2218C181.284 52.3818 181.454 51.6468 181.794 51.0168C182.134 50.3768 182.599 49.8818 183.189 49.5318C183.789 49.1818 184.459 49.0068 185.199 49.0068C185.839 49.0068 186.434 49.1568 186.984 49.4568C187.534 49.7468 187.954 50.1318 188.244 50.6118V46.2618H189.624V57.3618H188.244V55.8168C187.974 56.3068 187.574 56.7118 187.044 57.0318C186.514 57.3418 185.894 57.4968 185.184 57.4968C184.454 57.4968 183.789 57.3168 183.189 56.9568C182.599 56.5968 182.134 56.0918 181.794 55.4418C181.454 54.7918 181.284 54.0518 181.284 53.2218ZM188.244 53.2368C188.244 52.6168 188.119 52.0768 187.869 51.6168C187.619 51.1568 187.279 50.8068 186.849 50.5668C186.429 50.3168 185.964 50.1918 185.454 50.1918C184.944 50.1918 184.479 50.3118 184.059 50.5518C183.639 50.7918 183.304 51.1418 183.054 51.6018C182.804 52.0618 182.679 52.6018 182.679 53.2218C182.679 53.8518 182.804 54.4018 183.054 54.8718C183.304 55.3318 183.639 55.6868 184.059 55.9368C184.479 56.1768 184.944 56.2968 185.454 56.2968C185.964 56.2968 186.429 56.1768 186.849 55.9368C187.279 55.6868 187.619 55.3318 187.869 54.8718C188.119 54.4018 188.244 53.8568 188.244 53.2368ZM192.62 45.4218L192.44 48.4068H191.495L191.3 45.4218H192.62ZM201.818 52.9368C201.818 53.1968 201.803 53.4718 201.773 53.7618H195.203C195.253 54.5718 195.528 55.2068 196.028 55.6668C196.538 56.1168 197.153 56.3418 197.873 56.3418C198.463 56.3418 198.953 56.2068 199.343 55.9368C199.743 55.6568 200.023 55.2868 200.183 54.8268H201.653C201.433 55.6168 200.993 56.2618 200.333 56.7618C199.673 57.2518 198.853 57.4968 197.873 57.4968C197.093 57.4968 196.393 57.3218 195.773 56.9718C195.163 56.6218 194.683 56.1268 194.333 55.4868C193.983 54.8368 193.808 54.0868 193.808 53.2368C193.808 52.3868 193.978 51.6418 194.318 51.0018C194.658 50.3618 195.133 49.8718 195.743 49.5318C196.363 49.1818 197.073 49.0068 197.873 49.0068C198.653 49.0068 199.343 49.1768 199.943 49.5168C200.543 49.8568 201.003 50.3268 201.323 50.9268C201.653 51.5168 201.818 52.1868 201.818 52.9368ZM200.408 52.6518C200.408 52.1318 200.293 51.6868 200.063 51.3168C199.833 50.9368 199.518 50.6518 199.118 50.4618C198.728 50.2618 198.293 50.1618 197.813 50.1618C197.123 50.1618 196.533 50.3818 196.043 50.8218C195.563 51.2618 195.288 51.8718 195.218 52.6518H200.408ZM203.11 53.2218C203.11 52.3818 203.28 51.6468 203.62 51.0168C203.96 50.3768 204.425 49.8818 205.015 49.5318C205.615 49.1818 206.28 49.0068 207.01 49.0068C207.73 49.0068 208.355 49.1618 208.885 49.4718C209.415 49.7818 209.81 50.1718 210.07 50.6418V49.1418H211.45V57.3618H210.07V55.8318C209.8 56.3118 209.395 56.7118 208.855 57.0318C208.325 57.3418 207.705 57.4968 206.995 57.4968C206.265 57.4968 205.605 57.3168 205.015 56.9568C204.425 56.5968 203.96 56.0918 203.62 55.4418C203.28 54.7918 203.11 54.0518 203.11 53.2218ZM210.07 53.2368C210.07 52.6168 209.945 52.0768 209.695 51.6168C209.445 51.1568 209.105 50.8068 208.675 50.5668C208.255 50.3168 207.79 50.1918 207.28 50.1918C206.77 50.1918 206.305 50.3118 205.885 50.5518C205.465 50.7918 205.13 51.1418 204.88 51.6018C204.63 52.0618 204.505 52.6018 204.505 53.2218C204.505 53.8518 204.63 54.4018 204.88 54.8718C205.13 55.3318 205.465 55.6868 205.885 55.9368C206.305 56.1768 206.77 56.2968 207.28 56.2968C207.79 56.2968 208.255 56.1768 208.675 55.9368C209.105 55.6868 209.445 55.3318 209.695 54.8718C209.945 54.4018 210.07 53.8568 210.07 53.2368ZM221.047 49.1418V57.3618H219.682V56.1468C219.422 56.5668 219.057 56.8968 218.587 57.1368C218.127 57.3668 217.617 57.4818 217.057 57.4818C216.417 57.4818 215.842 57.3518 215.332 57.0918C214.822 56.8218 214.417 56.4218 214.117 55.8918C213.827 55.3618 213.682 54.7168 213.682 53.9568V49.1418H215.032V53.7768C215.032 54.5868 215.237 55.2118 215.647 55.6518C216.057 56.0818 216.617 56.2968 217.327 56.2968C218.057 56.2968 218.632 56.0718 219.052 55.6218C219.472 55.1718 219.682 54.5168 219.682 53.6568V49.1418H221.047ZM224.761 55.4718L223.081 59.5068H222.166L223.261 55.4718H224.761ZM233.234 57.4968C232.604 57.4968 232.039 57.3918 231.539 57.1818C231.039 56.9618 230.644 56.6618 230.354 56.2818C230.064 55.8918 229.904 55.4468 229.874 54.9468H231.284C231.324 55.3568 231.514 55.6918 231.854 55.9518C232.204 56.2118 232.659 56.3418 233.219 56.3418C233.739 56.3418 234.149 56.2268 234.449 55.9968C234.749 55.7668 234.899 55.4768 234.899 55.1268C234.899 54.7668 234.739 54.5018 234.419 54.3318C234.099 54.1518 233.604 53.9768 232.934 53.8068C232.324 53.6468 231.824 53.4868 231.434 53.3268C231.054 53.1568 230.724 52.9118 230.444 52.5918C230.174 52.2618 230.039 51.8318 230.039 51.3018C230.039 50.8818 230.164 50.4968 230.414 50.1468C230.664 49.7968 231.019 49.5218 231.479 49.3218C231.939 49.1118 232.464 49.0068 233.054 49.0068C233.964 49.0068 234.699 49.2368 235.259 49.6968C235.819 50.1568 236.119 50.7868 236.159 51.5868H234.794C234.764 51.1568 234.589 50.8118 234.269 50.5518C233.959 50.2918 233.539 50.1618 233.009 50.1618C232.519 50.1618 232.129 50.2668 231.839 50.4768C231.549 50.6868 231.404 50.9618 231.404 51.3018C231.404 51.5718 231.489 51.7968 231.659 51.9768C231.839 52.1468 232.059 52.2868 232.319 52.3968C232.589 52.4968 232.959 52.6118 233.429 52.7418C234.019 52.9018 234.499 53.0618 234.869 53.2218C235.239 53.3718 235.554 53.6018 235.814 53.9118C236.084 54.2218 236.224 54.6268 236.234 55.1268C236.234 55.5768 236.109 55.9818 235.859 56.3418C235.609 56.7018 235.254 56.9868 234.794 57.1968C234.344 57.3968 233.824 57.4968 233.234 57.4968ZM238.866 47.8068C238.606 47.8068 238.386 47.7168 238.206 47.5368C238.026 47.3568 237.936 47.1368 237.936 46.8768C237.936 46.6168 238.026 46.3968 238.206 46.2168C238.386 46.0368 238.606 45.9468 238.866 45.9468C239.116 45.9468 239.326 46.0368 239.496 46.2168C239.676 46.3968 239.766 46.6168 239.766 46.8768C239.766 47.1368 239.676 47.3568 239.496 47.5368C239.326 47.7168 239.116 47.8068 238.866 47.8068ZM239.526 49.1418V57.3618H238.161V49.1418H239.526ZM241.342 53.2218C241.342 52.3818 241.512 51.6468 241.852 51.0168C242.192 50.3768 242.657 49.8818 243.247 49.5318C243.847 49.1818 244.517 49.0068 245.257 49.0068C245.897 49.0068 246.492 49.1568 247.042 49.4568C247.592 49.7468 248.012 50.1318 248.302 50.6118V46.2618H249.682V57.3618H248.302V55.8168C248.032 56.3068 247.632 56.7118 247.102 57.0318C246.572 57.3418 245.952 57.4968 245.242 57.4968C244.512 57.4968 243.847 57.3168 243.247 56.9568C242.657 56.5968 242.192 56.0918 241.852 55.4418C241.512 54.7918 241.342 54.0518 241.342 53.2218ZM248.302 53.2368C248.302 52.6168 248.177 52.0768 247.927 51.6168C247.677 51.1568 247.337 50.8068 246.907 50.5668C246.487 50.3168 246.022 50.1918 245.512 50.1918C245.002 50.1918 244.537 50.3118 244.117 50.5518C243.697 50.7918 243.362 51.1418 243.112 51.6018C242.862 52.0618 242.737 52.6018 242.737 53.2218C242.737 53.8518 242.862 54.4018 243.112 54.8718C243.362 55.3318 243.697 55.6868 244.117 55.9368C244.537 56.1768 245.002 56.2968 245.512 56.2968C246.022 56.2968 246.487 56.1768 246.907 55.9368C247.337 55.6868 247.677 55.3318 247.927 54.8718C248.177 54.4018 248.302 53.8568 248.302 53.2368ZM252.694 47.8068C252.434 47.8068 252.214 47.7168 252.034 47.5368C251.854 47.3568 251.764 47.1368 251.764 46.8768C251.764 46.6168 251.854 46.3968 252.034 46.2168C252.214 46.0368 252.434 45.9468 252.694 45.9468C252.944 45.9468 253.154 46.0368 253.324 46.2168C253.504 46.3968 253.594 46.6168 253.594 46.8768C253.594 47.1368 253.504 47.3568 253.324 47.5368C253.154 47.7168 252.944 47.8068 252.694 47.8068ZM253.354 49.1418V57.3618H251.989V49.1418H253.354ZM259.169 53.2218C259.169 52.3818 259.339 51.6468 259.679 51.0168C260.019 50.3768 260.484 49.8818 261.074 49.5318C261.674 49.1818 262.339 49.0068 263.069 49.0068C263.789 49.0068 264.414 49.1618 264.944 49.4718C265.474 49.7818 265.869 50.1718 266.129 50.6418V49.1418H267.509V57.3618H266.129V55.8318C265.859 56.3118 265.454 56.7118 264.914 57.0318C264.384 57.3418 263.764 57.4968 263.054 57.4968C262.324 57.4968 261.664 57.3168 261.074 56.9568C260.484 56.5968 260.019 56.0918 259.679 55.4418C259.339 54.7918 259.169 54.0518 259.169 53.2218ZM266.129 53.2368C266.129 52.6168 266.004 52.0768 265.754 51.6168C265.504 51.1568 265.164 50.8068 264.734 50.5668C264.314 50.3168 263.849 50.1918 263.339 50.1918C262.829 50.1918 262.364 50.3118 261.944 50.5518C261.524 50.7918 261.189 51.1418 260.939 51.6018C260.689 52.0618 260.564 52.6018 260.564 53.2218C260.564 53.8518 260.689 54.4018 260.939 54.8718C261.189 55.3318 261.524 55.6868 261.944 55.9368C262.364 56.1768 262.829 56.2968 263.339 56.2968C263.849 56.2968 264.314 56.1768 264.734 55.9368C265.164 55.6868 265.504 55.3318 265.754 54.8718C266.004 54.4018 266.129 53.8568 266.129 53.2368ZM271.181 46.2618V57.3618H269.816V46.2618H271.181ZM274.213 47.8068C273.953 47.8068 273.733 47.7168 273.553 47.5368C273.373 47.3568 273.283 47.1368 273.283 46.8768C273.283 46.6168 273.373 46.3968 273.553 46.2168C273.733 46.0368 273.953 45.9468 274.213 45.9468C274.463 45.9468 274.673 46.0368 274.843 46.2168C275.023 46.3968 275.113 46.6168 275.113 46.8768C275.113 47.1368 275.023 47.3568 274.843 47.5368C274.673 47.7168 274.463 47.8068 274.213 47.8068ZM274.873 49.1418V57.3618H273.508V49.1418H274.873ZM280.613 47.7618V46.5168H283.433V57.3618H282.053V47.7618H280.613ZM286.438 57.4518C286.178 57.4518 285.958 57.3618 285.778 57.1818C285.598 57.0018 285.508 56.7818 285.508 56.5218C285.508 56.2618 285.598 56.0418 285.778 55.8618C285.958 55.6818 286.178 55.5918 286.438 55.5918C286.688 55.5918 286.898 55.6818 287.068 55.8618C287.248 56.0418 287.338 56.2618 287.338 56.5218C287.338 56.7818 287.248 57.0018 287.068 57.1818C286.898 57.3618 286.688 57.4518 286.438 57.4518ZM295.842 47.7018H290.577V51.1218C290.807 50.8018 291.147 50.5418 291.597 50.3418C292.047 50.1318 292.532 50.0268 293.052 50.0268C293.882 50.0268 294.557 50.2018 295.077 50.5518C295.597 50.8918 295.967 51.3368 296.187 51.8868C296.417 52.4268 296.532 53.0018 296.532 53.6118C296.532 54.3318 296.397 54.9768 296.127 55.5468C295.857 56.1168 295.442 56.5668 294.882 56.8968C294.332 57.2268 293.647 57.3918 292.827 57.3918C291.777 57.3918 290.927 57.1218 290.277 56.5818C289.627 56.0418 289.232 55.3218 289.092 54.4218H290.427C290.557 54.9918 290.832 55.4368 291.252 55.7568C291.672 56.0768 292.202 56.2368 292.842 56.2368C293.632 56.2368 294.227 56.0018 294.627 55.5318C295.027 55.0518 295.227 54.4218 295.227 53.6418C295.227 52.8618 295.027 52.2618 294.627 51.8418C294.227 51.4118 293.637 51.1968 292.857 51.1968C292.327 51.1968 291.862 51.3268 291.462 51.5868C291.072 51.8368 290.787 52.1818 290.607 52.6218H289.317V46.5018H295.842V47.7018ZM299.936 56.2518H303.596V57.3618H298.571V46.9068H299.936V56.2518Z" fill="#383838"/>
<path d="M123.062 75.9038H117.446V78.3878C117.686 78.1238 118.022 77.9078 118.454 77.7398C118.886 77.5718 119.354 77.4878 119.858 77.4878C120.758 77.4878 121.502 77.6918 122.09 78.0998C122.69 78.5078 123.128 79.0358 123.404 79.6838C123.68 80.3318 123.818 81.0338 123.818 81.7898C123.818 83.1938 123.422 84.3098 122.63 85.1378C121.838 85.9538 120.722 86.3618 119.282 86.3618C118.322 86.3618 117.488 86.1998 116.78 85.8758C116.072 85.5398 115.526 85.0778 115.142 84.4898C114.758 83.9018 114.548 83.2238 114.512 82.4558H117.518C117.59 82.8278 117.764 83.1398 118.04 83.3918C118.316 83.6318 118.694 83.7518 119.174 83.7518C119.738 83.7518 120.158 83.5718 120.434 83.2118C120.71 82.8518 120.848 82.3718 120.848 81.7718C120.848 81.1838 120.704 80.7338 120.416 80.4218C120.128 80.1098 119.708 79.9538 119.156 79.9538C118.748 79.9538 118.412 80.0558 118.148 80.2598C117.884 80.4518 117.71 80.7098 117.626 81.0338H114.656V73.2038H123.062V75.9038ZM127.263 86.5058C126.723 86.5058 126.279 86.3498 125.931 86.0378C125.595 85.7138 125.427 85.3178 125.427 84.8498C125.427 84.3698 125.595 83.9678 125.931 83.6438C126.279 83.3198 126.723 83.1578 127.263 83.1578C127.791 83.1578 128.223 83.3198 128.559 83.6438C128.907 83.9678 129.081 84.3698 129.081 84.8498C129.081 85.3178 128.907 85.7138 128.559 86.0378C128.223 86.3498 127.791 86.5058 127.263 86.5058ZM133.909 82.5098C134.089 83.4578 134.641 83.9318 135.565 83.9318C136.201 83.9318 136.651 83.6498 136.915 83.0858C137.179 82.5218 137.311 81.6038 137.311 80.3318C137.047 80.7038 136.687 80.9918 136.231 81.1958C135.775 81.3998 135.265 81.5018 134.701 81.5018C133.933 81.5018 133.249 81.3458 132.649 81.0338C132.049 80.7098 131.575 80.2358 131.227 79.6118C130.891 78.9758 130.723 78.2078 130.723 77.3078C130.723 76.4198 130.903 75.6458 131.263 74.9858C131.635 74.3258 132.157 73.8158 132.829 73.4558C133.513 73.0958 134.317 72.9158 135.241 72.9158C137.017 72.9158 138.259 73.4678 138.967 74.5718C139.675 75.6758 140.029 77.3018 140.029 79.4498C140.029 81.0098 139.885 82.2998 139.597 83.3198C139.321 84.3278 138.847 85.0958 138.175 85.6238C137.515 86.1518 136.609 86.4158 135.457 86.4158C134.545 86.4158 133.765 86.2358 133.117 85.8758C132.481 85.5158 131.989 85.0418 131.641 84.4538C131.305 83.8658 131.113 83.2178 131.065 82.5098H133.909ZM135.403 79.0718C135.907 79.0718 136.309 78.9218 136.609 78.6218C136.909 78.3098 137.059 77.8898 137.059 77.3618C137.059 76.7858 136.903 76.3418 136.591 76.0298C136.279 75.7178 135.859 75.5618 135.331 75.5618C134.803 75.5618 134.383 75.7238 134.071 76.0478C133.771 76.3598 133.621 76.7918 133.621 77.3438C133.621 77.8598 133.771 78.2798 134.071 78.6038C134.383 78.9158 134.827 79.0718 135.403 79.0718ZM144.983 82.5098C145.163 83.4578 145.715 83.9318 146.639 83.9318C147.275 83.9318 147.725 83.6498 147.989 83.0858C148.253 82.5218 148.385 81.6038 148.385 80.3318C148.121 80.7038 147.761 80.9918 147.305 81.1958C146.849 81.3998 146.339 81.5018 145.775 81.5018C145.007 81.5018 144.323 81.3458 143.723 81.0338C143.123 80.7098 142.649 80.2358 142.301 79.6118C141.965 78.9758 141.797 78.2078 141.797 77.3078C141.797 76.4198 141.977 75.6458 142.337 74.9858C142.709 74.3258 143.231 73.8158 143.903 73.4558C144.587 73.0958 145.391 72.9158 146.315 72.9158C148.091 72.9158 149.333 73.4678 150.041 74.5718C150.749 75.6758 151.103 77.3018 151.103 79.4498C151.103 81.0098 150.959 82.2998 150.671 83.3198C150.395 84.3278 149.921 85.0958 149.249 85.6238C148.589 86.1518 147.683 86.4158 146.531 86.4158C145.619 86.4158 144.839 86.2358 144.191 85.8758C143.555 85.5158 143.063 85.0418 142.715 84.4538C142.379 83.8658 142.187 83.2178 142.139 82.5098H144.983ZM146.477 79.0718C146.981 79.0718 147.383 78.9218 147.683 78.6218C147.983 78.3098 148.133 77.8898 148.133 77.3618C148.133 76.7858 147.977 76.3418 147.665 76.0298C147.353 75.7178 146.933 75.5618 146.405 75.5618C145.877 75.5618 145.457 75.7238 145.145 76.0478C144.845 76.3598 144.695 76.7918 144.695 77.3438C144.695 77.8598 144.845 78.2798 145.145 78.6038C145.457 78.9158 145.901 79.0718 146.477 79.0718ZM161.6 73.7258C162.932 73.7258 164.096 73.9898 165.092 74.5178C166.088 75.0458 166.856 75.7898 167.396 76.7498C167.948 77.6978 168.224 78.7958 168.224 80.0438C168.224 81.2798 167.948 82.3778 167.396 83.3378C166.856 84.2978 166.082 85.0418 165.074 85.5698C164.078 86.0978 162.92 86.3618 161.6 86.3618H156.866V73.7258H161.6ZM161.402 83.6978C162.566 83.6978 163.472 83.3798 164.12 82.7438C164.768 82.1078 165.092 81.2078 165.092 80.0438C165.092 78.8798 164.768 77.9738 164.12 77.3258C163.472 76.6778 162.566 76.3538 161.402 76.3538H159.944V83.6978H161.402ZM180.888 73.7258V86.3618H177.81V81.1598H173.022V86.3618H169.944V73.7258H173.022V78.6758H177.81V73.7258H180.888Z" fill="black"/>
<path d="M23 93.4906C23 100.948 29.0455 106.994 36.5031 106.994H57.9778V66.9961H23V93.4906Z" fill="#F1F1F1"/>
<path d="M34.4773 87.6803V85.8799H47.0802V87.6803H34.4773Z" fill="#B8B8B8"/>
<path d="M23 62.9937H57.9778V22.9961H36.5C29.0442 22.9961 23 29.0402 23 36.4961V62.9937Z" fill="#FFC244"/>
<path d="M39.9231 43.7414H34.4976V41.9329H39.9231V36.5073H41.7317V41.9329H47.1573V43.7414H41.7317V49.167H39.9231V43.7414Z" fill="black"/>
<g filter="url(#filter1_d_60_385)">
<rect x="20" y="130" width="400" height="90" rx="15" fill="white"/>
</g>
<path d="M76.3236 178.896C76.7316 178.572 76.9176 178.422 76.8816 178.446C78.0576 177.474 78.9816 176.676 79.6536 176.052C80.3376 175.428 80.9136 174.774 81.3816 174.09C81.8496 173.406 82.0836 172.74 82.0836 172.092C82.0836 171.6 81.9696 171.216 81.7416 170.94C81.5136 170.664 81.1716 170.526 80.7156 170.526C80.2596 170.526 79.8996 170.7 79.6356 171.048C79.3836 171.384 79.2576 171.864 79.2576 172.488H76.2876C76.3116 171.468 76.5276 170.616 76.9356 169.932C77.3556 169.248 77.9016 168.744 78.5736 168.42C79.2576 168.096 80.0136 167.934 80.8416 167.934C82.2696 167.934 83.3436 168.3 84.0636 169.032C84.7956 169.764 85.1616 170.718 85.1616 171.894C85.1616 173.178 84.7236 174.372 83.8476 175.476C82.9716 176.568 81.8556 177.636 80.4996 178.68H85.3596V181.182H76.3236V178.896ZM92.9608 181.362L91.0348 178.572L89.4148 181.362H86.0848L89.3968 176.232L85.9948 171.318H89.4508L91.3768 174.09L92.9968 171.318H96.3268L92.9608 176.376L96.4168 181.362H92.9608Z" fill="black"/>
<circle cx="378.483" cy="174.479" r="21.4829" fill="#B51717"/>
<path d="M373.496 183.74C372.946 183.74 372.475 183.544 372.084 183.153C371.693 182.761 371.497 182.29 371.496 181.74V168.74H370.496V166.74H375.496V165.74H381.496V166.74H386.496V168.74H385.496V181.74C385.496 182.29 385.3 182.761 384.909 183.153C384.518 183.545 384.047 183.74 383.496 183.74H373.496ZM383.496 168.74H373.496V181.74H383.496V168.74ZM375.496 179.74H377.496V170.74H375.496V179.74ZM379.496 179.74H381.496V170.74H379.496V179.74Z" fill="white"/>
<path d="M119.499 161.977C119.879 162.037 120.224 162.192 120.534 162.442C120.854 162.692 121.104 163.002 121.284 163.372C121.474 163.742 121.569 164.137 121.569 164.557C121.569 165.087 121.434 165.567 121.164 165.997C120.894 166.417 120.499 166.752 119.979 167.002C119.469 167.242 118.864 167.362 118.164 167.362H114.264V156.907H118.014C118.724 156.907 119.329 157.027 119.829 157.267C120.329 157.497 120.704 157.812 120.954 158.212C121.204 158.612 121.329 159.062 121.329 159.562C121.329 160.182 121.159 160.697 120.819 161.107C120.489 161.507 120.049 161.797 119.499 161.977ZM115.629 161.422H117.924C118.564 161.422 119.059 161.272 119.409 160.972C119.759 160.672 119.934 160.257 119.934 159.727C119.934 159.197 119.759 158.782 119.409 158.482C119.059 158.182 118.554 158.032 117.894 158.032H115.629V161.422ZM118.044 166.237C118.724 166.237 119.254 166.077 119.634 165.757C120.014 165.437 120.204 164.992 120.204 164.422C120.204 163.842 120.004 163.387 119.604 163.057C119.204 162.717 118.669 162.547 117.999 162.547H115.629V166.237H118.044ZM127.049 167.497C126.279 167.497 125.579 167.322 124.949 166.972C124.329 166.622 123.839 166.127 123.479 165.487C123.129 164.837 122.954 164.087 122.954 163.237C122.954 162.397 123.134 161.657 123.494 161.017C123.864 160.367 124.364 159.872 124.994 159.532C125.624 159.182 126.329 159.007 127.109 159.007C127.889 159.007 128.594 159.182 129.224 159.532C129.854 159.872 130.349 160.362 130.709 161.002C131.079 161.642 131.264 162.387 131.264 163.237C131.264 164.087 131.074 164.837 130.694 165.487C130.324 166.127 129.819 166.622 129.179 166.972C128.539 167.322 127.829 167.497 127.049 167.497ZM127.049 166.297C127.539 166.297 127.999 166.182 128.429 165.952C128.859 165.722 129.204 165.377 129.464 164.917C129.734 164.457 129.869 163.897 129.869 163.237C129.869 162.577 129.739 162.017 129.479 161.557C129.219 161.097 128.879 160.757 128.459 160.537C128.039 160.307 127.584 160.192 127.094 160.192C126.594 160.192 126.134 160.307 125.714 160.537C125.304 160.757 124.974 161.097 124.724 161.557C124.474 162.017 124.349 162.577 124.349 163.237C124.349 163.907 124.469 164.472 124.709 164.932C124.959 165.392 125.289 165.737 125.699 165.967C126.109 166.187 126.559 166.297 127.049 166.297ZM140.348 159.142V167.362H138.983V166.147C138.723 166.567 138.358 166.897 137.888 167.137C137.428 167.367 136.918 167.482 136.358 167.482C135.718 167.482 135.143 167.352 134.633 167.092C134.123 166.822 133.718 166.422 133.418 165.892C133.128 165.362 132.983 164.717 132.983 163.957V159.142H134.333V163.777C134.333 164.587 134.538 165.212 134.948 165.652C135.358 166.082 135.918 166.297 136.628 166.297C137.358 166.297 137.933 166.072 138.353 165.622C138.773 165.172 138.983 164.517 138.983 163.657V159.142H140.348ZM144.318 160.267V165.112C144.318 165.512 144.403 165.797 144.573 165.967C144.743 166.127 145.038 166.207 145.458 166.207H146.463V167.362H145.233C144.473 167.362 143.903 167.187 143.523 166.837C143.143 166.487 142.953 165.912 142.953 165.112V160.267H141.888V159.142H142.953V157.072H144.318V159.142H146.463V160.267H144.318ZM155.617 162.937C155.617 163.197 155.602 163.472 155.572 163.762H149.002C149.052 164.572 149.327 165.207 149.827 165.667C150.337 166.117 150.952 166.342 151.672 166.342C152.262 166.342 152.752 166.207 153.142 165.937C153.542 165.657 153.822 165.287 153.982 164.827H155.452C155.232 165.617 154.792 166.262 154.132 166.762C153.472 167.252 152.652 167.497 151.672 167.497C150.892 167.497 150.192 167.322 149.572 166.972C148.962 166.622 148.482 166.127 148.132 165.487C147.782 164.837 147.607 164.087 147.607 163.237C147.607 162.387 147.777 161.642 148.117 161.002C148.457 160.362 148.932 159.872 149.542 159.532C150.162 159.182 150.872 159.007 151.672 159.007C152.452 159.007 153.142 159.177 153.742 159.517C154.342 159.857 154.802 160.327 155.122 160.927C155.452 161.517 155.617 162.187 155.617 162.937ZM154.207 162.652C154.207 162.132 154.092 161.687 153.862 161.317C153.632 160.937 153.317 160.652 152.917 160.462C152.527 160.262 152.092 160.162 151.612 160.162C150.922 160.162 150.332 160.382 149.842 160.822C149.362 161.262 149.087 161.872 149.017 162.652H154.207ZM158.124 157.807C157.864 157.807 157.644 157.717 157.464 157.537C157.284 157.357 157.194 157.137 157.194 156.877C157.194 156.617 157.284 156.397 157.464 156.217C157.644 156.037 157.864 155.947 158.124 155.947C158.374 155.947 158.584 156.037 158.754 156.217C158.934 156.397 159.024 156.617 159.024 156.877C159.024 157.137 158.934 157.357 158.754 157.537C158.584 157.717 158.374 157.807 158.124 157.807ZM158.784 159.142V167.362H157.419V159.142H158.784ZM162.475 156.262V167.362H161.11V156.262H162.475ZM166.166 156.262V167.362H164.801V156.262H166.166ZM175.993 162.937C175.993 163.197 175.978 163.472 175.948 163.762H169.378C169.428 164.572 169.703 165.207 170.203 165.667C170.713 166.117 171.328 166.342 172.048 166.342C172.638 166.342 173.128 166.207 173.518 165.937C173.918 165.657 174.198 165.287 174.358 164.827H175.828C175.608 165.617 175.168 166.262 174.508 166.762C173.848 167.252 173.028 167.497 172.048 167.497C171.268 167.497 170.568 167.322 169.948 166.972C169.338 166.622 168.858 166.127 168.508 165.487C168.158 164.837 167.983 164.087 167.983 163.237C167.983 162.387 168.153 161.642 168.493 161.002C168.833 160.362 169.308 159.872 169.918 159.532C170.538 159.182 171.248 159.007 172.048 159.007C172.828 159.007 173.518 159.177 174.118 159.517C174.718 159.857 175.178 160.327 175.498 160.927C175.828 161.517 175.993 162.187 175.993 162.937ZM174.583 162.652C174.583 162.132 174.468 161.687 174.238 161.317C174.008 160.937 173.693 160.652 173.293 160.462C172.903 160.262 172.468 160.162 171.988 160.162C171.298 160.162 170.708 160.382 170.218 160.822C169.738 161.262 169.463 161.872 169.393 162.652H174.583ZM181.284 163.222C181.284 162.382 181.454 161.647 181.794 161.017C182.134 160.377 182.599 159.882 183.189 159.532C183.789 159.182 184.459 159.007 185.199 159.007C185.839 159.007 186.434 159.157 186.984 159.457C187.534 159.747 187.954 160.132 188.244 160.612V156.262H189.624V167.362H188.244V165.817C187.974 166.307 187.574 166.712 187.044 167.032C186.514 167.342 185.894 167.497 185.184 167.497C184.454 167.497 183.789 167.317 183.189 166.957C182.599 166.597 182.134 166.092 181.794 165.442C181.454 164.792 181.284 164.052 181.284 163.222ZM188.244 163.237C188.244 162.617 188.119 162.077 187.869 161.617C187.619 161.157 187.279 160.807 186.849 160.567C186.429 160.317 185.964 160.192 185.454 160.192C184.944 160.192 184.479 160.312 184.059 160.552C183.639 160.792 183.304 161.142 183.054 161.602C182.804 162.062 182.679 162.602 182.679 163.222C182.679 163.852 182.804 164.402 183.054 164.872C183.304 165.332 183.639 165.687 184.059 165.937C184.479 166.177 184.944 166.297 185.454 166.297C185.964 166.297 186.429 166.177 186.849 165.937C187.279 165.687 187.619 165.332 187.869 164.872C188.119 164.402 188.244 163.857 188.244 163.237ZM192.62 155.422L192.44 158.407H191.495L191.3 155.422H192.62ZM201.818 162.937C201.818 163.197 201.803 163.472 201.773 163.762H195.203C195.253 164.572 195.528 165.207 196.028 165.667C196.538 166.117 197.153 166.342 197.873 166.342C198.463 166.342 198.953 166.207 199.343 165.937C199.743 165.657 200.023 165.287 200.183 164.827H201.653C201.433 165.617 200.993 166.262 200.333 166.762C199.673 167.252 198.853 167.497 197.873 167.497C197.093 167.497 196.393 167.322 195.773 166.972C195.163 166.622 194.683 166.127 194.333 165.487C193.983 164.837 193.808 164.087 193.808 163.237C193.808 162.387 193.978 161.642 194.318 161.002C194.658 160.362 195.133 159.872 195.743 159.532C196.363 159.182 197.073 159.007 197.873 159.007C198.653 159.007 199.343 159.177 199.943 159.517C200.543 159.857 201.003 160.327 201.323 160.927C201.653 161.517 201.818 162.187 201.818 162.937ZM200.408 162.652C200.408 162.132 200.293 161.687 200.063 161.317C199.833 160.937 199.518 160.652 199.118 160.462C198.728 160.262 198.293 160.162 197.813 160.162C197.123 160.162 196.533 160.382 196.043 160.822C195.563 161.262 195.288 161.872 195.218 162.652H200.408ZM203.11 163.222C203.11 162.382 203.28 161.647 203.62 161.017C203.96 160.377 204.425 159.882 205.015 159.532C205.615 159.182 206.28 159.007 207.01 159.007C207.73 159.007 208.355 159.162 208.885 159.472C209.415 159.782 209.81 160.172 210.07 160.642V159.142H211.45V167.362H210.07V165.832C209.8 166.312 209.395 166.712 208.855 167.032C208.325 167.342 207.705 167.497 206.995 167.497C206.265 167.497 205.605 167.317 205.015 166.957C204.425 166.597 203.96 166.092 203.62 165.442C203.28 164.792 203.11 164.052 203.11 163.222ZM210.07 163.237C210.07 162.617 209.945 162.077 209.695 161.617C209.445 161.157 209.105 160.807 208.675 160.567C208.255 160.317 207.79 160.192 207.28 160.192C206.77 160.192 206.305 160.312 205.885 160.552C205.465 160.792 205.13 161.142 204.88 161.602C204.63 162.062 204.505 162.602 204.505 163.222C204.505 163.852 204.63 164.402 204.88 164.872C205.13 165.332 205.465 165.687 205.885 165.937C206.305 166.177 206.77 166.297 207.28 166.297C207.79 166.297 208.255 166.177 208.675 165.937C209.105 165.687 209.445 165.332 209.695 164.872C209.945 164.402 210.07 163.857 210.07 163.237ZM221.047 159.142V167.362H219.682V166.147C219.422 166.567 219.057 166.897 218.587 167.137C218.127 167.367 217.617 167.482 217.057 167.482C216.417 167.482 215.842 167.352 215.332 167.092C214.822 166.822 214.417 166.422 214.117 165.892C213.827 165.362 213.682 164.717 213.682 163.957V159.142H215.032V163.777C215.032 164.587 215.237 165.212 215.647 165.652C216.057 166.082 216.617 166.297 217.327 166.297C218.057 166.297 218.632 166.072 219.052 165.622C219.472 165.172 219.682 164.517 219.682 163.657V159.142H221.047ZM224.761 165.472L223.081 169.507H222.166L223.261 165.472H224.761ZM233.234 167.497C232.604 167.497 232.039 167.392 231.539 167.182C231.039 166.962 230.644 166.662 230.354 166.282C230.064 165.892 229.904 165.447 229.874 164.947H231.284C231.324 165.357 231.514 165.692 231.854 165.952C232.204 166.212 232.659 166.342 233.219 166.342C233.739 166.342 234.149 166.227 234.449 165.997C234.749 165.767 234.899 165.477 234.899 165.127C234.899 164.767 234.739 164.502 234.419 164.332C234.099 164.152 233.604 163.977 232.934 163.807C232.324 163.647 231.824 163.487 231.434 163.327C231.054 163.157 230.724 162.912 230.444 162.592C230.174 162.262 230.039 161.832 230.039 161.302C230.039 160.882 230.164 160.497 230.414 160.147C230.664 159.797 231.019 159.522 231.479 159.322C231.939 159.112 232.464 159.007 233.054 159.007C233.964 159.007 234.699 159.237 235.259 159.697C235.819 160.157 236.119 160.787 236.159 161.587H234.794C234.764 161.157 234.589 160.812 234.269 160.552C233.959 160.292 233.539 160.162 233.009 160.162C232.519 160.162 232.129 160.267 231.839 160.477C231.549 160.687 231.404 160.962 231.404 161.302C231.404 161.572 231.489 161.797 231.659 161.977C231.839 162.147 232.059 162.287 232.319 162.397C232.589 162.497 232.959 162.612 233.429 162.742C234.019 162.902 234.499 163.062 234.869 163.222C235.239 163.372 235.554 163.602 235.814 163.912C236.084 164.222 236.224 164.627 236.234 165.127C236.234 165.577 236.109 165.982 235.859 166.342C235.609 166.702 235.254 166.987 234.794 167.197C234.344 167.397 233.824 167.497 233.234 167.497ZM238.866 157.807C238.606 157.807 238.386 157.717 238.206 157.537C238.026 157.357 237.936 157.137 237.936 156.877C237.936 156.617 238.026 156.397 238.206 156.217C238.386 156.037 238.606 155.947 238.866 155.947C239.116 155.947 239.326 156.037 239.496 156.217C239.676 156.397 239.766 156.617 239.766 156.877C239.766 157.137 239.676 157.357 239.496 157.537C239.326 157.717 239.116 157.807 238.866 157.807ZM239.526 159.142V167.362H238.161V159.142H239.526ZM241.342 163.222C241.342 162.382 241.512 161.647 241.852 161.017C242.192 160.377 242.657 159.882 243.247 159.532C243.847 159.182 244.517 159.007 245.257 159.007C245.897 159.007 246.492 159.157 247.042 159.457C247.592 159.747 248.012 160.132 248.302 160.612V156.262H249.682V167.362H248.302V165.817C248.032 166.307 247.632 166.712 247.102 167.032C246.572 167.342 245.952 167.497 245.242 167.497C244.512 167.497 243.847 167.317 243.247 166.957C242.657 166.597 242.192 166.092 241.852 165.442C241.512 164.792 241.342 164.052 241.342 163.222ZM248.302 163.237C248.302 162.617 248.177 162.077 247.927 161.617C247.677 161.157 247.337 160.807 246.907 160.567C246.487 160.317 246.022 160.192 245.512 160.192C245.002 160.192 244.537 160.312 244.117 160.552C243.697 160.792 243.362 161.142 243.112 161.602C242.862 162.062 242.737 162.602 242.737 163.222C242.737 163.852 242.862 164.402 243.112 164.872C243.362 165.332 243.697 165.687 244.117 165.937C244.537 166.177 245.002 166.297 245.512 166.297C246.022 166.297 246.487 166.177 246.907 165.937C247.337 165.687 247.677 165.332 247.927 164.872C248.177 164.402 248.302 163.857 248.302 163.237ZM252.694 157.807C252.434 157.807 252.214 157.717 252.034 157.537C251.854 157.357 251.764 157.137 251.764 156.877C251.764 156.617 251.854 156.397 252.034 156.217C252.214 156.037 252.434 155.947 252.694 155.947C252.944 155.947 253.154 156.037 253.324 156.217C253.504 156.397 253.594 156.617 253.594 156.877C253.594 157.137 253.504 157.357 253.324 157.537C253.154 157.717 252.944 157.807 252.694 157.807ZM253.354 159.142V167.362H251.989V159.142H253.354ZM259.169 163.222C259.169 162.382 259.339 161.647 259.679 161.017C260.019 160.377 260.484 159.882 261.074 159.532C261.674 159.182 262.339 159.007 263.069 159.007C263.789 159.007 264.414 159.162 264.944 159.472C265.474 159.782 265.869 160.172 266.129 160.642V159.142H267.509V167.362H266.129V165.832C265.859 166.312 265.454 166.712 264.914 167.032C264.384 167.342 263.764 167.497 263.054 167.497C262.324 167.497 261.664 167.317 261.074 166.957C260.484 166.597 260.019 166.092 259.679 165.442C259.339 164.792 259.169 164.052 259.169 163.222ZM266.129 163.237C266.129 162.617 266.004 162.077 265.754 161.617C265.504 161.157 265.164 160.807 264.734 160.567C264.314 160.317 263.849 160.192 263.339 160.192C262.829 160.192 262.364 160.312 261.944 160.552C261.524 160.792 261.189 161.142 260.939 161.602C260.689 162.062 260.564 162.602 260.564 163.222C260.564 163.852 260.689 164.402 260.939 164.872C261.189 165.332 261.524 165.687 261.944 165.937C262.364 166.177 262.829 166.297 263.339 166.297C263.849 166.297 264.314 166.177 264.734 165.937C265.164 165.687 265.504 165.332 265.754 164.872C266.004 164.402 266.129 163.857 266.129 163.237ZM271.181 156.262V167.362H269.816V156.262H271.181ZM274.213 157.807C273.953 157.807 273.733 157.717 273.553 157.537C273.373 157.357 273.283 157.137 273.283 156.877C273.283 156.617 273.373 156.397 273.553 156.217C273.733 156.037 273.953 155.947 274.213 155.947C274.463 155.947 274.673 156.037 274.843 156.217C275.023 156.397 275.113 156.617 275.113 156.877C275.113 157.137 275.023 157.357 274.843 157.537C274.673 157.717 274.463 157.807 274.213 157.807ZM274.873 159.142V167.362H273.508V159.142H274.873ZM280.613 157.762V156.517H283.433V167.362H282.053V157.762H280.613ZM286.438 167.452C286.178 167.452 285.958 167.362 285.778 167.182C285.598 167.002 285.508 166.782 285.508 166.522C285.508 166.262 285.598 166.042 285.778 165.862C285.958 165.682 286.178 165.592 286.438 165.592C286.688 165.592 286.898 165.682 287.068 165.862C287.248 166.042 287.338 166.262 287.338 166.522C287.338 166.782 287.248 167.002 287.068 167.182C286.898 167.362 286.688 167.452 286.438 167.452ZM295.842 157.702H290.577V161.122C290.807 160.802 291.147 160.542 291.597 160.342C292.047 160.132 292.532 160.027 293.052 160.027C293.882 160.027 294.557 160.202 295.077 160.552C295.597 160.892 295.967 161.337 296.187 161.887C296.417 162.427 296.532 163.002 296.532 163.612C296.532 164.332 296.397 164.977 296.127 165.547C295.857 166.117 295.442 166.567 294.882 166.897C294.332 167.227 293.647 167.392 292.827 167.392C291.777 167.392 290.927 167.122 290.277 166.582C289.627 166.042 289.232 165.322 289.092 164.422H290.427C290.557 164.992 290.832 165.437 291.252 165.757C291.672 166.077 292.202 166.237 292.842 166.237C293.632 166.237 294.227 166.002 294.627 165.532C295.027 165.052 295.227 164.422 295.227 163.642C295.227 162.862 295.027 162.262 294.627 161.842C294.227 161.412 293.637 161.197 292.857 161.197C292.327 161.197 291.862 161.327 291.462 161.587C291.072 161.837 290.787 162.182 290.607 162.622H289.317V156.502H295.842V157.702ZM299.936 166.252H303.596V167.362H298.571V156.907H299.936V166.252Z" fill="#383838"/>
<path d="M113.486 186.084V183.222H118.472V196.362H115.268V186.084H113.486ZM120.254 186.084V183.222H125.24V196.362H122.036V186.084H120.254ZM129.091 196.506C128.551 196.506 128.107 196.35 127.759 196.038C127.423 195.714 127.255 195.318 127.255 194.85C127.255 194.37 127.423 193.968 127.759 193.644C128.107 193.32 128.551 193.158 129.091 193.158C129.619 193.158 130.051 193.32 130.387 193.644C130.735 193.968 130.909 194.37 130.909 194.85C130.909 195.318 130.735 195.714 130.387 196.038C130.051 196.35 129.619 196.506 129.091 196.506ZM135.737 192.51C135.917 193.458 136.469 193.932 137.393 193.932C138.029 193.932 138.479 193.65 138.743 193.086C139.007 192.522 139.139 191.604 139.139 190.332C138.875 190.704 138.515 190.992 138.059 191.196C137.603 191.4 137.093 191.502 136.529 191.502C135.761 191.502 135.077 191.346 134.477 191.034C133.877 190.71 133.403 190.236 133.055 189.612C132.719 188.976 132.551 188.208 132.551 187.308C132.551 186.42 132.731 185.646 133.091 184.986C133.463 184.326 133.985 183.816 134.657 183.456C135.341 183.096 136.145 182.916 137.069 182.916C138.845 182.916 140.087 183.468 140.795 184.572C141.503 185.676 141.857 187.302 141.857 189.45C141.857 191.01 141.713 192.3 141.425 193.32C141.149 194.328 140.675 195.096 140.003 195.624C139.343 196.152 138.437 196.416 137.285 196.416C136.373 196.416 135.593 196.236 134.945 195.876C134.309 195.516 133.817 195.042 133.469 194.454C133.133 193.866 132.941 193.218 132.893 192.51H135.737ZM137.231 189.072C137.735 189.072 138.137 188.922 138.437 188.622C138.737 188.31 138.887 187.89 138.887 187.362C138.887 186.786 138.731 186.342 138.419 186.03C138.107 185.718 137.687 185.562 137.159 185.562C136.631 185.562 136.211 185.724 135.899 186.048C135.599 186.36 135.449 186.792 135.449 187.344C135.449 187.86 135.599 188.28 135.899 188.604C136.211 188.916 136.655 189.072 137.231 189.072ZM146.811 192.51C146.991 193.458 147.543 193.932 148.467 193.932C149.103 193.932 149.553 193.65 149.817 193.086C150.081 192.522 150.213 191.604 150.213 190.332C149.949 190.704 149.589 190.992 149.133 191.196C148.677 191.4 148.167 191.502 147.603 191.502C146.835 191.502 146.151 191.346 145.551 191.034C144.951 190.71 144.477 190.236 144.129 189.612C143.793 188.976 143.625 188.208 143.625 187.308C143.625 186.42 143.805 185.646 144.165 184.986C144.537 184.326 145.059 183.816 145.731 183.456C146.415 183.096 147.219 182.916 148.143 182.916C149.919 182.916 151.161 183.468 151.869 184.572C152.577 185.676 152.931 187.302 152.931 189.45C152.931 191.01 152.787 192.3 152.499 193.32C152.223 194.328 151.749 195.096 151.077 195.624C150.417 196.152 149.511 196.416 148.359 196.416C147.447 196.416 146.667 196.236 146.019 195.876C145.383 195.516 144.891 195.042 144.543 194.454C144.207 193.866 144.015 193.218 143.967 192.51H146.811ZM148.305 189.072C148.809 189.072 149.211 188.922 149.511 188.622C149.811 188.31 149.961 187.89 149.961 187.362C149.961 186.786 149.805 186.342 149.493 186.03C149.181 185.718 148.761 185.562 148.233 185.562C147.705 185.562 147.285 185.724 146.973 186.048C146.673 186.36 146.523 186.792 146.523 187.344C146.523 187.86 146.673 188.28 146.973 188.604C147.285 188.916 147.729 189.072 148.305 189.072ZM163.428 183.726C164.76 183.726 165.924 183.99 166.92 184.518C167.916 185.046 168.684 185.79 169.224 186.75C169.776 187.698 170.052 188.796 170.052 190.044C170.052 191.28 169.776 192.378 169.224 193.338C168.684 194.298 167.91 195.042 166.902 195.57C165.906 196.098 164.748 196.362 163.428 196.362H158.694V183.726H163.428ZM163.23 193.698C164.394 193.698 165.3 193.38 165.948 192.744C166.596 192.108 166.92 191.208 166.92 190.044C166.92 188.88 166.596 187.974 165.948 187.326C165.3 186.678 164.394 186.354 163.23 186.354H161.772V193.698H163.23ZM182.716 183.726V196.362H179.638V191.16H174.85V196.362H171.772V183.726H174.85V188.676H179.638V183.726H182.716Z" fill="black"/>
<path d="M23 203.491C23 210.948 29.0455 216.994 36.5031 216.994H57.9778V176.996H23V203.491Z" fill="#E0E0E0"/>
<path d="M34.4773 197.68V195.88H47.0802V197.68H34.4773Z" fill="black"/>
<path d="M23 172.994H57.9778V132.996H36.5C29.0442 132.996 23 139.04 23 146.496V172.994Z" fill="#FFC244"/>
<path d="M39.9231 153.741H34.4976V151.933H39.9231V146.507H41.7317V151.933H47.1573V153.741H41.7317V159.167H39.9231V153.741Z" fill="black"/>
<defs>
<filter id="filter0_d_60_385" x="4.14843" y="4.14843" width="431.703" height="121.703" filterUnits="userSpaceOnUse" color-interpolation-filters="sRGB">
<feFlood flood-opacity="0" result="BackgroundImageFix"/>
<feColorMatrix in="SourceAlpha" type="matrix" values="0 0 0 0 0 0 0 0 0 0 0 0 0 0 0 0 0 0 127 0" result="hardAlpha"/>
<feOffset/>
<feGaussianBlur stdDeviation="7.92579"/>
<feComposite in2="hardAlpha" operator="out"/>
<feColorMatrix type="matrix" values="0 0 0 0 0 0 0 0 0 0 0 0 0 0 0 0 0 0 0.1 0"/>
<feBlend mode="normal" in2="BackgroundImageFix" result="effect1_dropShadow_60_385"/>
<feBlend mode="normal" in="SourceGraphic" in2="effect1_dropShadow_60_385" result="shape"/>
</filter>
<filter id="filter1_d_60_385" x="4.14843" y="114.148" width="431.703" height="121.703" filterUnits="userSpaceOnUse" color-interpolation-filters="sRGB">
<feFlood flood-opacity="0" result="BackgroundImageFix"/>
<feColorMatrix in="SourceAlpha" type="matrix" values="0 0 0 0 0 0 0 0 0 0 0 0 0 0 0 0 0 0 127 0" result="hardAlpha"/>
<feOffset/>
<feGaussianBlur stdDeviation="7.92579"/>
<feComposite in2="hardAlpha" operator="out"/>
<feColorMatrix type="matrix" values="0 0 0 0 0 0 0 0 0 0 0 0 0 0 0 0 0 0 0.1 0"/>
<feBlend mode="normal" in2="BackgroundImageFix" result="effect1_dropShadow_60_385"/>
<feBlend mode="normal" in="SourceGraphic" in2="effect1_dropShadow_60_385" result="shape"/>
</filter>
</defs>
</svg>
