<svg width="390" height="146" viewBox="0 0 390 146" fill="none" xmlns="http://www.w3.org/2000/svg">
<rect x="0.5" y="0.5" width="389" height="145" rx="4.5" stroke="#9747FF" stroke-dasharray="10 5"/>
<rect x="21" y="21" width="165" height="41" rx="20.5" fill="#FFC244"/>
<rect x="21" y="21" width="165" height="41" rx="20.5" stroke="#C58400" stroke-width="2"/>
<path d="M66.16 34.86H74.818V37.452H68.842V40.188H74.458V42.78H68.842V48H66.16V34.86ZM76.4917 38.1H78.7957L78.9757 39.522C79.5637 38.526 80.5417 38.028 81.9097 38.028C82.2577 38.028 82.5577 38.052 82.8097 38.1L82.2877 40.53C82.1437 40.506 82.0417 40.494 81.9817 40.494C81.1417 40.494 80.4397 40.752 79.8757 41.268C79.3117 41.772 79.0297 42.63 79.0297 43.842V48H76.4917V38.1ZM85.1256 39.432C86.0376 38.436 87.1416 37.938 88.4376 37.938C89.1096 37.938 89.7276 38.106 90.2916 38.442C90.8556 38.778 91.2876 39.21 91.5876 39.738L91.7496 38.1H94.0536V48H91.7496L91.5876 46.344C91.2876 46.872 90.8556 47.304 90.2916 47.64C89.7276 47.976 89.1096 48.144 88.4376 48.144C87.1416 48.144 86.0376 47.646 85.1256 46.65C84.2136 45.642 83.7576 44.436 83.7576 43.032C83.7576 41.628 84.2136 40.428 85.1256 39.432ZM87.0696 44.868C87.5736 45.384 88.1856 45.642 88.9056 45.642C89.6376 45.642 90.2556 45.39 90.7596 44.886C91.2636 44.37 91.5156 43.752 91.5156 43.032C91.5156 42.312 91.2636 41.7 90.7596 41.196C90.2556 40.68 89.6376 40.422 88.9056 40.422C88.1856 40.422 87.5736 40.68 87.0696 41.196C86.5656 41.7 86.3136 42.312 86.3136 43.032C86.3136 43.752 86.5656 44.364 87.0696 44.868ZM96.1616 48V38.1H98.4656L98.6276 39.54C98.9156 39.06 99.2936 38.676 99.7616 38.388C100.242 38.088 100.782 37.938 101.382 37.938C102.582 37.938 103.53 38.352 104.226 39.18C104.934 40.008 105.288 41.262 105.288 42.942V48H102.768V42.942C102.768 42.114 102.57 41.49 102.174 41.07C101.79 40.638 101.31 40.422 100.734 40.422C100.146 40.422 99.6596 40.638 99.2756 41.07C98.8916 41.49 98.6996 42.114 98.6996 42.942V48H96.1616ZM108.261 39.45C109.245 38.454 110.439 37.956 111.843 37.956C112.683 37.956 113.469 38.154 114.201 38.55C114.933 38.934 115.539 39.456 116.019 40.116L113.931 41.502C113.415 40.854 112.719 40.53 111.843 40.53C111.147 40.53 110.553 40.776 110.061 41.268C109.569 41.76 109.323 42.354 109.323 43.05C109.323 43.758 109.569 44.358 110.061 44.85C110.553 45.342 111.147 45.588 111.843 45.588C112.767 45.588 113.475 45.228 113.967 44.508L116.073 45.912C115.605 46.596 114.999 47.142 114.255 47.55C113.511 47.958 112.707 48.162 111.843 48.162C110.439 48.162 109.239 47.664 108.243 46.668C107.259 45.66 106.767 44.454 106.767 43.05C106.767 41.646 107.265 40.446 108.261 39.45ZM118.507 39.432C119.419 38.436 120.523 37.938 121.819 37.938C122.491 37.938 123.109 38.106 123.673 38.442C124.237 38.778 124.669 39.21 124.969 39.738L125.131 38.1H127.435V48H125.131L124.969 46.344C124.669 46.872 124.237 47.304 123.673 47.64C123.109 47.976 122.491 48.144 121.819 48.144C120.523 48.144 119.419 47.646 118.507 46.65C117.595 45.642 117.139 44.436 117.139 43.032C117.139 41.628 117.595 40.428 118.507 39.432ZM120.451 44.868C120.955 45.384 121.567 45.642 122.287 45.642C123.019 45.642 123.637 45.39 124.141 44.886C124.645 44.37 124.897 43.752 124.897 43.032C124.897 42.312 124.645 41.7 124.141 41.196C123.637 40.68 123.019 40.422 122.287 40.422C121.567 40.422 120.955 40.68 120.451 41.196C119.947 41.7 119.695 42.312 119.695 43.032C119.695 43.752 119.947 44.364 120.451 44.868ZM129.542 38.1H132.08V48H129.542V38.1ZM129.794 34.824C130.082 34.536 130.424 34.392 130.82 34.392C131.204 34.392 131.54 34.536 131.828 34.824C132.116 35.112 132.26 35.454 132.26 35.85C132.26 36.246 132.116 36.588 131.828 36.876C131.54 37.164 131.204 37.308 130.82 37.308C130.424 37.308 130.082 37.164 129.794 36.876C129.506 36.588 129.362 36.246 129.362 35.85C129.362 35.454 129.506 35.112 129.794 34.824ZM135.515 44.886C135.815 45.186 136.229 45.426 136.757 45.606C137.285 45.786 137.801 45.876 138.305 45.876C139.301 45.876 139.799 45.618 139.799 45.102C139.799 44.874 139.601 44.688 139.205 44.544C138.821 44.388 138.347 44.25 137.783 44.13C137.231 43.998 136.673 43.83 136.109 43.626C135.557 43.422 135.083 43.086 134.687 42.618C134.303 42.15 134.111 41.562 134.111 40.854C134.111 39.966 134.465 39.252 135.173 38.712C135.881 38.172 136.811 37.902 137.963 37.902C139.787 37.902 141.161 38.448 142.085 39.54L140.573 41.07C140.297 40.77 139.913 40.542 139.421 40.386C138.941 40.23 138.479 40.152 138.035 40.152C137.603 40.152 137.261 40.218 137.009 40.35C136.769 40.47 136.649 40.638 136.649 40.854C136.649 41.058 136.841 41.232 137.225 41.376C137.621 41.508 138.101 41.64 138.665 41.772C139.229 41.892 139.787 42.054 140.339 42.258C140.903 42.462 141.377 42.798 141.761 43.266C142.157 43.734 142.355 44.316 142.355 45.012C142.355 46.068 141.971 46.872 141.203 47.424C140.447 47.964 139.481 48.234 138.305 48.234C137.489 48.234 136.667 48.096 135.839 47.82C135.023 47.532 134.345 47.106 133.805 46.542L135.515 44.886Z" fill="black"/>
<rect x="203" y="20" width="167" height="43" rx="21.5" fill="white"/>
<rect x="203" y="20" width="167" height="43" rx="21.5" stroke="black"/>
<path d="M262.979 40.314C263.855 39.438 264.911 39 266.147 39H270.503V44.184C270.503 44.604 270.593 44.934 270.773 45.174C270.965 45.414 271.241 45.534 271.601 45.534H272.177V48H271.601C270.449 48 269.627 47.538 269.135 46.614C268.403 47.538 267.407 48 266.147 48C264.899 48 263.837 47.568 262.961 46.704C262.085 45.828 261.647 44.766 261.647 43.518C261.647 42.27 262.091 41.202 262.979 40.314ZM264.707 44.94C265.103 45.336 265.583 45.534 266.147 45.534C266.675 45.534 267.119 45.348 267.479 44.976C267.839 44.592 268.019 44.1 268.019 43.5V41.466H266.147C265.583 41.466 265.103 41.664 264.707 42.06C264.311 42.456 264.113 42.936 264.113 43.5C264.113 44.064 264.311 44.544 264.707 44.94ZM263.447 36.858C263.447 36.486 263.579 36.168 263.843 35.904C264.107 35.64 264.425 35.508 264.797 35.508C265.169 35.508 265.487 35.64 265.751 35.904C266.015 36.168 266.147 36.486 266.147 36.858C266.147 37.23 266.015 37.548 265.751 37.812C265.487 38.076 265.169 38.208 264.797 38.208C264.425 38.208 264.107 38.076 263.843 37.812C263.579 37.548 263.447 37.23 263.447 36.858ZM266.795 36.858C266.795 36.486 266.921 36.168 267.173 35.904C267.437 35.64 267.755 35.508 268.127 35.508C268.499 35.508 268.817 35.64 269.081 35.904C269.345 36.168 269.477 36.486 269.477 36.858C269.477 37.23 269.345 37.548 269.081 37.812C268.817 38.076 268.499 38.208 268.127 38.208C267.755 38.208 267.437 38.076 267.173 37.812C266.921 37.548 266.795 37.23 266.795 36.858ZM271.82 45.534H273.242C273.59 45.534 273.86 45.414 274.052 45.174C274.244 44.934 274.34 44.604 274.34 44.184V39.018L276.806 39V44.184C276.806 44.604 276.902 44.934 277.094 45.174C277.286 45.414 277.562 45.534 277.922 45.534H279.362V48H277.922C276.902 48 276.122 47.634 275.582 46.902C275.018 47.634 274.238 48 273.242 48H271.82V45.534ZM272.576 50.538C272.576 50.166 272.708 49.848 272.972 49.584C273.236 49.332 273.554 49.206 273.926 49.206C274.298 49.206 274.61 49.332 274.862 49.584C275.126 49.848 275.258 50.166 275.258 50.538C275.258 50.91 275.132 51.228 274.88 51.492C274.616 51.756 274.298 51.888 273.926 51.888C273.554 51.888 273.236 51.756 272.972 51.492C272.708 51.228 272.576 50.91 272.576 50.538ZM276.32 49.602C276.572 49.338 276.884 49.206 277.256 49.206C277.628 49.206 277.946 49.332 278.21 49.584C278.474 49.848 278.606 50.166 278.606 50.538C278.606 50.91 278.474 51.228 278.21 51.492C277.946 51.756 277.628 51.888 277.256 51.888C276.884 51.888 276.566 51.756 276.302 51.492C276.05 51.228 275.924 50.91 275.924 50.538C275.924 50.166 276.056 49.854 276.32 49.602ZM279.009 48V45.534H279.513C279.873 45.534 280.143 45.414 280.323 45.174C280.515 44.934 280.611 44.604 280.611 44.184V39H283.095V44.184C283.095 45.3 282.765 46.218 282.105 46.938C281.445 47.646 280.581 48 279.513 48H279.009ZM280.863 49.476C281.127 49.2 281.451 49.062 281.835 49.062C282.219 49.062 282.549 49.2 282.825 49.476C283.101 49.752 283.239 50.082 283.239 50.466C283.239 50.85 283.101 51.18 282.825 51.456C282.549 51.732 282.219 51.87 281.835 51.87C281.451 51.87 281.121 51.732 280.845 51.456C280.581 51.18 280.449 50.85 280.449 50.466C280.449 50.082 280.587 49.752 280.863 49.476ZM283.516 49.656C283.708 49.728 283.936 49.764 284.2 49.764C285.316 49.764 285.874 49.116 285.874 47.82V39L288.34 38.982V45.534H289.96V48H288.34V48.378C288.34 49.506 288.004 50.424 287.332 51.132C286.66 51.84 285.634 52.194 284.254 52.194C283.738 52.194 283.264 52.122 282.832 51.978L283.516 49.656ZM292.939 45.534L290.779 42.312V39H297.817C298.837 39 299.665 39.216 300.301 39.648C300.949 40.068 301.273 40.716 301.273 41.592C301.273 42.228 301.075 42.852 300.679 43.464C300.295 44.076 299.749 44.766 299.041 45.534H302.443L302.461 48H289.609V45.534H292.939ZM295.873 45.534H296.269C296.713 45.054 297.007 44.73 297.151 44.562C297.307 44.394 297.517 44.148 297.781 43.824C298.057 43.5 298.237 43.236 298.321 43.032C298.417 42.828 298.465 42.636 298.465 42.456C298.465 42.072 298.333 41.814 298.069 41.682C297.817 41.538 297.415 41.466 296.863 41.466H293.749V42.276L295.873 45.534ZM302.107 45.534H302.611C302.971 45.534 303.241 45.414 303.421 45.174C303.613 44.934 303.709 44.604 303.709 44.184V33.96H306.193V44.184C306.193 45.3 305.863 46.218 305.203 46.938C304.543 47.646 303.679 48 302.611 48H302.107V45.534ZM311.251 48H308.785V33.96H311.251V48Z" fill="black"/>
<rect x="20" y="83" width="167" height="43" rx="21.5" fill="white"/>
<rect x="20" y="83" width="167" height="43" rx="21.5" stroke="black"/>
<path d="M66.16 97.86H74.818V100.452H68.842V103.188H74.458V105.78H68.842V111H66.16V97.86ZM76.4917 101.1H78.7957L78.9757 102.522C79.5637 101.526 80.5417 101.028 81.9097 101.028C82.2577 101.028 82.5577 101.052 82.8097 101.1L82.2877 103.53C82.1437 103.506 82.0417 103.494 81.9817 103.494C81.1417 103.494 80.4397 103.752 79.8757 104.268C79.3117 104.772 79.0297 105.63 79.0297 106.842V111H76.4917V101.1ZM85.1256 102.432C86.0376 101.436 87.1416 100.938 88.4376 100.938C89.1096 100.938 89.7276 101.106 90.2916 101.442C90.8556 101.778 91.2876 102.21 91.5876 102.738L91.7496 101.1H94.0536V111H91.7496L91.5876 109.344C91.2876 109.872 90.8556 110.304 90.2916 110.64C89.7276 110.976 89.1096 111.144 88.4376 111.144C87.1416 111.144 86.0376 110.646 85.1256 109.65C84.2136 108.642 83.7576 107.436 83.7576 106.032C83.7576 104.628 84.2136 103.428 85.1256 102.432ZM87.0696 107.868C87.5736 108.384 88.1856 108.642 88.9056 108.642C89.6376 108.642 90.2556 108.39 90.7596 107.886C91.2636 107.37 91.5156 106.752 91.5156 106.032C91.5156 105.312 91.2636 104.7 90.7596 104.196C90.2556 103.68 89.6376 103.422 88.9056 103.422C88.1856 103.422 87.5736 103.68 87.0696 104.196C86.5656 104.7 86.3136 105.312 86.3136 106.032C86.3136 106.752 86.5656 107.364 87.0696 107.868ZM96.1616 111V101.1H98.4656L98.6276 102.54C98.9156 102.06 99.2936 101.676 99.7616 101.388C100.242 101.088 100.782 100.938 101.382 100.938C102.582 100.938 103.53 101.352 104.226 102.18C104.934 103.008 105.288 104.262 105.288 105.942V111H102.768V105.942C102.768 105.114 102.57 104.49 102.174 104.07C101.79 103.638 101.31 103.422 100.734 103.422C100.146 103.422 99.6596 103.638 99.2756 104.07C98.8916 104.49 98.6996 105.114 98.6996 105.942V111H96.1616ZM108.261 102.45C109.245 101.454 110.439 100.956 111.843 100.956C112.683 100.956 113.469 101.154 114.201 101.55C114.933 101.934 115.539 102.456 116.019 103.116L113.931 104.502C113.415 103.854 112.719 103.53 111.843 103.53C111.147 103.53 110.553 103.776 110.061 104.268C109.569 104.76 109.323 105.354 109.323 106.05C109.323 106.758 109.569 107.358 110.061 107.85C110.553 108.342 111.147 108.588 111.843 108.588C112.767 108.588 113.475 108.228 113.967 107.508L116.073 108.912C115.605 109.596 114.999 110.142 114.255 110.55C113.511 110.958 112.707 111.162 111.843 111.162C110.439 111.162 109.239 110.664 108.243 109.668C107.259 108.66 106.767 107.454 106.767 106.05C106.767 104.646 107.265 103.446 108.261 102.45ZM118.507 102.432C119.419 101.436 120.523 100.938 121.819 100.938C122.491 100.938 123.109 101.106 123.673 101.442C124.237 101.778 124.669 102.21 124.969 102.738L125.131 101.1H127.435V111H125.131L124.969 109.344C124.669 109.872 124.237 110.304 123.673 110.64C123.109 110.976 122.491 111.144 121.819 111.144C120.523 111.144 119.419 110.646 118.507 109.65C117.595 108.642 117.139 107.436 117.139 106.032C117.139 104.628 117.595 103.428 118.507 102.432ZM120.451 107.868C120.955 108.384 121.567 108.642 122.287 108.642C123.019 108.642 123.637 108.39 124.141 107.886C124.645 107.37 124.897 106.752 124.897 106.032C124.897 105.312 124.645 104.7 124.141 104.196C123.637 103.68 123.019 103.422 122.287 103.422C121.567 103.422 120.955 103.68 120.451 104.196C119.947 104.7 119.695 105.312 119.695 106.032C119.695 106.752 119.947 107.364 120.451 107.868ZM129.542 101.1H132.08V111H129.542V101.1ZM129.794 97.824C130.082 97.536 130.424 97.392 130.82 97.392C131.204 97.392 131.54 97.536 131.828 97.824C132.116 98.112 132.26 98.454 132.26 98.85C132.26 99.246 132.116 99.588 131.828 99.876C131.54 100.164 131.204 100.308 130.82 100.308C130.424 100.308 130.082 100.164 129.794 99.876C129.506 99.588 129.362 99.246 129.362 98.85C129.362 98.454 129.506 98.112 129.794 97.824ZM135.515 107.886C135.815 108.186 136.229 108.426 136.757 108.606C137.285 108.786 137.801 108.876 138.305 108.876C139.301 108.876 139.799 108.618 139.799 108.102C139.799 107.874 139.601 107.688 139.205 107.544C138.821 107.388 138.347 107.25 137.783 107.13C137.231 106.998 136.673 106.83 136.109 106.626C135.557 106.422 135.083 106.086 134.687 105.618C134.303 105.15 134.111 104.562 134.111 103.854C134.111 102.966 134.465 102.252 135.173 101.712C135.881 101.172 136.811 100.902 137.963 100.902C139.787 100.902 141.161 101.448 142.085 102.54L140.573 104.07C140.297 103.77 139.913 103.542 139.421 103.386C138.941 103.23 138.479 103.152 138.035 103.152C137.603 103.152 137.261 103.218 137.009 103.35C136.769 103.47 136.649 103.638 136.649 103.854C136.649 104.058 136.841 104.232 137.225 104.376C137.621 104.508 138.101 104.64 138.665 104.772C139.229 104.892 139.787 105.054 140.339 105.258C140.903 105.462 141.377 105.798 141.761 106.266C142.157 106.734 142.355 107.316 142.355 108.012C142.355 109.068 141.971 109.872 141.203 110.424C140.447 110.964 139.481 111.234 138.305 111.234C137.489 111.234 136.667 111.096 135.839 110.82C135.023 110.532 134.345 110.106 133.805 109.542L135.515 107.886Z" fill="black"/>
<rect x="204" y="84" width="165" height="41" rx="20.5" fill="#FFC244"/>
<rect x="204" y="84" width="165" height="41" rx="20.5" stroke="#C58400" stroke-width="2"/>
<path d="M262.979 103.314C263.855 102.438 264.911 102 266.147 102H270.503V107.184C270.503 107.604 270.593 107.934 270.773 108.174C270.965 108.414 271.241 108.534 271.601 108.534H272.177V111H271.601C270.449 111 269.627 110.538 269.135 109.614C268.403 110.538 267.407 111 266.147 111C264.899 111 263.837 110.568 262.961 109.704C262.085 108.828 261.647 107.766 261.647 106.518C261.647 105.27 262.091 104.202 262.979 103.314ZM264.707 107.94C265.103 108.336 265.583 108.534 266.147 108.534C266.675 108.534 267.119 108.348 267.479 107.976C267.839 107.592 268.019 107.1 268.019 106.5V104.466H266.147C265.583 104.466 265.103 104.664 264.707 105.06C264.311 105.456 264.113 105.936 264.113 106.5C264.113 107.064 264.311 107.544 264.707 107.94ZM263.447 99.858C263.447 99.486 263.579 99.168 263.843 98.904C264.107 98.64 264.425 98.508 264.797 98.508C265.169 98.508 265.487 98.64 265.751 98.904C266.015 99.168 266.147 99.486 266.147 99.858C266.147 100.23 266.015 100.548 265.751 100.812C265.487 101.076 265.169 101.208 264.797 101.208C264.425 101.208 264.107 101.076 263.843 100.812C263.579 100.548 263.447 100.23 263.447 99.858ZM266.795 99.858C266.795 99.486 266.921 99.168 267.173 98.904C267.437 98.64 267.755 98.508 268.127 98.508C268.499 98.508 268.817 98.64 269.081 98.904C269.345 99.168 269.477 99.486 269.477 99.858C269.477 100.23 269.345 100.548 269.081 100.812C268.817 101.076 268.499 101.208 268.127 101.208C267.755 101.208 267.437 101.076 267.173 100.812C266.921 100.548 266.795 100.23 266.795 99.858ZM271.82 108.534H273.242C273.59 108.534 273.86 108.414 274.052 108.174C274.244 107.934 274.34 107.604 274.34 107.184V102.018L276.806 102V107.184C276.806 107.604 276.902 107.934 277.094 108.174C277.286 108.414 277.562 108.534 277.922 108.534H279.362V111H277.922C276.902 111 276.122 110.634 275.582 109.902C275.018 110.634 274.238 111 273.242 111H271.82V108.534ZM272.576 113.538C272.576 113.166 272.708 112.848 272.972 112.584C273.236 112.332 273.554 112.206 273.926 112.206C274.298 112.206 274.61 112.332 274.862 112.584C275.126 112.848 275.258 113.166 275.258 113.538C275.258 113.91 275.132 114.228 274.88 114.492C274.616 114.756 274.298 114.888 273.926 114.888C273.554 114.888 273.236 114.756 272.972 114.492C272.708 114.228 272.576 113.91 272.576 113.538ZM276.32 112.602C276.572 112.338 276.884 112.206 277.256 112.206C277.628 112.206 277.946 112.332 278.21 112.584C278.474 112.848 278.606 113.166 278.606 113.538C278.606 113.91 278.474 114.228 278.21 114.492C277.946 114.756 277.628 114.888 277.256 114.888C276.884 114.888 276.566 114.756 276.302 114.492C276.05 114.228 275.924 113.91 275.924 113.538C275.924 113.166 276.056 112.854 276.32 112.602ZM279.009 111V108.534H279.513C279.873 108.534 280.143 108.414 280.323 108.174C280.515 107.934 280.611 107.604 280.611 107.184V102H283.095V107.184C283.095 108.3 282.765 109.218 282.105 109.938C281.445 110.646 280.581 111 279.513 111H279.009ZM280.863 112.476C281.127 112.2 281.451 112.062 281.835 112.062C282.219 112.062 282.549 112.2 282.825 112.476C283.101 112.752 283.239 113.082 283.239 113.466C283.239 113.85 283.101 114.18 282.825 114.456C282.549 114.732 282.219 114.87 281.835 114.87C281.451 114.87 281.121 114.732 280.845 114.456C280.581 114.18 280.449 113.85 280.449 113.466C280.449 113.082 280.587 112.752 280.863 112.476ZM283.516 112.656C283.708 112.728 283.936 112.764 284.2 112.764C285.316 112.764 285.874 112.116 285.874 110.82V102L288.34 101.982V108.534H289.96V111H288.34V111.378C288.34 112.506 288.004 113.424 287.332 114.132C286.66 114.84 285.634 115.194 284.254 115.194C283.738 115.194 283.264 115.122 282.832 114.978L283.516 112.656ZM292.939 108.534L290.779 105.312V102H297.817C298.837 102 299.665 102.216 300.301 102.648C300.949 103.068 301.273 103.716 301.273 104.592C301.273 105.228 301.075 105.852 300.679 106.464C300.295 107.076 299.749 107.766 299.041 108.534H302.443L302.461 111H289.609V108.534H292.939ZM295.873 108.534H296.269C296.713 108.054 297.007 107.73 297.151 107.562C297.307 107.394 297.517 107.148 297.781 106.824C298.057 106.5 298.237 106.236 298.321 106.032C298.417 105.828 298.465 105.636 298.465 105.456C298.465 105.072 298.333 104.814 298.069 104.682C297.817 104.538 297.415 104.466 296.863 104.466H293.749V105.276L295.873 108.534ZM302.107 108.534H302.611C302.971 108.534 303.241 108.414 303.421 108.174C303.613 107.934 303.709 107.604 303.709 107.184V96.96H306.193V107.184C306.193 108.3 305.863 109.218 305.203 109.938C304.543 110.646 303.679 111 302.611 111H302.107V108.534ZM311.251 111H308.785V96.96H311.251V111Z" fill="black"/>
</svg>
