<svg width="390" height="183" viewBox="0 0 390 183" fill="none" xmlns="http://www.w3.org/2000/svg">
<rect x="0.5" y="0.5" width="388.247" height="181.212" rx="4.5" stroke="#9747FF" stroke-dasharray="10 5"/>
<g filter="url(#filter0_d_71_472)">
<rect x="20" y="20" width="349.247" height="54.2115" rx="27.1058" fill="#C1272D" shape-rendering="crispEdges"/>
<path d="M124.953 56.1057C124.403 56.1057 123.933 55.91 123.541 55.5187C123.15 55.1274 122.954 54.6564 122.953 54.1057V40.1057C122.953 39.5557 123.149 39.085 123.541 38.6937C123.933 38.3024 124.404 38.1064 124.953 38.1057H131.953V40.1057H124.953V54.1057H131.953V56.1057H124.953ZM135.953 52.1057L134.578 50.6557L137.128 48.1057H128.953V46.1057H137.128L134.578 43.5557L135.953 42.1057L140.953 47.1057L135.953 52.1057Z" fill="white"/>
<path d="M157.024 52.7079C156.275 52.7079 155.604 52.5863 155.01 52.343C154.417 52.0997 153.94 51.7397 153.58 51.2629C153.229 50.7862 153.045 50.2121 153.025 49.5407H155.681C155.72 49.9202 155.852 50.2121 156.076 50.4164C156.299 50.611 156.591 50.7083 156.951 50.7083C157.321 50.7083 157.613 50.6256 157.827 50.4602C158.041 50.285 158.148 50.0467 158.148 49.745C158.148 49.492 158.061 49.2828 157.885 49.1174C157.72 48.952 157.511 48.8158 157.258 48.7087C157.015 48.6017 156.664 48.4801 156.207 48.3439C155.545 48.1395 155.005 47.9352 154.587 47.7308C154.168 47.5265 153.808 47.2249 153.507 46.8259C153.205 46.427 153.054 45.9064 153.054 45.2642C153.054 44.3107 153.4 43.5663 154.091 43.0311C154.781 42.4862 155.681 42.2138 156.791 42.2138C157.919 42.2138 158.829 42.4862 159.52 43.0311C160.211 43.5663 160.581 44.3155 160.629 45.2788H157.929C157.91 44.948 157.788 44.6901 157.564 44.5053C157.34 44.3107 157.053 44.2134 156.703 44.2134C156.401 44.2134 156.158 44.2961 155.973 44.4615C155.788 44.6172 155.696 44.8458 155.696 45.1475C155.696 45.4783 155.852 45.7361 156.163 45.921C156.474 46.1059 156.961 46.3054 157.623 46.5194C158.284 46.7432 158.819 46.9573 159.228 47.1616C159.647 47.366 160.007 47.6627 160.308 48.0519C160.61 48.4412 160.761 48.9423 160.761 49.5553C160.761 50.1391 160.61 50.6694 160.308 51.1462C160.016 51.623 159.588 52.0024 159.024 52.2846C158.459 52.5668 157.793 52.7079 157.024 52.7079ZM169.974 48.4022C169.974 48.6358 169.959 48.879 169.93 49.132H164.282C164.32 49.638 164.481 50.0272 164.763 50.2996C165.055 50.5624 165.41 50.6937 165.829 50.6937C166.451 50.6937 166.884 50.431 167.128 49.9056H169.784C169.648 50.4407 169.4 50.9224 169.04 51.3505C168.689 51.7786 168.247 52.1143 167.711 52.3576C167.176 52.6008 166.578 52.7225 165.916 52.7225C165.118 52.7225 164.408 52.5522 163.785 52.2116C163.163 51.8711 162.676 51.3846 162.326 50.7521C161.975 50.1196 161.8 49.3801 161.8 48.5336C161.8 47.6871 161.971 46.9476 162.311 46.3151C162.661 45.6826 163.148 45.1961 163.771 44.8556C164.393 44.515 165.109 44.3447 165.916 44.3447C166.704 44.3447 167.405 44.5101 168.018 44.841C168.631 45.1718 169.108 45.6437 169.448 46.2567C169.799 46.8697 169.974 47.5849 169.974 48.4022ZM167.42 47.7454C167.42 47.3173 167.274 46.9768 166.982 46.7238C166.69 46.4708 166.325 46.3443 165.887 46.3443C165.469 46.3443 165.114 46.4659 164.822 46.7092C164.539 46.9524 164.364 47.2979 164.296 47.7454H167.42ZM173.887 48.519C173.887 47.6822 174.043 46.9476 174.354 46.3151C174.675 45.6826 175.108 45.1961 175.653 44.8556C176.198 44.515 176.806 44.3447 177.478 44.3447C178.013 44.3447 178.499 44.4566 178.937 44.6804C179.385 44.9042 179.735 45.2058 179.988 45.5853V41.8051H182.484V52.6057H179.988V51.4381C179.755 51.8273 179.419 52.1387 178.981 52.3722C178.553 52.6057 178.052 52.7225 177.478 52.7225C176.806 52.7225 176.198 52.5522 175.653 52.2116C175.108 51.8613 174.675 51.37 174.354 50.7375C174.043 50.0953 173.887 49.3558 173.887 48.519ZM179.988 48.5336C179.988 47.9109 179.813 47.4195 179.463 47.0595C179.122 46.6994 178.704 46.5194 178.207 46.5194C177.711 46.5194 177.288 46.6994 176.938 47.0595C176.597 47.4097 176.427 47.8963 176.427 48.519C176.427 49.1417 176.597 49.638 176.938 50.0077C177.288 50.3678 177.711 50.5478 178.207 50.5478C178.704 50.5478 179.122 50.3678 179.463 50.0077C179.813 49.6477 179.988 49.1563 179.988 48.5336ZM191.967 48.4022C191.967 48.6358 191.952 48.879 191.923 49.132H186.274C186.313 49.638 186.474 50.0272 186.756 50.2996C187.048 50.5624 187.403 50.6937 187.822 50.6937C188.444 50.6937 188.877 50.431 189.121 49.9056H191.777C191.641 50.4407 191.393 50.9224 191.033 51.3505C190.682 51.7786 190.24 52.1143 189.704 52.3576C189.169 52.6008 188.571 52.7225 187.909 52.7225C187.111 52.7225 186.401 52.5522 185.778 52.2116C185.155 51.8711 184.669 51.3846 184.319 50.7521C183.968 50.1196 183.793 49.3801 183.793 48.5336C183.793 47.6871 183.964 46.9476 184.304 46.3151C184.654 45.6826 185.141 45.1961 185.764 44.8556C186.386 44.515 187.102 44.3447 187.909 44.3447C188.697 44.3447 189.398 44.5101 190.011 44.841C190.624 45.1718 191.101 45.6437 191.441 46.2567C191.792 46.8697 191.967 47.5849 191.967 48.4022ZM189.412 47.7454C189.412 47.3173 189.267 46.9768 188.975 46.7238C188.683 46.4708 188.318 46.3443 187.88 46.3443C187.462 46.3443 187.106 46.4659 186.814 46.7092C186.532 46.9524 186.357 47.2979 186.289 47.7454H189.412ZM189.588 42.3743L186.07 43.8485V42.1262L189.588 40.4331V42.3743ZM192.787 48.5336C192.787 47.6871 192.957 46.9476 193.298 46.3151C193.648 45.6826 194.13 45.1961 194.743 44.8556C195.366 44.515 196.076 44.3447 196.874 44.3447C197.895 44.3447 198.747 44.6123 199.428 45.1475C200.119 45.6826 200.571 46.4367 200.785 47.4097H198.129C197.905 46.787 197.472 46.4756 196.83 46.4756C196.373 46.4756 196.008 46.6557 195.735 47.0157C195.463 47.366 195.327 47.8719 195.327 48.5336C195.327 49.1953 195.463 49.7061 195.735 50.0661C196.008 50.4164 196.373 50.5915 196.83 50.5915C197.472 50.5915 197.905 50.2802 198.129 49.6574H200.785C200.571 50.611 200.119 51.3602 199.428 51.9051C198.737 52.45 197.886 52.7225 196.874 52.7225C196.076 52.7225 195.366 52.5522 194.743 52.2116C194.13 51.8711 193.648 51.3846 193.298 50.7521C192.957 50.1196 192.787 49.3801 192.787 48.5336ZM205.828 52.7225C205.03 52.7225 204.31 52.5522 203.667 52.2116C203.035 51.8711 202.534 51.3846 202.164 50.7521C201.804 50.1196 201.624 49.3801 201.624 48.5336C201.624 47.6968 201.809 46.9622 202.179 46.3297C202.549 45.6875 203.054 45.1961 203.697 44.8556C204.339 44.515 205.059 44.3447 205.857 44.3447C206.655 44.3447 207.375 44.515 208.017 44.8556C208.659 45.1961 209.165 45.6875 209.535 46.3297C209.905 46.9622 210.089 47.6968 210.089 48.5336C210.089 49.3704 209.9 50.1099 209.52 50.7521C209.151 51.3846 208.64 51.8711 207.988 52.2116C207.346 52.5522 206.625 52.7225 205.828 52.7225ZM205.828 50.5624C206.304 50.5624 206.708 50.3872 207.039 50.0369C207.38 49.6866 207.55 49.1855 207.55 48.5336C207.55 47.8817 207.384 47.3806 207.054 47.0303C206.733 46.68 206.334 46.5048 205.857 46.5048C205.37 46.5048 204.966 46.68 204.645 47.0303C204.324 47.3708 204.164 47.8719 204.164 48.5336C204.164 49.1855 204.319 49.6866 204.631 50.0369C204.952 50.3872 205.351 50.5624 205.828 50.5624ZM216.376 44.3739C217.33 44.3739 218.089 44.6853 218.653 45.308C219.227 45.921 219.514 46.7676 219.514 47.8476V52.6057H217.033V48.1833C217.033 47.6384 216.892 47.2151 216.61 46.9135C216.327 46.6119 215.948 46.461 215.471 46.461C214.994 46.461 214.615 46.6119 214.333 46.9135C214.05 47.2151 213.909 47.6384 213.909 48.1833V52.6057H211.414V44.4615H213.909V45.5415C214.162 45.1815 214.503 44.8993 214.931 44.695C215.359 44.4809 215.841 44.3739 216.376 44.3739ZM226.211 44.3739C227.164 44.3739 227.923 44.6853 228.488 45.308C229.062 45.921 229.349 46.7676 229.349 47.8476V52.6057H226.868V48.1833C226.868 47.6384 226.726 47.2151 226.444 46.9135C226.162 46.6119 225.783 46.461 225.306 46.461C224.829 46.461 224.45 46.6119 224.167 46.9135C223.885 47.2151 223.744 47.6384 223.744 48.1833V52.6057H221.248V44.4615H223.744V45.5415C223.997 45.1815 224.338 44.8993 224.766 44.695C225.194 44.4809 225.676 44.3739 226.211 44.3739ZM238.76 48.4022C238.76 48.6358 238.746 48.879 238.717 49.132H233.068C233.107 49.638 233.268 50.0272 233.55 50.2996C233.842 50.5624 234.197 50.6937 234.615 50.6937C235.238 50.6937 235.671 50.431 235.914 49.9056H238.571C238.434 50.4407 238.186 50.9224 237.826 51.3505C237.476 51.7786 237.033 52.1143 236.498 52.3576C235.963 52.6008 235.364 52.7225 234.703 52.7225C233.905 52.7225 233.195 52.5522 232.572 52.2116C231.949 51.8711 231.463 51.3846 231.112 50.7521C230.762 50.1196 230.587 49.3801 230.587 48.5336C230.587 47.6871 230.757 46.9476 231.098 46.3151C231.448 45.6826 231.935 45.1961 232.557 44.8556C233.18 44.515 233.895 44.3447 234.703 44.3447C235.491 44.3447 236.192 44.5101 236.805 44.841C237.418 45.1718 237.894 45.6437 238.235 46.2567C238.585 46.8697 238.76 47.5849 238.76 48.4022ZM236.206 47.7454C236.206 47.3173 236.06 46.9768 235.768 46.7238C235.476 46.4708 235.111 46.3443 234.674 46.3443C234.255 46.3443 233.9 46.4659 233.608 46.7092C233.326 46.9524 233.151 47.2979 233.083 47.7454H236.206ZM239.581 48.5336C239.581 47.6871 239.751 46.9476 240.092 46.3151C240.442 45.6826 240.924 45.1961 241.537 44.8556C242.159 44.515 242.87 44.3447 243.667 44.3447C244.689 44.3447 245.541 44.6123 246.222 45.1475C246.913 45.6826 247.365 46.4367 247.579 47.4097H244.923C244.699 46.787 244.266 46.4756 243.624 46.4756C243.166 46.4756 242.801 46.6557 242.529 47.0157C242.257 47.366 242.12 47.8719 242.12 48.5336C242.12 49.1953 242.257 49.7061 242.529 50.0661C242.801 50.4164 243.166 50.5915 243.624 50.5915C244.266 50.5915 244.699 50.2802 244.923 49.6574H247.579C247.365 50.611 246.913 51.3602 246.222 51.9051C245.531 52.45 244.679 52.7225 243.667 52.7225C242.87 52.7225 242.159 52.5522 241.537 52.2116C240.924 51.8711 240.442 51.3846 240.092 50.7521C239.751 50.1196 239.581 49.3801 239.581 48.5336ZM253.453 50.4894V52.6057H252.183C251.279 52.6057 250.573 52.3868 250.067 51.9489C249.561 51.5013 249.308 50.7764 249.308 49.7742V46.534H248.316V44.4615H249.308V42.4765H251.804V44.4615H253.439V46.534H251.804V49.8034C251.804 50.0467 251.862 50.2218 251.979 50.3288C252.096 50.4359 252.29 50.4894 252.563 50.4894H253.453ZM262.521 48.4022C262.521 48.6358 262.506 48.879 262.477 49.132H256.828C256.867 49.638 257.028 50.0272 257.31 50.2996C257.602 50.5624 257.957 50.6937 258.376 50.6937C258.998 50.6937 259.431 50.431 259.675 49.9056H262.331C262.195 50.4407 261.947 50.9224 261.587 51.3505C261.236 51.7786 260.793 52.1143 260.258 52.3576C259.723 52.6008 259.125 52.7225 258.463 52.7225C257.665 52.7225 256.955 52.5522 256.332 52.2116C255.709 51.8711 255.223 51.3846 254.873 50.7521C254.522 50.1196 254.347 49.3801 254.347 48.5336C254.347 47.6871 254.517 46.9476 254.858 46.3151C255.208 45.6826 255.695 45.1961 256.318 44.8556C256.94 44.515 257.655 44.3447 258.463 44.3447C259.251 44.3447 259.952 44.5101 260.565 44.841C261.178 45.1718 261.655 45.6437 261.995 46.2567C262.345 46.8697 262.521 47.5849 262.521 48.4022ZM259.966 47.7454C259.966 47.3173 259.82 46.9768 259.529 46.7238C259.237 46.4708 258.872 46.3443 258.434 46.3443C258.015 46.3443 257.66 46.4659 257.368 46.7092C257.086 46.9524 256.911 47.2979 256.843 47.7454H259.966ZM266.333 45.8188C266.625 45.3713 266.99 45.021 267.428 44.768C267.866 44.5053 268.352 44.3739 268.887 44.3739V47.0157H268.201C267.579 47.0157 267.112 47.1519 266.8 47.4243C266.489 47.6871 266.333 48.1541 266.333 48.8255V52.6057H263.837V44.4615H266.333V45.8188Z" fill="white"/>
</g>
<rect x="20" y="108" width="349.247" height="54.2115" rx="27.1058" fill="#C1272D"/>
<rect x="20" y="108" width="349.247" height="54.2115" rx="27.1058" fill="white" fill-opacity="0.2"/>
<path d="M124.953 144.106C124.403 144.106 123.933 143.91 123.541 143.519C123.15 143.127 122.954 142.656 122.953 142.106V128.106C122.953 127.556 123.149 127.085 123.541 126.694C123.933 126.302 124.404 126.106 124.953 126.106H131.953V128.106H124.953V142.106H131.953V144.106H124.953ZM135.953 140.106L134.578 138.656L137.128 136.106H128.953V134.106H137.128L134.578 131.556L135.953 130.106L140.953 135.106L135.953 140.106Z" fill="white"/>
<path d="M157.024 140.708C156.275 140.708 155.604 140.586 155.01 140.343C154.417 140.1 153.94 139.74 153.58 139.263C153.229 138.786 153.045 138.212 153.025 137.541H155.681C155.72 137.92 155.852 138.212 156.076 138.416C156.299 138.611 156.591 138.708 156.951 138.708C157.321 138.708 157.613 138.626 157.827 138.46C158.041 138.285 158.148 138.047 158.148 137.745C158.148 137.492 158.061 137.283 157.885 137.117C157.72 136.952 157.511 136.816 157.258 136.709C157.015 136.602 156.664 136.48 156.207 136.344C155.545 136.14 155.005 135.935 154.587 135.731C154.168 135.527 153.808 135.225 153.507 134.826C153.205 134.427 153.054 133.906 153.054 133.264C153.054 132.311 153.4 131.566 154.091 131.031C154.781 130.486 155.681 130.214 156.791 130.214C157.919 130.214 158.829 130.486 159.52 131.031C160.211 131.566 160.581 132.316 160.629 133.279H157.929C157.91 132.948 157.788 132.69 157.564 132.505C157.34 132.311 157.053 132.213 156.703 132.213C156.401 132.213 156.158 132.296 155.973 132.461C155.788 132.617 155.696 132.846 155.696 133.147C155.696 133.478 155.852 133.736 156.163 133.921C156.474 134.106 156.961 134.305 157.623 134.519C158.284 134.743 158.819 134.957 159.228 135.162C159.647 135.366 160.007 135.663 160.308 136.052C160.61 136.441 160.761 136.942 160.761 137.555C160.761 138.139 160.61 138.669 160.308 139.146C160.016 139.623 159.588 140.002 159.024 140.285C158.459 140.567 157.793 140.708 157.024 140.708ZM169.974 136.402C169.974 136.636 169.959 136.879 169.93 137.132H164.282C164.32 137.638 164.481 138.027 164.763 138.3C165.055 138.562 165.41 138.694 165.829 138.694C166.451 138.694 166.884 138.431 167.128 137.906H169.784C169.648 138.441 169.4 138.922 169.04 139.351C168.689 139.779 168.247 140.114 167.711 140.358C167.176 140.601 166.578 140.722 165.916 140.722C165.118 140.722 164.408 140.552 163.785 140.212C163.163 139.871 162.676 139.385 162.326 138.752C161.975 138.12 161.8 137.38 161.8 136.534C161.8 135.687 161.971 134.948 162.311 134.315C162.661 133.683 163.148 133.196 163.771 132.856C164.393 132.515 165.109 132.345 165.916 132.345C166.704 132.345 167.405 132.51 168.018 132.841C168.631 133.172 169.108 133.644 169.448 134.257C169.799 134.87 169.974 135.585 169.974 136.402ZM167.42 135.745C167.42 135.317 167.274 134.977 166.982 134.724C166.69 134.471 166.325 134.344 165.887 134.344C165.469 134.344 165.114 134.466 164.822 134.709C164.539 134.952 164.364 135.298 164.296 135.745H167.42ZM173.887 136.519C173.887 135.682 174.043 134.948 174.354 134.315C174.675 133.683 175.108 133.196 175.653 132.856C176.198 132.515 176.806 132.345 177.478 132.345C178.013 132.345 178.499 132.457 178.937 132.68C179.385 132.904 179.735 133.206 179.988 133.585V129.805H182.484V140.606H179.988V139.438C179.755 139.827 179.419 140.139 178.981 140.372C178.553 140.606 178.052 140.722 177.478 140.722C176.806 140.722 176.198 140.552 175.653 140.212C175.108 139.861 174.675 139.37 174.354 138.738C174.043 138.095 173.887 137.356 173.887 136.519ZM179.988 136.534C179.988 135.911 179.813 135.419 179.463 135.059C179.122 134.699 178.704 134.519 178.207 134.519C177.711 134.519 177.288 134.699 176.938 135.059C176.597 135.41 176.427 135.896 176.427 136.519C176.427 137.142 176.597 137.638 176.938 138.008C177.288 138.368 177.711 138.548 178.207 138.548C178.704 138.548 179.122 138.368 179.463 138.008C179.813 137.648 179.988 137.156 179.988 136.534ZM191.967 136.402C191.967 136.636 191.952 136.879 191.923 137.132H186.274C186.313 137.638 186.474 138.027 186.756 138.3C187.048 138.562 187.403 138.694 187.822 138.694C188.444 138.694 188.877 138.431 189.121 137.906H191.777C191.641 138.441 191.393 138.922 191.033 139.351C190.682 139.779 190.24 140.114 189.704 140.358C189.169 140.601 188.571 140.722 187.909 140.722C187.111 140.722 186.401 140.552 185.778 140.212C185.155 139.871 184.669 139.385 184.319 138.752C183.968 138.12 183.793 137.38 183.793 136.534C183.793 135.687 183.964 134.948 184.304 134.315C184.654 133.683 185.141 133.196 185.764 132.856C186.386 132.515 187.102 132.345 187.909 132.345C188.697 132.345 189.398 132.51 190.011 132.841C190.624 133.172 191.101 133.644 191.441 134.257C191.792 134.87 191.967 135.585 191.967 136.402ZM189.412 135.745C189.412 135.317 189.267 134.977 188.975 134.724C188.683 134.471 188.318 134.344 187.88 134.344C187.462 134.344 187.106 134.466 186.814 134.709C186.532 134.952 186.357 135.298 186.289 135.745H189.412ZM189.588 130.374L186.07 131.848V130.126L189.588 128.433V130.374ZM192.787 136.534C192.787 135.687 192.957 134.948 193.298 134.315C193.648 133.683 194.13 133.196 194.743 132.856C195.366 132.515 196.076 132.345 196.874 132.345C197.895 132.345 198.747 132.612 199.428 133.147C200.119 133.683 200.571 134.437 200.785 135.41H198.129C197.905 134.787 197.472 134.476 196.83 134.476C196.373 134.476 196.008 134.656 195.735 135.016C195.463 135.366 195.327 135.872 195.327 136.534C195.327 137.195 195.463 137.706 195.735 138.066C196.008 138.416 196.373 138.592 196.83 138.592C197.472 138.592 197.905 138.28 198.129 137.657H200.785C200.571 138.611 200.119 139.36 199.428 139.905C198.737 140.45 197.886 140.722 196.874 140.722C196.076 140.722 195.366 140.552 194.743 140.212C194.13 139.871 193.648 139.385 193.298 138.752C192.957 138.12 192.787 137.38 192.787 136.534ZM205.828 140.722C205.03 140.722 204.31 140.552 203.667 140.212C203.035 139.871 202.534 139.385 202.164 138.752C201.804 138.12 201.624 137.38 201.624 136.534C201.624 135.697 201.809 134.962 202.179 134.33C202.549 133.687 203.054 133.196 203.697 132.856C204.339 132.515 205.059 132.345 205.857 132.345C206.655 132.345 207.375 132.515 208.017 132.856C208.659 133.196 209.165 133.687 209.535 134.33C209.905 134.962 210.089 135.697 210.089 136.534C210.089 137.37 209.9 138.11 209.52 138.752C209.151 139.385 208.64 139.871 207.988 140.212C207.346 140.552 206.625 140.722 205.828 140.722ZM205.828 138.562C206.304 138.562 206.708 138.387 207.039 138.037C207.38 137.687 207.55 137.186 207.55 136.534C207.55 135.882 207.384 135.381 207.054 135.03C206.733 134.68 206.334 134.505 205.857 134.505C205.37 134.505 204.966 134.68 204.645 135.03C204.324 135.371 204.164 135.872 204.164 136.534C204.164 137.186 204.319 137.687 204.631 138.037C204.952 138.387 205.351 138.562 205.828 138.562ZM216.376 132.374C217.33 132.374 218.089 132.685 218.653 133.308C219.227 133.921 219.514 134.768 219.514 135.848V140.606H217.033V136.183C217.033 135.638 216.892 135.215 216.61 134.914C216.327 134.612 215.948 134.461 215.471 134.461C214.994 134.461 214.615 134.612 214.333 134.914C214.05 135.215 213.909 135.638 213.909 136.183V140.606H211.414V132.461H213.909V133.542C214.162 133.182 214.503 132.899 214.931 132.695C215.359 132.481 215.841 132.374 216.376 132.374ZM226.211 132.374C227.164 132.374 227.923 132.685 228.488 133.308C229.062 133.921 229.349 134.768 229.349 135.848V140.606H226.868V136.183C226.868 135.638 226.726 135.215 226.444 134.914C226.162 134.612 225.783 134.461 225.306 134.461C224.829 134.461 224.45 134.612 224.167 134.914C223.885 135.215 223.744 135.638 223.744 136.183V140.606H221.248V132.461H223.744V133.542C223.997 133.182 224.338 132.899 224.766 132.695C225.194 132.481 225.676 132.374 226.211 132.374ZM238.76 136.402C238.76 136.636 238.746 136.879 238.717 137.132H233.068C233.107 137.638 233.268 138.027 233.55 138.3C233.842 138.562 234.197 138.694 234.615 138.694C235.238 138.694 235.671 138.431 235.914 137.906H238.571C238.434 138.441 238.186 138.922 237.826 139.351C237.476 139.779 237.033 140.114 236.498 140.358C235.963 140.601 235.364 140.722 234.703 140.722C233.905 140.722 233.195 140.552 232.572 140.212C231.949 139.871 231.463 139.385 231.112 138.752C230.762 138.12 230.587 137.38 230.587 136.534C230.587 135.687 230.757 134.948 231.098 134.315C231.448 133.683 231.935 133.196 232.557 132.856C233.18 132.515 233.895 132.345 234.703 132.345C235.491 132.345 236.192 132.51 236.805 132.841C237.418 133.172 237.894 133.644 238.235 134.257C238.585 134.87 238.76 135.585 238.76 136.402ZM236.206 135.745C236.206 135.317 236.06 134.977 235.768 134.724C235.476 134.471 235.111 134.344 234.674 134.344C234.255 134.344 233.9 134.466 233.608 134.709C233.326 134.952 233.151 135.298 233.083 135.745H236.206ZM239.581 136.534C239.581 135.687 239.751 134.948 240.092 134.315C240.442 133.683 240.924 133.196 241.537 132.856C242.159 132.515 242.87 132.345 243.667 132.345C244.689 132.345 245.541 132.612 246.222 133.147C246.913 133.683 247.365 134.437 247.579 135.41H244.923C244.699 134.787 244.266 134.476 243.624 134.476C243.166 134.476 242.801 134.656 242.529 135.016C242.257 135.366 242.12 135.872 242.12 136.534C242.12 137.195 242.257 137.706 242.529 138.066C242.801 138.416 243.166 138.592 243.624 138.592C244.266 138.592 244.699 138.28 244.923 137.657H247.579C247.365 138.611 246.913 139.36 246.222 139.905C245.531 140.45 244.679 140.722 243.667 140.722C242.87 140.722 242.159 140.552 241.537 140.212C240.924 139.871 240.442 139.385 240.092 138.752C239.751 138.12 239.581 137.38 239.581 136.534ZM253.453 138.489V140.606H252.183C251.279 140.606 250.573 140.387 250.067 139.949C249.561 139.501 249.308 138.776 249.308 137.774V134.534H248.316V132.461H249.308V130.477H251.804V132.461H253.439V134.534H251.804V137.803C251.804 138.047 251.862 138.222 251.979 138.329C252.096 138.436 252.29 138.489 252.563 138.489H253.453ZM262.521 136.402C262.521 136.636 262.506 136.879 262.477 137.132H256.828C256.867 137.638 257.028 138.027 257.31 138.3C257.602 138.562 257.957 138.694 258.376 138.694C258.998 138.694 259.431 138.431 259.675 137.906H262.331C262.195 138.441 261.947 138.922 261.587 139.351C261.236 139.779 260.793 140.114 260.258 140.358C259.723 140.601 259.125 140.722 258.463 140.722C257.665 140.722 256.955 140.552 256.332 140.212C255.709 139.871 255.223 139.385 254.873 138.752C254.522 138.12 254.347 137.38 254.347 136.534C254.347 135.687 254.517 134.948 254.858 134.315C255.208 133.683 255.695 133.196 256.318 132.856C256.94 132.515 257.655 132.345 258.463 132.345C259.251 132.345 259.952 132.51 260.565 132.841C261.178 133.172 261.655 133.644 261.995 134.257C262.345 134.87 262.521 135.585 262.521 136.402ZM259.966 135.745C259.966 135.317 259.82 134.977 259.529 134.724C259.237 134.471 258.872 134.344 258.434 134.344C258.015 134.344 257.66 134.466 257.368 134.709C257.086 134.952 256.911 135.298 256.843 135.745H259.966ZM266.333 133.819C266.625 133.371 266.99 133.021 267.428 132.768C267.866 132.505 268.352 132.374 268.887 132.374V135.016H268.201C267.579 135.016 267.112 135.152 266.8 135.424C266.489 135.687 266.333 136.154 266.333 136.826V140.606H263.837V132.461H266.333V133.819Z" fill="white"/>
<defs>
<filter id="filter0_d_71_472" x="17.9149" y="18.9575" width="353.417" height="58.3815" filterUnits="userSpaceOnUse" color-interpolation-filters="sRGB">
<feFlood flood-opacity="0" result="BackgroundImageFix"/>
<feColorMatrix in="SourceAlpha" type="matrix" values="0 0 0 0 0 0 0 0 0 0 0 0 0 0 0 0 0 0 127 0" result="hardAlpha"/>
<feOffset dy="1.04253"/>
<feGaussianBlur stdDeviation="1.04253"/>
<feComposite in2="hardAlpha" operator="out"/>
<feColorMatrix type="matrix" values="0 0 0 0 0 0 0 0 0 0 0 0 0 0 0 0 0 0 0.2 0"/>
<feBlend mode="normal" in2="BackgroundImageFix" result="effect1_dropShadow_71_472"/>
<feBlend mode="normal" in="SourceGraphic" in2="effect1_dropShadow_71_472" result="shape"/>
</filter>
</defs>
</svg>
