<svg width="354" height="932" viewBox="0 0 354 932" fill="none" xmlns="http://www.w3.org/2000/svg">
<g clip-path="url(#clip0_60_1054)">
<rect width="354" height="932" fill="white"/>
<circle cx="177.15" cy="-748.926" r="873.15" fill="#FFC244"/>
<path d="M302.914 65.5585L300.441 63.0857L310.332 53.1948L300.441 43.3039L302.914 40.8312L312.805 50.7221L322.696 40.8312L325.169 43.3039L315.278 53.1948L325.169 63.0857L322.696 65.5585L312.805 55.6676L302.914 65.5585Z" fill="white"/>
<mask id="path-3-inside-1_60_1054" fill="white">
<path d="M0 135.295H354V215.295H0V135.295Z"/>
</mask>
<path d="M354 213.295H0V217.295H354V213.295Z" fill="#EEEEEE" mask="url(#path-3-inside-1_60_1054)"/>
<path opacity="0.3" fill-rule="evenodd" clip-rule="evenodd" d="M61.6666 173.628C62.5076 173.628 63.3176 173.946 63.9342 174.518C64.5508 175.089 64.9286 175.873 64.9916 176.712L65 176.962V186.962C65.0002 187.803 64.6826 188.613 64.1108 189.229C63.539 189.846 62.7552 190.224 61.9166 190.287L61.6666 190.295H55C54.159 190.295 53.349 189.978 52.7324 189.406C52.1157 188.834 51.738 188.05 51.675 187.212L51.6666 186.962V176.962C51.6664 176.121 51.984 175.311 52.5558 174.694C53.1276 174.078 53.9114 173.7 54.75 173.637L55 173.628H61.6666ZM61.6666 160.295C62.5507 160.295 63.3985 160.646 64.0236 161.271C64.6488 161.897 65 162.744 65 163.628V166.962C65 167.846 64.6488 168.694 64.0236 169.319C63.3985 169.944 62.5507 170.295 61.6666 170.295H55C54.1159 170.295 53.2681 169.944 52.6429 169.319C52.0178 168.694 51.6666 167.846 51.6666 166.962V163.628C51.6666 162.744 52.0178 161.897 52.6429 161.271C53.2681 160.646 54.1159 160.295 55 160.295H61.6666Z" fill="#FFC244"/>
<path fill-rule="evenodd" clip-rule="evenodd" d="M45 160.295C45.8841 160.295 46.7319 160.646 47.357 161.271C47.9821 161.897 48.3333 162.744 48.3333 163.628V173.628C48.3333 174.513 47.9821 175.36 47.357 175.986C46.7319 176.611 45.8841 176.962 45 176.962H38.3333C37.4493 176.962 36.6014 176.611 35.9763 175.986C35.3512 175.36 35 174.513 35 173.628V163.628C35 162.744 35.3512 161.897 35.9763 161.271C36.6014 160.646 37.4493 160.295 38.3333 160.295H45Z" fill="#FFC244"/>
<path opacity="0.3" fill-rule="evenodd" clip-rule="evenodd" d="M45 180.295C45.8841 180.295 46.7319 180.646 47.357 181.271C47.9821 181.897 48.3333 182.744 48.3333 183.628V186.962C48.3333 187.846 47.9821 188.694 47.357 189.319C46.7319 189.944 45.8841 190.295 45 190.295H38.3333C37.4493 190.295 36.6014 189.944 35.9763 189.319C35.3512 188.694 35 187.846 35 186.962V183.628C35 182.744 35.3512 181.897 35.9763 181.271C36.6014 180.646 37.4493 180.295 38.3333 180.295H45Z" fill="#FFC244"/>
<path d="M90.288 169.615H99.232V171.919H95.952V181.295H93.568V171.919H90.288V169.615ZM101.228 173.679C102.039 172.794 103.02 172.351 104.172 172.351C104.769 172.351 105.319 172.5 105.82 172.799C106.321 173.098 106.705 173.482 106.972 173.951L107.116 172.495H109.164V181.295H107.116L106.972 179.823C106.705 180.292 106.321 180.676 105.82 180.975C105.319 181.274 104.769 181.423 104.172 181.423C103.02 181.423 102.039 180.98 101.228 180.095C100.417 179.199 100.012 178.127 100.012 176.879C100.012 175.631 100.417 174.564 101.228 173.679ZM102.956 178.511C103.404 178.97 103.948 179.199 104.588 179.199C105.239 179.199 105.788 178.975 106.236 178.527C106.684 178.068 106.908 177.519 106.908 176.879C106.908 176.239 106.684 175.695 106.236 175.247C105.788 174.788 105.239 174.559 104.588 174.559C103.948 174.559 103.404 174.788 102.956 175.247C102.508 175.695 102.284 176.239 102.284 176.879C102.284 177.519 102.508 178.063 102.956 178.511ZM111.038 168.815H113.294V173.871C113.55 173.423 113.923 173.06 114.414 172.783C114.915 172.495 115.454 172.351 116.03 172.351C117.171 172.351 118.147 172.794 118.958 173.679C119.779 174.564 120.19 175.631 120.19 176.879C120.19 178.127 119.779 179.199 118.958 180.095C118.147 180.98 117.171 181.423 116.03 181.423C115.432 181.423 114.878 181.274 114.366 180.975C113.864 180.676 113.486 180.292 113.23 179.823L113.086 181.295H111.038V168.815ZM113.966 178.511C114.414 178.97 114.963 179.199 115.614 179.199C116.254 179.199 116.798 178.975 117.246 178.527C117.694 178.068 117.918 177.519 117.918 176.879C117.918 176.239 117.694 175.695 117.246 175.247C116.798 174.788 116.254 174.559 115.614 174.559C114.963 174.559 114.414 174.788 113.966 175.247C113.518 175.695 113.294 176.239 113.294 176.879C113.294 177.519 113.518 178.063 113.966 178.511ZM123.888 181.295H121.632V168.815H123.888V181.295ZM126.637 173.695C127.511 172.81 128.573 172.367 129.821 172.367C131.079 172.367 132.141 172.81 133.005 173.695C133.879 174.58 134.317 175.647 134.317 176.895C134.317 177.13 134.295 177.428 134.253 177.791H127.741C127.858 178.25 128.125 178.628 128.541 178.927C128.967 179.215 129.463 179.359 130.029 179.359C130.893 179.359 131.57 179.087 132.061 178.543L133.869 179.679C133.453 180.212 132.893 180.639 132.189 180.959C131.485 181.279 130.765 181.439 130.029 181.439C128.674 181.439 127.549 181.002 126.653 180.127C125.767 179.242 125.325 178.164 125.325 176.895C125.325 175.647 125.762 174.58 126.637 173.695ZM127.741 175.999H131.981C131.917 175.572 131.687 175.21 131.293 174.911C130.898 174.612 130.413 174.463 129.837 174.463C129.271 174.463 128.797 174.612 128.413 174.911C128.039 175.21 127.815 175.572 127.741 175.999ZM136.541 173.679C137.351 172.794 138.333 172.351 139.485 172.351C140.082 172.351 140.631 172.5 141.133 172.799C141.634 173.098 142.018 173.482 142.285 173.951L142.429 172.495H144.477V181.295H142.429L142.285 179.823C142.018 180.292 141.634 180.676 141.133 180.975C140.631 181.274 140.082 181.423 139.485 181.423C138.333 181.423 137.351 180.98 136.541 180.095C135.73 179.199 135.325 178.127 135.325 176.879C135.325 175.631 135.73 174.564 136.541 173.679ZM138.269 178.511C138.717 178.97 139.261 179.199 139.901 179.199C140.551 179.199 141.101 178.975 141.549 178.527C141.997 178.068 142.221 177.519 142.221 176.879C142.221 176.239 141.997 175.695 141.549 175.247C141.101 174.788 140.551 174.559 139.901 174.559C139.261 174.559 138.717 174.788 138.269 175.247C137.821 175.695 137.597 176.239 137.597 176.879C137.597 177.519 137.821 178.063 138.269 178.511ZM146.206 172.495H148.462V176.975C148.462 177.711 148.633 178.271 148.974 178.655C149.316 179.028 149.748 179.215 150.27 179.215C150.782 179.215 151.209 179.028 151.55 178.655C151.902 178.271 152.078 177.711 152.078 176.975V172.495H154.318V181.295H152.27L152.142 179.999C151.886 180.426 151.545 180.772 151.118 181.039C150.692 181.306 150.212 181.439 149.678 181.439C148.612 181.439 147.764 181.071 147.134 180.335C146.516 179.588 146.206 178.468 146.206 176.975V172.495ZM161.275 173.679C162.086 172.794 163.067 172.351 164.219 172.351C164.795 172.351 165.328 172.495 165.819 172.783C166.31 173.06 166.688 173.423 166.955 173.871V168.815H169.211V181.295H167.163L167.019 179.823C166.752 180.292 166.368 180.676 165.867 180.975C165.366 181.274 164.816 181.423 164.219 181.423C163.067 181.423 162.086 180.98 161.275 180.095C160.464 179.199 160.059 178.127 160.059 176.879C160.059 175.631 160.464 174.564 161.275 173.679ZM163.003 178.511C163.451 178.97 163.995 179.199 164.635 179.199C165.286 179.199 165.835 178.975 166.283 178.527C166.731 178.068 166.955 177.519 166.955 176.879C166.955 176.239 166.731 175.695 166.283 175.247C165.835 174.788 165.286 174.559 164.635 174.559C163.995 174.559 163.451 174.788 163.003 175.247C162.555 175.695 162.331 176.239 162.331 176.879C162.331 177.519 162.555 178.063 163.003 178.511ZM171.965 173.695C172.839 172.81 173.901 172.367 175.149 172.367C176.407 172.367 177.469 172.81 178.333 173.695C179.207 174.58 179.645 175.647 179.645 176.895C179.645 177.13 179.623 177.428 179.581 177.791H173.069C173.186 178.25 173.453 178.628 173.869 178.927C174.295 179.215 174.791 179.359 175.357 179.359C176.221 179.359 176.898 179.087 177.389 178.543L179.197 179.679C178.781 180.212 178.221 180.639 177.517 180.959C176.813 181.279 176.093 181.439 175.357 181.439C174.002 181.439 172.877 181.002 171.981 180.127C171.095 179.242 170.653 178.164 170.653 176.895C170.653 175.647 171.09 174.58 171.965 173.695ZM173.069 175.999H177.309C177.245 175.572 177.015 175.21 176.621 174.911C176.226 174.612 175.741 174.463 175.165 174.463C174.599 174.463 174.125 174.612 173.741 174.911C173.367 175.21 173.143 175.572 173.069 175.999ZM185.366 168.815H187.622V173.871C187.878 173.423 188.251 173.06 188.742 172.783C189.243 172.495 189.782 172.351 190.358 172.351C191.499 172.351 192.475 172.794 193.286 173.679C194.107 174.564 194.518 175.631 194.518 176.879C194.518 178.127 194.107 179.199 193.286 180.095C192.475 180.98 191.499 181.423 190.358 181.423C189.761 181.423 189.206 181.274 188.694 180.975C188.193 180.676 187.814 180.292 187.558 179.823L187.414 181.295H185.366V168.815ZM188.294 178.511C188.742 178.97 189.291 179.199 189.942 179.199C190.582 179.199 191.126 178.975 191.574 178.527C192.022 178.068 192.246 177.519 192.246 176.879C192.246 176.239 192.022 175.695 191.574 175.247C191.126 174.788 190.582 174.559 189.942 174.559C189.291 174.559 188.742 174.788 188.294 175.247C187.846 175.695 187.622 176.239 187.622 176.879C187.622 177.519 187.846 178.063 188.294 178.511ZM196.856 173.695C197.73 172.81 198.792 172.367 200.04 172.367C201.288 172.367 202.354 172.815 203.24 173.711C204.136 174.596 204.584 175.658 204.584 176.895C204.584 178.143 204.141 179.21 203.256 180.095C202.36 180.991 201.288 181.439 200.04 181.439C198.792 181.439 197.725 180.996 196.84 180.111C195.965 179.215 195.528 178.143 195.528 176.895C195.528 175.647 195.97 174.58 196.856 173.695ZM197.8 176.895C197.8 177.524 198.018 178.058 198.456 178.495C198.893 178.932 199.421 179.151 200.04 179.151C200.669 179.151 201.202 178.932 201.64 178.495C202.077 178.058 202.296 177.524 202.296 176.895C202.296 176.276 202.077 175.748 201.64 175.311C201.202 174.874 200.669 174.655 200.04 174.655C199.421 174.655 198.893 174.874 198.456 175.311C198.018 175.748 197.8 176.276 197.8 176.895ZM206.022 172.495H208.07L208.23 173.759C208.753 172.874 209.622 172.431 210.838 172.431C211.147 172.431 211.414 172.452 211.638 172.495L211.174 174.655C211.046 174.634 210.955 174.623 210.902 174.623C210.155 174.623 209.531 174.852 209.03 175.311C208.529 175.759 208.278 176.522 208.278 177.599V181.295H206.022V172.495ZM213.697 173.679C214.507 172.794 215.489 172.351 216.641 172.351C217.217 172.351 217.75 172.495 218.241 172.783C218.731 173.06 219.11 173.423 219.377 173.871V168.815H221.633V181.295H219.585L219.441 179.823C219.174 180.292 218.79 180.676 218.289 180.975C217.787 181.274 217.238 181.423 216.641 181.423C215.489 181.423 214.507 180.98 213.697 180.095C212.886 179.199 212.481 178.127 212.481 176.879C212.481 175.631 212.886 174.564 213.697 173.679ZM215.425 178.511C215.873 178.97 216.417 179.199 217.057 179.199C217.707 179.199 218.257 178.975 218.705 178.527C219.153 178.068 219.377 177.519 219.377 176.879C219.377 176.239 219.153 175.695 218.705 175.247C218.257 174.788 217.707 174.559 217.057 174.559C216.417 174.559 215.873 174.788 215.425 175.247C214.977 175.695 214.753 176.239 214.753 176.879C214.753 177.519 214.977 178.063 215.425 178.511Z" fill="black"/>
<mask id="path-9-inside-2_60_1054" fill="white">
<path d="M0 215.295H354V295.295H0V215.295Z"/>
</mask>
<path d="M354 293.295H0V297.295H354V293.295Z" fill="#EEEEEE" mask="url(#path-9-inside-2_60_1054)"/>
<path d="M50 238.629C45.6385 238.641 41.4548 240.359 38.3434 243.415V240.295C38.3434 239.853 38.1678 239.429 37.8552 239.117C37.5427 238.804 37.1187 238.629 36.6767 238.629C36.2347 238.629 35.8108 238.804 35.4982 239.117C35.1856 239.429 35.01 239.853 35.01 240.295V247.795C35.01 248.237 35.1856 248.661 35.4982 248.974C35.8108 249.286 36.2347 249.462 36.6767 249.462H44.1767C44.6187 249.462 45.0427 249.286 45.3552 248.974C45.6678 248.661 45.8434 248.237 45.8434 247.795C45.8434 247.353 45.6678 246.929 45.3552 246.617C45.0427 246.304 44.6187 246.129 44.1767 246.129H40.3634C42.5017 243.897 45.3504 242.48 48.4202 242.12C51.4899 241.761 54.589 242.482 57.1849 244.159C59.7808 245.837 61.7115 248.366 62.6452 251.312C63.5789 254.258 63.4574 257.438 62.3014 260.304C61.1455 263.171 59.0273 265.545 56.3109 267.019C53.5945 268.494 50.4494 268.976 47.4161 268.383C44.3827 267.79 41.6505 266.16 39.6888 263.771C37.7272 261.383 36.6586 258.386 36.6667 255.295C36.6667 254.853 36.4911 254.429 36.1786 254.117C35.866 253.804 35.4421 253.629 35 253.629C34.558 253.629 34.1341 253.804 33.8215 254.117C33.509 254.429 33.3334 254.853 33.3334 255.295C33.3334 258.592 34.3109 261.814 36.1422 264.555C37.9736 267.296 40.5765 269.432 43.622 270.693C46.6674 271.955 50.0185 272.285 53.2515 271.642C56.4846 270.999 59.4543 269.411 61.7852 267.08C64.116 264.749 65.7034 261.78 66.3465 258.547C66.9896 255.314 66.6595 251.963 65.398 248.917C64.1366 245.872 62.0004 243.269 59.2595 241.437C56.5187 239.606 53.2964 238.629 50 238.629Z" fill="#FFC244"/>
<path d="M53.3334 256.962H50C49.558 256.962 49.1341 256.786 48.8215 256.474C48.509 256.161 48.3334 255.737 48.3334 255.295V250.295C48.3334 249.853 48.509 249.429 48.8215 249.117C49.1341 248.804 49.558 248.629 50 248.629C50.4421 248.629 50.866 248.804 51.1786 249.117C51.4911 249.429 51.6667 249.853 51.6667 250.295V253.629H53.3334C53.7754 253.629 54.1993 253.804 54.5119 254.117C54.8244 254.429 55 254.853 55 255.295C55 255.737 54.8244 256.161 54.5119 256.474C54.1993 256.786 53.7754 256.962 53.3334 256.962Z" fill="#FFC244"/>
<path opacity="0.5" d="M50 241.962C48.1954 241.968 46.4108 242.34 44.7543 243.057C43.0979 243.773 41.6041 244.818 40.3634 246.128H44.1767C44.6187 246.128 45.0427 246.304 45.3552 246.617C45.6678 246.929 45.8434 247.353 45.8434 247.795C45.8434 248.237 45.6678 248.661 45.3552 248.974C45.0427 249.286 44.6187 249.462 44.1767 249.462H36.6767C36.2702 249.459 35.8791 249.306 35.5783 249.033C35.2775 248.759 35.0882 248.385 35.0467 247.98C33.9207 250.254 33.3344 252.757 33.3334 255.295C33.3334 254.853 33.509 254.429 33.8215 254.117C34.1341 253.804 34.558 253.628 35 253.628C35.4421 253.628 35.866 253.804 36.1786 254.117C36.4911 254.429 36.6667 254.853 36.6667 255.295C36.6667 257.932 37.4487 260.51 38.9138 262.703C40.3789 264.895 42.4612 266.604 44.8976 267.614C47.3339 268.623 50.0148 268.887 52.6012 268.372C55.1877 267.858 57.5634 266.588 59.4281 264.723C61.2928 262.859 62.5627 260.483 63.0772 257.896C63.5916 255.31 63.3276 252.629 62.3184 250.193C61.3093 247.756 59.6003 245.674 57.4076 244.209C55.215 242.744 52.6371 241.962 50 241.962ZM53.3334 256.962H50C49.558 256.962 49.1341 256.786 48.8215 256.474C48.509 256.161 48.3334 255.737 48.3334 255.295V250.295C48.3334 249.853 48.509 249.429 48.8215 249.117C49.1341 248.804 49.558 248.628 50 248.628C50.4421 248.628 50.866 248.804 51.1786 249.117C51.4911 249.429 51.6667 249.853 51.6667 250.295V253.628H53.3334C53.7754 253.628 54.1993 253.804 54.5119 254.117C54.8244 254.429 55 254.853 55 255.295C55 255.737 54.8244 256.161 54.5119 256.474C54.1993 256.786 53.7754 256.962 53.3334 256.962Z" fill="#FFC244"/>
<path d="M91.104 249.615H93.504V254.319H98V249.615H100.4V261.295H98V256.703H93.504V261.295H91.104V249.615ZM102.444 252.495H104.7V261.295H102.444V252.495ZM102.668 249.583C102.924 249.327 103.228 249.199 103.58 249.199C103.921 249.199 104.22 249.327 104.476 249.583C104.732 249.839 104.86 250.143 104.86 250.495C104.86 250.847 104.732 251.151 104.476 251.407C104.22 251.663 103.921 251.791 103.58 251.791C103.228 251.791 102.924 251.663 102.668 251.407C102.412 251.151 102.284 250.847 102.284 250.495C102.284 250.143 102.412 249.839 102.668 249.583ZM107.753 258.527C108.019 258.794 108.387 259.007 108.857 259.167C109.326 259.327 109.785 259.407 110.233 259.407C111.118 259.407 111.561 259.178 111.561 258.719C111.561 258.516 111.385 258.351 111.033 258.223C110.691 258.084 110.27 257.962 109.769 257.855C109.278 257.738 108.782 257.588 108.281 257.407C107.79 257.226 107.369 256.927 107.017 256.511C106.675 256.095 106.505 255.572 106.505 254.943C106.505 254.154 106.819 253.519 107.449 253.039C108.078 252.559 108.905 252.319 109.929 252.319C111.55 252.319 112.771 252.804 113.593 253.775L112.249 255.135C112.003 254.868 111.662 254.666 111.225 254.527C110.798 254.388 110.387 254.319 109.993 254.319C109.609 254.319 109.305 254.378 109.081 254.495C108.867 254.602 108.761 254.751 108.761 254.943C108.761 255.124 108.931 255.279 109.273 255.407C109.625 255.524 110.051 255.642 110.553 255.759C111.054 255.866 111.55 256.01 112.041 256.191C112.542 256.372 112.963 256.671 113.305 257.087C113.657 257.503 113.833 258.02 113.833 258.639C113.833 259.578 113.491 260.292 112.809 260.783C112.137 261.263 111.278 261.503 110.233 261.503C109.507 261.503 108.777 261.38 108.041 261.135C107.315 260.879 106.713 260.5 106.233 259.999L107.753 258.527ZM115.926 252.495L116.246 249.615H118.102V252.495H120.118V254.495H118.102V257.599C118.102 258.73 118.588 259.295 119.558 259.295C119.782 259.295 119.985 259.258 120.166 259.183L120.726 261.183C120.321 261.364 119.82 261.455 119.222 261.455C118.23 261.455 117.42 261.151 116.79 260.543C116.161 259.935 115.846 258.959 115.846 257.615V254.495H114.694V252.495H115.926ZM123.012 253.695C123.887 252.81 124.948 252.367 126.196 252.367C127.444 252.367 128.511 252.815 129.396 253.711C130.292 254.596 130.74 255.658 130.74 256.895C130.74 258.143 130.297 259.21 129.412 260.095C128.516 260.991 127.444 261.439 126.196 261.439C124.948 261.439 123.881 260.996 122.996 260.111C122.121 259.215 121.684 258.143 121.684 256.895C121.684 255.647 122.127 254.58 123.012 253.695ZM123.956 256.895C123.956 257.524 124.175 258.058 124.612 258.495C125.049 258.932 125.577 259.151 126.196 259.151C126.825 259.151 127.359 258.932 127.796 258.495C128.233 258.058 128.452 257.524 128.452 256.895C128.452 256.276 128.233 255.748 127.796 255.311C127.359 254.874 126.825 254.655 126.196 254.655C125.577 254.655 125.049 254.874 124.612 255.311C124.175 255.748 123.956 256.276 123.956 256.895ZM132.178 252.495H134.434V261.295H132.178V252.495ZM132.402 249.583C132.658 249.327 132.962 249.199 133.314 249.199C133.656 249.199 133.954 249.327 134.21 249.583C134.466 249.839 134.594 250.143 134.594 250.495C134.594 250.847 134.466 251.151 134.21 251.407C133.954 251.663 133.656 251.791 133.314 251.791C132.962 251.791 132.658 251.663 132.402 251.407C132.146 251.151 132.018 250.847 132.018 250.495C132.018 250.143 132.146 249.839 132.402 249.583ZM136.319 252.495H138.367L138.527 253.759C139.05 252.874 139.919 252.431 141.135 252.431C141.444 252.431 141.711 252.452 141.935 252.495L141.471 254.655C141.343 254.634 141.252 254.623 141.199 254.623C140.452 254.623 139.828 254.852 139.327 255.311C138.826 255.759 138.575 256.522 138.575 257.599V261.295H136.319V252.495ZM144.09 253.695C144.964 252.81 146.026 252.367 147.274 252.367C148.532 252.367 149.594 252.81 150.458 253.695C151.332 254.58 151.77 255.647 151.77 256.895C151.77 257.13 151.748 257.428 151.706 257.791H145.194C145.311 258.25 145.578 258.628 145.994 258.927C146.42 259.215 146.916 259.359 147.482 259.359C148.346 259.359 149.023 259.087 149.514 258.543L151.322 259.679C150.906 260.212 150.346 260.639 149.642 260.959C148.938 261.279 148.218 261.439 147.482 261.439C146.127 261.439 145.002 261.002 144.106 260.127C143.22 259.242 142.778 258.164 142.778 256.895C142.778 255.647 143.215 254.58 144.09 253.695ZM145.194 255.999H149.434C149.37 255.572 149.14 255.21 148.746 254.911C148.351 254.612 147.866 254.463 147.29 254.463C146.724 254.463 146.25 254.612 145.866 254.911C145.492 255.21 145.268 255.572 145.194 255.999ZM158.275 253.679C159.086 252.794 160.067 252.351 161.219 252.351C161.795 252.351 162.328 252.495 162.819 252.783C163.31 253.06 163.688 253.423 163.955 253.871V248.815H166.211V261.295H164.163L164.019 259.823C163.752 260.292 163.368 260.676 162.867 260.975C162.366 261.274 161.816 261.423 161.219 261.423C160.067 261.423 159.086 260.98 158.275 260.095C157.464 259.199 157.059 258.127 157.059 256.879C157.059 255.631 157.464 254.564 158.275 253.679ZM160.003 258.511C160.451 258.97 160.995 259.199 161.635 259.199C162.286 259.199 162.835 258.975 163.283 258.527C163.731 258.068 163.955 257.519 163.955 256.879C163.955 256.239 163.731 255.695 163.283 255.247C162.835 254.788 162.286 254.559 161.635 254.559C160.995 254.559 160.451 254.788 160.003 255.247C159.555 255.695 159.331 256.239 159.331 256.879C159.331 257.519 159.555 258.063 160.003 258.511ZM168.965 253.695C169.839 252.81 170.901 252.367 172.149 252.367C173.407 252.367 174.469 252.81 175.333 253.695C176.207 254.58 176.645 255.647 176.645 256.895C176.645 257.13 176.623 257.428 176.581 257.791H170.069C170.186 258.25 170.453 258.628 170.869 258.927C171.295 259.215 171.791 259.359 172.357 259.359C173.221 259.359 173.898 259.087 174.389 258.543L176.197 259.679C175.781 260.212 175.221 260.639 174.517 260.959C173.813 261.279 173.093 261.439 172.357 261.439C171.002 261.439 169.877 261.002 168.981 260.127C168.095 259.242 167.653 258.164 167.653 256.895C167.653 255.647 168.09 254.58 168.965 253.695ZM170.069 255.999H174.309C174.245 255.572 174.015 255.21 173.621 254.911C173.226 254.612 172.741 254.463 172.165 254.463C171.599 254.463 171.125 254.612 170.741 254.911C170.367 255.21 170.143 255.572 170.069 255.999ZM179.253 258.527C179.519 258.794 179.887 259.007 180.357 259.167C180.826 259.327 181.285 259.407 181.733 259.407C182.618 259.407 183.061 259.178 183.061 258.719C183.061 258.516 182.885 258.351 182.533 258.223C182.191 258.084 181.77 257.962 181.269 257.855C180.778 257.738 180.282 257.588 179.781 257.407C179.29 257.226 178.869 256.927 178.517 256.511C178.175 256.095 178.005 255.572 178.005 254.943C178.005 254.154 178.319 253.519 178.949 253.039C179.578 252.559 180.405 252.319 181.429 252.319C183.05 252.319 184.271 252.804 185.093 253.775L183.749 255.135C183.503 254.868 183.162 254.666 182.725 254.527C182.298 254.388 181.887 254.319 181.493 254.319C181.109 254.319 180.805 254.378 180.581 254.495C180.367 254.602 180.261 254.751 180.261 254.943C180.261 255.124 180.431 255.279 180.773 255.407C181.125 255.524 181.551 255.642 182.053 255.759C182.554 255.866 183.05 256.01 183.541 256.191C184.042 256.372 184.463 256.671 184.805 257.087C185.157 257.503 185.333 258.02 185.333 258.639C185.333 259.578 184.991 260.292 184.309 260.783C183.637 261.263 182.778 261.503 181.733 261.503C181.007 261.503 180.277 261.38 179.541 261.135C178.815 260.879 178.213 260.5 177.733 259.999L179.253 258.527ZM192.028 253.695C192.902 252.81 193.964 252.367 195.212 252.367C195.958 252.367 196.657 252.543 197.308 252.895C197.958 253.236 198.497 253.7 198.924 254.287L197.068 255.519C196.609 254.943 195.99 254.655 195.212 254.655C194.593 254.655 194.065 254.874 193.628 255.311C193.19 255.748 192.972 256.276 192.972 256.895C192.972 257.524 193.19 258.058 193.628 258.495C194.065 258.932 194.593 259.151 195.212 259.151C196.033 259.151 196.662 258.831 197.1 258.191L198.972 259.439C198.556 260.047 198.017 260.532 197.356 260.895C196.694 261.258 195.98 261.439 195.212 261.439C193.964 261.439 192.897 260.996 192.012 260.111C191.137 259.215 190.7 258.143 190.7 256.895C190.7 255.647 191.142 254.58 192.028 253.695ZM200.35 248.815H202.606V253.711C203.161 252.804 203.956 252.351 204.99 252.351C206.057 252.351 206.9 252.719 207.518 253.455C208.148 254.191 208.462 255.306 208.462 256.799V261.295H206.222V256.799C206.222 256.063 206.046 255.508 205.694 255.135C205.353 254.751 204.926 254.559 204.414 254.559C203.892 254.559 203.46 254.751 203.118 255.135C202.777 255.508 202.606 256.063 202.606 256.799V261.295H200.35V248.815ZM210.994 253.679C211.804 252.794 212.786 252.351 213.938 252.351C214.535 252.351 215.084 252.5 215.586 252.799C216.087 253.098 216.471 253.482 216.738 253.951L216.882 252.495H218.93V261.295H216.882L216.738 259.823C216.471 260.292 216.087 260.676 215.586 260.975C215.084 261.274 214.535 261.423 213.938 261.423C212.786 261.423 211.804 260.98 210.994 260.095C210.183 259.199 209.778 258.127 209.778 256.879C209.778 255.631 210.183 254.564 210.994 253.679ZM212.722 258.511C213.17 258.97 213.714 259.199 214.354 259.199C215.004 259.199 215.554 258.975 216.002 258.527C216.45 258.068 216.674 257.519 216.674 256.879C216.674 256.239 216.45 255.695 216.002 255.247C215.554 254.788 215.004 254.559 214.354 254.559C213.714 254.559 213.17 254.788 212.722 255.247C212.274 255.695 212.05 256.239 212.05 256.879C212.05 257.519 212.274 258.063 212.722 258.511ZM220.803 252.495H222.851L223.011 253.759C223.534 252.874 224.403 252.431 225.619 252.431C225.929 252.431 226.195 252.452 226.419 252.495L225.955 254.655C225.827 254.634 225.737 254.623 225.683 254.623C224.937 254.623 224.313 254.852 223.811 255.311C223.31 255.759 223.059 256.522 223.059 257.599V261.295H220.803V252.495ZM227.694 252.495H229.95V261.295H227.694V252.495ZM227.918 249.583C228.174 249.327 228.478 249.199 228.83 249.199C229.171 249.199 229.47 249.327 229.726 249.583C229.982 249.839 230.11 250.143 230.11 250.495C230.11 250.847 229.982 251.151 229.726 251.407C229.47 251.663 229.171 251.791 228.83 251.791C228.478 251.791 228.174 251.663 227.918 251.407C227.662 251.151 227.534 250.847 227.534 250.495C227.534 250.143 227.662 249.839 227.918 249.583ZM232.731 253.695C233.605 252.81 234.667 252.367 235.915 252.367C237.163 252.367 238.229 252.815 239.115 253.711C240.011 254.596 240.459 255.658 240.459 256.895C240.459 258.143 240.016 259.21 239.131 260.095C238.235 260.991 237.163 261.439 235.915 261.439C234.667 261.439 233.6 260.996 232.715 260.111C231.84 259.215 231.403 258.143 231.403 256.895C231.403 255.647 231.845 254.58 232.731 253.695ZM233.675 256.895C233.675 257.524 233.893 258.058 234.331 258.495C234.768 258.932 235.296 259.151 235.915 259.151C236.544 259.151 237.077 258.932 237.515 258.495C237.952 258.058 238.171 257.524 238.171 256.895C238.171 256.276 237.952 255.748 237.515 255.311C237.077 254.874 236.544 254.655 235.915 254.655C235.296 254.655 234.768 254.874 234.331 255.311C233.893 255.748 233.675 256.276 233.675 256.895ZM242.473 252.495L242.793 249.615H244.649V252.495H246.665V254.495H244.649V257.599C244.649 258.73 245.134 259.295 246.105 259.295C246.329 259.295 246.532 259.258 246.713 259.183L247.273 261.183C246.868 261.364 246.366 261.455 245.769 261.455C244.777 261.455 243.966 261.151 243.337 260.543C242.708 259.935 242.393 258.959 242.393 257.615V254.495H241.241V252.495H242.473ZM249.831 258.527C250.097 258.794 250.465 259.007 250.935 259.167C251.404 259.327 251.863 259.407 252.311 259.407C253.196 259.407 253.639 259.178 253.639 258.719C253.639 258.516 253.463 258.351 253.111 258.223C252.769 258.084 252.348 257.962 251.847 257.855C251.356 257.738 250.86 257.588 250.359 257.407C249.868 257.226 249.447 256.927 249.095 256.511C248.753 256.095 248.583 255.572 248.583 254.943C248.583 254.154 248.897 253.519 249.527 253.039C250.156 252.559 250.983 252.319 252.007 252.319C253.628 252.319 254.849 252.804 255.671 253.775L254.327 255.135C254.081 254.868 253.74 254.666 253.303 254.527C252.876 254.388 252.465 254.319 252.071 254.319C251.687 254.319 251.383 254.378 251.159 254.495C250.945 254.602 250.839 254.751 250.839 254.943C250.839 255.124 251.009 255.279 251.351 255.407C251.703 255.524 252.129 255.642 252.631 255.759C253.132 255.866 253.628 256.01 254.119 256.191C254.62 256.372 255.041 256.671 255.383 257.087C255.735 257.503 255.911 258.02 255.911 258.639C255.911 259.578 255.569 260.292 254.887 260.783C254.215 261.263 253.356 261.503 252.311 261.503C251.585 261.503 250.855 261.38 250.119 261.135C249.393 260.879 248.791 260.5 248.311 259.999L249.831 258.527Z" fill="black"/>
<mask id="path-15-inside-3_60_1054" fill="white">
<path d="M0 295.295H354V375.295H0V295.295Z"/>
</mask>
<path d="M354 373.295H0V377.295H354V373.295Z" fill="#EEEEEE" mask="url(#path-15-inside-3_60_1054)"/>
<path opacity="0.5" fill-rule="evenodd" clip-rule="evenodd" d="M53.7984 318.882C53.1817 318.629 52.3984 318.629 50.8334 318.629C49.2684 318.629 48.4867 318.629 47.8684 318.882C47.4615 319.048 47.0916 319.293 46.7798 319.603C46.468 319.913 46.2206 320.281 46.0517 320.687C45.895 321.059 45.835 321.494 45.81 322.125C45.7981 322.583 45.6701 323.03 45.4381 323.424C45.206 323.819 44.8775 324.148 44.4834 324.38C44.0813 324.604 43.6293 324.722 43.1692 324.724C42.7092 324.727 42.256 324.613 41.8517 324.394C41.2884 324.097 40.88 323.934 40.4767 323.88C39.5943 323.765 38.7021 324.002 37.9934 324.54C37.4634 324.944 37.0717 325.617 36.29 326.962C35.5067 328.307 35.1167 328.979 35.0284 329.637C34.9117 330.514 35.1517 331.4 35.695 332.102C35.9417 332.422 36.29 332.69 36.8284 333.027C37.6234 333.522 38.1334 334.365 38.1334 335.295C38.1334 336.225 37.6234 337.069 36.83 337.562C36.29 337.9 35.9417 338.169 35.6934 338.489C35.426 338.836 35.2296 339.232 35.1155 339.655C35.0014 340.078 34.9718 340.519 35.0284 340.954C35.1167 341.61 35.5067 342.284 36.29 343.629C37.0734 344.974 37.4634 345.645 37.9934 346.05C38.7 346.589 39.5934 346.825 40.4767 346.71C40.88 346.657 41.2884 346.494 41.8517 346.197C42.2562 345.977 42.7097 345.863 43.1701 345.866C43.6304 345.868 44.0827 345.986 44.485 346.21C45.295 346.677 45.775 347.535 45.81 348.465C45.835 349.099 45.895 349.532 46.0517 349.904C46.3917 350.72 47.045 351.37 47.8684 351.709C48.485 351.962 49.2684 351.962 50.8334 351.962C52.3984 351.962 53.1817 351.962 53.7984 351.709C54.2052 351.542 54.5752 351.297 54.887 350.987C55.1987 350.678 55.4462 350.309 55.615 349.904C55.7717 349.532 55.8317 349.099 55.8567 348.465C55.89 347.535 56.3717 346.675 57.1834 346.21C57.5855 345.987 58.0375 345.868 58.4975 345.866C58.9575 345.864 59.4107 345.977 59.815 346.197C60.3784 346.494 60.7867 346.657 61.19 346.71C62.0734 346.827 62.9667 346.589 63.6734 346.05C64.2034 345.647 64.595 344.974 65.3767 343.629C66.16 342.284 66.55 341.612 66.6384 340.954C66.6947 340.519 66.6648 340.078 66.5504 339.655C66.436 339.232 66.2394 338.835 65.9717 338.489C65.725 338.169 65.3767 337.9 64.8384 337.564C64.0434 337.069 63.5334 336.225 63.5334 335.295C63.5334 334.365 64.0434 333.522 64.8367 333.029C65.3767 332.69 65.725 332.422 65.9734 332.102C66.2408 331.755 66.4371 331.359 66.5512 330.936C66.6653 330.513 66.6949 330.071 66.6384 329.637C66.55 328.98 66.16 328.307 65.3767 326.962C64.5934 325.617 64.2034 324.945 63.6734 324.54C62.9646 324.002 62.0724 323.765 61.19 323.88C60.7867 323.934 60.3784 324.097 59.815 324.394C59.4105 324.613 58.957 324.727 58.4967 324.725C58.0363 324.723 57.584 324.604 57.1817 324.38C56.7879 324.147 56.4597 323.818 56.2279 323.424C55.9962 323.029 55.8684 322.583 55.8567 322.125C55.8317 321.492 55.7717 321.059 55.615 320.687C55.4462 320.281 55.1987 319.913 54.887 319.603C54.5752 319.293 54.2052 319.048 53.7984 318.882Z" fill="#FFC244"/>
<path d="M55.8717 335.295C55.8717 338.057 53.615 340.295 50.8334 340.295C48.0517 340.295 45.795 338.057 45.795 335.295C45.795 332.533 48.05 330.295 50.8334 330.295C53.6167 330.295 55.8717 332.533 55.8717 335.295Z" fill="#FFC244"/>
<path d="M99.8813 329.615C101.119 329.615 102.116 329.983 102.873 330.719C103.631 331.444 104.009 332.346 104.009 333.423C104.009 334.511 103.631 335.423 102.873 336.159C102.116 336.895 101.119 337.263 99.8813 337.263H97.7853V341.295H95.3853V329.615H99.8813ZM99.8173 334.911C100.351 334.911 100.772 334.772 101.081 334.495C101.391 334.207 101.545 333.85 101.545 333.423C101.545 333.007 101.385 332.66 101.065 332.383C100.756 332.095 100.34 331.951 99.8173 331.951H97.7853V334.911H99.8173ZM106.134 333.679C106.945 332.794 107.926 332.351 109.078 332.351C109.676 332.351 110.225 332.5 110.726 332.799C111.228 333.098 111.612 333.482 111.878 333.951L112.022 332.495H114.07V341.295H112.022L111.878 339.823C111.612 340.292 111.228 340.676 110.726 340.975C110.225 341.274 109.676 341.423 109.078 341.423C107.926 341.423 106.945 340.98 106.134 340.095C105.324 339.199 104.918 338.127 104.918 336.879C104.918 335.631 105.324 334.564 106.134 333.679ZM107.862 338.511C108.31 338.97 108.854 339.199 109.494 339.199C110.145 339.199 110.694 338.975 111.142 338.527C111.59 338.068 111.814 337.519 111.814 336.879C111.814 336.239 111.59 335.695 111.142 335.247C110.694 334.788 110.145 334.559 109.494 334.559C108.854 334.559 108.31 334.788 107.862 335.247C107.414 335.695 107.19 336.239 107.19 336.879C107.19 337.519 107.414 338.063 107.862 338.511ZM115.944 332.495H117.992L118.152 333.759C118.675 332.874 119.544 332.431 120.76 332.431C121.069 332.431 121.336 332.452 121.56 332.495L121.096 334.655C120.968 334.634 120.877 334.623 120.824 334.623C120.077 334.623 119.453 334.852 118.952 335.311C118.451 335.759 118.2 336.522 118.2 337.599V341.295H115.944V332.495ZM123.619 333.679C124.429 332.794 125.411 332.351 126.563 332.351C127.16 332.351 127.709 332.5 128.211 332.799C128.712 333.098 129.096 333.482 129.363 333.951L129.507 332.495H131.555V341.295H129.507L129.363 339.823C129.096 340.292 128.712 340.676 128.211 340.975C127.709 341.274 127.16 341.423 126.563 341.423C125.411 341.423 124.429 340.98 123.619 340.095C122.808 339.199 122.403 338.127 122.403 336.879C122.403 335.631 122.808 334.564 123.619 333.679ZM125.347 338.511C125.795 338.97 126.339 339.199 126.979 339.199C127.629 339.199 128.179 338.975 128.627 338.527C129.075 338.068 129.299 337.519 129.299 336.879C129.299 336.239 129.075 335.695 128.627 335.247C128.179 334.788 127.629 334.559 126.979 334.559C126.339 334.559 125.795 334.788 125.347 335.247C124.899 335.695 124.675 336.239 124.675 336.879C124.675 337.519 124.899 338.063 125.347 338.511ZM133.428 341.295V332.495H135.476L135.62 333.727C135.844 333.3 136.159 332.964 136.564 332.719C136.98 332.474 137.423 332.351 137.892 332.351C138.479 332.351 138.991 332.49 139.428 332.767C139.866 333.044 140.196 333.423 140.42 333.903C140.644 333.444 140.964 333.071 141.38 332.783C141.807 332.495 142.282 332.351 142.804 332.351C143.839 332.351 144.655 332.703 145.252 333.407C145.85 334.111 146.148 335.204 146.148 336.687V341.295H143.892V336.687C143.892 335.951 143.748 335.412 143.46 335.071C143.183 334.73 142.831 334.559 142.404 334.559C141.988 334.559 141.631 334.73 141.332 335.071C141.044 335.412 140.9 335.951 140.9 336.687V341.295H138.66V336.687C138.66 335.951 138.522 335.412 138.244 335.071C137.967 334.73 137.61 334.559 137.172 334.559C136.746 334.559 136.388 334.751 136.1 335.135C135.823 335.508 135.684 336.063 135.684 336.799V341.295H133.428ZM152.665 331.119H151.289L149.785 328.431H151.785L152.665 331.119ZM152.169 341.439C150.814 341.439 149.689 341.002 148.793 340.127C147.908 339.242 147.465 338.164 147.465 336.895C147.465 335.647 147.902 334.58 148.777 333.695C149.652 332.81 150.713 332.367 151.961 332.367C153.22 332.367 154.281 332.81 155.145 333.695C156.02 334.58 156.457 335.647 156.457 336.895C156.457 337.13 156.436 337.428 156.393 337.791H149.881C149.998 338.25 150.265 338.628 150.681 338.927C151.108 339.215 151.604 339.359 152.169 339.359C153.033 339.359 153.71 339.087 154.201 338.543L156.009 339.679C155.593 340.212 155.033 340.639 154.329 340.959C153.625 341.279 152.905 341.439 152.169 341.439ZM149.881 335.999H154.121C154.057 335.572 153.828 335.21 153.433 334.911C153.038 334.612 152.553 334.463 151.977 334.463C151.412 334.463 150.937 334.612 150.553 334.911C150.18 335.21 149.956 335.572 149.881 335.999ZM158.473 332.495L158.793 329.615H160.649V332.495H162.665V334.495H160.649V337.599C160.649 338.73 161.134 339.295 162.105 339.295C162.329 339.295 162.532 339.258 162.713 339.183L163.273 341.183C162.868 341.364 162.366 341.455 161.769 341.455C160.777 341.455 159.966 341.151 159.337 340.543C158.708 339.935 158.393 338.959 158.393 337.615V334.495H157.241V332.495H158.473ZM164.663 332.495H166.711L166.871 333.759C167.393 332.874 168.263 332.431 169.479 332.431C169.788 332.431 170.055 332.452 170.279 332.495L169.815 334.655C169.687 334.634 169.596 334.623 169.543 334.623C168.796 334.623 168.172 334.852 167.671 335.311C167.169 335.759 166.919 336.522 166.919 337.599V341.295H164.663V332.495ZM172.433 333.695C173.308 332.81 174.369 332.367 175.617 332.367C176.876 332.367 177.937 332.81 178.801 333.695C179.676 334.58 180.113 335.647 180.113 336.895C180.113 337.13 180.092 337.428 180.049 337.791H173.537C173.655 338.25 173.921 338.628 174.337 338.927C174.764 339.215 175.26 339.359 175.825 339.359C176.689 339.359 177.367 339.087 177.857 338.543L179.665 339.679C179.249 340.212 178.689 340.639 177.985 340.959C177.281 341.279 176.561 341.439 175.825 341.439C174.471 341.439 173.345 341.002 172.449 340.127C171.564 339.242 171.121 338.164 171.121 336.895C171.121 335.647 171.559 334.58 172.433 333.695ZM173.537 335.999H177.777C177.713 335.572 177.484 335.21 177.089 334.911C176.695 334.612 176.209 334.463 175.633 334.463C175.068 334.463 174.593 334.612 174.209 334.911C173.836 335.21 173.612 335.572 173.537 335.999ZM182.721 338.527C182.988 338.794 183.356 339.007 183.825 339.167C184.295 339.327 184.753 339.407 185.201 339.407C186.087 339.407 186.529 339.178 186.529 338.719C186.529 338.516 186.353 338.351 186.001 338.223C185.66 338.084 185.239 337.962 184.737 337.855C184.247 337.738 183.751 337.588 183.249 337.407C182.759 337.226 182.337 336.927 181.985 336.511C181.644 336.095 181.473 335.572 181.473 334.943C181.473 334.154 181.788 333.519 182.417 333.039C183.047 332.559 183.873 332.319 184.897 332.319C186.519 332.319 187.74 332.804 188.561 333.775L187.217 335.135C186.972 334.868 186.631 334.666 186.193 334.527C185.767 334.388 185.356 334.319 184.961 334.319C184.577 334.319 184.273 334.378 184.049 334.495C183.836 334.602 183.729 334.751 183.729 334.943C183.729 335.124 183.9 335.279 184.241 335.407C184.593 335.524 185.02 335.642 185.521 335.759C186.023 335.866 186.519 336.01 187.009 336.191C187.511 336.372 187.932 336.671 188.273 337.087C188.625 337.503 188.801 338.02 188.801 338.639C188.801 339.578 188.46 340.292 187.777 340.783C187.105 341.263 186.247 341.503 185.201 341.503C184.476 341.503 183.745 341.38 183.009 341.135C182.284 340.879 181.681 340.5 181.201 339.999L182.721 338.527Z" fill="black"/>
<mask id="path-20-inside-4_60_1054" fill="white">
<path d="M0 375.295H354V455.295H0V375.295Z"/>
</mask>
<path d="M354 453.295H0V457.295H354V453.295Z" fill="#EEEEEE" mask="url(#path-20-inside-4_60_1054)"/>
<path opacity="0.3" d="M50 400.612L38.3334 405.795V413.628C38.3334 421.162 43.3 428.112 50 430.178C56.7 428.128 61.6667 421.162 61.6667 413.628V405.795L50 400.612ZM51.6667 423.628H48.3334V413.628H51.6667V423.628ZM51.6667 410.295H48.3334V406.962H51.6667V410.295Z" fill="#FFC244"/>
<path d="M50 400.612L61.6667 405.795V413.628C61.6667 421.162 56.7 428.112 50 430.178C43.3 428.112 38.3333 421.162 38.3333 413.628V405.795L50 400.612ZM50 396.962L35 403.628V413.628C35 422.878 41.4 431.528 50 433.628C58.6 431.528 65 422.878 65 413.628V403.628L50 396.962ZM48.3333 406.962H51.6667V410.295H48.3333V406.962ZM48.3333 413.628H51.6667V423.628H48.3333V413.628Z" fill="#FFC244"/>
<path d="M95.6 409.615C96.8373 409.615 97.8347 409.983 98.592 410.719C99.3493 411.444 99.728 412.346 99.728 413.423C99.728 414.511 99.3493 415.423 98.592 416.159C97.8347 416.895 96.8373 417.263 95.6 417.263H93.504V421.295H91.104V409.615H95.6ZM95.536 414.911C96.0693 414.911 96.4907 414.772 96.8 414.495C97.1093 414.207 97.264 413.85 97.264 413.423C97.264 413.007 97.104 412.66 96.784 412.383C96.4747 412.095 96.0587 411.951 95.536 411.951H93.504V414.911H95.536ZM101.965 413.695C102.84 412.81 103.901 412.367 105.149 412.367C106.397 412.367 107.464 412.815 108.349 413.711C109.245 414.596 109.693 415.658 109.693 416.895C109.693 418.143 109.25 419.21 108.365 420.095C107.469 420.991 106.397 421.439 105.149 421.439C103.901 421.439 102.834 420.996 101.949 420.111C101.074 419.215 100.637 418.143 100.637 416.895C100.637 415.647 101.08 414.58 101.965 413.695ZM102.909 416.895C102.909 417.524 103.128 418.058 103.565 418.495C104.002 418.932 104.53 419.151 105.149 419.151C105.778 419.151 106.312 418.932 106.749 418.495C107.186 418.058 107.405 417.524 107.405 416.895C107.405 416.276 107.186 415.748 106.749 415.311C106.312 414.874 105.778 414.655 105.149 414.655C104.53 414.655 104.002 414.874 103.565 415.311C103.128 415.748 102.909 416.276 102.909 416.895ZM113.388 421.295H111.132V408.815H113.388V421.295ZM115.257 412.495H117.513V421.295H115.257V412.495ZM115.481 409.583C115.737 409.327 116.041 409.199 116.393 409.199C116.734 409.199 117.033 409.327 117.289 409.583C117.545 409.839 117.673 410.143 117.673 410.495C117.673 410.847 117.545 411.151 117.289 411.407C117.033 411.663 116.734 411.791 116.393 411.791C116.041 411.791 115.737 411.663 115.481 411.407C115.225 411.151 115.097 410.847 115.097 410.495C115.097 410.143 115.225 409.839 115.481 409.583ZM119.973 412.495L120.293 409.615H122.149V412.495H124.165V414.495H122.149V417.599C122.149 418.73 122.634 419.295 123.605 419.295C123.829 419.295 124.032 419.258 124.213 419.183L124.773 421.183C124.368 421.364 123.866 421.455 123.269 421.455C122.277 421.455 121.466 421.151 120.837 420.543C120.208 419.935 119.893 418.959 119.893 417.615V414.495H118.741V412.495H119.973ZM126.163 412.495H128.419V421.295H126.163V412.495ZM126.387 409.583C126.643 409.327 126.947 409.199 127.299 409.199C127.64 409.199 127.939 409.327 128.195 409.583C128.451 409.839 128.579 410.143 128.579 410.495C128.579 410.847 128.451 411.151 128.195 411.407C127.939 411.663 127.64 411.791 127.299 411.791C126.947 411.791 126.643 411.663 126.387 411.407C126.131 411.151 126.003 410.847 126.003 410.495C126.003 410.143 126.131 409.839 126.387 409.583ZM129.967 416.895C129.967 415.647 130.373 414.58 131.183 413.695C131.994 412.81 132.975 412.367 134.127 412.367C134.714 412.367 135.258 412.516 135.759 412.815C136.271 413.114 136.661 413.492 136.927 413.951L137.071 412.495H139.119V424.815H136.879V419.919C136.602 420.367 136.218 420.735 135.727 421.023C135.237 421.3 134.703 421.439 134.127 421.439C132.975 421.439 131.994 420.996 131.183 420.111C130.373 419.215 129.967 418.143 129.967 416.895ZM132.239 416.895C132.239 417.546 132.463 418.095 132.911 418.543C133.359 418.991 133.903 419.215 134.543 419.215C135.194 419.215 135.743 418.991 136.191 418.543C136.65 418.095 136.879 417.546 136.879 416.895C136.879 416.255 136.65 415.711 136.191 415.263C135.743 414.804 135.194 414.575 134.543 414.575C133.903 414.575 133.359 414.804 132.911 415.263C132.463 415.711 132.239 416.255 132.239 416.895ZM140.863 412.495H143.119V416.975C143.119 417.711 143.289 418.271 143.631 418.655C143.972 419.028 144.404 419.215 144.927 419.215C145.439 419.215 145.865 419.028 146.207 418.655C146.559 418.271 146.735 417.711 146.735 416.975V412.495H148.975V421.295H146.927L146.799 419.999C146.543 420.426 146.201 420.772 145.775 421.039C145.348 421.306 144.868 421.439 144.335 421.439C143.268 421.439 142.42 421.071 141.791 420.335C141.172 419.588 140.863 418.468 140.863 416.975V412.495ZM151.746 413.695C152.621 412.81 153.682 412.367 154.93 412.367C156.189 412.367 157.25 412.81 158.114 413.695C158.989 414.58 159.426 415.647 159.426 416.895C159.426 417.13 159.405 417.428 159.362 417.791H152.85C152.967 418.25 153.234 418.628 153.65 418.927C154.077 419.215 154.573 419.359 155.138 419.359C156.002 419.359 156.679 419.087 157.17 418.543L158.978 419.679C158.562 420.212 158.002 420.639 157.298 420.959C156.594 421.279 155.874 421.439 155.138 421.439C153.783 421.439 152.658 421.002 151.762 420.127C150.877 419.242 150.434 418.164 150.434 416.895C150.434 415.647 150.871 414.58 151.746 413.695ZM152.85 415.999H157.09C157.026 415.572 156.797 415.21 156.402 414.911C156.007 414.612 155.522 414.463 154.946 414.463C154.381 414.463 153.906 414.612 153.522 414.911C153.149 415.21 152.925 415.572 152.85 415.999ZM165.931 413.679C166.742 412.794 167.723 412.351 168.875 412.351C169.451 412.351 169.984 412.495 170.475 412.783C170.966 413.06 171.344 413.423 171.611 413.871V408.815H173.867V421.295H171.819L171.675 419.823C171.408 420.292 171.024 420.676 170.523 420.975C170.022 421.274 169.472 421.423 168.875 421.423C167.723 421.423 166.742 420.98 165.931 420.095C165.12 419.199 164.715 418.127 164.715 416.879C164.715 415.631 165.12 414.564 165.931 413.679ZM167.659 418.511C168.107 418.97 168.651 419.199 169.291 419.199C169.942 419.199 170.491 418.975 170.939 418.527C171.387 418.068 171.611 417.519 171.611 416.879C171.611 416.239 171.387 415.695 170.939 415.247C170.491 414.788 169.942 414.559 169.291 414.559C168.651 414.559 168.107 414.788 167.659 415.247C167.211 415.695 166.987 416.239 166.987 416.879C166.987 417.519 167.211 418.063 167.659 418.511ZM176.621 413.695C177.496 412.81 178.557 412.367 179.805 412.367C181.064 412.367 182.125 412.81 182.989 413.695C183.864 414.58 184.301 415.647 184.301 416.895C184.301 417.13 184.28 417.428 184.237 417.791H177.725C177.842 418.25 178.109 418.628 178.525 418.927C178.952 419.215 179.448 419.359 180.013 419.359C180.877 419.359 181.554 419.087 182.045 418.543L183.853 419.679C183.437 420.212 182.877 420.639 182.173 420.959C181.469 421.279 180.749 421.439 180.013 421.439C178.658 421.439 177.533 421.002 176.637 420.127C175.752 419.242 175.309 418.164 175.309 416.895C175.309 415.647 175.746 414.58 176.621 413.695ZM177.725 415.999H181.965C181.901 415.572 181.672 415.21 181.277 414.911C180.882 414.612 180.397 414.463 179.821 414.463C179.256 414.463 178.781 414.612 178.397 414.911C178.024 415.21 177.8 415.572 177.725 415.999ZM190.918 413.695C191.793 412.81 192.854 412.367 194.102 412.367C194.849 412.367 195.547 412.543 196.198 412.895C196.849 413.236 197.387 413.7 197.814 414.287L195.958 415.519C195.499 414.943 194.881 414.655 194.102 414.655C193.483 414.655 192.955 414.874 192.518 415.311C192.081 415.748 191.862 416.276 191.862 416.895C191.862 417.524 192.081 418.058 192.518 418.495C192.955 418.932 193.483 419.151 194.102 419.151C194.923 419.151 195.553 418.831 195.99 418.191L197.862 419.439C197.446 420.047 196.907 420.532 196.246 420.895C195.585 421.258 194.87 421.439 194.102 421.439C192.854 421.439 191.787 420.996 190.902 420.111C190.027 419.215 189.59 418.143 189.59 416.895C189.59 415.647 190.033 414.58 190.918 413.695ZM200.137 413.695C201.012 412.81 202.073 412.367 203.321 412.367C204.569 412.367 205.636 412.815 206.521 413.711C207.417 414.596 207.865 415.658 207.865 416.895C207.865 418.143 207.422 419.21 206.537 420.095C205.641 420.991 204.569 421.439 203.321 421.439C202.073 421.439 201.006 420.996 200.121 420.111C199.246 419.215 198.809 418.143 198.809 416.895C198.809 415.647 199.252 414.58 200.137 413.695ZM201.081 416.895C201.081 417.524 201.3 418.058 201.737 418.495C202.174 418.932 202.702 419.151 203.321 419.151C203.95 419.151 204.484 418.932 204.921 418.495C205.358 418.058 205.577 417.524 205.577 416.895C205.577 416.276 205.358 415.748 204.921 415.311C204.484 414.874 203.95 414.655 203.321 414.655C202.702 414.655 202.174 414.874 201.737 415.311C201.3 415.748 201.081 416.276 201.081 416.895ZM209.303 421.295V412.495H211.351L211.495 413.775C211.751 413.348 212.087 413.007 212.503 412.751C212.93 412.484 213.41 412.351 213.943 412.351C215.01 412.351 215.853 412.719 216.471 413.455C217.101 414.191 217.415 415.306 217.415 416.799V421.295H215.175V416.799C215.175 416.063 214.999 415.508 214.647 415.135C214.306 414.751 213.879 414.559 213.367 414.559C212.845 414.559 212.413 414.751 212.071 415.135C211.73 415.508 211.559 416.063 211.559 416.799V421.295H209.303ZM221.867 414.495V421.295L219.627 421.279V414.495H218.507V412.495H219.627V412.271C219.627 410.991 219.947 410.052 220.587 409.455C221.237 408.847 222.059 408.543 223.051 408.543C223.413 408.543 223.813 408.607 224.251 408.735L223.563 410.751C223.413 410.719 223.264 410.703 223.115 410.703C222.283 410.703 221.867 411.226 221.867 412.271V412.495H226.571V421.295H224.315V414.495H221.867ZM226.331 411.407C226.085 411.663 225.787 411.791 225.435 411.791C225.083 411.791 224.779 411.663 224.523 411.407C224.277 411.151 224.155 410.847 224.155 410.495C224.155 410.143 224.277 409.839 224.523 409.583C224.779 409.327 225.083 409.199 225.435 409.199C225.787 409.199 226.085 409.327 226.331 409.583C226.587 409.839 226.715 410.143 226.715 410.495C226.715 410.847 226.587 411.151 226.331 411.407ZM229.228 413.679C230.039 412.794 231.02 412.351 232.172 412.351C232.748 412.351 233.281 412.495 233.772 412.783C234.263 413.06 234.641 413.423 234.908 413.871V408.815H237.164V421.295H235.116L234.972 419.823C234.705 420.292 234.321 420.676 233.82 420.975C233.319 421.274 232.769 421.423 232.172 421.423C231.02 421.423 230.039 420.98 229.228 420.095C228.417 419.199 228.012 418.127 228.012 416.879C228.012 415.631 228.417 414.564 229.228 413.679ZM230.956 418.511C231.404 418.97 231.948 419.199 232.588 419.199C233.239 419.199 233.788 418.975 234.236 418.527C234.684 418.068 234.908 417.519 234.908 416.879C234.908 416.239 234.684 415.695 234.236 415.247C233.788 414.788 233.239 414.559 232.588 414.559C231.948 414.559 231.404 414.788 230.956 415.247C230.508 415.695 230.284 416.239 230.284 416.879C230.284 417.519 230.508 418.063 230.956 418.511ZM239.918 413.695C240.792 412.81 241.854 412.367 243.102 412.367C244.36 412.367 245.422 412.81 246.286 413.695C247.16 414.58 247.598 415.647 247.598 416.895C247.598 417.13 247.576 417.428 247.534 417.791H241.022C241.139 418.25 241.406 418.628 241.822 418.927C242.248 419.215 242.744 419.359 243.31 419.359C244.174 419.359 244.851 419.087 245.342 418.543L247.15 419.679C246.734 420.212 246.174 420.639 245.47 420.959C244.766 421.279 244.046 421.439 243.31 421.439C241.955 421.439 240.83 421.002 239.934 420.127C239.048 419.242 238.606 418.164 238.606 416.895C238.606 415.647 239.043 414.58 239.918 413.695ZM241.022 415.999H245.262C245.198 415.572 244.968 415.21 244.574 414.911C244.179 414.612 243.694 414.463 243.118 414.463C242.552 414.463 242.078 414.612 241.694 414.911C241.32 415.21 241.096 415.572 241.022 415.999ZM249.038 421.295V412.495H251.086L251.23 413.775C251.486 413.348 251.822 413.007 252.238 412.751C252.664 412.484 253.144 412.351 253.678 412.351C254.744 412.351 255.587 412.719 256.206 413.455C256.835 414.191 257.15 415.306 257.15 416.799V421.295H254.91V416.799C254.91 416.063 254.734 415.508 254.382 415.135C254.04 414.751 253.614 414.559 253.102 414.559C252.579 414.559 252.147 414.751 251.806 415.135C251.464 415.508 251.294 416.063 251.294 416.799V421.295H249.038ZM259.473 412.495L259.793 409.615H261.649V412.495H263.665V414.495H261.649V417.599C261.649 418.73 262.134 419.295 263.105 419.295C263.329 419.295 263.532 419.258 263.713 419.183L264.273 421.183C263.868 421.364 263.366 421.455 262.769 421.455C261.777 421.455 260.966 421.151 260.337 420.543C259.708 419.935 259.393 418.959 259.393 417.615V414.495H258.241V412.495H259.473ZM265.663 412.495H267.919V421.295H265.663V412.495ZM265.887 409.583C266.143 409.327 266.447 409.199 266.799 409.199C267.14 409.199 267.439 409.327 267.695 409.583C267.951 409.839 268.079 410.143 268.079 410.495C268.079 410.847 267.951 411.151 267.695 411.407C267.439 411.663 267.14 411.791 266.799 411.791C266.447 411.791 266.143 411.663 265.887 411.407C265.631 411.151 265.503 410.847 265.503 410.495C265.503 410.143 265.631 409.839 265.887 409.583ZM270.587 413.679C271.398 412.794 272.379 412.351 273.531 412.351C274.129 412.351 274.678 412.5 275.179 412.799C275.681 413.098 276.065 413.482 276.331 413.951L276.475 412.495H278.523V421.295H276.475L276.331 419.823C276.065 420.292 275.681 420.676 275.179 420.975C274.678 421.274 274.129 421.423 273.531 421.423C272.379 421.423 271.398 420.98 270.587 420.095C269.777 419.199 269.371 418.127 269.371 416.879C269.371 415.631 269.777 414.564 270.587 413.679ZM272.315 418.511C272.763 418.97 273.307 419.199 273.947 419.199C274.598 419.199 275.147 418.975 275.595 418.527C276.043 418.068 276.267 417.519 276.267 416.879C276.267 416.239 276.043 415.695 275.595 415.247C275.147 414.788 274.598 414.559 273.947 414.559C273.307 414.559 272.763 414.788 272.315 415.247C271.867 415.695 271.643 416.239 271.643 416.879C271.643 417.519 271.867 418.063 272.315 418.511ZM282.653 421.295H280.397V408.815H282.653V421.295ZM284.522 412.495H286.778V421.295H284.522V412.495ZM284.746 409.583C285.002 409.327 285.306 409.199 285.658 409.199C285.999 409.199 286.298 409.327 286.554 409.583C286.81 409.839 286.938 410.143 286.938 410.495C286.938 410.847 286.81 411.151 286.554 411.407C286.298 411.663 285.999 411.791 285.658 411.791C285.306 411.791 285.002 411.663 284.746 411.407C284.49 411.151 284.362 410.847 284.362 410.495C284.362 410.143 284.49 409.839 284.746 409.583ZM289.239 412.495L289.559 409.615H291.415V412.495H293.431V414.495H291.415V417.599C291.415 418.73 291.9 419.295 292.871 419.295C293.095 419.295 293.297 419.258 293.479 419.183L294.039 421.183C293.633 421.364 293.132 421.455 292.535 421.455C291.543 421.455 290.732 421.151 290.103 420.543C289.473 419.935 289.159 418.959 289.159 417.615V414.495H288.007V412.495H289.239ZM300.004 411.119H298.628L299.508 408.431H301.508L300.004 411.119ZM299.7 421.439C298.346 421.439 297.22 421.002 296.324 420.127C295.439 419.242 294.996 418.164 294.996 416.895C294.996 415.647 295.434 414.58 296.308 413.695C297.183 412.81 298.244 412.367 299.492 412.367C300.751 412.367 301.812 412.81 302.676 413.695C303.551 414.58 303.988 415.647 303.988 416.895C303.988 417.13 303.967 417.428 303.924 417.791H297.412C297.53 418.25 297.796 418.628 298.212 418.927C298.639 419.215 299.135 419.359 299.7 419.359C300.564 419.359 301.242 419.087 301.732 418.543L303.54 419.679C303.124 420.212 302.564 420.639 301.86 420.959C301.156 421.279 300.436 421.439 299.7 421.439ZM297.412 415.999H301.652C301.588 415.572 301.359 415.21 300.964 414.911C300.57 414.612 300.084 414.463 299.508 414.463C298.943 414.463 298.468 414.612 298.084 414.911C297.711 415.21 297.487 415.572 297.412 415.999Z" fill="black"/>
<g filter="url(#filter0_d_60_1054)">
<rect x="20" y="23.0059" width="62" height="62" rx="9.89925" fill="white"/>
</g>
<g clip-path="url(#clip1_60_1054)">
<path d="M62.9501 66.7969C62.8649 66.3089 62.6733 65.7916 62.385 65.3427C62.234 65.1046 62.054 64.884 61.8469 64.6946C61.245 64.1481 60.4282 63.91 59.6212 63.9412C59.2108 63.9568 58.8025 64.0427 58.4173 64.1832C58.2199 64.2555 58.0438 64.3589 57.8618 64.4604C57.6799 64.5619 57.5212 64.6771 57.3683 64.8098C56.7935 65.3134 56.4664 66.022 56.3541 66.7754C56.3 67.1424 56.298 67.5191 56.3696 67.8841C57.2812 72.4537 63.6294 70.6911 62.9501 66.7989V66.7969ZM60.9643 68.5283C59.3521 70.3182 56.5806 67.6968 58.3399 65.9185C58.6612 65.5925 59.0076 65.413 59.3483 65.3485C59.5495 65.3115 59.747 65.3134 59.9386 65.3485C61.1947 65.5789 62.1101 67.2537 60.9643 68.5283Z" fill="#FFC244"/>
<path d="M46.0305 66.7969C45.9454 66.3089 45.7538 65.7916 45.4654 65.3427C45.3144 65.1046 45.1344 64.884 44.9273 64.6946C44.3254 64.1481 43.5087 63.91 42.7016 63.9412C42.2913 63.9568 41.8829 64.0427 41.4978 64.1832C41.3003 64.2555 41.1242 64.3589 40.9423 64.4604C40.7604 64.5619 40.6017 64.6771 40.4488 64.8098C39.8739 65.3134 39.5468 66.022 39.4346 66.7754C39.3804 67.1424 39.3785 67.5191 39.4501 67.8841C40.3617 72.4537 46.7099 70.6911 46.0305 66.7989V66.7969ZM44.0448 68.5283C42.4326 70.3182 39.661 67.6968 41.4203 65.9185C41.7416 65.5925 42.0881 65.413 42.4287 65.3485C42.63 65.3115 42.8274 65.3134 43.019 65.3485C44.2751 65.5789 45.1906 67.2537 44.0448 68.5283Z" fill="#FFC244"/>
<path d="M37.5398 57.1776C37.5475 57.1619 37.5688 57.1288 37.5998 57.0819C37.5804 57.1131 37.5591 57.1463 37.5398 57.1776Z" fill="black"/>
<path d="M37.6133 57.0624C37.6481 57.0077 37.6965 56.9355 37.7584 56.8555C37.7081 56.9238 37.6597 56.9921 37.6133 57.0624Z" fill="black"/>
<path d="M39.5855 59.44C39.4172 60.0373 39.3785 61.0347 40.5552 61.5169C41.5887 61.9385 64.1578 59.9787 64.1578 59.9787V63.3302C64.1578 63.3302 63.8501 63.3302 63.3043 63.3341C62.9714 63.3341 62.5514 63.3341 62.0578 63.3361C61.8488 63.3361 61.6282 63.3361 61.3959 63.338C60.4011 63.34 59.1915 63.3419 57.8657 63.3459C53.5323 63.3517 47.9408 63.3595 44.4028 63.3517C42.5351 63.3498 41.2384 63.3419 41.0042 63.3283C40.5126 63.299 39.8294 63.1624 39.2236 62.7212C39.2004 62.7056 39.1772 62.688 39.1559 62.6705C38.8578 62.4421 38.583 62.1356 38.3643 61.7316C38.3624 61.7277 38.3604 61.7257 38.3604 61.7218C38.0991 61.2358 37.9172 60.6092 37.8746 59.7972C37.8727 59.7913 37.8727 59.7855 37.8727 59.7796C37.8533 59.4166 37.8804 59.0867 37.9385 58.79C38.0585 58.1829 38.3159 57.7027 38.6236 57.326C38.7785 57.1386 38.9507 56.9708 39.1404 56.8263C39.7501 56.352 40.5165 56.1041 41.3003 56.1119L54.9955 56.229L62.8901 56.2973L64.7655 49.9828L64.9494 49.3679L66.4977 44.1562L37.1063 45.1009L36.3243 41.9602H68.7602L64.1578 58.5928C64.1578 58.5928 42.9667 57.8569 41.5287 57.8569C41.2771 57.8569 41.0603 57.8921 40.8707 57.9526C40.6887 58.0112 40.532 58.0951 40.4004 58.1927C40.3926 58.1966 40.3849 58.2024 40.3771 58.2083C39.8778 58.587 39.7346 58.911 39.5855 59.44Z" fill="#FFC244"/>
<path d="M38.8811 55.8171C38.7591 55.8932 38.645 55.9732 38.5404 56.0572C38.5056 56.0845 38.4727 56.1099 38.4398 56.1391C38.4011 56.1704 38.3643 56.2016 38.3295 56.2348C38.2946 56.2641 38.2617 56.2953 38.2308 56.3246C38.225 56.3285 38.2192 56.3343 38.2153 56.3402C38.1766 56.3773 38.1379 56.4144 38.103 56.4534C38.0663 56.4885 38.0334 56.5237 38.0043 56.5588C37.9056 56.6662 37.8243 56.7677 37.7585 56.8555C37.6966 56.9355 37.6482 57.0078 37.6134 57.0624C37.6076 57.0683 37.6037 57.0761 37.5998 57.0819C37.5689 57.1288 37.5476 57.162 37.5398 57.1776C37.5359 57.1834 37.534 57.1873 37.534 57.1873L33.1135 39.649L28.2362 40.2444L27.1136 37.535L34.3812 37.6873L38.8811 55.8171Z" fill="#FFC244"/>
<path d="M39.3611 46.0398H42.1036L42.4597 54.6772H40.832L39.3611 46.0398Z" fill="#FFC244"/>
<path d="M45.2196 46.0398L45.088 54.6772H43.7758L43.3345 46.0398H45.2196Z" fill="#FFC244"/>
<path d="M46.317 54.6772V46.0398H47.5383L47.3215 54.6772H46.317Z" fill="#FFC244"/>
<path d="M51.2021 46.0398V54.6772H48.7654L48.9841 46.0398H51.2021Z" fill="#FFC244"/>
<path d="M53.3716 46.0398V54.6772H52.5626L52.7813 46.0398H53.3716Z" fill="#FFC244"/>
<path d="M56.176 46.0398V54.6772H54.4825L54.6993 46.0398H56.176Z" fill="#FFC244"/>
<path d="M58.1463 46.0398L57.9296 54.6772H57.287L57.5038 46.0398H58.1463Z" fill="#FFC244"/>
<path d="M63.3953 46.0398L61.5218 54.6772H59.5128V46.0398H63.3953Z" fill="#FFC244"/>
</g>
<path d="M100.561 48.5543C102.064 47.0378 103.888 46.2796 106.033 46.2796C107.249 46.2796 108.383 46.546 109.435 47.0788C110.5 47.598 111.395 48.3152 112.119 49.2306L109.578 51.0954C108.635 49.9751 107.454 49.415 106.033 49.415C104.776 49.415 103.69 49.8658 102.774 50.7675C101.873 51.6692 101.422 52.7554 101.422 54.0259C101.422 55.3101 101.873 56.4031 102.774 57.3048C103.676 58.2065 104.762 58.6573 106.033 58.6573C107.481 58.6573 108.656 58.0972 109.557 56.9769L112.283 58.6163C111.559 59.6137 110.65 60.3992 109.557 60.973C108.478 61.5332 107.303 61.8133 106.033 61.8133C103.888 61.8133 102.057 61.055 100.541 59.5385C99.0377 58.0084 98.2863 56.1709 98.2863 54.0259C98.2863 51.8947 99.0446 50.0708 100.561 48.5543ZM114.329 46.546H117.403V52.5709H123.162V46.546H126.236V61.5059H123.162V55.6244H117.403V61.5059H114.329V46.546ZM132.891 46.546H136.19L141.334 61.5059H137.973L136.99 58.4524H132.133L131.129 61.5059H127.747L132.891 46.546ZM136.129 55.6039L134.551 50.7266L132.973 55.6039H136.129ZM148.606 46.546C150.191 46.546 151.468 47.0173 152.438 47.96C153.408 48.889 153.893 50.0435 153.893 51.4233C153.893 52.407 153.627 53.2882 153.094 54.0669C152.575 54.8456 151.864 55.399 150.963 55.7268L154.18 61.5059H150.676L147.909 56.3416H145.921V61.5059H142.848V46.546H148.606ZM148.524 53.3292C149.207 53.3292 149.747 53.1516 150.143 52.7963C150.539 52.4275 150.737 51.9698 150.737 51.4233C150.737 50.8905 150.532 50.4465 150.123 50.0913C149.726 49.7224 149.194 49.538 148.524 49.538H145.921V53.3292H148.524ZM158.97 61.5059H155.896V46.546H158.97V61.5059ZM161.226 54.0259C161.226 51.8947 161.978 50.0708 163.48 48.5543C164.997 47.0378 166.828 46.2796 168.973 46.2796C171.117 46.2796 172.941 47.0378 174.444 48.5543C175.961 50.0708 176.719 51.8947 176.719 54.0259C176.719 56.1709 175.967 58.0016 174.465 59.518C172.948 61.0482 171.117 61.8133 168.973 61.8133C166.828 61.8133 164.997 61.055 163.48 59.5385C161.978 58.0084 161.226 56.1709 161.226 54.0259ZM165.714 57.3048C166.616 58.2065 167.702 58.6573 168.973 58.6573C170.243 58.6573 171.322 58.2065 172.21 57.3048C173.112 56.4031 173.563 55.3101 173.563 54.0259C173.563 52.7554 173.112 51.6692 172.21 50.7675C171.309 49.8658 170.229 49.415 168.973 49.415C167.716 49.415 166.629 49.8658 165.714 50.7675C164.812 51.6692 164.362 52.7554 164.362 54.0259C164.362 55.3101 164.812 56.4031 165.714 57.3048ZM178.97 46.546H182.044V52.5709H187.803V46.546H190.877V61.5059H187.803V55.6244H182.044V61.5059H178.97V46.546ZM196.774 61.5059H193.7V46.546H196.774V61.5059ZM198.969 59.3746L200.874 57.4278C201.954 58.4797 203.149 59.0057 204.461 59.0057C205.158 59.0057 205.711 58.8554 206.121 58.5549C206.544 58.2543 206.756 57.8444 206.756 57.3253C206.756 56.9428 206.619 56.6149 206.346 56.3416C206.073 56.0684 205.711 55.843 205.26 55.6654C204.823 55.4741 204.338 55.2965 203.805 55.1325C203.286 54.9549 202.76 54.75 202.227 54.5178C201.694 54.2718 201.202 53.9918 200.752 53.6775C200.314 53.3633 199.959 52.9398 199.686 52.407C199.413 51.8605 199.276 51.232 199.276 50.5216C199.276 49.2647 199.727 48.2469 200.629 47.4682C201.544 46.6758 202.767 46.2796 204.297 46.2796C205.212 46.2796 206.121 46.4777 207.022 46.8739C207.924 47.2701 208.696 47.878 209.338 48.6977L207.207 50.3987C206.893 49.9888 206.476 49.6678 205.957 49.4355C205.438 49.1896 204.918 49.0598 204.399 49.0461C203.757 49.0461 203.238 49.1827 202.842 49.456C202.446 49.7292 202.248 50.0708 202.248 50.4806C202.248 50.8632 202.432 51.1979 202.801 51.4848C203.17 51.758 203.627 51.9766 204.174 52.1406C204.734 52.3045 205.335 52.5163 205.977 52.7759C206.633 53.0218 207.234 53.3018 207.781 53.6161C208.341 53.9166 208.805 54.3743 209.174 54.9891C209.543 55.5902 209.727 56.3075 209.727 57.1409C209.727 58.5344 209.249 59.6615 208.293 60.5222C207.337 61.3692 206.08 61.7928 204.522 61.7928C204.495 61.7928 204.468 61.7928 204.44 61.7928C202.227 61.7928 200.403 60.9867 198.969 59.3746ZM215.783 46.546H219.083L224.227 61.5059H220.866L219.882 58.4524H215.025L214.021 61.5059H210.64L215.783 46.546ZM219.021 55.6039L217.443 50.7266L215.865 55.6039H219.021ZM225.74 46.546H231.273C232.68 46.546 233.835 46.908 234.736 47.6321C235.652 48.3425 236.109 49.292 236.109 50.4806C236.109 51.7102 235.597 52.7007 234.572 53.4521C235.297 53.7663 235.87 54.2377 236.294 54.8661C236.717 55.4809 236.929 56.2118 236.929 57.0589C236.929 58.3568 236.458 59.4224 235.515 60.2558C234.572 61.0892 233.357 61.5059 231.867 61.5059H225.74V46.546ZM228.814 58.5549H231.765C232.393 58.5549 232.885 58.3978 233.24 58.0835C233.596 57.7693 233.773 57.3526 233.773 56.8335C233.773 56.3143 233.589 55.8976 233.22 55.5834C232.851 55.2692 232.393 55.1121 231.847 55.1121H228.814V58.5549ZM228.814 52.4685L231.417 52.448C231.922 52.4206 232.325 52.2704 232.626 51.9971C232.94 51.7102 233.097 51.355 233.097 50.9315C233.097 50.467 232.926 50.0844 232.585 49.7839C232.257 49.4833 231.799 49.333 231.212 49.333H228.814V52.4685Z" fill="white"/>
<path d="M123.176 891.818C124.643 890.352 126.423 889.618 128.516 889.618C130.596 889.618 132.369 890.358 133.836 891.838C135.303 893.305 136.036 895.072 136.036 897.138C136.036 899.232 135.303 901.018 133.836 902.498C132.369 903.965 130.596 904.698 128.516 904.698C126.423 904.698 124.643 903.965 123.176 902.498C121.709 901.018 120.976 899.232 120.976 897.138C120.976 895.072 121.709 893.298 123.176 891.818ZM122.196 897.138C122.196 898.872 122.816 900.365 124.056 901.618C125.296 902.858 126.783 903.478 128.516 903.478C130.223 903.478 131.696 902.858 132.936 901.618C134.176 900.365 134.796 898.872 134.796 897.138C134.796 895.418 134.176 893.938 132.936 892.698C131.696 891.458 130.223 890.838 128.516 890.838C126.783 890.838 125.296 891.458 124.056 892.698C122.816 893.938 122.196 895.418 122.196 897.138ZM124.416 897.158C124.416 896.025 124.816 895.058 125.616 894.258C126.429 893.458 127.403 893.058 128.536 893.058C129.203 893.058 129.823 893.205 130.396 893.498C130.969 893.792 131.436 894.192 131.796 894.698L130.456 895.738C129.963 895.112 129.323 894.798 128.536 894.798C127.883 894.798 127.329 895.032 126.876 895.498C126.423 895.952 126.196 896.505 126.196 897.158C126.196 897.798 126.423 898.352 126.876 898.818C127.329 899.272 127.883 899.498 128.536 899.498C129.363 899.498 130.009 899.165 130.476 898.498L131.876 899.558C131.036 900.678 129.923 901.238 128.536 901.238C127.403 901.238 126.429 900.838 125.616 900.038C124.816 899.238 124.416 898.278 124.416 897.158Z" fill="#E0E0E0"/>
<path d="M140.054 897.376C140.054 896.469 140.236 895.68 140.598 895.008C140.961 894.325 141.462 893.797 142.102 893.424C142.753 893.05 143.494 892.864 144.326 892.864C145.404 892.864 146.289 893.125 146.982 893.648C147.686 894.17 148.15 894.896 148.374 895.824H146.806C146.657 895.29 146.364 894.869 145.926 894.56C145.5 894.25 144.966 894.096 144.326 894.096C143.494 894.096 142.822 894.384 142.31 894.96C141.798 895.525 141.542 896.33 141.542 897.376C141.542 898.432 141.798 899.248 142.31 899.824C142.822 900.4 143.494 900.688 144.326 900.688C144.966 900.688 145.5 900.538 145.926 900.24C146.353 899.941 146.646 899.514 146.806 898.96H148.374C148.14 899.856 147.67 900.576 146.966 901.12C146.262 901.653 145.382 901.92 144.326 901.92C143.494 901.92 142.753 901.733 142.102 901.36C141.462 900.986 140.961 900.458 140.598 899.776C140.236 899.093 140.054 898.293 140.054 897.376ZM154.669 892.848C155.33 892.848 155.928 892.992 156.461 893.28C156.994 893.557 157.41 893.978 157.709 894.544C158.018 895.109 158.173 895.797 158.173 896.608V901.776H156.733V896.816C156.733 895.941 156.514 895.274 156.077 894.816C155.64 894.346 155.042 894.112 154.285 894.112C153.517 894.112 152.904 894.352 152.445 894.832C151.997 895.312 151.773 896.01 151.773 896.928V901.776H150.317V889.936H151.773V894.256C152.061 893.808 152.456 893.461 152.957 893.216C153.469 892.97 154.04 892.848 154.669 892.848ZM160.007 897.36C160.007 896.464 160.189 895.68 160.551 895.008C160.914 894.325 161.41 893.797 162.039 893.424C162.679 893.05 163.389 892.864 164.167 892.864C164.935 892.864 165.602 893.029 166.167 893.36C166.733 893.69 167.154 894.106 167.431 894.608V893.008H168.903V901.776H167.431V900.144C167.143 900.656 166.711 901.082 166.135 901.424C165.57 901.754 164.909 901.92 164.151 901.92C163.373 901.92 162.669 901.728 162.039 901.344C161.41 900.96 160.914 900.421 160.551 899.728C160.189 899.034 160.007 898.245 160.007 897.36ZM167.431 897.376C167.431 896.714 167.298 896.138 167.031 895.648C166.765 895.157 166.402 894.784 165.943 894.528C165.495 894.261 164.999 894.128 164.455 894.128C163.911 894.128 163.415 894.256 162.967 894.512C162.519 894.768 162.162 895.141 161.895 895.632C161.629 896.122 161.495 896.698 161.495 897.36C161.495 898.032 161.629 898.618 161.895 899.12C162.162 899.61 162.519 899.989 162.967 900.256C163.415 900.512 163.911 900.64 164.455 900.64C164.999 900.64 165.495 900.512 165.943 900.256C166.402 899.989 166.765 899.61 167.031 899.12C167.298 898.618 167.431 898.037 167.431 897.376ZM172.82 894.432C173.076 893.93 173.439 893.541 173.908 893.264C174.388 892.986 174.969 892.848 175.652 892.848V894.352H175.268C173.636 894.352 172.82 895.237 172.82 897.008V901.776H171.364V893.008H172.82V894.432ZM178.085 891.584C177.807 891.584 177.573 891.488 177.381 891.296C177.189 891.104 177.093 890.869 177.093 890.592C177.093 890.314 177.189 890.08 177.381 889.888C177.573 889.696 177.807 889.6 178.085 889.6C178.351 889.6 178.575 889.696 178.757 889.888C178.949 890.08 179.045 890.314 179.045 890.592C179.045 890.869 178.949 891.104 178.757 891.296C178.575 891.488 178.351 891.584 178.085 891.584ZM178.789 893.008V901.776H177.333V893.008H178.789ZM185.094 901.92C184.273 901.92 183.526 901.733 182.854 901.36C182.193 900.986 181.67 900.458 181.286 899.776C180.913 899.082 180.726 898.282 180.726 897.376C180.726 896.48 180.918 895.69 181.302 895.008C181.697 894.314 182.23 893.786 182.902 893.424C183.574 893.05 184.326 892.864 185.158 892.864C185.99 892.864 186.742 893.05 187.414 893.424C188.086 893.786 188.614 894.309 188.998 894.992C189.393 895.674 189.59 896.469 189.59 897.376C189.59 898.282 189.387 899.082 188.982 899.776C188.587 900.458 188.049 900.986 187.366 901.36C186.683 901.733 185.926 901.92 185.094 901.92ZM185.094 900.64C185.617 900.64 186.107 900.517 186.566 900.272C187.025 900.026 187.393 899.658 187.67 899.168C187.958 898.677 188.102 898.08 188.102 897.376C188.102 896.672 187.963 896.074 187.686 895.584C187.409 895.093 187.046 894.73 186.598 894.496C186.15 894.25 185.665 894.128 185.142 894.128C184.609 894.128 184.118 894.25 183.67 894.496C183.233 894.73 182.881 895.093 182.614 895.584C182.347 896.074 182.214 896.672 182.214 897.376C182.214 898.09 182.342 898.693 182.598 899.184C182.865 899.674 183.217 900.042 183.654 900.288C184.091 900.522 184.571 900.64 185.094 900.64ZM195.856 892.848C196.518 892.848 197.115 892.992 197.648 893.28C198.182 893.557 198.598 893.978 198.896 894.544C199.206 895.109 199.36 895.797 199.36 896.608V901.776H197.92V896.816C197.92 895.941 197.702 895.274 197.264 894.816C196.827 894.346 196.23 894.112 195.472 894.112C194.704 894.112 194.091 894.352 193.632 894.832C193.184 895.312 192.96 896.01 192.96 896.928V901.776H191.504V889.936H192.96V894.256C193.248 893.808 193.643 893.461 194.144 893.216C194.656 892.97 195.227 892.848 195.856 892.848ZM202.491 891.584C202.214 891.584 201.979 891.488 201.787 891.296C201.595 891.104 201.499 890.869 201.499 890.592C201.499 890.314 201.595 890.08 201.787 889.888C201.979 889.696 202.214 889.6 202.491 889.6C202.758 889.6 202.982 889.696 203.163 889.888C203.355 890.08 203.451 890.314 203.451 890.592C203.451 890.869 203.355 891.104 203.163 891.296C202.982 891.488 202.758 891.584 202.491 891.584ZM203.195 893.008V901.776H201.739V893.008H203.195ZM208.78 901.92C208.108 901.92 207.506 901.808 206.972 901.584C206.439 901.349 206.018 901.029 205.708 900.624C205.399 900.208 205.228 899.733 205.196 899.2H206.7C206.743 899.637 206.946 899.994 207.308 900.272C207.682 900.549 208.167 900.688 208.764 900.688C209.319 900.688 209.756 900.565 210.076 900.32C210.396 900.074 210.556 899.765 210.556 899.392C210.556 899.008 210.386 898.725 210.044 898.544C209.703 898.352 209.175 898.165 208.46 897.984C207.81 897.813 207.276 897.642 206.86 897.472C206.455 897.29 206.103 897.029 205.804 896.688C205.516 896.336 205.372 895.877 205.372 895.312C205.372 894.864 205.506 894.453 205.772 894.08C206.039 893.706 206.418 893.413 206.908 893.2C207.399 892.976 207.959 892.864 208.588 892.864C209.559 892.864 210.343 893.109 210.94 893.6C211.538 894.09 211.858 894.762 211.9 895.616H210.444C210.412 895.157 210.226 894.789 209.884 894.512C209.554 894.234 209.106 894.096 208.54 894.096C208.018 894.096 207.602 894.208 207.292 894.432C206.983 894.656 206.828 894.949 206.828 895.312C206.828 895.6 206.919 895.84 207.1 896.032C207.292 896.213 207.527 896.362 207.804 896.48C208.092 896.586 208.487 896.709 208.988 896.848C209.618 897.018 210.13 897.189 210.524 897.36C210.919 897.52 211.255 897.765 211.532 898.096C211.82 898.426 211.97 898.858 211.98 899.392C211.98 899.872 211.847 900.304 211.58 900.688C211.314 901.072 210.935 901.376 210.444 901.6C209.964 901.813 209.41 901.92 208.78 901.92ZM213.492 897.36C213.492 896.464 213.673 895.68 214.036 895.008C214.398 894.325 214.894 893.797 215.524 893.424C216.164 893.05 216.873 892.864 217.652 892.864C218.42 892.864 219.086 893.029 219.652 893.36C220.217 893.69 220.638 894.106 220.916 894.608V893.008H222.388V901.776H220.916V900.144C220.628 900.656 220.196 901.082 219.62 901.424C219.054 901.754 218.393 901.92 217.636 901.92C216.857 901.92 216.153 901.728 215.524 901.344C214.894 900.96 214.398 900.421 214.036 899.728C213.673 899.034 213.492 898.245 213.492 897.36ZM220.916 897.376C220.916 896.714 220.782 896.138 220.516 895.648C220.249 895.157 219.886 894.784 219.428 894.528C218.98 894.261 218.484 894.128 217.94 894.128C217.396 894.128 216.9 894.256 216.452 894.512C216.004 894.768 215.646 895.141 215.38 895.632C215.113 896.122 214.98 896.698 214.98 897.36C214.98 898.032 215.113 898.618 215.38 899.12C215.646 899.61 216.004 899.989 216.452 900.256C216.9 900.512 217.396 900.64 217.94 900.64C218.484 900.64 218.98 900.512 219.428 900.256C219.886 899.989 220.249 899.61 220.516 899.12C220.782 898.618 220.916 898.037 220.916 897.376ZM226.304 894.64C226.603 894.117 227.04 893.69 227.616 893.36C228.192 893.029 228.848 892.864 229.584 892.864C230.374 892.864 231.083 893.05 231.712 893.424C232.342 893.797 232.838 894.325 233.2 895.008C233.563 895.68 233.744 896.464 233.744 897.36C233.744 898.245 233.563 899.034 233.2 899.728C232.838 900.421 232.336 900.96 231.696 901.344C231.067 901.728 230.363 901.92 229.584 901.92C228.827 901.92 228.16 901.754 227.584 901.424C227.019 901.093 226.592 900.672 226.304 900.16V901.776H224.848V889.936H226.304V894.64ZM232.256 897.36C232.256 896.698 232.123 896.122 231.856 895.632C231.59 895.141 231.227 894.768 230.768 894.512C230.32 894.256 229.824 894.128 229.28 894.128C228.747 894.128 228.251 894.261 227.792 894.528C227.344 894.784 226.982 895.162 226.704 895.664C226.438 896.154 226.304 896.725 226.304 897.376C226.304 898.037 226.438 898.618 226.704 899.12C226.982 899.61 227.344 899.989 227.792 900.256C228.251 900.512 228.747 900.64 229.28 900.64C229.824 900.64 230.32 900.512 230.768 900.256C231.227 899.989 231.59 899.61 231.856 899.12C232.123 898.618 232.256 898.032 232.256 897.36Z" fill="#E0E0E0"/>
<path d="M355.409 100.396C309.538 115.207 172.498 138.783 -0.56834 112.263" stroke="url(#paint0_linear_60_1054)"/>
<line x1="354" y1="863.505" x2="0.00488277" y2="863.505" stroke="#EFEFEF"/>
</g>
<defs>
<filter id="filter0_d_60_1054" x="13.0705" y="16.0764" width="75.8589" height="75.8589" filterUnits="userSpaceOnUse" color-interpolation-filters="sRGB">
<feFlood flood-opacity="0" result="BackgroundImageFix"/>
<feColorMatrix in="SourceAlpha" type="matrix" values="0 0 0 0 0 0 0 0 0 0 0 0 0 0 0 0 0 0 127 0" result="hardAlpha"/>
<feOffset/>
<feGaussianBlur stdDeviation="3.46474"/>
<feComposite in2="hardAlpha" operator="out"/>
<feColorMatrix type="matrix" values="0 0 0 0 0 0 0 0 0 0 0 0 0 0 0 0 0 0 0.1 0"/>
<feBlend mode="normal" in2="BackgroundImageFix" result="effect1_dropShadow_60_1054"/>
<feBlend mode="normal" in="SourceGraphic" in2="effect1_dropShadow_60_1054" result="shape"/>
</filter>
<linearGradient id="paint0_linear_60_1054" x1="0.231513" y1="112.508" x2="352.447" y2="94.1082" gradientUnits="userSpaceOnUse">
<stop stop-color="#FFC244"/>
<stop offset="1" stop-color="#FFFAEE"/>
</linearGradient>
<clipPath id="clip0_60_1054">
<rect width="354" height="932" fill="white"/>
</clipPath>
<clipPath id="clip1_60_1054">
<rect width="41.6466" height="33.0662" fill="white" transform="translate(27.1136 37.535)"/>
</clipPath>
</defs>
</svg>
