<svg width="111" height="206" viewBox="0 0 111 206" fill="none" xmlns="http://www.w3.org/2000/svg">
<rect x="0.5" y="0.5" width="109.847" height="204.115" rx="4.5" stroke="#9747FF" stroke-dasharray="10 5"/>
<g filter="url(#filter0_d_37_1232)">
<circle cx="55.4237" cy="55.4237" r="35.4237" fill="#FFC244"/>
</g>
<path d="M58.9337 55.7041H51.4337M55.1837 51.9541V59.4541M36.1737 40.7041H42.4237L43.0812 46.9541M43.0812 46.9541L44.6887 62.2166C44.7535 62.8306 45.0433 63.3989 45.5021 63.812C45.9609 64.2251 46.5563 64.4538 47.1737 64.4541H62.9737C63.531 64.4541 64.0724 64.2678 64.5117 63.925C64.9511 63.5821 65.2633 63.1022 65.3987 62.5616L68.5237 50.0616C68.616 49.693 68.6231 49.3082 68.5444 48.9364C68.4657 48.5646 68.3033 48.2157 68.0695 47.9161C67.8357 47.6165 67.5367 47.3741 67.1952 47.2074C66.8537 47.0408 66.4787 46.9541 66.0987 46.9541H43.0812ZM62.2887 73.2041C61.9572 73.2041 61.6392 73.0724 61.4048 72.838C61.1704 72.6036 61.0387 72.2856 61.0387 71.9541C61.0387 71.6226 61.1704 71.3046 61.4048 71.0702C61.6392 70.8358 61.9572 70.7041 62.2887 70.7041C62.6202 70.7041 62.9382 70.8358 63.1726 71.0702C63.407 71.3046 63.5387 71.6226 63.5387 71.9541C63.5387 72.2856 63.407 72.6036 63.1726 72.838C62.9382 73.0724 62.6202 73.2041 62.2887 73.2041ZM46.0387 73.2041C45.7072 73.2041 45.3892 73.0724 45.1548 72.838C44.9204 72.6036 44.7887 72.2856 44.7887 71.9541C44.7887 71.6226 44.9204 71.3046 45.1548 71.0702C45.3892 70.8358 45.7072 70.7041 46.0387 70.7041C46.3702 70.7041 46.6882 70.8358 46.9226 71.0702C47.157 71.3046 47.2887 71.6226 47.2887 71.9541C47.2887 72.2856 47.157 72.6036 46.9226 72.838C46.6882 73.0724 46.3702 73.2041 46.0387 73.2041Z" stroke="white" stroke-width="2.84086" stroke-linecap="round" stroke-linejoin="round"/>
<g filter="url(#filter1_d_37_1232)">
<circle cx="55.4237" cy="149.692" r="35.4237" fill="#F4AC15"/>
</g>
<path d="M58.9337 149.972H51.4337M55.1837 146.222V153.722M36.1737 134.972H42.4237L43.0812 141.222M43.0812 141.222L44.6887 156.485C44.7535 157.099 45.0433 157.667 45.5021 158.08C45.9609 158.493 46.5563 158.722 47.1737 158.722H62.9737C63.531 158.722 64.0724 158.536 64.5117 158.193C64.9511 157.85 65.2633 157.37 65.3987 156.83L68.5237 144.33C68.616 143.961 68.6231 143.576 68.5444 143.204C68.4657 142.833 68.3033 142.484 68.0695 142.184C67.8357 141.885 67.5367 141.642 67.1952 141.476C66.8537 141.309 66.4787 141.222 66.0987 141.222H43.0812ZM62.2887 167.472C61.9572 167.472 61.6392 167.34 61.4048 167.106C61.1704 166.872 61.0387 166.554 61.0387 166.222C61.0387 165.891 61.1704 165.573 61.4048 165.338C61.6392 165.104 61.9572 164.972 62.2887 164.972C62.6202 164.972 62.9382 165.104 63.1726 165.338C63.407 165.573 63.5387 165.891 63.5387 166.222C63.5387 166.554 63.407 166.872 63.1726 167.106C62.9382 167.34 62.6202 167.472 62.2887 167.472ZM46.0387 167.472C45.7072 167.472 45.3892 167.34 45.1548 167.106C44.9204 166.872 44.7887 166.554 44.7887 166.222C44.7887 165.891 44.9204 165.573 45.1548 165.338C45.3892 165.104 45.7072 164.972 46.0387 164.972C46.3702 164.972 46.6882 165.104 46.9226 165.338C47.157 165.573 47.2887 165.891 47.2887 166.222C47.2887 166.554 47.157 166.872 46.9226 167.106C46.6882 167.34 46.3702 167.472 46.0387 167.472Z" stroke="white" stroke-width="2.84086" stroke-linecap="round" stroke-linejoin="round"/>
<defs>
<filter id="filter0_d_37_1232" x="18.4941" y="19.2471" width="73.8591" height="73.8591" filterUnits="userSpaceOnUse" color-interpolation-filters="sRGB">
<feFlood flood-opacity="0" result="BackgroundImageFix"/>
<feColorMatrix in="SourceAlpha" type="matrix" values="0 0 0 0 0 0 0 0 0 0 0 0 0 0 0 0 0 0 127 0" result="hardAlpha"/>
<feOffset dy="0.752932"/>
<feGaussianBlur stdDeviation="0.752932"/>
<feComposite in2="hardAlpha" operator="out"/>
<feColorMatrix type="matrix" values="0 0 0 0 0 0 0 0 0 0 0 0 0 0 0 0 0 0 0.2 0"/>
<feBlend mode="normal" in2="BackgroundImageFix" result="effect1_dropShadow_37_1232"/>
<feBlend mode="normal" in="SourceGraphic" in2="effect1_dropShadow_37_1232" result="shape"/>
</filter>
<filter id="filter1_d_37_1232" x="18.4941" y="113.515" width="73.8591" height="73.8591" filterUnits="userSpaceOnUse" color-interpolation-filters="sRGB">
<feFlood flood-opacity="0" result="BackgroundImageFix"/>
<feColorMatrix in="SourceAlpha" type="matrix" values="0 0 0 0 0 0 0 0 0 0 0 0 0 0 0 0 0 0 127 0" result="hardAlpha"/>
<feOffset dy="0.752932"/>
<feGaussianBlur stdDeviation="0.752932"/>
<feComposite in2="hardAlpha" operator="out"/>
<feColorMatrix type="matrix" values="0 0 0 0 0 0 0 0 0 0 0 0 0 0 0 0 0 0 0.2 0"/>
<feBlend mode="normal" in2="BackgroundImageFix" result="effect1_dropShadow_37_1232"/>
<feBlend mode="normal" in="SourceGraphic" in2="effect1_dropShadow_37_1232" result="shape"/>
</filter>
</defs>
</svg>
