<svg width="390" height="248" viewBox="0 0 390 248" fill="none" xmlns="http://www.w3.org/2000/svg">
<rect x="0.5" y="0.5" width="388.247" height="247" rx="4.5" stroke="#9747FF" stroke-dasharray="10 5"/>
<rect x="20" y="20" width="349.247" height="56" rx="28" fill="white"/>
<rect x="20" y="20" width="349.247" height="56" rx="28" stroke="#505050"/>
<path d="M54 38V40M42 38V40" stroke="black" stroke-width="1.5" stroke-linecap="round" stroke-linejoin="round"/>
<path d="M38.5 48.2432C38.5 43.8859 38.5 41.7073 39.7521 40.3536C41.0042 39 43.0195 39 47.05 39H48.95C52.9805 39 54.9958 39 56.2479 40.3536C57.5 41.7073 57.5 43.8859 57.5 48.2432V48.7568C57.5 53.1141 57.5 55.2927 56.2479 56.6464C54.9958 58 52.9805 58 48.95 58H47.05C43.0195 58 41.0042 58 39.7521 56.6464C38.5 55.2927 38.5 53.1141 38.5 48.7568V48.2432Z" stroke="black" stroke-width="1.5" stroke-linecap="round" stroke-linejoin="round"/>
<path d="M39 44H57" stroke="black" stroke-width="1.5" stroke-linecap="round" stroke-linejoin="round"/>
<path d="M76.846 50.83H72.59L71.806 53H70.462L73.99 43.298H75.46L78.974 53H77.63L76.846 50.83ZM76.482 49.794L74.718 44.866L72.954 49.794H76.482ZM83.6756 45.202C84.3383 45.202 84.9169 45.3467 85.4116 45.636C85.9156 45.9253 86.2889 46.2893 86.5316 46.728V45.328H87.8196V53.168C87.8196 53.868 87.6703 54.4887 87.3716 55.03C87.0729 55.5807 86.6436 56.01 86.0836 56.318C85.5329 56.626 84.8889 56.78 84.1516 56.78C83.1436 56.78 82.3036 56.542 81.6316 56.066C80.9596 55.59 80.5629 54.9413 80.4416 54.12H81.7016C81.8416 54.5867 82.1309 54.96 82.5696 55.24C83.0083 55.5293 83.5356 55.674 84.1516 55.674C84.8516 55.674 85.4209 55.4547 85.8596 55.016C86.3076 54.5773 86.5316 53.9613 86.5316 53.168V51.558C86.2796 52.006 85.9063 52.3793 85.4116 52.678C84.9169 52.9767 84.3383 53.126 83.6756 53.126C82.9943 53.126 82.3736 52.958 81.8136 52.622C81.2629 52.286 80.8289 51.8147 80.5116 51.208C80.1943 50.6013 80.0356 49.9107 80.0356 49.136C80.0356 48.352 80.1943 47.666 80.5116 47.078C80.8289 46.4807 81.2629 46.0187 81.8136 45.692C82.3736 45.3653 82.9943 45.202 83.6756 45.202ZM86.5316 49.15C86.5316 48.5713 86.4149 48.0673 86.1816 47.638C85.9483 47.2087 85.6309 46.882 85.2296 46.658C84.8376 46.4247 84.4036 46.308 83.9276 46.308C83.4516 46.308 83.0176 46.42 82.6256 46.644C82.2336 46.868 81.9209 47.1947 81.6876 47.624C81.4543 48.0533 81.3376 48.5573 81.3376 49.136C81.3376 49.724 81.4543 50.2373 81.6876 50.676C81.9209 51.1053 82.2336 51.4367 82.6256 51.67C83.0176 51.894 83.4516 52.006 83.9276 52.006C84.4036 52.006 84.8376 51.894 85.2296 51.67C85.6309 51.4367 85.9483 51.1053 86.1816 50.676C86.4149 50.2373 86.5316 49.7287 86.5316 49.15ZM96.9725 48.87C96.9725 49.1127 96.9585 49.3693 96.9305 49.64H90.7985C90.8452 50.396 91.1019 50.9887 91.5685 51.418C92.0445 51.838 92.6185 52.048 93.2905 52.048C93.8412 52.048 94.2985 51.922 94.6625 51.67C95.0359 51.4087 95.2972 51.0633 95.4465 50.634H96.8185C96.6132 51.3713 96.2025 51.9733 95.5865 52.44C94.9705 52.8973 94.2052 53.126 93.2905 53.126C92.5625 53.126 91.9092 52.9627 91.3305 52.636C90.7612 52.3093 90.3132 51.8473 89.9865 51.25C89.6599 50.6433 89.4965 49.9433 89.4965 49.15C89.4965 48.3567 89.6552 47.6613 89.9725 47.064C90.2899 46.4667 90.7332 46.0093 91.3025 45.692C91.8812 45.3653 92.5439 45.202 93.2905 45.202C94.0185 45.202 94.6625 45.3607 95.2225 45.678C95.7825 45.9953 96.2119 46.434 96.5105 46.994C96.8185 47.5447 96.9725 48.17 96.9725 48.87ZM95.6565 48.604C95.6565 48.1187 95.5492 47.7033 95.3345 47.358C95.1199 47.0033 94.8259 46.7373 94.4525 46.56C94.0885 46.3733 93.6825 46.28 93.2345 46.28C92.5905 46.28 92.0399 46.4853 91.5825 46.896C91.1345 47.3067 90.8779 47.876 90.8125 48.604H95.6565Z" fill="#A7A7A7"/>
<rect x="20" y="96" width="349.247" height="56" rx="28" fill="white"/>
<rect x="20" y="96" width="349.247" height="56" rx="28" stroke="#FFC244" stroke-width="2"/>
<path d="M54 114V116M42 114V116" stroke="#FFC244" stroke-width="1.5" stroke-linecap="round" stroke-linejoin="round"/>
<path d="M38.5 124.243C38.5 119.886 38.5 117.707 39.7521 116.354C41.0042 115 43.0195 115 47.05 115H48.95C52.9805 115 54.9958 115 56.2479 116.354C57.5 117.707 57.5 119.886 57.5 124.243V124.757C57.5 129.114 57.5 131.293 56.2479 132.646C54.9958 134 52.9805 134 48.95 134H47.05C43.0195 134 41.0042 134 39.7521 132.646C38.5 131.293 38.5 129.114 38.5 124.757V124.243Z" stroke="#FFC244" stroke-width="1.5" stroke-linecap="round" stroke-linejoin="round"/>
<path d="M39 120H57" stroke="#FFC244" stroke-width="1.5" stroke-linecap="round" stroke-linejoin="round"/>
<path d="M76.846 126.83H72.59L71.806 129H70.462L73.99 119.298H75.46L78.974 129H77.63L76.846 126.83ZM76.482 125.794L74.718 120.866L72.954 125.794H76.482ZM83.6756 121.202C84.3383 121.202 84.9169 121.347 85.4116 121.636C85.9156 121.925 86.2889 122.289 86.5316 122.728V121.328H87.8196V129.168C87.8196 129.868 87.6703 130.489 87.3716 131.03C87.0729 131.581 86.6436 132.01 86.0836 132.318C85.5329 132.626 84.8889 132.78 84.1516 132.78C83.1436 132.78 82.3036 132.542 81.6316 132.066C80.9596 131.59 80.5629 130.941 80.4416 130.12H81.7016C81.8416 130.587 82.1309 130.96 82.5696 131.24C83.0083 131.529 83.5356 131.674 84.1516 131.674C84.8516 131.674 85.4209 131.455 85.8596 131.016C86.3076 130.577 86.5316 129.961 86.5316 129.168V127.558C86.2796 128.006 85.9063 128.379 85.4116 128.678C84.9169 128.977 84.3383 129.126 83.6756 129.126C82.9943 129.126 82.3736 128.958 81.8136 128.622C81.2629 128.286 80.8289 127.815 80.5116 127.208C80.1943 126.601 80.0356 125.911 80.0356 125.136C80.0356 124.352 80.1943 123.666 80.5116 123.078C80.8289 122.481 81.2629 122.019 81.8136 121.692C82.3736 121.365 82.9943 121.202 83.6756 121.202ZM86.5316 125.15C86.5316 124.571 86.4149 124.067 86.1816 123.638C85.9483 123.209 85.6309 122.882 85.2296 122.658C84.8376 122.425 84.4036 122.308 83.9276 122.308C83.4516 122.308 83.0176 122.42 82.6256 122.644C82.2336 122.868 81.9209 123.195 81.6876 123.624C81.4543 124.053 81.3376 124.557 81.3376 125.136C81.3376 125.724 81.4543 126.237 81.6876 126.676C81.9209 127.105 82.2336 127.437 82.6256 127.67C83.0176 127.894 83.4516 128.006 83.9276 128.006C84.4036 128.006 84.8376 127.894 85.2296 127.67C85.6309 127.437 85.9483 127.105 86.1816 126.676C86.4149 126.237 86.5316 125.729 86.5316 125.15ZM96.9725 124.87C96.9725 125.113 96.9585 125.369 96.9305 125.64H90.7985C90.8452 126.396 91.1019 126.989 91.5685 127.418C92.0445 127.838 92.6185 128.048 93.2905 128.048C93.8412 128.048 94.2985 127.922 94.6625 127.67C95.0359 127.409 95.2972 127.063 95.4465 126.634H96.8185C96.6132 127.371 96.2025 127.973 95.5865 128.44C94.9705 128.897 94.2052 129.126 93.2905 129.126C92.5625 129.126 91.9092 128.963 91.3305 128.636C90.7612 128.309 90.3132 127.847 89.9865 127.25C89.6599 126.643 89.4965 125.943 89.4965 125.15C89.4965 124.357 89.6552 123.661 89.9725 123.064C90.2899 122.467 90.7332 122.009 91.3025 121.692C91.8812 121.365 92.5439 121.202 93.2905 121.202C94.0185 121.202 94.6625 121.361 95.2225 121.678C95.7825 121.995 96.2119 122.434 96.5105 122.994C96.8185 123.545 96.9725 124.17 96.9725 124.87ZM95.6565 124.604C95.6565 124.119 95.5492 123.703 95.3345 123.358C95.1199 123.003 94.8259 122.737 94.4525 122.56C94.0885 122.373 93.6825 122.28 93.2345 122.28C92.5905 122.28 92.0399 122.485 91.5825 122.896C91.1345 123.307 90.8779 123.876 90.8125 124.604H95.6565Z" fill="#A7A7A7"/>
<rect x="20" y="172" width="349.247" height="56" rx="28" fill="white"/>
<rect x="20" y="172" width="349.247" height="56" rx="28" stroke="#FF0000" stroke-width="2"/>
<path d="M54 190V192M42 190V192" stroke="#FF0000" stroke-width="1.5" stroke-linecap="round" stroke-linejoin="round"/>
<path d="M38.5 200.243C38.5 195.886 38.5 193.707 39.7521 192.354C41.0042 191 43.0195 191 47.05 191H48.95C52.9805 191 54.9958 191 56.2479 192.354C57.5 193.707 57.5 195.886 57.5 200.243V200.757C57.5 205.114 57.5 207.293 56.2479 208.646C54.9958 210 52.9805 210 48.95 210H47.05C43.0195 210 41.0042 210 39.7521 208.646C38.5 207.293 38.5 205.114 38.5 200.757V200.243Z" stroke="#FF0000" stroke-width="1.5" stroke-linecap="round" stroke-linejoin="round"/>
<path d="M39 196H57" stroke="#FF0000" stroke-width="1.5" stroke-linecap="round" stroke-linejoin="round"/>
<path d="M76.846 202.83H72.59L71.806 205H70.462L73.99 195.298H75.46L78.974 205H77.63L76.846 202.83ZM76.482 201.794L74.718 196.866L72.954 201.794H76.482ZM83.6756 197.202C84.3383 197.202 84.9169 197.347 85.4116 197.636C85.9156 197.925 86.2889 198.289 86.5316 198.728V197.328H87.8196V205.168C87.8196 205.868 87.6703 206.489 87.3716 207.03C87.0729 207.581 86.6436 208.01 86.0836 208.318C85.5329 208.626 84.8889 208.78 84.1516 208.78C83.1436 208.78 82.3036 208.542 81.6316 208.066C80.9596 207.59 80.5629 206.941 80.4416 206.12H81.7016C81.8416 206.587 82.1309 206.96 82.5696 207.24C83.0083 207.529 83.5356 207.674 84.1516 207.674C84.8516 207.674 85.4209 207.455 85.8596 207.016C86.3076 206.577 86.5316 205.961 86.5316 205.168V203.558C86.2796 204.006 85.9063 204.379 85.4116 204.678C84.9169 204.977 84.3383 205.126 83.6756 205.126C82.9943 205.126 82.3736 204.958 81.8136 204.622C81.2629 204.286 80.8289 203.815 80.5116 203.208C80.1943 202.601 80.0356 201.911 80.0356 201.136C80.0356 200.352 80.1943 199.666 80.5116 199.078C80.8289 198.481 81.2629 198.019 81.8136 197.692C82.3736 197.365 82.9943 197.202 83.6756 197.202ZM86.5316 201.15C86.5316 200.571 86.4149 200.067 86.1816 199.638C85.9483 199.209 85.6309 198.882 85.2296 198.658C84.8376 198.425 84.4036 198.308 83.9276 198.308C83.4516 198.308 83.0176 198.42 82.6256 198.644C82.2336 198.868 81.9209 199.195 81.6876 199.624C81.4543 200.053 81.3376 200.557 81.3376 201.136C81.3376 201.724 81.4543 202.237 81.6876 202.676C81.9209 203.105 82.2336 203.437 82.6256 203.67C83.0176 203.894 83.4516 204.006 83.9276 204.006C84.4036 204.006 84.8376 203.894 85.2296 203.67C85.6309 203.437 85.9483 203.105 86.1816 202.676C86.4149 202.237 86.5316 201.729 86.5316 201.15ZM96.9725 200.87C96.9725 201.113 96.9585 201.369 96.9305 201.64H90.7985C90.8452 202.396 91.1019 202.989 91.5685 203.418C92.0445 203.838 92.6185 204.048 93.2905 204.048C93.8412 204.048 94.2985 203.922 94.6625 203.67C95.0359 203.409 95.2972 203.063 95.4465 202.634H96.8185C96.6132 203.371 96.2025 203.973 95.5865 204.44C94.9705 204.897 94.2052 205.126 93.2905 205.126C92.5625 205.126 91.9092 204.963 91.3305 204.636C90.7612 204.309 90.3132 203.847 89.9865 203.25C89.6599 202.643 89.4965 201.943 89.4965 201.15C89.4965 200.357 89.6552 199.661 89.9725 199.064C90.2899 198.467 90.7332 198.009 91.3025 197.692C91.8812 197.365 92.5439 197.202 93.2905 197.202C94.0185 197.202 94.6625 197.361 95.2225 197.678C95.7825 197.995 96.2119 198.434 96.5105 198.994C96.8185 199.545 96.9725 200.17 96.9725 200.87ZM95.6565 200.604C95.6565 200.119 95.5492 199.703 95.3345 199.358C95.1199 199.003 94.8259 198.737 94.4525 198.56C94.0885 198.373 93.6825 198.28 93.2345 198.28C92.5905 198.28 92.0399 198.485 91.5825 198.896C91.1345 199.307 90.8779 199.876 90.8125 200.604H95.6565Z" fill="#A7A7A7"/>
</svg>
