<svg width="390" height="248" viewBox="0 0 390 248" fill="none" xmlns="http://www.w3.org/2000/svg">
<rect x="0.876404" y="0.5" width="388.247" height="247" rx="4.5" stroke="#9747FF" stroke-dasharray="10 5"/>
<rect x="20.3764" y="20" width="349.247" height="56" rx="28" fill="white"/>
<rect x="20.3764" y="20" width="349.247" height="56" rx="28" stroke="#505050"/>
<path d="M51.8059 48.1065C53.2448 48.7857 54.4717 49.8437 55.355 51.1672C56.2383 52.4906 56.7448 54.0295 56.82 55.6189C56.8301 55.7644 56.8109 55.9106 56.7637 56.0486C56.7165 56.1867 56.6422 56.314 56.5451 56.423C56.448 56.5319 56.3302 56.6204 56.1985 56.6832C56.0667 56.746 55.9238 56.7819 55.778 56.7887C55.6322 56.7955 55.4866 56.7731 55.3496 56.7229C55.2126 56.6726 55.087 56.5955 54.9802 56.4961C54.8734 56.3966 54.7875 56.2769 54.7276 56.1438C54.6678 56.0107 54.6351 55.867 54.6315 55.7211C54.5518 54.033 53.8251 52.4404 52.6023 51.2738C51.3794 50.1073 49.7543 49.4565 48.0643 49.4565C46.3743 49.4565 44.7492 50.1073 43.5264 51.2738C42.3035 52.4404 41.5768 54.033 41.4972 55.7211C41.4775 56.0069 41.3467 56.2735 41.1328 56.4641C40.919 56.6546 40.639 56.7537 40.3529 56.7404C40.0668 56.727 39.7973 56.6021 39.6021 56.3925C39.4069 56.1829 39.3016 55.9052 39.3086 55.6189C39.3838 54.0296 39.89 52.4909 40.773 51.1674C41.6561 49.844 42.8827 48.7859 44.3213 48.1065C43.3994 47.3375 42.7368 46.3033 42.4235 45.1444C42.1103 43.9855 42.1616 42.7583 42.5705 41.6296C42.9794 40.501 43.7261 39.5257 44.709 38.8364C45.6918 38.1471 46.8631 37.7773 48.0636 37.7773C49.264 37.7773 50.4354 38.1471 51.4182 38.8364C52.4011 39.5257 53.1477 40.501 53.5567 41.6296C53.9656 42.7583 54.0169 43.9855 53.7037 45.1444C53.3904 46.3033 52.7278 47.3375 51.8059 48.1065ZM51.7168 43.6168C51.7168 42.6481 51.332 41.7191 50.647 41.0341C49.962 40.3492 49.033 39.9644 48.0643 39.9644C47.0956 39.9644 46.1666 40.3492 45.4816 41.0341C44.7967 41.7191 44.4119 42.6481 44.4119 43.6168C44.4119 44.5855 44.7967 45.5146 45.4816 46.1995C46.1666 46.8845 47.0956 47.2693 48.0643 47.2693C49.033 47.2693 49.962 46.8845 50.647 46.1995C51.332 45.5146 51.7168 44.5855 51.7168 43.6168Z" fill="black"/>
<path d="M78.5022 53H77.2282L72.1042 45.23V53H70.8302V43.228H72.1042L77.2282 50.984V43.228H78.5022V53ZM84.02 53.126C83.3013 53.126 82.648 52.9627 82.06 52.636C81.4813 52.3093 81.024 51.8473 80.688 51.25C80.3613 50.6433 80.198 49.9433 80.198 49.15C80.198 48.366 80.366 47.6753 80.702 47.078C81.0473 46.4713 81.514 46.0093 82.102 45.692C82.69 45.3653 83.348 45.202 84.076 45.202C84.804 45.202 85.462 45.3653 86.05 45.692C86.638 46.0093 87.1 46.4667 87.436 47.064C87.7813 47.6613 87.954 48.3567 87.954 49.15C87.954 49.9433 87.7766 50.6433 87.422 51.25C87.0766 51.8473 86.6053 52.3093 86.008 52.636C85.4106 52.9627 84.748 53.126 84.02 53.126ZM84.02 52.006C84.4773 52.006 84.9066 51.8987 85.308 51.684C85.7093 51.4693 86.0313 51.1473 86.274 50.718C86.526 50.2887 86.652 49.766 86.652 49.15C86.652 48.534 86.5306 48.0113 86.288 47.582C86.0453 47.1527 85.728 46.8353 85.336 46.63C84.944 46.4153 84.5193 46.308 84.062 46.308C83.5953 46.308 83.166 46.4153 82.774 46.63C82.3913 46.8353 82.0833 47.1527 81.85 47.582C81.6166 48.0113 81.5 48.534 81.5 49.15C81.5 49.7753 81.612 50.3027 81.836 50.732C82.0693 51.1613 82.3773 51.4833 82.76 51.698C83.1426 51.9033 83.5626 52.006 84.02 52.006ZM98.855 45.188C99.4524 45.188 99.9844 45.314 100.451 45.566C100.918 45.8087 101.286 46.1773 101.557 46.672C101.828 47.1667 101.963 47.7687 101.963 48.478V53H100.703V48.66C100.703 47.8947 100.512 47.3113 100.129 46.91C99.7557 46.4993 99.247 46.294 98.603 46.294C97.9404 46.294 97.413 46.5087 97.021 46.938C96.629 47.358 96.433 47.9693 96.433 48.772V53H95.173V48.66C95.173 47.8947 94.9817 47.3113 94.599 46.91C94.2257 46.4993 93.717 46.294 93.073 46.294C92.4104 46.294 91.883 46.5087 91.491 46.938C91.099 47.358 90.903 47.9693 90.903 48.772V53H89.629V45.328H90.903V46.434C91.155 46.0327 91.491 45.7247 91.911 45.51C92.3404 45.2953 92.8117 45.188 93.325 45.188C93.969 45.188 94.5384 45.3327 95.033 45.622C95.5277 45.9113 95.8964 46.336 96.139 46.896C96.3537 46.3547 96.7084 45.9347 97.203 45.636C97.6977 45.3373 98.2484 45.188 98.855 45.188Z" fill="#A7A7A7"/>
<rect x="20.3764" y="96" width="349.247" height="56" rx="28" fill="white"/>
<rect x="20.3764" y="96" width="349.247" height="56" rx="28" stroke="#FFC244" stroke-width="2"/>
<path d="M51.8059 124.106C53.2448 124.786 54.4717 125.844 55.355 127.167C56.2383 128.491 56.7448 130.029 56.82 131.619C56.8301 131.764 56.8109 131.911 56.7637 132.049C56.7165 132.187 56.6422 132.314 56.5451 132.423C56.448 132.532 56.3302 132.62 56.1985 132.683C56.0667 132.746 55.9238 132.782 55.778 132.789C55.6322 132.796 55.4866 132.773 55.3496 132.723C55.2126 132.673 55.087 132.596 54.9802 132.496C54.8734 132.397 54.7875 132.277 54.7276 132.144C54.6678 132.011 54.6351 131.867 54.6315 131.721C54.5518 130.033 53.8251 128.44 52.6023 127.274C51.3794 126.107 49.7543 125.457 48.0643 125.457C46.3743 125.457 44.7492 126.107 43.5264 127.274C42.3035 128.44 41.5768 130.033 41.4972 131.721C41.4775 132.007 41.3467 132.274 41.1328 132.464C40.919 132.655 40.639 132.754 40.3529 132.74C40.0668 132.727 39.7973 132.602 39.6021 132.393C39.4069 132.183 39.3016 131.905 39.3086 131.619C39.3838 130.03 39.89 128.491 40.773 127.167C41.6561 125.844 42.8827 124.786 44.3213 124.106C43.3994 123.338 42.7368 122.303 42.4235 121.144C42.1103 119.986 42.1616 118.758 42.5705 117.63C42.9794 116.501 43.7261 115.526 44.709 114.836C45.6918 114.147 46.8631 113.777 48.0636 113.777C49.264 113.777 50.4354 114.147 51.4182 114.836C52.4011 115.526 53.1477 116.501 53.5567 117.63C53.9656 118.758 54.0169 119.986 53.7037 121.144C53.3904 122.303 52.7278 123.338 51.8059 124.106ZM51.7168 119.617C51.7168 118.648 51.332 117.719 50.647 117.034C49.962 116.349 49.033 115.964 48.0643 115.964C47.0956 115.964 46.1666 116.349 45.4816 117.034C44.7967 117.719 44.4119 118.648 44.4119 119.617C44.4119 120.586 44.7967 121.515 45.4816 122.2C46.1666 122.884 47.0956 123.269 48.0643 123.269C49.033 123.269 49.962 122.884 50.647 122.2C51.332 121.515 51.7168 120.586 51.7168 119.617Z" fill="#FFC244"/>
<path d="M78.5022 129H77.2282L72.1042 121.23V129H70.8302V119.228H72.1042L77.2282 126.984V119.228H78.5022V129ZM84.02 129.126C83.3013 129.126 82.648 128.963 82.06 128.636C81.4813 128.309 81.024 127.847 80.688 127.25C80.3613 126.643 80.198 125.943 80.198 125.15C80.198 124.366 80.366 123.675 80.702 123.078C81.0473 122.471 81.514 122.009 82.102 121.692C82.69 121.365 83.348 121.202 84.076 121.202C84.804 121.202 85.462 121.365 86.05 121.692C86.638 122.009 87.1 122.467 87.436 123.064C87.7813 123.661 87.954 124.357 87.954 125.15C87.954 125.943 87.7766 126.643 87.422 127.25C87.0766 127.847 86.6053 128.309 86.008 128.636C85.4106 128.963 84.748 129.126 84.02 129.126ZM84.02 128.006C84.4773 128.006 84.9066 127.899 85.308 127.684C85.7093 127.469 86.0313 127.147 86.274 126.718C86.526 126.289 86.652 125.766 86.652 125.15C86.652 124.534 86.5306 124.011 86.288 123.582C86.0453 123.153 85.728 122.835 85.336 122.63C84.944 122.415 84.5193 122.308 84.062 122.308C83.5953 122.308 83.166 122.415 82.774 122.63C82.3913 122.835 82.0833 123.153 81.85 123.582C81.6166 124.011 81.5 124.534 81.5 125.15C81.5 125.775 81.612 126.303 81.836 126.732C82.0693 127.161 82.3773 127.483 82.76 127.698C83.1426 127.903 83.5626 128.006 84.02 128.006ZM98.855 121.188C99.4524 121.188 99.9844 121.314 100.451 121.566C100.918 121.809 101.286 122.177 101.557 122.672C101.828 123.167 101.963 123.769 101.963 124.478V129H100.703V124.66C100.703 123.895 100.512 123.311 100.129 122.91C99.7557 122.499 99.247 122.294 98.603 122.294C97.9404 122.294 97.413 122.509 97.021 122.938C96.629 123.358 96.433 123.969 96.433 124.772V129H95.173V124.66C95.173 123.895 94.9817 123.311 94.599 122.91C94.2257 122.499 93.717 122.294 93.073 122.294C92.4104 122.294 91.883 122.509 91.491 122.938C91.099 123.358 90.903 123.969 90.903 124.772V129H89.629V121.328H90.903V122.434C91.155 122.033 91.491 121.725 91.911 121.51C92.3404 121.295 92.8117 121.188 93.325 121.188C93.969 121.188 94.5384 121.333 95.033 121.622C95.5277 121.911 95.8964 122.336 96.139 122.896C96.3537 122.355 96.7084 121.935 97.203 121.636C97.6977 121.337 98.2484 121.188 98.855 121.188Z" fill="#A7A7A7"/>
<rect x="20.3764" y="172" width="349.247" height="56" rx="28" fill="white"/>
<rect x="20.3764" y="172" width="349.247" height="56" rx="28" stroke="#FF0000" stroke-width="2"/>
<path d="M51.8059 200.106C53.2448 200.786 54.4717 201.844 55.355 203.167C56.2383 204.491 56.7448 206.029 56.82 207.619C56.8301 207.764 56.8109 207.911 56.7637 208.049C56.7165 208.187 56.6422 208.314 56.5451 208.423C56.448 208.532 56.3302 208.62 56.1985 208.683C56.0667 208.746 55.9238 208.782 55.778 208.789C55.6322 208.796 55.4866 208.773 55.3496 208.723C55.2126 208.673 55.087 208.596 54.9802 208.496C54.8734 208.397 54.7875 208.277 54.7276 208.144C54.6678 208.011 54.6351 207.867 54.6315 207.721C54.5518 206.033 53.8251 204.44 52.6023 203.274C51.3794 202.107 49.7543 201.457 48.0643 201.457C46.3743 201.457 44.7492 202.107 43.5264 203.274C42.3035 204.44 41.5768 206.033 41.4972 207.721C41.4775 208.007 41.3467 208.274 41.1328 208.464C40.919 208.655 40.639 208.754 40.3529 208.74C40.0668 208.727 39.7973 208.602 39.6021 208.393C39.4069 208.183 39.3016 207.905 39.3086 207.619C39.3838 206.03 39.89 204.491 40.773 203.167C41.6561 201.844 42.8827 200.786 44.3213 200.106C43.3994 199.338 42.7368 198.303 42.4235 197.144C42.1103 195.986 42.1616 194.758 42.5705 193.63C42.9794 192.501 43.7261 191.526 44.709 190.836C45.6918 190.147 46.8631 189.777 48.0636 189.777C49.264 189.777 50.4354 190.147 51.4182 190.836C52.4011 191.526 53.1477 192.501 53.5567 193.63C53.9656 194.758 54.0169 195.986 53.7037 197.144C53.3904 198.303 52.7278 199.338 51.8059 200.106ZM51.7168 195.617C51.7168 194.648 51.332 193.719 50.647 193.034C49.962 192.349 49.033 191.964 48.0643 191.964C47.0956 191.964 46.1666 192.349 45.4816 193.034C44.7967 193.719 44.4119 194.648 44.4119 195.617C44.4119 196.586 44.7967 197.515 45.4816 198.2C46.1666 198.884 47.0956 199.269 48.0643 199.269C49.033 199.269 49.962 198.884 50.647 198.2C51.332 197.515 51.7168 196.586 51.7168 195.617Z" fill="#FF0000"/>
<path d="M78.5022 205H77.2282L72.1042 197.23V205H70.8302V195.228H72.1042L77.2282 202.984V195.228H78.5022V205ZM84.02 205.126C83.3013 205.126 82.648 204.963 82.06 204.636C81.4813 204.309 81.024 203.847 80.688 203.25C80.3613 202.643 80.198 201.943 80.198 201.15C80.198 200.366 80.366 199.675 80.702 199.078C81.0473 198.471 81.514 198.009 82.102 197.692C82.69 197.365 83.348 197.202 84.076 197.202C84.804 197.202 85.462 197.365 86.05 197.692C86.638 198.009 87.1 198.467 87.436 199.064C87.7813 199.661 87.954 200.357 87.954 201.15C87.954 201.943 87.7766 202.643 87.422 203.25C87.0766 203.847 86.6053 204.309 86.008 204.636C85.4106 204.963 84.748 205.126 84.02 205.126ZM84.02 204.006C84.4773 204.006 84.9066 203.899 85.308 203.684C85.7093 203.469 86.0313 203.147 86.274 202.718C86.526 202.289 86.652 201.766 86.652 201.15C86.652 200.534 86.5306 200.011 86.288 199.582C86.0453 199.153 85.728 198.835 85.336 198.63C84.944 198.415 84.5193 198.308 84.062 198.308C83.5953 198.308 83.166 198.415 82.774 198.63C82.3913 198.835 82.0833 199.153 81.85 199.582C81.6166 200.011 81.5 200.534 81.5 201.15C81.5 201.775 81.612 202.303 81.836 202.732C82.0693 203.161 82.3773 203.483 82.76 203.698C83.1426 203.903 83.5626 204.006 84.02 204.006ZM98.855 197.188C99.4524 197.188 99.9844 197.314 100.451 197.566C100.918 197.809 101.286 198.177 101.557 198.672C101.828 199.167 101.963 199.769 101.963 200.478V205H100.703V200.66C100.703 199.895 100.512 199.311 100.129 198.91C99.7557 198.499 99.247 198.294 98.603 198.294C97.9404 198.294 97.413 198.509 97.021 198.938C96.629 199.358 96.433 199.969 96.433 200.772V205H95.173V200.66C95.173 199.895 94.9817 199.311 94.599 198.91C94.2257 198.499 93.717 198.294 93.073 198.294C92.4104 198.294 91.883 198.509 91.491 198.938C91.099 199.358 90.903 199.969 90.903 200.772V205H89.629V197.328H90.903V198.434C91.155 198.033 91.491 197.725 91.911 197.51C92.3404 197.295 92.8117 197.188 93.325 197.188C93.969 197.188 94.5384 197.333 95.033 197.622C95.5277 197.911 95.8964 198.336 96.139 198.896C96.3537 198.355 96.7084 197.935 97.203 197.636C97.6977 197.337 98.2484 197.188 98.855 197.188Z" fill="#A7A7A7"/>
</svg>
