<svg width="390" height="248" viewBox="0 0 390 248" fill="none" xmlns="http://www.w3.org/2000/svg">
<rect x="0.876404" y="0.5" width="388.247" height="247" rx="4.5" stroke="#9747FF" stroke-dasharray="10 5"/>
<rect x="20.3764" y="20" width="349.247" height="56" rx="28" fill="white"/>
<rect x="20.3764" y="20" width="349.247" height="56" rx="28" stroke="#505050"/>
<path d="M48.3764 37.95C42.8564 37.95 38.3764 42.43 38.3764 47.95C38.3764 53.47 42.8564 57.95 48.3764 57.95H53.3764V55.95H48.3764C44.0364 55.95 40.3764 52.29 40.3764 47.95C40.3764 43.61 44.0364 39.95 48.3764 39.95C52.7164 39.95 56.3764 43.61 56.3764 47.95V49.38C56.3764 50.17 55.6664 50.95 54.8764 50.95C54.0864 50.95 53.3764 50.17 53.3764 49.38V47.95C53.3764 45.19 51.1364 42.95 48.3764 42.95C45.6164 42.95 43.3764 45.19 43.3764 47.95C43.3764 50.71 45.6164 52.95 48.3764 52.95C49.7564 52.95 51.0164 52.39 51.9164 51.48C52.5664 52.37 53.6864 52.95 54.8764 52.95C56.8464 52.95 58.3764 51.35 58.3764 49.38V47.95C58.3764 42.43 53.8964 37.95 48.3764 37.95ZM48.3764 50.95C46.7164 50.95 45.3764 49.61 45.3764 47.95C45.3764 46.29 46.7164 44.95 48.3764 44.95C50.0364 44.95 51.3764 46.29 51.3764 47.95C51.3764 49.61 50.0364 50.95 48.3764 50.95Z" fill="black"/>
<path d="M72.7284 44.278V47.54H76.2844V48.59H72.7284V51.95H76.7044V53H71.4544V43.228H76.7044V44.278H72.7284ZM87.8581 45.188C88.4555 45.188 88.9875 45.314 89.4541 45.566C89.9208 45.8087 90.2895 46.1773 90.5601 46.672C90.8308 47.1667 90.9661 47.7687 90.9661 48.478V53H89.7061V48.66C89.7061 47.8947 89.5148 47.3113 89.1321 46.91C88.7588 46.4993 88.2501 46.294 87.6061 46.294C86.9435 46.294 86.4161 46.5087 86.0241 46.938C85.6321 47.358 85.4361 47.9693 85.4361 48.772V53H84.1761V48.66C84.1761 47.8947 83.9848 47.3113 83.6021 46.91C83.2288 46.4993 82.7201 46.294 82.0761 46.294C81.4135 46.294 80.8861 46.5087 80.4941 46.938C80.1021 47.358 79.9061 47.9693 79.9061 48.772V53H78.6321V45.328H79.9061V46.434C80.1581 46.0327 80.4941 45.7247 80.9141 45.51C81.3435 45.2953 81.8148 45.188 82.3281 45.188C82.9721 45.188 83.5415 45.3327 84.0361 45.622C84.5308 45.9113 84.8995 46.336 85.1421 46.896C85.3568 46.3547 85.7115 45.9347 86.2061 45.636C86.7008 45.3373 87.2515 45.188 87.8581 45.188ZM92.58 49.136C92.58 48.352 92.7386 47.666 93.056 47.078C93.3733 46.4807 93.8073 46.0187 94.358 45.692C94.918 45.3653 95.5386 45.202 96.22 45.202C96.892 45.202 97.4753 45.3467 97.97 45.636C98.4646 45.9253 98.8333 46.2893 99.076 46.728V45.328H100.364V53H99.076V51.572C98.824 52.02 98.446 52.3933 97.942 52.692C97.4473 52.9813 96.8686 53.126 96.206 53.126C95.5246 53.126 94.9086 52.958 94.358 52.622C93.8073 52.286 93.3733 51.8147 93.056 51.208C92.7386 50.6013 92.58 49.9107 92.58 49.136ZM99.076 49.15C99.076 48.5713 98.9593 48.0673 98.726 47.638C98.4926 47.2087 98.1753 46.882 97.774 46.658C97.382 46.4247 96.948 46.308 96.472 46.308C95.996 46.308 95.562 46.42 95.17 46.644C94.778 46.868 94.4653 47.1947 94.232 47.624C93.9986 48.0533 93.882 48.5573 93.882 49.136C93.882 49.724 93.9986 50.2373 94.232 50.676C94.4653 51.1053 94.778 51.4367 95.17 51.67C95.562 51.894 95.996 52.006 96.472 52.006C96.948 52.006 97.382 51.894 97.774 51.67C98.1753 51.4367 98.4926 51.1053 98.726 50.676C98.9593 50.2373 99.076 49.7287 99.076 49.15ZM103.175 44.082C102.932 44.082 102.727 43.998 102.559 43.83C102.391 43.662 102.307 43.4567 102.307 43.214C102.307 42.9713 102.391 42.766 102.559 42.598C102.727 42.43 102.932 42.346 103.175 42.346C103.408 42.346 103.604 42.43 103.763 42.598C103.931 42.766 104.015 42.9713 104.015 43.214C104.015 43.4567 103.931 43.662 103.763 43.83C103.604 43.998 103.408 44.082 103.175 44.082ZM103.791 45.328V53H102.517V45.328H103.791ZM107.236 42.64V53H105.962V42.64H107.236Z" fill="#A7A7A7"/>
<rect x="20.3764" y="96" width="349.247" height="56" rx="28" fill="white"/>
<rect x="20.3764" y="96" width="349.247" height="56" rx="28" stroke="#FFC244" stroke-width="2"/>
<path d="M48.3764 113.95C42.8564 113.95 38.3764 118.43 38.3764 123.95C38.3764 129.47 42.8564 133.95 48.3764 133.95H53.3764V131.95H48.3764C44.0364 131.95 40.3764 128.29 40.3764 123.95C40.3764 119.61 44.0364 115.95 48.3764 115.95C52.7164 115.95 56.3764 119.61 56.3764 123.95V125.38C56.3764 126.17 55.6664 126.95 54.8764 126.95C54.0864 126.95 53.3764 126.17 53.3764 125.38V123.95C53.3764 121.19 51.1364 118.95 48.3764 118.95C45.6164 118.95 43.3764 121.19 43.3764 123.95C43.3764 126.71 45.6164 128.95 48.3764 128.95C49.7564 128.95 51.0164 128.39 51.9164 127.48C52.5664 128.37 53.6864 128.95 54.8764 128.95C56.8464 128.95 58.3764 127.35 58.3764 125.38V123.95C58.3764 118.43 53.8964 113.95 48.3764 113.95ZM48.3764 126.95C46.7164 126.95 45.3764 125.61 45.3764 123.95C45.3764 122.29 46.7164 120.95 48.3764 120.95C50.0364 120.95 51.3764 122.29 51.3764 123.95C51.3764 125.61 50.0364 126.95 48.3764 126.95Z" fill="#FFC244"/>
<path d="M72.7284 120.278V123.54H76.2844V124.59H72.7284V127.95H76.7044V129H71.4544V119.228H76.7044V120.278H72.7284ZM87.8581 121.188C88.4555 121.188 88.9875 121.314 89.4541 121.566C89.9208 121.809 90.2895 122.177 90.5601 122.672C90.8308 123.167 90.9661 123.769 90.9661 124.478V129H89.7061V124.66C89.7061 123.895 89.5148 123.311 89.1321 122.91C88.7588 122.499 88.2501 122.294 87.6061 122.294C86.9435 122.294 86.4161 122.509 86.0241 122.938C85.6321 123.358 85.4361 123.969 85.4361 124.772V129H84.1761V124.66C84.1761 123.895 83.9848 123.311 83.6021 122.91C83.2288 122.499 82.7201 122.294 82.0761 122.294C81.4135 122.294 80.8861 122.509 80.4941 122.938C80.1021 123.358 79.9061 123.969 79.9061 124.772V129H78.6321V121.328H79.9061V122.434C80.1581 122.033 80.4941 121.725 80.9141 121.51C81.3435 121.295 81.8148 121.188 82.3281 121.188C82.9721 121.188 83.5415 121.333 84.0361 121.622C84.5308 121.911 84.8995 122.336 85.1421 122.896C85.3568 122.355 85.7115 121.935 86.2061 121.636C86.7008 121.337 87.2515 121.188 87.8581 121.188ZM92.58 125.136C92.58 124.352 92.7386 123.666 93.056 123.078C93.3733 122.481 93.8073 122.019 94.358 121.692C94.918 121.365 95.5386 121.202 96.22 121.202C96.892 121.202 97.4753 121.347 97.97 121.636C98.4646 121.925 98.8333 122.289 99.076 122.728V121.328H100.364V129H99.076V127.572C98.824 128.02 98.446 128.393 97.942 128.692C97.4473 128.981 96.8686 129.126 96.206 129.126C95.5246 129.126 94.9086 128.958 94.358 128.622C93.8073 128.286 93.3733 127.815 93.056 127.208C92.7386 126.601 92.58 125.911 92.58 125.136ZM99.076 125.15C99.076 124.571 98.9593 124.067 98.726 123.638C98.4926 123.209 98.1753 122.882 97.774 122.658C97.382 122.425 96.948 122.308 96.472 122.308C95.996 122.308 95.562 122.42 95.17 122.644C94.778 122.868 94.4653 123.195 94.232 123.624C93.9986 124.053 93.882 124.557 93.882 125.136C93.882 125.724 93.9986 126.237 94.232 126.676C94.4653 127.105 94.778 127.437 95.17 127.67C95.562 127.894 95.996 128.006 96.472 128.006C96.948 128.006 97.382 127.894 97.774 127.67C98.1753 127.437 98.4926 127.105 98.726 126.676C98.9593 126.237 99.076 125.729 99.076 125.15ZM103.175 120.082C102.932 120.082 102.727 119.998 102.559 119.83C102.391 119.662 102.307 119.457 102.307 119.214C102.307 118.971 102.391 118.766 102.559 118.598C102.727 118.43 102.932 118.346 103.175 118.346C103.408 118.346 103.604 118.43 103.763 118.598C103.931 118.766 104.015 118.971 104.015 119.214C104.015 119.457 103.931 119.662 103.763 119.83C103.604 119.998 103.408 120.082 103.175 120.082ZM103.791 121.328V129H102.517V121.328H103.791ZM107.236 118.64V129H105.962V118.64H107.236Z" fill="#A7A7A7"/>
<rect x="20.3764" y="172" width="349.247" height="56" rx="28" fill="white"/>
<rect x="20.3764" y="172" width="349.247" height="56" rx="28" stroke="#FF0000" stroke-width="2"/>
<path d="M48.3764 189.95C42.8564 189.95 38.3764 194.43 38.3764 199.95C38.3764 205.47 42.8564 209.95 48.3764 209.95H53.3764V207.95H48.3764C44.0364 207.95 40.3764 204.29 40.3764 199.95C40.3764 195.61 44.0364 191.95 48.3764 191.95C52.7164 191.95 56.3764 195.61 56.3764 199.95V201.38C56.3764 202.17 55.6664 202.95 54.8764 202.95C54.0864 202.95 53.3764 202.17 53.3764 201.38V199.95C53.3764 197.19 51.1364 194.95 48.3764 194.95C45.6164 194.95 43.3764 197.19 43.3764 199.95C43.3764 202.71 45.6164 204.95 48.3764 204.95C49.7564 204.95 51.0164 204.39 51.9164 203.48C52.5664 204.37 53.6864 204.95 54.8764 204.95C56.8464 204.95 58.3764 203.35 58.3764 201.38V199.95C58.3764 194.43 53.8964 189.95 48.3764 189.95ZM48.3764 202.95C46.7164 202.95 45.3764 201.61 45.3764 199.95C45.3764 198.29 46.7164 196.95 48.3764 196.95C50.0364 196.95 51.3764 198.29 51.3764 199.95C51.3764 201.61 50.0364 202.95 48.3764 202.95Z" fill="#FF0000"/>
<path d="M72.7284 196.278V199.54H76.2844V200.59H72.7284V203.95H76.7044V205H71.4544V195.228H76.7044V196.278H72.7284ZM87.8581 197.188C88.4555 197.188 88.9875 197.314 89.4541 197.566C89.9208 197.809 90.2895 198.177 90.5601 198.672C90.8308 199.167 90.9661 199.769 90.9661 200.478V205H89.7061V200.66C89.7061 199.895 89.5148 199.311 89.1321 198.91C88.7588 198.499 88.2501 198.294 87.6061 198.294C86.9435 198.294 86.4161 198.509 86.0241 198.938C85.6321 199.358 85.4361 199.969 85.4361 200.772V205H84.1761V200.66C84.1761 199.895 83.9848 199.311 83.6021 198.91C83.2288 198.499 82.7201 198.294 82.0761 198.294C81.4135 198.294 80.8861 198.509 80.4941 198.938C80.1021 199.358 79.9061 199.969 79.9061 200.772V205H78.6321V197.328H79.9061V198.434C80.1581 198.033 80.4941 197.725 80.9141 197.51C81.3435 197.295 81.8148 197.188 82.3281 197.188C82.9721 197.188 83.5415 197.333 84.0361 197.622C84.5308 197.911 84.8995 198.336 85.1421 198.896C85.3568 198.355 85.7115 197.935 86.2061 197.636C86.7008 197.337 87.2515 197.188 87.8581 197.188ZM92.58 201.136C92.58 200.352 92.7386 199.666 93.056 199.078C93.3733 198.481 93.8073 198.019 94.358 197.692C94.918 197.365 95.5386 197.202 96.22 197.202C96.892 197.202 97.4753 197.347 97.97 197.636C98.4646 197.925 98.8333 198.289 99.076 198.728V197.328H100.364V205H99.076V203.572C98.824 204.02 98.446 204.393 97.942 204.692C97.4473 204.981 96.8686 205.126 96.206 205.126C95.5246 205.126 94.9086 204.958 94.358 204.622C93.8073 204.286 93.3733 203.815 93.056 203.208C92.7386 202.601 92.58 201.911 92.58 201.136ZM99.076 201.15C99.076 200.571 98.9593 200.067 98.726 199.638C98.4926 199.209 98.1753 198.882 97.774 198.658C97.382 198.425 96.948 198.308 96.472 198.308C95.996 198.308 95.562 198.42 95.17 198.644C94.778 198.868 94.4653 199.195 94.232 199.624C93.9986 200.053 93.882 200.557 93.882 201.136C93.882 201.724 93.9986 202.237 94.232 202.676C94.4653 203.105 94.778 203.437 95.17 203.67C95.562 203.894 95.996 204.006 96.472 204.006C96.948 204.006 97.382 203.894 97.774 203.67C98.1753 203.437 98.4926 203.105 98.726 202.676C98.9593 202.237 99.076 201.729 99.076 201.15ZM103.175 196.082C102.932 196.082 102.727 195.998 102.559 195.83C102.391 195.662 102.307 195.457 102.307 195.214C102.307 194.971 102.391 194.766 102.559 194.598C102.727 194.43 102.932 194.346 103.175 194.346C103.408 194.346 103.604 194.43 103.763 194.598C103.931 194.766 104.015 194.971 104.015 195.214C104.015 195.457 103.931 195.662 103.763 195.83C103.604 195.998 103.408 196.082 103.175 196.082ZM103.791 197.328V205H102.517V197.328H103.791ZM107.236 194.64V205H105.962V194.64H107.236Z" fill="#A7A7A7"/>
</svg>
