<svg width="390" height="248" viewBox="0 0 390 248" fill="none" xmlns="http://www.w3.org/2000/svg">
<rect x="0.876404" y="0.5" width="388.247" height="247" rx="4.5" stroke="#9747FF" stroke-dasharray="10 5"/>
<rect x="20.3764" y="20" width="349.247" height="56" rx="28" fill="white"/>
<rect x="20.3764" y="20" width="349.247" height="56" rx="28" stroke="#505050"/>
<path d="M52.6745 37.971C53.0545 37.971 53.4189 38.122 53.6876 38.3907C53.9563 38.6594 54.1072 39.0238 54.1072 39.4038V56.5963C54.1072 56.9763 53.9563 57.3407 53.6876 57.6094C53.4189 57.8781 53.0545 58.029 52.6745 58.029H44.0783C43.6983 58.029 43.3339 57.8781 43.0652 57.6094C42.7965 57.3407 42.6455 56.9763 42.6455 56.5963V39.4038C42.6455 39.0238 42.7965 38.6594 43.0652 38.3907C43.3339 38.122 43.6983 37.971 44.0783 37.971H52.6745ZM44.0783 36.5383C43.3183 36.5383 42.5895 36.8402 42.0521 37.3776C41.5147 37.915 41.2128 38.6438 41.2128 39.4038V56.5963C41.2128 57.3563 41.5147 58.0851 42.0521 58.6225C42.5895 59.1598 43.3183 59.4617 44.0783 59.4617H52.6745C53.4345 59.4617 54.1633 59.1598 54.7007 58.6225C55.2381 58.0851 55.5399 57.3563 55.5399 56.5963V39.4038C55.5399 38.6438 55.2381 37.915 54.7007 37.3776C54.1633 36.8402 53.4345 36.5383 52.6745 36.5383H44.0783Z" fill="black"/>
<path d="M48.3764 56.5964C48.7564 56.5964 49.1208 56.4454 49.3895 56.1767C49.6582 55.9081 49.8091 55.5436 49.8091 55.1637C49.8091 54.7837 49.6582 54.4193 49.3895 54.1506C49.1208 53.8819 48.7564 53.731 48.3764 53.731C47.9964 53.731 47.632 53.8819 47.3633 54.1506C47.0946 54.4193 46.9437 54.7837 46.9437 55.1637C46.9437 55.5436 47.0946 55.9081 47.3633 56.1767C47.632 56.4454 47.9964 56.5964 48.3764 56.5964Z" fill="black"/>
<path d="M79.1264 53H77.8524L72.7284 45.23V53H71.4544V43.228H72.7284L77.8524 50.984V43.228H79.1264V53ZM88.1022 45.328V53H86.8282V51.866C86.5855 52.258 86.2448 52.566 85.8062 52.79C85.3768 53.0047 84.9008 53.112 84.3782 53.112C83.7808 53.112 83.2442 52.9907 82.7682 52.748C82.2922 52.496 81.9142 52.1227 81.6342 51.628C81.3635 51.1333 81.2282 50.5313 81.2282 49.822V45.328H82.4882V49.654C82.4882 50.41 82.6795 50.9933 83.0622 51.404C83.4448 51.8053 83.9675 52.006 84.6302 52.006C85.3115 52.006 85.8482 51.796 86.2402 51.376C86.6322 50.956 86.8282 50.3447 86.8282 49.542V45.328H88.1022ZM99.4792 45.188C100.077 45.188 100.609 45.314 101.075 45.566C101.542 45.8087 101.911 46.1773 102.181 46.672C102.452 47.1667 102.587 47.7687 102.587 48.478V53H101.327V48.66C101.327 47.8947 101.136 47.3113 100.753 46.91C100.38 46.4993 99.8712 46.294 99.2272 46.294C98.5646 46.294 98.0372 46.5087 97.6452 46.938C97.2532 47.358 97.0572 47.9693 97.0572 48.772V53H95.7972V48.66C95.7972 47.8947 95.6059 47.3113 95.2232 46.91C94.8499 46.4993 94.3412 46.294 93.6972 46.294C93.0346 46.294 92.5072 46.5087 92.1152 46.938C91.7232 47.358 91.5272 47.9693 91.5272 48.772V53H90.2532V45.328H91.5272V46.434C91.7792 46.0327 92.1152 45.7247 92.5352 45.51C92.9646 45.2953 93.4359 45.188 93.9492 45.188C94.5932 45.188 95.1626 45.3327 95.6572 45.622C96.1519 45.9113 96.5206 46.336 96.7632 46.896C96.9779 46.3547 97.3326 45.9347 97.8272 45.636C98.3219 45.3373 98.8726 45.188 99.4792 45.188ZM111.677 48.87C111.677 49.1127 111.663 49.3693 111.635 49.64H105.503C105.55 50.396 105.806 50.9887 106.273 51.418C106.749 51.838 107.323 52.048 107.995 52.048C108.546 52.048 109.003 51.922 109.367 51.67C109.74 51.4087 110.002 51.0633 110.151 50.634H111.523C111.318 51.3713 110.907 51.9733 110.291 52.44C109.675 52.8973 108.91 53.126 107.995 53.126C107.267 53.126 106.614 52.9627 106.035 52.636C105.466 52.3093 105.018 51.8473 104.691 51.25C104.364 50.6433 104.201 49.9433 104.201 49.15C104.201 48.3567 104.36 47.6613 104.677 47.064C104.994 46.4667 105.438 46.0093 106.007 45.692C106.586 45.3653 107.248 45.202 107.995 45.202C108.723 45.202 109.367 45.3607 109.927 45.678C110.487 45.9953 110.916 46.434 111.215 46.994C111.523 47.5447 111.677 48.17 111.677 48.87ZM110.361 48.604C110.361 48.1187 110.254 47.7033 110.039 47.358C109.824 47.0033 109.53 46.7373 109.157 46.56C108.793 46.3733 108.387 46.28 107.939 46.28C107.295 46.28 106.744 46.4853 106.287 46.896C105.839 47.3067 105.582 47.876 105.517 48.604H110.361ZM109.311 43.158L106.329 44.754V43.802L109.311 42.052V43.158ZM114.633 46.574C114.857 46.1353 115.174 45.7947 115.585 45.552C116.005 45.3093 116.513 45.188 117.111 45.188V46.504H116.775C115.347 46.504 114.633 47.2787 114.633 48.828V53H113.359V45.328H114.633V46.574ZM121.927 53.126C121.209 53.126 120.555 52.9627 119.967 52.636C119.389 52.3093 118.931 51.8473 118.595 51.25C118.269 50.6433 118.105 49.9433 118.105 49.15C118.105 48.366 118.273 47.6753 118.609 47.078C118.955 46.4713 119.421 46.0093 120.009 45.692C120.597 45.3653 121.255 45.202 121.983 45.202C122.711 45.202 123.369 45.3653 123.957 45.692C124.545 46.0093 125.007 46.4667 125.343 47.064C125.689 47.6613 125.861 48.3567 125.861 49.15C125.861 49.9433 125.684 50.6433 125.329 51.25C124.984 51.8473 124.513 52.3093 123.915 52.636C123.318 52.9627 122.655 53.126 121.927 53.126ZM121.927 52.006C122.385 52.006 122.814 51.8987 123.215 51.684C123.617 51.4693 123.939 51.1473 124.181 50.718C124.433 50.2887 124.559 49.766 124.559 49.15C124.559 48.534 124.438 48.0113 124.195 47.582C123.953 47.1527 123.635 46.8353 123.243 46.63C122.851 46.4153 122.427 46.308 121.969 46.308C121.503 46.308 121.073 46.4153 120.681 46.63C120.299 46.8353 119.991 47.1527 119.757 47.582C119.524 48.0113 119.407 48.534 119.407 49.15C119.407 49.7753 119.519 50.3027 119.743 50.732C119.977 51.1613 120.285 51.4833 120.667 51.698C121.05 51.9033 121.47 52.006 121.927 52.006ZM130.793 49.136C130.793 48.352 130.952 47.666 131.269 47.078C131.586 46.4807 132.02 46.0187 132.571 45.692C133.131 45.3653 133.756 45.202 134.447 45.202C135.044 45.202 135.6 45.342 136.113 45.622C136.626 45.8927 137.018 46.252 137.289 46.7V42.64H138.577V53H137.289V51.558C137.037 52.0153 136.664 52.3933 136.169 52.692C135.674 52.9813 135.096 53.126 134.433 53.126C133.752 53.126 133.131 52.958 132.571 52.622C132.02 52.286 131.586 51.8147 131.269 51.208C130.952 50.6013 130.793 49.9107 130.793 49.136ZM137.289 49.15C137.289 48.5713 137.172 48.0673 136.939 47.638C136.706 47.2087 136.388 46.882 135.987 46.658C135.595 46.4247 135.161 46.308 134.685 46.308C134.209 46.308 133.775 46.42 133.383 46.644C132.991 46.868 132.678 47.1947 132.445 47.624C132.212 48.0533 132.095 48.5573 132.095 49.136C132.095 49.724 132.212 50.2373 132.445 50.676C132.678 51.1053 132.991 51.4367 133.383 51.67C133.775 51.894 134.209 52.006 134.685 52.006C135.161 52.006 135.595 51.894 135.987 51.67C136.388 51.4367 136.706 51.1053 136.939 50.676C137.172 50.2373 137.289 49.7287 137.289 49.15ZM147.73 48.87C147.73 49.1127 147.716 49.3693 147.688 49.64H141.556C141.602 50.396 141.859 50.9887 142.326 51.418C142.802 51.838 143.376 52.048 144.048 52.048C144.598 52.048 145.056 51.922 145.42 51.67C145.793 51.4087 146.054 51.0633 146.204 50.634H147.576C147.37 51.3713 146.96 51.9733 146.344 52.44C145.728 52.8973 144.962 53.126 144.048 53.126C143.32 53.126 142.666 52.9627 142.088 52.636C141.518 52.3093 141.07 51.8473 140.744 51.25C140.417 50.6433 140.254 49.9433 140.254 49.15C140.254 48.3567 140.412 47.6613 140.73 47.064C141.047 46.4667 141.49 46.0093 142.06 45.692C142.638 45.3653 143.301 45.202 144.048 45.202C144.776 45.202 145.42 45.3607 145.98 45.678C146.54 45.9953 146.969 46.434 147.268 46.994C147.576 47.5447 147.73 48.17 147.73 48.87ZM146.414 48.604C146.414 48.1187 146.306 47.7033 146.092 47.358C145.877 47.0033 145.583 46.7373 145.21 46.56C144.846 46.3733 144.44 46.28 143.992 46.28C143.348 46.28 142.797 46.4853 142.34 46.896C141.892 47.3067 141.635 47.876 141.57 48.604H146.414ZM154.698 46.378V50.9C154.698 51.2733 154.777 51.5393 154.936 51.698C155.095 51.8473 155.37 51.922 155.762 51.922H156.7V53H155.552C154.843 53 154.311 52.8367 153.956 52.51C153.601 52.1833 153.424 51.6467 153.424 50.9V46.378H152.43V45.328H153.424V43.396H154.698V45.328H156.7V46.378H154.698ZM165.243 48.87C165.243 49.1127 165.229 49.3693 165.201 49.64H159.069C159.116 50.396 159.373 50.9887 159.839 51.418C160.315 51.838 160.889 52.048 161.561 52.048C162.112 52.048 162.569 51.922 162.933 51.67C163.307 51.4087 163.568 51.0633 163.717 50.634H165.089C164.884 51.3713 164.473 51.9733 163.857 52.44C163.241 52.8973 162.476 53.126 161.561 53.126C160.833 53.126 160.18 52.9627 159.601 52.636C159.032 52.3093 158.584 51.8473 158.257 51.25C157.931 50.6433 157.767 49.9433 157.767 49.15C157.767 48.3567 157.926 47.6613 158.243 47.064C158.561 46.4667 159.004 46.0093 159.573 45.692C160.152 45.3653 160.815 45.202 161.561 45.202C162.289 45.202 162.933 45.3607 163.493 45.678C164.053 45.9953 164.483 46.434 164.781 46.994C165.089 47.5447 165.243 48.17 165.243 48.87ZM163.927 48.604C163.927 48.1187 163.82 47.7033 163.605 47.358C163.391 47.0033 163.097 46.7373 162.723 46.56C162.359 46.3733 161.953 46.28 161.505 46.28C160.861 46.28 160.311 46.4853 159.853 46.896C159.405 47.3067 159.149 47.876 159.083 48.604H163.927ZM162.877 43.158L159.895 44.754V43.802L162.877 42.052V43.158ZM168.199 42.64V53H166.925V42.64H168.199ZM177.37 48.87C177.37 49.1127 177.356 49.3693 177.328 49.64H171.196C171.243 50.396 171.5 50.9887 171.966 51.418C172.442 51.838 173.016 52.048 173.688 52.048C174.239 52.048 174.696 51.922 175.06 51.67C175.434 51.4087 175.695 51.0633 175.844 50.634H177.216C177.011 51.3713 176.6 51.9733 175.984 52.44C175.368 52.8973 174.603 53.126 173.688 53.126C172.96 53.126 172.307 52.9627 171.728 52.636C171.159 52.3093 170.711 51.8473 170.384 51.25C170.058 50.6433 169.894 49.9433 169.894 49.15C169.894 48.3567 170.053 47.6613 170.37 47.064C170.688 46.4667 171.131 46.0093 171.7 45.692C172.279 45.3653 172.942 45.202 173.688 45.202C174.416 45.202 175.06 45.3607 175.62 45.678C176.18 45.9953 176.61 46.434 176.908 46.994C177.216 47.5447 177.37 48.17 177.37 48.87ZM176.054 48.604C176.054 48.1187 175.947 47.7033 175.732 47.358C175.518 47.0033 175.224 46.7373 174.85 46.56C174.486 46.3733 174.08 46.28 173.632 46.28C172.988 46.28 172.438 46.4853 171.98 46.896C171.532 47.3067 171.276 47.876 171.21 48.604H176.054ZM175.004 43.158L172.022 44.754V43.802L175.004 42.052V43.158ZM180.326 46.742C180.578 46.3033 180.951 45.9393 181.446 45.65C181.95 45.3513 182.533 45.202 183.196 45.202C183.877 45.202 184.493 45.3653 185.044 45.692C185.604 46.0187 186.043 46.4807 186.36 47.078C186.677 47.666 186.836 48.352 186.836 49.136C186.836 49.9107 186.677 50.6013 186.36 51.208C186.043 51.8147 185.604 52.286 185.044 52.622C184.493 52.958 183.877 53.126 183.196 53.126C182.543 53.126 181.964 52.9813 181.46 52.692C180.965 52.3933 180.587 52.0247 180.326 51.586V56.64H179.052V45.328H180.326V46.742ZM185.534 49.136C185.534 48.5573 185.417 48.0533 185.184 47.624C184.951 47.1947 184.633 46.868 184.232 46.644C183.84 46.42 183.406 46.308 182.93 46.308C182.463 46.308 182.029 46.4247 181.628 46.658C181.236 46.882 180.919 47.2133 180.676 47.652C180.443 48.0813 180.326 48.5807 180.326 49.15C180.326 49.7287 180.443 50.2373 180.676 50.676C180.919 51.1053 181.236 51.4367 181.628 51.67C182.029 51.894 182.463 52.006 182.93 52.006C183.406 52.006 183.84 51.894 184.232 51.67C184.633 51.4367 184.951 51.1053 185.184 50.676C185.417 50.2373 185.534 49.724 185.534 49.136ZM192.321 45.188C192.9 45.188 193.422 45.314 193.889 45.566C194.356 45.8087 194.72 46.1773 194.981 46.672C195.252 47.1667 195.387 47.7687 195.387 48.478V53H194.127V48.66C194.127 47.8947 193.936 47.3113 193.553 46.91C193.17 46.4993 192.648 46.294 191.985 46.294C191.313 46.294 190.776 46.504 190.375 46.924C189.983 47.344 189.787 47.9553 189.787 48.758V53H188.513V42.64H189.787V46.42C190.039 46.028 190.384 45.7247 190.823 45.51C191.271 45.2953 191.77 45.188 192.321 45.188ZM200.814 53.126C200.095 53.126 199.442 52.9627 198.854 52.636C198.275 52.3093 197.818 51.8473 197.482 51.25C197.155 50.6433 196.992 49.9433 196.992 49.15C196.992 48.366 197.16 47.6753 197.496 47.078C197.841 46.4713 198.308 46.0093 198.896 45.692C199.484 45.3653 200.142 45.202 200.87 45.202C201.598 45.202 202.256 45.3653 202.844 45.692C203.432 46.0093 203.894 46.4667 204.23 47.064C204.575 47.6613 204.748 48.3567 204.748 49.15C204.748 49.9433 204.571 50.6433 204.216 51.25C203.871 51.8473 203.399 52.3093 202.802 52.636C202.205 52.9627 201.542 53.126 200.814 53.126ZM200.814 52.006C201.271 52.006 201.701 51.8987 202.102 51.684C202.503 51.4693 202.825 51.1473 203.068 50.718C203.32 50.2887 203.446 49.766 203.446 49.15C203.446 48.534 203.325 48.0113 203.082 47.582C202.839 47.1527 202.522 46.8353 202.13 46.63C201.738 46.4153 201.313 46.308 200.856 46.308C200.389 46.308 199.96 46.4153 199.568 46.63C199.185 46.8353 198.877 47.1527 198.644 47.582C198.411 48.0113 198.294 48.534 198.294 49.15C198.294 49.7753 198.406 50.3027 198.63 50.732C198.863 51.1613 199.171 51.4833 199.554 51.698C199.937 51.9033 200.357 52.006 200.814 52.006ZM210.161 45.188C211.094 45.188 211.85 45.4727 212.429 46.042C213.008 46.602 213.297 47.414 213.297 48.478V53H212.037V48.66C212.037 47.8947 211.846 47.3113 211.463 46.91C211.08 46.4993 210.558 46.294 209.895 46.294C209.223 46.294 208.686 46.504 208.285 46.924C207.893 47.344 207.697 47.9553 207.697 48.758V53H206.423V45.328H207.697V46.42C207.949 46.028 208.29 45.7247 208.719 45.51C209.158 45.2953 209.638 45.188 210.161 45.188ZM222.378 48.87C222.378 49.1127 222.364 49.3693 222.336 49.64H216.204C216.251 50.396 216.508 50.9887 216.974 51.418C217.45 51.838 218.024 52.048 218.696 52.048C219.247 52.048 219.704 51.922 220.068 51.67C220.442 51.4087 220.703 51.0633 220.852 50.634H222.224C222.019 51.3713 221.608 51.9733 220.992 52.44C220.376 52.8973 219.611 53.126 218.696 53.126C217.968 53.126 217.315 52.9627 216.736 52.636C216.167 52.3093 215.719 51.8473 215.392 51.25C215.066 50.6433 214.902 49.9433 214.902 49.15C214.902 48.3567 215.061 47.6613 215.378 47.064C215.696 46.4667 216.139 46.0093 216.708 45.692C217.287 45.3653 217.95 45.202 218.696 45.202C219.424 45.202 220.068 45.3607 220.628 45.678C221.188 45.9953 221.618 46.434 221.916 46.994C222.224 47.5447 222.378 48.17 222.378 48.87ZM221.062 48.604C221.062 48.1187 220.955 47.7033 220.74 47.358C220.526 47.0033 220.232 46.7373 219.858 46.56C219.494 46.3733 219.088 46.28 218.64 46.28C217.996 46.28 217.446 46.4853 216.988 46.896C216.54 47.3067 216.284 47.876 216.218 48.604H221.062Z" fill="#A7A7A7"/>
<rect x="20.3764" y="96" width="349.247" height="56" rx="28" fill="white"/>
<rect x="20.3764" y="96" width="349.247" height="56" rx="28" stroke="#FFC244" stroke-width="2"/>
<path d="M52.6745 113.971C53.0545 113.971 53.4189 114.122 53.6876 114.391C53.9563 114.659 54.1072 115.024 54.1072 115.404V132.596C54.1072 132.976 53.9563 133.341 53.6876 133.609C53.4189 133.878 53.0545 134.029 52.6745 134.029H44.0783C43.6983 134.029 43.3339 133.878 43.0652 133.609C42.7965 133.341 42.6455 132.976 42.6455 132.596V115.404C42.6455 115.024 42.7965 114.659 43.0652 114.391C43.3339 114.122 43.6983 113.971 44.0783 113.971H52.6745ZM44.0783 112.538C43.3183 112.538 42.5895 112.84 42.0521 113.378C41.5147 113.915 41.2128 114.644 41.2128 115.404V132.596C41.2128 133.356 41.5147 134.085 42.0521 134.622C42.5895 135.16 43.3183 135.462 44.0783 135.462H52.6745C53.4345 135.462 54.1633 135.16 54.7007 134.622C55.2381 134.085 55.5399 133.356 55.5399 132.596V115.404C55.5399 114.644 55.2381 113.915 54.7007 113.378C54.1633 112.84 53.4345 112.538 52.6745 112.538H44.0783Z" fill="#FFC244"/>
<path d="M48.3764 132.596C48.7564 132.596 49.1208 132.445 49.3895 132.177C49.6582 131.908 49.8091 131.544 49.8091 131.164C49.8091 130.784 49.6582 130.419 49.3895 130.151C49.1208 129.882 48.7564 129.731 48.3764 129.731C47.9964 129.731 47.632 129.882 47.3633 130.151C47.0946 130.419 46.9437 130.784 46.9437 131.164C46.9437 131.544 47.0946 131.908 47.3633 132.177C47.632 132.445 47.9964 132.596 48.3764 132.596Z" fill="#FFC244"/>
<path d="M79.1264 129H77.8524L72.7284 121.23V129H71.4544V119.228H72.7284L77.8524 126.984V119.228H79.1264V129ZM88.1022 121.328V129H86.8282V127.866C86.5855 128.258 86.2448 128.566 85.8062 128.79C85.3768 129.005 84.9008 129.112 84.3782 129.112C83.7808 129.112 83.2442 128.991 82.7682 128.748C82.2922 128.496 81.9142 128.123 81.6342 127.628C81.3635 127.133 81.2282 126.531 81.2282 125.822V121.328H82.4882V125.654C82.4882 126.41 82.6795 126.993 83.0622 127.404C83.4448 127.805 83.9675 128.006 84.6302 128.006C85.3115 128.006 85.8482 127.796 86.2402 127.376C86.6322 126.956 86.8282 126.345 86.8282 125.542V121.328H88.1022ZM99.4792 121.188C100.077 121.188 100.609 121.314 101.075 121.566C101.542 121.809 101.911 122.177 102.181 122.672C102.452 123.167 102.587 123.769 102.587 124.478V129H101.327V124.66C101.327 123.895 101.136 123.311 100.753 122.91C100.38 122.499 99.8712 122.294 99.2272 122.294C98.5646 122.294 98.0372 122.509 97.6452 122.938C97.2532 123.358 97.0572 123.969 97.0572 124.772V129H95.7972V124.66C95.7972 123.895 95.6059 123.311 95.2232 122.91C94.8499 122.499 94.3412 122.294 93.6972 122.294C93.0346 122.294 92.5072 122.509 92.1152 122.938C91.7232 123.358 91.5272 123.969 91.5272 124.772V129H90.2532V121.328H91.5272V122.434C91.7792 122.033 92.1152 121.725 92.5352 121.51C92.9646 121.295 93.4359 121.188 93.9492 121.188C94.5932 121.188 95.1626 121.333 95.6572 121.622C96.1519 121.911 96.5206 122.336 96.7632 122.896C96.9779 122.355 97.3326 121.935 97.8272 121.636C98.3219 121.337 98.8726 121.188 99.4792 121.188ZM111.677 124.87C111.677 125.113 111.663 125.369 111.635 125.64H105.503C105.55 126.396 105.806 126.989 106.273 127.418C106.749 127.838 107.323 128.048 107.995 128.048C108.546 128.048 109.003 127.922 109.367 127.67C109.74 127.409 110.002 127.063 110.151 126.634H111.523C111.318 127.371 110.907 127.973 110.291 128.44C109.675 128.897 108.91 129.126 107.995 129.126C107.267 129.126 106.614 128.963 106.035 128.636C105.466 128.309 105.018 127.847 104.691 127.25C104.364 126.643 104.201 125.943 104.201 125.15C104.201 124.357 104.36 123.661 104.677 123.064C104.994 122.467 105.438 122.009 106.007 121.692C106.586 121.365 107.248 121.202 107.995 121.202C108.723 121.202 109.367 121.361 109.927 121.678C110.487 121.995 110.916 122.434 111.215 122.994C111.523 123.545 111.677 124.17 111.677 124.87ZM110.361 124.604C110.361 124.119 110.254 123.703 110.039 123.358C109.824 123.003 109.53 122.737 109.157 122.56C108.793 122.373 108.387 122.28 107.939 122.28C107.295 122.28 106.744 122.485 106.287 122.896C105.839 123.307 105.582 123.876 105.517 124.604H110.361ZM109.311 119.158L106.329 120.754V119.802L109.311 118.052V119.158ZM114.633 122.574C114.857 122.135 115.174 121.795 115.585 121.552C116.005 121.309 116.513 121.188 117.111 121.188V122.504H116.775C115.347 122.504 114.633 123.279 114.633 124.828V129H113.359V121.328H114.633V122.574ZM121.927 129.126C121.209 129.126 120.555 128.963 119.967 128.636C119.389 128.309 118.931 127.847 118.595 127.25C118.269 126.643 118.105 125.943 118.105 125.15C118.105 124.366 118.273 123.675 118.609 123.078C118.955 122.471 119.421 122.009 120.009 121.692C120.597 121.365 121.255 121.202 121.983 121.202C122.711 121.202 123.369 121.365 123.957 121.692C124.545 122.009 125.007 122.467 125.343 123.064C125.689 123.661 125.861 124.357 125.861 125.15C125.861 125.943 125.684 126.643 125.329 127.25C124.984 127.847 124.513 128.309 123.915 128.636C123.318 128.963 122.655 129.126 121.927 129.126ZM121.927 128.006C122.385 128.006 122.814 127.899 123.215 127.684C123.617 127.469 123.939 127.147 124.181 126.718C124.433 126.289 124.559 125.766 124.559 125.15C124.559 124.534 124.438 124.011 124.195 123.582C123.953 123.153 123.635 122.835 123.243 122.63C122.851 122.415 122.427 122.308 121.969 122.308C121.503 122.308 121.073 122.415 120.681 122.63C120.299 122.835 119.991 123.153 119.757 123.582C119.524 124.011 119.407 124.534 119.407 125.15C119.407 125.775 119.519 126.303 119.743 126.732C119.977 127.161 120.285 127.483 120.667 127.698C121.05 127.903 121.47 128.006 121.927 128.006ZM130.793 125.136C130.793 124.352 130.952 123.666 131.269 123.078C131.586 122.481 132.02 122.019 132.571 121.692C133.131 121.365 133.756 121.202 134.447 121.202C135.044 121.202 135.6 121.342 136.113 121.622C136.626 121.893 137.018 122.252 137.289 122.7V118.64H138.577V129H137.289V127.558C137.037 128.015 136.664 128.393 136.169 128.692C135.674 128.981 135.096 129.126 134.433 129.126C133.752 129.126 133.131 128.958 132.571 128.622C132.02 128.286 131.586 127.815 131.269 127.208C130.952 126.601 130.793 125.911 130.793 125.136ZM137.289 125.15C137.289 124.571 137.172 124.067 136.939 123.638C136.706 123.209 136.388 122.882 135.987 122.658C135.595 122.425 135.161 122.308 134.685 122.308C134.209 122.308 133.775 122.42 133.383 122.644C132.991 122.868 132.678 123.195 132.445 123.624C132.212 124.053 132.095 124.557 132.095 125.136C132.095 125.724 132.212 126.237 132.445 126.676C132.678 127.105 132.991 127.437 133.383 127.67C133.775 127.894 134.209 128.006 134.685 128.006C135.161 128.006 135.595 127.894 135.987 127.67C136.388 127.437 136.706 127.105 136.939 126.676C137.172 126.237 137.289 125.729 137.289 125.15ZM147.73 124.87C147.73 125.113 147.716 125.369 147.688 125.64H141.556C141.602 126.396 141.859 126.989 142.326 127.418C142.802 127.838 143.376 128.048 144.048 128.048C144.598 128.048 145.056 127.922 145.42 127.67C145.793 127.409 146.054 127.063 146.204 126.634H147.576C147.37 127.371 146.96 127.973 146.344 128.44C145.728 128.897 144.962 129.126 144.048 129.126C143.32 129.126 142.666 128.963 142.088 128.636C141.518 128.309 141.07 127.847 140.744 127.25C140.417 126.643 140.254 125.943 140.254 125.15C140.254 124.357 140.412 123.661 140.73 123.064C141.047 122.467 141.49 122.009 142.06 121.692C142.638 121.365 143.301 121.202 144.048 121.202C144.776 121.202 145.42 121.361 145.98 121.678C146.54 121.995 146.969 122.434 147.268 122.994C147.576 123.545 147.73 124.17 147.73 124.87ZM146.414 124.604C146.414 124.119 146.306 123.703 146.092 123.358C145.877 123.003 145.583 122.737 145.21 122.56C144.846 122.373 144.44 122.28 143.992 122.28C143.348 122.28 142.797 122.485 142.34 122.896C141.892 123.307 141.635 123.876 141.57 124.604H146.414ZM154.698 122.378V126.9C154.698 127.273 154.777 127.539 154.936 127.698C155.095 127.847 155.37 127.922 155.762 127.922H156.7V129H155.552C154.843 129 154.311 128.837 153.956 128.51C153.601 128.183 153.424 127.647 153.424 126.9V122.378H152.43V121.328H153.424V119.396H154.698V121.328H156.7V122.378H154.698ZM165.243 124.87C165.243 125.113 165.229 125.369 165.201 125.64H159.069C159.116 126.396 159.373 126.989 159.839 127.418C160.315 127.838 160.889 128.048 161.561 128.048C162.112 128.048 162.569 127.922 162.933 127.67C163.307 127.409 163.568 127.063 163.717 126.634H165.089C164.884 127.371 164.473 127.973 163.857 128.44C163.241 128.897 162.476 129.126 161.561 129.126C160.833 129.126 160.18 128.963 159.601 128.636C159.032 128.309 158.584 127.847 158.257 127.25C157.931 126.643 157.767 125.943 157.767 125.15C157.767 124.357 157.926 123.661 158.243 123.064C158.561 122.467 159.004 122.009 159.573 121.692C160.152 121.365 160.815 121.202 161.561 121.202C162.289 121.202 162.933 121.361 163.493 121.678C164.053 121.995 164.483 122.434 164.781 122.994C165.089 123.545 165.243 124.17 165.243 124.87ZM163.927 124.604C163.927 124.119 163.82 123.703 163.605 123.358C163.391 123.003 163.097 122.737 162.723 122.56C162.359 122.373 161.953 122.28 161.505 122.28C160.861 122.28 160.311 122.485 159.853 122.896C159.405 123.307 159.149 123.876 159.083 124.604H163.927ZM162.877 119.158L159.895 120.754V119.802L162.877 118.052V119.158ZM168.199 118.64V129H166.925V118.64H168.199ZM177.37 124.87C177.37 125.113 177.356 125.369 177.328 125.64H171.196C171.243 126.396 171.5 126.989 171.966 127.418C172.442 127.838 173.016 128.048 173.688 128.048C174.239 128.048 174.696 127.922 175.06 127.67C175.434 127.409 175.695 127.063 175.844 126.634H177.216C177.011 127.371 176.6 127.973 175.984 128.44C175.368 128.897 174.603 129.126 173.688 129.126C172.96 129.126 172.307 128.963 171.728 128.636C171.159 128.309 170.711 127.847 170.384 127.25C170.058 126.643 169.894 125.943 169.894 125.15C169.894 124.357 170.053 123.661 170.37 123.064C170.688 122.467 171.131 122.009 171.7 121.692C172.279 121.365 172.942 121.202 173.688 121.202C174.416 121.202 175.06 121.361 175.62 121.678C176.18 121.995 176.61 122.434 176.908 122.994C177.216 123.545 177.37 124.17 177.37 124.87ZM176.054 124.604C176.054 124.119 175.947 123.703 175.732 123.358C175.518 123.003 175.224 122.737 174.85 122.56C174.486 122.373 174.08 122.28 173.632 122.28C172.988 122.28 172.438 122.485 171.98 122.896C171.532 123.307 171.276 123.876 171.21 124.604H176.054ZM175.004 119.158L172.022 120.754V119.802L175.004 118.052V119.158ZM180.326 122.742C180.578 122.303 180.951 121.939 181.446 121.65C181.95 121.351 182.533 121.202 183.196 121.202C183.877 121.202 184.493 121.365 185.044 121.692C185.604 122.019 186.043 122.481 186.36 123.078C186.677 123.666 186.836 124.352 186.836 125.136C186.836 125.911 186.677 126.601 186.36 127.208C186.043 127.815 185.604 128.286 185.044 128.622C184.493 128.958 183.877 129.126 183.196 129.126C182.543 129.126 181.964 128.981 181.46 128.692C180.965 128.393 180.587 128.025 180.326 127.586V132.64H179.052V121.328H180.326V122.742ZM185.534 125.136C185.534 124.557 185.417 124.053 185.184 123.624C184.951 123.195 184.633 122.868 184.232 122.644C183.84 122.42 183.406 122.308 182.93 122.308C182.463 122.308 182.029 122.425 181.628 122.658C181.236 122.882 180.919 123.213 180.676 123.652C180.443 124.081 180.326 124.581 180.326 125.15C180.326 125.729 180.443 126.237 180.676 126.676C180.919 127.105 181.236 127.437 181.628 127.67C182.029 127.894 182.463 128.006 182.93 128.006C183.406 128.006 183.84 127.894 184.232 127.67C184.633 127.437 184.951 127.105 185.184 126.676C185.417 126.237 185.534 125.724 185.534 125.136ZM192.321 121.188C192.9 121.188 193.422 121.314 193.889 121.566C194.356 121.809 194.72 122.177 194.981 122.672C195.252 123.167 195.387 123.769 195.387 124.478V129H194.127V124.66C194.127 123.895 193.936 123.311 193.553 122.91C193.17 122.499 192.648 122.294 191.985 122.294C191.313 122.294 190.776 122.504 190.375 122.924C189.983 123.344 189.787 123.955 189.787 124.758V129H188.513V118.64H189.787V122.42C190.039 122.028 190.384 121.725 190.823 121.51C191.271 121.295 191.77 121.188 192.321 121.188ZM200.814 129.126C200.095 129.126 199.442 128.963 198.854 128.636C198.275 128.309 197.818 127.847 197.482 127.25C197.155 126.643 196.992 125.943 196.992 125.15C196.992 124.366 197.16 123.675 197.496 123.078C197.841 122.471 198.308 122.009 198.896 121.692C199.484 121.365 200.142 121.202 200.87 121.202C201.598 121.202 202.256 121.365 202.844 121.692C203.432 122.009 203.894 122.467 204.23 123.064C204.575 123.661 204.748 124.357 204.748 125.15C204.748 125.943 204.571 126.643 204.216 127.25C203.871 127.847 203.399 128.309 202.802 128.636C202.205 128.963 201.542 129.126 200.814 129.126ZM200.814 128.006C201.271 128.006 201.701 127.899 202.102 127.684C202.503 127.469 202.825 127.147 203.068 126.718C203.32 126.289 203.446 125.766 203.446 125.15C203.446 124.534 203.325 124.011 203.082 123.582C202.839 123.153 202.522 122.835 202.13 122.63C201.738 122.415 201.313 122.308 200.856 122.308C200.389 122.308 199.96 122.415 199.568 122.63C199.185 122.835 198.877 123.153 198.644 123.582C198.411 124.011 198.294 124.534 198.294 125.15C198.294 125.775 198.406 126.303 198.63 126.732C198.863 127.161 199.171 127.483 199.554 127.698C199.937 127.903 200.357 128.006 200.814 128.006ZM210.161 121.188C211.094 121.188 211.85 121.473 212.429 122.042C213.008 122.602 213.297 123.414 213.297 124.478V129H212.037V124.66C212.037 123.895 211.846 123.311 211.463 122.91C211.08 122.499 210.558 122.294 209.895 122.294C209.223 122.294 208.686 122.504 208.285 122.924C207.893 123.344 207.697 123.955 207.697 124.758V129H206.423V121.328H207.697V122.42C207.949 122.028 208.29 121.725 208.719 121.51C209.158 121.295 209.638 121.188 210.161 121.188ZM222.378 124.87C222.378 125.113 222.364 125.369 222.336 125.64H216.204C216.251 126.396 216.508 126.989 216.974 127.418C217.45 127.838 218.024 128.048 218.696 128.048C219.247 128.048 219.704 127.922 220.068 127.67C220.442 127.409 220.703 127.063 220.852 126.634H222.224C222.019 127.371 221.608 127.973 220.992 128.44C220.376 128.897 219.611 129.126 218.696 129.126C217.968 129.126 217.315 128.963 216.736 128.636C216.167 128.309 215.719 127.847 215.392 127.25C215.066 126.643 214.902 125.943 214.902 125.15C214.902 124.357 215.061 123.661 215.378 123.064C215.696 122.467 216.139 122.009 216.708 121.692C217.287 121.365 217.95 121.202 218.696 121.202C219.424 121.202 220.068 121.361 220.628 121.678C221.188 121.995 221.618 122.434 221.916 122.994C222.224 123.545 222.378 124.17 222.378 124.87ZM221.062 124.604C221.062 124.119 220.955 123.703 220.74 123.358C220.526 123.003 220.232 122.737 219.858 122.56C219.494 122.373 219.088 122.28 218.64 122.28C217.996 122.28 217.446 122.485 216.988 122.896C216.54 123.307 216.284 123.876 216.218 124.604H221.062Z" fill="#A7A7A7"/>
<rect x="20.3764" y="172" width="349.247" height="56" rx="28" fill="white"/>
<rect x="20.3764" y="172" width="349.247" height="56" rx="28" stroke="#FF0000" stroke-width="2"/>
<path d="M52.6745 189.971C53.0545 189.971 53.4189 190.122 53.6876 190.391C53.9563 190.659 54.1072 191.024 54.1072 191.404V208.596C54.1072 208.976 53.9563 209.341 53.6876 209.609C53.4189 209.878 53.0545 210.029 52.6745 210.029H44.0783C43.6983 210.029 43.3339 209.878 43.0652 209.609C42.7965 209.341 42.6455 208.976 42.6455 208.596V191.404C42.6455 191.024 42.7965 190.659 43.0652 190.391C43.3339 190.122 43.6983 189.971 44.0783 189.971H52.6745ZM44.0783 188.538C43.3183 188.538 42.5895 188.84 42.0521 189.378C41.5147 189.915 41.2128 190.644 41.2128 191.404V208.596C41.2128 209.356 41.5147 210.085 42.0521 210.622C42.5895 211.16 43.3183 211.462 44.0783 211.462H52.6745C53.4345 211.462 54.1633 211.16 54.7007 210.622C55.2381 210.085 55.5399 209.356 55.5399 208.596V191.404C55.5399 190.644 55.2381 189.915 54.7007 189.378C54.1633 188.84 53.4345 188.538 52.6745 188.538H44.0783Z" fill="#FF0000"/>
<path d="M48.3764 208.596C48.7564 208.596 49.1208 208.445 49.3895 208.177C49.6582 207.908 49.8091 207.544 49.8091 207.164C49.8091 206.784 49.6582 206.419 49.3895 206.151C49.1208 205.882 48.7564 205.731 48.3764 205.731C47.9964 205.731 47.632 205.882 47.3633 206.151C47.0946 206.419 46.9437 206.784 46.9437 207.164C46.9437 207.544 47.0946 207.908 47.3633 208.177C47.632 208.445 47.9964 208.596 48.3764 208.596Z" fill="#FF0000"/>
<path d="M79.1264 205H77.8524L72.7284 197.23V205H71.4544V195.228H72.7284L77.8524 202.984V195.228H79.1264V205ZM88.1022 197.328V205H86.8282V203.866C86.5855 204.258 86.2448 204.566 85.8062 204.79C85.3768 205.005 84.9008 205.112 84.3782 205.112C83.7808 205.112 83.2442 204.991 82.7682 204.748C82.2922 204.496 81.9142 204.123 81.6342 203.628C81.3635 203.133 81.2282 202.531 81.2282 201.822V197.328H82.4882V201.654C82.4882 202.41 82.6795 202.993 83.0622 203.404C83.4448 203.805 83.9675 204.006 84.6302 204.006C85.3115 204.006 85.8482 203.796 86.2402 203.376C86.6322 202.956 86.8282 202.345 86.8282 201.542V197.328H88.1022ZM99.4792 197.188C100.077 197.188 100.609 197.314 101.075 197.566C101.542 197.809 101.911 198.177 102.181 198.672C102.452 199.167 102.587 199.769 102.587 200.478V205H101.327V200.66C101.327 199.895 101.136 199.311 100.753 198.91C100.38 198.499 99.8712 198.294 99.2272 198.294C98.5646 198.294 98.0372 198.509 97.6452 198.938C97.2532 199.358 97.0572 199.969 97.0572 200.772V205H95.7972V200.66C95.7972 199.895 95.6059 199.311 95.2232 198.91C94.8499 198.499 94.3412 198.294 93.6972 198.294C93.0346 198.294 92.5072 198.509 92.1152 198.938C91.7232 199.358 91.5272 199.969 91.5272 200.772V205H90.2532V197.328H91.5272V198.434C91.7792 198.033 92.1152 197.725 92.5352 197.51C92.9646 197.295 93.4359 197.188 93.9492 197.188C94.5932 197.188 95.1626 197.333 95.6572 197.622C96.1519 197.911 96.5206 198.336 96.7632 198.896C96.9779 198.355 97.3326 197.935 97.8272 197.636C98.3219 197.337 98.8726 197.188 99.4792 197.188ZM111.677 200.87C111.677 201.113 111.663 201.369 111.635 201.64H105.503C105.55 202.396 105.806 202.989 106.273 203.418C106.749 203.838 107.323 204.048 107.995 204.048C108.546 204.048 109.003 203.922 109.367 203.67C109.74 203.409 110.002 203.063 110.151 202.634H111.523C111.318 203.371 110.907 203.973 110.291 204.44C109.675 204.897 108.91 205.126 107.995 205.126C107.267 205.126 106.614 204.963 106.035 204.636C105.466 204.309 105.018 203.847 104.691 203.25C104.364 202.643 104.201 201.943 104.201 201.15C104.201 200.357 104.36 199.661 104.677 199.064C104.994 198.467 105.438 198.009 106.007 197.692C106.586 197.365 107.248 197.202 107.995 197.202C108.723 197.202 109.367 197.361 109.927 197.678C110.487 197.995 110.916 198.434 111.215 198.994C111.523 199.545 111.677 200.17 111.677 200.87ZM110.361 200.604C110.361 200.119 110.254 199.703 110.039 199.358C109.824 199.003 109.53 198.737 109.157 198.56C108.793 198.373 108.387 198.28 107.939 198.28C107.295 198.28 106.744 198.485 106.287 198.896C105.839 199.307 105.582 199.876 105.517 200.604H110.361ZM109.311 195.158L106.329 196.754V195.802L109.311 194.052V195.158ZM114.633 198.574C114.857 198.135 115.174 197.795 115.585 197.552C116.005 197.309 116.513 197.188 117.111 197.188V198.504H116.775C115.347 198.504 114.633 199.279 114.633 200.828V205H113.359V197.328H114.633V198.574ZM121.927 205.126C121.209 205.126 120.555 204.963 119.967 204.636C119.389 204.309 118.931 203.847 118.595 203.25C118.269 202.643 118.105 201.943 118.105 201.15C118.105 200.366 118.273 199.675 118.609 199.078C118.955 198.471 119.421 198.009 120.009 197.692C120.597 197.365 121.255 197.202 121.983 197.202C122.711 197.202 123.369 197.365 123.957 197.692C124.545 198.009 125.007 198.467 125.343 199.064C125.689 199.661 125.861 200.357 125.861 201.15C125.861 201.943 125.684 202.643 125.329 203.25C124.984 203.847 124.513 204.309 123.915 204.636C123.318 204.963 122.655 205.126 121.927 205.126ZM121.927 204.006C122.385 204.006 122.814 203.899 123.215 203.684C123.617 203.469 123.939 203.147 124.181 202.718C124.433 202.289 124.559 201.766 124.559 201.15C124.559 200.534 124.438 200.011 124.195 199.582C123.953 199.153 123.635 198.835 123.243 198.63C122.851 198.415 122.427 198.308 121.969 198.308C121.503 198.308 121.073 198.415 120.681 198.63C120.299 198.835 119.991 199.153 119.757 199.582C119.524 200.011 119.407 200.534 119.407 201.15C119.407 201.775 119.519 202.303 119.743 202.732C119.977 203.161 120.285 203.483 120.667 203.698C121.05 203.903 121.47 204.006 121.927 204.006ZM130.793 201.136C130.793 200.352 130.952 199.666 131.269 199.078C131.586 198.481 132.02 198.019 132.571 197.692C133.131 197.365 133.756 197.202 134.447 197.202C135.044 197.202 135.6 197.342 136.113 197.622C136.626 197.893 137.018 198.252 137.289 198.7V194.64H138.577V205H137.289V203.558C137.037 204.015 136.664 204.393 136.169 204.692C135.674 204.981 135.096 205.126 134.433 205.126C133.752 205.126 133.131 204.958 132.571 204.622C132.02 204.286 131.586 203.815 131.269 203.208C130.952 202.601 130.793 201.911 130.793 201.136ZM137.289 201.15C137.289 200.571 137.172 200.067 136.939 199.638C136.706 199.209 136.388 198.882 135.987 198.658C135.595 198.425 135.161 198.308 134.685 198.308C134.209 198.308 133.775 198.42 133.383 198.644C132.991 198.868 132.678 199.195 132.445 199.624C132.212 200.053 132.095 200.557 132.095 201.136C132.095 201.724 132.212 202.237 132.445 202.676C132.678 203.105 132.991 203.437 133.383 203.67C133.775 203.894 134.209 204.006 134.685 204.006C135.161 204.006 135.595 203.894 135.987 203.67C136.388 203.437 136.706 203.105 136.939 202.676C137.172 202.237 137.289 201.729 137.289 201.15ZM147.73 200.87C147.73 201.113 147.716 201.369 147.688 201.64H141.556C141.602 202.396 141.859 202.989 142.326 203.418C142.802 203.838 143.376 204.048 144.048 204.048C144.598 204.048 145.056 203.922 145.42 203.67C145.793 203.409 146.054 203.063 146.204 202.634H147.576C147.37 203.371 146.96 203.973 146.344 204.44C145.728 204.897 144.962 205.126 144.048 205.126C143.32 205.126 142.666 204.963 142.088 204.636C141.518 204.309 141.07 203.847 140.744 203.25C140.417 202.643 140.254 201.943 140.254 201.15C140.254 200.357 140.412 199.661 140.73 199.064C141.047 198.467 141.49 198.009 142.06 197.692C142.638 197.365 143.301 197.202 144.048 197.202C144.776 197.202 145.42 197.361 145.98 197.678C146.54 197.995 146.969 198.434 147.268 198.994C147.576 199.545 147.73 200.17 147.73 200.87ZM146.414 200.604C146.414 200.119 146.306 199.703 146.092 199.358C145.877 199.003 145.583 198.737 145.21 198.56C144.846 198.373 144.44 198.28 143.992 198.28C143.348 198.28 142.797 198.485 142.34 198.896C141.892 199.307 141.635 199.876 141.57 200.604H146.414ZM154.698 198.378V202.9C154.698 203.273 154.777 203.539 154.936 203.698C155.095 203.847 155.37 203.922 155.762 203.922H156.7V205H155.552C154.843 205 154.311 204.837 153.956 204.51C153.601 204.183 153.424 203.647 153.424 202.9V198.378H152.43V197.328H153.424V195.396H154.698V197.328H156.7V198.378H154.698ZM165.243 200.87C165.243 201.113 165.229 201.369 165.201 201.64H159.069C159.116 202.396 159.373 202.989 159.839 203.418C160.315 203.838 160.889 204.048 161.561 204.048C162.112 204.048 162.569 203.922 162.933 203.67C163.307 203.409 163.568 203.063 163.717 202.634H165.089C164.884 203.371 164.473 203.973 163.857 204.44C163.241 204.897 162.476 205.126 161.561 205.126C160.833 205.126 160.18 204.963 159.601 204.636C159.032 204.309 158.584 203.847 158.257 203.25C157.931 202.643 157.767 201.943 157.767 201.15C157.767 200.357 157.926 199.661 158.243 199.064C158.561 198.467 159.004 198.009 159.573 197.692C160.152 197.365 160.815 197.202 161.561 197.202C162.289 197.202 162.933 197.361 163.493 197.678C164.053 197.995 164.483 198.434 164.781 198.994C165.089 199.545 165.243 200.17 165.243 200.87ZM163.927 200.604C163.927 200.119 163.82 199.703 163.605 199.358C163.391 199.003 163.097 198.737 162.723 198.56C162.359 198.373 161.953 198.28 161.505 198.28C160.861 198.28 160.311 198.485 159.853 198.896C159.405 199.307 159.149 199.876 159.083 200.604H163.927ZM162.877 195.158L159.895 196.754V195.802L162.877 194.052V195.158ZM168.199 194.64V205H166.925V194.64H168.199ZM177.37 200.87C177.37 201.113 177.356 201.369 177.328 201.64H171.196C171.243 202.396 171.5 202.989 171.966 203.418C172.442 203.838 173.016 204.048 173.688 204.048C174.239 204.048 174.696 203.922 175.06 203.67C175.434 203.409 175.695 203.063 175.844 202.634H177.216C177.011 203.371 176.6 203.973 175.984 204.44C175.368 204.897 174.603 205.126 173.688 205.126C172.96 205.126 172.307 204.963 171.728 204.636C171.159 204.309 170.711 203.847 170.384 203.25C170.058 202.643 169.894 201.943 169.894 201.15C169.894 200.357 170.053 199.661 170.37 199.064C170.688 198.467 171.131 198.009 171.7 197.692C172.279 197.365 172.942 197.202 173.688 197.202C174.416 197.202 175.06 197.361 175.62 197.678C176.18 197.995 176.61 198.434 176.908 198.994C177.216 199.545 177.37 200.17 177.37 200.87ZM176.054 200.604C176.054 200.119 175.947 199.703 175.732 199.358C175.518 199.003 175.224 198.737 174.85 198.56C174.486 198.373 174.08 198.28 173.632 198.28C172.988 198.28 172.438 198.485 171.98 198.896C171.532 199.307 171.276 199.876 171.21 200.604H176.054ZM175.004 195.158L172.022 196.754V195.802L175.004 194.052V195.158ZM180.326 198.742C180.578 198.303 180.951 197.939 181.446 197.65C181.95 197.351 182.533 197.202 183.196 197.202C183.877 197.202 184.493 197.365 185.044 197.692C185.604 198.019 186.043 198.481 186.36 199.078C186.677 199.666 186.836 200.352 186.836 201.136C186.836 201.911 186.677 202.601 186.36 203.208C186.043 203.815 185.604 204.286 185.044 204.622C184.493 204.958 183.877 205.126 183.196 205.126C182.543 205.126 181.964 204.981 181.46 204.692C180.965 204.393 180.587 204.025 180.326 203.586V208.64H179.052V197.328H180.326V198.742ZM185.534 201.136C185.534 200.557 185.417 200.053 185.184 199.624C184.951 199.195 184.633 198.868 184.232 198.644C183.84 198.42 183.406 198.308 182.93 198.308C182.463 198.308 182.029 198.425 181.628 198.658C181.236 198.882 180.919 199.213 180.676 199.652C180.443 200.081 180.326 200.581 180.326 201.15C180.326 201.729 180.443 202.237 180.676 202.676C180.919 203.105 181.236 203.437 181.628 203.67C182.029 203.894 182.463 204.006 182.93 204.006C183.406 204.006 183.84 203.894 184.232 203.67C184.633 203.437 184.951 203.105 185.184 202.676C185.417 202.237 185.534 201.724 185.534 201.136ZM192.321 197.188C192.9 197.188 193.422 197.314 193.889 197.566C194.356 197.809 194.72 198.177 194.981 198.672C195.252 199.167 195.387 199.769 195.387 200.478V205H194.127V200.66C194.127 199.895 193.936 199.311 193.553 198.91C193.17 198.499 192.648 198.294 191.985 198.294C191.313 198.294 190.776 198.504 190.375 198.924C189.983 199.344 189.787 199.955 189.787 200.758V205H188.513V194.64H189.787V198.42C190.039 198.028 190.384 197.725 190.823 197.51C191.271 197.295 191.77 197.188 192.321 197.188ZM200.814 205.126C200.095 205.126 199.442 204.963 198.854 204.636C198.275 204.309 197.818 203.847 197.482 203.25C197.155 202.643 196.992 201.943 196.992 201.15C196.992 200.366 197.16 199.675 197.496 199.078C197.841 198.471 198.308 198.009 198.896 197.692C199.484 197.365 200.142 197.202 200.87 197.202C201.598 197.202 202.256 197.365 202.844 197.692C203.432 198.009 203.894 198.467 204.23 199.064C204.575 199.661 204.748 200.357 204.748 201.15C204.748 201.943 204.571 202.643 204.216 203.25C203.871 203.847 203.399 204.309 202.802 204.636C202.205 204.963 201.542 205.126 200.814 205.126ZM200.814 204.006C201.271 204.006 201.701 203.899 202.102 203.684C202.503 203.469 202.825 203.147 203.068 202.718C203.32 202.289 203.446 201.766 203.446 201.15C203.446 200.534 203.325 200.011 203.082 199.582C202.839 199.153 202.522 198.835 202.13 198.63C201.738 198.415 201.313 198.308 200.856 198.308C200.389 198.308 199.96 198.415 199.568 198.63C199.185 198.835 198.877 199.153 198.644 199.582C198.411 200.011 198.294 200.534 198.294 201.15C198.294 201.775 198.406 202.303 198.63 202.732C198.863 203.161 199.171 203.483 199.554 203.698C199.937 203.903 200.357 204.006 200.814 204.006ZM210.161 197.188C211.094 197.188 211.85 197.473 212.429 198.042C213.008 198.602 213.297 199.414 213.297 200.478V205H212.037V200.66C212.037 199.895 211.846 199.311 211.463 198.91C211.08 198.499 210.558 198.294 209.895 198.294C209.223 198.294 208.686 198.504 208.285 198.924C207.893 199.344 207.697 199.955 207.697 200.758V205H206.423V197.328H207.697V198.42C207.949 198.028 208.29 197.725 208.719 197.51C209.158 197.295 209.638 197.188 210.161 197.188ZM222.378 200.87C222.378 201.113 222.364 201.369 222.336 201.64H216.204C216.251 202.396 216.508 202.989 216.974 203.418C217.45 203.838 218.024 204.048 218.696 204.048C219.247 204.048 219.704 203.922 220.068 203.67C220.442 203.409 220.703 203.063 220.852 202.634H222.224C222.019 203.371 221.608 203.973 220.992 204.44C220.376 204.897 219.611 205.126 218.696 205.126C217.968 205.126 217.315 204.963 216.736 204.636C216.167 204.309 215.719 203.847 215.392 203.25C215.066 202.643 214.902 201.943 214.902 201.15C214.902 200.357 215.061 199.661 215.378 199.064C215.696 198.467 216.139 198.009 216.708 197.692C217.287 197.365 217.95 197.202 218.696 197.202C219.424 197.202 220.068 197.361 220.628 197.678C221.188 197.995 221.618 198.434 221.916 198.994C222.224 199.545 222.378 200.17 222.378 200.87ZM221.062 200.604C221.062 200.119 220.955 199.703 220.74 199.358C220.526 199.003 220.232 198.737 219.858 198.56C219.494 198.373 219.088 198.28 218.64 198.28C217.996 198.28 217.446 198.485 216.988 198.896C216.54 199.307 216.284 199.876 216.218 200.604H221.062Z" fill="#A7A7A7"/>
</svg>
