<svg width="351" height="45" viewBox="0 0 351 45" fill="none" xmlns="http://www.w3.org/2000/svg">
<rect x="1" y="2" width="165" height="41" rx="20.5" fill="#FFC244"/>
<rect x="1" y="2" width="165" height="41" rx="20.5" stroke="#C58400" stroke-width="2"/>
<path d="M46.16 15.86H54.818V18.452H48.842V21.188H54.458V23.78H48.842V29H46.16V15.86ZM56.4917 19.1H58.7957L58.9757 20.522C59.5637 19.526 60.5417 19.028 61.9097 19.028C62.2577 19.028 62.5577 19.052 62.8097 19.1L62.2877 21.53C62.1437 21.506 62.0417 21.494 61.9817 21.494C61.1417 21.494 60.4397 21.752 59.8757 22.268C59.3117 22.772 59.0297 23.63 59.0297 24.842V29H56.4917V19.1ZM65.1256 20.432C66.0376 19.436 67.1416 18.938 68.4376 18.938C69.1096 18.938 69.7276 19.106 70.2916 19.442C70.8556 19.778 71.2876 20.21 71.5876 20.738L71.7496 19.1H74.0536V29H71.7496L71.5876 27.344C71.2876 27.872 70.8556 28.304 70.2916 28.64C69.7276 28.976 69.1096 29.144 68.4376 29.144C67.1416 29.144 66.0376 28.646 65.1256 27.65C64.2136 26.642 63.7576 25.436 63.7576 24.032C63.7576 22.628 64.2136 21.428 65.1256 20.432ZM67.0696 25.868C67.5736 26.384 68.1856 26.642 68.9056 26.642C69.6376 26.642 70.2556 26.39 70.7596 25.886C71.2636 25.37 71.5156 24.752 71.5156 24.032C71.5156 23.312 71.2636 22.7 70.7596 22.196C70.2556 21.68 69.6376 21.422 68.9056 21.422C68.1856 21.422 67.5736 21.68 67.0696 22.196C66.5656 22.7 66.3136 23.312 66.3136 24.032C66.3136 24.752 66.5656 25.364 67.0696 25.868ZM76.1616 29V19.1H78.4656L78.6276 20.54C78.9156 20.06 79.2936 19.676 79.7616 19.388C80.2416 19.088 80.7816 18.938 81.3816 18.938C82.5816 18.938 83.5296 19.352 84.2256 20.18C84.9336 21.008 85.2876 22.262 85.2876 23.942V29H82.7676V23.942C82.7676 23.114 82.5696 22.49 82.1736 22.07C81.7896 21.638 81.3096 21.422 80.7336 21.422C80.1456 21.422 79.6596 21.638 79.2756 22.07C78.8916 22.49 78.6996 23.114 78.6996 23.942V29H76.1616ZM88.2614 20.45C89.2454 19.454 90.4394 18.956 91.8434 18.956C92.6834 18.956 93.4694 19.154 94.2014 19.55C94.9334 19.934 95.5394 20.456 96.0194 21.116L93.9314 22.502C93.4154 21.854 92.7194 21.53 91.8434 21.53C91.1474 21.53 90.5534 21.776 90.0614 22.268C89.5694 22.76 89.3234 23.354 89.3234 24.05C89.3234 24.758 89.5694 25.358 90.0614 25.85C90.5534 26.342 91.1474 26.588 91.8434 26.588C92.7674 26.588 93.4754 26.228 93.9674 25.508L96.0734 26.912C95.6054 27.596 94.9994 28.142 94.2554 28.55C93.5114 28.958 92.7074 29.162 91.8434 29.162C90.4394 29.162 89.2394 28.664 88.2434 27.668C87.2594 26.66 86.7674 25.454 86.7674 24.05C86.7674 22.646 87.2654 21.446 88.2614 20.45ZM98.5065 20.432C99.4185 19.436 100.523 18.938 101.819 18.938C102.491 18.938 103.109 19.106 103.673 19.442C104.237 19.778 104.669 20.21 104.969 20.738L105.131 19.1H107.435V29H105.131L104.969 27.344C104.669 27.872 104.237 28.304 103.673 28.64C103.109 28.976 102.491 29.144 101.819 29.144C100.523 29.144 99.4185 28.646 98.5065 27.65C97.5945 26.642 97.1385 25.436 97.1385 24.032C97.1385 22.628 97.5945 21.428 98.5065 20.432ZM100.451 25.868C100.955 26.384 101.567 26.642 102.287 26.642C103.019 26.642 103.637 26.39 104.141 25.886C104.645 25.37 104.897 24.752 104.897 24.032C104.897 23.312 104.645 22.7 104.141 22.196C103.637 21.68 103.019 21.422 102.287 21.422C101.567 21.422 100.955 21.68 100.451 22.196C99.9465 22.7 99.6945 23.312 99.6945 24.032C99.6945 24.752 99.9465 25.364 100.451 25.868ZM109.542 19.1H112.08V29H109.542V19.1ZM109.794 15.824C110.082 15.536 110.424 15.392 110.82 15.392C111.204 15.392 111.54 15.536 111.828 15.824C112.116 16.112 112.26 16.454 112.26 16.85C112.26 17.246 112.116 17.588 111.828 17.876C111.54 18.164 111.204 18.308 110.82 18.308C110.424 18.308 110.082 18.164 109.794 17.876C109.506 17.588 109.362 17.246 109.362 16.85C109.362 16.454 109.506 16.112 109.794 15.824ZM115.515 25.886C115.815 26.186 116.229 26.426 116.757 26.606C117.285 26.786 117.801 26.876 118.305 26.876C119.301 26.876 119.799 26.618 119.799 26.102C119.799 25.874 119.601 25.688 119.205 25.544C118.821 25.388 118.347 25.25 117.783 25.13C117.231 24.998 116.673 24.83 116.109 24.626C115.557 24.422 115.083 24.086 114.687 23.618C114.303 23.15 114.111 22.562 114.111 21.854C114.111 20.966 114.465 20.252 115.173 19.712C115.881 19.172 116.811 18.902 117.963 18.902C119.787 18.902 121.161 19.448 122.085 20.54L120.573 22.07C120.297 21.77 119.913 21.542 119.421 21.386C118.941 21.23 118.479 21.152 118.035 21.152C117.603 21.152 117.261 21.218 117.009 21.35C116.769 21.47 116.649 21.638 116.649 21.854C116.649 22.058 116.841 22.232 117.225 22.376C117.621 22.508 118.101 22.64 118.665 22.772C119.229 22.892 119.787 23.054 120.339 23.258C120.903 23.462 121.377 23.798 121.761 24.266C122.157 24.734 122.355 25.316 122.355 26.012C122.355 27.068 121.971 27.872 121.203 28.424C120.447 28.964 119.481 29.234 118.305 29.234C117.489 29.234 116.667 29.096 115.839 28.82C115.023 28.532 114.345 28.106 113.805 27.542L115.515 25.886Z" fill="black"/>
<rect x="183" y="1" width="167" height="43" rx="21.5" fill="white"/>
<rect x="183" y="1" width="167" height="43" rx="21.5" stroke="black"/>
<path d="M242.979 21.314C243.855 20.438 244.911 20 246.147 20H250.503V25.184C250.503 25.604 250.593 25.934 250.773 26.174C250.965 26.414 251.241 26.534 251.601 26.534H252.177V29H251.601C250.449 29 249.627 28.538 249.135 27.614C248.403 28.538 247.407 29 246.147 29C244.899 29 243.837 28.568 242.961 27.704C242.085 26.828 241.647 25.766 241.647 24.518C241.647 23.27 242.091 22.202 242.979 21.314ZM244.707 25.94C245.103 26.336 245.583 26.534 246.147 26.534C246.675 26.534 247.119 26.348 247.479 25.976C247.839 25.592 248.019 25.1 248.019 24.5V22.466H246.147C245.583 22.466 245.103 22.664 244.707 23.06C244.311 23.456 244.113 23.936 244.113 24.5C244.113 25.064 244.311 25.544 244.707 25.94ZM243.447 17.858C243.447 17.486 243.579 17.168 243.843 16.904C244.107 16.64 244.425 16.508 244.797 16.508C245.169 16.508 245.487 16.64 245.751 16.904C246.015 17.168 246.147 17.486 246.147 17.858C246.147 18.23 246.015 18.548 245.751 18.812C245.487 19.076 245.169 19.208 244.797 19.208C244.425 19.208 244.107 19.076 243.843 18.812C243.579 18.548 243.447 18.23 243.447 17.858ZM246.795 17.858C246.795 17.486 246.921 17.168 247.173 16.904C247.437 16.64 247.755 16.508 248.127 16.508C248.499 16.508 248.817 16.64 249.081 16.904C249.345 17.168 249.477 17.486 249.477 17.858C249.477 18.23 249.345 18.548 249.081 18.812C248.817 19.076 248.499 19.208 248.127 19.208C247.755 19.208 247.437 19.076 247.173 18.812C246.921 18.548 246.795 18.23 246.795 17.858ZM251.82 26.534H253.242C253.59 26.534 253.86 26.414 254.052 26.174C254.244 25.934 254.34 25.604 254.34 25.184V20.018L256.806 20V25.184C256.806 25.604 256.902 25.934 257.094 26.174C257.286 26.414 257.562 26.534 257.922 26.534H259.362V29H257.922C256.902 29 256.122 28.634 255.582 27.902C255.018 28.634 254.238 29 253.242 29H251.82V26.534ZM252.576 31.538C252.576 31.166 252.708 30.848 252.972 30.584C253.236 30.332 253.554 30.206 253.926 30.206C254.298 30.206 254.61 30.332 254.862 30.584C255.126 30.848 255.258 31.166 255.258 31.538C255.258 31.91 255.132 32.228 254.88 32.492C254.616 32.756 254.298 32.888 253.926 32.888C253.554 32.888 253.236 32.756 252.972 32.492C252.708 32.228 252.576 31.91 252.576 31.538ZM256.32 30.602C256.572 30.338 256.884 30.206 257.256 30.206C257.628 30.206 257.946 30.332 258.21 30.584C258.474 30.848 258.606 31.166 258.606 31.538C258.606 31.91 258.474 32.228 258.21 32.492C257.946 32.756 257.628 32.888 257.256 32.888C256.884 32.888 256.566 32.756 256.302 32.492C256.05 32.228 255.924 31.91 255.924 31.538C255.924 31.166 256.056 30.854 256.32 30.602ZM259.009 29V26.534H259.513C259.873 26.534 260.143 26.414 260.323 26.174C260.515 25.934 260.611 25.604 260.611 25.184V20H263.095V25.184C263.095 26.3 262.765 27.218 262.105 27.938C261.445 28.646 260.581 29 259.513 29H259.009ZM260.863 30.476C261.127 30.2 261.451 30.062 261.835 30.062C262.219 30.062 262.549 30.2 262.825 30.476C263.101 30.752 263.239 31.082 263.239 31.466C263.239 31.85 263.101 32.18 262.825 32.456C262.549 32.732 262.219 32.87 261.835 32.87C261.451 32.87 261.121 32.732 260.845 32.456C260.581 32.18 260.449 31.85 260.449 31.466C260.449 31.082 260.587 30.752 260.863 30.476ZM263.516 30.656C263.708 30.728 263.936 30.764 264.2 30.764C265.316 30.764 265.874 30.116 265.874 28.82V20L268.34 19.982V26.534H269.96V29H268.34V29.378C268.34 30.506 268.004 31.424 267.332 32.132C266.66 32.84 265.634 33.194 264.254 33.194C263.738 33.194 263.264 33.122 262.832 32.978L263.516 30.656ZM272.939 26.534L270.779 23.312V20H277.817C278.837 20 279.665 20.216 280.301 20.648C280.949 21.068 281.273 21.716 281.273 22.592C281.273 23.228 281.075 23.852 280.679 24.464C280.295 25.076 279.749 25.766 279.041 26.534H282.443L282.461 29H269.609V26.534H272.939ZM275.873 26.534H276.269C276.713 26.054 277.007 25.73 277.151 25.562C277.307 25.394 277.517 25.148 277.781 24.824C278.057 24.5 278.237 24.236 278.321 24.032C278.417 23.828 278.465 23.636 278.465 23.456C278.465 23.072 278.333 22.814 278.069 22.682C277.817 22.538 277.415 22.466 276.863 22.466H273.749V23.276L275.873 26.534ZM282.107 26.534H282.611C282.971 26.534 283.241 26.414 283.421 26.174C283.613 25.934 283.709 25.604 283.709 25.184V14.96H286.193V25.184C286.193 26.3 285.863 27.218 285.203 27.938C284.543 28.646 283.679 29 282.611 29H282.107V26.534ZM291.251 29H288.785V14.96H291.251V29Z" fill="black"/>
</svg>
