<svg width="351" height="45" viewBox="0 0 351 45" fill="none" xmlns="http://www.w3.org/2000/svg">
<rect x="1" y="1" width="167" height="43" rx="21.5" fill="white"/>
<rect x="1" y="1" width="167" height="43" rx="21.5" stroke="black"/>
<path d="M47.16 15.86H55.818V18.452H49.842V21.188H55.458V23.78H49.842V29H47.16V15.86ZM57.4917 19.1H59.7957L59.9757 20.522C60.5637 19.526 61.5417 19.028 62.9097 19.028C63.2577 19.028 63.5577 19.052 63.8097 19.1L63.2877 21.53C63.1437 21.506 63.0417 21.494 62.9817 21.494C62.1417 21.494 61.4397 21.752 60.8757 22.268C60.3117 22.772 60.0297 23.63 60.0297 24.842V29H57.4917V19.1ZM66.1256 20.432C67.0376 19.436 68.1416 18.938 69.4376 18.938C70.1096 18.938 70.7276 19.106 71.2916 19.442C71.8556 19.778 72.2876 20.21 72.5876 20.738L72.7496 19.1H75.0536V29H72.7496L72.5876 27.344C72.2876 27.872 71.8556 28.304 71.2916 28.64C70.7276 28.976 70.1096 29.144 69.4376 29.144C68.1416 29.144 67.0376 28.646 66.1256 27.65C65.2136 26.642 64.7576 25.436 64.7576 24.032C64.7576 22.628 65.2136 21.428 66.1256 20.432ZM68.0696 25.868C68.5736 26.384 69.1856 26.642 69.9056 26.642C70.6376 26.642 71.2556 26.39 71.7596 25.886C72.2636 25.37 72.5156 24.752 72.5156 24.032C72.5156 23.312 72.2636 22.7 71.7596 22.196C71.2556 21.68 70.6376 21.422 69.9056 21.422C69.1856 21.422 68.5736 21.68 68.0696 22.196C67.5656 22.7 67.3136 23.312 67.3136 24.032C67.3136 24.752 67.5656 25.364 68.0696 25.868ZM77.1616 29V19.1H79.4656L79.6276 20.54C79.9156 20.06 80.2936 19.676 80.7616 19.388C81.2416 19.088 81.7816 18.938 82.3816 18.938C83.5816 18.938 84.5296 19.352 85.2256 20.18C85.9336 21.008 86.2876 22.262 86.2876 23.942V29H83.7676V23.942C83.7676 23.114 83.5696 22.49 83.1736 22.07C82.7896 21.638 82.3096 21.422 81.7336 21.422C81.1456 21.422 80.6596 21.638 80.2756 22.07C79.8916 22.49 79.6996 23.114 79.6996 23.942V29H77.1616ZM89.2614 20.45C90.2454 19.454 91.4394 18.956 92.8434 18.956C93.6834 18.956 94.4694 19.154 95.2014 19.55C95.9334 19.934 96.5394 20.456 97.0194 21.116L94.9314 22.502C94.4154 21.854 93.7194 21.53 92.8434 21.53C92.1474 21.53 91.5534 21.776 91.0614 22.268C90.5694 22.76 90.3234 23.354 90.3234 24.05C90.3234 24.758 90.5694 25.358 91.0614 25.85C91.5534 26.342 92.1474 26.588 92.8434 26.588C93.7674 26.588 94.4754 26.228 94.9674 25.508L97.0734 26.912C96.6054 27.596 95.9994 28.142 95.2554 28.55C94.5114 28.958 93.7074 29.162 92.8434 29.162C91.4394 29.162 90.2394 28.664 89.2434 27.668C88.2594 26.66 87.7674 25.454 87.7674 24.05C87.7674 22.646 88.2654 21.446 89.2614 20.45ZM99.5065 20.432C100.419 19.436 101.523 18.938 102.819 18.938C103.491 18.938 104.109 19.106 104.673 19.442C105.237 19.778 105.669 20.21 105.969 20.738L106.131 19.1H108.435V29H106.131L105.969 27.344C105.669 27.872 105.237 28.304 104.673 28.64C104.109 28.976 103.491 29.144 102.819 29.144C101.523 29.144 100.419 28.646 99.5065 27.65C98.5945 26.642 98.1385 25.436 98.1385 24.032C98.1385 22.628 98.5945 21.428 99.5065 20.432ZM101.451 25.868C101.955 26.384 102.567 26.642 103.287 26.642C104.019 26.642 104.637 26.39 105.141 25.886C105.645 25.37 105.897 24.752 105.897 24.032C105.897 23.312 105.645 22.7 105.141 22.196C104.637 21.68 104.019 21.422 103.287 21.422C102.567 21.422 101.955 21.68 101.451 22.196C100.947 22.7 100.695 23.312 100.695 24.032C100.695 24.752 100.947 25.364 101.451 25.868ZM110.542 19.1H113.08V29H110.542V19.1ZM110.794 15.824C111.082 15.536 111.424 15.392 111.82 15.392C112.204 15.392 112.54 15.536 112.828 15.824C113.116 16.112 113.26 16.454 113.26 16.85C113.26 17.246 113.116 17.588 112.828 17.876C112.54 18.164 112.204 18.308 111.82 18.308C111.424 18.308 111.082 18.164 110.794 17.876C110.506 17.588 110.362 17.246 110.362 16.85C110.362 16.454 110.506 16.112 110.794 15.824ZM116.515 25.886C116.815 26.186 117.229 26.426 117.757 26.606C118.285 26.786 118.801 26.876 119.305 26.876C120.301 26.876 120.799 26.618 120.799 26.102C120.799 25.874 120.601 25.688 120.205 25.544C119.821 25.388 119.347 25.25 118.783 25.13C118.231 24.998 117.673 24.83 117.109 24.626C116.557 24.422 116.083 24.086 115.687 23.618C115.303 23.15 115.111 22.562 115.111 21.854C115.111 20.966 115.465 20.252 116.173 19.712C116.881 19.172 117.811 18.902 118.963 18.902C120.787 18.902 122.161 19.448 123.085 20.54L121.573 22.07C121.297 21.77 120.913 21.542 120.421 21.386C119.941 21.23 119.479 21.152 119.035 21.152C118.603 21.152 118.261 21.218 118.009 21.35C117.769 21.47 117.649 21.638 117.649 21.854C117.649 22.058 117.841 22.232 118.225 22.376C118.621 22.508 119.101 22.64 119.665 22.772C120.229 22.892 120.787 23.054 121.339 23.258C121.903 23.462 122.377 23.798 122.761 24.266C123.157 24.734 123.355 25.316 123.355 26.012C123.355 27.068 122.971 27.872 122.203 28.424C121.447 28.964 120.481 29.234 119.305 29.234C118.489 29.234 117.667 29.096 116.839 28.82C116.023 28.532 115.345 28.106 114.805 27.542L116.515 25.886Z" fill="black"/>
<rect x="185" y="2" width="165" height="41" rx="20.5" fill="#FFC244"/>
<rect x="185" y="2" width="165" height="41" rx="20.5" stroke="#C58400" stroke-width="2"/>
<path d="M243.979 21.314C244.855 20.438 245.911 20 247.147 20H251.503V25.184C251.503 25.604 251.593 25.934 251.773 26.174C251.965 26.414 252.241 26.534 252.601 26.534H253.177V29H252.601C251.449 29 250.627 28.538 250.135 27.614C249.403 28.538 248.407 29 247.147 29C245.899 29 244.837 28.568 243.961 27.704C243.085 26.828 242.647 25.766 242.647 24.518C242.647 23.27 243.091 22.202 243.979 21.314ZM245.707 25.94C246.103 26.336 246.583 26.534 247.147 26.534C247.675 26.534 248.119 26.348 248.479 25.976C248.839 25.592 249.019 25.1 249.019 24.5V22.466H247.147C246.583 22.466 246.103 22.664 245.707 23.06C245.311 23.456 245.113 23.936 245.113 24.5C245.113 25.064 245.311 25.544 245.707 25.94ZM244.447 17.858C244.447 17.486 244.579 17.168 244.843 16.904C245.107 16.64 245.425 16.508 245.797 16.508C246.169 16.508 246.487 16.64 246.751 16.904C247.015 17.168 247.147 17.486 247.147 17.858C247.147 18.23 247.015 18.548 246.751 18.812C246.487 19.076 246.169 19.208 245.797 19.208C245.425 19.208 245.107 19.076 244.843 18.812C244.579 18.548 244.447 18.23 244.447 17.858ZM247.795 17.858C247.795 17.486 247.921 17.168 248.173 16.904C248.437 16.64 248.755 16.508 249.127 16.508C249.499 16.508 249.817 16.64 250.081 16.904C250.345 17.168 250.477 17.486 250.477 17.858C250.477 18.23 250.345 18.548 250.081 18.812C249.817 19.076 249.499 19.208 249.127 19.208C248.755 19.208 248.437 19.076 248.173 18.812C247.921 18.548 247.795 18.23 247.795 17.858ZM252.82 26.534H254.242C254.59 26.534 254.86 26.414 255.052 26.174C255.244 25.934 255.34 25.604 255.34 25.184V20.018L257.806 20V25.184C257.806 25.604 257.902 25.934 258.094 26.174C258.286 26.414 258.562 26.534 258.922 26.534H260.362V29H258.922C257.902 29 257.122 28.634 256.582 27.902C256.018 28.634 255.238 29 254.242 29H252.82V26.534ZM253.576 31.538C253.576 31.166 253.708 30.848 253.972 30.584C254.236 30.332 254.554 30.206 254.926 30.206C255.298 30.206 255.61 30.332 255.862 30.584C256.126 30.848 256.258 31.166 256.258 31.538C256.258 31.91 256.132 32.228 255.88 32.492C255.616 32.756 255.298 32.888 254.926 32.888C254.554 32.888 254.236 32.756 253.972 32.492C253.708 32.228 253.576 31.91 253.576 31.538ZM257.32 30.602C257.572 30.338 257.884 30.206 258.256 30.206C258.628 30.206 258.946 30.332 259.21 30.584C259.474 30.848 259.606 31.166 259.606 31.538C259.606 31.91 259.474 32.228 259.21 32.492C258.946 32.756 258.628 32.888 258.256 32.888C257.884 32.888 257.566 32.756 257.302 32.492C257.05 32.228 256.924 31.91 256.924 31.538C256.924 31.166 257.056 30.854 257.32 30.602ZM260.009 29V26.534H260.513C260.873 26.534 261.143 26.414 261.323 26.174C261.515 25.934 261.611 25.604 261.611 25.184V20H264.095V25.184C264.095 26.3 263.765 27.218 263.105 27.938C262.445 28.646 261.581 29 260.513 29H260.009ZM261.863 30.476C262.127 30.2 262.451 30.062 262.835 30.062C263.219 30.062 263.549 30.2 263.825 30.476C264.101 30.752 264.239 31.082 264.239 31.466C264.239 31.85 264.101 32.18 263.825 32.456C263.549 32.732 263.219 32.87 262.835 32.87C262.451 32.87 262.121 32.732 261.845 32.456C261.581 32.18 261.449 31.85 261.449 31.466C261.449 31.082 261.587 30.752 261.863 30.476ZM264.516 30.656C264.708 30.728 264.936 30.764 265.2 30.764C266.316 30.764 266.874 30.116 266.874 28.82V20L269.34 19.982V26.534H270.96V29H269.34V29.378C269.34 30.506 269.004 31.424 268.332 32.132C267.66 32.84 266.634 33.194 265.254 33.194C264.738 33.194 264.264 33.122 263.832 32.978L264.516 30.656ZM273.939 26.534L271.779 23.312V20H278.817C279.837 20 280.665 20.216 281.301 20.648C281.949 21.068 282.273 21.716 282.273 22.592C282.273 23.228 282.075 23.852 281.679 24.464C281.295 25.076 280.749 25.766 280.041 26.534H283.443L283.461 29H270.609V26.534H273.939ZM276.873 26.534H277.269C277.713 26.054 278.007 25.73 278.151 25.562C278.307 25.394 278.517 25.148 278.781 24.824C279.057 24.5 279.237 24.236 279.321 24.032C279.417 23.828 279.465 23.636 279.465 23.456C279.465 23.072 279.333 22.814 279.069 22.682C278.817 22.538 278.415 22.466 277.863 22.466H274.749V23.276L276.873 26.534ZM283.107 26.534H283.611C283.971 26.534 284.241 26.414 284.421 26.174C284.613 25.934 284.709 25.604 284.709 25.184V14.96H287.193V25.184C287.193 26.3 286.863 27.218 286.203 27.938C285.543 28.646 284.679 29 283.611 29H283.107V26.534ZM292.251 29H289.785V14.96H292.251V29Z" fill="black"/>
</svg>
