<svg width="83" height="134" viewBox="0 0 83 134" fill="none" xmlns="http://www.w3.org/2000/svg">
<rect x="0.5" y="0.5" width="81.9658" height="132.966" rx="4.5" stroke="#9747FF" stroke-dasharray="10 5"/>
<circle cx="41.4829" cy="41.4829" r="21.4829" fill="#B51717"/>
<path d="M36.4961 50.7437C35.9461 50.7437 35.4754 50.548 35.0841 50.1567C34.6928 49.7653 34.4968 49.2943 34.4961 48.7437V35.7437H33.4961V33.7437H38.4961V32.7437H44.4961V33.7437H49.4961V35.7437H48.4961V48.7437C48.4961 49.2937 48.3004 49.7647 47.9091 50.1567C47.5178 50.5487 47.0468 50.7443 46.4961 50.7437H36.4961ZM46.4961 35.7437H36.4961V48.7437H46.4961V35.7437ZM38.4961 46.7437H40.4961V37.7437H38.4961V46.7437ZM42.4961 46.7437H44.4961V37.7437H42.4961V46.7437Z" fill="white"/>
<circle cx="41.4829" cy="92.4829" r="21.4829" fill="#B51717"/>
<circle cx="41.4829" cy="92.4829" r="21.4829" fill="white" fill-opacity="0.2"/>
<path d="M36.4961 101.744C35.9461 101.744 35.4754 101.548 35.0841 101.157C34.6928 100.765 34.4968 100.294 34.4961 99.7437V86.7437H33.4961V84.7437H38.4961V83.7437H44.4961V84.7437H49.4961V86.7437H48.4961V99.7437C48.4961 100.294 48.3004 100.765 47.9091 101.157C47.5178 101.549 47.0468 101.744 46.4961 101.744H36.4961ZM46.4961 86.7437H36.4961V99.7437H46.4961V86.7437ZM38.4961 97.7437H40.4961V88.7437H38.4961V97.7437ZM42.4961 97.7437H44.4961V88.7437H42.4961V97.7437Z" fill="white"/>
</svg>
