<svg width="430" height="932" viewBox="0 0 430 932" fill="none" xmlns="http://www.w3.org/2000/svg">
<g clip-path="url(#clip0_60_1199)">
<rect width="430" height="932" fill="#FFFAEE"/>
<circle cx="215" cy="-732.058" r="896.018" fill="#FFC244"/>
<path opacity="0.5" fill-rule="evenodd" clip-rule="evenodd" d="M220.698 24.9775C219.773 24.5975 218.598 24.5975 216.25 24.5975C213.903 24.5975 212.73 24.5975 211.803 24.9775C211.192 25.2269 210.637 25.5945 210.17 26.0592C209.702 26.5238 209.331 27.0764 209.078 27.685C208.843 28.2425 208.753 28.895 208.715 29.8425C208.697 30.5288 208.505 31.1992 208.157 31.7909C207.809 32.3826 207.316 32.8761 206.725 33.225C206.122 33.5603 205.444 33.7379 204.754 33.7414C204.064 33.7449 203.384 33.5742 202.778 33.245C201.933 32.8 201.32 32.555 200.715 32.475C199.392 32.3023 198.053 32.658 196.99 33.465C196.195 34.07 195.608 35.08 194.435 37.0975C193.26 39.115 192.675 40.1225 192.543 41.11C192.368 42.425 192.728 43.755 193.543 44.8075C193.913 45.2875 194.435 45.69 195.243 46.195C196.435 46.9375 197.2 48.2025 197.2 49.5975C197.2 50.9925 196.435 52.2575 195.245 52.9975C194.435 53.505 193.913 53.9075 193.54 54.3875C193.139 54.9081 192.844 55.5025 192.673 56.137C192.502 56.7714 192.458 57.4334 192.543 58.085C192.675 59.07 193.26 60.08 194.435 62.0975C195.61 64.115 196.195 65.1225 196.99 65.73C198.05 66.5375 199.39 66.8925 200.715 66.72C201.32 66.64 201.933 66.395 202.778 65.95C203.384 65.6205 204.065 65.4495 204.755 65.453C205.446 65.4565 206.124 65.6343 206.728 65.97C207.943 66.67 208.663 67.9575 208.715 69.3525C208.753 70.3025 208.843 70.9525 209.078 71.51C209.588 72.735 210.568 73.71 211.803 74.2175C212.728 74.5975 213.903 74.5975 216.25 74.5975C218.598 74.5975 219.773 74.5975 220.698 74.2175C221.308 73.9682 221.863 73.6006 222.33 73.1359C222.798 72.6713 223.169 72.1187 223.423 71.51C223.658 70.9525 223.748 70.3025 223.785 69.3525C223.835 67.9575 224.558 66.6675 225.775 65.97C226.378 65.6348 227.056 65.4572 227.746 65.4537C228.436 65.4502 229.116 65.6209 229.723 65.95C230.568 66.395 231.18 66.64 231.785 66.72C233.11 66.895 234.45 66.5375 235.51 65.73C236.305 65.125 236.893 64.115 238.065 62.0975C239.24 60.08 239.825 59.0725 239.958 58.085C240.042 57.4332 239.997 56.7712 239.826 56.1367C239.654 55.5023 239.359 54.9079 238.958 54.3875C238.588 53.9075 238.065 53.505 237.258 53C236.065 52.2575 235.3 50.9925 235.3 49.5975C235.3 48.2025 236.065 46.9375 237.255 46.1975C238.065 45.69 238.588 45.2875 238.96 44.8075C239.361 44.287 239.656 43.6925 239.827 43.0581C239.998 42.4236 240.042 41.7617 239.958 41.11C239.825 40.125 239.24 39.115 238.065 37.0975C236.89 35.08 236.305 34.0725 235.51 33.465C234.447 32.658 233.109 32.3023 231.785 32.475C231.18 32.555 230.568 32.8 229.723 33.245C229.116 33.5746 228.436 33.7456 227.745 33.7421C227.054 33.7386 226.376 33.5607 225.773 33.225C225.182 32.8758 224.69 32.3822 224.342 31.7905C223.994 31.1988 223.803 30.5285 223.785 29.8425C223.748 28.8925 223.658 28.2425 223.423 27.685C223.169 27.0764 222.798 26.5238 222.33 26.0592C221.863 25.5945 221.308 25.2269 220.698 24.9775Z" fill="white"/>
<path d="M223.807 49.5975C223.807 53.74 220.422 57.0975 216.25 57.0975C212.077 57.0975 208.692 53.74 208.692 49.5975C208.692 45.455 212.075 42.0975 216.25 42.0975C220.425 42.0975 223.807 45.455 223.807 49.5975Z" fill="white"/>
<path d="M172.827 113.03C172.827 113.762 172.659 114.434 172.323 115.046C171.987 115.646 171.471 116.132 170.775 116.504C170.079 116.876 169.215 117.062 168.183 117.062H166.275V121.598H163.197V108.962H168.183C169.191 108.962 170.043 109.136 170.739 109.484C171.435 109.832 171.957 110.312 172.305 110.924C172.653 111.536 172.827 112.238 172.827 113.03ZM167.949 114.614C168.537 114.614 168.975 114.476 169.263 114.2C169.551 113.924 169.695 113.534 169.695 113.03C169.695 112.526 169.551 112.136 169.263 111.86C168.975 111.584 168.537 111.446 167.949 111.446H166.275V114.614H167.949ZM173.817 116.558C173.817 115.526 174.009 114.62 174.393 113.84C174.789 113.06 175.323 112.46 175.995 112.04C176.667 111.62 177.417 111.41 178.245 111.41C178.953 111.41 179.571 111.554 180.099 111.842C180.639 112.13 181.053 112.508 181.341 112.976V111.554H184.419V121.598H181.341V120.176C181.041 120.644 180.621 121.022 180.081 121.31C179.553 121.598 178.935 121.742 178.227 121.742C177.411 121.742 176.667 121.532 175.995 121.112C175.323 120.68 174.789 120.074 174.393 119.294C174.009 118.502 173.817 117.59 173.817 116.558ZM181.341 116.576C181.341 115.808 181.125 115.202 180.693 114.758C180.273 114.314 179.757 114.092 179.145 114.092C178.533 114.092 178.011 114.314 177.579 114.758C177.159 115.19 176.949 115.79 176.949 116.558C176.949 117.326 177.159 117.938 177.579 118.394C178.011 118.838 178.533 119.06 179.145 119.06C179.757 119.06 180.273 118.838 180.693 118.394C181.125 117.95 181.341 117.344 181.341 116.576ZM189.724 113.228C190.084 112.676 190.534 112.244 191.074 111.932C191.614 111.608 192.214 111.446 192.874 111.446V114.704H192.028C191.26 114.704 190.684 114.872 190.3 115.208C189.916 115.532 189.724 116.108 189.724 116.936V121.598H186.646V111.554H189.724V113.228ZM193.733 116.558C193.733 115.526 193.925 114.62 194.309 113.84C194.705 113.06 195.239 112.46 195.911 112.04C196.583 111.62 197.333 111.41 198.161 111.41C198.869 111.41 199.487 111.554 200.015 111.842C200.555 112.13 200.969 112.508 201.257 112.976V111.554H204.335V121.598H201.257V120.176C200.957 120.644 200.537 121.022 199.997 121.31C199.469 121.598 198.851 121.742 198.143 121.742C197.327 121.742 196.583 121.532 195.911 121.112C195.239 120.68 194.705 120.074 194.309 119.294C193.925 118.502 193.733 117.59 193.733 116.558ZM201.257 116.576C201.257 115.808 201.041 115.202 200.609 114.758C200.189 114.314 199.673 114.092 199.061 114.092C198.449 114.092 197.927 114.314 197.495 114.758C197.075 115.19 196.865 115.79 196.865 116.558C196.865 117.326 197.075 117.938 197.495 118.394C197.927 118.838 198.449 119.06 199.061 119.06C199.673 119.06 200.189 118.838 200.609 118.394C201.041 117.95 201.257 117.344 201.257 116.576ZM219.378 111.446C220.626 111.446 221.616 111.824 222.348 112.58C223.092 113.336 223.464 114.386 223.464 115.73V121.598H220.404V116.144C220.404 115.496 220.23 114.998 219.882 114.65C219.546 114.29 219.078 114.11 218.478 114.11C217.878 114.11 217.404 114.29 217.056 114.65C216.72 114.998 216.552 115.496 216.552 116.144V121.598H213.492V116.144C213.492 115.496 213.318 114.998 212.97 114.65C212.634 114.29 212.166 114.11 211.566 114.11C210.966 114.11 210.492 114.29 210.144 114.65C209.808 114.998 209.64 115.496 209.64 116.144V121.598H206.562V111.554H209.64V112.814C209.952 112.394 210.36 112.064 210.864 111.824C211.368 111.572 211.938 111.446 212.574 111.446C213.33 111.446 214.002 111.608 214.59 111.932C215.19 112.256 215.658 112.718 215.994 113.318C216.342 112.766 216.816 112.316 217.416 111.968C218.016 111.62 218.67 111.446 219.378 111.446ZM235.085 116.414C235.085 116.702 235.067 117.002 235.031 117.314H228.065C228.113 117.938 228.311 118.418 228.659 118.754C229.019 119.078 229.457 119.24 229.973 119.24C230.741 119.24 231.275 118.916 231.575 118.268H234.851C234.683 118.928 234.377 119.522 233.933 120.05C233.501 120.578 232.955 120.992 232.295 121.292C231.635 121.592 230.897 121.742 230.081 121.742C229.097 121.742 228.221 121.532 227.453 121.112C226.685 120.692 226.085 120.092 225.653 119.312C225.221 118.532 225.005 117.62 225.005 116.576C225.005 115.532 225.215 114.62 225.635 113.84C226.067 113.06 226.667 112.46 227.435 112.04C228.203 111.62 229.085 111.41 230.081 111.41C231.053 111.41 231.917 111.614 232.673 112.022C233.429 112.43 234.017 113.012 234.437 113.768C234.869 114.524 235.085 115.406 235.085 116.414ZM231.935 115.604C231.935 115.076 231.755 114.656 231.395 114.344C231.035 114.032 230.585 113.876 230.045 113.876C229.529 113.876 229.091 114.026 228.731 114.326C228.383 114.626 228.167 115.052 228.083 115.604H231.935ZM232.151 108.674V110.798L227.813 108.98V106.586L232.151 108.674ZM242.307 118.988V121.598H240.741C239.625 121.598 238.755 121.328 238.131 120.788C237.507 120.236 237.195 119.342 237.195 118.106V114.11H235.971V111.554H237.195V109.106H240.273V111.554H242.289V114.11H240.273V118.142C240.273 118.442 240.345 118.658 240.489 118.79C240.633 118.922 240.873 118.988 241.209 118.988H242.307ZM247.099 113.228C247.459 112.676 247.909 112.244 248.449 111.932C248.989 111.608 249.589 111.446 250.249 111.446V114.704H249.403C248.635 114.704 248.059 114.872 247.675 115.208C247.291 115.532 247.099 116.108 247.099 116.936V121.598H244.021V111.554H247.099V113.228ZM261.188 116.414C261.188 116.702 261.17 117.002 261.134 117.314H254.168C254.216 117.938 254.414 118.418 254.762 118.754C255.122 119.078 255.56 119.24 256.076 119.24C256.844 119.24 257.378 118.916 257.678 118.268H260.954C260.786 118.928 260.48 119.522 260.036 120.05C259.604 120.578 259.058 120.992 258.398 121.292C257.738 121.592 257 121.742 256.184 121.742C255.2 121.742 254.324 121.532 253.556 121.112C252.788 120.692 252.188 120.092 251.756 119.312C251.324 118.532 251.108 117.62 251.108 116.576C251.108 115.532 251.318 114.62 251.738 113.84C252.17 113.06 252.77 112.46 253.538 112.04C254.306 111.62 255.188 111.41 256.184 111.41C257.156 111.41 258.02 111.614 258.776 112.022C259.532 112.43 260.12 113.012 260.54 113.768C260.972 114.524 261.188 115.406 261.188 116.414ZM258.038 115.604C258.038 115.076 257.858 114.656 257.498 114.344C257.138 114.032 256.688 113.876 256.148 113.876C255.632 113.876 255.194 114.026 254.834 114.326C254.486 114.626 254.27 115.052 254.186 115.604H258.038ZM266.898 121.742C266.022 121.742 265.242 121.592 264.558 121.292C263.874 120.992 263.334 120.584 262.938 120.068C262.542 119.54 262.32 118.952 262.272 118.304H265.314C265.35 118.652 265.512 118.934 265.8 119.15C266.088 119.366 266.442 119.474 266.862 119.474C267.246 119.474 267.54 119.402 267.744 119.258C267.96 119.102 268.068 118.904 268.068 118.664C268.068 118.376 267.918 118.166 267.618 118.034C267.318 117.89 266.832 117.734 266.16 117.566C265.44 117.398 264.84 117.224 264.36 117.044C263.88 116.852 263.466 116.558 263.118 116.162C262.77 115.754 262.596 115.208 262.596 114.524C262.596 113.948 262.752 113.426 263.064 112.958C263.388 112.478 263.856 112.1 264.468 111.824C265.092 111.548 265.83 111.41 266.682 111.41C267.942 111.41 268.932 111.722 269.652 112.346C270.384 112.97 270.804 113.798 270.912 114.83H268.068C268.02 114.482 267.864 114.206 267.6 114.002C267.348 113.798 267.012 113.696 266.592 113.696C266.232 113.696 265.956 113.768 265.764 113.912C265.572 114.044 265.476 114.23 265.476 114.47C265.476 114.758 265.626 114.974 265.926 115.118C266.238 115.262 266.718 115.406 267.366 115.55C268.11 115.742 268.716 115.934 269.184 116.126C269.652 116.306 270.06 116.606 270.408 117.026C270.768 117.434 270.954 117.986 270.966 118.682C270.966 119.27 270.798 119.798 270.462 120.266C270.138 120.722 269.664 121.082 269.04 121.346C268.428 121.61 267.714 121.742 266.898 121.742Z" fill="white"/>
<g filter="url(#filter0_d_60_1199)">
<rect x="20" y="20" width="60.1634" height="60.1698" rx="11.3226" fill="white"/>
</g>
<path fill-rule="evenodd" clip-rule="evenodd" d="M63.6228 62.0798H36.5404C35.4571 62.0798 34.606 61.2286 34.606 60.1451V58.5974C34.606 57.514 35.4571 56.6627 36.5404 56.6627H63.6228C64.7061 56.6627 65.5573 57.514 65.5573 58.5974V60.1451C65.5573 61.2286 64.7061 62.0798 63.6228 62.0798ZM63.6228 52.7934H36.5404C35.4571 52.7934 34.606 51.9422 34.606 50.8588V49.311C34.606 48.2276 35.4571 47.3764 36.5404 47.3764H63.6228C64.7061 47.3764 65.5573 48.2276 65.5573 49.311V50.8588C65.5573 51.9422 64.7061 52.7934 63.6228 52.7934ZM63.6228 43.507H36.5404C35.4571 43.507 34.606 42.6558 34.606 41.5724V40.0246C34.606 38.9412 35.4571 38.09 36.5404 38.09H63.6228C64.7061 38.09 65.5573 38.9412 65.5573 40.0246V41.5724C65.5573 42.6558 64.7061 43.507 63.6228 43.507Z" fill="#FFC244"/>
<g filter="url(#filter1_d_60_1199)">
<circle cx="367.5" cy="875.451" r="42.5" fill="white"/>
</g>
<circle cx="367.32" cy="875.27" r="35.3367" fill="#FFC244"/>
<path d="M370.821 875.55H363.339M367.08 871.809V879.291M348.117 860.587H354.352L355.007 866.822M355.007 866.822L356.611 882.047C356.676 882.659 356.965 883.226 357.422 883.638C357.88 884.05 358.474 884.278 359.09 884.279H374.851C375.407 884.279 375.947 884.093 376.385 883.751C376.824 883.409 377.135 882.93 377.27 882.391L380.388 869.921C380.48 869.554 380.487 869.17 380.408 868.799C380.33 868.428 380.168 868.08 379.934 867.781C379.701 867.482 379.403 867.241 379.062 867.074C378.722 866.908 378.348 866.822 377.968 866.822H355.007ZM374.168 893.007C373.837 893.007 373.52 892.876 373.286 892.642C373.052 892.408 372.921 892.091 372.921 891.76C372.921 891.429 373.052 891.112 373.286 890.878C373.52 890.645 373.837 890.513 374.168 890.513C374.499 890.513 374.816 890.645 375.05 890.878C375.283 891.112 375.415 891.429 375.415 891.76C375.415 892.091 375.283 892.408 375.05 892.642C374.816 892.876 374.499 893.007 374.168 893.007ZM357.958 893.007C357.627 893.007 357.31 892.876 357.076 892.642C356.842 892.408 356.711 892.091 356.711 891.76C356.711 891.429 356.842 891.112 357.076 890.878C357.31 890.645 357.627 890.513 357.958 890.513C358.288 890.513 358.606 890.645 358.839 890.878C359.073 891.112 359.205 891.429 359.205 891.76C359.205 892.091 359.073 892.408 358.839 892.642C358.606 892.876 358.288 893.007 357.958 893.007Z" stroke="white" stroke-width="2.84086" stroke-linecap="round" stroke-linejoin="round"/>
<path d="M432.092 131.385C375.74 152.252 210.332 184.097 -0.486838 144.536" stroke="url(#paint0_linear_60_1199)"/>
<path d="M175.268 229.268H165.648V214.668H168.648V226.268H175.268V229.268ZM177.775 219.748C178.789 218.642 180.015 218.088 181.455 218.088C182.202 218.088 182.889 218.275 183.515 218.648C184.142 219.022 184.622 219.502 184.955 220.088L185.135 218.268H187.695V229.268H185.135L184.955 227.428C184.622 228.015 184.142 228.495 183.515 228.868C182.889 229.242 182.202 229.428 181.455 229.428C180.015 229.428 178.789 228.875 177.775 227.768C176.762 226.648 176.255 225.308 176.255 223.748C176.255 222.188 176.762 220.855 177.775 219.748ZM179.935 225.788C180.495 226.362 181.175 226.648 181.975 226.648C182.789 226.648 183.475 226.368 184.035 225.808C184.595 225.235 184.875 224.548 184.875 223.748C184.875 222.948 184.595 222.268 184.035 221.708C183.475 221.135 182.789 220.848 181.975 220.848C181.175 220.848 180.495 221.135 179.935 221.708C179.375 222.268 179.095 222.948 179.095 223.748C179.095 224.548 179.375 225.228 179.935 225.788ZM190.037 229.268V218.268H192.597L192.777 219.868C193.097 219.335 193.517 218.908 194.037 218.588C194.571 218.255 195.171 218.088 195.837 218.088C197.171 218.088 198.224 218.548 198.997 219.468C199.784 220.388 200.177 221.782 200.177 223.648V229.268H197.377V223.648C197.377 222.728 197.157 222.035 196.717 221.568C196.291 221.088 195.757 220.848 195.117 220.848C194.464 220.848 193.924 221.088 193.497 221.568C193.071 222.035 192.857 222.728 192.857 223.648V229.268H190.037ZM201.822 223.748C201.822 222.188 202.328 220.855 203.342 219.748C204.355 218.642 205.582 218.088 207.022 218.088C207.768 218.088 208.455 218.275 209.082 218.648C209.708 219.022 210.188 219.502 210.522 220.088L210.702 218.268H213.262V227.548C213.262 229.615 212.702 231.195 211.582 232.288C210.475 233.382 208.982 233.928 207.102 233.928C206.168 233.928 205.268 233.728 204.402 233.328C203.548 232.942 202.862 232.408 202.342 231.728L204.462 230.068C205.168 230.855 206.102 231.248 207.262 231.248C208.155 231.248 208.908 230.975 209.522 230.428C210.135 229.895 210.442 229.108 210.442 228.068V227.528C210.108 228.075 209.635 228.528 209.022 228.888C208.408 229.248 207.742 229.428 207.022 229.428C205.582 229.428 204.355 228.875 203.342 227.768C202.328 226.648 201.822 225.308 201.822 223.748ZM205.502 225.788C206.062 226.362 206.742 226.648 207.542 226.648C208.355 226.648 209.042 226.368 209.602 225.808C210.162 225.235 210.442 224.548 210.442 223.748C210.442 222.948 210.162 222.268 209.602 221.708C209.042 221.135 208.355 220.848 207.542 220.848C206.742 220.848 206.062 221.135 205.502 221.708C204.942 222.268 204.662 222.948 204.662 223.748C204.662 224.548 204.942 225.228 205.502 225.788ZM215.424 218.268H218.244V223.868C218.244 224.788 218.457 225.488 218.884 225.968C219.31 226.435 219.85 226.668 220.504 226.668C221.144 226.668 221.677 226.435 222.104 225.968C222.544 225.488 222.764 224.788 222.764 223.868V218.268H225.564V229.268H223.004L222.844 227.648C222.524 228.182 222.097 228.615 221.564 228.948C221.03 229.282 220.43 229.448 219.764 229.448C218.43 229.448 217.37 228.988 216.584 228.068C215.81 227.135 215.424 225.735 215.424 223.868V218.268ZM228.908 219.748C229.921 218.642 231.148 218.088 232.588 218.088C233.335 218.088 234.021 218.275 234.648 218.648C235.275 219.022 235.755 219.502 236.088 220.088L236.268 218.268H238.828V229.268H236.268L236.088 227.428C235.755 228.015 235.275 228.495 234.648 228.868C234.021 229.242 233.335 229.428 232.588 229.428C231.148 229.428 229.921 228.875 228.908 227.768C227.895 226.648 227.388 225.308 227.388 223.748C227.388 222.188 227.895 220.855 228.908 219.748ZM231.068 225.788C231.628 226.362 232.308 226.648 233.108 226.648C233.921 226.648 234.608 226.368 235.168 225.808C235.728 225.235 236.008 224.548 236.008 223.748C236.008 222.948 235.728 222.268 235.168 221.708C234.608 221.135 233.921 220.848 233.108 220.848C232.308 220.848 231.628 221.135 231.068 221.708C230.508 222.268 230.228 222.948 230.228 223.748C230.228 224.548 230.508 225.228 231.068 225.788ZM240.63 223.748C240.63 222.188 241.137 220.855 242.15 219.748C243.164 218.642 244.39 218.088 245.83 218.088C246.577 218.088 247.264 218.275 247.89 218.648C248.517 219.022 248.997 219.502 249.33 220.088L249.51 218.268H252.07V227.548C252.07 229.615 251.51 231.195 250.39 232.288C249.284 233.382 247.79 233.928 245.91 233.928C244.977 233.928 244.077 233.728 243.21 233.328C242.357 232.942 241.67 232.408 241.15 231.728L243.27 230.068C243.977 230.855 244.91 231.248 246.07 231.248C246.964 231.248 247.717 230.975 248.33 230.428C248.944 229.895 249.25 229.108 249.25 228.068V227.528C248.917 228.075 248.444 228.528 247.83 228.888C247.217 229.248 246.55 229.428 245.83 229.428C244.39 229.428 243.164 228.875 242.15 227.768C241.137 226.648 240.63 225.308 240.63 223.748ZM244.31 225.788C244.87 226.362 245.55 226.648 246.35 226.648C247.164 226.648 247.85 226.368 248.41 225.808C248.97 225.235 249.25 224.548 249.25 223.748C249.25 222.948 248.97 222.268 248.41 221.708C247.85 221.135 247.164 220.848 246.35 220.848C245.55 220.848 244.87 221.135 244.31 221.708C243.75 222.268 243.47 222.948 243.47 223.748C243.47 224.548 243.75 225.228 244.31 225.788ZM255.512 219.768C256.606 218.662 257.932 218.108 259.492 218.108C261.066 218.108 262.392 218.662 263.472 219.768C264.566 220.875 265.112 222.208 265.112 223.768C265.112 224.062 265.086 224.435 265.032 224.888H256.892C257.039 225.462 257.372 225.935 257.892 226.308C258.426 226.668 259.046 226.848 259.752 226.848C260.832 226.848 261.679 226.508 262.292 225.828L264.552 227.248C264.032 227.915 263.332 228.448 262.452 228.848C261.572 229.248 260.672 229.448 259.752 229.448C258.059 229.448 256.652 228.902 255.532 227.808C254.426 226.702 253.872 225.355 253.872 223.768C253.872 222.208 254.419 220.875 255.512 219.768ZM256.892 222.648H262.192C262.112 222.115 261.826 221.662 261.332 221.288C260.839 220.915 260.232 220.728 259.512 220.728C258.806 220.728 258.212 220.915 257.732 221.288C257.266 221.662 256.986 222.115 256.892 222.648Z" fill="black"/>
<path d="M179.026 390.514H182.246L187.266 405.114H183.986L183.026 402.134H178.286L177.306 405.114H174.006L179.026 390.514ZM182.186 399.354L180.646 394.594L179.106 399.354H182.186ZM189.663 395.614C190.757 394.508 192.083 393.954 193.643 393.954C194.577 393.954 195.45 394.174 196.263 394.614C197.077 395.041 197.75 395.621 198.283 396.354L195.963 397.894C195.39 397.174 194.617 396.814 193.643 396.814C192.87 396.814 192.21 397.088 191.663 397.634C191.117 398.181 190.843 398.841 190.843 399.614C190.843 400.401 191.117 401.068 191.663 401.614C192.21 402.161 192.87 402.434 193.643 402.434C194.67 402.434 195.457 402.034 196.003 401.234L198.343 402.794C197.823 403.554 197.15 404.161 196.323 404.614C195.497 405.068 194.603 405.294 193.643 405.294C192.083 405.294 190.75 404.741 189.643 403.634C188.55 402.514 188.003 401.174 188.003 399.614C188.003 398.054 188.557 396.721 189.663 395.614ZM201.187 395.614C202.28 394.508 203.607 393.954 205.167 393.954C206.1 393.954 206.973 394.174 207.787 394.614C208.6 395.041 209.273 395.621 209.807 396.354L207.487 397.894C206.913 397.174 206.14 396.814 205.167 396.814C204.393 396.814 203.733 397.088 203.187 397.634C202.64 398.181 202.367 398.841 202.367 399.614C202.367 400.401 202.64 401.068 203.187 401.614C203.733 402.161 204.393 402.434 205.167 402.434C206.193 402.434 206.98 402.034 207.527 401.234L209.867 402.794C209.347 403.554 208.673 404.161 207.847 404.614C207.02 405.068 206.127 405.294 205.167 405.294C203.607 405.294 202.273 404.741 201.167 403.634C200.073 402.514 199.527 401.174 199.527 399.614C199.527 398.054 200.08 396.721 201.187 395.614ZM212.71 395.614C213.803 394.508 215.13 393.954 216.69 393.954C218.25 393.954 219.583 394.514 220.69 395.634C221.81 396.741 222.37 398.068 222.37 399.614C222.37 401.174 221.817 402.508 220.71 403.614C219.59 404.734 218.25 405.294 216.69 405.294C215.13 405.294 213.797 404.741 212.69 403.634C211.597 402.514 211.05 401.174 211.05 399.614C211.05 398.054 211.603 396.721 212.71 395.614ZM213.89 399.614C213.89 400.401 214.163 401.068 214.71 401.614C215.257 402.161 215.917 402.434 216.69 402.434C217.477 402.434 218.143 402.161 218.69 401.614C219.237 401.068 219.51 400.401 219.51 399.614C219.51 398.841 219.237 398.181 218.69 397.634C218.143 397.088 217.477 396.814 216.69 396.814C215.917 396.814 215.257 397.088 214.71 397.634C214.163 398.181 213.89 398.841 213.89 399.614ZM223.988 394.114H226.808V399.714C226.808 400.634 227.022 401.334 227.448 401.814C227.875 402.281 228.415 402.514 229.068 402.514C229.708 402.514 230.242 402.281 230.668 401.814C231.108 401.334 231.328 400.634 231.328 399.714V394.114H234.128V405.114H231.568L231.408 403.494C231.088 404.028 230.662 404.461 230.128 404.794C229.595 405.128 228.995 405.294 228.328 405.294C226.995 405.294 225.935 404.834 225.148 403.914C224.375 402.981 223.988 401.581 223.988 399.714V394.114ZM236.493 405.114V394.114H239.053L239.233 395.714C239.553 395.181 239.973 394.754 240.493 394.434C241.026 394.101 241.626 393.934 242.293 393.934C243.626 393.934 244.679 394.394 245.453 395.314C246.239 396.234 246.633 397.628 246.633 399.494V405.114H243.833V399.494C243.833 398.574 243.613 397.881 243.173 397.414C242.746 396.934 242.213 396.694 241.573 396.694C240.919 396.694 240.379 396.934 239.953 397.414C239.526 397.881 239.313 398.574 239.313 399.494V405.114H236.493ZM249.537 394.114L249.937 390.514H252.257V394.114H254.777V396.614H252.257V400.494C252.257 401.908 252.863 402.614 254.077 402.614C254.357 402.614 254.61 402.568 254.837 402.474L255.537 404.974C255.03 405.201 254.403 405.314 253.657 405.314C252.417 405.314 251.403 404.934 250.617 404.174C249.83 403.414 249.437 402.194 249.437 400.514V396.614H247.997V394.114H249.537Z" fill="black"/>
<rect x="41" y="281" width="165" height="41" rx="20.5" fill="#FFC244"/>
<rect x="41" y="281" width="165" height="41" rx="20.5" stroke="#C58400" stroke-width="2"/>
<path d="M86.16 294.86H94.818V297.452H88.842V300.188H94.458V302.78H88.842V308H86.16V294.86ZM96.4917 298.1H98.7957L98.9757 299.522C99.5637 298.526 100.542 298.028 101.91 298.028C102.258 298.028 102.558 298.052 102.81 298.1L102.288 300.53C102.144 300.506 102.042 300.494 101.982 300.494C101.142 300.494 100.44 300.752 99.8757 301.268C99.3117 301.772 99.0297 302.63 99.0297 303.842V308H96.4917V298.1ZM105.126 299.432C106.038 298.436 107.142 297.938 108.438 297.938C109.11 297.938 109.728 298.106 110.292 298.442C110.856 298.778 111.288 299.21 111.588 299.738L111.75 298.1H114.054V308H111.75L111.588 306.344C111.288 306.872 110.856 307.304 110.292 307.64C109.728 307.976 109.11 308.144 108.438 308.144C107.142 308.144 106.038 307.646 105.126 306.65C104.214 305.642 103.758 304.436 103.758 303.032C103.758 301.628 104.214 300.428 105.126 299.432ZM107.07 304.868C107.574 305.384 108.186 305.642 108.906 305.642C109.638 305.642 110.256 305.39 110.76 304.886C111.264 304.37 111.516 303.752 111.516 303.032C111.516 302.312 111.264 301.7 110.76 301.196C110.256 300.68 109.638 300.422 108.906 300.422C108.186 300.422 107.574 300.68 107.07 301.196C106.566 301.7 106.314 302.312 106.314 303.032C106.314 303.752 106.566 304.364 107.07 304.868ZM116.162 308V298.1H118.466L118.628 299.54C118.916 299.06 119.294 298.676 119.762 298.388C120.242 298.088 120.782 297.938 121.382 297.938C122.582 297.938 123.53 298.352 124.226 299.18C124.934 300.008 125.288 301.262 125.288 302.942V308H122.768V302.942C122.768 302.114 122.57 301.49 122.174 301.07C121.79 300.638 121.31 300.422 120.734 300.422C120.146 300.422 119.66 300.638 119.276 301.07C118.892 301.49 118.7 302.114 118.7 302.942V308H116.162ZM128.261 299.45C129.245 298.454 130.439 297.956 131.843 297.956C132.683 297.956 133.469 298.154 134.201 298.55C134.933 298.934 135.539 299.456 136.019 300.116L133.931 301.502C133.415 300.854 132.719 300.53 131.843 300.53C131.147 300.53 130.553 300.776 130.061 301.268C129.569 301.76 129.323 302.354 129.323 303.05C129.323 303.758 129.569 304.358 130.061 304.85C130.553 305.342 131.147 305.588 131.843 305.588C132.767 305.588 133.475 305.228 133.967 304.508L136.073 305.912C135.605 306.596 134.999 307.142 134.255 307.55C133.511 307.958 132.707 308.162 131.843 308.162C130.439 308.162 129.239 307.664 128.243 306.668C127.259 305.66 126.767 304.454 126.767 303.05C126.767 301.646 127.265 300.446 128.261 299.45ZM138.507 299.432C139.419 298.436 140.523 297.938 141.819 297.938C142.491 297.938 143.109 298.106 143.673 298.442C144.237 298.778 144.669 299.21 144.969 299.738L145.131 298.1H147.435V308H145.131L144.969 306.344C144.669 306.872 144.237 307.304 143.673 307.64C143.109 307.976 142.491 308.144 141.819 308.144C140.523 308.144 139.419 307.646 138.507 306.65C137.595 305.642 137.139 304.436 137.139 303.032C137.139 301.628 137.595 300.428 138.507 299.432ZM140.451 304.868C140.955 305.384 141.567 305.642 142.287 305.642C143.019 305.642 143.637 305.39 144.141 304.886C144.645 304.37 144.897 303.752 144.897 303.032C144.897 302.312 144.645 301.7 144.141 301.196C143.637 300.68 143.019 300.422 142.287 300.422C141.567 300.422 140.955 300.68 140.451 301.196C139.947 301.7 139.695 302.312 139.695 303.032C139.695 303.752 139.947 304.364 140.451 304.868ZM149.542 298.1H152.08V308H149.542V298.1ZM149.794 294.824C150.082 294.536 150.424 294.392 150.82 294.392C151.204 294.392 151.54 294.536 151.828 294.824C152.116 295.112 152.26 295.454 152.26 295.85C152.26 296.246 152.116 296.588 151.828 296.876C151.54 297.164 151.204 297.308 150.82 297.308C150.424 297.308 150.082 297.164 149.794 296.876C149.506 296.588 149.362 296.246 149.362 295.85C149.362 295.454 149.506 295.112 149.794 294.824ZM155.515 304.886C155.815 305.186 156.229 305.426 156.757 305.606C157.285 305.786 157.801 305.876 158.305 305.876C159.301 305.876 159.799 305.618 159.799 305.102C159.799 304.874 159.601 304.688 159.205 304.544C158.821 304.388 158.347 304.25 157.783 304.13C157.231 303.998 156.673 303.83 156.109 303.626C155.557 303.422 155.083 303.086 154.687 302.618C154.303 302.15 154.111 301.562 154.111 300.854C154.111 299.966 154.465 299.252 155.173 298.712C155.881 298.172 156.811 297.902 157.963 297.902C159.787 297.902 161.161 298.448 162.085 299.54L160.573 301.07C160.297 300.77 159.913 300.542 159.421 300.386C158.941 300.23 158.479 300.152 158.035 300.152C157.603 300.152 157.261 300.218 157.009 300.35C156.769 300.47 156.649 300.638 156.649 300.854C156.649 301.058 156.841 301.232 157.225 301.376C157.621 301.508 158.101 301.64 158.665 301.772C159.229 301.892 159.787 302.054 160.339 302.258C160.903 302.462 161.377 302.798 161.761 303.266C162.157 303.734 162.355 304.316 162.355 305.012C162.355 306.068 161.971 306.872 161.203 307.424C160.447 307.964 159.481 308.234 158.305 308.234C157.489 308.234 156.667 308.096 155.839 307.82C155.023 307.532 154.345 307.106 153.805 306.542L155.515 304.886Z" fill="black"/>
<rect x="223" y="280" width="167" height="43" rx="21.5" fill="white"/>
<rect x="223" y="280" width="167" height="43" rx="21.5" stroke="black"/>
<path d="M282.979 300.314C283.855 299.438 284.911 299 286.147 299H290.503V304.184C290.503 304.604 290.593 304.934 290.773 305.174C290.965 305.414 291.241 305.534 291.601 305.534H292.177V308H291.601C290.449 308 289.627 307.538 289.135 306.614C288.403 307.538 287.407 308 286.147 308C284.899 308 283.837 307.568 282.961 306.704C282.085 305.828 281.647 304.766 281.647 303.518C281.647 302.27 282.091 301.202 282.979 300.314ZM284.707 304.94C285.103 305.336 285.583 305.534 286.147 305.534C286.675 305.534 287.119 305.348 287.479 304.976C287.839 304.592 288.019 304.1 288.019 303.5V301.466H286.147C285.583 301.466 285.103 301.664 284.707 302.06C284.311 302.456 284.113 302.936 284.113 303.5C284.113 304.064 284.311 304.544 284.707 304.94ZM283.447 296.858C283.447 296.486 283.579 296.168 283.843 295.904C284.107 295.64 284.425 295.508 284.797 295.508C285.169 295.508 285.487 295.64 285.751 295.904C286.015 296.168 286.147 296.486 286.147 296.858C286.147 297.23 286.015 297.548 285.751 297.812C285.487 298.076 285.169 298.208 284.797 298.208C284.425 298.208 284.107 298.076 283.843 297.812C283.579 297.548 283.447 297.23 283.447 296.858ZM286.795 296.858C286.795 296.486 286.921 296.168 287.173 295.904C287.437 295.64 287.755 295.508 288.127 295.508C288.499 295.508 288.817 295.64 289.081 295.904C289.345 296.168 289.477 296.486 289.477 296.858C289.477 297.23 289.345 297.548 289.081 297.812C288.817 298.076 288.499 298.208 288.127 298.208C287.755 298.208 287.437 298.076 287.173 297.812C286.921 297.548 286.795 297.23 286.795 296.858ZM291.82 305.534H293.242C293.59 305.534 293.86 305.414 294.052 305.174C294.244 304.934 294.34 304.604 294.34 304.184V299.018L296.806 299V304.184C296.806 304.604 296.902 304.934 297.094 305.174C297.286 305.414 297.562 305.534 297.922 305.534H299.362V308H297.922C296.902 308 296.122 307.634 295.582 306.902C295.018 307.634 294.238 308 293.242 308H291.82V305.534ZM292.576 310.538C292.576 310.166 292.708 309.848 292.972 309.584C293.236 309.332 293.554 309.206 293.926 309.206C294.298 309.206 294.61 309.332 294.862 309.584C295.126 309.848 295.258 310.166 295.258 310.538C295.258 310.91 295.132 311.228 294.88 311.492C294.616 311.756 294.298 311.888 293.926 311.888C293.554 311.888 293.236 311.756 292.972 311.492C292.708 311.228 292.576 310.91 292.576 310.538ZM296.32 309.602C296.572 309.338 296.884 309.206 297.256 309.206C297.628 309.206 297.946 309.332 298.21 309.584C298.474 309.848 298.606 310.166 298.606 310.538C298.606 310.91 298.474 311.228 298.21 311.492C297.946 311.756 297.628 311.888 297.256 311.888C296.884 311.888 296.566 311.756 296.302 311.492C296.05 311.228 295.924 310.91 295.924 310.538C295.924 310.166 296.056 309.854 296.32 309.602ZM299.009 308V305.534H299.513C299.873 305.534 300.143 305.414 300.323 305.174C300.515 304.934 300.611 304.604 300.611 304.184V299H303.095V304.184C303.095 305.3 302.765 306.218 302.105 306.938C301.445 307.646 300.581 308 299.513 308H299.009ZM300.863 309.476C301.127 309.2 301.451 309.062 301.835 309.062C302.219 309.062 302.549 309.2 302.825 309.476C303.101 309.752 303.239 310.082 303.239 310.466C303.239 310.85 303.101 311.18 302.825 311.456C302.549 311.732 302.219 311.87 301.835 311.87C301.451 311.87 301.121 311.732 300.845 311.456C300.581 311.18 300.449 310.85 300.449 310.466C300.449 310.082 300.587 309.752 300.863 309.476ZM303.516 309.656C303.708 309.728 303.936 309.764 304.2 309.764C305.316 309.764 305.874 309.116 305.874 307.82V299L308.34 298.982V305.534H309.96V308H308.34V308.378C308.34 309.506 308.004 310.424 307.332 311.132C306.66 311.84 305.634 312.194 304.254 312.194C303.738 312.194 303.264 312.122 302.832 311.978L303.516 309.656ZM312.939 305.534L310.779 302.312V299H317.817C318.837 299 319.665 299.216 320.301 299.648C320.949 300.068 321.273 300.716 321.273 301.592C321.273 302.228 321.075 302.852 320.679 303.464C320.295 304.076 319.749 304.766 319.041 305.534H322.443L322.461 308H309.609V305.534H312.939ZM315.873 305.534H316.269C316.713 305.054 317.007 304.73 317.151 304.562C317.307 304.394 317.517 304.148 317.781 303.824C318.057 303.5 318.237 303.236 318.321 303.032C318.417 302.828 318.465 302.636 318.465 302.456C318.465 302.072 318.333 301.814 318.069 301.682C317.817 301.538 317.415 301.466 316.863 301.466H313.749V302.276L315.873 305.534ZM322.107 305.534H322.611C322.971 305.534 323.241 305.414 323.421 305.174C323.613 304.934 323.709 304.604 323.709 304.184V293.96H326.193V304.184C326.193 305.3 325.863 306.218 325.203 306.938C324.543 307.646 323.679 308 322.611 308H322.107V305.534ZM331.251 308H328.785V293.96H331.251V308Z" fill="black"/>
<g filter="url(#filter2_d_60_1199)">
<rect x="40.3765" y="440" width="349.247" height="54.2115" rx="27.1058" fill="#C1272D" shape-rendering="crispEdges"/>
<path d="M145.33 476.106C144.78 476.106 144.309 475.91 143.918 475.519C143.527 475.127 143.331 474.656 143.33 474.106V460.106C143.33 459.556 143.526 459.085 143.918 458.694C144.31 458.302 144.781 458.106 145.33 458.106H152.33V460.106H145.33V474.106H152.33V476.106H145.33ZM156.33 472.106L154.955 470.656L157.505 468.106H149.33V466.106H157.505L154.955 463.556L156.33 462.106L161.33 467.106L156.33 472.106Z" fill="white"/>
<path d="M177.401 472.708C176.651 472.708 175.98 472.586 175.387 472.343C174.793 472.1 174.316 471.74 173.956 471.263C173.606 470.786 173.421 470.212 173.402 469.541H176.058C176.097 469.92 176.228 470.212 176.452 470.416C176.676 470.611 176.968 470.708 177.328 470.708C177.697 470.708 177.989 470.626 178.203 470.46C178.418 470.285 178.525 470.047 178.525 469.745C178.525 469.492 178.437 469.283 178.262 469.117C178.096 468.952 177.887 468.816 177.634 468.709C177.391 468.602 177.041 468.48 176.583 468.344C175.922 468.14 175.382 467.935 174.963 467.731C174.545 467.527 174.185 467.225 173.883 466.826C173.582 466.427 173.431 465.906 173.431 465.264C173.431 464.311 173.776 463.566 174.467 463.031C175.158 462.486 176.058 462.214 177.167 462.214C178.296 462.214 179.206 462.486 179.897 463.031C180.587 463.566 180.957 464.316 181.006 465.279H178.306C178.286 464.948 178.165 464.69 177.941 464.505C177.717 464.311 177.43 464.213 177.08 464.213C176.778 464.213 176.535 464.296 176.35 464.462C176.165 464.617 176.073 464.846 176.073 465.147C176.073 465.478 176.228 465.736 176.54 465.921C176.851 466.106 177.337 466.305 177.999 466.519C178.661 466.743 179.196 466.957 179.605 467.162C180.023 467.366 180.383 467.663 180.685 468.052C180.986 468.441 181.137 468.942 181.137 469.555C181.137 470.139 180.986 470.669 180.685 471.146C180.393 471.623 179.965 472.002 179.4 472.285C178.836 472.567 178.169 472.708 177.401 472.708ZM190.35 468.402C190.35 468.636 190.336 468.879 190.306 469.132H184.658C184.697 469.638 184.858 470.027 185.14 470.3C185.432 470.562 185.787 470.694 186.205 470.694C186.828 470.694 187.261 470.431 187.504 469.906H190.161C190.024 470.441 189.776 470.922 189.416 471.351C189.066 471.779 188.623 472.114 188.088 472.358C187.553 472.601 186.954 472.723 186.293 472.723C185.495 472.723 184.785 472.552 184.162 472.212C183.539 471.871 183.053 471.385 182.702 470.752C182.352 470.12 182.177 469.38 182.177 468.534C182.177 467.687 182.347 466.948 182.688 466.315C183.038 465.683 183.524 465.196 184.147 464.856C184.77 464.515 185.485 464.345 186.293 464.345C187.081 464.345 187.781 464.51 188.394 464.841C189.007 465.172 189.484 465.644 189.825 466.257C190.175 466.87 190.35 467.585 190.35 468.402ZM187.796 467.745C187.796 467.317 187.65 466.977 187.358 466.724C187.066 466.471 186.701 466.344 186.264 466.344C185.845 466.344 185.49 466.466 185.198 466.709C184.916 466.952 184.741 467.298 184.673 467.745H187.796ZM194.264 468.519C194.264 467.682 194.419 466.948 194.731 466.315C195.052 465.683 195.485 465.196 196.03 464.856C196.575 464.515 197.183 464.345 197.854 464.345C198.389 464.345 198.876 464.457 199.314 464.68C199.761 464.904 200.112 465.206 200.365 465.585V461.805H202.86V472.606H200.365V471.438C200.131 471.827 199.795 472.139 199.357 472.372C198.929 472.606 198.428 472.723 197.854 472.723C197.183 472.723 196.575 472.552 196.03 472.212C195.485 471.861 195.052 471.37 194.731 470.738C194.419 470.095 194.264 469.356 194.264 468.519ZM200.365 468.534C200.365 467.911 200.189 467.42 199.839 467.059C199.499 466.699 199.08 466.519 198.584 466.519C198.088 466.519 197.664 466.699 197.314 467.059C196.974 467.41 196.803 467.896 196.803 468.519C196.803 469.142 196.974 469.638 197.314 470.008C197.664 470.368 198.088 470.548 198.584 470.548C199.08 470.548 199.499 470.368 199.839 470.008C200.189 469.648 200.365 469.156 200.365 468.534ZM212.343 468.402C212.343 468.636 212.329 468.879 212.299 469.132H206.651C206.69 469.638 206.85 470.027 207.133 470.3C207.424 470.562 207.78 470.694 208.198 470.694C208.821 470.694 209.254 470.431 209.497 469.906H212.153C212.017 470.441 211.769 470.922 211.409 471.351C211.059 471.779 210.616 472.114 210.081 472.358C209.546 472.601 208.947 472.723 208.286 472.723C207.488 472.723 206.777 472.552 206.155 472.212C205.532 471.871 205.045 471.385 204.695 470.752C204.345 470.12 204.17 469.38 204.17 468.534C204.17 467.687 204.34 466.948 204.681 466.315C205.031 465.683 205.517 465.196 206.14 464.856C206.763 464.515 207.478 464.345 208.286 464.345C209.074 464.345 209.774 464.51 210.387 464.841C211 465.172 211.477 465.644 211.818 466.257C212.168 466.87 212.343 467.585 212.343 468.402ZM209.789 467.745C209.789 467.317 209.643 466.977 209.351 466.724C209.059 466.471 208.694 466.344 208.256 466.344C207.838 466.344 207.483 466.466 207.191 466.709C206.909 466.952 206.734 467.298 206.666 467.745H209.789ZM209.964 462.374L206.447 463.849V462.126L209.964 460.433V462.374ZM213.164 468.534C213.164 467.687 213.334 466.948 213.674 466.315C214.025 465.683 214.506 465.196 215.119 464.856C215.742 464.515 216.452 464.345 217.25 464.345C218.272 464.345 219.123 464.612 219.804 465.147C220.495 465.683 220.948 466.437 221.162 467.41H218.505C218.282 466.787 217.849 466.476 217.206 466.476C216.749 466.476 216.384 466.656 216.112 467.016C215.839 467.366 215.703 467.872 215.703 468.534C215.703 469.195 215.839 469.706 216.112 470.066C216.384 470.416 216.749 470.592 217.206 470.592C217.849 470.592 218.282 470.28 218.505 469.657H221.162C220.948 470.611 220.495 471.36 219.804 471.905C219.114 472.45 218.262 472.723 217.25 472.723C216.452 472.723 215.742 472.552 215.119 472.212C214.506 471.871 214.025 471.385 213.674 470.752C213.334 470.12 213.164 469.38 213.164 468.534ZM226.204 472.723C225.406 472.723 224.686 472.552 224.044 472.212C223.411 471.871 222.91 471.385 222.541 470.752C222.181 470.12 222.001 469.38 222.001 468.534C222.001 467.697 222.185 466.962 222.555 466.33C222.925 465.688 223.431 465.196 224.073 464.856C224.715 464.515 225.435 464.345 226.233 464.345C227.031 464.345 227.751 464.515 228.393 464.856C229.036 465.196 229.542 465.688 229.911 466.33C230.281 466.962 230.466 467.697 230.466 468.534C230.466 469.37 230.276 470.11 229.897 470.752C229.527 471.385 229.016 471.871 228.364 472.212C227.722 472.552 227.002 472.723 226.204 472.723ZM226.204 470.562C226.681 470.562 227.085 470.387 227.416 470.037C227.756 469.687 227.926 469.186 227.926 468.534C227.926 467.882 227.761 467.381 227.43 467.03C227.109 466.68 226.71 466.505 226.233 466.505C225.747 466.505 225.343 466.68 225.022 467.03C224.701 467.371 224.54 467.872 224.54 468.534C224.54 469.186 224.696 469.687 225.007 470.037C225.328 470.387 225.727 470.562 226.204 470.562ZM236.752 464.374C237.706 464.374 238.465 464.685 239.029 465.308C239.603 465.921 239.89 466.768 239.89 467.848V472.606H237.409V468.183C237.409 467.638 237.268 467.215 236.986 466.914C236.704 466.612 236.324 466.461 235.848 466.461C235.371 466.461 234.991 466.612 234.709 466.914C234.427 467.215 234.286 467.638 234.286 468.183V472.606H231.79V464.462H234.286V465.542C234.539 465.182 234.879 464.899 235.308 464.695C235.736 464.481 236.217 464.374 236.752 464.374ZM246.587 464.374C247.541 464.374 248.3 464.685 248.864 465.308C249.438 465.921 249.725 466.768 249.725 467.848V472.606H247.244V468.183C247.244 467.638 247.103 467.215 246.821 466.914C246.539 466.612 246.159 466.461 245.682 466.461C245.206 466.461 244.826 466.612 244.544 466.914C244.262 467.215 244.121 467.638 244.121 468.183V472.606H241.625V464.462H244.121V465.542C244.374 465.182 244.714 464.899 245.142 464.695C245.57 464.481 246.052 464.374 246.587 464.374ZM259.137 468.402C259.137 468.636 259.122 468.879 259.093 469.132H253.445C253.483 469.638 253.644 470.027 253.926 470.3C254.218 470.562 254.573 470.694 254.992 470.694C255.614 470.694 256.047 470.431 256.291 469.906H258.947C258.811 470.441 258.563 470.922 258.203 471.351C257.852 471.779 257.41 472.114 256.874 472.358C256.339 472.601 255.741 472.723 255.079 472.723C254.281 472.723 253.571 472.552 252.948 472.212C252.326 471.871 251.839 471.385 251.489 470.752C251.139 470.12 250.963 469.38 250.963 468.534C250.963 467.687 251.134 466.948 251.474 466.315C251.824 465.683 252.311 465.196 252.934 464.856C253.556 464.515 254.272 464.345 255.079 464.345C255.867 464.345 256.568 464.51 257.181 464.841C257.794 465.172 258.271 465.644 258.611 466.257C258.962 466.87 259.137 467.585 259.137 468.402ZM256.583 467.745C256.583 467.317 256.437 466.977 256.145 466.724C255.853 466.471 255.488 466.344 255.05 466.344C254.632 466.344 254.277 466.466 253.985 466.709C253.702 466.952 253.527 467.298 253.459 467.745H256.583ZM259.957 468.534C259.957 467.687 260.127 466.948 260.468 466.315C260.818 465.683 261.3 465.196 261.913 464.856C262.536 464.515 263.246 464.345 264.044 464.345C265.066 464.345 265.917 464.612 266.598 465.147C267.289 465.683 267.741 466.437 267.955 467.41H265.299C265.075 466.787 264.642 466.476 264 466.476C263.543 466.476 263.178 466.656 262.905 467.016C262.633 467.366 262.497 467.872 262.497 468.534C262.497 469.195 262.633 469.706 262.905 470.066C263.178 470.416 263.543 470.592 264 470.592C264.642 470.592 265.075 470.28 265.299 469.657H267.955C267.741 470.611 267.289 471.36 266.598 471.905C265.907 472.45 265.056 472.723 264.044 472.723C263.246 472.723 262.536 472.552 261.913 472.212C261.3 471.871 260.818 471.385 260.468 470.752C260.127 470.12 259.957 469.38 259.957 468.534ZM273.83 470.489V472.606H272.56C271.655 472.606 270.95 472.387 270.444 471.949C269.938 471.501 269.685 470.776 269.685 469.774V466.534H268.692V464.462H269.685V462.477H272.18V464.462H273.815V466.534H272.18V469.803C272.18 470.047 272.239 470.222 272.356 470.329C272.472 470.436 272.667 470.489 272.939 470.489H273.83ZM282.897 468.402C282.897 468.636 282.882 468.879 282.853 469.132H277.205C277.244 469.638 277.404 470.027 277.687 470.3C277.978 470.562 278.334 470.694 278.752 470.694C279.375 470.694 279.808 470.431 280.051 469.906H282.707C282.571 470.441 282.323 470.922 281.963 471.351C281.613 471.779 281.17 472.114 280.635 472.358C280.1 472.601 279.501 472.723 278.84 472.723C278.042 472.723 277.331 472.552 276.709 472.212C276.086 471.871 275.599 471.385 275.249 470.752C274.899 470.12 274.724 469.38 274.724 468.534C274.724 467.687 274.894 466.948 275.234 466.315C275.585 465.683 276.071 465.196 276.694 464.856C277.317 464.515 278.032 464.345 278.84 464.345C279.628 464.345 280.328 464.51 280.941 464.841C281.554 465.172 282.031 465.644 282.372 466.257C282.722 466.87 282.897 467.585 282.897 468.402ZM280.343 467.745C280.343 467.317 280.197 466.977 279.905 466.724C279.613 466.471 279.248 466.344 278.81 466.344C278.392 466.344 278.037 466.466 277.745 466.709C277.463 466.952 277.288 467.298 277.219 467.745H280.343ZM286.71 465.819C287.001 465.371 287.366 465.021 287.804 464.768C288.242 464.505 288.729 464.374 289.264 464.374V467.016H288.578C287.955 467.016 287.488 467.152 287.177 467.424C286.865 467.687 286.71 468.154 286.71 468.826V472.606H284.214V464.462H286.71V465.819Z" fill="white"/>
</g>
</g>
<defs>
<filter id="filter0_d_60_1199" x="4.14843" y="4.14843" width="91.8665" height="91.873" filterUnits="userSpaceOnUse" color-interpolation-filters="sRGB">
<feFlood flood-opacity="0" result="BackgroundImageFix"/>
<feColorMatrix in="SourceAlpha" type="matrix" values="0 0 0 0 0 0 0 0 0 0 0 0 0 0 0 0 0 0 127 0" result="hardAlpha"/>
<feOffset/>
<feGaussianBlur stdDeviation="7.92579"/>
<feComposite in2="hardAlpha" operator="out"/>
<feColorMatrix type="matrix" values="0 0 0 0 0 0 0 0 0 0 0 0 0 0 0 0 0 0 0.1 0"/>
<feBlend mode="normal" in2="BackgroundImageFix" result="effect1_dropShadow_60_1199"/>
<feBlend mode="normal" in="SourceGraphic" in2="effect1_dropShadow_60_1199" result="shape"/>
</filter>
<filter id="filter1_d_60_1199" x="309.148" y="817.099" width="116.703" height="116.703" filterUnits="userSpaceOnUse" color-interpolation-filters="sRGB">
<feFlood flood-opacity="0" result="BackgroundImageFix"/>
<feColorMatrix in="SourceAlpha" type="matrix" values="0 0 0 0 0 0 0 0 0 0 0 0 0 0 0 0 0 0 127 0" result="hardAlpha"/>
<feOffset/>
<feGaussianBlur stdDeviation="7.92579"/>
<feComposite in2="hardAlpha" operator="out"/>
<feColorMatrix type="matrix" values="0 0 0 0 0 0 0 0 0 0 0 0 0 0 0 0 0 0 0.1 0"/>
<feBlend mode="normal" in2="BackgroundImageFix" result="effect1_dropShadow_60_1199"/>
<feBlend mode="normal" in="SourceGraphic" in2="effect1_dropShadow_60_1199" result="shape"/>
</filter>
<filter id="filter2_d_60_1199" x="38.2914" y="438.957" width="353.417" height="58.3816" filterUnits="userSpaceOnUse" color-interpolation-filters="sRGB">
<feFlood flood-opacity="0" result="BackgroundImageFix"/>
<feColorMatrix in="SourceAlpha" type="matrix" values="0 0 0 0 0 0 0 0 0 0 0 0 0 0 0 0 0 0 127 0" result="hardAlpha"/>
<feOffset dy="1.04253"/>
<feGaussianBlur stdDeviation="1.04253"/>
<feComposite in2="hardAlpha" operator="out"/>
<feColorMatrix type="matrix" values="0 0 0 0 0 0 0 0 0 0 0 0 0 0 0 0 0 0 0.2 0"/>
<feBlend mode="normal" in2="BackgroundImageFix" result="effect1_dropShadow_60_1199"/>
<feBlend mode="normal" in="SourceGraphic" in2="effect1_dropShadow_60_1199" result="shape"/>
</filter>
<linearGradient id="paint0_linear_60_1199" x1="-0.137834" y1="144.653" x2="430.797" y2="132.017" gradientUnits="userSpaceOnUse">
<stop stop-color="#FFC244"/>
<stop offset="1" stop-color="#FFFAEE"/>
</linearGradient>
<clipPath id="clip0_60_1199">
<rect width="430" height="932" fill="white"/>
</clipPath>
</defs>
</svg>
