<svg width="430" height="932" viewBox="0 0 430 932" fill="none" xmlns="http://www.w3.org/2000/svg">
<g clip-path="url(#clip0_1_2)">
<rect width="430" height="932" fill="#FFFAEE"/>
<circle cx="215" cy="40.1278" r="928.204" fill="#FFC244"/>
<g filter="url(#filter0_d_1_2)">
<rect x="152.436" y="403.369" width="125.262" height="125.262" rx="20" fill="white"/>
</g>
<g clip-path="url(#clip1_1_2)">
<path d="M239.21 491.842C239.038 490.856 238.651 489.811 238.069 488.904C237.764 488.423 237.4 487.978 236.981 487.595C235.765 486.491 234.115 486.01 232.485 486.073C231.656 486.104 230.831 486.278 230.052 486.562C229.654 486.708 229.298 486.917 228.93 487.122C228.563 487.327 228.242 487.56 227.933 487.828C226.772 488.845 226.111 490.277 225.884 491.799C225.775 492.54 225.771 493.302 225.915 494.039C227.757 503.271 240.583 499.71 239.21 491.846V491.842ZM235.198 495.34C231.941 498.957 226.342 493.66 229.896 490.068C230.545 489.409 231.245 489.046 231.933 488.916C232.34 488.841 232.739 488.845 233.126 488.916C235.664 489.382 237.513 492.765 235.198 495.34Z" fill="#FFC244"/>
<path d="M205.027 491.842C204.855 490.856 204.468 489.811 203.885 488.904C203.58 488.423 203.216 487.978 202.798 487.595C201.582 486.491 199.932 486.01 198.301 486.073C197.472 486.104 196.647 486.278 195.869 486.562C195.47 486.708 195.114 486.917 194.747 487.122C194.379 487.327 194.059 487.56 193.75 487.828C192.588 488.845 191.927 490.277 191.701 491.799C191.591 492.54 191.587 493.302 191.732 494.039C193.574 503.271 206.399 499.71 205.027 491.846V491.842ZM201.015 495.34C197.758 498.957 192.158 493.66 195.713 490.068C196.362 489.409 197.062 489.046 197.75 488.916C198.156 488.841 198.555 488.845 198.942 488.916C201.48 489.382 203.33 492.765 201.015 495.34Z" fill="#FFC244"/>
<path d="M187.872 472.408C187.888 472.377 187.931 472.309 187.994 472.215C187.955 472.278 187.912 472.345 187.872 472.408Z" fill="black"/>
<path d="M188.021 472.175C188.092 472.065 188.189 471.919 188.314 471.757C188.213 471.895 188.115 472.033 188.021 472.175Z" fill="black"/>
<path d="M192.006 476.979C191.665 478.186 191.587 480.201 193.965 481.175C196.053 482.027 241.65 478.067 241.65 478.067V484.838C241.65 484.838 241.029 484.838 239.926 484.846C239.253 484.846 238.405 484.846 237.408 484.85C236.985 484.85 236.54 484.85 236.07 484.854C234.061 484.858 231.617 484.862 228.938 484.87C220.183 484.882 208.886 484.898 201.738 484.882C197.965 484.878 195.345 484.862 194.872 484.835C193.879 484.775 192.498 484.499 191.274 483.608C191.228 483.576 191.181 483.541 191.138 483.505C190.535 483.044 189.98 482.425 189.538 481.609C189.534 481.601 189.53 481.597 189.53 481.589C189.003 480.607 188.635 479.341 188.549 477.7C188.545 477.689 188.545 477.677 188.545 477.665C188.506 476.931 188.561 476.265 188.678 475.666C188.92 474.439 189.441 473.469 190.062 472.708C190.375 472.329 190.723 471.99 191.106 471.698C192.338 470.74 193.886 470.239 195.47 470.255L223.139 470.491L239.089 470.629L242.878 457.872L243.25 456.63L246.378 446.1L186.997 448.009L185.417 441.663H250.949L241.65 475.267C241.65 475.267 198.837 473.78 195.932 473.78C195.423 473.78 194.985 473.851 194.602 473.974C194.235 474.092 193.918 474.262 193.652 474.459C193.636 474.467 193.621 474.478 193.605 474.49C192.596 475.255 192.307 475.91 192.006 476.979Z" fill="#FFC244"/>
<path d="M190.582 469.659C190.336 469.813 190.105 469.975 189.894 470.144C189.824 470.2 189.757 470.251 189.691 470.31C189.613 470.373 189.538 470.436 189.468 470.503C189.397 470.562 189.331 470.626 189.268 470.685C189.257 470.693 189.245 470.704 189.237 470.716C189.159 470.791 189.081 470.866 189.01 470.945C188.936 471.016 188.87 471.087 188.811 471.158C188.612 471.375 188.447 471.58 188.314 471.757C188.189 471.919 188.091 472.065 188.021 472.175C188.009 472.187 188.002 472.203 187.994 472.215C187.931 472.309 187.888 472.377 187.872 472.408C187.865 472.42 187.861 472.428 187.861 472.428L178.93 436.994L169.076 438.197L166.808 432.723L181.491 433.031L190.582 469.659Z" fill="#FFC244"/>
<path d="M191.552 449.906H197.093L197.812 467.356H194.524L191.552 449.906Z" fill="#FFC244"/>
<path d="M203.388 449.906L203.123 467.356H200.471L199.58 449.906H203.388Z" fill="#FFC244"/>
<path d="M205.606 467.356V449.906H208.073L207.635 467.356H205.606Z" fill="#FFC244"/>
<path d="M215.475 449.906V467.356H210.552L210.994 449.906H215.475Z" fill="#FFC244"/>
<path d="M219.858 449.906V467.356H218.224L218.666 449.906H219.858Z" fill="#FFC244"/>
<path d="M225.524 449.906V467.356H222.103L222.541 449.906H225.524Z" fill="#FFC244"/>
<path d="M229.505 449.906L229.067 467.356H227.769L228.207 449.906H229.505Z" fill="#FFC244"/>
<path d="M240.11 449.906L236.325 467.356H232.266V449.906H240.11Z" fill="#FFC244"/>
</g>
<path d="M432.092 935.385C375.74 956.252 210.332 988.097 -0.486838 948.536" stroke="url(#paint0_linear_1_2)"/>
</g>
<defs>
<filter id="filter0_d_1_2" x="138.436" y="389.369" width="153.262" height="153.262" filterUnits="userSpaceOnUse" color-interpolation-filters="sRGB">
<feFlood flood-opacity="0" result="BackgroundImageFix"/>
<feColorMatrix in="SourceAlpha" type="matrix" values="0 0 0 0 0 0 0 0 0 0 0 0 0 0 0 0 0 0 127 0" result="hardAlpha"/>
<feOffset/>
<feGaussianBlur stdDeviation="7"/>
<feComposite in2="hardAlpha" operator="out"/>
<feColorMatrix type="matrix" values="0 0 0 0 0 0 0 0 0 0 0 0 0 0 0 0 0 0 0.1 0"/>
<feBlend mode="normal" in2="BackgroundImageFix" result="effect1_dropShadow_1_2"/>
<feBlend mode="normal" in="SourceGraphic" in2="effect1_dropShadow_1_2" result="shape"/>
</filter>
<linearGradient id="paint0_linear_1_2" x1="-0.137834" y1="948.653" x2="430.797" y2="936.017" gradientUnits="userSpaceOnUse">
<stop stop-color="#FFC244"/>
<stop offset="1" stop-color="#FFFAEE"/>
</linearGradient>
<clipPath id="clip0_1_2">
<rect width="430" height="932" fill="white"/>
</clipPath>
<clipPath id="clip1_1_2">
<rect width="84.141" height="66.8054" fill="white" transform="translate(166.808 432.723)"/>
</clipPath>
</defs>
</svg>
